<?xml version="1.0" encoding="utf-8"?>
<!-- Generator: Adobe Illustrator 23.0.6, SVG Export Plug-In . SVG Version: 6.00 Build 0)  -->
<svg version="1.1" id="arrow-right" xmlns="http://www.w3.org/2000/svg" xmlns:xlink="http://www.w3.org/1999/xlink" x="0px"
	 y="0px" viewBox="0 0 50 50" style="enable-background:new 0 0 50 50;" xml:space="preserve">
<style type="text/css">
	.st0{fill:#FFFFFF;}
</style>
<g>
	<path class="st0" d="M41.5,29.3H4.7c-2.4,0-4.3-1.9-4.3-4.3v0c0-2.4,1.9-4.3,4.3-4.3h36.8c2.4,0,4.3,1.9,4.3,4.3v0
		C45.8,27.4,43.8,29.3,41.5,29.3z"/>
	<path class="st0" d="M48.1,29.2L30.5,46.8c-2,2-5.4,2-7.4,0l0,0c-2-2-2-5.4,0-7.4l17.6-17.6c2-2,5.4-2,7.4,0l0,0
		C50.1,23.8,50.1,27.2,48.1,29.2z"/>
	<path class="st0" d="M23,10.6l17.6,17.6c2,2,5.4,2,7.4,0l0,0c2-2,2-5.4,0-7.4L30.4,3.2c-2-2-5.4-2-7.4,0l0,0
		C20.9,5.3,20.9,8.6,23,10.6z"/>
</g>
</svg>
