<?xml version="1.0" encoding="utf-8"?>
<!-- Generator: Adobe Illustrator 23.0.6, SVG Export Plug-In . SVG Version: 6.00 Build 0)  -->
<svg version="1.1" id="Layer_2" xmlns="http://www.w3.org/2000/svg" xmlns:xlink="http://www.w3.org/1999/xlink" x="0px" y="0px"
	 viewBox="0 0 400 84" style="enable-background:new 0 0 400 84;" xml:space="preserve">
<style type="text/css">
	.st0{enable-background:new    ;}
	.st1{clip-path:url(#SVGID_2_);enable-background:new    ;}
	.st2{fill:#858585;}
	.st3{clip-path:url(#SVGID_4_);enable-background:new    ;}
	.st4{fill:#8A8A8A;}
	.st5{fill:#8F8F8F;}
	.st6{clip-path:url(#SVGID_6_);enable-background:new    ;}
	.st7{fill:#A8A8A8;}
	.st8{fill:#ADADAD;}
	.st9{fill:#B3B3B3;}
	.st10{fill:#B8B8B8;}
	.st11{fill:#A3A3A3;}
	.st12{fill:#9E9E9E;}
	.st13{fill:#999999;}
	.st14{fill:#949494;}
	.st15{clip-path:url(#SVGID_8_);enable-background:new    ;}
	.st16{clip-path:url(#SVGID_10_);enable-background:new    ;}
	.st17{clip-path:url(#SVGID_12_);enable-background:new    ;}
	.st18{clip-path:url(#SVGID_14_);enable-background:new    ;}
	.st19{clip-path:url(#SVGID_16_);enable-background:new    ;}
	.st20{clip-path:url(#SVGID_18_);enable-background:new    ;}
	.st21{fill:#808080;}
	.st22{clip-path:url(#SVGID_20_);enable-background:new    ;}
	.st23{fill:#B1B1B1;}
	.st24{clip-path:url(#SVGID_22_);enable-background:new    ;}
	.st25{clip-path:url(#SVGID_24_);enable-background:new    ;}
	.st26{clip-path:url(#SVGID_26_);enable-background:new    ;}
	.st27{fill:#D1D1D1;}
	.st28{clip-path:url(#SVGID_28_);enable-background:new    ;}
	.st29{clip-path:url(#SVGID_30_);enable-background:new    ;}
	.st30{clip-path:url(#SVGID_32_);enable-background:new    ;}
	.st31{clip-path:url(#SVGID_34_);enable-background:new    ;}
	.st32{clip-path:url(#SVGID_36_);enable-background:new    ;}
	.st33{clip-path:url(#SVGID_38_);enable-background:new    ;}
	.st34{clip-path:url(#SVGID_40_);enable-background:new    ;}
	.st35{clip-path:url(#SVGID_42_);enable-background:new    ;}
	.st36{clip-path:url(#SVGID_44_);enable-background:new    ;}
	.st37{clip-path:url(#SVGID_46_);enable-background:new    ;}
	.st38{clip-path:url(#SVGID_48_);enable-background:new    ;}
	.st39{clip-path:url(#SVGID_50_);enable-background:new    ;}
	.st40{clip-path:url(#SVGID_52_);enable-background:new    ;}
	.st41{clip-path:url(#SVGID_54_);enable-background:new    ;}
	.st42{clip-path:url(#SVGID_56_);enable-background:new    ;}
	.st43{clip-path:url(#SVGID_58_);enable-background:new    ;}
	.st44{clip-path:url(#SVGID_60_);enable-background:new    ;}
	.st45{fill:#AAAAAA;}
	.st46{clip-path:url(#SVGID_62_);enable-background:new    ;}
	.st47{clip-path:url(#SVGID_64_);enable-background:new    ;}
	.st48{clip-path:url(#SVGID_66_);enable-background:new    ;}
	.st49{clip-path:url(#SVGID_68_);enable-background:new    ;}
	.st50{clip-path:url(#SVGID_70_);enable-background:new    ;}
	.st51{clip-path:url(#SVGID_72_);enable-background:new    ;}
	.st52{clip-path:url(#SVGID_74_);enable-background:new    ;}
	.st53{clip-path:url(#SVGID_76_);enable-background:new    ;}
	.st54{clip-path:url(#SVGID_78_);enable-background:new    ;}
	.st55{clip-path:url(#SVGID_80_);enable-background:new    ;}
	.st56{clip-path:url(#SVGID_82_);enable-background:new    ;}
	.st57{clip-path:url(#SVGID_84_);enable-background:new    ;}
	.st58{clip-path:url(#SVGID_86_);enable-background:new    ;}
	.st59{clip-path:url(#SVGID_88_);enable-background:new    ;}
	.st60{clip-path:url(#SVGID_90_);enable-background:new    ;}
	.st61{clip-path:url(#SVGID_92_);enable-background:new    ;}
	.st62{clip-path:url(#SVGID_94_);enable-background:new    ;}
	.st63{clip-path:url(#SVGID_96_);enable-background:new    ;}
	.st64{clip-path:url(#SVGID_98_);enable-background:new    ;}
	.st65{clip-path:url(#SVGID_100_);enable-background:new    ;}
	.st66{clip-path:url(#SVGID_102_);enable-background:new    ;}
	.st67{clip-path:url(#SVGID_104_);enable-background:new    ;}
	.st68{clip-path:url(#SVGID_106_);enable-background:new    ;}
	.st69{clip-path:url(#SVGID_108_);enable-background:new    ;}
</style>
<g>
	<g>
		<g class="st0">
			<g class="st0">
				<defs>
					<path id="SVGID_1_" class="st0" d="M1.4,64.1V53.7c0-0.8,0.2-1.3,0.5-1.6v10.4C1.6,62.8,1.4,63.3,1.4,64.1z"/>
				</defs>
				<clipPath id="SVGID_2_">
					<use xlink:href="#SVGID_1_"  style="overflow:visible;"/>
				</clipPath>
				<g class="st1">
					<path class="st2" d="M1.4,64.1V53.7c0-0.8,0.2-1.3,0.5-1.6v10.4C1.6,62.8,1.4,63.3,1.4,64.1"/>
				</g>
			</g>
			<g class="st0">
				<defs>
					<path id="SVGID_3_" class="st0" d="M2,62.4V52c0.4-0.3,1.2-0.8,2.7-1.5v10.4C3.2,61.6,2.3,62.1,2,62.4z"/>
				</defs>
				<clipPath id="SVGID_4_">
					<use xlink:href="#SVGID_3_"  style="overflow:visible;"/>
				</clipPath>
				<g class="st3">
					<path class="st2" d="M2,62.4V52c0.1-0.1,0.3-0.2,0.4-0.3v10.4C2.2,62.2,2.1,62.3,2,62.4"/>
					<path class="st4" d="M2.4,62.1V51.7c0.5-0.3,1.2-0.7,2.2-1.2v10.4C3.6,61.4,2.9,61.8,2.4,62.1"/>
					<path class="st5" d="M4.6,60.9V50.5c0,0,0,0,0,0L4.6,60.9C4.6,60.9,4.6,60.9,4.6,60.9"/>
				</g>
			</g>
			<g class="st0">
				<defs>
					<path id="SVGID_5_" class="st0" d="M18.7,58.8V48.4c0.2,0.6,0.5,1,0.8,1.3c0.3,0.3,1.2,0.8,2.6,1.5c0.9,0.5,1.4,1.3,1.4,2.4V64
						c0-1.1-0.5-1.9-1.4-2.4c-1.4-0.7-2.3-1.2-2.6-1.5C19.1,59.8,18.9,59.4,18.7,58.8z"/>
				</defs>
				<clipPath id="SVGID_6_">
					<use xlink:href="#SVGID_5_"  style="overflow:visible;"/>
				</clipPath>
				<g class="st6">
					<path class="st7" d="M18.7,58.8V48.4c0.1,0.2,0.1,0.3,0.2,0.5v10.4C18.8,59.1,18.7,59,18.7,58.8"/>
					<path class="st8" d="M18.9,59.3V48.9c0.1,0.1,0.1,0.3,0.2,0.4v10.4C19,59.5,18.9,59.4,18.9,59.3"/>
					<path class="st9" d="M19,59.7V49.3c0.1,0.1,0.2,0.2,0.3,0.3V60C19.2,59.9,19.1,59.8,19,59.7"/>
					<path class="st10" d="M19.3,60V49.6c0,0,0.1,0.1,0.1,0.1c0.2,0.1,0.5,0.3,0.9,0.6v10.4c-0.5-0.3-0.8-0.5-0.9-0.6
						C19.4,60.1,19.4,60,19.3,60"/>
					<path class="st9" d="M20.4,60.7V50.3c0.4,0.2,1,0.5,1.7,0.9c0,0,0.1,0,0.1,0.1v10.4c0,0-0.1,0-0.1-0.1
						C21.3,61.2,20.8,60.9,20.4,60.7"/>
					<path class="st10" d="M22.1,61.6V51.2c0.2,0.1,0.4,0.3,0.6,0.4v10.4C22.5,61.9,22.4,61.8,22.1,61.6"/>
					<path class="st9" d="M22.7,62.1V51.7c0.1,0.1,0.2,0.2,0.3,0.4v10.4C22.9,62.3,22.8,62.2,22.7,62.1"/>
					<path class="st8" d="M23,62.4V52c0.1,0.1,0.1,0.2,0.1,0.3v10.4C23.1,62.6,23.1,62.5,23,62.4"/>
					<path class="st7" d="M23.1,62.7V52.3c0,0.1,0.1,0.2,0.1,0.3v10.4C23.2,62.9,23.2,62.8,23.1,62.7"/>
					<path class="st11" d="M23.2,62.9V52.6c0,0.1,0.1,0.2,0.1,0.3v10.4C23.3,63.1,23.3,63,23.2,62.9"/>
					<path class="st12" d="M23.3,63.2V52.8c0,0.1,0,0.2,0.1,0.3v10.4C23.4,63.4,23.3,63.3,23.3,63.2"/>
					<path class="st13" d="M23.4,63.5V53.1c0,0.1,0,0.2,0,0.4v10.4C23.4,63.8,23.4,63.7,23.4,63.5"/>
					<path class="st14" d="M23.4,63.9V53.5c0,0,0,0,0,0.1L23.4,63.9C23.4,63.9,23.4,63.9,23.4,63.9"/>
				</g>
			</g>
			<g class="st0">
				<defs>
					<path id="SVGID_7_" class="st0" d="M70.2,58.8V48.4c0.3,0.5,1.2,1.2,2.7,2.1c1,0.7,1.5,1.5,1.5,2.6v10.4c0-1.1-0.5-2-1.5-2.6
						C71.4,60,70.5,59.3,70.2,58.8z"/>
				</defs>
				<clipPath id="SVGID_8_">
					<use xlink:href="#SVGID_7_"  style="overflow:visible;"/>
				</clipPath>
				<g class="st15">
					<path class="st9" d="M70.2,58.8V48.4c0.1,0.1,0.1,0.2,0.2,0.3v10.4C70.3,59,70.2,58.9,70.2,58.8"/>
					<path class="st10" d="M70.4,59.1V48.7c0.4,0.4,1.3,1,2.4,1.8c0.3,0.2,0.5,0.3,0.7,0.5v10.4c-0.2-0.2-0.4-0.4-0.7-0.5
						C71.6,60.1,70.8,59.5,70.4,59.1"/>
					<path class="st9" d="M73.5,61.4V51c0.2,0.2,0.3,0.3,0.4,0.5v10.4C73.8,61.7,73.6,61.6,73.5,61.4"/>
					<path class="st8" d="M73.9,61.9V51.5c0.1,0.1,0.1,0.2,0.2,0.3v10.4C74,62.1,73.9,62,73.9,61.9"/>
					<path class="st7" d="M74.1,62.2V51.8c0,0.1,0.1,0.2,0.1,0.3v10.4C74.1,62.4,74.1,62.3,74.1,62.2"/>
					<path class="st11" d="M74.2,62.5V52.1c0,0.1,0.1,0.2,0.1,0.3v10.4C74.2,62.7,74.2,62.6,74.2,62.5"/>
					<path class="st12" d="M74.3,62.8V52.4c0,0.1,0,0.2,0,0.3v10.4C74.3,63,74.3,62.9,74.3,62.8"/>
					<path class="st13" d="M74.3,63.1V52.7c0,0.1,0,0.2,0,0.3v10.4C74.3,63.3,74.3,63.2,74.3,63.1"/>
					<path class="st14" d="M74.3,63.4V53c0,0,0,0,0,0L74.3,63.4C74.3,63.5,74.3,63.4,74.3,63.4"/>
				</g>
			</g>
			<g class="st0">
				<defs>
					<path id="SVGID_9_" class="st0" d="M18.3,53.1V42.7c0,2.8,0.1,4.7,0.4,5.7v10.4C18.4,57.8,18.3,55.9,18.3,53.1z"/>
				</defs>
				<clipPath id="SVGID_10_">
					<use xlink:href="#SVGID_9_"  style="overflow:visible;"/>
				</clipPath>
				<g class="st16">
					<path class="st14" d="M18.3,53.1V42.7c0,0.4,0,0.7,0,1v10.4C18.3,53.8,18.3,53.4,18.3,53.1"/>
					<path class="st13" d="M18.3,54.1V43.7c0,1.4,0.1,2.5,0.2,3.4v10.4C18.3,56.6,18.3,55.5,18.3,54.1"/>
					<path class="st12" d="M18.4,57.5V47.1c0,0.4,0.1,0.7,0.2,1v10.4C18.5,58.3,18.5,57.9,18.4,57.5"/>
					<path class="st11" d="M18.6,58.5V48.2c0,0.1,0,0.2,0.1,0.3v10.4C18.6,58.7,18.6,58.6,18.6,58.5"/>
				</g>
			</g>
			<g class="st0">
				<defs>
					<path id="SVGID_11_" class="st0" d="M45.2,63.8V53.4c0-0.7,0.2-1.2,0.5-1.6c0.3-0.4,1.2-1.2,2.6-2.3c0.7-0.6,1.2-1.7,1.5-3.3
						c0.3-1.6,0.4-4.4,0.4-8.3v10.4c0,3.9-0.1,6.7-0.4,8.3c-0.3,1.6-0.8,2.7-1.5,3.3c-1.4,1.1-2.2,1.9-2.6,2.3
						C45.4,62.7,45.2,63.2,45.2,63.8z"/>
				</defs>
				<clipPath id="SVGID_12_">
					<use xlink:href="#SVGID_11_"  style="overflow:visible;"/>
				</clipPath>
				<g class="st17">
					<path class="st2" d="M45.2,63.8V53.4c0-0.7,0.2-1.2,0.5-1.6c0.3-0.4,1.2-1.2,2.6-2.3c0.7-0.6,1.2-1.7,1.5-3.3
						c0.3-1.6,0.4-4.4,0.4-8.3v10.4c0,3.9-0.1,6.7-0.4,8.3c-0.3,1.6-0.8,2.7-1.5,3.3c-1.4,1.1-2.2,1.9-2.6,2.3
						C45.4,62.7,45.2,63.2,45.2,63.8"/>
				</g>
			</g>
			<g class="st0">
				<defs>
					<path id="SVGID_13_" class="st0" d="M68.4,38.1V27.7c0,6.9,0.3,12.9,1,18.1c0.2,1.3,0.4,2.1,0.8,2.6v10.4
						c-0.4-0.5-0.6-1.3-0.8-2.6C68.7,51,68.4,45,68.4,38.1z"/>
				</defs>
				<clipPath id="SVGID_14_">
					<use xlink:href="#SVGID_13_"  style="overflow:visible;"/>
				</clipPath>
				<g class="st18">
					<path class="st14" d="M68.4,38.1V27.7c0,0.9,0,1.9,0,2.8v10.4C68.4,39.9,68.4,39,68.4,38.1"/>
					<path class="st13" d="M68.4,40.9V30.5c0.1,5.2,0.3,9.9,0.8,14.1V55C68.8,50.8,68.5,46.1,68.4,40.9"/>
					<path class="st12" d="M69.2,55V44.6c0,0.4,0.1,0.8,0.2,1.2c0.1,0.4,0.1,0.8,0.2,1.1v10.4c-0.1-0.3-0.1-0.7-0.2-1.1
						C69.3,55.8,69.3,55.4,69.2,55"/>
					<path class="st11" d="M69.6,57.3V46.9c0.1,0.2,0.1,0.5,0.2,0.7V58C69.7,57.8,69.6,57.6,69.6,57.3"/>
					<path class="st7" d="M69.8,58V47.6c0,0.2,0.1,0.3,0.2,0.4v10.4C69.9,58.3,69.8,58.1,69.8,58"/>
					<path class="st8" d="M69.9,58.4V48c0,0.1,0.1,0.2,0.2,0.3v10.4C70,58.6,70,58.5,69.9,58.4"/>
					<path class="st9" d="M70.1,58.7V48.3c0,0,0.1,0.1,0.1,0.1v10.4C70.1,58.8,70.1,58.7,70.1,58.7"/>
				</g>
			</g>
			<g class="st0">
				<defs>
					<path id="SVGID_15_" class="st0" d="M4.6,60.9V50.5c0.9-0.4,1.5-1,1.8-1.7c0.3-0.7,0.6-2.1,0.8-4.1C7.5,42.6,7.8,39,8,34.1
						c0.2-4.9,0.3-9.2,0.3-12.7v10.4c0,3.5-0.1,7.7-0.3,12.7C7.8,49.4,7.5,53,7.3,55.2c-0.2,2-0.5,3.4-0.8,4.1
						C6.2,60,5.6,60.5,4.6,60.9z"/>
				</defs>
				<clipPath id="SVGID_16_">
					<use xlink:href="#SVGID_15_"  style="overflow:visible;"/>
				</clipPath>
				<g class="st19">
					<path class="st5" d="M4.6,60.9V50.5c0,0,0.1,0,0.1-0.1v10.4C4.7,60.9,4.7,60.9,4.6,60.9"/>
					<path class="st4" d="M4.8,60.9V50.5c0.2-0.1,0.4-0.2,0.6-0.3v10.4C5.2,60.7,5,60.8,4.8,60.9"/>
					<path class="st2" d="M5.3,60.5V50.2c0.5-0.4,0.9-0.8,1.2-1.3c0.3-0.7,0.6-2.1,0.8-4.1C7.5,42.6,7.8,39,8,34.1
						c0.2-4.9,0.3-9.2,0.3-12.7v10.4c0,3.5-0.1,7.7-0.3,12.7C7.8,49.4,7.5,53,7.3,55.2c-0.2,2-0.5,3.4-0.8,4.1
						C6.3,59.8,5.9,60.2,5.3,60.5"/>
				</g>
			</g>
			<g class="st0">
				<defs>
					<path id="SVGID_17_" class="st0" d="M35.4,31.8V21.4c0.9,1.7,1.6,2.7,1.9,3.1c0.4,0.4,0.9,0.6,1.5,0.6c0.6,0,1-0.2,1.5-0.6
						c0.4-0.4,0.9-1.2,1.5-2.3v10.4c-0.6,1.1-1.1,1.9-1.5,2.3c-0.4,0.4-0.9,0.6-1.5,0.6c-0.6,0-1.1-0.2-1.5-0.6
						C37,34.5,36.3,33.5,35.4,31.8z"/>
				</defs>
				<clipPath id="SVGID_18_">
					<use xlink:href="#SVGID_17_"  style="overflow:visible;"/>
				</clipPath>
				<g class="st20">
					<path class="st8" d="M35.4,31.8V21.4c0.5,0.9,0.9,1.7,1.3,2.2V34C36.3,33.5,35.9,32.7,35.4,31.8"/>
					<path class="st9" d="M36.7,34V23.6c0.3,0.4,0.5,0.7,0.7,0.9c0,0,0,0,0,0v10.4c0,0,0,0,0,0C37.2,34.7,37,34.4,36.7,34"/>
					<path class="st10" d="M37.4,34.9V24.5c0.1,0.1,0.2,0.2,0.4,0.3v10.4C37.6,35.1,37.5,35,37.4,34.9"/>
					<path class="st9" d="M37.7,35.2V24.8c0.1,0.1,0.2,0.1,0.4,0.2v10.4C38,35.3,37.9,35.3,37.7,35.2"/>
					<path class="st8" d="M38.1,35.4V25c0.1,0,0.2,0,0.3,0.1v10.4C38.3,35.4,38.2,35.4,38.1,35.4"/>
					<path class="st7" d="M38.4,35.4V25c0.1,0,0.2,0,0.3,0v10.4C38.5,35.5,38.5,35.4,38.4,35.4"/>
					<path class="st11" d="M38.6,35.5V25.1c0.1,0,0.1,0,0.2,0c0,0,0.1,0,0.1,0v10.4c0,0-0.1,0-0.1,0C38.8,35.5,38.7,35.5,38.6,35.5"
						/>
					<path class="st12" d="M38.9,35.5V25.1c0.1,0,0.1,0,0.2,0v10.4C39,35.5,39,35.5,38.9,35.5"/>
					<path class="st13" d="M39.1,35.5V25.1c0.1,0,0.1,0,0.2,0v10.4C39.2,35.4,39.2,35.4,39.1,35.5"/>
					<path class="st14" d="M39.3,35.4V25c0.1,0,0.1,0,0.2-0.1v10.4C39.4,35.4,39.4,35.4,39.3,35.4"/>
					<path class="st5" d="M39.5,35.4V25c0.1,0,0.1-0.1,0.2-0.1v10.4C39.6,35.3,39.6,35.3,39.5,35.4"/>
					<path class="st4" d="M39.7,35.3V24.9c0.1,0,0.2-0.1,0.3-0.1v10.4C39.9,35.2,39.8,35.2,39.7,35.3"/>
					<path class="st2" d="M40,35.1V24.7c0.1-0.1,0.2-0.2,0.4-0.3c0.4-0.4,0.9-1.2,1.5-2.3v10.4c-0.6,1.1-1.1,1.9-1.5,2.3
						C40.2,35,40.1,35.1,40,35.1"/>
				</g>
			</g>
			<g>
				<polygon class="st21" points="41.8,32.6 41.8,22.2 47.7,11 47.7,21.4 				"/>
			</g>
			<g class="st0">
				<defs>
					<path id="SVGID_19_" class="st0" d="M47.7,21.4V11c0.7-1.4,1.2-2.4,1.4-2.8v10.4C48.9,19.1,48.4,20,47.7,21.4z"/>
				</defs>
				<clipPath id="SVGID_20_">
					<use xlink:href="#SVGID_19_"  style="overflow:visible;"/>
				</clipPath>
				<g class="st22">
					<path class="st2" d="M47.7,21.4V11c0.7-1.4,1.2-2.4,1.4-2.8v10.4C48.9,19.1,48.4,20,47.7,21.4"/>
				</g>
			</g>
			<g>
				<polygon class="st23" points="26.8,16.2 26.8,5.8 35.4,21.4 35.4,31.8 				"/>
			</g>
			<g class="st0">
				<defs>
					<path id="SVGID_21_" class="st0" d="M49.1,18.6V8.2c1.4-2.7,2.7-4.5,4-5.4v10.4C51.8,14.1,50.4,15.9,49.1,18.6z"/>
				</defs>
				<clipPath id="SVGID_22_">
					<use xlink:href="#SVGID_21_"  style="overflow:visible;"/>
				</clipPath>
				<g class="st24">
					<path class="st2" d="M49.1,18.6V8.2c1.4-2.7,2.7-4.5,4-5.4v10.4C51.8,14.1,50.4,15.9,49.1,18.6"/>
				</g>
			</g>
			<g class="st0">
				<defs>
					<path id="SVGID_23_" class="st0" d="M1.7,17V6.6c0-0.9,0.4-1.8,1.1-2.6c0.7-0.8,1.7-1.3,2.9-1.7v10.4c-1.2,0.3-2.2,0.9-2.9,1.7
						C2.1,15.2,1.7,16,1.7,17z"/>
				</defs>
				<clipPath id="SVGID_24_">
					<use xlink:href="#SVGID_23_"  style="overflow:visible;"/>
				</clipPath>
				<g class="st25">
					<path class="st2" d="M1.7,17V6.6c0-0.9,0.4-1.8,1.1-2.6c0.3-0.3,0.6-0.6,1-0.8v10.4c-0.4,0.2-0.7,0.5-1,0.8
						C2.1,15.2,1.7,16,1.7,17"/>
					<path class="st4" d="M3.8,13.6V3.2C4,3,4.2,2.9,4.5,2.8v10.4C4.2,13.3,4,13.4,3.8,13.6"/>
					<path class="st5" d="M4.5,13.2V2.8C4.7,2.7,5,2.6,5.2,2.5v10.4C5,13,4.7,13.1,4.5,13.2"/>
					<path class="st14" d="M5.2,12.9V2.5c0.2-0.1,0.3-0.1,0.5-0.2v10.4C5.5,12.8,5.4,12.8,5.2,12.9"/>
				</g>
			</g>
			<g class="st0">
				<defs>
					<path id="SVGID_25_" class="st0" d="M53.1,13.2V2.8c1.7-1.2,4.8-1.8,9.2-1.8c7.8,0,11.7,1.8,11.7,5.2v10.4
						c0-3.5-3.9-5.2-11.7-5.2C57.9,11.5,54.8,12.1,53.1,13.2z"/>
				</defs>
				<clipPath id="SVGID_26_">
					<use xlink:href="#SVGID_25_"  style="overflow:visible;"/>
				</clipPath>
				<g class="st26">
					<path class="st2" d="M53.1,13.2V2.8c0,0,0.1-0.1,0.1-0.1v10.4C53.2,13.2,53.2,13.2,53.1,13.2"/>
					<path class="st4" d="M53.2,13.1V2.7c0.2-0.1,0.5-0.3,0.7-0.4v10.4C53.7,12.9,53.5,13,53.2,13.1"/>
					<path class="st5" d="M54,12.7V2.3c0.3-0.1,0.6-0.2,0.9-0.4v10.4C54.5,12.5,54.3,12.6,54,12.7"/>
					<path class="st14" d="M54.9,12.4V2c0.4-0.1,0.8-0.2,1.2-0.3V12C55.6,12.1,55.2,12.2,54.9,12.4"/>
					<path class="st13" d="M56.1,12V1.6c0.5-0.1,1.1-0.2,1.8-0.3v10.4C57.2,11.8,56.6,11.9,56.1,12"/>
					<path class="st12" d="M57.8,11.7V1.3c0.9-0.1,1.9-0.2,3-0.2v10.4C59.7,11.5,58.7,11.6,57.8,11.7"/>
					<path class="st11" d="M60.8,11.5V1.1c0.5,0,1,0,1.5,0c1,0,2,0,2.8,0.1v10.4c-0.9-0.1-1.8-0.1-2.8-0.1
						C61.8,11.5,61.3,11.5,60.8,11.5"/>
					<path class="st7" d="M65.2,11.6V1.2c1.1,0.1,2,0.2,2.9,0.3v10.4C67.2,11.7,66.2,11.6,65.2,11.6"/>
					<path class="st8" d="M68,11.9V1.5c0.7,0.1,1.4,0.3,2,0.5v10.4C69.4,12.2,68.8,12,68,11.9"/>
					<path class="st9" d="M70,12.4V2c0.7,0.2,1.2,0.5,1.7,0.7v10.4C71.3,12.8,70.7,12.6,70,12.4"/>
					<path class="st10" d="M71.8,13.1V2.7C72.3,3,72.6,3.3,73,3.6V14C72.6,13.7,72.3,13.4,71.8,13.1"/>
					<path class="st9" d="M73,14V3.6c0.2,0.2,0.4,0.4,0.5,0.6v10.4C73.3,14.4,73.2,14.2,73,14"/>
					<path class="st8" d="M73.5,14.6V4.2c0.1,0.1,0.2,0.3,0.2,0.4v10.4C73.7,14.9,73.6,14.8,73.5,14.6"/>
					<path class="st7" d="M73.7,15.1V4.7c0.1,0.1,0.1,0.3,0.2,0.4v10.4C73.8,15.3,73.8,15.2,73.7,15.1"/>
					<path class="st11" d="M73.9,15.4V5.1c0,0.1,0.1,0.2,0.1,0.4v10.4C74,15.7,73.9,15.6,73.9,15.4"/>
					<path class="st12" d="M74,15.8V5.4c0,0.1,0,0.3,0.1,0.4v10.4C74,16.1,74,15.9,74,15.8"/>
					<path class="st13" d="M74.1,16.2V5.8c0,0.1,0,0.3,0,0.4v10.4C74.1,16.5,74.1,16.4,74.1,16.2"/>
					<path class="st14" d="M74.1,16.6V6.3c0,0,0,0,0,0.1L74.1,16.6C74.1,16.7,74.1,16.7,74.1,16.6"/>
				</g>
			</g>
			<g>
				<path class="st27" d="M15.8,11.4c3.5,0,6,0.3,7.5,0.8c0.7,0.3,1.3,0.6,1.7,1.1c0.4,0.5,1,1.4,1.8,2.8l8.6,15.5
					c0.9,1.7,1.6,2.7,1.9,3.1c0.4,0.4,0.9,0.6,1.5,0.6c0.6,0,1-0.2,1.5-0.6c0.4-0.4,0.9-1.2,1.5-2.3l5.9-11.2
					c0.7-1.4,1.2-2.4,1.4-2.8c1.4-2.7,2.7-4.5,4-5.4c1.7-1.2,4.8-1.8,9.2-1.8c7.8,0,11.7,1.8,11.7,5.2c0,0.8-0.2,1.4-0.5,1.9
					c-0.3,0.5-0.9,1-1.9,1.7c-1.3,0.9-2.1,2.3-2.4,4.1c-0.6,3.7-1,8.3-1,13.6c0,6.9,0.3,12.9,1,18.1c0.2,1.3,0.4,2.1,0.8,2.6
					c0.3,0.5,1.2,1.2,2.7,2.1c1,0.7,1.5,1.5,1.5,2.6c0,1.9-1.3,3.2-3.9,4c-1.3,0.4-2.7,0.7-4.2,0.9c-1.5,0.1-3.7,0.2-6.8,0.2
					c-4.7,0-8.2-0.3-10.5-1c-2.5-0.7-3.8-2-3.8-3.7c0-0.7,0.2-1.2,0.5-1.6c0.3-0.4,1.2-1.2,2.6-2.3c0.7-0.6,1.2-1.7,1.5-3.3
					c0.3-1.6,0.4-4.4,0.4-8.3c0-2.2-0.1-3.6-0.3-4.3c-0.2-0.7-0.6-1-1.3-1c-0.8,0-1.5,0.5-2.2,1.6c-0.7,1-1.8,3.1-3.2,6.2l-5,10.9
					c-0.9,1.8-1.5,3.1-2.1,3.7c-0.5,0.6-1.1,1-1.7,1c-0.6,0-1.1-0.3-1.6-0.8c-0.3-0.3-1-1.5-2.1-3.6c-1.1-2.1-2-3.9-2.7-5.5
					l-5.5-12.1c-0.7-1.7-1.5-2.5-2.4-2.5c-0.9,0-1.4,0.7-1.5,2.2c-0.2,3.2-0.3,6.1-0.3,8.8c0,2.8,0.1,4.7,0.4,5.7
					c0.2,0.6,0.5,1,0.8,1.3c0.3,0.3,1.2,0.8,2.6,1.5c0.9,0.5,1.4,1.3,1.4,2.4c0,3-4,4.5-11.9,4.5c-6.7,0-10-1.5-10-4.4
					c0-0.8,0.2-1.3,0.5-1.6c0.4-0.3,1.2-0.8,2.7-1.5c0.9-0.4,1.5-1,1.8-1.7c0.3-0.7,0.6-2.1,0.8-4.1C7.5,53,7.8,49.4,8,44.5
					c0.2-4.9,0.3-9.2,0.3-12.7c0-4.4-0.4-7.4-1-9c-0.3-0.5-0.5-0.9-0.9-1.2c-0.3-0.3-0.9-0.6-1.8-1.1c-2-0.9-3-2.1-3-3.6
					c0-0.9,0.4-1.8,1.1-2.6c0.7-0.8,1.7-1.3,2.9-1.7c1.2-0.4,2.8-0.7,4.9-0.9C12.6,11.6,14.4,11.4,15.8,11.4z"/>
			</g>
			<g class="st0">
				<defs>
					<path id="SVGID_27_" class="st0" d="M15.8,11.4V1c3.5,0,6,0.3,7.5,0.8C24,2.2,24.6,2.5,25,3c0.4,0.5,1,1.4,1.8,2.8v10.4
						c-0.8-1.4-1.4-2.4-1.8-2.8c-0.4-0.5-1-0.8-1.7-1.1C21.8,11.7,19.3,11.4,15.8,11.4z"/>
				</defs>
				<clipPath id="SVGID_28_">
					<use xlink:href="#SVGID_27_"  style="overflow:visible;"/>
				</clipPath>
				<g class="st28">
					<path class="st11" d="M15.8,11.4V1c1.2,0,2.3,0,3.2,0.1v10.4C18,11.5,16.9,11.4,15.8,11.4"/>
					<path class="st7" d="M19,11.5V1.1c1,0.1,1.8,0.2,2.5,0.3v10.4C20.8,11.7,19.9,11.6,19,11.5"/>
					<path class="st8" d="M21.5,11.8V1.4c0.5,0.1,1,0.2,1.4,0.3v10.4C22.5,12,22,11.9,21.5,11.8"/>
					<path class="st9" d="M22.9,12.1V1.7c0.1,0,0.3,0.1,0.4,0.1C23.5,2,23.8,2.1,24,2.2v10.4c-0.2-0.1-0.5-0.2-0.7-0.3
						C23.2,12.2,23,12.2,22.9,12.1"/>
					<path class="st10" d="M24,12.6V2.2c0.3,0.2,0.6,0.4,0.9,0.7v10.4C24.6,13,24.3,12.8,24,12.6"/>
					<path class="st9" d="M24.9,13.3V2.9c0,0,0.1,0.1,0.1,0.1c0.2,0.2,0.4,0.5,0.7,1v10.4C25.4,13.9,25.2,13.6,24.9,13.3
						C24.9,13.3,24.9,13.3,24.9,13.3"/>
					<path class="st8" d="M25.7,14.4V4c0.3,0.5,0.7,1.1,1.1,1.9v10.4C26.4,15.5,26,14.8,25.7,14.4"/>
				</g>
			</g>
			<g class="st0">
				<defs>
					<path id="SVGID_29_" class="st0" d="M5.7,12.7V2.3C6.9,2,8.6,1.7,10.6,1.4c2-0.3,3.8-0.4,5.2-0.4v10.4c-1.4,0-3.1,0.1-5.2,0.4
						C8.6,12.1,6.9,12.4,5.7,12.7z"/>
				</defs>
				<clipPath id="SVGID_30_">
					<use xlink:href="#SVGID_29_"  style="overflow:visible;"/>
				</clipPath>
				<g class="st29">
					<path class="st14" d="M5.7,12.7V2.3c0.3-0.1,0.6-0.2,1-0.2v10.4C6.3,12.6,6,12.6,5.7,12.7"/>
					<path class="st13" d="M6.7,12.5V2.1c1-0.2,2.3-0.4,3.7-0.6v10.4C9,12,7.7,12.2,6.7,12.5"/>
					<path class="st12" d="M10.4,11.8V1.4c0.1,0,0.1,0,0.2,0c1.6-0.2,3-0.3,4.2-0.4v10.4c-1.2,0-2.6,0.2-4.2,0.4
						C10.5,11.8,10.5,11.8,10.4,11.8"/>
					<path class="st11" d="M14.8,11.5V1.1c0.3,0,0.6,0,0.9,0v10.4C15.5,11.4,15.2,11.4,14.8,11.5"/>
				</g>
			</g>
		</g>
		<g class="st0">
			<g class="st0">
				<defs>
					<path id="SVGID_31_" class="st0" d="M88.4,67V56.7c0.6,0.6,1,1.1,1.2,1.6c0.2,0.5,0.5,1.5,0.9,3c0.3,1.2,1,1.8,2.1,1.8
						c0.9,0,1.6-0.4,2.2-1.1c0.6-0.7,0.9-1.6,0.9-2.7v10.4c0,1.1-0.3,2-0.9,2.7c-0.6,0.7-1.3,1.1-2.2,1.1c-1.1,0-1.8-0.6-2.1-1.8
						c-0.4-1.6-0.7-2.6-0.9-3C89.3,68.2,88.9,67.6,88.4,67z"/>
				</defs>
				<clipPath id="SVGID_32_">
					<use xlink:href="#SVGID_31_"  style="overflow:visible;"/>
				</clipPath>
				<g class="st30">
					<path class="st9" d="M88.4,67V56.7c0.4,0.4,0.7,0.8,0.9,1.1v10.4C89,67.8,88.7,67.4,88.4,67"/>
					<path class="st8" d="M89.3,68.1V57.8c0.1,0.1,0.2,0.3,0.2,0.4v10.4C89.4,68.4,89.3,68.3,89.3,68.1"/>
					<path class="st7" d="M89.5,68.5V58.1c0,0,0,0.1,0,0.1c0,0.1,0.1,0.3,0.2,0.4v10.4C89.6,68.9,89.6,68.7,89.5,68.5
						C89.5,68.6,89.5,68.6,89.5,68.5"/>
					<path class="st11" d="M89.7,69.1V58.7c0.2,0.6,0.4,1.4,0.7,2.6c0,0.1,0,0.2,0.1,0.3v10.4c0-0.1-0.1-0.2-0.1-0.3
						C90.1,70.5,89.9,69.6,89.7,69.1"/>
					<path class="st7" d="M90.5,71.9V61.5c0,0.1,0.1,0.2,0.1,0.3v10.4C90.5,72.2,90.5,72.1,90.5,71.9"/>
					<path class="st8" d="M90.6,72.3V61.9c0,0.1,0.1,0.2,0.2,0.3v10.4C90.7,72.5,90.6,72.4,90.6,72.3"/>
					<path class="st9" d="M90.8,72.6V62.2c0.1,0.1,0.2,0.2,0.3,0.3v10.4C90.9,72.8,90.8,72.7,90.8,72.6"/>
					<path class="st10" d="M91,72.9V62.5c0.1,0.1,0.2,0.2,0.4,0.3v10.4C91.3,73.1,91.1,73,91,72.9"/>
					<path class="st9" d="M91.4,73.2V62.8c0.1,0.1,0.2,0.1,0.3,0.2v10.4C91.6,73.3,91.5,73.3,91.4,73.2"/>
					<path class="st8" d="M91.8,73.4V63c0.1,0,0.2,0,0.3,0.1v10.4C91.9,73.4,91.8,73.4,91.8,73.4"/>
					<path class="st7" d="M92,73.4V63c0.1,0,0.2,0,0.3,0v10.4C92.2,73.5,92.1,73.4,92,73.4"/>
					<path class="st11" d="M92.3,73.5V63.1c0.1,0,0.1,0,0.2,0c0,0,0.1,0,0.1,0v10.4c0,0-0.1,0-0.1,0C92.4,73.5,92.3,73.5,92.3,73.5"
						/>
					<path class="st12" d="M92.6,73.5V63.1c0.1,0,0.2,0,0.3,0v10.4C92.7,73.5,92.7,73.5,92.6,73.5"/>
					<path class="st13" d="M92.8,73.4V63c0.1,0,0.2,0,0.2,0v10.4C93,73.4,92.9,73.4,92.8,73.4"/>
					<path class="st14" d="M93.1,73.4V63c0.1,0,0.2,0,0.2-0.1v10.4C93.2,73.4,93.2,73.4,93.1,73.4"/>
					<path class="st5" d="M93.3,73.3V62.9c0.1,0,0.2-0.1,0.3-0.1v10.4C93.5,73.3,93.4,73.3,93.3,73.3"/>
					<path class="st4" d="M93.6,73.2V62.8c0.1,0,0.2-0.1,0.3-0.2V73C93.8,73.1,93.7,73.2,93.6,73.2"/>
					<path class="st2" d="M93.9,73V62.7c0.3-0.2,0.5-0.4,0.7-0.7c0.6-0.7,0.9-1.6,0.9-2.7v10.4c0,1.1-0.3,2-0.9,2.7
						C94.4,72.7,94.2,72.9,93.9,73"/>
				</g>
			</g>
			<g class="st0">
				<defs>
					<path id="SVGID_33_" class="st0" d="M76.4,72.5V62.1c0-2.1,0.7-3.8,2.1-5.3c1.4-1.4,3.1-2.1,5-2.1s3.6,0.7,4.8,1.9V67
						c-1.2-1.3-2.8-1.9-4.8-1.9s-3.7,0.7-5,2.1C77.1,68.7,76.4,70.4,76.4,72.5z"/>
				</defs>
				<clipPath id="SVGID_34_">
					<use xlink:href="#SVGID_33_"  style="overflow:visible;"/>
				</clipPath>
				<g class="st31">
					<path class="st2" d="M76.4,72.5V62.1c0-2.1,0.7-3.8,2.1-5.3c0.4-0.4,0.8-0.8,1.3-1v10.4c-0.4,0.3-0.9,0.6-1.3,1
						C77.1,68.7,76.4,70.4,76.4,72.5"/>
					<path class="st4" d="M79.7,66.2V55.8c0.3-0.2,0.5-0.3,0.8-0.4v10.4C80.3,65.9,80,66,79.7,66.2"/>
					<path class="st5" d="M80.5,65.7V55.3c0.2-0.1,0.4-0.2,0.7-0.3v10.4C81,65.5,80.8,65.6,80.5,65.7"/>
					<path class="st14" d="M81.2,65.5V55.1c0.2-0.1,0.4-0.1,0.6-0.2v10.4C81.6,65.3,81.4,65.4,81.2,65.5"/>
					<path class="st13" d="M81.9,65.3V54.9c0.2-0.1,0.4-0.1,0.7-0.1v10.4C82.3,65.2,82.1,65.2,81.9,65.3"/>
					<path class="st12" d="M82.5,65.2V54.8c0.2,0,0.5-0.1,0.7-0.1v10.4C83,65.1,82.8,65.1,82.5,65.2"/>
					<path class="st11" d="M83.3,65.1V54.7c0.1,0,0.2,0,0.3,0c0.2,0,0.4,0,0.6,0v10.4c-0.2,0-0.4,0-0.6,0
						C83.4,65.1,83.4,65.1,83.3,65.1"/>
					<path class="st7" d="M84.1,65.1V54.7c0.3,0,0.6,0.1,0.8,0.1v10.4C84.7,65.2,84.4,65.1,84.1,65.1"/>
					<path class="st8" d="M84.9,65.2V54.8c0.3,0.1,0.6,0.1,0.8,0.2v10.4C85.5,65.3,85.2,65.3,84.9,65.2"/>
					<path class="st9" d="M85.8,65.4V55c0.4,0.1,0.8,0.3,1.1,0.5v10.4C86.6,65.7,86.2,65.5,85.8,65.4"/>
					<path class="st10" d="M86.9,65.9V55.5c0.5,0.3,0.9,0.6,1.3,1v10.4C87.8,66.5,87.4,66.2,86.9,65.9"/>
					<path class="st9" d="M88.3,66.9V56.5c0,0,0.1,0.1,0.1,0.1V67C88.3,67,88.3,67,88.3,66.9"/>
				</g>
			</g>
			<g class="st0">
				<defs>
					<path id="SVGID_35_" class="st0" d="M102.4,37.1V26.7c0,0.7,0.2,1.3,0.4,2s0.9,1.9,1.8,3.6c1.1,1.9,2,2.8,2.8,2.8
						c0.9,0,1.7-0.8,2.7-2.5c0.9-1.7,1.4-3.3,1.4-4.8v10.4c0,1.5-0.5,3.1-1.4,4.8c-0.9,1.7-1.8,2.5-2.7,2.5c-0.8,0-1.7-1-2.8-2.8
						c-0.9-1.7-1.6-2.9-1.8-3.6C102.6,38.5,102.4,37.8,102.4,37.1z"/>
				</defs>
				<clipPath id="SVGID_36_">
					<use xlink:href="#SVGID_35_"  style="overflow:visible;"/>
				</clipPath>
				<g class="st32">
					<path class="st14" d="M102.4,37.1V26.7c0,0,0,0,0,0.1L102.4,37.1C102.4,37.2,102.4,37.2,102.4,37.1"/>
					<path class="st13" d="M102.4,37.2V26.8c0,0.1,0,0.3,0,0.4v10.4C102.4,37.5,102.4,37.3,102.4,37.2"/>
					<path class="st12" d="M102.4,37.6V27.2c0,0.2,0,0.3,0.1,0.5v10.4C102.5,38,102.5,37.8,102.4,37.6"/>
					<path class="st11" d="M102.5,38.1V27.7c0,0.2,0.1,0.4,0.2,0.6v10.4C102.6,38.5,102.6,38.3,102.5,38.1"/>
					<path class="st7" d="M102.7,38.7V28.3c0,0.2,0.1,0.3,0.2,0.5c0.1,0.1,0.1,0.3,0.2,0.4v10.4c-0.1-0.2-0.1-0.3-0.2-0.4
						C102.8,39,102.7,38.9,102.7,38.7"/>
					<path class="st8" d="M103.1,39.6V29.2c0.3,0.7,0.9,1.8,1.7,3.1c0.2,0.3,0.3,0.6,0.5,0.8v10.4c-0.2-0.3-0.3-0.5-0.5-0.8
						C103.9,41.4,103.4,40.3,103.1,39.6"/>
					<path class="st9" d="M105.2,43.6V33.2c0.3,0.5,0.7,1,1,1.3v10.4C105.9,44.5,105.5,44.1,105.2,43.6"/>
					<path class="st10" d="M106.2,44.9V34.5c0.2,0.2,0.4,0.4,0.6,0.5v10.4C106.6,45.3,106.4,45.1,106.2,44.9"/>
					<path class="st9" d="M106.8,45.4V35c0.1,0.1,0.2,0.1,0.3,0.1v10.4C107,45.5,106.9,45.4,106.8,45.4"/>
					<path class="st8" d="M107.1,45.5V35.1c0.1,0,0.1,0,0.2,0v10.4C107.2,45.5,107.2,45.5,107.1,45.5"/>
					<path class="st7" d="M107.3,45.6V35.2c0,0,0.1,0,0.1,0v10.4C107.4,45.6,107.3,45.6,107.3,45.6"/>
					<path class="st11" d="M107.4,45.6V35.2c0,0,0,0,0.1,0c0,0,0,0,0,0v10.4C107.5,45.6,107.5,45.6,107.4,45.6
						C107.5,45.6,107.4,45.6,107.4,45.6"/>
					<path class="st12" d="M107.5,45.6V35.2c0,0,0.1,0,0.1,0v10.4C107.6,45.6,107.6,45.6,107.5,45.6"/>
					<path class="st13" d="M107.7,45.6V35.2c0,0,0.1,0,0.1,0v10.4C107.7,45.5,107.7,45.6,107.7,45.6"/>
					<path class="st14" d="M107.8,45.5V35.1c0,0,0.1,0,0.2,0v10.4C107.9,45.5,107.8,45.5,107.8,45.5"/>
					<path class="st5" d="M107.9,45.5V35.1c0.1,0,0.1,0,0.2-0.1v10.4C108.1,45.5,108,45.5,107.9,45.5"/>
					<path class="st4" d="M108.1,45.4V35c0.1,0,0.2-0.1,0.3-0.1v10.4C108.3,45.3,108.2,45.4,108.1,45.4"/>
					<path class="st2" d="M108.4,45.3V34.9c0.6-0.4,1.2-1.1,1.8-2.2c0.9-1.7,1.4-3.3,1.4-4.8v10.4c0,1.5-0.5,3.1-1.4,4.8
						C109.5,44.2,109,44.9,108.4,45.3"/>
				</g>
			</g>
			<g class="st0">
				<defs>
					<path id="SVGID_37_" class="st0" d="M108.9,32.1V21.7c0-1.4,0.9-2.5,2.8-3.3c1.9-0.8,4.4-1.2,7.6-1.2c5.9,0,8.8,1.4,8.8,4.1
						v10.4c0-2.8-2.9-4.1-8.8-4.1c-3.2,0-5.7,0.4-7.6,1.2C109.8,29.6,108.9,30.7,108.9,32.1z"/>
				</defs>
				<clipPath id="SVGID_38_">
					<use xlink:href="#SVGID_37_"  style="overflow:visible;"/>
				</clipPath>
				<g class="st33">
					<path class="st2" d="M108.9,32.1V21.7c0-1.1,0.6-2,1.7-2.7v10.4C109.5,30.1,108.9,31,108.9,32.1"/>
					<path class="st4" d="M110.6,29.4V19c0.3-0.2,0.6-0.3,0.9-0.5v10.4C111.2,29,110.9,29.2,110.6,29.4"/>
					<path class="st5" d="M111.5,28.9V18.5c0.1,0,0.2-0.1,0.2-0.1c0.3-0.1,0.6-0.2,0.9-0.3v10.4c-0.3,0.1-0.6,0.2-0.9,0.3
						C111.6,28.8,111.6,28.9,111.5,28.9"/>
					<path class="st14" d="M112.6,28.4V18.1c0.4-0.1,0.9-0.3,1.3-0.4v10.4C113.5,28.2,113,28.3,112.6,28.4"/>
					<path class="st13" d="M113.9,28.1V17.7c0.5-0.1,1.1-0.2,1.7-0.3v10.4C115.1,27.8,114.5,27.9,113.9,28.1"/>
					<path class="st12" d="M115.7,27.8V17.4c0.8-0.1,1.6-0.2,2.5-0.2v10.4C117.3,27.6,116.4,27.7,115.7,27.8"/>
					<path class="st11" d="M118.2,27.6V17.2c0.4,0,0.7,0,1.1,0c0.7,0,1.4,0,2,0.1v10.4c-0.6,0-1.3-0.1-2-0.1
						C118.9,27.5,118.5,27.6,118.2,27.6"/>
					<path class="st7" d="M121.3,27.6V17.2c0.8,0.1,1.5,0.1,2.1,0.2v10.4C122.8,27.7,122.1,27.7,121.3,27.6"/>
					<path class="st8" d="M123.4,27.9V17.5c0.5,0.1,1,0.2,1.5,0.4v10.4C124.5,28.1,124,27.9,123.4,27.9"/>
					<path class="st9" d="M124.9,28.2V17.8c0.5,0.2,0.9,0.3,1.3,0.6v10.4C125.9,28.6,125.4,28.4,124.9,28.2"/>
					<path class="st10" d="M126.2,28.8V18.4c0.4,0.2,0.7,0.4,0.9,0.7v10.4C126.9,29.2,126.6,29,126.2,28.8"/>
					<path class="st9" d="M127.2,29.5V19.1c0.2,0.2,0.3,0.3,0.4,0.5V30C127.5,29.8,127.3,29.6,127.2,29.5"/>
					<path class="st8" d="M127.6,30V19.6c0.1,0.1,0.1,0.2,0.2,0.3v10.4C127.7,30.2,127.7,30.1,127.6,30"/>
					<path class="st7" d="M127.8,30.3V19.9c0,0.1,0.1,0.2,0.1,0.3v10.4C127.9,30.5,127.8,30.4,127.8,30.3"/>
					<path class="st11" d="M127.9,30.6V20.3c0,0.1,0.1,0.2,0.1,0.3V31C128,30.8,127.9,30.7,127.9,30.6"/>
					<path class="st12" d="M128,31V20.6c0,0.1,0,0.2,0.1,0.3v10.4C128,31.2,128,31.1,128,31"/>
					<path class="st13" d="M128,31.3V20.9c0,0.1,0,0.2,0,0.4v10.4C128.1,31.5,128.1,31.4,128,31.3"/>
					<path class="st14" d="M128.1,31.6V21.2c0,0,0,0,0,0.1L128.1,31.6C128.1,31.7,128.1,31.7,128.1,31.6"/>
				</g>
			</g>
			<g class="st0">
				<defs>
					<path id="SVGID_39_" class="st0" d="M94,27.5V17.1c2.9,0,5.2,0.3,6.9,0.9c2.3,0.8,3.4,2.1,3.4,4v10.4c0-1.9-1.1-3.2-3.4-4
						C99.2,27.8,96.9,27.5,94,27.5z"/>
				</defs>
				<clipPath id="SVGID_40_">
					<use xlink:href="#SVGID_39_"  style="overflow:visible;"/>
				</clipPath>
				<g class="st34">
					<path class="st11" d="M94,27.5V17.1c0.8,0,1.6,0,2.4,0.1v10.4C95.6,27.5,94.8,27.5,94,27.5"/>
					<path class="st7" d="M96.3,27.6V17.2c0.9,0.1,1.7,0.2,2.5,0.3v10.4C98.1,27.7,97.2,27.6,96.3,27.6"/>
					<path class="st8" d="M98.8,27.9V17.5c0.6,0.1,1.2,0.3,1.8,0.4v10.4C100.1,28.1,99.5,28,98.8,27.9"/>
					<path class="st9" d="M100.6,28.3V17.9c0.1,0,0.2,0.1,0.3,0.1c0.5,0.2,0.9,0.3,1.2,0.5v10.4c-0.4-0.2-0.8-0.4-1.2-0.5
						C100.8,28.4,100.7,28.3,100.6,28.3"/>
					<path class="st10" d="M102.1,28.9V18.6c0.4,0.2,0.8,0.5,1.1,0.8v10.4C102.9,29.5,102.6,29.2,102.1,28.9"/>
					<path class="st9" d="M103.2,29.8V19.4c0.2,0.2,0.4,0.4,0.5,0.6v10.4C103.6,30.2,103.4,30,103.2,29.8"/>
					<path class="st8" d="M103.7,30.4V20c0.1,0.1,0.2,0.3,0.2,0.4v10.4C103.9,30.7,103.8,30.5,103.7,30.4"/>
					<path class="st7" d="M104,30.8V20.4c0.1,0.1,0.1,0.2,0.1,0.4v10.4C104.1,31,104,30.9,104,30.8"/>
					<path class="st11" d="M104.1,31.2V20.8c0,0.1,0.1,0.2,0.1,0.4v10.4C104.2,31.4,104.1,31.3,104.1,31.2"/>
					<path class="st12" d="M104.2,31.5V21.1c0,0.1,0,0.3,0.1,0.4v10.4C104.2,31.8,104.2,31.7,104.2,31.5"/>
					<path class="st13" d="M104.3,31.9V21.5c0,0.1,0,0.3,0,0.4v10.4C104.3,32.2,104.3,32.1,104.3,31.9"/>
					<path class="st14" d="M104.3,32.4V22c0,0,0,0,0,0.1L104.3,32.4C104.3,32.4,104.3,32.4,104.3,32.4"/>
				</g>
			</g>
			<g class="st0">
				<defs>
					<path id="SVGID_41_" class="st0" d="M75.4,33.3V22.9c0-2.4,2.4-4,7.3-4.9c3.3-0.6,7-0.9,11.2-0.9v10.4c-4.2,0-7.9,0.3-11.2,0.9
						C77.9,29.2,75.4,30.9,75.4,33.3z"/>
				</defs>
				<clipPath id="SVGID_42_">
					<use xlink:href="#SVGID_41_"  style="overflow:visible;"/>
				</clipPath>
				<g class="st35">
					<path class="st2" d="M75.4,33.3V22.9c0-1.2,0.6-2.2,1.9-3.1v10.4C76.1,31,75.4,32.1,75.4,33.3"/>
					<path class="st4" d="M77.3,30.2V19.8c0.3-0.2,0.6-0.4,1-0.5v10.4C78,29.8,77.6,30,77.3,30.2"/>
					<path class="st5" d="M78.3,29.7V19.3c0.4-0.2,0.8-0.3,1.3-0.5v10.4C79.1,29.3,78.7,29.5,78.3,29.7"/>
					<path class="st14" d="M79.6,29.2V18.8c0.6-0.2,1.2-0.4,1.8-0.5v10.4C80.7,28.8,80.1,29,79.6,29.2"/>
					<path class="st13" d="M81.4,28.6V18.2c0.4-0.1,0.9-0.2,1.4-0.3c0.7-0.1,1.4-0.2,2.1-0.3V28c-0.7,0.1-1.4,0.2-2.1,0.3
						C82.3,28.4,81.8,28.5,81.4,28.6"/>
					<path class="st12" d="M84.9,28V17.6c1.9-0.3,4-0.4,6.2-0.5v10.4C88.9,27.6,86.8,27.8,84.9,28"/>
					<path class="st11" d="M91.1,27.6V17.2c0.9,0,1.9,0,2.9,0v10.4C93,27.5,92,27.5,91.1,27.6"/>
				</g>
			</g>
			<g>
				<path class="st27" d="M94,27.5c2.9,0,5.2,0.3,6.9,0.9c2.3,0.8,3.4,2.1,3.4,4c0,0.7-0.3,1.5-1,2.4c-0.6,0.9-0.9,1.6-0.9,2.3
					c0,0.7,0.2,1.3,0.4,2c0.3,0.7,0.9,1.9,1.8,3.6c1.1,1.9,2,2.8,2.8,2.8c0.9,0,1.7-0.8,2.7-2.5c0.9-1.7,1.4-3.3,1.4-4.8
					c0-1.3-0.3-2.3-1-3c-1.1-1.2-1.6-2.3-1.6-3.1c0-1.4,0.9-2.5,2.8-3.3c1.9-0.8,4.4-1.2,7.6-1.2c5.9,0,8.8,1.4,8.8,4.1
					c0,1-0.3,1.8-0.9,2.4c-0.6,0.6-1.7,1.2-3.3,1.7c-1.3,0.5-2.4,1.3-3.1,2.4c-1.2,1.8-2.6,4.8-4.2,9L111.1,62
					c-1.4,3.7-2.7,6.6-4.1,9c-1.4,2.3-2.9,4.3-4.7,5.9c-3.6,3.4-7.9,5-13,5c-4.1,0-7.4-1.1-10-3.2c-2-1.6-3-3.7-3-6.2
					c0-2.1,0.7-3.8,2.1-5.3c1.4-1.4,3.1-2.1,5-2.1s3.6,0.7,4.8,1.9c0.6,0.6,1,1.1,1.2,1.6c0.2,0.5,0.5,1.5,0.9,3
					c0.3,1.2,1,1.8,2.1,1.8c0.9,0,1.6-0.4,2.2-1.1c0.6-0.7,0.9-1.6,0.9-2.7c0-1.3-0.7-3.4-2.2-6.4l-10-20.8
					c-1.1-2.2-1.8-3.5-2.4-4.1c-0.5-0.5-1.7-1.2-3.5-2c-0.6-0.2-1-0.6-1.4-1.3c-0.4-0.6-0.6-1.3-0.6-1.8c0-2.4,2.4-4,7.3-4.9
					C86.1,27.8,89.8,27.5,94,27.5z"/>
			</g>
		</g>
		<g class="st0">
			<g class="st0">
				<defs>
					<path id="SVGID_43_" class="st0" d="M157.5,47.8V37.4c0.6,0.6,2,2.5,4.1,5.7c1,1.5,2.7,2.8,4.9,3.8c2.2,1,4.5,1.5,6.9,1.5
						c2.1,0,3.7-0.4,5-1.1c1.3-0.7,1.9-1.7,1.9-2.9v10.4c0,1.2-0.6,2.1-1.9,2.9c-1.3,0.7-2.9,1.1-5,1.1c-2.4,0-4.7-0.5-6.9-1.5
						c-2.2-1-3.9-2.3-4.9-3.8C159.5,50.3,158.1,48.4,157.5,47.8z"/>
				</defs>
				<clipPath id="SVGID_44_">
					<use xlink:href="#SVGID_43_"  style="overflow:visible;"/>
				</clipPath>
				<g class="st36">
					<path class="st9" d="M157.5,47.8V37.4c0.6,0.6,2,2.5,4.1,5.7c0.3,0.4,0.6,0.8,1,1.2v10.4c-0.4-0.4-0.7-0.8-1-1.2
						C159.5,50.3,158.1,48.4,157.5,47.8"/>
					<path class="st10" d="M162.6,54.7V44.3c0.7,0.7,1.6,1.4,2.6,2v10.4C164.2,56,163.3,55.4,162.6,54.7"/>
					<path class="st9" d="M165.2,56.6V46.2c0.4,0.2,0.8,0.4,1.3,0.6c0.6,0.3,1.3,0.5,1.9,0.7V58c-0.7-0.2-1.3-0.5-1.9-0.7
						C166,57.1,165.6,56.8,165.2,56.6"/>
					<path class="st8" d="M168.4,58V47.6c0.7,0.2,1.4,0.4,2.1,0.5v10.4C169.8,58.4,169.1,58.2,168.4,58"/>
					<path class="st7" d="M170.5,58.5V48.1c0.6,0.1,1.2,0.2,1.8,0.2v10.4C171.7,58.7,171.1,58.6,170.5,58.5"/>
					<path class="st11" d="M172.3,58.7V48.3c0.4,0,0.7,0,1.1,0c0.2,0,0.4,0,0.5,0v10.4c-0.2,0-0.4,0-0.5,0
						C173,58.8,172.7,58.8,172.3,58.7"/>
					<path class="st12" d="M173.9,58.8V48.4c0.5,0,0.9,0,1.3-0.1v10.4C174.8,58.7,174.4,58.7,173.9,58.8"/>
					<path class="st13" d="M175.2,58.7V48.3c0.4,0,0.7-0.1,1-0.2v10.4C175.9,58.6,175.6,58.6,175.2,58.7"/>
					<path class="st14" d="M176.2,58.5V48.1c0.3-0.1,0.6-0.1,0.9-0.2v10.4C176.8,58.3,176.5,58.4,176.2,58.5"/>
					<path class="st5" d="M177.1,58.2V47.8c0.3-0.1,0.5-0.2,0.8-0.3v10.4C177.6,58,177.4,58.1,177.1,58.2"/>
					<path class="st4" d="M177.9,57.9V47.5c0.2-0.1,0.4-0.2,0.5-0.3c0.1-0.1,0.2-0.1,0.2-0.2v10.4c-0.1,0.1-0.2,0.1-0.2,0.2
						C178.2,57.8,178,57.8,177.9,57.9"/>
					<path class="st2" d="M178.6,57.5V47.1c1.1-0.7,1.7-1.6,1.7-2.7v10.4C180.3,55.9,179.7,56.8,178.6,57.5"/>
				</g>
			</g>
			<g class="st0">
				<defs>
					<path id="SVGID_45_" class="st0" d="M151,50.5V40.1c0-1.3,0.3-2.3,0.8-3c0.7-0.9,1.6-1.3,2.6-1.3c1.1,0,2.1,0.5,3,1.6v10.4
						c-1-1.1-2-1.6-3-1.6c-1.1,0-1.9,0.4-2.6,1.3C151.3,48.2,151,49.2,151,50.5z"/>
				</defs>
				<clipPath id="SVGID_46_">
					<use xlink:href="#SVGID_45_"  style="overflow:visible;"/>
				</clipPath>
				<g class="st37">
					<path class="st2" d="M151,50.5V40.1c0-1.3,0.3-2.3,0.8-3c0.3-0.3,0.5-0.6,0.9-0.8v10.4c-0.3,0.2-0.6,0.5-0.9,0.8
						C151.3,48.2,151,49.2,151,50.5"/>
					<path class="st4" d="M152.7,46.7V36.3c0.1-0.1,0.2-0.1,0.4-0.2v10.4C153,46.5,152.8,46.6,152.7,46.7"/>
					<path class="st5" d="M153.1,46.5V36.1c0.1,0,0.2-0.1,0.3-0.1v10.4C153.3,46.4,153.2,46.4,153.1,46.5"/>
					<path class="st14" d="M153.4,46.4V36c0.1,0,0.2-0.1,0.3-0.1v10.4C153.6,46.3,153.5,46.3,153.4,46.4"/>
					<path class="st13" d="M153.7,46.3V35.9c0.1,0,0.2,0,0.3-0.1v10.4C153.9,46.2,153.8,46.2,153.7,46.3"/>
					<path class="st12" d="M154,46.2V35.8c0.1,0,0.2,0,0.3,0v10.4C154.2,46.2,154.1,46.2,154,46.2"/>
					<path class="st11" d="M154.3,46.2V35.8c0,0,0.1,0,0.1,0c0.1,0,0.1,0,0.2,0v10.4c-0.1,0-0.1,0-0.2,0
						C154.4,46.2,154.4,46.2,154.3,46.2"/>
					<path class="st7" d="M154.7,46.2V35.8c0.1,0,0.2,0,0.3,0v10.4C154.9,46.2,154.8,46.2,154.7,46.2"/>
					<path class="st8" d="M155,46.2V35.8c0.1,0,0.3,0.1,0.4,0.1v10.4C155.3,46.3,155.1,46.3,155,46.2"/>
					<path class="st9" d="M155.4,46.3V35.9c0.2,0.1,0.5,0.2,0.7,0.3v10.4C155.9,46.5,155.7,46.4,155.4,46.3"/>
					<path class="st10" d="M156.1,46.6V36.2c0.4,0.2,0.8,0.5,1.2,1v10.4C156.9,47.2,156.5,46.9,156.1,46.6"/>
					<path class="st9" d="M157.3,47.6V37.2c0.1,0.1,0.1,0.1,0.2,0.2v10.4C157.4,47.7,157.4,47.6,157.3,47.6"/>
				</g>
			</g>
			<g class="st0">
				<defs>
					<path id="SVGID_47_" class="st0" d="M174.5,25.3V14.9c0,2.4,2.1,4.1,6.3,5.3c5.7,1.6,9.4,2.9,11,3.6
						c7.1,3.4,10.6,8.3,10.6,14.8v10.4c0-6.5-3.5-11.5-10.6-14.8c-1.6-0.8-5.3-2-11-3.6C176.6,29.4,174.5,27.7,174.5,25.3z"/>
				</defs>
				<clipPath id="SVGID_48_">
					<use xlink:href="#SVGID_47_"  style="overflow:visible;"/>
				</clipPath>
				<g class="st38">
					<path class="st14" d="M174.5,25.3V14.9c0,0,0,0,0,0.1L174.5,25.3C174.5,25.4,174.5,25.3,174.5,25.3"/>
					<path class="st13" d="M174.5,25.4V15c0,0.1,0,0.3,0,0.4v10.4C174.5,25.6,174.5,25.5,174.5,25.4"/>
					<path class="st12" d="M174.5,25.7V15.4c0,0.1,0,0.2,0.1,0.4v10.4C174.6,26,174.6,25.9,174.5,25.7"/>
					<path class="st11" d="M174.6,26.1V15.7c0,0.1,0.1,0.2,0.1,0.4v10.4C174.7,26.3,174.6,26.2,174.6,26.1"/>
					<path class="st7" d="M174.7,26.5V16.1c0,0.1,0.1,0.3,0.2,0.4v10.4C174.8,26.7,174.7,26.6,174.7,26.5"/>
					<path class="st8" d="M174.9,26.8V16.4c0.1,0.2,0.2,0.3,0.2,0.4v10.4C175,27.1,174.9,27,174.9,26.8"/>
					<path class="st9" d="M175.1,27.3V16.9c0.2,0.3,0.4,0.5,0.6,0.8V28C175.5,27.8,175.3,27.6,175.1,27.3"/>
					<path class="st10" d="M175.7,28V17.7c0.4,0.4,1,0.8,1.6,1.2v10.4C176.7,28.9,176.1,28.5,175.7,28"/>
					<path class="st9" d="M177.3,29.2V18.9c0.8,0.4,1.7,0.8,2.8,1.2v10.4C179.1,30.1,178.1,29.7,177.3,29.2"/>
					<path class="st8" d="M180.2,30.4V20c0.2,0.1,0.5,0.1,0.7,0.2c2.2,0.6,4.1,1.2,5.7,1.7v10.4c-1.6-0.5-3.5-1.1-5.7-1.7
						C180.6,30.6,180.4,30.5,180.2,30.4"/>
					<path class="st9" d="M186.5,32.3V21.9c2.6,0.8,4.4,1.5,5.3,1.9c0.6,0.3,1.2,0.6,1.7,0.9v10.4c-0.5-0.3-1.1-0.6-1.7-0.9
						C190.9,33.8,189.1,33.1,186.5,32.3"/>
					<path class="st10" d="M193.6,35.1V24.7c1.8,1,3.4,2.2,4.7,3.5v10.4C196.9,37.3,195.4,36.2,193.6,35.1"/>
					<path class="st9" d="M198.2,38.6V28.2c0.8,0.8,1.4,1.6,2,2.5v10.4C199.7,40.2,199,39.4,198.2,38.6"/>
					<path class="st8" d="M200.2,41.1V30.7c0.3,0.5,0.6,1.1,0.9,1.6v10.4C200.9,42.2,200.6,41.6,200.2,41.1"/>
					<path class="st7" d="M201.1,42.7V32.3c0.2,0.5,0.4,1,0.6,1.5v10.4C201.5,43.7,201.3,43.2,201.1,42.7"/>
					<path class="st11" d="M201.7,44.2V33.8c0.2,0.5,0.3,0.9,0.4,1.4v10.4C202,45.1,201.8,44.7,201.7,44.2"/>
					<path class="st12" d="M202.1,45.6V35.2c0.1,0.5,0.2,1,0.2,1.5v10.4C202.3,46.6,202.2,46.1,202.1,45.6"/>
					<path class="st13" d="M202.3,47.1V36.7c0.1,0.6,0.1,1.1,0.1,1.7v10.4C202.4,48.3,202.4,47.7,202.3,47.1"/>
					<path class="st14" d="M202.4,48.8V38.4c0,0.1,0,0.2,0,0.2v10.4C202.4,49,202.4,48.9,202.4,48.8"/>
				</g>
			</g>
			<g class="st0">
				<defs>
					<path id="SVGID_49_" class="st0" d="M152.5,29.7V19.3c0-2.4,0.6-4.7,1.7-7c1.1-2.3,2.7-4.2,4.8-5.9v10.4
						c-2.1,1.6-3.7,3.6-4.8,5.9C153.1,25,152.5,27.3,152.5,29.7z"/>
				</defs>
				<clipPath id="SVGID_50_">
					<use xlink:href="#SVGID_49_"  style="overflow:visible;"/>
				</clipPath>
				<g class="st39">
					<path class="st2" d="M152.5,29.7V19.3c0-2.4,0.6-4.7,1.7-7c1.1-2.3,2.7-4.2,4.8-5.9v10.4c-2.1,1.6-3.7,3.6-4.8,5.9
						C153.1,25,152.5,27.3,152.5,29.7"/>
				</g>
			</g>
			<g class="st0">
				<defs>
					<path id="SVGID_51_" class="st0" d="M176,11.1V0.7c2.9,0,6.6,0.7,11.2,2.1c0.6,0.2,1,0.2,1.3,0.2c0.3,0,1.1-0.2,2.5-0.7
						c0.4-0.2,0.9-0.2,1.4-0.2c1.9,0,3.8,1.4,5.9,4.3c2.1,2.9,3.1,5.6,3.1,8.2V25c0-2.6-1-5.3-3.1-8.2c-2.1-2.9-4-4.3-5.9-4.3
						c-0.5,0-1,0.1-1.4,0.2c-1.4,0.5-2.2,0.7-2.5,0.7c-0.3,0-0.8-0.1-1.3-0.2C182.6,11.8,178.9,11.1,176,11.1z"/>
				</defs>
				<clipPath id="SVGID_52_">
					<use xlink:href="#SVGID_51_"  style="overflow:visible;"/>
				</clipPath>
				<g class="st40">
					<path class="st11" d="M176,11.1V0.7c0.4,0,0.9,0,1.3,0v10.4C176.9,11.2,176.5,11.1,176,11.1"/>
					<path class="st7" d="M177.4,11.2V0.8c1,0.1,2.1,0.2,3.3,0.4v10.4C179.5,11.4,178.4,11.3,177.4,11.2"/>
					<path class="st8" d="M180.7,11.6V1.2c1.9,0.3,4.1,0.9,6.6,1.6c0.3,0.1,0.5,0.1,0.8,0.2v10.4c-0.2,0-0.5-0.1-0.8-0.2
						C184.8,12.5,182.6,12,180.7,11.6"/>
					<path class="st7" d="M188,13.4V3c0.2,0,0.3,0,0.4,0.1v10.4C188.3,13.4,188.2,13.4,188,13.4"/>
					<path class="st11" d="M188.4,13.5V3.1c0.1,0,0.1,0,0.2,0c0,0,0,0,0,0v10.4c0,0,0,0,0,0C188.5,13.5,188.5,13.5,188.4,13.5"/>
					<path class="st12" d="M188.6,13.5V3.1c0,0,0.1,0,0.1,0L188.6,13.5C188.7,13.5,188.6,13.5,188.6,13.5"/>
					<path class="st13" d="M188.7,13.5V3.1c0.1,0,0.2,0,0.3,0v10.4C188.9,13.4,188.8,13.4,188.7,13.5"/>
					<path class="st14" d="M189,13.4V3c0.3-0.1,0.8-0.2,1.5-0.5V13C189.8,13.2,189.3,13.3,189,13.4"/>
					<path class="st5" d="M190.4,13V2.6c0.2-0.1,0.4-0.1,0.6-0.2c0,0,0,0,0.1,0v10.4c0,0,0,0-0.1,0C190.9,12.8,190.6,12.9,190.4,13"
						/>
					<path class="st14" d="M191.1,12.7V2.3c0.1,0,0.3-0.1,0.4-0.1v10.4C191.4,12.6,191.3,12.7,191.1,12.7"/>
					<path class="st13" d="M191.5,12.6V2.2c0.1,0,0.3-0.1,0.4-0.1v10.4C191.8,12.5,191.7,12.6,191.5,12.6"/>
					<path class="st12" d="M191.9,12.5V2.1c0.1,0,0.3,0,0.4,0v10.4C192.2,12.5,192.1,12.5,191.9,12.5"/>
					<path class="st11" d="M192.3,12.5V2.1c0.1,0,0.1,0,0.2,0c0.1,0,0.2,0,0.2,0v10.4c-0.1,0-0.2,0-0.2,0
						C192.4,12.5,192.4,12.5,192.3,12.5"/>
					<path class="st7" d="M192.7,12.5V2.1c0.1,0,0.3,0,0.4,0.1v10.4C193,12.5,192.9,12.5,192.7,12.5"/>
					<path class="st8" d="M193.1,12.6V2.2c0.2,0,0.3,0.1,0.5,0.1v10.4C193.5,12.6,193.3,12.6,193.1,12.6"/>
					<path class="st9" d="M193.7,12.7V2.3c0.3,0.1,0.7,0.2,1,0.4v10.4C194.3,12.9,194,12.8,193.7,12.7"/>
					<path class="st10" d="M194.6,13.1V2.7c0.6,0.4,1.3,0.9,2,1.6v10.4C195.9,14,195.3,13.5,194.6,13.1"/>
					<path class="st9" d="M196.6,14.7V4.3c0.6,0.6,1.2,1.3,1.7,2.1c0.3,0.4,0.5,0.7,0.7,1.1v10.4c-0.2-0.4-0.5-0.7-0.7-1.1
						C197.8,16,197.2,15.3,196.6,14.7"/>
					<path class="st8" d="M199.1,17.9V7.5c0.5,0.7,0.9,1.4,1.2,2.2V20C199.9,19.3,199.5,18.6,199.1,17.9"/>
					<path class="st7" d="M200.3,20V9.6c0.2,0.5,0.4,1,0.6,1.5v10.4C200.7,21,200.5,20.5,200.3,20"/>
					<path class="st11" d="M200.9,21.5V11.1c0.1,0.4,0.2,0.8,0.3,1.2v10.4C201.1,22.3,201,21.9,200.9,21.5"/>
					<path class="st12" d="M201.2,22.8V12.4c0.1,0.4,0.1,0.7,0.2,1.1v10.4C201.3,23.5,201.3,23.1,201.2,22.8"/>
					<path class="st13" d="M201.4,23.8V13.4c0,0.3,0.1,0.7,0.1,1v10.4C201.4,24.5,201.4,24.2,201.4,23.8"/>
					<path class="st14" d="M201.5,24.9V14.5c0,0,0,0.1,0,0.1V25C201.5,24.9,201.5,24.9,201.5,24.9"/>
				</g>
			</g>
			<g class="st0">
				<defs>
					<path id="SVGID_53_" class="st0" d="M159,16.9V6.5c4.6-3.8,10.3-5.7,17-5.7v10.4C169.4,11.1,163.7,13.1,159,16.9z"/>
				</defs>
				<clipPath id="SVGID_54_">
					<use xlink:href="#SVGID_53_"  style="overflow:visible;"/>
				</clipPath>
				<g class="st41">
					<path class="st2" d="M159,16.9V6.5c0.7-0.6,1.4-1.1,2.2-1.6v10.4C160.5,15.8,159.7,16.3,159,16.9"/>
					<path class="st4" d="M161.2,15.3V4.9c0.9-0.6,1.9-1.2,2.9-1.6v10.4C163.1,14.1,162.2,14.7,161.2,15.3"/>
					<path class="st5" d="M164.1,13.6V3.2c0.8-0.4,1.7-0.7,2.6-1v10.4C165.8,12.9,165,13.2,164.1,13.6"/>
					<path class="st14" d="M166.7,12.6V2.2c0.8-0.3,1.7-0.5,2.5-0.7v10.4C168.4,12.1,167.5,12.3,166.7,12.6"/>
					<path class="st13" d="M169.2,11.9V1.5c0.9-0.2,1.8-0.4,2.7-0.5v10.4C171,11.5,170.1,11.7,169.2,11.9"/>
					<path class="st12" d="M171.9,11.4V1c1-0.1,2-0.2,3-0.2v10.4C173.9,11.2,172.9,11.3,171.9,11.4"/>
					<path class="st11" d="M174.9,11.2V0.8c0.4,0,0.8,0,1.1,0v10.4C175.7,11.1,175.3,11.2,174.9,11.2"/>
				</g>
			</g>
			<g>
				<path class="st27" d="M176,11.1c2.9,0,6.6,0.7,11.2,2.1c0.6,0.2,1,0.2,1.3,0.2c0.3,0,1.1-0.2,2.5-0.7c0.4-0.2,0.9-0.2,1.4-0.2
					c1.9,0,3.8,1.4,5.9,4.3c2.1,2.9,3.1,5.6,3.1,8.2c0,1.5-0.5,2.8-1.4,3.8c-0.9,1-2.1,1.6-3.4,1.6c-1.1,0-2-0.2-2.7-0.7
					c-0.7-0.4-2.2-1.7-4.6-3.9c-3.3-3-6.6-4.5-9.8-4.5c-1.5,0-2.8,0.4-3.7,1.1c-0.9,0.7-1.4,1.7-1.4,2.9c0,2.4,2.1,4.1,6.3,5.3
					c5.7,1.6,9.4,2.9,11,3.6c7.1,3.4,10.6,8.3,10.6,14.8c0,5.8-2.4,10.5-7.2,14.1c-4.9,3.7-11.4,5.6-19.3,5.6
					c-3.5,0-7.3-0.4-11.2-1.2c-3.9-0.8-6.8-1.8-8.5-2.9c-1.3-0.9-2.5-2.7-3.6-5.7c-1.1-2.9-1.6-5.7-1.6-8.5c0-1.3,0.3-2.3,0.8-3
					c0.7-0.9,1.6-1.3,2.6-1.3c1.1,0,2.1,0.5,3,1.6c0.6,0.6,2,2.5,4.1,5.7c1,1.5,2.7,2.8,4.9,3.8c2.2,1,4.5,1.5,6.9,1.5
					c2.1,0,3.7-0.4,5-1.1c1.3-0.7,1.9-1.7,1.9-2.9c0-1.1-0.5-2-1.5-2.8c-1-0.8-2.6-1.5-4.9-2.2c-4-1.2-7-2.3-9-3.4
					c-2.1-1-4-2.3-5.8-3.8c-4.4-3.8-6.6-8.1-6.6-12.9c0-2.4,0.6-4.7,1.7-7c1.1-2.3,2.7-4.2,4.8-5.9C163.7,13.1,169.4,11.1,176,11.1z
					"/>
			</g>
		</g>
		<g class="st0">
			<g class="st0">
				<defs>
					<path id="SVGID_55_" class="st0" d="M239,55.7V45.3c0.4-0.2,0.8-0.4,1.2-0.4c0.7,0,1.3,0.4,1.8,1.2c0.6,0.8,0.8,1.6,0.8,2.6
						v10.4c0-0.9-0.3-1.8-0.8-2.6c-0.5-0.8-1.2-1.2-1.8-1.2C239.8,55.3,239.4,55.4,239,55.7z"/>
				</defs>
				<clipPath id="SVGID_56_">
					<use xlink:href="#SVGID_55_"  style="overflow:visible;"/>
				</clipPath>
				<g class="st42">
					<path class="st4" d="M239,55.7V45.3c0.1,0,0.2-0.1,0.2-0.1v10.4C239.2,55.6,239.1,55.6,239,55.7"/>
					<path class="st5" d="M239.2,55.6V45.2c0.1,0,0.2-0.1,0.3-0.1v10.4C239.4,55.5,239.3,55.5,239.2,55.6"/>
					<path class="st14" d="M239.5,55.4V45c0.1,0,0.2,0,0.2-0.1v10.4C239.7,55.4,239.6,55.4,239.5,55.4"/>
					<path class="st13" d="M239.8,55.4V45c0.1,0,0.1,0,0.2,0v10.4C239.9,55.3,239.8,55.4,239.8,55.4"/>
					<path class="st12" d="M240,55.3V44.9c0.1,0,0.1,0,0.2,0v10.4C240.1,55.3,240,55.3,240,55.3"/>
					<path class="st11" d="M240.2,55.3V44.9c0,0,0,0,0.1,0c0,0,0.1,0,0.1,0v10.4C240.3,55.3,240.3,55.3,240.2,55.3
						C240.2,55.3,240.2,55.3,240.2,55.3"/>
					<path class="st7" d="M240.4,55.3V44.9c0.1,0,0.1,0,0.2,0v10.4C240.5,55.3,240.4,55.3,240.4,55.3"/>
					<path class="st8" d="M240.5,55.3V44.9c0.1,0,0.1,0,0.2,0.1v10.4C240.7,55.4,240.6,55.4,240.5,55.3"/>
					<path class="st9" d="M240.8,55.4V45c0.1,0,0.2,0.1,0.3,0.2v10.4C241,55.5,240.9,55.4,240.8,55.4"/>
					<path class="st10" d="M241.1,55.5V45.2c0.2,0.1,0.4,0.3,0.6,0.4V56C241.5,55.8,241.3,55.7,241.1,55.5"/>
					<path class="st9" d="M241.7,56V45.6c0.1,0.1,0.3,0.3,0.4,0.5c0,0.1,0.1,0.1,0.1,0.2v10.4c0-0.1-0.1-0.1-0.1-0.2
						C241.9,56.3,241.8,56.1,241.7,56"/>
					<path class="st8" d="M242.2,56.7V46.3c0.1,0.2,0.2,0.4,0.3,0.5v10.4C242.4,57.1,242.3,56.9,242.2,56.7"/>
					<path class="st7" d="M242.5,57.2V46.8c0.1,0.1,0.1,0.3,0.2,0.5v10.4C242.6,57.5,242.6,57.4,242.5,57.2"/>
					<path class="st11" d="M242.7,57.7V47.3c0,0.1,0.1,0.3,0.1,0.4v10.4C242.8,58,242.7,57.8,242.7,57.7"/>
					<path class="st12" d="M242.8,58.1V47.7c0,0.1,0.1,0.3,0.1,0.4v10.4C242.9,58.4,242.8,58.3,242.8,58.1"/>
					<path class="st13" d="M242.9,58.5V48.1c0,0.1,0,0.3,0,0.5V59C242.9,58.8,242.9,58.7,242.9,58.5"/>
					<path class="st14" d="M242.9,59V48.6c0,0,0,0,0,0.1L242.9,59C242.9,59,242.9,59,242.9,59"/>
				</g>
			</g>
			<g class="st0">
				<defs>
					<path id="SVGID_57_" class="st0" d="M230.4,51.6V41.2c0,1.6,0.4,2.9,1.2,4c0.8,1,1.9,1.5,3.1,1.5c1.1,0,2.5-0.5,4.3-1.5v10.4
						c-1.8,1-3.2,1.5-4.3,1.5c-1.3,0-2.3-0.5-3.1-1.5C230.8,54.6,230.4,53.2,230.4,51.6z"/>
				</defs>
				<clipPath id="SVGID_58_">
					<use xlink:href="#SVGID_57_"  style="overflow:visible;"/>
				</clipPath>
				<g class="st43">
					<path class="st14" d="M230.4,51.6V41.2c0,0,0,0.1,0,0.1v10.4C230.4,51.7,230.4,51.7,230.4,51.6"/>
					<path class="st13" d="M230.4,51.8V41.4c0,0.3,0,0.6,0.1,0.9v10.4C230.4,52.3,230.4,52.1,230.4,51.8"/>
					<path class="st12" d="M230.4,52.6V42.2c0,0.2,0.1,0.5,0.1,0.7v10.4C230.5,53.1,230.5,52.9,230.4,52.6"/>
					<path class="st11" d="M230.6,53.3V42.9c0,0.2,0.1,0.4,0.2,0.6V54C230.7,53.8,230.6,53.5,230.6,53.3"/>
					<path class="st7" d="M230.7,54V43.6c0.1,0.2,0.1,0.4,0.2,0.6v10.4C230.9,54.4,230.8,54.2,230.7,54"/>
					<path class="st8" d="M231,54.5V44.2c0.1,0.2,0.2,0.4,0.3,0.6v10.4C231.2,55,231.1,54.8,231,54.5"/>
					<path class="st9" d="M231.3,55.2V44.8c0.1,0.2,0.2,0.3,0.3,0.4c0.1,0.1,0.2,0.3,0.3,0.4V56c-0.1-0.1-0.2-0.2-0.3-0.4
						C231.5,55.5,231.4,55.3,231.3,55.2"/>
					<path class="st10" d="M231.9,56V45.6c0.3,0.3,0.6,0.5,0.9,0.7v10.4C232.5,56.5,232.2,56.3,231.9,56"/>
					<path class="st9" d="M232.8,56.7V46.3c0.2,0.1,0.4,0.2,0.7,0.3V57C233.3,56.9,233,56.8,232.8,56.7"/>
					<path class="st8" d="M233.5,57V46.6c0.2,0,0.3,0.1,0.5,0.1v10.4C233.8,57,233.7,57,233.5,57"/>
					<path class="st7" d="M234,57.1V46.7c0.1,0,0.3,0,0.4,0.1v10.4C234.3,57.1,234.1,57.1,234,57.1"/>
					<path class="st11" d="M234.4,57.1V46.7c0.1,0,0.2,0,0.3,0c0,0,0.1,0,0.1,0v10.4c0,0-0.1,0-0.1,0
						C234.6,57.1,234.5,57.1,234.4,57.1"/>
					<path class="st12" d="M234.9,57.1V46.7c0.1,0,0.3,0,0.4,0v10.4C235.1,57.1,235,57.1,234.9,57.1"/>
					<path class="st13" d="M235.3,57.1V46.7c0.2,0,0.4-0.1,0.5-0.1V57C235.6,57,235.5,57.1,235.3,57.1"/>
					<path class="st14" d="M235.8,57V46.6c0.2-0.1,0.5-0.1,0.8-0.2v10.4C236.3,56.9,236.1,56.9,235.8,57"/>
					<path class="st5" d="M236.6,56.8V46.4c0.4-0.1,0.8-0.3,1.3-0.5v10.4C237.5,56.5,237,56.6,236.6,56.8"/>
					<path class="st4" d="M237.9,56.2V45.8c0.3-0.2,0.7-0.4,1.1-0.6v10.4C238.6,55.9,238.3,56.1,237.9,56.2"/>
				</g>
			</g>
			<g class="st0">
				<defs>
					<path id="SVGID_59_" class="st0" d="M203.6,31.3V20.9c0-0.8,0.3-1.4,1-1.8v10.4C203.9,29.9,203.6,30.5,203.6,31.3z"/>
				</defs>
				<clipPath id="SVGID_60_">
					<use xlink:href="#SVGID_59_"  style="overflow:visible;"/>
				</clipPath>
				<g class="st44">
					<path class="st2" d="M203.6,31.3V20.9c0-0.8,0.3-1.4,0.9-1.8v10.4C203.9,29.9,203.6,30.5,203.6,31.3"/>
					<path class="st4" d="M204.5,29.6V19.2c0,0,0,0,0,0L204.5,29.6C204.5,29.5,204.5,29.6,204.5,29.6"/>
				</g>
			</g>
			<g>
				<rect x="232.5" y="16.8" class="st45" width="7.7" height="10.4"/>
			</g>
			<g class="st0">
				<defs>
					<path id="SVGID_61_" class="st0" d="M240.1,27.2V16.8c1,0,1.7,0.2,2,0.5c0.3,0.4,0.5,1.1,0.5,2.3v10.4c0-1.2-0.2-2-0.5-2.3
						C241.8,27.4,241.2,27.2,240.1,27.2z"/>
				</defs>
				<clipPath id="SVGID_62_">
					<use xlink:href="#SVGID_61_"  style="overflow:visible;"/>
				</clipPath>
				<g class="st46">
					<path class="st11" d="M240.1,27.2V16.8c0.2,0,0.3,0,0.5,0v10.4C240.5,27.2,240.3,27.2,240.1,27.2"/>
					<path class="st7" d="M240.6,27.2V16.8c0.2,0,0.4,0,0.5,0.1v10.4C241,27.3,240.8,27.3,240.6,27.2"/>
					<path class="st8" d="M241.1,27.3V16.9c0.1,0,0.3,0.1,0.4,0.1v10.4C241.4,27.4,241.3,27.3,241.1,27.3"/>
					<path class="st9" d="M241.5,27.4V17c0.1,0,0.2,0.1,0.3,0.1v10.4C241.7,27.5,241.6,27.4,241.5,27.4"/>
					<path class="st10" d="M241.8,27.5V17.1c0.1,0.1,0.2,0.1,0.3,0.2v10.4C242,27.6,241.9,27.6,241.8,27.5"/>
					<path class="st9" d="M242.1,27.7V17.3c0,0,0,0,0.1,0.1c0,0,0.1,0.1,0.1,0.1v10.4C242.2,27.8,242.2,27.8,242.1,27.7
						C242.1,27.8,242.1,27.7,242.1,27.7"/>
					<path class="st8" d="M242.2,27.9V17.5c0,0,0.1,0.1,0.1,0.2V28C242.3,28,242.2,27.9,242.2,27.9"/>
					<path class="st7" d="M242.3,28V17.6c0,0.1,0.1,0.1,0.1,0.2v10.4C242.3,28.2,242.3,28.1,242.3,28"/>
					<path class="st11" d="M242.4,28.3V17.9c0,0.1,0.1,0.2,0.1,0.3v10.4C242.4,28.4,242.4,28.3,242.4,28.3"/>
					<path class="st12" d="M242.5,28.5V18.2c0,0.1,0.1,0.3,0.1,0.5V29C242.5,28.9,242.5,28.7,242.5,28.5"/>
					<path class="st13" d="M242.5,29V18.6c0,0.3,0,0.6,0.1,0.9v10.4C242.6,29.6,242.6,29.3,242.5,29"/>
					<path class="st14" d="M242.6,29.9V19.5c0,0.1,0,0.1,0,0.2v10.4C242.6,30,242.6,30,242.6,29.9"/>
				</g>
			</g>
			<g class="st0">
				<defs>
					<path id="SVGID_63_" class="st0" d="M230.4,25.3V14.9c0,0.8,0.1,1.3,0.4,1.6c0.3,0.2,0.8,0.4,1.7,0.4v10.4
						c-0.9,0-1.4-0.1-1.7-0.4C230.5,26.6,230.4,26.1,230.4,25.3z"/>
				</defs>
				<clipPath id="SVGID_64_">
					<use xlink:href="#SVGID_63_"  style="overflow:visible;"/>
				</clipPath>
				<g class="st47">
					<path class="st14" d="M230.4,25.3V14.9c0,0,0,0.1,0,0.1v10.4C230.4,25.3,230.4,25.3,230.4,25.3"/>
					<path class="st13" d="M230.4,25.4V15c0,0.2,0,0.4,0,0.5v10.4C230.4,25.7,230.4,25.6,230.4,25.4"/>
					<path class="st12" d="M230.4,25.9V15.5c0,0.1,0,0.2,0.1,0.3v10.4C230.4,26.1,230.4,26,230.4,25.9"/>
					<path class="st11" d="M230.5,26.2V15.8c0,0.1,0,0.1,0.1,0.2v10.4C230.5,26.4,230.5,26.3,230.5,26.2"/>
					<path class="st7" d="M230.5,26.4V16c0,0.1,0,0.1,0.1,0.2v10.4C230.6,26.5,230.5,26.5,230.5,26.4"/>
					<path class="st8" d="M230.6,26.6V16.2c0,0,0,0.1,0.1,0.1v10.4C230.6,26.7,230.6,26.6,230.6,26.6"/>
					<path class="st9" d="M230.6,26.7V16.3c0,0.1,0.1,0.1,0.1,0.1v10.4C230.7,26.8,230.7,26.8,230.6,26.7"/>
					<path class="st10" d="M230.8,26.8V16.4c0,0,0,0,0,0c0,0,0.1,0.1,0.2,0.1V27C230.9,26.9,230.8,26.9,230.8,26.8
						C230.8,26.9,230.8,26.8,230.8,26.8"/>
					<path class="st9" d="M230.9,27V16.6c0.1,0,0.2,0.1,0.3,0.1v10.4C231.1,27.1,231,27,230.9,27"/>
					<path class="st8" d="M231.2,27.1V16.7c0.1,0,0.2,0.1,0.3,0.1v10.4C231.4,27.1,231.3,27.1,231.2,27.1"/>
					<path class="st7" d="M231.5,27.2V16.8c0.1,0,0.3,0,0.5,0.1v10.4C231.8,27.2,231.7,27.2,231.5,27.2"/>
					<path class="st11" d="M232,27.2V16.8c0.1,0,0.3,0,0.5,0v10.4C232.3,27.2,232.1,27.2,232,27.2"/>
				</g>
			</g>
			<g>
				<polygon class="st4" points="204.5,29.5 204.5,19.1 223.5,7.4 223.5,17.8 				"/>
			</g>
			<g class="st0">
				<defs>
					<path id="SVGID_65_" class="st0" d="M228.6,17.5V7.1c0.7,0,1.2,0.1,1.4,0.5c0.2,0.3,0.4,0.9,0.4,1.8v10.4
						c0-0.9-0.1-1.5-0.4-1.8C229.8,17.6,229.3,17.5,228.6,17.5z"/>
				</defs>
				<clipPath id="SVGID_66_">
					<use xlink:href="#SVGID_65_"  style="overflow:visible;"/>
				</clipPath>
				<g class="st48">
					<path class="st11" d="M228.6,17.5V7.1c0.1,0,0.2,0,0.3,0v10.4C228.8,17.5,228.7,17.5,228.6,17.5"/>
					<path class="st7" d="M228.9,17.5V7.1c0.1,0,0.2,0,0.3,0v10.4C229.1,17.5,229,17.5,228.9,17.5"/>
					<path class="st8" d="M229.2,17.5V7.1c0.1,0,0.2,0,0.3,0.1v10.4C229.4,17.6,229.3,17.5,229.2,17.5"/>
					<path class="st9" d="M229.5,17.6V7.2c0.1,0,0.2,0.1,0.3,0.1v10.4C229.7,17.7,229.6,17.6,229.5,17.6"/>
					<path class="st10" d="M229.7,17.7V7.3c0.1,0,0.2,0.1,0.2,0.2v10.4C229.9,17.8,229.8,17.7,229.7,17.7"/>
					<path class="st9" d="M230,17.9V7.5c0,0,0,0.1,0.1,0.1c0,0,0,0,0,0.1V18C230.1,18,230,18,230,17.9C230,17.9,230,17.9,230,17.9"
						/>
					<path class="st8" d="M230.1,18V7.6c0,0,0,0.1,0.1,0.1v10.4C230.1,18.1,230.1,18,230.1,18"/>
					<path class="st7" d="M230.1,18.1V7.7c0,0.1,0,0.1,0.1,0.2v10.4C230.2,18.3,230.2,18.2,230.1,18.1"/>
					<path class="st11" d="M230.2,18.3V7.9c0,0.1,0,0.2,0.1,0.2v10.4C230.3,18.5,230.2,18.4,230.2,18.3"/>
					<path class="st12" d="M230.3,18.6V8.2c0,0.1,0,0.2,0.1,0.4v10.4C230.3,18.8,230.3,18.7,230.3,18.6"/>
					<path class="st13" d="M230.3,18.9V8.5c0,0.2,0,0.4,0,0.7v10.4C230.4,19.4,230.4,19.2,230.3,18.9"/>
					<path class="st14" d="M230.4,19.7V9.3c0,0,0,0.1,0,0.1v10.4C230.4,19.8,230.4,19.7,230.4,19.7"/>
				</g>
			</g>
			<g>
				<path class="st27" d="M228.6,17.5c0.7,0,1.2,0.1,1.4,0.5c0.2,0.3,0.4,0.9,0.4,1.8v5.5c0,0.8,0.1,1.3,0.4,1.6
					c0.3,0.2,0.8,0.4,1.7,0.4h7.7c1,0,1.7,0.2,2,0.5c0.3,0.4,0.5,1.1,0.5,2.3v2.4c0,1.3-0.2,2.2-0.6,2.7c-0.4,0.5-1.1,0.7-2.1,0.7
					h-7.5c-0.8,0-1.3,0.1-1.6,0.4c-0.3,0.3-0.4,0.8-0.4,1.5v13.7c0,1.6,0.4,2.9,1.2,4c0.8,1,1.9,1.5,3.1,1.5c1.1,0,2.5-0.5,4.3-1.5
					c0.4-0.2,0.8-0.4,1.2-0.4c0.7,0,1.3,0.4,1.8,1.2c0.6,0.8,0.8,1.6,0.8,2.6c0,1.7-0.9,3.3-2.8,4.8c-3.9,3.3-8.7,4.9-14.3,4.9
					c-4.4,0-8-1.2-10.7-3.7c-2.7-2.4-4-5.7-4-9.7V36.7c0-0.6-0.1-1-0.2-1.2c-0.2-0.1-0.5-0.2-1.2-0.2h-4.3c-0.8,0-1.3-0.1-1.5-0.4
					c-0.2-0.3-0.3-0.9-0.3-1.8v-1.8c0-0.8,0.3-1.4,1-1.8l19-11.7c0.5-0.2,1.1-0.4,1.7-0.4H228.6z"/>
			</g>
			<g class="st0">
				<defs>
					<path id="SVGID_67_" class="st0" d="M223.5,17.8V7.4c0.5-0.2,1.1-0.4,1.7-0.4v10.4C224.6,17.5,224,17.6,223.5,17.8z"/>
				</defs>
				<clipPath id="SVGID_68_">
					<use xlink:href="#SVGID_67_"  style="overflow:visible;"/>
				</clipPath>
				<g class="st49">
					<path class="st4" d="M223.5,17.8V7.4c0,0,0,0,0.1,0L223.5,17.8C223.6,17.8,223.6,17.8,223.5,17.8"/>
					<path class="st5" d="M223.6,17.8V7.4c0.1,0,0.2-0.1,0.3-0.1v10.4C223.8,17.7,223.7,17.8,223.6,17.8"/>
					<path class="st14" d="M223.9,17.7V7.3c0.1,0,0.2-0.1,0.3-0.1v10.4C224.1,17.6,224,17.6,223.9,17.7"/>
					<path class="st13" d="M224.2,17.6V7.2c0.1,0,0.2-0.1,0.4-0.1v10.4C224.5,17.5,224.4,17.6,224.2,17.6"/>
					<path class="st12" d="M224.6,17.5V7.1c0.1,0,0.3,0,0.5,0v10.4C224.9,17.5,224.8,17.5,224.6,17.5"/>
					<path class="st11" d="M225.1,17.5V7.1c0.1,0,0.1,0,0.2,0v10.4C225.2,17.5,225.1,17.5,225.1,17.5"/>
				</g>
			</g>
			<g>
				<rect x="225.3" y="7.1" class="st45" width="3.4" height="10.4"/>
			</g>
		</g>
		<g class="st0">
			<g class="st0">
				<defs>
					<path id="SVGID_69_" class="st0" d="M289.2,57.7V47.3c0.9,0.1,1.3,0.7,1.3,1.7v10.4C290.6,58.4,290.1,57.8,289.2,57.7z"/>
				</defs>
				<clipPath id="SVGID_70_">
					<use xlink:href="#SVGID_69_"  style="overflow:visible;"/>
				</clipPath>
				<g class="st50">
					<path class="st7" d="M289.2,57.7V47.3c0,0,0,0,0.1,0L289.2,57.7C289.3,57.7,289.3,57.7,289.2,57.7"/>
					<path class="st8" d="M289.3,57.7V47.3c0.1,0,0.2,0,0.3,0.1v10.4C289.5,57.8,289.4,57.7,289.3,57.7"/>
					<path class="st9" d="M289.5,57.8V47.4c0.1,0,0.2,0.1,0.3,0.1v10.4C289.8,57.9,289.7,57.8,289.5,57.8"/>
					<path class="st10" d="M289.8,57.9V47.5c0.1,0.1,0.2,0.1,0.3,0.2v10.4C290,58,290,58,289.8,57.9"/>
					<path class="st9" d="M290.1,58.1V47.7c0.1,0.1,0.1,0.1,0.2,0.2v10.4C290.3,58.3,290.2,58.2,290.1,58.1"/>
					<path class="st8" d="M290.3,58.3V47.9c0,0.1,0.1,0.1,0.1,0.2v10.4C290.4,58.5,290.3,58.4,290.3,58.3"/>
					<path class="st7" d="M290.4,58.5V48.1c0,0.1,0,0.1,0.1,0.2v10.4C290.4,58.6,290.4,58.6,290.4,58.5"/>
					<path class="st11" d="M290.5,58.7V48.3c0,0.1,0,0.1,0.1,0.2v10.4C290.5,58.8,290.5,58.7,290.5,58.7"/>
					<path class="st12" d="M290.5,58.9V48.5c0,0.1,0,0.1,0,0.2v10.4C290.5,59,290.5,58.9,290.5,58.9"/>
					<path class="st13" d="M290.5,59.1V48.7c0,0.1,0,0.2,0,0.3v10.4C290.6,59.3,290.6,59.2,290.5,59.1"/>
					<path class="st14" d="M290.6,59.4V49c0,0,0,0,0,0L290.6,59.4C290.6,59.4,290.6,59.4,290.6,59.4"/>
				</g>
			</g>
			<g class="st0">
				<defs>
					<path id="SVGID_71_" class="st0" d="M287.5,57.3V46.9c0.3,0.2,0.9,0.3,1.7,0.4v10.4C288.3,57.6,287.8,57.4,287.5,57.3z"/>
				</defs>
				<clipPath id="SVGID_72_">
					<use xlink:href="#SVGID_71_"  style="overflow:visible;"/>
				</clipPath>
				<g class="st51">
					<path class="st10" d="M287.5,57.3V46.9c0,0,0,0,0,0L287.5,57.3C287.5,57.3,287.5,57.3,287.5,57.3"/>
					<path class="st9" d="M287.5,57.3V46.9c0.1,0.1,0.2,0.1,0.4,0.1v10.4C287.7,57.4,287.6,57.3,287.5,57.3"/>
					<path class="st8" d="M287.9,57.4V47c0.3,0.1,0.6,0.2,1,0.2v10.4C288.5,57.6,288.1,57.5,287.9,57.4"/>
					<path class="st7" d="M288.9,57.7V47.3c0.1,0,0.2,0,0.4,0.1v10.4C289.1,57.7,289,57.7,288.9,57.7"/>
				</g>
			</g>
			<g class="st0">
				<defs>
					<path id="SVGID_73_" class="st0" d="M286.6,56.1V45.7c0.3,0.6,0.6,1,0.9,1.1v10.4C287.2,57.1,286.9,56.7,286.6,56.1z"/>
				</defs>
				<clipPath id="SVGID_74_">
					<use xlink:href="#SVGID_73_"  style="overflow:visible;"/>
				</clipPath>
				<g class="st52">
					<path class="st8" d="M286.6,56.1V45.7c0.1,0.2,0.2,0.3,0.3,0.5v10.4C286.8,56.5,286.7,56.3,286.6,56.1"/>
					<path class="st9" d="M286.9,56.6V46.2c0.1,0.2,0.2,0.3,0.3,0.4v10.4C287.1,56.9,287,56.8,286.9,56.6"/>
					<path class="st10" d="M287.2,57.1V46.7c0.1,0.1,0.2,0.2,0.3,0.2v10.4C287.4,57.2,287.3,57.2,287.2,57.1"/>
				</g>
			</g>
			<g class="st0">
				<defs>
					<path id="SVGID_75_" class="st0" d="M261.5,55.7V45.3c0,1.3,0.3,2.4,1,3.2c0.6,0.8,1.5,1.2,2.5,1.2V60c-1.1,0-1.9-0.4-2.5-1.2
						C261.8,58,261.5,57,261.5,55.7z"/>
				</defs>
				<clipPath id="SVGID_76_">
					<use xlink:href="#SVGID_75_"  style="overflow:visible;"/>
				</clipPath>
				<g class="st53">
					<path class="st14" d="M261.5,55.7V45.3c0,0,0,0.1,0,0.1v10.4C261.5,55.8,261.5,55.7,261.5,55.7"/>
					<path class="st13" d="M261.5,55.8V45.4c0,0.2,0,0.5,0,0.7v10.4C261.5,56.3,261.5,56,261.5,55.8"/>
					<path class="st12" d="M261.5,56.5V46.1c0,0.2,0.1,0.4,0.1,0.6v10.4C261.6,56.9,261.5,56.7,261.5,56.5"/>
					<path class="st11" d="M261.6,57.1V46.7c0,0.2,0.1,0.3,0.1,0.5v10.4C261.7,57.4,261.6,57.2,261.6,57.1"/>
					<path class="st7" d="M261.7,57.6V47.2c0.1,0.2,0.1,0.3,0.2,0.5V58C261.9,57.9,261.8,57.7,261.7,57.6"/>
					<path class="st8" d="M261.9,58V47.6c0.1,0.2,0.2,0.3,0.3,0.5v10.4C262.1,58.3,262,58.2,261.9,58"/>
					<path class="st9" d="M262.2,58.5V48.1c0.1,0.1,0.2,0.2,0.2,0.3c0.1,0.1,0.2,0.2,0.2,0.3v10.4c-0.1-0.1-0.2-0.2-0.2-0.3
						C262.3,58.7,262.3,58.6,262.2,58.5"/>
					<path class="st10" d="M262.7,59.1V48.7c0.2,0.2,0.4,0.4,0.7,0.5v10.4C263.1,59.5,262.9,59.3,262.7,59.1"/>
					<path class="st9" d="M263.4,59.6V49.2c0.2,0.1,0.4,0.2,0.6,0.2v10.4C263.7,59.8,263.5,59.7,263.4,59.6"/>
					<path class="st8" d="M263.9,59.9V49.5c0.1,0,0.3,0.1,0.4,0.1V60C264.2,60,264,59.9,263.9,59.9"/>
					<path class="st7" d="M264.3,60V49.6c0.1,0,0.3,0,0.4,0V60C264.6,60,264.4,60,264.3,60"/>
					<path class="st11" d="M264.7,60V49.6c0.1,0,0.2,0,0.3,0V60C264.9,60,264.8,60,264.7,60"/>
				</g>
			</g>
			<g class="st0">
				<defs>
					<path id="SVGID_77_" class="st0" d="M265,60V49.6c2.2,0,3.3-1.8,3.3-5.5v10.4C268.3,58.2,267.2,60,265,60z"/>
				</defs>
				<clipPath id="SVGID_78_">
					<use xlink:href="#SVGID_77_"  style="overflow:visible;"/>
				</clipPath>
				<g class="st54">
					<path class="st11" d="M265,60V49.6c0,0,0.1,0,0.1,0V60C265,60,265,60,265,60"/>
					<path class="st12" d="M265.1,60V49.6c0.1,0,0.2,0,0.3,0V60C265.3,60,265.2,60,265.1,60"/>
					<path class="st13" d="M265.4,60V49.6c0.1,0,0.2,0,0.3-0.1v10.4C265.6,60,265.5,60,265.4,60"/>
					<path class="st14" d="M265.7,59.9V49.6c0.1,0,0.2,0,0.3-0.1v10.4C265.9,59.9,265.8,59.9,265.7,59.9"/>
					<path class="st5" d="M266,59.9V49.5c0.1,0,0.2-0.1,0.3-0.1v10.4C266.2,59.8,266.1,59.8,266,59.9"/>
					<path class="st4" d="M266.3,59.8V49.4c0.1-0.1,0.2-0.1,0.3-0.2v10.4C266.5,59.6,266.4,59.7,266.3,59.8"/>
					<path class="st2" d="M266.6,59.6V49.2c1.1-0.7,1.7-2.4,1.7-5v10.4C268.3,57.2,267.7,58.8,266.6,59.6"/>
				</g>
			</g>
			<g class="st0">
				<defs>
					<path id="SVGID_79_" class="st0" d="M285.7,48V37.6c0,4.2,0.3,6.9,0.9,8.2v10.4C286,54.9,285.7,52.2,285.7,48z"/>
				</defs>
				<clipPath id="SVGID_80_">
					<use xlink:href="#SVGID_79_"  style="overflow:visible;"/>
				</clipPath>
				<g class="st55">
					<path class="st14" d="M285.7,48V37.6c0,0.4,0,0.7,0,1.1V49C285.7,48.7,285.7,48.3,285.7,48"/>
					<path class="st13" d="M285.7,49V38.7c0,1.7,0.1,3.1,0.2,4.2v10.4C285.8,52.1,285.7,50.7,285.7,49"/>
					<path class="st12" d="M285.9,53.2V42.8c0.1,0.6,0.2,1.1,0.3,1.6v10.4C286.1,54.4,286,53.8,285.9,53.2"/>
					<path class="st11" d="M286.2,54.8V44.4c0.1,0.3,0.1,0.6,0.2,0.8v10.4C286.3,55.4,286.3,55.1,286.2,54.8"/>
					<path class="st7" d="M286.4,55.6V45.2c0.1,0.2,0.1,0.3,0.2,0.5v10.4C286.5,55.9,286.5,55.8,286.4,55.6"/>
					<path class="st8" d="M286.6,56.1V45.7c0,0,0,0,0,0.1L286.6,56.1C286.6,56.1,286.6,56.1,286.6,56.1"/>
				</g>
			</g>
			<g class="st0">
				<defs>
					<path id="SVGID_81_" class="st0" d="M244.6,57.5l0-10.4c0-2.8,1.2-5.3,3.5-7.5c3.6-3.4,9-5.1,16.3-5.2c1.6,0,2.6-0.1,3-0.5
						c0.4-0.3,0.6-1,0.6-2.2v10.4c0,1.1-0.2,1.9-0.6,2.2c-0.4,0.3-1.4,0.5-3,0.5c-7.2,0-12.6,1.8-16.3,5.2
						C245.8,52.2,244.6,54.7,244.6,57.5z"/>
				</defs>
				<clipPath id="SVGID_82_">
					<use xlink:href="#SVGID_81_"  style="overflow:visible;"/>
				</clipPath>
				<g class="st56">
					<path class="st2" d="M244.6,57.5V47.2c0-2.8,1.2-5.3,3.5-7.5c0.7-0.6,1.4-1.2,2.1-1.7v10.4c-0.8,0.5-1.5,1.1-2.1,1.7
						C245.8,52.2,244.6,54.7,244.6,57.5"/>
					<path class="st4" d="M250.2,48.4V38c0.7-0.4,1.4-0.8,2.1-1.2v10.4C251.6,47.6,250.9,48,250.2,48.4"/>
					<path class="st5" d="M252.3,47.2V36.8c0.7-0.3,1.4-0.6,2.1-0.8v10.4C253.7,46.6,253,46.9,252.3,47.2"/>
					<path class="st14" d="M254.5,46.4V36c0.7-0.3,1.5-0.5,2.3-0.7v10.4C256,45.9,255.2,46.1,254.5,46.4"/>
					<path class="st13" d="M256.8,45.7V35.3c0.9-0.2,1.8-0.4,2.8-0.5v10.4C258.6,45.4,257.7,45.5,256.8,45.7"/>
					<path class="st12" d="M259.5,45.2V34.8c1.1-0.1,2.3-0.2,3.5-0.3v10.4C261.8,45,260.7,45.1,259.5,45.2"/>
					<path class="st11" d="M263.1,44.9V34.6c0.4,0,0.9,0,1.3,0c0.3,0,0.5,0,0.7,0v10.4c-0.2,0-0.5,0-0.7,0
						C263.9,44.9,263.5,44.9,263.1,44.9"/>
					<path class="st12" d="M265.1,44.9V34.5c0.4,0,0.8,0,1.1-0.1v10.4C265.9,44.9,265.5,44.9,265.1,44.9"/>
					<path class="st13" d="M266.2,44.8V34.4c0.2,0,0.4-0.1,0.5-0.1v10.4C266.5,44.8,266.4,44.8,266.2,44.8"/>
					<path class="st14" d="M266.7,44.7V34.3c0.1,0,0.2-0.1,0.3-0.1v10.4C266.9,44.7,266.8,44.7,266.7,44.7"/>
					<path class="st5" d="M267,44.7V34.3c0.1,0,0.1-0.1,0.2-0.1v10.4C267.1,44.6,267.1,44.6,267,44.7"/>
					<path class="st4" d="M267.2,44.6V34.2c0.1,0,0.1-0.1,0.1-0.1v10.4C267.3,44.5,267.3,44.6,267.2,44.6"/>
					<path class="st2" d="M267.3,44.5V34.1c0,0,0,0,0.1,0c0.4-0.3,0.6-1,0.6-2.2v10.4C268,43.4,267.8,44.1,267.3,44.5
						C267.4,44.5,267.4,44.5,267.3,44.5"/>
				</g>
			</g>
			<g>
				<path class="st27" d="M289.2,57.7c0.9,0.1,1.3,0.7,1.3,1.7c0,1.3-0.5,2.7-1.6,4.1c-1.1,1.4-2.4,2.6-4.1,3.5
					c-2.1,1.2-4.2,1.8-6.5,1.8c-2.9,0-5.2-1-6.9-2.9c-0.6-0.7-1.1-1.1-1.6-1.1c-0.6,0-1.3,0.3-2.2,1c-2.8,2-5.9,3-9.4,3
					c-3.6,0-6.6-0.8-8.8-2.3c-1.5-1-2.6-2.3-3.5-3.9c-0.9-1.6-1.3-3.3-1.3-5.1c0-2.8,1.2-5.3,3.5-7.5c3.6-3.4,9-5.1,16.3-5.2
					c1.6,0,2.6-0.1,3-0.5c0.4-0.3,0.6-1,0.6-2.2c0-2.9-0.3-4.9-0.9-6.2c-0.6-1.3-1.6-1.9-3-1.9c-0.8,0-1.6,0.2-2.2,0.7
					c-0.6,0.5-1.5,1.4-2.4,2.7c-2.5,3.4-5,5.1-7.7,5.1c-1.4,0-2.5-0.4-3.3-1.2c-0.9-0.8-1.3-1.8-1.3-3.1c0-1.3,0.5-2.6,1.6-3.9
					c1.1-1.3,2.5-2.4,4.3-3.4c5-2.6,10.2-3.9,15.7-3.9c4.8,0,8.9,1.2,12.2,3.6c1.8,1.3,3,2.7,3.7,4.4c0.7,1.6,1.1,3.9,1.1,6.8
					l-0.1,6c0,4.2,0.3,6.9,0.9,8.2c0.3,0.6,0.6,1,0.9,1.1C287.8,57.4,288.3,57.6,289.2,57.7z M265,60c2.2,0,3.3-1.8,3.3-5.5
					c0-1.5-0.2-2.5-0.5-3c-0.3-0.5-0.9-0.8-1.8-0.8c-1.2,0-2.3,0.5-3.2,1.5c-0.9,1-1.3,2.1-1.3,3.5c0,1.3,0.3,2.4,1,3.2
					C263.1,59.6,263.9,60,265,60"/>
			</g>
			<g class="st0">
				<defs>
					<path id="SVGID_83_" class="st0" d="M247.1,38.4V28c0-1.3,0.5-2.6,1.6-3.9c1.1-1.3,2.5-2.4,4.3-3.4c5-2.6,10.2-3.9,15.7-3.9
						c4.8,0,8.9,1.2,12.2,3.6c1.8,1.3,3,2.7,3.7,4.4c0.7,1.6,1.1,3.9,1.1,6.8v10.4c0-2.9-0.4-5.1-1.1-6.8c-0.7-1.6-1.9-3.1-3.7-4.4
						c-3.3-2.4-7.4-3.6-12.2-3.6c-5.4,0-10.7,1.3-15.7,3.9c-1.8,1-3.3,2.1-4.3,3.4C247.7,35.8,247.1,37.1,247.1,38.4z"/>
				</defs>
				<clipPath id="SVGID_84_">
					<use xlink:href="#SVGID_83_"  style="overflow:visible;"/>
				</clipPath>
				<g class="st57">
					<path class="st2" d="M247.1,38.4V28c0-1.3,0.5-2.6,1.6-3.9c0.8-1,1.8-1.8,3-2.6v10.4c-1.2,0.8-2.2,1.6-3,2.6
						C247.7,35.8,247.1,37.1,247.1,38.4"/>
					<path class="st4" d="M251.7,31.9V21.5c0.4-0.3,0.9-0.6,1.4-0.8c0.4-0.2,0.8-0.4,1.2-0.6v10.4c-0.4,0.2-0.8,0.4-1.2,0.6
						C252.6,31.4,252.1,31.6,251.7,31.9"/>
					<path class="st5" d="M254.3,30.5V20.1c1.2-0.6,2.4-1.1,3.7-1.5V29C256.8,29.4,255.5,29.9,254.3,30.5"/>
					<path class="st14" d="M258,29V18.6c1.1-0.4,2.2-0.7,3.3-0.9v10.4C260.2,28.3,259.1,28.6,258,29"/>
					<path class="st13" d="M261.3,28.1V17.7c1-0.2,2.1-0.4,3.1-0.6v10.4C263.4,27.6,262.3,27.8,261.3,28.1"/>
					<path class="st12" d="M264.4,27.5V17.1c1.1-0.1,2.1-0.2,3.2-0.3v10.4C266.5,27.3,265.5,27.4,264.4,27.5"/>
					<path class="st11" d="M267.6,27.2V16.9c0.4,0,0.8,0,1.1,0c0.6,0,1.2,0,1.8,0.1v10.4c-0.6,0-1.2-0.1-1.8-0.1
						C268.4,27.2,268,27.2,267.6,27.2"/>
					<path class="st7" d="M270.6,27.3V16.9c0.9,0.1,1.8,0.2,2.6,0.3v10.4C272.4,27.5,271.5,27.3,270.6,27.3"/>
					<path class="st8" d="M273.2,27.6V17.2c0.9,0.2,1.8,0.4,2.7,0.6v10.4C275,28,274.1,27.8,273.2,27.6"/>
					<path class="st9" d="M275.9,28.2V17.9c1.2,0.4,2.4,0.9,3.5,1.5v10.4C278.3,29.1,277.1,28.6,275.9,28.2"/>
					<path class="st10" d="M279.4,29.8V19.4c0.6,0.3,1.1,0.7,1.6,1c0.6,0.5,1.2,1,1.7,1.5v10.4c-0.5-0.5-1.1-1-1.7-1.5
						C280.5,30.4,279.9,30.1,279.4,29.8"/>
					<path class="st9" d="M282.7,32.3V21.9c0.5,0.5,1,1.1,1.3,1.7v10.4C283.7,33.3,283.3,32.8,282.7,32.3"/>
					<path class="st8" d="M284.1,33.9V23.5c0.2,0.3,0.4,0.7,0.6,1V35C284.5,34.6,284.3,34.3,284.1,33.9"/>
					<path class="st7" d="M284.7,35V24.6c0,0.1,0.1,0.1,0.1,0.2c0.1,0.2,0.2,0.5,0.3,0.8v10.4c-0.1-0.3-0.2-0.5-0.3-0.8
						C284.7,35.1,284.7,35,284.7,35"/>
					<path class="st11" d="M285,35.9V25.5c0.1,0.4,0.2,0.8,0.3,1.2v10.4C285.3,36.7,285.1,36.3,285,35.9"/>
					<path class="st12" d="M285.3,37.1V26.7c0.1,0.5,0.2,1.1,0.3,1.7v10.4C285.6,38.2,285.5,37.7,285.3,37.1"/>
					<path class="st13" d="M285.6,38.8l0-10.4c0.1,0.8,0.1,1.7,0.2,2.6v10.4C285.8,40.5,285.7,39.6,285.6,38.8"/>
					<path class="st14" d="M285.8,41.5l0-10.4c0,0.2,0,0.3,0,0.5v10.4C285.8,41.8,285.8,41.6,285.8,41.5"/>
				</g>
			</g>
		</g>
		<g class="st0">
			<g class="st0">
				<defs>
					<path id="SVGID_85_" class="st0" d="M310.8,44.2V33.8c0,3.2,1.2,6.1,3.6,8.6c1.9,2,4.4,3,7.3,3c1.4,0,2.5-0.1,3.5-0.3
						c0.9-0.2,2.2-0.7,3.7-1.4c0.4-0.2,0.8-0.3,1.3-0.3c0.9,0,1.8,0.4,2.5,1.3c0.7,0.9,1.1,1.9,1.1,3v10.4c0-1.2-0.4-2.2-1.1-3
						c-0.7-0.9-1.5-1.3-2.5-1.3c-0.5,0-0.9,0.1-1.3,0.3c-1.5,0.7-2.8,1.2-3.7,1.4c-0.9,0.2-2.1,0.3-3.5,0.3c-2.9,0-5.4-1-7.3-3
						C312,50.3,310.8,47.4,310.8,44.2z"/>
				</defs>
				<clipPath id="SVGID_86_">
					<use xlink:href="#SVGID_85_"  style="overflow:visible;"/>
				</clipPath>
				<g class="st58">
					<path class="st14" d="M310.8,44.2V33.8c0,0.1,0,0.1,0,0.2v10.4C310.8,44.3,310.8,44.3,310.8,44.2"/>
					<path class="st13" d="M310.8,44.4V34c0,0.4,0,0.9,0.1,1.3v10.4C310.8,45.2,310.8,44.8,310.8,44.4"/>
					<path class="st12" d="M310.9,45.6V35.3c0,0.4,0.1,0.8,0.2,1.2v10.4C311,46.4,310.9,46,310.9,45.6"/>
					<path class="st11" d="M311,46.8V36.4c0.1,0.4,0.2,0.8,0.3,1.2V48C311.2,47.6,311.1,47.2,311,46.8"/>
					<path class="st7" d="M311.4,48V37.6c0.1,0.4,0.3,0.8,0.5,1.2v10.4C311.7,48.8,311.5,48.4,311.4,48"/>
					<path class="st8" d="M311.9,49.2V38.8c0.2,0.5,0.5,1,0.8,1.5v10.4C312.3,50.2,312.1,49.7,311.9,49.2"/>
					<path class="st9" d="M312.7,50.7V40.3c0.5,0.7,1,1.5,1.7,2.2c0,0,0.1,0.1,0.1,0.1V53c0,0-0.1-0.1-0.1-0.1
						C313.7,52.1,313.1,51.4,312.7,50.7"/>
					<path class="st10" d="M314.5,53V42.6c0.7,0.7,1.4,1.2,2.2,1.7v10.4C315.9,54.2,315.1,53.6,314.5,53"/>
					<path class="st9" d="M316.7,54.7V44.3c0.6,0.3,1.1,0.6,1.7,0.8v10.4C317.8,55.2,317.2,55,316.7,54.7"/>
					<path class="st8" d="M318.4,55.4V45c0.4,0.1,0.8,0.2,1.2,0.3v10.4C319.2,55.6,318.8,55.5,318.4,55.4"/>
					<path class="st7" d="M319.7,55.7V45.3c0.4,0.1,0.8,0.1,1.2,0.1v10.4C320.4,55.8,320,55.8,319.7,55.7"/>
					<path class="st11" d="M320.8,55.9V45.5c0.3,0,0.5,0,0.8,0c0.3,0,0.5,0,0.8,0v10.4c-0.2,0-0.5,0-0.8,0
						C321.4,55.9,321.1,55.9,320.8,55.9"/>
					<path class="st12" d="M322.4,55.9V45.5c0.6,0,1.1-0.1,1.6-0.1v10.4C323.5,55.8,323,55.9,322.4,55.9"/>
					<path class="st13" d="M324,55.7V45.4c0.4,0,0.7-0.1,1-0.2v10.4C324.7,55.6,324.4,55.7,324,55.7"/>
					<path class="st14" d="M325,55.6V45.2c0,0,0.1,0,0.1,0c0.3-0.1,0.6-0.2,1-0.3v10.4c-0.4,0.1-0.7,0.2-1,0.3
						C325.1,55.5,325.1,55.6,325,55.6"/>
					<path class="st5" d="M326.1,55.2V44.8c0.7-0.3,1.6-0.6,2.6-1.1v10.4C327.8,54.6,326.9,55,326.1,55.2"/>
					<path class="st4" d="M328.8,54.2V43.8c0,0,0,0,0.1,0c0,0,0,0,0,0L328.8,54.2C328.8,54.1,328.8,54.1,328.8,54.2
						C328.8,54.1,328.8,54.2,328.8,54.2"/>
					<path class="st5" d="M328.8,54.1V43.7c0.1,0,0.2-0.1,0.3-0.1V54C329,54.1,328.9,54.1,328.8,54.1"/>
					<path class="st14" d="M329.1,54V43.6c0.1,0,0.2-0.1,0.3-0.1v10.4C329.3,54,329.2,54,329.1,54"/>
					<path class="st13" d="M329.4,53.9V43.5c0.1,0,0.2,0,0.3-0.1v10.4C329.6,53.9,329.5,53.9,329.4,53.9"/>
					<path class="st12" d="M329.7,53.9V43.5c0.1,0,0.2,0,0.3,0v10.4C329.9,53.9,329.8,53.9,329.7,53.9"/>
					<path class="st11" d="M330,53.9V43.5c0,0,0.1,0,0.1,0c0.1,0,0.1,0,0.2,0v10.4c-0.1,0-0.1,0-0.2,0C330.1,53.9,330,53.9,330,53.9
						"/>
					<path class="st7" d="M330.3,53.9V43.5c0.1,0,0.2,0,0.3,0v10.4C330.5,53.9,330.4,53.9,330.3,53.9"/>
					<path class="st8" d="M330.6,53.9V43.5c0.1,0,0.2,0.1,0.4,0.1V54C330.9,54,330.7,53.9,330.6,53.9"/>
					<path class="st9" d="M331,54V43.6c0.2,0.1,0.4,0.1,0.5,0.2v10.4C331.4,54.1,331.2,54,331,54"/>
					<path class="st10" d="M331.5,54.2V43.8c0.3,0.2,0.6,0.4,0.8,0.6v10.4C332.1,54.6,331.8,54.4,331.5,54.2"/>
					<path class="st9" d="M332.3,54.9V44.5c0.1,0.1,0.2,0.2,0.3,0.3c0.1,0.2,0.3,0.3,0.4,0.5v10.4c-0.1-0.2-0.2-0.3-0.4-0.5
						C332.5,55,332.4,55,332.3,54.9"/>
					<path class="st8" d="M333,55.6V45.3c0.1,0.2,0.2,0.4,0.3,0.5v10.4C333.2,56,333.1,55.8,333,55.6"/>
					<path class="st7" d="M333.3,56.2V45.8c0.1,0.2,0.1,0.3,0.2,0.5v10.4C333.4,56.5,333.3,56.3,333.3,56.2"/>
					<path class="st11" d="M333.4,56.7V46.3c0,0.1,0.1,0.3,0.1,0.5v10.4C333.5,57,333.5,56.8,333.4,56.7"/>
					<path class="st12" d="M333.6,57.1V46.7c0,0.2,0.1,0.3,0.1,0.5v10.4C333.6,57.4,333.6,57.3,333.6,57.1"/>
					<path class="st13" d="M333.6,57.6V47.2c0,0.2,0,0.3,0,0.5v10.4C333.7,57.9,333.7,57.8,333.6,57.6"/>
					<path class="st14" d="M333.7,58.1V47.7c0,0,0,0.1,0,0.1L333.7,58.1C333.7,58.2,333.7,58.1,333.7,58.1"/>
				</g>
			</g>
			<g class="st0">
				<defs>
					<path id="SVGID_87_" class="st0" d="M316.9,27.3V16.9c4.9,0,9.3,1.2,13,3.6c3.6,2.3,5.4,5.1,5.4,8.6v10.4
						c0-3.4-1.8-6.3-5.4-8.6C326.2,28.5,321.8,27.3,316.9,27.3z"/>
				</defs>
				<clipPath id="SVGID_88_">
					<use xlink:href="#SVGID_87_"  style="overflow:visible;"/>
				</clipPath>
				<g class="st59">
					<path class="st11" d="M316.9,27.3V16.9c0.6,0,1.3,0,1.9,0.1v10.4C318.2,27.3,317.6,27.3,316.9,27.3"/>
					<path class="st7" d="M318.8,27.3V16.9c1,0.1,1.9,0.2,2.8,0.3v10.4C320.7,27.5,319.8,27.4,318.8,27.3"/>
					<path class="st8" d="M321.6,27.7V17.3c1,0.2,2,0.4,3,0.7v10.4C323.7,28.1,322.7,27.8,321.6,27.7"/>
					<path class="st9" d="M324.6,28.4V18c1.5,0.5,2.8,1.1,4.2,1.8v10.4C327.5,29.5,326.1,28.9,324.6,28.4"/>
					<path class="st10" d="M328.8,30.2V19.8c0.4,0.2,0.8,0.4,1.2,0.7c1,0.6,1.9,1.3,2.6,2.1v10.4c-0.7-0.7-1.6-1.4-2.6-2.1
						C329.6,30.6,329.2,30.4,328.8,30.2"/>
					<path class="st9" d="M332.5,32.9V22.6c0.5,0.6,1,1.1,1.4,1.7v10.4C333.5,34.1,333.1,33.5,332.5,32.9"/>
					<path class="st8" d="M333.9,34.7V24.3c0.2,0.3,0.4,0.7,0.6,1.1v10.4C334.3,35.4,334.1,35,333.9,34.7"/>
					<path class="st7" d="M334.5,35.7V25.4c0.1,0.3,0.3,0.6,0.4,0.9v10.4C334.8,36.3,334.6,36,334.5,35.7"/>
					<path class="st11" d="M334.9,36.7V26.3c0.1,0.3,0.2,0.6,0.2,0.9v10.4C335,37.2,335,36.9,334.9,36.7"/>
					<path class="st12" d="M335.1,37.5V27.1c0.1,0.3,0.1,0.6,0.1,0.9v10.4C335.2,38.1,335.2,37.8,335.1,37.5"/>
					<path class="st13" d="M335.2,38.4V28c0,0.3,0.1,0.6,0.1,0.9v10.4C335.3,39,335.3,38.7,335.2,38.4"/>
					<path class="st14" d="M335.3,39.3V28.9c0,0,0,0.1,0,0.1v10.4C335.3,39.4,335.3,39.4,335.3,39.3"/>
				</g>
			</g>
			<g class="st0">
				<defs>
					<path id="SVGID_89_" class="st0" d="M293.1,48.2V37.8c0-6.1,2.4-11.2,7.2-15.2c4.6-3.8,10.1-5.8,16.6-5.8v10.4
						c-6.5,0-12.1,1.9-16.6,5.8C295.5,37,293.1,42.1,293.1,48.2z"/>
				</defs>
				<clipPath id="SVGID_90_">
					<use xlink:href="#SVGID_89_"  style="overflow:visible;"/>
				</clipPath>
				<g class="st60">
					<path class="st2" d="M293.1,48.2V37.8c0-6.1,2.4-11.2,7.2-15.2c0.8-0.6,1.6-1.2,2.4-1.8v10.4c-0.8,0.5-1.6,1.1-2.4,1.8
						C295.5,37,293.1,42.1,293.1,48.2"/>
					<path class="st4" d="M302.6,31.3V20.9c0.9-0.6,1.9-1.1,2.9-1.6v10.4C304.5,30.1,303.6,30.7,302.6,31.3"/>
					<path class="st5" d="M305.5,29.7V19.3c0.8-0.4,1.6-0.7,2.5-1v10.4C307.1,29,306.3,29.3,305.5,29.7"/>
					<path class="st14" d="M308,28.7V18.3c0.8-0.3,1.6-0.5,2.4-0.7V28C309.6,28.2,308.8,28.4,308,28.7"/>
					<path class="st13" d="M310.4,28V17.6c0.8-0.2,1.7-0.3,2.6-0.5v10.4C312.1,27.6,311.2,27.8,310.4,28"/>
					<path class="st12" d="M313,27.5V17.1c0.9-0.1,1.9-0.2,2.9-0.2v10.4C314.8,27.3,313.9,27.4,313,27.5"/>
					<path class="st11" d="M315.8,27.3V16.9c0.4,0,0.7,0,1.1,0v10.4C316.5,27.3,316.2,27.3,315.8,27.3"/>
				</g>
			</g>
			<g>
				<path class="st27" d="M316.9,27.3c4.9,0,9.3,1.2,13,3.6c3.6,2.3,5.4,5.1,5.4,8.6c0,2.4-0.8,4.3-2.5,5.7
					c-1.5,1.4-3.4,2.1-5.6,2.1c-2.3,0-4-0.8-5.2-2.4c-0.4-0.5-0.9-1.8-1.6-3.9c-0.7-2.3-2.2-3.4-4.3-3.4c-1.5,0-2.8,0.6-3.8,1.9
					c-1,1.3-1.6,2.9-1.6,4.8c0,3.2,1.2,6.1,3.6,8.6c1.9,2,4.4,3,7.3,3c1.4,0,2.5-0.1,3.5-0.3c0.9-0.2,2.2-0.7,3.7-1.4
					c0.4-0.2,0.8-0.3,1.3-0.3c0.9,0,1.8,0.4,2.5,1.3c0.7,0.9,1.1,1.9,1.1,3c0,1.2-0.5,2.5-1.5,3.8c-1,1.3-2.4,2.5-4,3.5
					c-3.6,2.2-7.8,3.2-12.7,3.2c-5.7,0-10.6-1.6-14.6-4.9c-5.1-4.1-7.7-9.3-7.7-15.7c0-6.1,2.4-11.2,7.2-15.2
					C304.8,29.2,310.4,27.3,316.9,27.3z"/>
			</g>
		</g>
		<g class="st0">
			<g class="st0">
				<defs>
					<path id="SVGID_91_" class="st0" d="M338.2,63.6V53.2c0-1,0.6-1.9,1.7-2.7v10.4C338.8,61.7,338.2,62.6,338.2,63.6z"/>
				</defs>
				<clipPath id="SVGID_92_">
					<use xlink:href="#SVGID_91_"  style="overflow:visible;"/>
				</clipPath>
				<g class="st61">
					<path class="st2" d="M338.2,63.6V53.2c0-1,0.6-1.9,1.7-2.7v10.4C338.8,61.7,338.2,62.6,338.2,63.6"/>
					<polyline class="st4" points="340,60.9 340,50.5 340,50.5 340,60.9 340,60.9 					"/>
				</g>
			</g>
			<g class="st0">
				<defs>
					<path id="SVGID_93_" class="st0" d="M340,60.9V50.5c1-0.6,1.6-1.1,1.9-1.4c0.3-0.3,0.5-0.8,0.7-1.5V58
						c-0.2,0.7-0.4,1.2-0.7,1.5S341,60.3,340,60.9z"/>
				</defs>
				<clipPath id="SVGID_94_">
					<use xlink:href="#SVGID_93_"  style="overflow:visible;"/>
				</clipPath>
				<g class="st62">
					<path class="st4" d="M340,60.9V50.5c0.2-0.1,0.3-0.2,0.5-0.3v10.4C340.3,60.7,340.2,60.8,340,60.9"/>
					<path class="st2" d="M340.5,60.6V50.2c0.7-0.5,1.2-0.8,1.4-1.1c0.3-0.3,0.5-0.8,0.7-1.5V58c-0.2,0.7-0.4,1.2-0.7,1.5
						C341.7,59.8,341.2,60.1,340.5,60.6"/>
				</g>
			</g>
			<g class="st0">
				<defs>
					<path id="SVGID_95_" class="st0" d="M362.2,56V45.6c0,1.2,0.1,2.1,0.4,2.7c0.3,0.6,0.9,1.2,1.9,2c0.7,0.6,1.1,1.4,1.1,2.5v10.4
						c0-1.1-0.4-1.9-1.1-2.5c-1-0.8-1.6-1.5-1.9-2C362.4,58.1,362.2,57.2,362.2,56z"/>
				</defs>
				<clipPath id="SVGID_96_">
					<use xlink:href="#SVGID_95_"  style="overflow:visible;"/>
				</clipPath>
				<g class="st63">
					<path class="st14" d="M362.2,56V45.6c0,0.1,0,0.1,0,0.2v10.4C362.2,56.2,362.2,56.1,362.2,56"/>
					<path class="st13" d="M362.2,56.2V45.8c0,0.4,0,0.8,0.1,1.1v10.4C362.3,57,362.2,56.6,362.2,56.2"/>
					<path class="st12" d="M362.3,57.3V46.9c0,0.2,0.1,0.4,0.1,0.6v10.4C362.4,57.7,362.3,57.5,362.3,57.3"/>
					<path class="st11" d="M362.4,57.9V47.5c0,0.1,0.1,0.3,0.1,0.4v10.4C362.5,58.2,362.4,58.1,362.4,57.9"/>
					<path class="st7" d="M362.5,58.3V47.9c0,0.1,0.1,0.2,0.1,0.3v10.4C362.6,58.5,362.5,58.4,362.5,58.3"/>
					<path class="st8" d="M362.6,58.6V48.2c0,0,0,0,0,0.1c0,0.1,0.1,0.1,0.1,0.2v10.4C362.7,58.8,362.7,58.7,362.6,58.6
						C362.6,58.6,362.6,58.6,362.6,58.6"/>
					<path class="st9" d="M362.8,58.9V48.5c0.2,0.2,0.4,0.5,0.6,0.8v10.4C363.1,59.4,362.9,59.1,362.8,58.9"/>
					<path class="st10" d="M363.4,59.7V49.3c0.3,0.3,0.7,0.6,1.1,1c0.1,0.1,0.2,0.1,0.3,0.2v10.4c-0.1-0.1-0.2-0.2-0.3-0.2
						C364.1,60.3,363.7,60,363.4,59.7"/>
					<path class="st9" d="M364.8,60.9V50.5c0.1,0.1,0.2,0.3,0.3,0.4v10.4C365.1,61.2,364.9,61,364.8,60.9"/>
					<path class="st8" d="M365.2,61.3V50.9c0.1,0.1,0.1,0.2,0.2,0.3v10.4C365.3,61.5,365.2,61.4,365.2,61.3"/>
					<path class="st7" d="M365.3,61.7V51.3c0,0.1,0.1,0.2,0.1,0.3V62C365.4,61.9,365.4,61.8,365.3,61.7"/>
					<path class="st11" d="M365.5,62V51.6c0,0.1,0.1,0.2,0.1,0.3v10.4C365.5,62.2,365.5,62.1,365.5,62"/>
					<path class="st12" d="M365.6,62.3V51.9c0,0.1,0,0.2,0.1,0.4v10.4C365.6,62.5,365.6,62.4,365.6,62.3"/>
					<path class="st13" d="M365.6,62.7V52.3c0,0.1,0,0.3,0,0.5v10.4C365.6,63,365.6,62.8,365.6,62.7"/>
					<path class="st14" d="M365.6,63.1V52.7c0,0,0,0,0,0.1L365.6,63.1C365.6,63.2,365.6,63.1,365.6,63.1"/>
				</g>
			</g>
			<g class="st0">
				<defs>
					<path id="SVGID_97_" class="st0" d="M343.5,31v10.4c0,7.4-0.3,13-0.9,16.6V47.6C343.2,43.9,343.5,38.4,343.5,31z"/>
				</defs>
				<clipPath id="SVGID_98_">
					<use xlink:href="#SVGID_97_"  style="overflow:visible;"/>
				</clipPath>
				<g class="st64">
					<path class="st2" d="M342.6,58V47.6c0.6-3.6,0.9-9.2,0.9-16.6v10.4C343.5,48.8,343.2,54.3,342.6,58"/>
				</g>
			</g>
			<g class="st0">
				<defs>
					<path id="SVGID_99_" class="st0" d="M379.6,40.6V30.2c0,0.4,1.2,2.2,3.5,5.3c2.3,3.2,4.5,5.9,6.5,8.3c1.3,1.5,2.3,2.6,3.1,3.2
						c0.7,0.6,1.7,1.3,3.1,2c2,1.1,3,2.3,3,3.6v10.4c0-1.4-1-2.6-3-3.6c-1.3-0.7-2.3-1.4-3.1-2c-0.7-0.6-1.8-1.7-3.1-3.2
						c-2-2.4-4.2-5.1-6.5-8.3C380.8,42.8,379.6,41,379.6,40.6z"/>
				</defs>
				<clipPath id="SVGID_100_">
					<use xlink:href="#SVGID_99_"  style="overflow:visible;"/>
				</clipPath>
				<g class="st65">
					<polyline class="st14" points="379.6,40.6 379.6,30.2 379.6,30.2 379.6,40.6 379.6,40.6 					"/>
					<path class="st13" d="M379.6,40.6V30.2c0,0,0,0,0,0L379.6,40.6C379.6,40.6,379.6,40.6,379.6,40.6"/>
					<path class="st12" d="M379.6,40.7V30.3c0,0,0,0,0,0L379.6,40.7C379.6,40.7,379.6,40.7,379.6,40.7"/>
					<path class="st11" d="M379.6,40.7V30.3c0,0,0,0,0,0.1L379.6,40.7C379.6,40.7,379.6,40.7,379.6,40.7"/>
					<path class="st7" d="M379.7,40.8V30.4c0,0.1,0,0.1,0.1,0.2v10.4C379.7,40.9,379.7,40.8,379.7,40.8"/>
					<path class="st8" d="M379.7,40.9V30.5c0.1,0.2,0.3,0.6,0.6,1v10.4C380,41.5,379.8,41.2,379.7,40.9"/>
					<path class="st9" d="M380.3,41.9V31.5c0.6,0.9,1.5,2.3,2.8,4c2.3,3.2,4.5,5.9,6.5,8.3c0.8,1,1.5,1.8,2.1,2.4v10.4
						c-0.6-0.6-1.3-1.4-2.1-2.4c-2-2.4-4.2-5.1-6.5-8.3C381.8,44.2,380.9,42.8,380.3,41.9"/>
					<path class="st10" d="M391.8,56.6V46.2c0.3,0.4,0.7,0.6,0.9,0.9c0.7,0.6,1.5,1.1,2.7,1.8v10.4c-1.1-0.6-2-1.2-2.7-1.8
						C392.5,57.3,392.1,57,391.8,56.6"/>
					<path class="st9" d="M395.4,59.3V48.9c0.1,0.1,0.3,0.1,0.4,0.2c0.1,0,0.2,0.1,0.2,0.1v10.4c-0.1,0-0.2-0.1-0.2-0.1
						C395.6,59.4,395.5,59.4,395.4,59.3"/>
					<path class="st10" d="M396,59.6V49.2c0.7,0.4,1.3,0.8,1.7,1.3v10.4C397.3,60.5,396.7,60,396,59.6"/>
					<path class="st9" d="M397.7,60.9V50.5c0.2,0.2,0.4,0.4,0.5,0.7v10.4C398.1,61.3,398,61.1,397.7,60.9"/>
					<path class="st8" d="M398.3,61.6V51.2c0.1,0.1,0.1,0.3,0.2,0.4V62C398.4,61.8,398.4,61.7,398.3,61.6"/>
					<path class="st7" d="M398.5,62V51.6c0,0.1,0.1,0.2,0.1,0.3v10.4C398.6,62.2,398.6,62.1,398.5,62"/>
					<path class="st11" d="M398.6,62.3V51.9c0,0.1,0.1,0.2,0.1,0.3v10.4C398.7,62.4,398.7,62.4,398.6,62.3"/>
					<path class="st12" d="M398.7,62.5V52.1c0,0.1,0,0.2,0,0.3v10.4C398.7,62.7,398.7,62.6,398.7,62.5"/>
					<path class="st13" d="M398.7,62.8V52.4c0,0.1,0,0.2,0,0.3v10.4C398.8,63,398.8,62.9,398.7,62.8"/>
					<path class="st14" d="M398.8,63.1V52.7c0,0,0,0,0,0L398.8,63.1C398.8,63.1,398.8,63.1,398.8,63.1"/>
				</g>
			</g>
			<g class="st0">
				<defs>
					<path id="SVGID_101_" class="st0" d="M361.6,32.6V22.2c0,2.7,0,4.3,0.1,4.8c0.2,1.1,0.8,1.7,1.7,1.7c0.8,0,2.1-0.5,3.8-1.6
						c1.7-1,2.6-1.8,2.6-2.3v10.4c0,0.5-0.9,1.3-2.6,2.3c-1.7,1-3,1.6-3.8,1.6c-1,0-1.5-0.6-1.7-1.7
						C361.7,36.9,361.6,35.3,361.6,32.6z"/>
				</defs>
				<clipPath id="SVGID_102_">
					<use xlink:href="#SVGID_101_"  style="overflow:visible;"/>
				</clipPath>
				<g class="st66">
					<path class="st14" d="M361.6,32.6V22.2c0,1,0,1.8,0,2.5v10.4C361.6,34.4,361.6,33.6,361.6,32.6"/>
					<path class="st13" d="M361.6,35.1V24.7c0,1.1,0,1.8,0.1,2.2v10.4C361.7,36.9,361.6,36.2,361.6,35.1"/>
					<path class="st12" d="M361.7,37.3V26.9c0,0,0,0.1,0,0.1c0,0,0,0.1,0,0.1v10.4c0,0,0-0.1,0-0.1
						C361.7,37.4,361.7,37.3,361.7,37.3"/>
					<path class="st11" d="M361.8,37.6V27.2c0,0.1,0.1,0.2,0.1,0.3v10.4C361.8,37.8,361.8,37.7,361.8,37.6"/>
					<path class="st7" d="M361.9,37.9V27.5c0,0.1,0.1,0.2,0.1,0.3v10.4C361.9,38.1,361.9,38,361.9,37.9"/>
					<path class="st8" d="M362,38.1V27.7c0,0.1,0.1,0.2,0.1,0.2v10.4C362,38.3,362,38.2,362,38.1"/>
					<path class="st9" d="M362.1,38.4V28c0.1,0.1,0.1,0.2,0.2,0.3v10.4C362.2,38.6,362.1,38.5,362.1,38.4"/>
					<path class="st10" d="M362.3,38.6V28.2c0.1,0.1,0.2,0.2,0.3,0.2v10.4C362.5,38.8,362.4,38.7,362.3,38.6"/>
					<path class="st9" d="M362.6,38.9V28.5c0.1,0,0.2,0.1,0.3,0.1V39C362.8,39,362.7,38.9,362.6,38.9"/>
					<path class="st8" d="M362.9,39V28.6c0.1,0,0.1,0,0.2,0.1V39C363,39,363,39,362.9,39"/>
					<path class="st7" d="M363.1,39V28.7c0.1,0,0.1,0,0.2,0v10.4C363.2,39.1,363.2,39.1,363.1,39"/>
					<path class="st11" d="M363.3,39.1V28.7c0.1,0,0.1,0,0.2,0c0,0,0,0,0.1,0v10.4c0,0,0,0-0.1,0C363.4,39.1,363.4,39.1,363.3,39.1"
						/>
					<path class="st12" d="M363.6,39.1V28.7c0.1,0,0.2,0,0.2,0v10.4C363.7,39.1,363.6,39.1,363.6,39.1"/>
					<path class="st13" d="M363.8,39.1V28.7c0.1,0,0.2,0,0.3-0.1V39C364,39,363.9,39,363.8,39.1"/>
					<path class="st14" d="M364.1,39V28.6c0.2,0,0.3-0.1,0.5-0.1v10.4C364.5,38.9,364.3,39,364.1,39"/>
					<path class="st5" d="M364.6,38.8V28.5c0.3-0.1,0.6-0.2,0.9-0.4v10.4C365.2,38.6,364.9,38.7,364.6,38.8"/>
					<path class="st4" d="M365.6,38.5V28.1c0.5-0.2,1.1-0.6,1.7-0.9c0.2-0.1,0.4-0.3,0.6-0.4v10.4c-0.2,0.1-0.4,0.3-0.6,0.4
						C366.7,37.9,366.1,38.2,365.6,38.5"/>
					<path class="st2" d="M367.9,37.1V26.7c1.3-0.8,1.9-1.5,1.9-1.9v10.4C369.9,35.6,369.2,36.3,367.9,37.1"/>
				</g>
			</g>
			<g class="st0">
				<defs>
					<path id="SVGID_103_" class="st0" d="M368.3,31.9V21.5c0-2.9,3.7-4.4,11-4.4c3.8,0,6.8,0.4,9,1.1c0.9,0.3,1.6,0.8,2.2,1.5
						c0.6,0.7,0.9,1.5,0.9,2.4v10.4c0-0.8-0.3-1.6-0.9-2.4c-0.6-0.7-1.3-1.3-2.2-1.5c-2.2-0.8-5.2-1.1-9-1.1
						C372,27.5,368.3,29,368.3,31.9z"/>
				</defs>
				<clipPath id="SVGID_104_">
					<use xlink:href="#SVGID_103_"  style="overflow:visible;"/>
				</clipPath>
				<g class="st67">
					<path class="st2" d="M368.3,31.9V21.5c0-1.1,0.5-2,1.6-2.7v10.4C368.8,29.9,368.3,30.8,368.3,31.9"/>
					<path class="st4" d="M369.9,29.2V18.9c0.2-0.1,0.5-0.3,0.7-0.4v10.4C370.3,29,370.1,29.1,369.9,29.2"/>
					<path class="st5" d="M370.6,28.8V18.4c0.3-0.1,0.6-0.2,0.9-0.4v10.4C371.2,28.6,370.9,28.7,370.6,28.8"/>
					<path class="st14" d="M371.5,28.5V18.1c0.4-0.1,0.8-0.2,1.2-0.3v10.4C372.3,28.2,371.9,28.4,371.5,28.5"/>
					<path class="st13" d="M372.7,28.1V17.7c0.6-0.1,1.2-0.2,1.8-0.3v10.4C373.9,27.9,373.3,28,372.7,28.1"/>
					<path class="st12" d="M374.6,27.8V17.4c0.9-0.1,2-0.2,3.1-0.2v10.4C376.5,27.6,375.5,27.7,374.6,27.8"/>
					<path class="st11" d="M377.7,27.6V17.2c0.5,0,1.1,0,1.6,0c1.1,0,2.2,0,3.1,0.1v10.4c-1-0.1-2-0.1-3.1-0.1
						C378.8,27.5,378.2,27.6,377.7,27.6"/>
					<path class="st7" d="M382.5,27.6V17.2c1.2,0.1,2.3,0.2,3.2,0.4V28C384.7,27.8,383.7,27.7,382.5,27.6"/>
					<path class="st8" d="M385.7,28V17.6c0.8,0.1,1.6,0.3,2.3,0.5v10.4C387.3,28.4,386.6,28.2,385.7,28"/>
					<path class="st9" d="M388,28.6V18.2c0.1,0,0.2,0.1,0.4,0.1c0.3,0.1,0.6,0.2,0.8,0.4v10.4c-0.3-0.1-0.5-0.3-0.8-0.4
						C388.3,28.6,388.1,28.6,388,28.6"/>
					<path class="st10" d="M389.2,29.1V18.7c0.4,0.2,0.7,0.5,1,0.8v10.4C389.9,29.5,389.6,29.3,389.2,29.1"/>
					<path class="st9" d="M390.2,29.8V19.4c0.1,0.1,0.2,0.3,0.3,0.4c0.1,0.1,0.2,0.3,0.3,0.4v10.4c-0.1-0.1-0.2-0.3-0.3-0.4
						C390.5,30.1,390.4,30,390.2,29.8"/>
					<path class="st8" d="M390.9,30.6V20.2c0.1,0.2,0.2,0.3,0.3,0.5v10.4C391.1,30.9,391,30.8,390.9,30.6"/>
					<path class="st7" d="M391.1,31.1V20.7c0.1,0.1,0.1,0.3,0.2,0.4v10.4C391.2,31.4,391.2,31.2,391.1,31.1"/>
					<path class="st11" d="M391.3,31.5V21.1c0,0.1,0.1,0.2,0.1,0.3v10.4C391.3,31.7,391.3,31.6,391.3,31.5"/>
					<path class="st12" d="M391.4,31.8V21.4c0,0.1,0,0.2,0.1,0.3v10.4C391.4,32.1,391.4,31.9,391.4,31.8"/>
					<path class="st13" d="M391.4,32.2V21.8c0,0.1,0,0.2,0,0.4v10.4C391.5,32.4,391.4,32.3,391.4,32.2"/>
					<path class="st14" d="M391.5,32.5V22.1c0,0,0,0,0,0L391.5,32.5C391.5,32.6,391.5,32.5,391.5,32.5"/>
				</g>
			</g>
			<g class="st0">
				<defs>
					<path id="SVGID_105_" class="st0" d="M362,3.7v10.4c0-1.2-0.8-1.9-2.3-1.9V1.9C361.3,1.9,362,2.5,362,3.7z"/>
				</defs>
				<clipPath id="SVGID_106_">
					<use xlink:href="#SVGID_105_"  style="overflow:visible;"/>
				</clipPath>
				<g class="st68">
					<path class="st11" d="M359.7,12.3V1.9c0.1,0,0.2,0,0.3,0v10.4C360,12.3,359.9,12.3,359.7,12.3"/>
					<path class="st7" d="M360.1,12.3V1.9c0.1,0,0.3,0,0.4,0v10.4C360.4,12.3,360.2,12.3,360.1,12.3"/>
					<path class="st8" d="M360.5,12.3V1.9c0.1,0,0.2,0.1,0.4,0.1v10.4C360.7,12.4,360.6,12.4,360.5,12.3"/>
					<path class="st9" d="M360.8,12.4V2c0.1,0,0.3,0.1,0.4,0.2v10.4C361.1,12.5,361,12.5,360.8,12.4"/>
					<path class="st10" d="M361.2,12.6V2.2c0.1,0.1,0.2,0.2,0.3,0.3v10.4C361.5,12.8,361.4,12.7,361.2,12.6"/>
					<path class="st9" d="M361.6,12.9V2.5c0.1,0.1,0.1,0.2,0.2,0.2v10.4C361.7,13,361.6,12.9,361.6,12.9"/>
					<path class="st8" d="M361.8,13.1V2.7c0,0.1,0.1,0.1,0.1,0.2v10.4C361.8,13.2,361.8,13.1,361.8,13.1"/>
					<path class="st7" d="M361.9,13.3V2.9c0,0.1,0,0.1,0.1,0.2v10.4C361.9,13.4,361.9,13.3,361.9,13.3"/>
					<path class="st11" d="M361.9,13.4V3c0,0.1,0,0.1,0.1,0.2v10.4C362,13.6,362,13.5,361.9,13.4"/>
					<path class="st12" d="M362,13.6V3.2c0,0.1,0,0.1,0,0.2v10.4C362,13.8,362,13.7,362,13.6"/>
					<path class="st13" d="M362,13.8V3.4c0,0.1,0,0.2,0,0.3v10.4C362,14,362,13.9,362,13.8"/>
					<path class="st14" d="M362,14.1V3.7c0,0,0,0,0,0L362,14.1C362,14.1,362,14.1,362,14.1"/>
				</g>
			</g>
			<g>
				<path class="st27" d="M359.7,12.3c1.6,0,2.3,0.7,2.3,2L361.7,27c0,1.3,0,3.1,0,5.6c0,2.7,0,4.3,0.1,4.8c0.2,1.1,0.8,1.7,1.7,1.7
					c0.8,0,2.1-0.5,3.8-1.6c1.7-1,2.6-1.8,2.6-2.3c0-0.3-0.3-0.8-0.9-1.6c-0.4-0.6-0.7-1.1-0.7-1.6c0-2.9,3.7-4.4,11-4.4
					c3.8,0,6.8,0.4,9,1.1c0.9,0.3,1.6,0.8,2.2,1.5c0.6,0.7,0.9,1.5,0.9,2.4c0,1.2-0.6,2.1-1.8,2.6c-0.3,0.1-1.1,0.3-2.4,0.5
					c-1.2,0.2-2.8,1-4.7,2.2c-1.9,1.3-2.9,2.2-2.9,2.7c0,0.4,1.2,2.2,3.5,5.3c2.3,3.2,4.5,5.9,6.5,8.3c1.3,1.5,2.3,2.6,3.1,3.2
					c0.7,0.6,1.7,1.3,3.1,2c2,1.1,3,2.3,3,3.6c0,1.4-0.6,2.6-1.9,3.4c-1.3,0.8-3,1.2-5.2,1.2h-13.4c-1.7,0-3-0.6-3.9-1.8l-6.9-8.6
					c-1.8-2.3-2.9-3.6-3.3-4.1c-0.4-0.4-0.7-0.6-1-0.6c-0.3,0-0.6,0.2-0.7,0.7c-0.1,0.5-0.2,1.4-0.2,2.8c0,1.2,0.1,2.1,0.4,2.7
					c0.3,0.6,0.9,1.2,1.9,2c0.7,0.6,1.1,1.4,1.1,2.5c0,1.9-1,3.3-3.1,4.1c-2.1,0.8-5.4,1.3-10.1,1.3c-5.5,0-9.1-0.2-10.8-0.7
					c-0.9-0.3-1.7-0.8-2.4-1.6c-0.7-0.8-1-1.7-1-2.6c0-1,0.6-1.9,1.7-2.7c1-0.6,1.6-1.1,1.9-1.4s0.5-0.8,0.7-1.5
					c0.6-3.8,0.9-9.6,0.9-17.5v-8.9c0-3-0.2-5-0.5-5.8c-0.3-0.8-1.1-1.3-2.3-1.5c-2.3-0.3-3.4-1.2-3.4-2.8c0-1,0.5-2,1.5-2.8
					c1-0.8,2.6-1.6,4.9-2.5C350.9,13.6,356.3,12.3,359.7,12.3z"/>
			</g>
			<g class="st0">
				<defs>
					<path id="SVGID_107_" class="st0" d="M337.3,21.5V11.1c0-1,0.5-2,1.5-2.8c1-0.8,2.6-1.6,4.9-2.5c7.2-2.6,12.6-3.9,16.1-3.9
						v10.4c-3.5,0-8.9,1.3-16.1,3.9c-2.3,0.8-3.9,1.6-4.9,2.5C337.8,19.5,337.3,20.4,337.3,21.5z"/>
				</defs>
				<clipPath id="SVGID_108_">
					<use xlink:href="#SVGID_107_"  style="overflow:visible;"/>
				</clipPath>
				<g class="st69">
					<path class="st2" d="M337.3,21.5V11.1c0-1,0.5-2,1.5-2.8c0.2-0.2,0.4-0.3,0.7-0.5v10.4c-0.3,0.2-0.5,0.3-0.7,0.5
						C337.8,19.5,337.3,20.4,337.3,21.5"/>
					<path class="st4" d="M339.5,18.2V7.8c0.5-0.3,1-0.6,1.7-0.9v10.4C340.5,17.6,339.9,17.9,339.5,18.2"/>
					<path class="st5" d="M341.1,17.3V6.9c0.7-0.3,1.6-0.7,2.5-1c0.8-0.3,1.7-0.6,2.5-0.9v10.4c-0.8,0.3-1.6,0.6-2.5,0.9
						C342.7,16.6,341.8,16.9,341.1,17.3"/>
					<path class="st14" d="M346.1,15.4V5c2.9-1,5.5-1.7,7.7-2.3v10.4C351.6,13.6,349,14.4,346.1,15.4"/>
					<path class="st13" d="M353.8,13.1V2.7c1.3-0.3,2.4-0.5,3.5-0.6v10.4C356.2,12.6,355.1,12.8,353.8,13.1"/>
					<path class="st12" d="M357.3,12.5V2.1c0.7-0.1,1.4-0.1,2-0.2v10.4C358.6,12.3,358,12.4,357.3,12.5"/>
					<path class="st11" d="M359.2,12.3V1.9c0.2,0,0.3,0,0.5,0v10.4C359.6,12.3,359.4,12.3,359.2,12.3"/>
				</g>
			</g>
		</g>
	</g>
</g>
</svg>
