<?xml version="1.0" encoding="utf-8"?>
<!-- Generator: Adobe Illustrator 23.0.6, SVG Export Plug-In . SVG Version: 6.00 Build 0)  -->
<svg version="1.1" id="npm_x5F_logo" xmlns="http://www.w3.org/2000/svg" xmlns:xlink="http://www.w3.org/1999/xlink" x="0px"
	 y="0px" viewBox="0 0 300 300" style="enable-background:new 0 0 300 300;" xml:space="preserve">
<style type="text/css">
	.st0{enable-background:new    ;}
	.st1{fill:#A95500;}
	.st2{fill:#804000;}
	.st3{fill:#A65300;}
	.st4{fill:#AB5600;}
	.st5{fill:#AC5700;}
	.st6{fill:#AC5600;}
	.st7{fill:#DC6E00;}
	.st8{fill:#9F5000;}
	.st9{fill:#944A00;}
	.st10{fill:#8B4600;}
	.st11{fill:#824100;}
	.st12{fill:#808080;}
	.st13{fill:#A9A9A9;}
	.st14{fill:#DCDCDC;}
</style>
<g>
	<g>
		<g>
			<g class="st0">
				<g>
					<polygon class="st1" points="247.7,176.3 237.5,166.6 250.8,166.1 261,175.8 					"/>
				</g>
				<g>
					<polygon class="st1" points="221.2,177.2 211,167.5 223.3,167.1 233.5,176.8 					"/>
				</g>
				<g>
					<polygon class="st2" points="261,175.8 250.8,166.1 251.3,113.9 261.5,123.6 					"/>
				</g>
				<g>
					<polygon class="st2" points="233.5,176.8 223.3,167.1 223.7,127.2 233.9,136.9 					"/>
				</g>
				<g>
					<polygon class="st1" points="233.9,136.9 223.7,127.2 237.9,126.7 248.1,136.4 					"/>
				</g>
				<g>
					<polygon class="st1" points="181.4,178.6 171.2,168.9 196.8,168 207,177.7 					"/>
				</g>
				<g>
					<polygon class="st2" points="207,177.7 196.8,168 197.2,128.1 207.4,137.9 					"/>
				</g>
				<g>
					<polygon class="st1" points="207.4,137.9 197.2,128.1 211.4,127.6 221.6,137.4 					"/>
				</g>
				<g>
					<polygon class="st1" points="140.7,180 130.5,170.3 157.9,169.3 168.1,179.1 					"/>
				</g>
				<g>
					<polygon class="st2" points="140.5,192.4 130.3,182.7 130.5,170.3 140.7,180 					"/>
				</g>
				<g>
					<polygon class="st1" points="115.9,193.2 105.7,183.5 130.3,182.7 140.5,192.4 					"/>
				</g>
				<g>
					<polygon class="st3" points="269,30.4 258.8,20.6 262.6,23.4 272.8,33.1 					"/>
				</g>
				<g>
					<polygon class="st4" points="265.2,28.6 255,18.9 258.8,20.6 269,30.4 					"/>
				</g>
				<g>
					<polygon class="st2" points="36.5,275.7 26.3,266 22.6,260.4 32.8,270.2 					"/>
				</g>
				<g>
					<polygon class="st2" points="168.1,179.1 157.9,169.3 158.4,117.1 168.6,126.9 					"/>
				</g>
				<g>
					<polygon class="st5" points="261.4,27.8 251.2,18.1 255,18.9 265.2,28.6 					"/>
				</g>
				<g>
					<polygon class="st2" points="32.8,270.2 22.6,260.4 20.7,256.7 30.9,266.4 					"/>
				</g>
				<g>
					<polygon class="st2" points="30.9,266.4 20.7,256.7 19.8,252.9 30,262.7 					"/>
				</g>
				<g>
					<polygon class="st6" points="253.9,27.1 243.7,17.4 251.2,18.1 261.4,27.8 					"/>
				</g>
				<g>
					<polygon class="st2" points="139.8,167.7 129.6,158 129.9,130.5 140.1,140.2 					"/>
				</g>
				<g>
					<polygon class="st1" points="140.1,140.2 129.9,130.5 145,129.9 155.2,139.7 					"/>
				</g>
				<g>
					<polygon class="st1" points="89.5,181.8 79.3,172.1 91.6,171.7 101.8,181.4 					"/>
				</g>
				<g>
					<polygon class="st2" points="101.8,181.4 91.6,171.7 92.1,119.5 102.3,129.2 					"/>
				</g>
				<g>
					<polygon class="st1" points="49.7,183.2 39.5,173.5 66,172.6 76.2,182.3 					"/>
				</g>
				<g>
					<polygon class="st2" points="76.2,182.3 66,172.6 65.4,132.7 75.6,142.5 					"/>
				</g>
				<g>
					<polygon class="st1" points="75.6,142.5 65.4,132.7 79.6,132.2 89.8,142 					"/>
				</g>
				<g>
					<path class="st7" d="M278.4,41.4l1.8,5.6l-1.9,204.1l-2,9.6l-1.9,2.9l-2.9,3.9c-1.8,1.9-3.5,3.2-4.8,4c-1.3,0.8-2.3,1.3-3.8,2
						c-1.9,0.9-3.6,1.6-4.8,2.1l-207.6,7.2l-6.6-1.7l-7.5-5.4l-3.7-5.6l-1.9-3.7l-0.9-3.8l1.9-204.1l2-9.6l1.9-3.9l6.7-6.9l2.9-2
						l5.7-2.1l202.8-7.1l7.6,0.7l3.8,0.8l3.8,1.8l3.8,2.7l2.8,3.7L278.4,41.4z M261,175.8l0.5-52.2l-79.6,2.8l-0.5,52.2l25.6-0.9
						l0.4-39.9l14.2-0.5l-0.4,39.9l12.3-0.4l0.4-39.9l14.2-0.5l-0.4,39.9L261,175.8 M168.1,179.1l0.5-52.2l-52.1,1.8l-0.6,64.5
						l24.6-0.9l0.1-12.3L168.1,179.1 M101.8,181.4l0.5-52.2L50.2,131l-0.5,52.2l26.5-0.9l-0.6-39.8l14.2-0.5l-0.4,39.9L101.8,181.4"
						/>
				</g>
				<g>
					<polygon class="st7" points="155.2,139.7 155,167.2 139.8,167.7 140.1,140.2 					"/>
				</g>
				<g>
					<polygon class="st2" points="30,262.7 19.8,252.9 21.7,48.9 31.9,58.6 					"/>
				</g>
				<g>
					<polygon class="st1" points="51.1,34.2 40.9,24.5 243.7,17.4 253.9,27.1 					"/>
				</g>
				<g>
					<polygon class="st2" points="31.9,58.6 21.7,48.9 23.7,39.3 33.9,49 					"/>
				</g>
				<g>
					<polygon class="st8" points="45.4,36.3 35.2,26.6 40.9,24.5 51.1,34.2 					"/>
				</g>
				<g>
					<polygon class="st9" points="42.5,38.3 32.3,28.6 35.2,26.6 45.4,36.3 					"/>
				</g>
				<g>
					<polygon class="st10" points="35.8,45.2 25.6,35.4 32.3,28.6 42.5,38.3 					"/>
				</g>
				<g>
					<polygon class="st11" points="33.9,49 23.7,39.3 25.6,35.4 35.8,45.2 					"/>
				</g>
			</g>
		</g>
	</g>
	<g>
		<g>
			<g class="st0">
				<g>
					<polygon class="st12" points="89.5,182.9 79.3,173.2 79.7,133.3 89.9,143 					"/>
				</g>
				<g>
					<polygon class="st12" points="49.7,184.3 39.5,174.6 40,122.4 50.2,132.1 					"/>
				</g>
				<g>
					<polygon class="st13" points="50.2,132.1 40,122.4 92.1,120.6 102.3,130.3 					"/>
				</g>
				<g>
					<polygon class="st14" points="102.3,130.3 101.9,182.5 89.5,182.9 89.9,143 75.7,143.5 76.3,183.4 49.7,184.3 50.2,132.1 					
						"/>
				</g>
			</g>
			<g class="st0">
				<g>
					<polygon class="st13" points="139.9,168.8 129.7,159.1 144.8,158.6 155,168.3 					"/>
				</g>
				<g>
					<polygon class="st12" points="155,168.3 144.8,158.6 145.1,131 155.3,140.8 					"/>
				</g>
				<g>
					<polygon class="st12" points="116,194.3 105.8,184.6 106.3,120.1 116.6,129.8 					"/>
				</g>
				<g>
					<polygon class="st13" points="116.6,129.8 106.3,120.1 158.5,118.2 168.7,128 					"/>
				</g>
				<g>
					<path class="st14" d="M116.6,129.8l52.1-1.8l-0.5,52.2l-27.5,1l-0.1,12.3l-24.6,0.9L116.6,129.8z M155,168.3l0.3-27.5
						l-15.2,0.5l-0.3,27.5L155,168.3"/>
				</g>
			</g>
			<g class="st0">
				<g>
					<polygon class="st12" points="247.8,177.4 237.6,167.7 238,127.8 248.2,137.5 					"/>
				</g>
				<g>
					<polygon class="st12" points="221.3,178.3 211.1,168.6 211.4,128.7 221.6,138.4 					"/>
				</g>
				<g>
					<polygon class="st12" points="181.5,179.7 171.3,170 171.7,117.8 181.9,127.5 					"/>
				</g>
				<g>
					<polygon class="st13" points="181.9,127.5 171.7,117.8 251.3,115 261.6,124.7 					"/>
				</g>
				<g>
					<polygon class="st14" points="261.6,124.7 261.1,176.9 247.8,177.4 248.2,137.5 234,138 233.6,177.9 221.3,178.3 221.6,138.4 
						207.4,138.9 207.1,178.8 181.5,179.7 181.9,127.5 					"/>
				</g>
			</g>
		</g>
	</g>
</g>
</svg>
