<?xml version="1.0" encoding="utf-8"?>
<!-- Generator: Adobe Illustrator 23.0.6, SVG Export Plug-In . SVG Version: 6.00 Build 0)  -->
<svg version="1.1" id="svg_x5F_icon" xmlns="http://www.w3.org/2000/svg" xmlns:xlink="http://www.w3.org/1999/xlink" x="0px"
	 y="0px" viewBox="0 0 300 300" style="enable-background:new 0 0 300 300;" xml:space="preserve">
<style type="text/css">
	.st0{enable-background:new    ;}
	.st1{clip-path:url(#SVGID_2_);enable-background:new    ;}
	.st2{fill:#854300;}
	.st3{clip-path:url(#SVGID_4_);enable-background:new    ;}
	.st4{fill:#A35200;}
	.st5{fill:#A85400;}
	.st6{fill:#9E4F00;}
	.st7{fill:#994D00;}
	.st8{fill:#944A00;}
	.st9{fill:#8F4800;}
	.st10{fill:#8A4500;}
	.st11{clip-path:url(#SVGID_6_);enable-background:new    ;}
	.st12{clip-path:url(#SVGID_8_);enable-background:new    ;}
	.st13{clip-path:url(#SVGID_10_);enable-background:new    ;}
	.st14{fill:#A95500;}
	.st15{clip-path:url(#SVGID_12_);enable-background:new    ;}
	.st16{clip-path:url(#SVGID_14_);enable-background:new    ;}
	.st17{clip-path:url(#SVGID_16_);enable-background:new    ;}
	.st18{fill:#804000;}
	.st19{clip-path:url(#SVGID_18_);enable-background:new    ;}
	.st20{clip-path:url(#SVGID_20_);enable-background:new    ;}
	.st21{clip-path:url(#SVGID_22_);enable-background:new    ;}
	.st22{clip-path:url(#SVGID_24_);enable-background:new    ;}
	.st23{clip-path:url(#SVGID_26_);enable-background:new    ;}
	.st24{clip-path:url(#SVGID_28_);enable-background:new    ;}
	.st25{clip-path:url(#SVGID_30_);enable-background:new    ;}
	.st26{clip-path:url(#SVGID_32_);enable-background:new    ;}
	.st27{clip-path:url(#SVGID_34_);enable-background:new    ;}
	.st28{clip-path:url(#SVGID_36_);enable-background:new    ;}
	.st29{clip-path:url(#SVGID_38_);enable-background:new    ;}
	.st30{clip-path:url(#SVGID_40_);enable-background:new    ;}
	.st31{clip-path:url(#SVGID_42_);enable-background:new    ;}
	.st32{clip-path:url(#SVGID_44_);enable-background:new    ;}
	.st33{fill:#DC6E00;}
	.st34{clip-path:url(#SVGID_46_);enable-background:new    ;}
	.st35{fill:#A3A3A3;}
	.st36{fill:#A8A8A8;}
	.st37{fill:#9E9E9E;}
	.st38{fill:#999999;}
	.st39{fill:#949494;}
	.st40{fill:#8F8F8F;}
	.st41{fill:#8A8A8A;}
	.st42{fill:#858585;}
	.st43{clip-path:url(#SVGID_48_);enable-background:new    ;}
	.st44{clip-path:url(#SVGID_50_);enable-background:new    ;}
	.st45{clip-path:url(#SVGID_52_);enable-background:new    ;}
	.st46{clip-path:url(#SVGID_54_);enable-background:new    ;}
	.st47{clip-path:url(#SVGID_56_);enable-background:new    ;}
	.st48{clip-path:url(#SVGID_58_);enable-background:new    ;}
	.st49{clip-path:url(#SVGID_60_);enable-background:new    ;}
	.st50{fill:#DCDCDC;}
	.st51{clip-path:url(#SVGID_62_);enable-background:new    ;}
	.st52{fill:#808080;}
	.st53{fill:#A9A9A9;}
	.st54{clip-path:url(#SVGID_64_);enable-background:new    ;}
	.st55{clip-path:url(#SVGID_66_);enable-background:new    ;}
	.st56{clip-path:url(#SVGID_68_);enable-background:new    ;}
	.st57{clip-path:url(#SVGID_70_);enable-background:new    ;}
	.st58{clip-path:url(#SVGID_72_);enable-background:new    ;}
	.st59{clip-path:url(#SVGID_74_);enable-background:new    ;}
</style>
<g>
	<g>
		<g>
			<g class="st0">
				<g class="st0">
					<defs>
						<path id="SVGID_1_" class="st0" d="M248.3,254.4l-11.8-11.2c1.3-2.6,2.2-5.4,2.2-5.5c0-0.1,0.7-2.1,1.1-4.4l11.8,11.2
							c-0.5,2.3-1.1,4.3-1.1,4.4C250.5,249.1,249.6,251.8,248.3,254.4z"/>
					</defs>
					<clipPath id="SVGID_2_">
						<use xlink:href="#SVGID_1_"  style="overflow:visible;"/>
					</clipPath>
					<g class="st1">
						<path class="st2" d="M248.3,254.4l-11.8-11.2c1.3-2.6,2.2-5.4,2.2-5.5c0-0.1,0.7-2.1,1.1-4.4l11.8,11.2
							c-0.5,2.3-1.1,4.3-1.1,4.4C250.5,249.1,249.6,251.8,248.3,254.4"/>
					</g>
				</g>
				<g class="st0">
					<defs>
						<path id="SVGID_3_" class="st0" d="M197.5,264.5l-11.8-11.2c2.2,2.1,5.6,4.8,10.2,6.6c4.1,1.6,8.2,2,11.7,1.9
							c6.5-0.2,11.4-2.3,12.3-2.7c0.6-0.2,11.1-4.9,16.5-15.9l11.8,11.2c-5.5,11-16,15.6-16.5,15.9c-0.9,0.4-5.8,2.5-12.3,2.7
							c-3.6,0.1-7.6-0.3-11.7-1.9C203.1,269.4,199.7,266.6,197.5,264.5z"/>
					</defs>
					<clipPath id="SVGID_4_">
						<use xlink:href="#SVGID_3_"  style="overflow:visible;"/>
					</clipPath>
					<g class="st3">
						<path class="st4" d="M197.5,264.5l-11.8-11.2c0.8,0.7,1.7,1.6,2.8,2.4l11.8,11.2C199.2,266.1,198.3,265.3,197.5,264.5"/>
						<path class="st5" d="M200.3,267l-11.8-11.2c2,1.5,4.4,3.1,7.4,4.2c2.5,1,4.9,1.5,7.3,1.7l11.8,11.2c-2.3-0.2-4.8-0.8-7.3-1.7
							C204.8,270,202.3,268.5,200.3,267"/>
						<path class="st4" d="M215,272.9l-11.8-11.2c1.5,0.2,3,0.2,4.5,0.2c0.7,0,1.3-0.1,2-0.1l11.8,11.2c-0.6,0.1-1.3,0.1-2,0.1
							C218.1,273.1,216.6,273.1,215,272.9"/>
						<path class="st6" d="M221.5,272.9l-11.8-11.2c2-0.2,3.7-0.5,5.2-0.9l11.8,11.2C225.2,272.4,223.4,272.8,221.5,272.9"/>
						<path class="st7" d="M226.7,272.1l-11.8-11.2c1.9-0.5,3.3-1,4.2-1.3l11.8,11.2C230,271.1,228.5,271.6,226.7,272.1"/>
						<path class="st8" d="M230.9,270.7l-11.8-11.2c0.4-0.2,0.7-0.3,0.9-0.4c0.1-0.1,0.8-0.4,1.9-0.9l11.8,11.2
							c-1,0.6-1.7,0.9-1.9,0.9C231.6,270.4,231.3,270.5,230.9,270.7"/>
						<path class="st9" d="M233.7,269.4l-11.8-11.2c1.1-0.6,2.6-1.5,4.3-2.8l11.8,11.2C236.3,267.9,234.8,268.8,233.7,269.4"/>
						<path class="st10" d="M237.9,266.6l-11.8-11.2c1.4-1.1,3-2.4,4.6-4l11.8,11.2C241,264.2,239.4,265.5,237.9,266.6"/>
						<path class="st2" d="M242.5,262.6l-11.8-11.2c2.1-2.2,4.2-4.9,5.8-8.2l11.8,11.2C246.7,257.7,244.6,260.4,242.5,262.6"/>
					</g>
				</g>
				<g class="st0">
					<defs>
						<path id="SVGID_5_" class="st0" d="M251.7,244.5l-11.8-11.2c0.7-3.7,1.1-18.4,0.4-38.3l11.8,11.2
							C252.8,226.1,252.4,240.7,251.7,244.5z"/>
					</defs>
					<clipPath id="SVGID_6_">
						<use xlink:href="#SVGID_5_"  style="overflow:visible;"/>
					</clipPath>
					<g class="st11">
						<path class="st2" d="M251.7,244.5l-11.8-11.2c0.7-3.7,1.1-18.4,0.4-38.3l11.8,11.2C252.8,226.1,252.4,240.7,251.7,244.5"/>
					</g>
				</g>
				<g class="st0">
					<defs>
						<path id="SVGID_7_" class="st0" d="M219.1,227l-11.8-11.2c4.7-0.2,9.5-0.3,14.2-0.5l11.8,11.2
							C228.6,226.7,223.8,226.9,219.1,227z"/>
					</defs>
					<clipPath id="SVGID_8_">
						<use xlink:href="#SVGID_7_"  style="overflow:visible;"/>
					</clipPath>
					<g class="st12">
						<path class="st4" d="M219.1,227l-11.8-11.2c4.7-0.2,9.5-0.3,14.2-0.5l11.8,11.2C228.6,226.7,223.8,226.9,219.1,227"/>
					</g>
				</g>
				<g class="st0">
					<defs>
						<path id="SVGID_9_" class="st0" d="M233.6,193.7l-11.8-11.2c6.2-0.2,12.4-0.4,18.6-0.6l11.8,11.2
							C246,193.3,239.8,193.5,233.6,193.7z"/>
					</defs>
					<clipPath id="SVGID_10_">
						<use xlink:href="#SVGID_9_"  style="overflow:visible;"/>
					</clipPath>
					<g class="st13">
						<path class="st4" d="M233.6,193.7l-11.8-11.2c6.2-0.2,12.4-0.4,18.6-0.6l11.8,11.2C246,193.3,239.8,193.5,233.6,193.7"/>
					</g>
				</g>
				<g>
					<polygon class="st14" points="145.5,274.4 133.7,263.2 152.3,262.6 164.1,273.8 					"/>
				</g>
				<g class="st0">
					<defs>
						<path id="SVGID_11_" class="st0" d="M231.7,159.2l11.8,11.2c2,1.9,4,4.4,5.6,7.5c2.8,5.5,3.1,10.9,3.2,11.9
							c0.1,1.3,0,2.5,0,3.3l-11.8-11.2c0.1-0.8,0.1-1.9,0-3.3c-0.1-1-0.4-6.4-3.2-11.9C235.7,163.6,233.7,161.1,231.7,159.2z"/>
					</defs>
					<clipPath id="SVGID_12_">
						<use xlink:href="#SVGID_11_"  style="overflow:visible;"/>
					</clipPath>
					<g class="st15">
						<path class="st2" d="M252.2,193.1l-11.8-11.2c0.1-0.8,0.1-1.9,0-3.3c-0.1-1-0.4-6.4-3.2-11.9c-1.6-3.1-3.6-5.5-5.6-7.5
							l11.8,11.2c2,1.9,4,4.4,5.6,7.5c2.8,5.5,3.1,10.9,3.2,11.9C252.3,191.1,252.2,192.3,252.2,193.1"/>
					</g>
				</g>
				<g class="st0">
					<defs>
						<path id="SVGID_13_" class="st0" d="M210.3,250.3l-11.8-11.2c-2-1.9-3-4.2-3.4-5.4c-1.8-4.3-1.2-8.4-1-9.8
							c0.2-1.7,2-25.2,0.3-35c-0.1-0.8-0.6-3.4,0.1-6.6c0.6-2.9,1.8-4.9,2.2-5.5c1.7-2.6,3.8-4.1,4.4-4.5c1-0.7,3.3-2.2,6.6-2.4
							c0.1,0,0.2,0,0.4,0c4.3-0.2,7.4,2.2,8.4,3c0.3,0.3,0.7,0.6,1,0.8l11.8,11.2c-0.3-0.3-0.6-0.6-1-0.8c-1-0.8-4-3.2-8.4-3
							c-0.1,0-0.2,0-0.4,0c-3.2,0.2-5.6,1.7-6.6,2.4c-0.6,0.4-2.7,1.9-4.4,4.5c-0.4,0.6-1.6,2.6-2.2,5.5c-0.7,3.2-0.2,5.8-0.1,6.6
							c1.6,9.8-0.1,33.3-0.3,35c-0.2,1.4-0.8,5.5,1,9.8C207.4,246.1,208.3,248.4,210.3,250.3z"/>
					</defs>
					<clipPath id="SVGID_14_">
						<use xlink:href="#SVGID_13_"  style="overflow:visible;"/>
					</clipPath>
					<g class="st16">
						<path class="st2" d="M210.3,250.3l-11.8-11.2c-2-1.9-3-4.2-3.4-5.4c-1.8-4.3-1.2-8.4-1-9.8c0.2-1.7,2-25.2,0.3-35
							c-0.1-0.8-0.6-3.4,0.1-6.6c0.6-2.9,1.8-4.9,2.2-5.5c0.6-1,1.3-1.8,1.9-2.4l11.8,11.2c-0.6,0.7-1.3,1.5-1.9,2.4
							c-0.4,0.6-1.6,2.6-2.2,5.5c-0.7,3.2-0.2,5.8-0.1,6.6c1.6,9.8-0.1,33.3-0.3,35c-0.2,1.4-0.8,5.5,1,9.8
							C207.4,246.1,208.3,248.4,210.3,250.3"/>
						<path class="st10" d="M210.5,185.6l-11.8-11.2c0.7-0.7,1.4-1.3,1.9-1.7l11.8,11.2C211.9,184.3,211.2,184.8,210.5,185.6"/>
						<path class="st9" d="M212.3,183.9l-11.8-11.2c0.3-0.2,0.5-0.3,0.6-0.4c0.3-0.2,0.8-0.5,1.3-0.8l11.8,11.2
							c-0.6,0.3-1,0.6-1.3,0.8C212.8,183.6,212.6,183.7,212.3,183.9"/>
						<path class="st8" d="M214.3,182.7l-11.8-11.2c0.5-0.3,1-0.5,1.6-0.8l11.8,11.2C215.3,182.2,214.7,182.4,214.3,182.7"/>
						<path class="st7" d="M215.9,181.9l-11.8-11.2c0.5-0.2,1-0.4,1.6-0.5l11.8,11.2C216.9,181.5,216.4,181.7,215.9,181.9"/>
						<path class="st6" d="M217.5,181.4l-11.8-11.2c0.5-0.1,1.1-0.2,1.7-0.3l11.8,11.2C218.6,181.2,218,181.3,217.5,181.4"/>
						<path class="st4" d="M219.2,181.1l-11.8-11.2c0.1,0,0.2,0,0.3,0c0.1,0,0.2,0,0.4,0c0.6,0,1.1,0,1.6,0.1l11.8,11.2
							c-0.5-0.1-1.1-0.1-1.6-0.1c-0.1,0-0.2,0-0.4,0C219.4,181.1,219.3,181.1,219.2,181.1"/>
						<path class="st5" d="M221.5,181.1l-11.8-11.2c3.2,0.3,5.5,2,6.5,2.8l11.8,11.2C227,183.1,224.7,181.5,221.5,181.1"/>
						<path class="st4" d="M228,183.9l-11.8-11.2c0.1,0.1,0.2,0.1,0.2,0.2c0.3,0.3,0.7,0.6,1,0.8l11.8,11.2c-0.3-0.3-0.6-0.6-1-0.8
							C228.2,184,228.1,183.9,228,183.9"/>
					</g>
				</g>
				<g class="st0">
					<defs>
						<path id="SVGID_15_" class="st0" d="M257.7,114.7l11.8,11.2c-0.5-0.5-1-0.9-1.3-1.2c-1.5-1.3-3.9-3.4-7.6-5.2
							c-2.6-1.2-4.7-1.8-5.4-2c-0.6-0.1-3.1-0.8-6.5-0.9c-0.8,0-1.5,0-2.2,0c-0.8,0-1.6,0.1-2.2,0.1l-11.8-11.2
							c0.6-0.1,1.4-0.1,2.2-0.1c0.7,0,1.4,0,2.2,0c3.4,0.1,6,0.7,6.5,0.9c0.7,0.2,2.9,0.8,5.4,2c3.7,1.8,6.1,3.9,7.6,5.2
							C256.7,113.8,257.1,114.2,257.7,114.7z"/>
					</defs>
					<clipPath id="SVGID_16_">
						<use xlink:href="#SVGID_15_"  style="overflow:visible;"/>
					</clipPath>
					<g class="st17">
						<path class="st6" d="M244.1,116.8l-11.8-11.2c0.1,0,0.1,0,0.2,0l11.8,11.2C244.2,116.8,244.2,116.8,244.1,116.8"/>
						<path class="st4" d="M244.3,116.8l-11.8-11.2c0.6-0.1,1.3-0.1,2-0.1c0.7,0,1.4,0,2.2,0c0.9,0,1.8,0.1,2.5,0.2l11.8,11.2
							c-0.8-0.1-1.6-0.1-2.5-0.2c-0.8,0-1.5,0-2.2,0C245.6,116.7,244.9,116.7,244.3,116.8"/>
						<path class="st5" d="M251.1,116.8l-11.8-11.2c2.1,0.2,3.6,0.6,4,0.7c0.7,0.2,2.9,0.8,5.4,2c2.2,1.1,3.9,2.2,5.3,3.3l11.8,11.2
							c-1.4-1.1-3.1-2.2-5.3-3.3c-2.6-1.2-4.7-1.8-5.4-2C254.6,117.4,253.2,117,251.1,116.8"/>
						<path class="st4" d="M265.8,122.8L254,111.6c0.9,0.7,1.7,1.4,2.3,1.9c0.4,0.3,0.8,0.7,1.3,1.2l11.8,11.2
							c-0.5-0.5-1-0.9-1.3-1.2C267.5,124.2,266.7,123.5,265.8,122.8"/>
					</g>
				</g>
				<g>
					<polygon class="st18" points="164.1,273.8 152.3,262.6 175.2,152.4 186.9,163.6 					"/>
				</g>
				<g class="st0">
					<defs>
						<path id="SVGID_17_" class="st0" d="M67.1,268.7l-11.8-11.2c2.1,2,4.1,3.3,5.3,3.9c3.2,1.8,5.9,2.6,7.6,3
							c3.9,1,7.5,1.2,10.2,1.1c2.5-0.1,4.3-0.4,5-0.6c2.5-0.5,7.1-1.4,12.1-4.8c5.6-3.8,8.4-8.6,9.9-11.3c3.7-6.4,4.4-12.1,4.5-13.3
							l11.8,11.2c-0.1,1.2-0.8,6.9-4.5,13.3c-1.5,2.7-4.3,7.4-9.9,11.3c-4.9,3.4-9.6,4.3-12.1,4.8c-0.8,0.1-2.6,0.5-5,0.6
							c-2.7,0.1-6.3-0.1-10.2-1.1c-1.7-0.4-4.4-1.2-7.6-3C71.2,272,69.2,270.7,67.1,268.7z"/>
					</defs>
					<clipPath id="SVGID_18_">
						<use xlink:href="#SVGID_17_"  style="overflow:visible;"/>
					</clipPath>
					<g class="st19">
						<path class="st4" d="M67.1,268.7l-11.8-11.2c0.8,0.7,1.5,1.4,2.2,1.9l11.8,11.2C68.6,270,67.9,269.4,67.1,268.7"/>
						<path class="st5" d="M69.3,270.6l-11.8-11.2c1.2,1,2.3,1.6,3,2c3.2,1.8,5.9,2.6,7.6,3c1.8,0.5,3.5,0.8,5.1,0.9l11.8,11.2
							c-1.6-0.2-3.3-0.5-5.1-0.9c-1.7-0.4-4.4-1.2-7.6-3C71.6,272.2,70.5,271.5,69.3,270.6"/>
						<path class="st4" d="M85.1,276.6l-11.8-11.2c1.9,0.2,3.6,0.2,5.1,0.2c0.8,0,1.5-0.1,2.1-0.1l11.8,11.2
							c-0.6,0.1-1.3,0.1-2.1,0.1C88.7,276.8,87,276.8,85.1,276.6"/>
						<path class="st6" d="M92.3,276.6l-11.8-11.2c1.4-0.1,2.4-0.3,3-0.4c0.7-0.1,1.5-0.3,2.4-0.5l11.8,11.2
							c-0.9,0.2-1.8,0.4-2.4,0.5C94.7,276.3,93.7,276.5,92.3,276.6"/>
						<path class="st7" d="M97.7,275.7l-11.8-11.2c1.2-0.3,2.5-0.7,3.9-1.2l11.8,11.2C100.1,275,98.8,275.4,97.7,275.7"/>
						<path class="st8" d="M101.6,274.4l-11.8-11.2c1.1-0.4,2.2-0.9,3.4-1.6l11.8,11.2C103.8,273.5,102.7,274,101.6,274.4"/>
						<path class="st9" d="M105,272.8l-11.8-11.2c0.8-0.4,1.5-0.9,2.3-1.4c0.4-0.2,0.7-0.5,1-0.7l11.8,11.2c-0.3,0.3-0.7,0.5-1,0.7
							C106.5,271.9,105.7,272.4,105,272.8"/>
						<path class="st10" d="M108.3,270.7l-11.8-11.2c1.3-1,2.5-2.1,3.5-3.1l11.8,11.2C110.8,268.6,109.7,269.7,108.3,270.7"/>
						<path class="st2" d="M111.9,267.6l-11.8-11.2c2.7-2.8,4.3-5.6,5.4-7.4c3.7-6.4,4.4-12.1,4.5-13.3l11.8,11.2
							c-0.1,1.2-0.8,6.9-4.5,13.3C116.2,262,114.6,264.7,111.9,267.6"/>
					</g>
				</g>
				<g class="st0">
					<defs>
						<path id="SVGID_19_" class="st0" d="M100.7,209.5l11.8,11.2c4.5,4.3,6.4,9,7.2,10.9c2.8,7,2.3,13.2,2,15.2L110,235.6
							c0.2-2.1,0.7-8.3-2-15.2C107.1,218.4,105.2,213.7,100.7,209.5z"/>
					</defs>
					<clipPath id="SVGID_20_">
						<use xlink:href="#SVGID_19_"  style="overflow:visible;"/>
					</clipPath>
					<g class="st20">
						<path class="st2" d="M121.7,246.8L110,235.6c0.2-2.1,0.7-8.3-2-15.2c-0.8-1.9-2.7-6.7-7.2-10.9l11.8,11.2
							c4.5,4.3,6.4,9,7.2,10.9C122.4,238.6,122,244.7,121.7,246.8"/>
					</g>
				</g>
				<g class="st0">
					<defs>
						<path id="SVGID_21_" class="st0" d="M79.5,254.5l-11.8-11.2c-1-1-2-2.2-2.6-3.9c-0.6-1.6-1.1-4.3-1.1-4.3l11.8,11.2
							c0,0,0.5,2.8,1.1,4.3C77.5,252.3,78.5,253.5,79.5,254.5z"/>
					</defs>
					<clipPath id="SVGID_22_">
						<use xlink:href="#SVGID_21_"  style="overflow:visible;"/>
					</clipPath>
					<g class="st21">
						<path class="st2" d="M79.5,254.5l-11.8-11.2c-1-1-2-2.2-2.6-3.9c-0.5-1.5-1-4.1-1-4.3l11.8,11.2c0,0.2,0.5,2.8,1,4.3
							C77.5,252.3,78.5,253.5,79.5,254.5"/>
						<polyline class="st10" points="75.9,246.3 64.1,235.1 64.1,235 75.9,246.3 75.9,246.3 						"/>
						<polyline class="st9" points="75.9,246.3 64.1,235 64.1,235 75.9,246.3 75.9,246.3 						"/>
						<polyline class="st8" points="75.9,246.3 64.1,235 64.1,235 75.9,246.3 75.9,246.3 						"/>
						<polyline class="st7" points="75.9,246.3 64.1,235 64.1,235 75.9,246.3 75.9,246.3 						"/>
						<polyline class="st6" points="75.9,246.3 64.1,235 64.1,235 75.9,246.3 75.9,246.3 						"/>
						<polyline class="st4" points="75.9,246.3 64.1,235 64.1,235 75.9,246.3 75.9,246.3 						"/>
					</g>
				</g>
				<g>
					<polygon class="st18" points="155.7,228.2 144,216.9 129.3,154 141,165.2 					"/>
				</g>
				<g>
					<polygon class="st14" points="103.6,198.3 91.8,187 110.4,186.4 122.2,197.6 					"/>
				</g>
				<g class="st0">
					<defs>
						<path id="SVGID_23_" class="st0" d="M67.8,222.5L56,211.2c1.1,1,2.4,2.1,3.9,3.2c2.4,1.7,6.4,4.4,12,5.1
							c1.2,0.1,3.2,0.3,8.7,0.8c1.5,0.1,2.8,0.3,4.4,0.9c0.5,0.2,2.1,0.9,3.6,2.4l11.8,11.2c-1.5-1.5-3.2-2.2-3.6-2.4
							c-1.6-0.7-2.9-0.8-4.4-0.9c-5.5-0.5-7.5-0.7-8.7-0.8c-5.6-0.6-9.5-3.4-12-5.1C70.2,224.6,68.9,223.5,67.8,222.5z"/>
					</defs>
					<clipPath id="SVGID_24_">
						<use xlink:href="#SVGID_23_"  style="overflow:visible;"/>
					</clipPath>
					<g class="st22">
						<path class="st4" d="M67.8,222.5L56,211.2c0.7,0.7,1.6,1.4,2.5,2.2l11.8,11.2C69.4,223.9,68.5,223.2,67.8,222.5"/>
						<path class="st5" d="M70.3,224.6l-11.8-11.2c0.4,0.3,0.9,0.7,1.4,1c2.4,1.7,6.4,4.4,12,5.1c0,0,0.1,0,0.1,0l11.8,11.2
							c0,0-0.1,0-0.1,0c-5.6-0.6-9.5-3.4-12-5.1C71.2,225.3,70.7,224.9,70.3,224.6"/>
						<path class="st4" d="M83.8,230.7L72,219.5c1.2,0.1,3.2,0.3,8.6,0.8c0.2,0,0.4,0,0.7,0.1L93,231.5c-0.2,0-0.4,0-0.7-0.1
							C87,230.9,85,230.8,83.8,230.7"/>
						<path class="st5" d="M93,231.5l-11.8-11.2c1.2,0.1,2.4,0.3,3.7,0.9c0.4,0.2,1.5,0.6,2.7,1.6L99.4,234
							c-1.2-0.9-2.3-1.4-2.7-1.6C95.4,231.8,94.3,231.7,93,231.5"/>
						<path class="st4" d="M99.4,234l-11.8-11.2c0.3,0.2,0.6,0.5,0.9,0.8l11.8,11.2C100,234.5,99.7,234.2,99.4,234"/>
					</g>
				</g>
				<g class="st0">
					<defs>
						<path id="SVGID_25_" class="st0" d="M99.5,162.4l11.8,11.2c1.8,1.7,3,3.5,4.5,5.6c2.6,3.7,3.9,6.6,4.3,7.5
							c1.8,4.2,2.1,6.9,2.1,7.6c0.1,1.3,0,2.5,0,3.3l-11.8-11.2c0.1-0.8,0.1-1.9,0-3.3c0-0.7-0.3-3.4-2.1-7.6
							c-0.4-0.9-1.7-3.8-4.3-7.5C102.5,165.9,101.3,164.1,99.5,162.4z"/>
					</defs>
					<clipPath id="SVGID_26_">
						<use xlink:href="#SVGID_25_"  style="overflow:visible;"/>
					</clipPath>
					<g class="st23">
						<path class="st2" d="M122.2,197.6l-11.8-11.2c0.1-0.8,0.1-1.9,0-3.3c0-0.7-0.3-3.4-2.1-7.6c-0.4-0.9-1.7-3.8-4.3-7.5
							c-1.5-2.1-2.8-3.9-4.5-5.6l11.8,11.2c1.8,1.7,3,3.5,4.5,5.6c2.6,3.7,3.9,6.6,4.3,7.5c1.8,4.2,2.1,6.9,2.1,7.6
							C122.3,195.7,122.2,196.8,122.2,197.6"/>
					</g>
				</g>
				<g class="st0">
					<defs>
						<path id="SVGID_27_" class="st0" d="M81.2,209.6l-11.8-11.2c-3.6-3.4-3.8-8.1-3.9-9.3c-0.1-1.6-0.2-5.3,2.3-8.8
							c2-2.8,4.5-4.1,5.5-4.6c1.7-0.7,3.3-1,4.7-1.1c2.3-0.1,4.1,0.5,5.1,0.7c1.5,0.4,4.1,1.2,6,3l11.8,11.2c-1.9-1.8-4.6-2.6-6-3
							c-1-0.3-2.8-0.8-5.1-0.7c-1.4,0.1-3,0.3-4.7,1.1c-1,0.4-3.6,1.7-5.5,4.6c-2.5,3.6-2.3,7.3-2.3,8.8
							C77.4,201.5,77.7,206.2,81.2,209.6z"/>
					</defs>
					<clipPath id="SVGID_28_">
						<use xlink:href="#SVGID_27_"  style="overflow:visible;"/>
					</clipPath>
					<g class="st24">
						<path class="st2" d="M81.2,209.6l-11.8-11.2c-3.6-3.4-3.8-8.1-3.9-9.3c-0.1-1.6-0.2-5.3,2.3-8.8c0.4-0.6,0.9-1.2,1.3-1.6
							L81,189.8c-0.5,0.5-0.9,1-1.3,1.6c-2.5,3.6-2.3,7.3-2.3,8.8C77.4,201.5,77.7,206.2,81.2,209.6"/>
						<path class="st10" d="M81,189.8l-11.8-11.2c0.5-0.6,1.1-1,1.6-1.4l11.8,11.2C82.1,188.8,81.5,189.2,81,189.8"/>
						<path class="st9" d="M82.6,188.4l-11.8-11.2c0.6-0.4,1.1-0.7,1.5-1l11.8,11.2C83.7,187.6,83.2,187.9,82.6,188.4"/>
						<path class="st8" d="M84.2,187.4l-11.8-11.2c0.4-0.2,0.7-0.4,1-0.5c0.2-0.1,0.4-0.2,0.5-0.2l11.8,11.2
							c-0.2,0.1-0.3,0.1-0.5,0.2C84.9,187,84.6,187.1,84.2,187.4"/>
						<path class="st7" d="M85.7,186.7l-11.8-11.2c0.5-0.2,1.1-0.4,1.6-0.5l11.8,11.2C86.7,186.3,86.2,186.4,85.7,186.7"/>
						<path class="st6" d="M87.2,186.1l-11.8-11.2c0.6-0.2,1.2-0.3,1.8-0.3l11.8,11.2C88.5,185.9,87.9,186,87.2,186.1"/>
						<path class="st4" d="M89.1,185.8l-11.8-11.2c0.3,0,0.5,0,0.8,0c0.7,0,1.3,0,1.9,0.1l11.8,11.2c-0.6-0.1-1.2-0.1-1.9-0.1
							C89.6,185.8,89.3,185.8,89.1,185.8"/>
						<path class="st5" d="M91.8,185.9L80,174.6c1.4,0.1,2.5,0.5,3.2,0.7c1.3,0.4,3.5,1,5.3,2.4l11.8,11.2c-1.8-1.4-4-2-5.3-2.4
							C94.3,186.3,93.2,186,91.8,185.9"/>
						<path class="st4" d="M100.3,188.9l-11.8-11.2c0.2,0.2,0.5,0.4,0.7,0.6l11.8,11.2C100.8,189.3,100.5,189.1,100.3,188.9"/>
					</g>
				</g>
				<g class="st0">
					<defs>
						<path id="SVGID_29_" class="st0" d="M231.9,53l11.8,11.2c-0.7-0.7-1.4-1.3-2.3-2c-1.4-1.1-6-4.5-13-6.1
							c-0.9-0.2-4.5-1-9.3-0.8c-0.5,0-1.1,0-1.6,0.1c-1.2,0.1-4.1,0.4-7.7,1.4c-0.7,0.2-3.3,0.9-6.6,2.4c-2.7,1.2-5.1,2.4-7.7,4.6
							c-1,0.9-1.7,1.7-2.2,2.3l-11.8-11.2c0.5-0.6,1.2-1.4,2.2-2.3c2.6-2.3,5-3.4,7.7-4.6c3.3-1.5,5.8-2.2,6.6-2.4
							c3.6-1,6.4-1.3,7.7-1.4c0.6,0,1.1-0.1,1.6-0.1c4.8-0.2,8.3,0.6,9.3,0.8c7,1.6,11.6,5,13,6.1C230.4,51.6,231.2,52.3,231.9,53z"
							/>
					</defs>
					<clipPath id="SVGID_30_">
						<use xlink:href="#SVGID_29_"  style="overflow:visible;"/>
					</clipPath>
					<g class="st25">
						<path class="st2" d="M193.3,66.1l-11.8-11.2c0.3-0.3,0.6-0.7,1-1.1L194.3,65C193.9,65.4,193.5,65.8,193.3,66.1"/>
						<path class="st10" d="M194.3,65l-11.8-11.2c0.4-0.4,0.8-0.8,1.2-1.2c0.5-0.4,1-0.8,1.5-1.2L197,62.6c-0.5,0.4-1,0.8-1.5,1.2
							C195,64.2,194.6,64.6,194.3,65"/>
						<path class="st9" d="M197,62.6l-11.8-11.2c0.9-0.7,1.7-1.2,2.6-1.7l11.8,11.2C198.7,61.4,197.8,61.9,197,62.6"/>
						<path class="st8" d="M199.6,60.9l-11.8-11.2c1.2-0.6,2.3-1.2,3.6-1.8c0.8-0.4,1.5-0.7,2.2-0.9l11.8,11.2
							c-0.7,0.3-1.4,0.6-2.2,0.9C201.9,59.7,200.7,60.3,199.6,60.9"/>
						<path class="st7" d="M205.4,58.2L193.6,47c2.2-0.9,3.8-1.3,4.4-1.5c0.4-0.1,0.7-0.2,1-0.3l11.8,11.2c-0.3,0.1-0.7,0.2-1,0.3
							C209.2,56.9,207.6,57.4,205.4,58.2"/>
						<path class="st6" d="M210.8,56.5L199,45.3c2.6-0.6,4.8-0.9,6-1l11.8,11.2C215.5,55.6,213.4,55.8,210.8,56.5"/>
						<path class="st4" d="M216.8,55.4l-11.8-11.2c0.2,0,0.4,0,0.6-0.1c0.6,0,1.1-0.1,1.6-0.1c2.1-0.1,4,0,5.5,0.2l11.8,11.2
							c-1.5-0.2-3.4-0.3-5.5-0.2c-0.5,0-1.1,0-1.6,0.1C217.2,55.4,217,55.4,216.8,55.4"/>
						<path class="st5" d="M224.6,55.5l-11.8-11.2c1.9,0.2,3.2,0.5,3.7,0.6c6.8,1.5,11.3,4.8,12.9,6l11.8,11.2
							c-1.6-1.2-6.1-4.5-12.9-6C227.8,56,226.5,55.7,224.6,55.5"/>
						<path class="st4" d="M241.2,62.1l-11.8-11.2c0.1,0,0.1,0.1,0.2,0.1c0.8,0.7,1.6,1.3,2.3,2l11.8,11.2c-0.7-0.7-1.4-1.3-2.3-2
							C241.3,62.2,241.3,62.1,241.2,62.1"/>
					</g>
				</g>
				<g class="st0">
					<defs>
						<path id="SVGID_31_" class="st0" d="M30.7,283.9L19,272.7c0.4-41.2,0.8-82.4,1.1-123.6l11.8,11.2
							C31.5,201.5,31.1,242.7,30.7,283.9z"/>
					</defs>
					<clipPath id="SVGID_32_">
						<use xlink:href="#SVGID_31_"  style="overflow:visible;"/>
					</clipPath>
					<g class="st26">
						<path class="st2" d="M30.7,283.9L19,272.7c0.4-41.2,0.8-82.4,1.1-123.6l11.8,11.2C31.5,201.5,31.1,242.7,30.7,283.9"/>
					</g>
				</g>
				<g class="st0">
					<defs>
						<path id="SVGID_33_" class="st0" d="M68.3,122.9l-11.8-11.2c0-0.3,0-0.6,0-1L68.3,122C68.3,122.3,68.3,122.6,68.3,122.9z"/>
					</defs>
					<clipPath id="SVGID_34_">
						<use xlink:href="#SVGID_33_"  style="overflow:visible;"/>
					</clipPath>
					<g class="st27">
						<path class="st2" d="M68.3,122.9l-11.8-11.2c0-0.3,0-0.6,0-1L68.3,122C68.3,122.3,68.3,122.6,68.3,122.9"/>
					</g>
				</g>
				<g class="st0">
					<defs>
						<path id="SVGID_35_" class="st0" d="M67.2,123l-11.8-11.2c0.4,0,0.7,0,1.1,0l11.8,11.2C67.9,122.9,67.5,123,67.2,123z"/>
					</defs>
					<clipPath id="SVGID_36_">
						<use xlink:href="#SVGID_35_"  style="overflow:visible;"/>
					</clipPath>
					<g class="st28">
						<path class="st4" d="M67.2,123l-11.8-11.2c0.4,0,0.7,0,1.1,0l11.8,11.2C67.9,122.9,67.5,123,67.2,123"/>
					</g>
				</g>
				<g class="st0">
					<defs>
						<path id="SVGID_37_" class="st0" d="M120.1,69.7l-11.8-11.2c-0.1-1.1-0.1-2.6,0-4.4c0-0.1,0.3-2.6,1.1-5.5l11.8,11.2
							c-0.9,2.9-1.1,5.4-1.1,5.5C119.9,67.1,120,68.7,120.1,69.7z"/>
					</defs>
					<clipPath id="SVGID_38_">
						<use xlink:href="#SVGID_37_"  style="overflow:visible;"/>
					</clipPath>
					<g class="st29">
						<path class="st2" d="M120.1,69.7l-11.8-11.2c-0.1-1.1-0.1-2.6,0-4.4c0-0.1,0.3-2.6,1.1-5.5l11.8,11.2
							c-0.9,2.9-1.1,5.4-1.1,5.5C119.9,67.1,120,68.7,120.1,69.7"/>
					</g>
				</g>
				<g class="st0">
					<defs>
						<path id="SVGID_39_" class="st0" d="M169.7,29.3l11.8,11.2c-1.2-1.1-2.6-2.3-4.2-3.4c-1.3-0.9-6-3.8-13.1-5
							c-1.8-0.3-4.3-0.6-7.2-0.5c-3.3,0.1-7.2,0.7-11.3,2.2c-2.1,0.8-9.1,3.5-15.4,10.4c-0.3,0.3-6.1,6.6-8.9,15.6l-11.8-11.2
							c2.8-9,8.6-15.3,8.9-15.6c6.3-6.9,13.3-9.6,15.4-10.4c4.2-1.5,8.1-2.1,11.3-2.2c3-0.1,5.5,0.2,7.2,0.5c7,1.2,11.7,4.1,13.1,5
							C167.1,27,168.5,28.1,169.7,29.3z"/>
					</defs>
					<clipPath id="SVGID_40_">
						<use xlink:href="#SVGID_39_"  style="overflow:visible;"/>
					</clipPath>
					<g class="st30">
						<path class="st2" d="M121.3,59.8l-11.8-11.2c2.8-9,8.6-15.3,8.9-15.6c0.2-0.2,0.4-0.5,0.6-0.7l11.8,11.2
							c-0.2,0.2-0.4,0.5-0.6,0.7C129.8,44.5,124,50.8,121.3,59.8"/>
						<path class="st10" d="M130.8,43.5L119,32.3c1.6-1.7,3.3-3.1,4.9-4.3l11.8,11.2C134.1,40.4,132.4,41.8,130.8,43.5"/>
						<path class="st9" d="M135.7,39.2L123.9,28c1.6-1.2,3.2-2.2,4.6-3l11.8,11.2C138.9,37,137.3,38,135.7,39.2"/>
						<path class="st8" d="M140.3,36.2L128.6,25c1.8-1,3.3-1.7,4.4-2.1l11.8,11.2C143.7,34.6,142.1,35.2,140.3,36.2"/>
						<path class="st7" d="M144.7,34.1l-11.8-11.2c0.3-0.1,0.6-0.2,0.8-0.3c1.3-0.5,2.5-0.8,3.7-1.1l11.8,11.2
							c-1.2,0.3-2.5,0.7-3.7,1.1C145.3,33.9,145,34,144.7,34.1"/>
						<path class="st6" d="M149.3,32.7l-11.8-11.2c1.9-0.5,3.7-0.8,5.4-0.9l11.8,11.2C153,31.9,151.2,32.2,149.3,32.7"/>
						<path class="st4" d="M154.7,31.8l-11.8-11.2c0.7-0.1,1.5-0.1,2.2-0.1c2-0.1,3.7,0,5.2,0.2l11.8,11.2c-1.5-0.2-3.2-0.3-5.2-0.2
							C156.2,31.6,155.4,31.7,154.7,31.8"/>
						<path class="st5" d="M162.1,31.8l-11.8-11.2c0.8,0.1,1.4,0.2,2,0.3c7,1.2,11.7,4.1,13.1,5c0.7,0.4,1.3,0.9,1.8,1.3L179,38.4
							c-0.6-0.4-1.2-0.9-1.8-1.3c-1.3-0.9-6-3.8-13.1-5C163.5,32,162.8,31.9,162.1,31.8"/>
						<path class="st4" d="M179,38.4l-11.8-11.2c0.9,0.7,1.7,1.4,2.4,2.1l11.8,11.2C180.7,39.8,179.9,39.1,179,38.4"/>
					</g>
				</g>
				<g class="st0">
					<defs>
						<path id="SVGID_41_" class="st0" d="M31.9,160.3l-11.8-11.2c-0.1-1.3-0.2-3.2,0.1-5.5c0.2-1.4,0.7-4.7,3.4-10
							c1.9-3.6,4.4-8.7,10-13.5c1.9-1.7,5.9-5,12.1-7c3.2-1,6.1-1.3,8.3-1.4c0.6,0,1.1,0,1.6,0L67.2,123c-0.5,0-1,0-1.6,0
							c-2.2,0.1-5.1,0.4-8.3,1.4c-6.2,2-10.2,5.3-12.1,7c-5.5,4.8-8.1,9.8-10,13.5c-2.7,5.2-3.2,8.5-3.4,10
							C31.7,157.1,31.7,159,31.9,160.3z"/>
					</defs>
					<clipPath id="SVGID_42_">
						<use xlink:href="#SVGID_41_"  style="overflow:visible;"/>
					</clipPath>
					<g class="st31">
						<path class="st2" d="M31.9,160.3l-11.8-11.2c-0.1-1.3-0.2-3.2,0.1-5.5c0.2-1.4,0.7-4.7,3.4-10c1.6-3.1,3.7-7.2,7.6-11.2
							l11.8,11.2c-3.9,4.1-6,8.2-7.6,11.2c-2.7,5.2-3.2,8.5-3.4,10C31.7,157.1,31.7,159,31.9,160.3"/>
						<path class="st10" d="M42.9,133.6l-11.8-11.2c0.7-0.7,1.5-1.5,2.4-2.2c0.6-0.5,1.5-1.3,2.5-2l11.8,11.2
							c-1.1,0.8-1.9,1.5-2.5,2C44.4,132.1,43.6,132.9,42.9,133.6"/>
						<path class="st9" d="M47.8,129.4L36,118.1c1-0.8,2.3-1.6,3.8-2.5l11.8,11.2C50.1,127.7,48.8,128.6,47.8,129.4"/>
						<path class="st8" d="M51.6,126.9l-11.8-11.2c1.1-0.6,2.3-1.2,3.7-1.7l11.8,11.2C53.9,125.7,52.7,126.3,51.6,126.9"/>
						<path class="st7" d="M55.3,125.1l-11.8-11.2c0.7-0.3,1.3-0.5,2.1-0.7c0.6-0.2,1.3-0.4,1.9-0.5l11.8,11.2
							c-0.6,0.1-1.2,0.3-1.9,0.5C56.6,124.6,55.9,124.9,55.3,125.1"/>
						<path class="st6" d="M59.2,123.9l-11.8-11.2c1.7-0.4,3.2-0.6,4.6-0.8l11.8,11.2C62.4,123.2,60.9,123.5,59.2,123.9"/>
						<path class="st4" d="M63.8,123.1L52,111.9c0.7-0.1,1.3-0.1,1.8-0.1c0.6,0,1.1,0,1.6,0L67.2,123c-0.5,0-1,0-1.6,0
							C65,123,64.4,123,63.8,123.1"/>
					</g>
				</g>
				<g class="st0">
					<defs>
						<path id="SVGID_43_" class="st0" d="M66.9,121.6l-11.8-11.2c-0.2-0.2-0.5-0.5-0.8-0.8c-3.2-3.3-4.6-6.7-5.4-8.6
							c-0.5-1.2-1.5-3.9-2.1-7.6c-0.8-5.2-0.3-9.3,0.1-12c0.5-3.5,1.1-7.5,3.4-12.2c2.5-5.1,5.7-8.2,7.7-10.1
							c1.9-1.8,5.8-5.5,12.1-8.1c1.5-0.6,6.2-2.4,12.6-2.7c0.5,0,1.1,0,1.7,0c5.5,0.1,9.5,1.3,10.9,1.8c5.6,1.9,9.6,5,12.1,7.4
							l11.8,11.2c-2.5-2.4-6.5-5.4-12.1-7.4c-1.4-0.5-5.4-1.7-10.9-1.8c-0.6,0-1.1,0-1.7,0c-6.3,0.2-11,2-12.6,2.7
							c-6.3,2.6-10.2,6.3-12.1,8.1c-2,1.9-5.2,5-7.7,10.1c-2.3,4.7-2.9,8.6-3.4,12.2c-0.4,2.7-0.9,6.8-0.1,12
							c0.6,3.7,1.6,6.4,2.1,7.6c0.8,1.9,2.2,5.3,5.4,8.6C66.4,121.1,66.7,121.4,66.9,121.6z"/>
					</defs>
					<clipPath id="SVGID_44_">
						<use xlink:href="#SVGID_43_"  style="overflow:visible;"/>
					</clipPath>
					<g class="st32">
						<path class="st2" d="M66.9,121.6l-11.8-11.2c-0.2-0.2-0.5-0.5-0.8-0.8c-3.2-3.3-4.6-6.7-5.4-8.6c-0.5-1.2-1.5-3.9-2.1-7.6
							c-0.8-5.2-0.3-9.3,0.1-12c0.5-3.5,1.1-7.5,3.4-12.2c1.9-3.8,4.2-6.5,6-8.4l11.8,11.2c-1.9,1.9-4.1,4.6-6,8.4
							c-2.3,4.7-2.9,8.6-3.4,12.2c-0.4,2.7-0.9,6.8-0.1,12c0.6,3.7,1.6,6.4,2.1,7.6c0.8,1.9,2.2,5.3,5.4,8.6
							C66.4,121.1,66.7,121.4,66.9,121.6"/>
						<path class="st10" d="M68.1,72.1L56.4,60.9c0.6-0.7,1.2-1.2,1.7-1.7c0.9-0.9,2.3-2.2,4.2-3.6L74,66.8
							c-1.9,1.4-3.2,2.7-4.2,3.6C69.3,70.9,68.7,71.4,68.1,72.1"/>
						<path class="st9" d="M74,66.8L62.2,55.6c1.2-0.9,2.6-1.8,4.2-2.7l11.8,11.2C76.6,65,75.2,65.9,74,66.8"/>
						<path class="st8" d="M78.2,64.1L66.4,52.9c1.1-0.6,2.4-1.2,3.7-1.8c0.1,0,0.3-0.1,0.4-0.2l11.8,11.2c-0.2,0.1-0.3,0.1-0.4,0.2
							C80.6,62.9,79.3,63.5,78.2,64.1"/>
						<path class="st7" d="M82.3,62.1L70.6,50.9c0.9-0.4,2.4-0.9,4.5-1.4l11.8,11.2C84.8,61.2,83.2,61.8,82.3,62.1"/>
						<path class="st6" d="M86.8,60.7L75,49.5c1.6-0.4,3.4-0.7,5.5-0.9l11.8,11.2C90.2,60,88.4,60.3,86.8,60.7"/>
						<path class="st4" d="M92.3,59.8L80.6,48.6c0.7-0.1,1.4-0.1,2.2-0.1c0.5,0,1.1,0,1.7,0c1.3,0,2.4,0.1,3.5,0.2l11.8,11.2
							c-1.1-0.1-2.3-0.2-3.5-0.2c-0.6,0-1.1,0-1.7,0C93.7,59.7,93,59.7,92.3,59.8"/>
						<path class="st5" d="M99.7,59.8L87.9,48.6c3.7,0.4,6.3,1.2,7.4,1.6c3.9,1.3,7.1,3.2,9.4,5.1l11.8,11.2
							c-2.4-1.8-5.5-3.7-9.4-5.1C106,61.1,103.3,60.2,99.7,59.8"/>
						<path class="st4" d="M116.5,66.5l-11.8-11.2c1,0.8,1.9,1.6,2.6,2.3l11.8,11.2C118.4,68.1,117.5,67.3,116.5,66.5"/>
					</g>
				</g>
				<g>
					<path class="st33" d="M279.9,151.6c0.1,8.1,0.2,12.2-0.2,16.4c0,0.8-0.1,15.7-0.4,47c-0.2,19.3-0.4,38.7-0.5,58
						c0,0.7,0,1.5,0,2.2c-0.4,0-0.7,0-1.1,0c-82.3,2.9-164.6,5.7-246.9,8.6c0.4-41.2,0.8-82.4,1.1-123.6c-0.1-1.3-0.2-3.2,0.1-5.5
						c0.2-1.4,0.7-4.7,3.4-10c1.9-3.6,4.4-8.7,10-13.5c1.9-1.7,5.9-5,12.1-7c3.2-1,6.1-1.3,8.3-1.4c0.6,0,1.1,0,1.6,0
						c0.4,0,0.7,0,1.1,0c0-0.3,0-0.6,0-1c-0.4-0.1-0.7-0.1-1.1-0.1c-0.3-0.2-0.6-0.6-1.1-1.1c-3.2-3.3-4.6-6.7-5.4-8.6
						c-0.5-1.2-1.5-3.9-2.1-7.6c-0.8-5.2-0.3-9.3,0.1-12c0.5-3.5,1.1-7.5,3.4-12.2c2.5-5.1,5.7-8.2,7.7-10.1
						c1.9-1.8,5.8-5.5,12.1-8.1c1.5-0.6,6.2-2.4,12.6-2.7c0.5,0,1.1,0,1.7,0c5.5,0.1,9.5,1.3,10.9,1.8c6.4,2.2,10.6,5.8,13,8.3
						c-0.1-1.1-0.1-2.6,0-4.4c0-0.1,0.3-2.6,1.1-5.5c2.8-9,8.6-15.3,8.9-15.6c6.3-6.9,13.3-9.6,15.4-10.4c4.2-1.5,8.1-2.1,11.3-2.2
						c3-0.1,5.5,0.2,7.2,0.5c7,1.2,11.7,4.1,13.1,5c4.4,2.9,6.9,6.2,8.7,8.4c1.8,2.4,4.1,5.3,5.4,9.7c0.5,1.6,0.9,3.6,1.1,4.3
						c0.5,2.7,0.9,4.9,1,6.5c0.5-0.6,1.2-1.4,2.2-2.3c2.6-2.3,5-3.4,7.7-4.6c3.3-1.5,5.8-2.2,6.6-2.4c3.6-1,6.4-1.3,7.7-1.4
						c0.6,0,1.1-0.1,1.6-0.1c4.8-0.2,8.3,0.6,9.3,0.8c7,1.6,11.6,5,13,6.1c4,3.1,6.2,6.4,7.6,8.5c1.6,2.5,4.1,6.3,5.4,11.8
						c0.4,1.8,2,9.9-1.3,18.6c-1.6,4.3-4.4,8.7-6.7,12.3c-0.9,1.4-1.7,2.6-2.2,3.4c0.6-0.1,1.4-0.1,2.2-0.1c0.7,0,1.4,0,2.2,0
						c3.4,0.1,6,0.7,6.5,0.9c0.7,0.2,2.9,0.8,5.4,2c3.7,1.8,6.1,3.9,7.6,5.2c1.4,1.3,4,3.6,6.5,7.4c2.8,4.4,3.9,8.4,4.3,9.7
						C279.7,145.1,279.8,147.7,279.9,151.6z M251.7,244.5c0.7-3.7,1.1-18.4,0.4-38.3c-10.9,0.4-21.9,0.8-32.8,1.1
						c-0.1,6.6-0.1,13.1-0.2,19.7c4.7-0.2,9.5-0.3,14.2-0.5c0,0.9-0.1,2.5,0,4.4c0.1,5.6,0.5,7-0.1,9.8c-0.2,1-0.7,3.2-2.2,5.5
						c-0.9,1.4-3,4.1-6.6,5.7c-0.6,0.3-2.9,1.3-5.7,1.4c-1.6,0.1-3.4-0.2-5.2-1c-4.3-1.9-5.8-5.9-6.5-7.4c-1.8-4.3-1.2-8.4-1-9.8
						c0.2-1.7,2-25.2,0.3-35c-0.1-0.8-0.6-3.4,0.1-6.6c0.6-2.9,1.8-4.9,2.2-5.5c1.7-2.6,3.8-4.1,4.4-4.5c1-0.7,3.3-2.2,6.6-2.4
						c0.1,0,0.2,0,0.4,0c4.3-0.2,7.4,2.2,8.4,3c4.3,3.4,5.2,8.3,5.4,9.7c6.2-0.2,12.4-0.4,18.6-0.6c0.1-0.8,0.1-1.9,0-3.3
						c-0.1-1-0.4-6.4-3.2-11.9c-4.8-9.5-13.8-13.1-15.2-13.7c-4.6-1.8-8.8-2.1-12.1-2c-1.7,0.1-3.2,0.2-4.3,0.4
						c-3,0.4-8.4,1.1-14.2,4.9c-8.7,5.6-12.1,13.8-13.3,16.9c-2.9,7.4-2.7,13.9-2.3,17.6c-0.1,15-0.3,29.9-0.4,44.9
						c0.2,1.1,0.5,2.6,1.1,4.3c1.3,5.3,6.9,11.1,7.5,11.8c1.9,2,5.8,6,11.9,8.3c4.1,1.6,8.2,2,11.7,1.9c6.5-0.2,11.4-2.3,12.3-2.7
						c0.6-0.2,11.1-4.9,16.5-15.9c1.3-2.6,2.2-5.4,2.2-5.5C250.6,248.8,251.2,246.8,251.7,244.5 M121.7,246.8
						c0.2-2.1,0.7-8.3-2-15.2c-1-2.4-3.7-9-10.8-13.8c-1.9-1.3-7.8-5.2-14.1-5c-0.4,0-0.8,0-1.2,0.1c-0.6,0.1-1.3,0.2-2.3,0.2
						c-0.6,0-1.3,0-2.1-0.1c-1.3-0.1-4.7-0.5-7.6-3c-4-3.4-4.2-8.4-4.3-9.7c-0.1-1.6-0.2-5.3,2.3-8.8c2-2.8,4.5-4.1,5.5-4.6
						c1.7-0.7,3.3-1,4.7-1.1c2.3-0.1,4.1,0.5,5.1,0.7c2,0.6,6.1,1.8,7.6,5.2c0.3,0.7,0.4,1.2,1,6.5l18.6-0.6c0.1-0.8,0.1-1.9,0-3.3
						c0-0.7-0.3-3.4-2.1-7.6c-0.4-0.9-1.7-3.8-4.3-7.5c-1.7-2.4-3.2-4.5-5.4-6.4c-4-3.4-8.2-4.4-10.9-5.1c-2.1-0.5-5.2-1-8.8-0.9
						c-2.6,0.1-5.6,0.5-8.7,1.5c-5.8,1.8-9.6,4.7-11,5.9c-1.3,1.1-6.6,5.5-10,13.5c-3.6,8.7-2.6,16.1-2.3,17.6
						c0.3,1.7,1.3,7.3,5.3,12.9c0.9,1.2,3.3,4.5,7.6,7.4c2.4,1.7,6.4,4.4,12,5.1c1.2,0.1,3.2,0.3,8.7,0.8c1.5,0.1,2.8,0.3,4.4,0.9
						c0.5,0.2,2.6,1.2,4.3,3.1c3.2,3.7,3.4,9.1,2.1,13.1c-1,3.2-2.9,5.1-3.3,5.6c-2,2-4,2.9-5.5,3.5c-1.5,0.6-3.2,1.3-5.2,1.4
						c-0.4,0-0.9,0-1.4,0c-3-0.3-5-1.9-6.5-3c-1.4-1.1-3.4-2.7-4.3-5.3c-0.6-1.6-1.1-4.3-1.1-4.3l-17.5,0.6c0,0.1,0,2.3,0,3.3
						c0,2,0.5,3.5,1,5.4c0.5,1.8,1.4,4.5,3.2,7.5c3.3,5.5,7.8,8.4,9.7,9.5c3.2,1.8,5.9,2.6,7.6,3c3.9,1,7.5,1.2,10.2,1.1
						c2.5-0.1,4.3-0.4,5-0.6c2.5-0.5,7.1-1.4,12.1-4.8c5.6-3.8,8.4-8.6,9.9-11.3C120.9,253.7,121.6,248,121.7,246.8 M164.1,273.8
						l22.9-110.2l-17.5,0.6l-13.7,63.9L141,165.2l-18.6,0.6l23,108.6L164.1,273.8"/>
				</g>
			</g>
		</g>
	</g>
	<g>
		<g>
			<g class="st0">
				<g class="st0">
					<defs>
						<path id="SVGID_45_" class="st0" d="M211,252.2L199.3,241c0.8,0.8,1.8,1.5,3.1,2.1c1.8,0.8,3.6,1.1,5.2,1
							c2.8-0.1,5.1-1.1,5.7-1.4c3.6-1.6,5.7-4.3,6.6-5.7c1.5-2.4,2-4.5,2.2-5.5c0.6-2.8,0.2-4.2,0.1-9.9c0-1.9,0-3.4,0-4.4
							l11.8,11.2c0,0.9-0.1,2.5,0,4.4c0.1,5.6,0.5,7-0.1,9.9c-0.2,1-0.7,3.2-2.2,5.5c-0.9,1.4-3,4.1-6.6,5.7
							c-0.6,0.3-2.9,1.3-5.7,1.4c-1.6,0.1-3.4-0.2-5.2-1C212.9,253.7,211.9,253,211,252.2z"/>
					</defs>
					<clipPath id="SVGID_46_">
						<use xlink:href="#SVGID_45_"  style="overflow:visible;"/>
					</clipPath>
					<g class="st34">
						<path class="st35" d="M211,252.2L199.3,241c0.3,0.3,0.6,0.5,0.9,0.8l11.8,11.2C211.6,252.7,211.3,252.5,211,252.2"/>
						<path class="st36" d="M211.9,253l-11.8-11.2c0.6,0.5,1.4,0.9,2.2,1.3c1.2,0.5,2.3,0.8,3.5,0.9l11.8,11.2
							c-1.1-0.1-2.3-0.4-3.5-0.9C213.3,253.9,212.5,253.4,211.9,253"/>
						<path class="st35" d="M217.6,255.2L205.8,244c0.6,0.1,1.2,0.1,1.8,0.1c0.3,0,0.5,0,0.8-0.1l11.8,11.2c-0.3,0-0.5,0-0.8,0.1
							C218.8,255.3,218.2,255.3,217.6,255.2"/>
						<path class="st37" d="M220.1,255.2L208.4,244c0.8-0.1,1.5-0.2,2.2-0.4l11.8,11.2C221.6,255,220.9,255.1,220.1,255.2"/>
						<path class="st38" d="M222.3,254.8l-11.8-11.2c0.8-0.2,1.5-0.4,2-0.6l11.8,11.2C223.8,254.4,223.1,254.6,222.3,254.8"/>
						<path class="st39" d="M224.3,254.2L212.5,243c0.3-0.1,0.6-0.2,0.7-0.3c0.4-0.2,0.8-0.4,1.1-0.6l11.8,11.2
							c-0.4,0.2-0.7,0.4-1.1,0.6C224.9,254,224.6,254.1,224.3,254.2"/>
						<path class="st40" d="M226.2,253.3l-11.8-11.2c0.6-0.3,1.2-0.7,1.7-1.1l11.8,11.2C227.3,252.6,226.8,253,226.2,253.3"/>
						<path class="st41" d="M227.9,252.2L216.1,241c0.7-0.5,1.4-1.1,1.9-1.7l11.8,11.2C229.2,251.1,228.6,251.7,227.9,252.2"/>
						<path class="st42" d="M229.7,250.6L218,239.4c0.9-0.9,1.5-1.8,1.9-2.4c1.5-2.4,2-4.5,2.2-5.5c0.6-2.8,0.2-4.2,0.1-9.9
							c0-1.9,0-3.4,0-4.4l11.8,11.2c0,0.9-0.1,2.5,0,4.4c0.1,5.6,0.5,7-0.1,9.9c-0.2,1-0.7,3.2-2.2,5.5
							C231.2,248.8,230.6,249.7,229.7,250.6"/>
					</g>
				</g>
				<g class="st0">
					<defs>
						<path id="SVGID_47_" class="st0" d="M198.2,266.4l-11.8-11.2c-0.7-0.6-1.2-1.2-1.7-1.7c-0.6-0.6-6.2-6.5-7.5-11.8L189,253
							c1.3,5.3,6.9,11.1,7.5,11.8C197,265.2,197.6,265.8,198.2,266.4z"/>
					</defs>
					<clipPath id="SVGID_48_">
						<use xlink:href="#SVGID_47_"  style="overflow:visible;"/>
					</clipPath>
					<g class="st43">
						<path class="st42" d="M198.2,266.4l-11.8-11.2c-0.7-0.6-1.2-1.2-1.7-1.7c-0.6-0.6-6.2-6.5-7.5-11.8L189,253
							c1.3,5.3,6.9,11.1,7.5,11.8C197,265.2,197.6,265.8,198.2,266.4"/>
					</g>
				</g>
				<g class="st0">
					<defs>
						<path id="SVGID_49_" class="st0" d="M189,253l-11.8-11.2c-0.6-1.8-0.9-3.3-1.1-4.3l11.8,11.2C188.1,249.7,188.4,251.2,189,253
							z"/>
					</defs>
					<clipPath id="SVGID_50_">
						<use xlink:href="#SVGID_49_"  style="overflow:visible;"/>
					</clipPath>
					<g class="st44">
						<path class="st42" d="M189,253l-11.8-11.2c-0.6-1.8-0.9-3.3-1.1-4.3l11.8,11.2C188.1,249.7,188.4,251.2,189,253"/>
					</g>
				</g>
				<g class="st0">
					<defs>
						<path id="SVGID_51_" class="st0" d="M220,209.2L208.2,198c10.9-0.4,21.8-0.8,32.8-1.1l11.8,11.2
							C241.8,208.5,230.9,208.8,220,209.2z"/>
					</defs>
					<clipPath id="SVGID_52_">
						<use xlink:href="#SVGID_51_"  style="overflow:visible;"/>
					</clipPath>
					<g class="st45">
						<path class="st35" d="M220,209.2L208.2,198c10.9-0.4,21.8-0.8,32.8-1.1l11.8,11.2C241.8,208.5,230.9,208.8,220,209.2"/>
					</g>
				</g>
				<g class="st0">
					<defs>
						<path id="SVGID_53_" class="st0" d="M219.8,228.9L208,217.7c0.1-6.6,0.1-13.1,0.2-19.7l11.8,11.2
							C219.9,215.8,219.9,222.4,219.8,228.9z"/>
					</defs>
					<clipPath id="SVGID_54_">
						<use xlink:href="#SVGID_53_"  style="overflow:visible;"/>
					</clipPath>
					<g class="st46">
						<path class="st42" d="M219.8,228.9L208,217.7c0.1-6.6,0.1-13.1,0.2-19.7l11.8,11.2C219.9,215.8,219.9,222.4,219.8,228.9"/>
					</g>
				</g>
				<g class="st0">
					<defs>
						<path id="SVGID_55_" class="st0" d="M218.1,175.6l11.8,11.2c3.5,3.3,4.2,7.5,4.4,8.8l-11.8-11.2
							C222.4,183.1,221.6,178.9,218.1,175.6z"/>
					</defs>
					<clipPath id="SVGID_56_">
						<use xlink:href="#SVGID_55_"  style="overflow:visible;"/>
					</clipPath>
					<g class="st47">
						<path class="st42" d="M234.3,195.6l-11.8-11.2c-0.2-1.3-0.9-5.5-4.4-8.8l11.8,11.2C233.4,190.1,234.1,194.3,234.3,195.6"/>
					</g>
				</g>
				<g class="st0">
					<defs>
						<path id="SVGID_57_" class="st0" d="M187.9,248.6l-11.8-11.2c0.1-15,0.3-29.9,0.4-44.9l11.8,11.2
							C188.2,218.7,188.1,233.7,187.9,248.6z"/>
					</defs>
					<clipPath id="SVGID_58_">
						<use xlink:href="#SVGID_57_"  style="overflow:visible;"/>
					</clipPath>
					<g class="st48">
						<path class="st42" d="M187.9,248.6l-11.8-11.2c0.1-15,0.3-29.9,0.4-44.9l11.8,11.2C188.2,218.7,188.1,233.7,187.9,248.6"/>
					</g>
				</g>
				<g class="st0">
					<defs>
						<path id="SVGID_59_" class="st0" d="M232.4,161l11.8,11.2c-4.2-4-8.6-5.8-9.5-6.2c-4.6-1.8-8.8-2.1-12.1-2l-11.8-11.2
							c3.3-0.1,7.5,0.2,12.1,2C223.8,155.2,228.1,157,232.4,161z"/>
					</defs>
					<clipPath id="SVGID_60_">
						<use xlink:href="#SVGID_59_"  style="overflow:visible;"/>
					</clipPath>
					<g class="st49">
						<path class="st35" d="M222.5,164.1l-11.8-11.2c1.4,0,2.9,0,4.5,0.2l11.8,11.2C225.4,164,223.9,164,222.5,164.1"/>
						<path class="st36" d="M227,164.2L215.3,153c2.3,0.2,4.9,0.8,7.5,1.8c0.8,0.3,3.8,1.5,7.1,4.1l11.8,11.2
							c-3.4-2.6-6.4-3.8-7.1-4.1C231.9,165,229.3,164.5,227,164.2"/>
						<path class="st35" d="M241.7,170.2L230,159c0.8,0.6,1.6,1.3,2.4,2.1l11.8,11.2C243.3,171.5,242.5,170.8,241.7,170.2"/>
					</g>
				</g>
				<g>
					<path class="st50" d="M222.5,164.1c3.3-0.1,7.5,0.2,12.1,2c1.4,0.6,10.4,4.2,15.2,13.7c2.8,5.5,3.1,10.9,3.2,11.9
						c0.1,1.3,0,2.5,0,3.3c-6.2,0.2-12.4,0.4-18.6,0.6c-0.2-1.4-1.1-6.3-5.4-9.7c-1-0.8-4-3.1-8.3-3c-0.1,0-0.2,0-0.4,0
						c-3.2,0.2-5.6,1.7-6.6,2.4c-0.6,0.4-2.7,1.9-4.4,4.5c-0.4,0.6-1.6,2.6-2.2,5.5c-0.7,3.2-0.2,5.8-0.1,6.6
						c1.7,9.8-0.1,33.3-0.3,35c-0.2,1.4-0.8,5.5,1,9.8c0.6,1.6,2.2,5.5,6.5,7.4c1.8,0.8,3.6,1.1,5.2,1c2.8-0.1,5.1-1.1,5.7-1.4
						c3.6-1.6,5.7-4.3,6.6-5.7c1.5-2.4,2-4.5,2.2-5.5c0.6-2.8,0.2-4.2,0.1-9.9c0-1.9,0-3.4,0-4.4c-4.7,0.2-9.5,0.3-14.2,0.5
						c0.1-6.6,0.1-13.1,0.2-19.7c10.9-0.4,21.8-0.8,32.8-1.1c0.7,19.9,0.4,34.5-0.4,38.3c-0.5,2.3-1.1,4.3-1.1,4.4
						c0,0.1-0.9,2.9-2.2,5.5c-5.5,11-16,15.6-16.5,15.9c-0.9,0.4-5.8,2.5-12.3,2.7c-3.6,0.1-7.6-0.3-11.7-1.9
						c-6.1-2.3-10-6.3-11.9-8.3c-0.6-0.6-6.2-6.5-7.5-11.8c-0.6-1.8-0.9-3.3-1.1-4.3c0.1-15,0.3-29.9,0.4-44.9
						c-0.4-3.7-0.6-10.2,2.4-17.6c1.2-3.1,4.6-11.3,13.3-16.9c5.8-3.7,11.3-4.5,14.2-4.9C219.3,164.3,220.8,164.1,222.5,164.1z"/>
				</g>
				<g class="st0">
					<defs>
						<path id="SVGID_61_" class="st0" d="M188.4,203.8l-11.8-11.2c-0.4-3.7-0.6-10.2,2.4-17.6c1.2-3.1,4.6-11.3,13.3-16.9
							c5.8-3.7,11.3-4.5,14.2-4.9c1.1-0.1,2.6-0.3,4.3-0.4l11.8,11.2c-1.7,0.1-3.2,0.2-4.3,0.4c-3,0.4-8.4,1.1-14.2,4.9
							c-8.7,5.5-12.1,13.8-13.3,16.9C187.8,193.6,188,200.1,188.4,203.8z"/>
					</defs>
					<clipPath id="SVGID_62_">
						<use xlink:href="#SVGID_61_"  style="overflow:visible;"/>
					</clipPath>
					<g class="st51">
						<path class="st42" d="M188.4,203.8l-11.8-11.2c-0.4-3.7-0.6-10.2,2.4-17.6c0.9-2.3,3-7.5,7.6-12.3l11.8,11.2
							c-4.6,4.8-6.7,10-7.6,12.3C187.8,193.6,188,200.1,188.4,203.8"/>
						<path class="st41" d="M198.3,173.9l-11.8-11.2c1.1-1.1,2.4-2.3,3.8-3.3l11.8,11.2C200.7,171.7,199.5,172.8,198.3,173.9"/>
						<path class="st40" d="M202.1,170.6l-11.8-11.2c0.6-0.4,1.2-0.9,1.8-1.3c0.6-0.4,1.1-0.7,1.7-1l11.8,11.2
							c-0.6,0.3-1.1,0.7-1.7,1C203.3,169.7,202.7,170.2,202.1,170.6"/>
						<path class="st39" d="M205.7,168.3l-11.8-11.2c1.2-0.7,2.4-1.2,3.6-1.7l11.8,11.2C208.1,167.1,206.9,167.6,205.7,168.3"/>
						<path class="st38" d="M209.3,166.6l-11.8-11.2c1.4-0.6,2.8-1,4-1.3l11.8,11.2C212,165.6,210.7,166,209.3,166.6"/>
						<path class="st37" d="M213.3,165.3l-11.8-11.2c2-0.5,3.7-0.7,4.9-0.9c0.6-0.1,1.3-0.2,2.1-0.2l11.8,11.2
							c-0.8,0.1-1.5,0.2-2.1,0.2C217,164.6,215.3,164.8,213.3,165.3"/>
						<path class="st35" d="M220.3,164.2L208.5,153c0.7-0.1,1.4-0.1,2.2-0.1l11.8,11.2C221.7,164.1,221,164.1,220.3,164.2"/>
					</g>
				</g>
			</g>
			<g class="st0">
				<g>
					<polygon class="st52" points="156.5,230 144.7,218.8 158.4,154.9 170.1,166.1 					"/>
				</g>
				<g>
					<polygon class="st53" points="170.1,166.1 158.4,154.9 175.9,154.3 187.6,165.5 					"/>
				</g>
				<g class="st0">
					<defs>
						<path id="SVGID_63_" class="st0" d="M80.2,256.3l-11.8-11.2c0.6,0.6,1.2,1,1.7,1.5c1.5,1.2,3.5,2.7,6.5,3.1
							c0.5,0,0.9,0.1,1.3,0c2.1-0.1,3.7-0.8,5.2-1.4c1.5-0.6,3.5-1.5,5.5-3.5c0.4-0.4,2.3-2.4,3.3-5.6c1.3-4,1.1-9.4-2.1-13.1
							c-0.2-0.3-0.5-0.5-0.7-0.8l11.8,11.2c0.2,0.2,0.5,0.5,0.7,0.8c3.2,3.7,3.4,9.1,2.1,13.1c-1,3.2-2.9,5.1-3.3,5.6
							c-2,2-4,2.9-5.5,3.5c-1.5,0.6-3.2,1.3-5.2,1.4c-0.4,0-0.9,0-1.3,0c-3-0.3-5-1.9-6.5-3.1C81.4,257.4,80.8,256.9,80.2,256.3z"/>
					</defs>
					<clipPath id="SVGID_64_">
						<use xlink:href="#SVGID_63_"  style="overflow:visible;"/>
					</clipPath>
					<g class="st54">
						<path class="st35" d="M80.2,256.3l-11.8-11.2c0.6,0.6,1.2,1,1.7,1.5c0.2,0.1,0.3,0.3,0.5,0.4l11.8,11.2
							c-0.2-0.1-0.4-0.3-0.5-0.4C81.4,257.4,80.8,256.9,80.2,256.3"/>
						<path class="st36" d="M82.5,258.2L70.7,247c1.4,1.1,3.3,2.4,5.9,2.6l11.8,11.2C85.8,260.6,83.9,259.3,82.5,258.2"/>
						<path class="st35" d="M88.4,260.8l-11.8-11.2c0,0,0,0,0.1,0c0.5,0,0.9,0.1,1.3,0c0.2,0,0.4,0,0.6,0l11.8,11.2
							c-0.2,0-0.4,0-0.6,0C89.4,260.9,88.9,260.9,88.4,260.8C88.4,260.9,88.4,260.8,88.4,260.8"/>
						<path class="st37" d="M90.4,260.9l-11.8-11.2c0.6-0.1,1.1-0.2,1.6-0.3L92,260.6C91.5,260.7,91,260.8,90.4,260.9"/>
						<path class="st38" d="M92,260.6l-11.8-11.2c0.8-0.2,1.5-0.5,2.2-0.7l11.8,11.2C93.5,260.1,92.8,260.4,92,260.6"/>
						<path class="st39" d="M94.2,259.8l-11.8-11.2c0.3-0.1,0.5-0.2,0.8-0.3c0.7-0.3,1.5-0.6,2.4-1.1l11.8,11.2
							c-0.9,0.5-1.7,0.8-2.4,1.1C94.8,259.6,94.5,259.7,94.2,259.8"/>
						<path class="st40" d="M97.4,258.4l-11.8-11.2c0.5-0.3,1-0.6,1.6-1L99,257.4C98.4,257.8,97.9,258.1,97.4,258.4"/>
						<path class="st41" d="M99,257.4l-11.8-11.2c0.5-0.4,1-0.8,1.6-1.4c0,0,0.1-0.1,0.1-0.1l11.8,11.2c0,0-0.1,0.1-0.1,0.1
							C100,256.6,99.5,257,99,257.4"/>
						<path class="st42" d="M100.6,256l-11.8-11.2c0.6-0.6,2.3-2.5,3.2-5.5c1.3-4,1.1-9.4-2.1-13.1c-0.2-0.3-0.5-0.5-0.7-0.8
							l11.8,11.2c0.2,0.2,0.5,0.5,0.7,0.8c3.2,3.7,3.4,9.1,2.1,13.1C102.9,253.5,101.2,255.4,100.6,256"/>
					</g>
				</g>
				<g class="st0">
					<defs>
						<path id="SVGID_65_" class="st0" d="M67.8,270.6L56,259.4c-1.5-1.4-3.1-3.3-4.5-5.6c-1.8-3-2.7-5.7-3.2-7.5
							c-0.6-1.9-1-3.4-1-5.4c0-0.9,0-3.2,0-3.3l11.8,11.2c0,0.1,0,2.3,0,3.3c0,2,0.5,3.5,1,5.4c0.5,1.8,1.4,4.5,3.2,7.5
							C64.7,267.3,66.3,269.1,67.8,270.6z"/>
					</defs>
					<clipPath id="SVGID_66_">
						<use xlink:href="#SVGID_65_"  style="overflow:visible;"/>
					</clipPath>
					<g class="st55">
						<path class="st42" d="M67.8,270.6L56,259.4c-1.5-1.4-3.1-3.3-4.5-5.6c-1.8-3-2.7-5.7-3.2-7.5c-0.6-1.9-1-3.4-1-5.4
							c0-0.9,0-3.2,0-3.3l11.8,11.2c0,0.1,0,2.3,0,3.3c0,2,0.5,3.5,1,5.4c0.5,1.8,1.4,4.5,3.2,7.5C64.7,267.3,66.3,269.1,67.8,270.6
							"/>
					</g>
				</g>
				<g>
					<polygon class="st53" points="59.1,248.8 47.3,237.5 64.8,236.9 76.6,248.1 					"/>
				</g>
				<g class="st0">
					<defs>
						<path id="SVGID_67_" class="st0" d="M89.9,180.2l11.8,11.2c0.6,0.6,1.2,1.3,1.6,2.2c0.3,0.7,0.4,1.2,1,6.5l-11.8-11.2
							c-0.7-5.3-0.7-5.8-1-6.5C91.1,181.5,90.6,180.8,89.9,180.2z"/>
					</defs>
					<clipPath id="SVGID_68_">
						<use xlink:href="#SVGID_67_"  style="overflow:visible;"/>
					</clipPath>
					<g class="st56">
						<path class="st42" d="M104.3,200.1l-11.8-11.2c-0.7-5.3-0.7-5.8-1-6.5c-0.4-0.9-0.9-1.6-1.6-2.2l11.8,11.2
							c0.6,0.6,1.2,1.3,1.6,2.2C103.6,194.4,103.7,194.8,104.3,200.1"/>
					</g>
				</g>
				<g class="st0">
					<defs>
						<path id="SVGID_69_" class="st0" d="M81.9,211.5l-11.8-11.2c0.1,0.1,0.3,0.3,0.4,0.4c2.9,2.5,6.3,2.9,7.6,3
							c0.8,0.1,1.4,0.1,2,0.1c1,0,1.8-0.2,2.3-0.2c0.4,0,0.8-0.1,1.2-0.1c6.3-0.2,12.2,3.7,14.1,5c1.4,0.9,2.6,1.9,3.6,2.9
							l11.8,11.2c-1.1-1-2.2-2-3.6-2.9c-1.9-1.3-7.8-5.2-14.1-5c-0.4,0-0.8,0-1.2,0.1c-0.6,0.1-1.3,0.2-2.3,0.2c-0.6,0-1.3,0-2-0.1
							c-1.3-0.1-4.7-0.5-7.6-3C82.2,211.7,82.1,211.6,81.9,211.5z"/>
					</defs>
					<clipPath id="SVGID_70_">
						<use xlink:href="#SVGID_69_"  style="overflow:visible;"/>
					</clipPath>
					<g class="st57">
						<path class="st35" d="M81.9,211.5l-11.8-11.2c0.1,0.1,0.3,0.3,0.4,0.4c0.2,0.1,0.3,0.3,0.5,0.4l11.8,11.2
							c-0.2-0.1-0.3-0.3-0.5-0.4C82.2,211.7,82.1,211.6,81.9,211.5"/>
						<path class="st36" d="M82.9,212.2L71.1,201c2.8,2.2,5.9,2.5,7.1,2.6c0,0,0,0,0,0L90,214.9c0,0,0,0,0,0
							C88.8,214.7,85.7,214.4,82.9,212.2"/>
						<path class="st35" d="M90,214.9l-11.8-11.2c0.8,0.1,1.4,0.1,2,0.1c0.3,0,0.7,0,0.9-0.1L93,214.9c-0.3,0-0.6,0.1-0.9,0.1
							C91.4,215,90.8,214.9,90,214.9"/>
						<path class="st37" d="M93,214.9l-11.8-11.2c0.5-0.1,1-0.1,1.4-0.2c0.1,0,0.2,0,0.3,0l11.8,11.2c-0.1,0-0.2,0-0.3,0
							C94,214.8,93.5,214.8,93,214.9"/>
						<path class="st35" d="M94.7,214.7l-11.8-11.2c0.3,0,0.6,0,0.8-0.1c0.7,0,1.5,0,2.2,0.1l11.8,11.2c-0.7-0.1-1.5-0.1-2.2-0.1
							C95.2,214.6,95,214.6,94.7,214.7"/>
						<path class="st36" d="M97.7,214.7L86,203.5c5.4,0.6,10.2,3.8,11.9,4.9c0.5,0.3,1,0.7,1.4,1l11.8,11.2c-0.5-0.3-0.9-0.7-1.4-1
							C107.9,218.5,103.2,215.3,97.7,214.7"/>
						<path class="st35" d="M111,220.7l-11.8-11.2c0.8,0.6,1.5,1.2,2.2,1.9l11.8,11.2C112.5,221.9,111.8,221.3,111,220.7"/>
					</g>
				</g>
				<g>
					<polygon class="st53" points="123.2,167.8 111.4,156.6 130,155.9 141.7,167.1 					"/>
				</g>
				<g>
					<polygon class="st50" points="187.6,165.5 164.8,275.7 146.2,276.3 123.2,167.8 141.7,167.1 156.5,230 170.1,166.1 					"/>
				</g>
				<g>
					<polygon class="st52" points="146.2,276.3 134.4,265.1 111.4,156.6 123.2,167.8 					"/>
				</g>
				<g class="st0">
					<defs>
						<path id="SVGID_71_" class="st0" d="M100.2,164.3l11.8,11.2c-0.3-0.3-0.6-0.5-0.9-0.8c-4-3.4-8.2-4.4-10.9-5.1
							c-2.1-0.5-5.1-1-8.8-0.9l-11.8-11.2c3.6-0.1,6.7,0.4,8.8,0.9c2.7,0.6,6.9,1.7,10.9,5.1C99.6,163.8,99.9,164.1,100.2,164.3z"/>
					</defs>
					<clipPath id="SVGID_72_">
						<use xlink:href="#SVGID_71_"  style="overflow:visible;"/>
					</clipPath>
					<g class="st58">
						<path class="st35" d="M91.4,168.8l-11.8-11.2c1.7-0.1,3.3,0,4.7,0.2l11.8,11.2C94.7,168.8,93.1,168.7,91.4,168.8"/>
						<path class="st36" d="M96.1,168.9l-11.8-11.2c1.6,0.2,3,0.4,4.1,0.7c2.5,0.6,6.4,1.6,10.1,4.5l11.8,11.2
							c-3.7-2.9-7.6-3.9-10.1-4.5C99.1,169.4,97.7,169.1,96.1,168.9"/>
						<path class="st35" d="M110.3,174.1l-11.8-11.2c0.3,0.2,0.5,0.4,0.8,0.6c0.3,0.3,0.6,0.5,0.9,0.8l11.8,11.2
							c-0.3-0.3-0.6-0.5-0.9-0.8C110.8,174.5,110.6,174.3,110.3,174.1"/>
					</g>
				</g>
				<g class="st0">
					<defs>
						<path id="SVGID_73_" class="st0" d="M68.5,224.4l-11.8-11.2c-1.9-1.8-3.1-3.5-3.7-4.3c-4.1-5.7-5.1-11.3-5.3-12.9
							c-0.2-1.5-1.3-8.9,2.3-17.6c3.3-7.9,8.6-12.4,10-13.5c1.4-1.1,5.2-4,11-5.9c3.1-1,6.1-1.4,8.7-1.5l11.8,11.2
							c-2.6,0.1-5.6,0.5-8.7,1.5c-5.8,1.8-9.6,4.7-11,5.9c-1.3,1.1-6.6,5.5-10,13.5c-3.6,8.7-2.6,16.1-2.3,17.6
							c0.3,1.7,1.3,7.3,5.3,12.9C65.4,220.9,66.6,222.5,68.5,224.4z"/>
					</defs>
					<clipPath id="SVGID_74_">
						<use xlink:href="#SVGID_73_"  style="overflow:visible;"/>
					</clipPath>
					<g class="st59">
						<path class="st42" d="M68.5,224.4l-11.8-11.2c-1.9-1.8-3.1-3.5-3.7-4.3c-4.1-5.7-5.1-11.3-5.3-12.9c-0.2-1.5-1.3-8.9,2.3-17.6
							c2.1-5,5-8.7,7.2-10.9L69,178.7c-2.2,2.3-5.1,5.9-7.2,10.9c-3.6,8.7-2.6,16.1-2.3,17.6c0.3,1.7,1.3,7.3,5.3,12.9
							C65.4,220.9,66.6,222.5,68.5,224.4"/>
						<path class="st41" d="M69,178.7l-11.8-11.2c1.3-1.3,2.3-2.2,2.8-2.5c0.2-0.2,0.6-0.4,0.9-0.7l11.8,11.2
							c-0.4,0.3-0.7,0.5-0.9,0.7C71.3,176.5,70.3,177.4,69,178.7"/>
						<path class="st40" d="M72.7,175.4l-11.8-11.2c0.9-0.7,2.2-1.5,3.8-2.4L76.5,173C74.9,173.9,73.6,174.7,72.7,175.4"/>
						<path class="st39" d="M76.5,173l-11.8-11.2c1.2-0.6,2.5-1.3,4-1.9l11.8,11.2C79,171.7,77.7,172.3,76.5,173"/>
						<path class="st38" d="M80.5,171.1l-11.8-11.2c0.7-0.3,1.5-0.6,2.3-0.8c0.7-0.2,1.3-0.4,2-0.5l11.8,11.2
							c-0.6,0.2-1.3,0.3-2,0.5C82,170.5,81.2,170.8,80.5,171.1"/>
						<path class="st37" d="M84.7,169.7l-11.8-11.2c1.7-0.4,3.3-0.7,4.8-0.8l11.8,11.2C88,169,86.4,169.3,84.7,169.7"/>
						<path class="st35" d="M89.5,168.9l-11.8-11.2c0.7-0.1,1.3-0.1,1.9-0.1l11.8,11.2C90.8,168.8,90.2,168.8,89.5,168.9"/>
					</g>
				</g>
				<g>
					<path class="st50" d="M91.4,168.8c3.6-0.1,6.7,0.4,8.8,0.9c2.7,0.6,6.9,1.7,10.9,5.1c2.2,1.9,3.7,3.9,5.4,6.4
						c2.6,3.7,3.9,6.7,4.3,7.5c1.8,4.2,2.1,6.9,2.1,7.6c0.1,1.3,0,2.5,0,3.3l-18.6,0.6c-0.7-5.3-0.7-5.8-1-6.5
						c-1.5-3.5-5.6-4.6-7.6-5.2c-1-0.3-2.8-0.8-5.1-0.7c-1.4,0.1-3,0.3-4.7,1.1c-1,0.4-3.6,1.7-5.5,4.6c-2.5,3.6-2.3,7.3-2.3,8.8
						c0.1,1.3,0.3,6.3,4.3,9.7c2.9,2.5,6.3,2.9,7.6,3c0.8,0.1,1.4,0.1,2,0.1c1,0,1.8-0.2,2.3-0.2c0.4,0,0.8-0.1,1.2-0.1
						c6.3-0.2,12.2,3.7,14.1,5c7.1,4.8,9.8,11.4,10.8,13.8c2.8,7,2.3,13.2,2,15.2c-0.1,1.2-0.8,6.9-4.5,13.3
						c-1.5,2.7-4.3,7.4-9.9,11.3c-4.9,3.4-9.6,4.3-12,4.8c-0.8,0.1-2.6,0.5-5.1,0.6c-2.7,0.1-6.3-0.1-10.2-1.1
						c-1.7-0.4-4.4-1.2-7.6-3c-1.9-1.1-6.4-4-9.7-9.5c-1.8-3-2.7-5.7-3.2-7.5c-0.6-1.9-1-3.4-1-5.4c0-0.9,0-3.2,0-3.3l17.5-0.6
						c0,0.1,0.5,2.7,1.1,4.3c1,2.7,2.9,4.2,4.3,5.3c1.5,1.2,3.5,2.7,6.5,3.1c0.5,0,0.9,0.1,1.3,0c2.1-0.1,3.7-0.8,5.2-1.4
						c1.5-0.6,3.5-1.5,5.5-3.5c0.4-0.4,2.3-2.4,3.3-5.6c1.3-4,1.1-9.4-2.1-13.1c-1.7-2-3.8-2.9-4.3-3.1c-1.6-0.7-2.9-0.8-4.4-0.9
						c-5.5-0.5-7.5-0.7-8.7-0.8c-5.6-0.6-9.5-3.4-12-5c-4.2-2.9-6.7-6.2-7.6-7.4c-4.1-5.7-5.1-11.3-5.3-12.9
						c-0.2-1.5-1.3-8.9,2.3-17.6c3.3-7.9,8.6-12.4,10-13.5c1.4-1.1,5.2-4,11-5.9C85.9,169.3,88.8,168.9,91.4,168.8z"/>
				</g>
			</g>
		</g>
	</g>
</g>
</svg>
