<?xml version="1.0" encoding="utf-8"?>
<!-- Generator: Adobe Illustrator 23.0.6, SVG Export Plug-In . SVG Version: 6.00 Build 0)  -->
<svg version="1.1" id="wp_x5F_icon" xmlns="http://www.w3.org/2000/svg" xmlns:xlink="http://www.w3.org/1999/xlink" x="0px"
	 y="0px" viewBox="0 0 300 300" style="enable-background:new 0 0 300 300;" xml:space="preserve">
<style type="text/css">
	.st0{enable-background:new    ;}
	.st1{clip-path:url(#SVGID_2_);enable-background:new    ;}
	.st2{fill:#854300;}
	.st3{clip-path:url(#SVGID_4_);enable-background:new    ;}
	.st4{fill:#944A00;}
	.st5{clip-path:url(#SVGID_6_);enable-background:new    ;}
	.st6{clip-path:url(#SVGID_8_);enable-background:new    ;}
	.st7{fill:#A85400;}
	.st8{clip-path:url(#SVGID_10_);enable-background:new    ;}
	.st9{clip-path:url(#SVGID_12_);enable-background:new    ;}
	.st10{fill:#9F5000;}
	.st11{clip-path:url(#SVGID_14_);enable-background:new    ;}
	.st12{fill:#8F4800;}
	.st13{fill:#8A4500;}
	.st14{fill:#A95500;}
	.st15{fill:#804000;}
	.st16{clip-path:url(#SVGID_16_);enable-background:new    ;}
	.st17{fill:#A35200;}
	.st18{clip-path:url(#SVGID_18_);enable-background:new    ;}
	.st19{clip-path:url(#SVGID_20_);enable-background:new    ;}
	.st20{fill:#9E4F00;}
	.st21{fill:#994D00;}
	.st22{clip-path:url(#SVGID_22_);enable-background:new    ;}
	.st23{clip-path:url(#SVGID_24_);enable-background:new    ;}
	.st24{fill:#DC6E00;}
	.st25{clip-path:url(#SVGID_26_);enable-background:new    ;}
	.st26{clip-path:url(#SVGID_28_);enable-background:new    ;}
	.st27{fill:#858585;}
	.st28{clip-path:url(#SVGID_30_);enable-background:new    ;}
	.st29{fill:#808080;}
	.st30{clip-path:url(#SVGID_32_);enable-background:new    ;}
	.st31{fill:#A3A3A3;}
	.st32{fill:#A8A8A8;}
	.st33{clip-path:url(#SVGID_34_);enable-background:new    ;}
	.st34{fill:#8A8A8A;}
	.st35{fill:#8F8F8F;}
	.st36{fill:#949494;}
	.st37{fill:#999999;}
	.st38{fill:#9E9E9E;}
	.st39{fill:#ABABAB;}
	.st40{fill:#A9A9A9;}
	.st41{clip-path:url(#SVGID_36_);enable-background:new    ;}
	.st42{clip-path:url(#SVGID_38_);enable-background:new    ;}
	.st43{clip-path:url(#SVGID_40_);enable-background:new    ;}
	.st44{clip-path:url(#SVGID_42_);enable-background:new    ;}
	.st45{fill:#DCDCDC;}
	.st46{clip-path:url(#SVGID_44_);enable-background:new    ;}
</style>
<g>
	<g>
		<g>
			<g class="st0">
				<g class="st0">
					<defs>
						<path id="SVGID_1_" class="st0" d="M208.2,245.2l-10.5-10c1-3,2-5.9,3-8.9l10.5,10C210.2,239.2,209.2,242.2,208.2,245.2z"/>
					</defs>
					<clipPath id="SVGID_2_">
						<use xlink:href="#SVGID_1_"  style="overflow:visible;"/>
					</clipPath>
					<g class="st1">
						<path class="st2" d="M208.2,245.2l-10.5-10c1-3,2-5.9,3-8.9l10.5,10C210.2,239.2,209.2,242.2,208.2,245.2"/>
					</g>
				</g>
				<g class="st0">
					<defs>
						<path id="SVGID_3_" class="st0" d="M189.5,254.6l-10.5-10c6.2-3.2,12.4-6.3,18.7-9.5l10.5,10
							C202,248.3,195.7,251.5,189.5,254.6z"/>
					</defs>
					<clipPath id="SVGID_4_">
						<use xlink:href="#SVGID_3_"  style="overflow:visible;"/>
					</clipPath>
					<g class="st3">
						<path class="st4" d="M189.5,254.6l-10.5-10c6.2-3.2,12.4-6.3,18.7-9.5l10.5,10C202,248.3,195.7,251.5,189.5,254.6"/>
					</g>
				</g>
				<g class="st0">
					<defs>
						<path id="SVGID_5_" class="st0" d="M211.2,236.3l-10.5-10c1.7-4.3,4.3-10.8,7-18.8c3.1-9,3.2-10.2,6-18.8
							c3.3-9.8,3.9-10.5,11-29.7c0.2-0.4,3-8.2,7-19.8c3.3-9.7,5-15,6.1-21.7l10.5,10c-1,6.7-2.7,12.1-6.1,21.7
							c-4,11.6-6.9,19.4-7,19.8c-7.1,19.3-7.8,19.9-11,29.7c-2.9,8.6-3,9.8-6,18.8C215.4,225.4,212.9,231.9,211.2,236.3z"/>
					</defs>
					<clipPath id="SVGID_6_">
						<use xlink:href="#SVGID_5_"  style="overflow:visible;"/>
					</clipPath>
					<g class="st5">
						<path class="st2" d="M211.2,236.3l-10.5-10c1.7-4.3,4.3-10.8,7-18.8c3.1-9,3.2-10.2,6-18.8c3.3-9.8,3.9-10.5,11-29.7
							c0.2-0.4,3-8.2,7-19.8c3.3-9.7,5-15,6.1-21.7l10.5,10c-1,6.7-2.7,12.1-6.1,21.7c-4,11.6-6.9,19.4-7,19.8
							c-7.1,19.3-7.8,19.9-11,29.7c-2.9,8.6-3,9.8-6,18.8C215.4,225.4,212.9,231.9,211.2,236.3"/>
					</g>
				</g>
				<g class="st0">
					<defs>
						<path id="SVGID_7_" class="st0" d="M107.4,252.6l-10.5-10c5.9,1.8,11.7,3.5,17.5,5.3l10.5,10
							C119.1,256.1,113.3,254.4,107.4,252.6z"/>
					</defs>
					<clipPath id="SVGID_8_">
						<use xlink:href="#SVGID_7_"  style="overflow:visible;"/>
					</clipPath>
					<g class="st6">
						<path class="st7" d="M107.4,252.6l-10.5-10c5.9,1.8,11.7,3.5,17.5,5.3l10.5,10C119.1,256.1,113.3,254.4,107.4,252.6"/>
					</g>
				</g>
				<g class="st0">
					<defs>
						<path id="SVGID_9_" class="st0" d="M125,257.9l-10.5-10c10.7-31,21.4-62.1,32.1-93.1l10.5,10
							C146.4,195.8,135.7,226.8,125,257.9z"/>
					</defs>
					<clipPath id="SVGID_10_">
						<use xlink:href="#SVGID_9_"  style="overflow:visible;"/>
					</clipPath>
					<g class="st8">
						<path class="st2" d="M125,257.9l-10.5-10c10.7-31,21.4-62.1,32.1-93.1l10.5,10C146.4,195.8,135.7,226.8,125,257.9"/>
					</g>
				</g>
				<g class="st0">
					<defs>
						<path id="SVGID_11_" class="st0" d="M228.1,69.1l10.5,10c0.9,0.9,1.7,1.7,2.3,2.4c1.3,1.4,6,6.9,7.7,15.4
							c0.6,3.1,0.7,5.9,0.9,10.7c0.1,3.5,0,6.5-0.1,8.8c0,0.5-0.3,5.7-1.1,10.8l-10.5-10c0.8-5.1,1.1-10.3,1.1-10.8
							c0.1-2.3,0.2-5.3,0.1-8.8c-0.1-4.8-0.2-7.6-0.9-10.7c-1.7-8.4-6.4-13.9-7.7-15.4C229.8,70.8,229,70,228.1,69.1z"/>
					</defs>
					<clipPath id="SVGID_12_">
						<use xlink:href="#SVGID_11_"  style="overflow:visible;"/>
					</clipPath>
					<g class="st9">
						<path class="st2" d="M248.4,127.3l-10.5-10c0.8-5.1,1.1-10.3,1.1-10.8c0.1-2.3,0.2-5.3,0.1-8.8c-0.1-4.8-0.2-7.6-0.9-10.7
							c-1.7-8.4-6.4-13.9-7.7-15.4c-0.6-0.7-1.4-1.6-2.3-2.4l10.5,10c0.9,0.9,1.7,1.7,2.3,2.4c1.3,1.4,6,6.9,7.7,15.4
							c0.6,3.1,0.7,5.9,0.9,10.7c0.1,3.5,0,6.5-0.1,8.8C249.4,117,249.1,122.2,248.4,127.3"/>
					</g>
				</g>
				<g>
					<polygon class="st10" points="181.1,104.2 170.6,94.2 173.6,93.1 184.1,103.1 					"/>
				</g>
				<g class="st0">
					<defs>
						<path id="SVGID_13_" class="st0" d="M184.1,103.1l-10.5-10c1-0.7,1.7-1.5,2-2c0.4-0.6,1.4-2.2,1-4c-0.2-0.9-0.7-1.6-1-1.9
							l10.5,10c0.3,0.4,0.8,1,1,1.9c0.4,1.8-0.6,3.3-1,4C185.7,101.6,185.1,102.4,184.1,103.1z"/>
					</defs>
					<clipPath id="SVGID_14_">
						<use xlink:href="#SVGID_13_"  style="overflow:visible;"/>
					</clipPath>
					<g class="st11">
						<path class="st12" d="M184.1,103.1l-10.5-10c0.1-0.1,0.2-0.1,0.2-0.2l10.5,10C184.2,103,184.2,103.1,184.1,103.1"/>
						<path class="st13" d="M184.3,103l-10.5-10c0.4-0.3,0.7-0.5,0.9-0.8l10.5,10C185,102.4,184.7,102.7,184.3,103"/>
						<path class="st2" d="M185.2,102.2l-10.5-10c0.4-0.4,0.7-0.8,0.8-1.1c0.4-0.6,1.4-2.2,1-4c-0.2-0.9-0.7-1.6-1-1.9l10.5,10
							c0.3,0.4,0.8,1,1,1.9c0.4,1.8-0.6,3.3-1,4C185.9,101.4,185.6,101.8,185.2,102.2"/>
					</g>
				</g>
				<g>
					<polygon class="st14" points="170.4,104.6 159.9,94.5 170.6,94.2 181.1,104.2 					"/>
				</g>
				<g>
					<polygon class="st15" points="207.5,217.8 196.9,207.8 159.9,94.5 170.4,104.6 					"/>
				</g>
				<g class="st0">
					<defs>
						<path id="SVGID_15_" class="st0" d="M123.5,105.2l-10.5-10c4.9,0.2,8.8,0.3,12.7,0.5l10.5,10
							C132.3,105.6,128.4,105.4,123.5,105.2z"/>
					</defs>
					<clipPath id="SVGID_16_">
						<use xlink:href="#SVGID_15_"  style="overflow:visible;"/>
					</clipPath>
					<g class="st16">
						<path class="st17" d="M123.5,105.2l-10.5-10c4.9,0.2,8.8,0.3,12.7,0.5l10.5,10C132.3,105.6,128.4,105.4,123.5,105.2"/>
					</g>
				</g>
				<g class="st0">
					<defs>
						<path id="SVGID_17_" class="st0" d="M121.6,104.3l-10.5-10c0.8,0.7,1.7,0.9,1.9,0.9l10.5,10
							C123.3,105.2,122.3,105.1,121.6,104.3z"/>
					</defs>
					<clipPath id="SVGID_18_">
						<use xlink:href="#SVGID_17_"  style="overflow:visible;"/>
					</clipPath>
					<g class="st18">
						<path class="st17" d="M121.6,104.3l-10.5-10c0.1,0.1,0.2,0.1,0.2,0.2l10.5,10C121.7,104.5,121.6,104.4,121.6,104.3"/>
						<path class="st7" d="M121.8,104.6l-10.5-10c0.7,0.5,1.4,0.6,1.6,0.7l10.5,10C123.2,105.2,122.5,105.1,121.8,104.6"/>
						<path class="st17" d="M123.5,105.2l-10.5-10c0,0,0,0,0,0L123.5,105.2C123.5,105.2,123.5,105.2,123.5,105.2"/>
					</g>
				</g>
				<g>
					<polygon class="st15" points="128.3,220.6 117.7,210.5 81.6,102.2 92.1,112.2 					"/>
				</g>
				<g>
					<polygon class="st15" points="92.1,112.2 81.6,102.2 80.7,99.3 91.2,109.3 					"/>
				</g>
				<g class="st0">
					<defs>
						<path id="SVGID_19_" class="st0" d="M94.9,87.4l10.5,10c0.2,0.2,0.3,0.3,0.5,0.5c0.2,0.3,0.7,1,1,1.9c0.2,0.7,0.5,1.8,0,2.9
							c-0.4,0.9-1.1,1.4-2,2c-0.9,0.6-1.7,0.9-2,1c-2.8,1.1-10.3,1.3-11.7,1.4l-10.5-10c1.5-0.1,8.9-0.3,11.7-1.4
							c0.3-0.1,1.1-0.4,2-1c0.9-0.6,1.6-1.1,2-2c0.5-1.2,0.2-2.3,0-2.9c-0.3-1-0.7-1.6-1-1.9C95.3,87.8,95.1,87.6,94.9,87.4z"/>
					</defs>
					<clipPath id="SVGID_20_">
						<use xlink:href="#SVGID_19_"  style="overflow:visible;"/>
					</clipPath>
					<g class="st19">
						<path class="st17" d="M91.2,107.3l-10.5-10c0.8,0,3.4-0.1,6-0.4l10.5,10C94.6,107.2,92,107.3,91.2,107.3"/>
						<path class="st20" d="M97.2,107l-10.5-10c1.7-0.2,3.4-0.4,4.7-0.7l10.5,10C100.7,106.6,98.9,106.8,97.2,107"/>
						<path class="st21" d="M102,106.2l-10.5-10c0.4-0.1,0.7-0.2,1-0.3c0,0,0.1,0,0.1,0l10.5,10c0,0-0.1,0-0.1,0
							C102.7,106.1,102.3,106.2,102,106.2"/>
						<path class="st4" d="M103.1,105.9l-10.5-10c0.2-0.1,0.6-0.2,1-0.5l10.5,10C103.6,105.7,103.3,105.8,103.1,105.9"/>
						<path class="st12" d="M104.1,105.4l-10.5-10c0.3-0.1,0.5-0.3,0.8-0.5c0.2-0.1,0.4-0.3,0.6-0.4l10.5,10
							c-0.2,0.1-0.4,0.3-0.6,0.4C104.6,105.1,104.3,105.3,104.1,105.4"/>
						<path class="st13" d="M105.5,104.5l-10.5-10c0.3-0.2,0.5-0.4,0.8-0.6l10.5,10C106,104.1,105.7,104.3,105.5,104.5"/>
						<path class="st2" d="M106.2,103.9l-10.5-10c0.3-0.3,0.5-0.6,0.7-1c0.5-1.2,0.2-2.3,0-2.9c-0.3-1-0.7-1.6-1-1.9
							c-0.2-0.2-0.3-0.4-0.5-0.5l10.5,10c0.2,0.2,0.3,0.3,0.5,0.5c0.2,0.3,0.7,1,1,1.9c0.2,0.7,0.5,1.8,0,2.9
							C106.7,103.3,106.5,103.6,106.2,103.9"/>
					</g>
				</g>
				<g class="st0">
					<defs>
						<path id="SVGID_21_" class="st0" d="M91.2,109.3l-10.5-10c0-0.7,0-1.3,0-2l10.5,10C91.2,108,91.2,108.6,91.2,109.3z"/>
					</defs>
					<clipPath id="SVGID_22_">
						<use xlink:href="#SVGID_21_"  style="overflow:visible;"/>
					</clipPath>
					<g class="st22">
						<path class="st2" d="M91.2,109.3l-10.5-10c0-0.7,0-1.3,0-2l10.5,10C91.2,108,91.2,108.6,91.2,109.3"/>
					</g>
				</g>
				<g class="st0">
					<defs>
						<path id="SVGID_23_" class="st0" d="M232.4,53.1l10.5,10c-22.2-21.1-52.7-33.6-86.5-32.4l-10.5-10
							C179.7,19.5,210.2,31.9,232.4,53.1z"/>
					</defs>
					<clipPath id="SVGID_24_">
						<use xlink:href="#SVGID_23_"  style="overflow:visible;"/>
					</clipPath>
					<g class="st23">
						<path class="st17" d="M156.4,30.7l-10.5-10c6-0.2,12,0,17.8,0.6l10.5,10C168.4,30.7,162.5,30.5,156.4,30.7"/>
						<path class="st7" d="M174.2,31.3l-10.5-10c22.3,2.4,42.6,10.9,59.3,23.7l10.5,10C216.8,42.2,196.5,33.7,174.2,31.3"/>
						<path class="st17" d="M233.5,55l-10.5-10c3.3,2.5,6.4,5.2,9.4,8.1l10.5,10C239.9,60.2,236.8,57.5,233.5,55"/>
					</g>
				</g>
				<g>
					<path class="st24" d="M156.4,30.7c68.6-2.4,123.6,51.3,123,120c-0.6,68.7-56.7,126.3-125.3,128.7c-68.6,2.4-123.6-51.3-123-120
						C31.8,90.7,87.8,33.1,156.4,30.7z M248.4,127.3c0.8-5.1,1.1-10.3,1.1-10.8c0.1-2.3,0.2-5.3,0.1-8.8c-0.1-4.8-0.2-7.6-0.9-10.7
						c-1.7-8.4-6.4-13.9-7.7-15.4c-2-2.2-5.2-5.8-10.7-7.5c-1.3-0.4-2.8-0.9-4.9-0.8c-7.1,0.2-11.7,6-12.8,7.3c-2.7,3.4-3.7,6.7-4,8
						c-0.9,3.6-0.5,6.4-0.1,8.8c0.8,4.9,2.6,8.4,4.8,12.6c2.2,4.1,2.6,3.9,5.8,9.6c2.2,3.9,3.5,6.2,4.8,9.6
						c1.4,3.7,2.5,6.6,2.8,10.7c0.1,1.7,0,2.1-0.1,11.8c0,1.2,0,2.3,0,2.9c-6.4,21.1-12.8,42.2-19.2,63.3l-37.1-113.2l10.8-0.4
						l2.9-1.1c1-0.7,1.7-1.5,2-2c0.4-0.6,1.4-2.2,1-4c-0.2-0.9-0.7-1.6-1-1.9l-1.9-0.9l-1,0l-57.7,2l-2,0.1c-1.1,0.3-1.7,0.8-2,1
						c-1.8,1.7-1.1,4.5-1,4.9c0.1,0.6,0.3,1.3,1,1.9c0.8,0.8,1.7,0.9,1.9,0.9c4.9,0.2,8.8,0.3,12.7,0.5l15.2,43.5l0,2l-23.1,69.3
						L92.1,112.2l-0.9-2.9c0-0.7,0-1.3,0-2c1.5-0.1,8.9-0.3,11.7-1.4c0.3-0.1,1.1-0.4,2-1c0.9-0.6,1.6-1.1,2-2
						c0.5-1.2,0.2-2.3,0-2.9c-0.3-1-0.7-1.6-1-1.9c-0.3-0.4-0.7-0.7-1-0.9c-0.7,0-1.3,0-2,0.1c-0.8,0-1.5,0.1-2.3,0.1
						c0,0-0.7,0-1.6,0.1c-1.4,0.1-14.4,0.9-32.3,2.1c-2.7,5.3-5.3,10.6-8,15.9c16.2,45.8,32.4,91.5,48.6,137.3
						c5.9,1.8,11.7,3.5,17.5,5.3c10.7-31,21.4-62.1,32.1-93.1c10.8,30,21.6,59.9,32.4,89.9c6.2-3.2,12.4-6.3,18.7-9.5
						c1-3,2-5.9,3-8.9c1.7-4.3,4.3-10.8,7-18.8c3.1-9,3.2-10.2,6-18.8c3.3-9.8,3.9-10.5,11-29.7c0.2-0.4,3-8.2,7-19.8
						C245.6,139.4,247.3,134,248.4,127.3"/>
				</g>
				<g class="st0">
					<defs>
						<path id="SVGID_25_" class="st0" d="M67.6,246.9l-10.5-10c-22.8-21.8-36.8-52.8-36.5-87.6C21.2,80.6,77.3,23,145.9,20.6
							l10.5,10c-68.6,2.4-124.7,60-125.3,128.7C30.8,194.2,44.8,225.2,67.6,246.9z"/>
					</defs>
					<clipPath id="SVGID_26_">
						<use xlink:href="#SVGID_25_"  style="overflow:visible;"/>
					</clipPath>
					<g class="st25">
						<path class="st2" d="M67.6,246.9l-10.5-10c-22.8-21.8-36.8-52.8-36.5-87.6c0.3-34.1,14.3-65.5,36.7-88.7l10.5,10
							c-22.4,23.2-36.4,54.6-36.7,88.7C30.8,194.2,44.8,225.2,67.6,246.9"/>
						<path class="st13" d="M67.9,70.6l-10.5-10c5-5.2,10.4-9.9,16.1-14.2l10.5,10C78.2,60.7,72.8,65.5,67.9,70.6"/>
						<path class="st12" d="M84,56.4l-10.5-10c4.8-3.6,9.8-6.9,15.1-9.8l10.5,10C93.8,49.6,88.8,52.8,84,56.4"/>
						<path class="st4" d="M99.1,46.6l-10.5-10c4.9-2.7,9.9-5.1,15.2-7.2l10.5,10C109,41.6,103.9,43.9,99.1,46.6"/>
						<path class="st21" d="M114.2,39.5l-10.5-10c5.3-2.1,10.7-3.8,16.2-5.2l10.5,10C124.9,35.7,119.5,37.4,114.2,39.5"/>
						<path class="st20" d="M130.4,34.3l-10.5-10c6.1-1.5,12.3-2.6,18.6-3.2l10.5,10C142.7,31.7,136.5,32.8,130.4,34.3"/>
						<path class="st17" d="M149.1,31.2l-10.5-10c2.4-0.2,4.9-0.4,7.3-0.5l10.5,10C154,30.8,151.5,30.9,149.1,31.2"/>
					</g>
				</g>
			</g>
		</g>
	</g>
	<g>
		<g>
			<g class="st0">
				<g class="st0">
					<defs>
						<path id="SVGID_27_" class="st0" d="M208.5,218l-10.5-10c6.4-21.1,12.8-42.2,19.2-63.3l10.5,10
							C221.3,175.8,214.9,196.9,208.5,218z"/>
					</defs>
					<clipPath id="SVGID_28_">
						<use xlink:href="#SVGID_27_"  style="overflow:visible;"/>
					</clipPath>
					<g class="st26">
						<path class="st27" d="M208.5,218l-10.5-10c6.4-21.1,12.8-42.2,19.2-63.3l10.5,10C221.3,175.8,214.9,196.9,208.5,218"/>
					</g>
				</g>
				<g class="st0">
					<defs>
						<path id="SVGID_29_" class="st0" d="M190.6,254.8l-10.5-10c-10.8-30-21.6-59.9-32.4-89.9l10.5,10
							C169,194.9,179.8,224.9,190.6,254.8z"/>
					</defs>
					<clipPath id="SVGID_30_">
						<use xlink:href="#SVGID_29_"  style="overflow:visible;"/>
					</clipPath>
					<g class="st28">
						<path class="st27" d="M190.6,254.8l-10.5-10c-10.8-30-21.6-59.9-32.4-89.9l10.5,10C169,194.9,179.8,224.9,190.6,254.8"/>
					</g>
				</g>
				<g>
					<polygon class="st29" points="129.3,220.7 118.8,210.7 141.9,141.4 152.5,151.4 					"/>
				</g>
				<g class="st0">
					<defs>
						<path id="SVGID_31_" class="st0" d="M229.2,69.3l10.5,10c-2-1.9-4.7-3.9-8.4-5c-1.3-0.4-2.8-0.9-5-0.8l-10.5-10
							c2.2-0.1,3.6,0.4,5,0.8C224.5,65.4,227.2,67.4,229.2,69.3z"/>
					</defs>
					<clipPath id="SVGID_32_">
						<use xlink:href="#SVGID_31_"  style="overflow:visible;"/>
					</clipPath>
					<g class="st30">
						<path class="st31" d="M226.4,73.5l-10.5-10c0.6,0,1.2,0,1.7,0.1l10.5,10C227.6,73.5,227,73.5,226.4,73.5"/>
						<path class="st32" d="M228.1,73.6l-10.5-10c1.3,0.1,2.3,0.4,3.2,0.7c2.6,0.8,4.7,2,6.4,3.4l10.5,10c-1.7-1.3-3.8-2.6-6.4-3.4
							C230.4,74,229.4,73.7,228.1,73.6"/>
						<path class="st31" d="M237.8,77.6l-10.5-10c0.7,0.5,1.3,1.1,1.9,1.7l10.5,10C239.1,78.8,238.5,78.2,237.8,77.6"/>
					</g>
				</g>
				<g>
					<polygon class="st29" points="152.5,151.4 141.9,141.4 142,139.4 152.5,149.5 					"/>
				</g>
				<g class="st0">
					<defs>
						<path id="SVGID_33_" class="st0" d="M227.7,154.7l-10.5-10c0-0.7,0-1.7,0-2.9c0.1-9.7,0.2-10,0.1-11.8
							c-0.3-4.1-1.4-6.9-2.8-10.7c-1.3-3.4-2.6-5.7-4.8-9.6c-3.2-5.7-3.6-5.5-5.8-9.6c-2.2-4.2-4-7.6-4.8-12.6
							c-0.4-2.4-0.8-5.2,0.1-8.8c0.3-1.3,1.2-4.6,4-8c1-1.3,5.7-7,12.7-7.3l10.5,10c-6.9,0.2-11.6,6-12.7,7.3c-2.7,3.4-3.7,6.7-4,8
							c-0.9,3.6-0.5,6.4-0.1,8.8c0.8,4.9,2.6,8.4,4.8,12.6c2.2,4.1,2.6,3.9,5.8,9.6c2.2,3.9,3.5,6.2,4.8,9.6
							c1.4,3.7,2.5,6.6,2.8,10.7c0.1,1.7,0,2.1-0.1,11.8C227.7,153,227.7,154,227.7,154.7z"/>
					</defs>
					<clipPath id="SVGID_34_">
						<use xlink:href="#SVGID_33_"  style="overflow:visible;"/>
					</clipPath>
					<g class="st33">
						<path class="st27" d="M227.7,154.7l-10.5-10c0-0.7,0-1.7,0-2.9c0.1-9.7,0.2-10,0.1-11.8c-0.3-4.1-1.4-6.9-2.8-10.7
							c-1.3-3.4-2.6-5.7-4.8-9.6c-3.2-5.7-3.6-5.5-5.8-9.6c-2.2-4.2-4-7.6-4.8-12.6c-0.4-2.4-0.8-5.2,0.1-8.8c0.3-1.3,1.2-4.6,4-8
							c0.3-0.3,0.8-1,1.5-1.7l10.5,10c-0.7,0.8-1.2,1.4-1.5,1.7c-2.7,3.4-3.7,6.7-4,8c-0.9,3.6-0.5,6.4-0.1,8.8
							c0.8,4.9,2.6,8.4,4.8,12.6c2.2,4.1,2.6,3.9,5.8,9.6c2.2,3.9,3.5,6.2,4.8,9.6c1.4,3.7,2.5,6.6,2.8,10.7c0.1,1.7,0,2.1-0.1,11.8
							C227.7,153,227.7,154,227.7,154.7"/>
						<path class="st34" d="M215.2,79.1l-10.5-10c0.7-0.7,1.6-1.6,2.7-2.4l10.5,10C216.8,77.5,215.9,78.3,215.2,79.1"/>
						<path class="st35" d="M217.9,76.7l-10.5-10c0.6-0.5,1.3-0.9,2.1-1.4l10.5,10C219.2,75.8,218.5,76.2,217.9,76.7"/>
						<path class="st36" d="M220,75.3l-10.5-10c0.6-0.3,1.2-0.6,1.9-0.9l10.5,10C221.2,74.7,220.6,75,220,75.3"/>
						<path class="st37" d="M221.8,74.5l-10.5-10c0.6-0.2,1.2-0.4,1.8-0.6l10.5,10C223,74,222.4,74.2,221.8,74.5"/>
						<path class="st38" d="M223.7,73.9l-10.5-10c0.6-0.2,1.3-0.3,2-0.3l10.5,10C224.9,73.6,224.3,73.7,223.7,73.9"/>
						<path class="st31" d="M225.6,73.5l-10.5-10c0.2,0,0.5,0,0.8,0l10.5,10C226.1,73.5,225.9,73.5,225.6,73.5"/>
					</g>
				</g>
				<g>
					<polygon class="st39" points="185.2,94.5 174.7,84.5 176.7,85.4 187.2,95.4 					"/>
				</g>
				<g>
					<polygon class="st40" points="184.3,94.5 173.7,84.5 174.7,84.5 185.2,94.5 					"/>
				</g>
				<g>
					<polygon class="st29" points="152.5,149.5 142,139.4 126.7,95.9 137.2,106 					"/>
				</g>
				<g>
					<polygon class="st40" points="126.6,96.5 116.1,86.5 173.7,84.5 184.3,94.5 					"/>
				</g>
				<g>
					<polygon class="st40" points="124.6,96.6 114.1,86.6 116.1,86.5 126.6,96.5 					"/>
				</g>
				<g class="st0">
					<defs>
						<path id="SVGID_35_" class="st0" d="M122.6,104.5l-10.5-10c0,0,0,0,0,0c-0.6-0.6-0.8-1.4-1-1.9c-0.1-0.5-0.8-3.2,1-4.9
							c0.3-0.3,0.9-0.8,2-1l10.5,10c-1.1,0.2-1.7,0.8-2,1c-1.8,1.7-1.1,4.5-1,4.9C121.8,103.2,122,103.9,122.6,104.5
							C122.6,104.5,122.6,104.5,122.6,104.5z"/>
					</defs>
					<clipPath id="SVGID_36_">
						<use xlink:href="#SVGID_35_"  style="overflow:visible;"/>
					</clipPath>
					<g class="st41">
						<path class="st27" d="M122.6,104.5l-10.5-10c0,0,0,0,0,0c-0.6-0.6-0.8-1.4-1-1.9c-0.1-0.5-0.7-3.1,0.9-4.8l10.5,10
							c-1.7,1.7-1,4.4-0.9,4.8C121.8,103.2,122,103.9,122.6,104.5C122.6,104.5,122.6,104.5,122.6,104.5"/>
						<path class="st34" d="M122.6,97.8l-10.5-10c0,0,0.1-0.1,0.1-0.1c0.1-0.1,0.2-0.2,0.4-0.3l10.5,10
							C122.9,97.5,122.8,97.6,122.6,97.8C122.6,97.7,122.6,97.7,122.6,97.8"/>
						<path class="st35" d="M123,97.3l-10.5-10c0.1-0.1,0.3-0.2,0.5-0.3l10.5,10C123.3,97.1,123.2,97.2,123,97.3"/>
						<path class="st36" d="M123.5,97L113,87c0.1-0.1,0.3-0.2,0.5-0.2l10.5,10C123.8,96.9,123.6,97,123.5,97"/>
						<path class="st37" d="M124,96.8l-10.5-10c0.2-0.1,0.4-0.1,0.6-0.2l10.5,10C124.4,96.7,124.2,96.7,124,96.8"/>
						<path class="st38" d="M124.6,96.6l-10.5-10c0,0,0,0,0.1,0L124.6,96.6C124.6,96.6,124.6,96.6,124.6,96.6"/>
					</g>
				</g>
				<g class="st0">
					<defs>
						<path id="SVGID_37_" class="st0" d="M96,87.6l10.5,10c-0.2-0.2-0.3-0.3-0.5-0.4l-10.5-10C95.7,87.3,95.8,87.5,96,87.6z"/>
					</defs>
					<clipPath id="SVGID_38_">
						<use xlink:href="#SVGID_37_"  style="overflow:visible;"/>
					</clipPath>
					<g class="st42">
						<path class="st32" d="M106.1,97.3l-10.5-10c0,0,0,0,0.1,0.1L106.1,97.3C106.1,97.3,106.1,97.3,106.1,97.3"/>
						<path class="st31" d="M106.1,97.3l-10.5-10c0.1,0.1,0.3,0.2,0.4,0.3l10.5,10C106.4,97.5,106.3,97.4,106.1,97.3"/>
					</g>
				</g>
				<g class="st0">
					<defs>
						<path id="SVGID_39_" class="st0" d="M108.5,252.8l-10.5-10C81.8,197,65.6,151.2,49.4,105.5l10.5,10
							C76.1,161.3,92.3,207,108.5,252.8z"/>
					</defs>
					<clipPath id="SVGID_40_">
						<use xlink:href="#SVGID_39_"  style="overflow:visible;"/>
					</clipPath>
					<g class="st43">
						<path class="st27" d="M108.5,252.8l-10.5-10C81.8,197,65.6,151.2,49.4,105.5l10.5,10C76.1,161.3,92.3,207,108.5,252.8"/>
					</g>
				</g>
				<g class="st0">
					<defs>
						<path id="SVGID_41_" class="st0" d="M67.9,99.6l-10.5-10c17.8-1.2,30.8-2.1,32.3-2.1c0.9,0,1.6-0.1,1.6-0.1
							c0.8,0,1.5-0.1,2.3-0.1c0.7,0,1.3,0,2-0.1l10.5,10c-0.7,0-1.3,0-2,0.1c-0.8,0-1.5,0.1-2.3,0.1c0,0-0.7,0-1.6,0.1
							C98.7,97.5,85.7,98.3,67.9,99.6z"/>
					</defs>
					<clipPath id="SVGID_42_">
						<use xlink:href="#SVGID_41_"  style="overflow:visible;"/>
					</clipPath>
					<g class="st44">
						<path class="st31" d="M67.9,99.6l-10.5-10c17.8-1.2,30.8-2.1,32.3-2.1c0.9,0,1.6-0.1,1.6-0.1c0.8,0,1.5-0.1,2.3-0.1
							c0.7,0,1.3,0,2-0.1l10.5,10c-0.7,0-1.3,0-2,0.1c-0.8,0-1.5,0.1-2.3,0.1c0,0-0.7,0-1.6,0.1C98.7,97.5,85.7,98.3,67.9,99.6"/>
					</g>
				</g>
				<g>
					<path class="st45" d="M226.4,73.5c2.2-0.1,3.6,0.4,5,0.8c5.4,1.7,8.7,5.2,10.7,7.5c1.3,1.4,6,6.9,7.7,15.4
						c0.6,3.1,0.7,5.9,0.9,10.7c0.1,3.5,0,6.5-0.1,8.8c0,0.5-0.3,5.7-1.1,10.8c-1,6.7-2.7,12.1-6.1,21.7c-4,11.6-6.9,19.4-7,19.8
						c-7.1,19.3-7.8,19.9-11,29.7c-2.9,8.6-2.9,9.8-6,18.8c-2.8,8-5.3,14.5-7,18.8c-1,3-2,5.9-3,8.9c-6.2,3.2-12.4,6.3-18.7,9.5
						c-10.8-30-21.6-59.9-32.4-89.9c-10.7,31-21.4,62.1-32.1,93.1c-5.8-1.8-11.7-3.5-17.5-5.3C92.3,207,76.1,161.3,60,115.5
						c2.7-5.3,5.3-10.6,8-15.9c17.8-1.2,30.8-2.1,32.3-2.1c0.9,0,1.6-0.1,1.6-0.1c0.8,0,1.5-0.1,2.3-0.1c0.7,0,1.3,0,2-0.1
						c0.3,0.2,0.6,0.5,1,0.9c0.2,0.3,0.7,1,1,1.9c0.2,0.7,0.5,1.8,0,2.9c-0.4,0.9-1.1,1.4-2,2c-0.9,0.6-1.7,0.9-2,1
						c-2.8,1.1-10.3,1.3-12.1,1.4c0.4,0.7,0.4,1.3,0.4,2l1,2.9l36.1,108.4l23.1-69.3l0-2L137.2,106c-3.9-0.2-7.8-0.4-11.7-0.6
						c-1.2,0-2.1-0.1-2.9-0.9c-0.6-0.6-0.8-1.4-1-1.9c-0.1-0.5-0.8-3.2,1-4.9c0.3-0.3,0.9-0.8,2-1l2-0.1l57.7-2l1,0l1.9,0.9
						c0.3,0.4,0.8,1,1,1.9c0.4,1.8-0.6,3.3-1,4c-0.3,0.5-0.9,1.3-2,2l-2.9,1.1l-10.8,0.4L208.5,218c6.4-21.1,12.8-42.2,19.2-63.3
						c0-0.7,0-1.7,0-2.9c0.1-9.7,0.2-10,0.1-11.8c-0.3-4.1-1.4-6.9-2.8-10.7c-1.3-3.4-2.6-5.7-4.8-9.6c-3.2-5.7-3.6-5.5-5.8-9.6
						c-2.2-4.2-4-7.6-4.8-12.6c-0.4-2.4-0.8-5.2,0.1-8.8c0.3-1.3,1.2-4.6,4-8C214.7,79.5,219.4,73.7,226.4,73.5z"/>
				</g>
				<g class="st0">
					<defs>
						<path id="SVGID_43_" class="st0" d="M60,115.5l-10.5-10c2.7-5.3,5.3-10.6,8-15.9l10.5,10C65.3,104.9,62.6,110.2,60,115.5z"/>
					</defs>
					<clipPath id="SVGID_44_">
						<use xlink:href="#SVGID_43_"  style="overflow:visible;"/>
					</clipPath>
					<g class="st46">
						<path class="st27" d="M60,115.5l-10.5-10c2.7-5.3,5.3-10.6,8-15.9l10.5,10C65.3,104.9,62.6,110.2,60,115.5"/>
					</g>
				</g>
			</g>
		</g>
	</g>
</g>
</svg>
