<?xml version="1.0" encoding="utf-8"?>
<!-- Generator: Adobe Illustrator 23.0.6, SVG Export Plug-In . SVG Version: 6.00 Build 0)  -->
<svg version="1.1" id="ai_x5F_icon" xmlns="http://www.w3.org/2000/svg" xmlns:xlink="http://www.w3.org/1999/xlink" x="0px"
	 y="0px" viewBox="0 0 300 300" style="enable-background:new 0 0 300 300;" xml:space="preserve">
<style type="text/css">
	.st0{enable-background:new    ;}
	.st1{fill:#A95500;}
	.st2{fill:#804000;}
	.st3{clip-path:url(#SVGID_2_);enable-background:new    ;}
	.st4{fill:#A35200;}
	.st5{fill:#A85400;}
	.st6{clip-path:url(#SVGID_4_);enable-background:new    ;}
	.st7{fill:#9E4F00;}
	.st8{fill:#994D00;}
	.st9{fill:#944A00;}
	.st10{fill:#8F4800;}
	.st11{fill:#8A4500;}
	.st12{fill:#854300;}
	.st13{fill:#DC6E00;}
	.st14{fill:#808080;}
	.st15{fill:#A9A9A9;}
	.st16{fill:#DCDCDC;}
	.st17{clip-path:url(#SVGID_6_);enable-background:new    ;}
	.st18{fill:#A3A3A3;}
	.st19{fill:#A8A8A8;}
	.st20{clip-path:url(#SVGID_8_);enable-background:new    ;}
	.st21{fill:#858585;}
	.st22{fill:#8A8A8A;}
	.st23{fill:#8F8F8F;}
	.st24{fill:#949494;}
	.st25{fill:#999999;}
	.st26{fill:#9E9E9E;}
</style>
<g>
	<g>
		<g>
			<g class="st0">
				<g>
					<polygon class="st1" points="192.9,201.7 182.4,191.6 202,190.9 212.5,201 					"/>
				</g>
				<g>
					<polygon class="st2" points="179.3,202.1 168.7,192.1 164,174.6 174.5,184.7 					"/>
				</g>
				<g>
					<polygon class="st1" points="156.8,202.9 146.2,192.9 168.7,192.1 179.3,202.1 					"/>
				</g>
				<g>
					<polygon class="st2" points="174.5,184.7 164,174.6 160.2,159.1 170.8,169.2 					"/>
				</g>
				<g>
					<polygon class="st2" points="212.5,201 202,190.9 202.7,106.7 213.3,116.8 					"/>
				</g>
				<g>
					<polygon class="st2" points="170.8,169.2 160.2,159.1 155.5,143.6 166,153.7 					"/>
				</g>
				<g>
					<polygon class="st2" points="166,153.7 155.5,143.6 151.7,132 162.2,142 					"/>
				</g>
				<g class="st0">
					<defs>
						<path id="SVGID_1_" class="st0" d="M195.4,103.3l-10.5-10c2.1,2,5,3.2,8.2,3.1l10.5,10C200.4,106.5,197.5,105.3,195.4,103.3z"
							/>
					</defs>
					<clipPath id="SVGID_2_">
						<use xlink:href="#SVGID_1_"  style="overflow:visible;"/>
					</clipPath>
					<g class="st3">
						<path class="st4" d="M195.4,103.3l-10.5-10c0.3,0.3,0.6,0.5,0.9,0.8l10.5,10C196,103.8,195.7,103.6,195.4,103.3"/>
						<path class="st5" d="M196.3,104l-10.5-10c1.6,1.2,3.5,2,5.6,2.2l10.5,10C199.8,106.1,197.9,105.3,196.3,104"/>
						<path class="st4" d="M201.9,106.3l-10.5-10c0.5,0.1,1.1,0.1,1.7,0.1l10.5,10C203,106.4,202.5,106.3,201.9,106.3"/>
					</g>
				</g>
				<g class="st0">
					<defs>
						<path id="SVGID_3_" class="st0" d="M201.5,75.9l10.5,10c2.2,2.1,3.5,5,3.5,8.3c-0.1,6.5-5.4,11.9-11.8,12.2l-10.5-10
							c6.5-0.2,11.8-5.7,11.8-12.2C204.9,80.9,203.6,77.9,201.5,75.9z"/>
					</defs>
					<clipPath id="SVGID_4_">
						<use xlink:href="#SVGID_3_"  style="overflow:visible;"/>
					</clipPath>
					<g class="st6">
						<path class="st4" d="M203.6,106.3l-10.5-10c0.2,0,0.5,0,0.7,0l10.5,10C204.1,106.3,203.8,106.3,203.6,106.3"/>
						<path class="st7" d="M204.3,106.3l-10.5-10c0.6-0.1,1.2-0.2,1.8-0.3l10.5,10C205.5,106.1,204.9,106.2,204.3,106.3"/>
						<path class="st8" d="M206,106l-10.5-10c0.5-0.1,1-0.3,1.5-0.5l10.5,10C207.1,105.7,206.6,105.9,206,106"/>
						<path class="st9" d="M207.6,105.5l-10.5-10c0.5-0.2,1-0.4,1.4-0.7l10.5,10C208.6,105.1,208.1,105.3,207.6,105.5"/>
						<path class="st10" d="M209,104.8l-10.5-10c0.5-0.3,1-0.6,1.4-0.9l10.5,10C210,104.3,209.5,104.6,209,104.8"/>
						<path class="st11" d="M210.4,103.9l-10.5-10c0.5-0.4,1.1-0.9,1.5-1.3l10.5,10C211.5,103.1,211,103.5,210.4,103.9"/>
						<path class="st12" d="M212,102.6l-10.5-10c2.1-2.2,3.4-5.2,3.5-8.4c0-3.3-1.3-6.2-3.5-8.3l10.5,10c2.2,2.1,3.5,5,3.5,8.3
							C215.4,97.4,214.1,100.4,212,102.6"/>
					</g>
				</g>
				<g>
					<polygon class="st1" points="89.3,205.3 78.8,195.2 99.3,194.5 109.9,204.6 					"/>
				</g>
				<g>
					<polygon class="st2" points="109.9,204.6 99.3,194.5 107.4,162.9 118,173 					"/>
				</g>
				<g>
					<polygon class="st1" points="118,173 107.4,162.9 138.7,161.8 149.2,171.9 					"/>
				</g>
				<g>
					<polygon class="st2" points="162.2,142 151.7,132 146.9,118.5 157.5,128.5 					"/>
				</g>
				<g>
					<polygon class="st2" points="157.5,128.5 146.9,118.5 144.1,108.8 154.6,118.8 					"/>
				</g>
				<g>
					<polygon class="st2" points="154.6,118.8 144.1,108.8 140.3,95.2 150.8,105.3 					"/>
				</g>
				<g>
					<polygon class="st13" points="123,155.2 134.2,108.8 144.5,154.4 					"/>
				</g>
				<g>
					<polygon class="st2" points="123,155.2 112.5,145.1 123.7,98.7 134.2,108.8 					"/>
				</g>
				<g>
					<polygon class="st2" points="150.8,105.3 140.3,95.2 135.6,79.7 146.1,89.8 					"/>
				</g>
				<g>
					<polygon class="st1" points="32.2,37.9 21.7,27.9 270,19.2 280.5,29.3 					"/>
				</g>
				<g>
					<path class="st13" d="M32.2,37.9l248.3-8.7l-2.2,242.8L30,280.8L32.2,37.9z M156.8,202.9l22.5-0.8l-4.7-17.5l-3.8-15.5
						l-4.7-15.5l-3.8-11.6l-4.8-13.5l-2.8-9.7l-3.8-13.6l-4.7-15.5l-23.5,0.8l-2,9.9l-25.2,84.1l-6.1,20.8l20.5-0.7L118,173
						l31.3-1.1l3.8,14.5L156.8,202.9 M212.5,201l0.8-84.2l-19.5,0.7l-0.8,84.2L212.5,201 M203.6,106.3c6.5-0.2,11.8-5.7,11.8-12.2
						c0.1-6.5-5.1-11.6-11.6-11.3C197.3,83.1,192,88.5,192,95C191.9,101.5,197.1,106.6,203.6,106.3"/>
				</g>
				<g>
					<polygon class="st2" points="30,280.8 19.5,270.7 21.7,27.9 32.2,37.9 					"/>
				</g>
			</g>
		</g>
	</g>
	<g>
		<g>
			<g class="st0">
				<g>
					<polygon class="st14" points="156.6,202.6 146.1,192.5 142.3,176 152.8,186.1 					"/>
				</g>
				<g>
					<polygon class="st14" points="152.8,186.1 142.3,176 138.5,161.5 149.1,171.5 					"/>
				</g>
				<g>
					<polygon class="st14" points="89.1,204.9 78.6,194.9 84.7,174.1 95.2,184.2 					"/>
				</g>
				<g>
					<polygon class="st15" points="122.8,154.8 112.3,144.8 133.8,144 144.3,154.1 					"/>
				</g>
				<g>
					<polygon class="st14" points="144.3,154.1 133.8,144 123.5,98.4 134,108.4 					"/>
				</g>
				<g>
					<polygon class="st14" points="95.2,184.2 84.7,174.1 109.9,90.1 120.4,100.1 					"/>
				</g>
				<g>
					<polygon class="st14" points="120.4,100.1 109.9,90.1 111.9,80.2 122.5,90.2 					"/>
				</g>
				<g>
					<path class="st16" d="M174.4,184.3l4.7,17.5l-22.5,0.8l-3.8-16.5l-3.8-14.5l-31.3,1.1l-5.1,19.7l-3,11.8l-20.5,0.7l6.1-20.8
						l25.2-84.1l2-9.9l23.5-0.8l4.7,15.5l3.8,13.6l2.8,9.7l4.8,13.5l3.8,11.6l4.7,15.5L174.4,184.3z M122.8,154.8l21.5-0.8
						L134,108.4L122.8,154.8"/>
				</g>
				<g>
					<polygon class="st15" points="122.5,90.2 111.9,80.2 135.4,79.4 145.9,89.4 					"/>
				</g>
			</g>
			<g class="st0">
				<g>
					<polygon class="st14" points="192.8,201.3 182.2,191.3 183,107.1 193.6,117.1 					"/>
				</g>
				<g>
					<polygon class="st15" points="193.6,117.1 183,107.1 202.6,106.4 213.1,116.4 					"/>
				</g>
				<g>
					<polygon class="st16" points="213.1,116.4 212.3,200.6 192.8,201.3 193.6,117.1 					"/>
				</g>
			</g>
			<g class="st0">
				<g class="st0">
					<defs>
						<path id="SVGID_5_" class="st0" d="M201.3,75.5l10.5,10c-2.1-2-5-3.2-8.2-3.1l-10.5-10C196.3,72.4,199.2,73.5,201.3,75.5z"/>
					</defs>
					<clipPath id="SVGID_6_">
						<use xlink:href="#SVGID_5_"  style="overflow:visible;"/>
					</clipPath>
					<g class="st17">
						<path class="st18" d="M203.6,82.5l-10.5-10c0.6,0,1.1,0,1.7,0.1l10.5,10C204.8,82.5,204.2,82.5,203.6,82.5"/>
						<path class="st19" d="M205.3,82.6l-10.5-10c2.1,0.2,4,1,5.6,2.2l10.5,10C209.3,83.6,207.4,82.8,205.3,82.6"/>
						<path class="st18" d="M210.9,84.8l-10.5-10c0.3,0.2,0.6,0.5,0.9,0.8l10.5,10C211.5,85.3,211.2,85.1,210.9,84.8"/>
					</g>
				</g>
				<g class="st0">
					<defs>
						<path id="SVGID_7_" class="st0" d="M195.3,102.9l-10.5-10c-2.2-2.1-3.5-5-3.5-8.3c0.1-6.5,5.4-11.9,11.8-12.2l10.5,10
							c-6.5,0.2-11.8,5.7-11.8,12.2C191.8,98,193.1,100.9,195.3,102.9z"/>
					</defs>
					<clipPath id="SVGID_8_">
						<use xlink:href="#SVGID_7_"  style="overflow:visible;"/>
					</clipPath>
					<g class="st20">
						<path class="st21" d="M195.3,102.9l-10.5-10c-2.2-2.1-3.5-5-3.5-8.3c0-3.2,1.4-6.2,3.5-8.4l10.5,10c-2.1,2.2-3.4,5.2-3.5,8.4
							C191.8,98,193.1,100.9,195.3,102.9"/>
						<path class="st22" d="M195.3,86.3l-10.5-10c0.5-0.5,1-0.9,1.5-1.3l10.5,10C196.3,85.3,195.7,85.8,195.3,86.3"/>
						<path class="st23" d="M196.8,84.9l-10.5-10c0.5-0.3,0.9-0.6,1.4-0.9l10.5,10C197.7,84.3,197.3,84.6,196.8,84.9"/>
						<path class="st24" d="M198.2,84l-10.5-10c0.5-0.3,0.9-0.5,1.4-0.7l10.5,10C199.2,83.5,198.7,83.8,198.2,84"/>
						<path class="st25" d="M199.7,83.3l-10.5-10c0.5-0.2,1-0.4,1.5-0.5l10.5,10C200.7,83,200.2,83.1,199.7,83.3"/>
						<path class="st26" d="M201.2,82.9l-10.5-10c0.6-0.1,1.2-0.2,1.8-0.3l10.5,10C202.4,82.6,201.8,82.7,201.2,82.9"/>
						<path class="st18" d="M202.9,82.6l-10.5-10c0.2,0,0.5,0,0.7,0l10.5,10C203.4,82.5,203.2,82.5,202.9,82.6"/>
					</g>
				</g>
				<g>
					<ellipse transform="matrix(0.69 -0.7238 0.7238 0.69 -5.133 176.5296)" class="st16" cx="203.5" cy="94.3" rx="12" ry="11.5"/>
				</g>
			</g>
		</g>
	</g>
</g>
</svg>
