<?xml version="1.0" encoding="utf-8"?>
<!-- Generator: Adobe Illustrator 23.0.6, SVG Export Plug-In . SVG Version: 6.00 Build 0)  -->
<svg version="1.1" id="php_x5F_icon" xmlns="http://www.w3.org/2000/svg" xmlns:xlink="http://www.w3.org/1999/xlink" x="0px"
	 y="0px" viewBox="0 0 300 300" style="enable-background:new 0 0 300 300;" xml:space="preserve">
<style type="text/css">
	.st0{enable-background:new    ;}
	.st1{clip-path:url(#SVGID_2_);enable-background:new    ;}
	.st2{fill:#A35200;}
	.st3{fill:#9E4F00;}
	.st4{fill:#994D00;}
	.st5{fill:#944A00;}
	.st6{fill:#8F4800;}
	.st7{fill:#8A4500;}
	.st8{fill:#854300;}
	.st9{fill:#A95500;}
	.st10{fill:#804000;}
	.st11{clip-path:url(#SVGID_4_);enable-background:new    ;}
	.st12{clip-path:url(#SVGID_6_);enable-background:new    ;}
	.st13{fill:#A85400;}
	.st14{clip-path:url(#SVGID_8_);enable-background:new    ;}
	.st15{fill:#DC6E00;}
	.st16{clip-path:url(#SVGID_10_);enable-background:new    ;}
	.st17{clip-path:url(#SVGID_12_);enable-background:new    ;}
	.st18{clip-path:url(#SVGID_14_);enable-background:new    ;}
	.st19{clip-path:url(#SVGID_16_);enable-background:new    ;}
	.st20{clip-path:url(#SVGID_18_);enable-background:new    ;}
	.st21{clip-path:url(#SVGID_20_);enable-background:new    ;}
	.st22{clip-path:url(#SVGID_22_);enable-background:new    ;}
	.st23{clip-path:url(#SVGID_24_);enable-background:new    ;}
	.st24{clip-path:url(#SVGID_26_);enable-background:new    ;}
	.st25{clip-path:url(#SVGID_28_);enable-background:new    ;}
	.st26{clip-path:url(#SVGID_30_);enable-background:new    ;}
	.st27{clip-path:url(#SVGID_32_);enable-background:new    ;}
	.st28{clip-path:url(#SVGID_34_);enable-background:new    ;}
	.st29{clip-path:url(#SVGID_36_);enable-background:new    ;}
	.st30{clip-path:url(#SVGID_38_);enable-background:new    ;}
	.st31{clip-path:url(#SVGID_40_);enable-background:new    ;}
	.st32{clip-path:url(#SVGID_42_);enable-background:new    ;}
	.st33{clip-path:url(#SVGID_44_);enable-background:new    ;}
	.st34{clip-path:url(#SVGID_46_);enable-background:new    ;}
	.st35{fill:#858585;}
	.st36{clip-path:url(#SVGID_48_);enable-background:new    ;}
	.st37{fill:#A3A3A3;}
	.st38{fill:#9E9E9E;}
	.st39{fill:#999999;}
	.st40{fill:#949494;}
	.st41{fill:#8F8F8F;}
	.st42{fill:#8A8A8A;}
	.st43{clip-path:url(#SVGID_50_);enable-background:new    ;}
	.st44{fill:#A8A8A8;}
	.st45{fill:#DCDCDC;}
	.st46{fill:#A9A9A9;}
	.st47{clip-path:url(#SVGID_52_);enable-background:new    ;}
	.st48{clip-path:url(#SVGID_54_);enable-background:new    ;}
	.st49{clip-path:url(#SVGID_56_);enable-background:new    ;}
	.st50{clip-path:url(#SVGID_58_);enable-background:new    ;}
	.st51{clip-path:url(#SVGID_60_);enable-background:new    ;}
	.st52{clip-path:url(#SVGID_62_);enable-background:new    ;}
	.st53{clip-path:url(#SVGID_64_);enable-background:new    ;}
	.st54{clip-path:url(#SVGID_66_);enable-background:new    ;}
	.st55{clip-path:url(#SVGID_68_);enable-background:new    ;}
	.st56{clip-path:url(#SVGID_70_);enable-background:new    ;}
	.st57{clip-path:url(#SVGID_72_);enable-background:new    ;}
	.st58{clip-path:url(#SVGID_74_);enable-background:new    ;}
</style>
<g>
	<g>
		<g>
			<g class="st0">
				<g class="st0">
					<defs>
						<path id="SVGID_1_" class="st0" d="M228.8,175l-10.5-10c1.9-0.1,4.3-0.4,6.9-1.2c11.6-3.7,19.6-14.9,21.7-24.3
							c0.6-2.7,1-6.1,1-6.9l10.5,10c-0.1,0.8-0.4,4.2-1,6.9c-2.2,9.3-10.2,20.6-21.7,24.3C233,174.6,230.7,174.9,228.8,175z"/>
					</defs>
					<clipPath id="SVGID_2_">
						<use xlink:href="#SVGID_1_"  style="overflow:visible;"/>
					</clipPath>
					<g class="st1">
						<path class="st2" d="M228.8,175l-10.5-10c0.4,0,0.9,0,1.3-0.1l10.5,10C229.6,174.9,229.2,175,228.8,175"/>
						<path class="st3" d="M230.1,174.9l-10.5-10c1.2-0.1,2.5-0.3,3.9-0.7l10.5,10C232.6,174.6,231.3,174.8,230.1,174.9"/>
						<path class="st4" d="M234,174.2l-10.5-10c0.5-0.1,1.1-0.3,1.6-0.5c0.6-0.2,1.2-0.4,1.7-0.6l10.5,10c-0.6,0.2-1.2,0.4-1.7,0.6
							C235.1,173.9,234.5,174.1,234,174.2"/>
						<path class="st5" d="M237.4,173.1l-10.5-10c1.1-0.4,2.2-1,3.3-1.6l10.5,10C239.6,172.2,238.5,172.7,237.4,173.1"/>
						<path class="st6" d="M240.7,171.6l-10.5-10c1.2-0.7,2.4-1.4,3.5-2.3l10.5,10C243.1,170.1,241.9,170.9,240.7,171.6"/>
						<path class="st7" d="M244.2,169.3l-10.5-10c1.5-1.1,2.8-2.3,4.1-3.6l10.5,10C247,167,245.7,168.2,244.2,169.3"/>
						<path class="st8" d="M248.3,165.7l-10.5-10c4.6-4.8,7.8-10.8,9-16.2c0.6-2.7,1-6.1,1-6.9l10.5,10c-0.1,0.8-0.4,4.2-1,6.9
							C256.1,154.9,253,160.8,248.3,165.7"/>
					</g>
				</g>
				<g>
					<polygon class="st9" points="206.3,175.8 195.8,165.7 218.3,164.9 228.8,175 					"/>
				</g>
				<g>
					<polygon class="st10" points="202.2,196.5 191.7,186.4 195.8,165.7 206.3,175.8 					"/>
				</g>
				<g class="st0">
					<defs>
						<path id="SVGID_3_" class="st0" d="M243.7,113.7l10.5,10c2,2,3.7,4.3,4.2,7.2c0.7,3.7,0,10.3-0.1,11.8l-10.5-10
							c0.1-1.4,0.8-8.1,0.1-11.8C247.4,118,245.8,115.6,243.7,113.7z"/>
					</defs>
					<clipPath id="SVGID_4_">
						<use xlink:href="#SVGID_3_"  style="overflow:visible;"/>
					</clipPath>
					<g class="st11">
						<path class="st8" d="M258.4,142.6l-10.5-10c0.1-1.4,0.8-8.1,0.1-11.8c-0.5-2.8-2.2-5.2-4.2-7.2l10.5,10c2,2,3.7,4.3,4.2,7.2
							C259.2,134.5,258.5,141.2,258.4,142.6"/>
					</g>
				</g>
				<g>
					<polygon class="st9" points="183.6,197.1 173.1,187.1 191.7,186.4 202.2,196.5 					"/>
				</g>
				<g class="st0">
					<defs>
						<path id="SVGID_5_" class="st0" d="M226.9,124.9l10.5,10c-1-0.9-2.4-1.5-4.4-2.2l-10.5-10C224.5,123.4,225.9,124,226.9,124.9z
							"/>
					</defs>
					<clipPath id="SVGID_6_">
						<use xlink:href="#SVGID_5_"  style="overflow:visible;"/>
					</clipPath>
					<g class="st12">
						<path class="st13" d="M233.1,132.7l-10.5-10c1.7,0.6,3,1.1,4,1.9l10.5,10C236.1,133.9,234.8,133.4,233.1,132.7"/>
						<path class="st2" d="M237,134.6l-10.5-10c0.1,0.1,0.3,0.2,0.4,0.3l10.5,10C237.3,134.8,237.2,134.7,237,134.6"/>
					</g>
				</g>
				<g class="st0">
					<defs>
						<path id="SVGID_7_" class="st0" d="M230.2,131.9l-10.5-10c1.5,0.3,2.8,0.8,2.9,0.9l10.5,10C233,132.7,231.6,132.2,230.2,131.9
							z"/>
					</defs>
					<clipPath id="SVGID_8_">
						<use xlink:href="#SVGID_7_"  style="overflow:visible;"/>
					</clipPath>
					<g class="st14">
						<path class="st13" d="M230.2,131.9l-10.5-10c1.5,0.3,2.8,0.8,2.9,0.9l10.5,10C233,132.7,231.6,132.2,230.2,131.9"/>
					</g>
				</g>
				<g>
					<path class="st15" d="M233.1,132.7c2.3,0.9,3.9,1.5,4.9,2.8c1,1.3,1,2.8,0.9,5.8c0,1.4-0.1,3.8-1,6.9c-1,3.2-2.6,5.4-3,6
						c-1,1.3-2,2.8-3.9,4c-1.4,0.9-2.9,1.3-5.9,2.2c-1.4,0.4-2.9,0.8-4.9,1.1c-1.4,0.2-3.2,0.5-5.3,0.5c-1.6,0.1-3.4,0-5.4-0.2
						c1.7-9.8,3.4-19.7,5.2-29.5c0.4-0.1,4.8-0.8,9.2-0.9c2.3-0.1,4.6,0,6.4,0.4C231.6,132.2,233,132.7,233.1,132.7z"/>
				</g>
				<g class="st0">
					<defs>
						<path id="SVGID_9_" class="st0" d="M209.4,162l-10.5-10c1.7-9.8,3.4-19.7,5.2-29.5l10.5,10C212.8,142.3,211.1,152.1,209.4,162
							z"/>
					</defs>
					<clipPath id="SVGID_10_">
						<use xlink:href="#SVGID_9_"  style="overflow:visible;"/>
					</clipPath>
					<g class="st16">
						<path class="st8" d="M209.4,162l-10.5-10c1.7-9.8,3.4-19.7,5.2-29.5l10.5,10C212.8,142.3,211.1,152.1,209.4,162"/>
					</g>
				</g>
				<g class="st0">
					<defs>
						<path id="SVGID_11_" class="st0" d="M214.5,132.4l-10.5-10c0.4-0.1,4.8-0.8,9.2-0.9c2.3-0.1,4.6,0,6.4,0.4l10.5,10
							c-1.8-0.4-4.1-0.5-6.4-0.4C219.3,131.6,214.9,132.3,214.5,132.4z"/>
					</defs>
					<clipPath id="SVGID_12_">
						<use xlink:href="#SVGID_11_"  style="overflow:visible;"/>
					</clipPath>
					<g class="st17">
						<path class="st3" d="M214.5,132.4l-10.5-10c0.3,0,2.5-0.4,5.4-0.7l10.5,10C217,132,214.8,132.4,214.5,132.4"/>
						<path class="st2" d="M219.9,131.7l-10.5-10c1.2-0.1,2.5-0.2,3.8-0.3c1.6-0.1,3.3,0,4.7,0.1l10.5,10c-1.5-0.2-3.1-0.2-4.7-0.1
							C222.4,131.5,221.1,131.6,219.9,131.7"/>
						<path class="st13" d="M228.4,131.6l-10.5-10c0.6,0.1,1.2,0.2,1.7,0.3l10.5,10C229.6,131.7,229,131.7,228.4,131.6"/>
					</g>
				</g>
				<g class="st0">
					<defs>
						<path id="SVGID_13_" class="st0" d="M164.8,178.2l-10.5-10c6.5-0.2,13-0.5,19.5-0.7l10.5,10
							C177.9,177.7,171.4,178,164.8,178.2z"/>
					</defs>
					<clipPath id="SVGID_14_">
						<use xlink:href="#SVGID_13_"  style="overflow:visible;"/>
					</clipPath>
					<g class="st18">
						<path class="st2" d="M164.8,178.2l-10.5-10c6.5-0.2,13-0.5,19.5-0.7l10.5,10C177.9,177.7,171.4,178,164.8,178.2"/>
					</g>
				</g>
				<g class="st0">
					<defs>
						<path id="SVGID_15_" class="st0" d="M177.9,113.9l10.5,10c0.4,0.4,0.9,0.9,1.3,1.5c0.8,1.2,1.5,2.6,1.9,4.8
							c0.8,4.4,0,8.2-0.1,8.8c-1.2,5.5-3.6,19.5-7.2,38.4l-10.5-10c3.6-18.9,6-32.9,7.2-38.4c0.1-0.6,0.9-4.4,0.1-8.8
							c-0.4-2.2-1.1-3.7-1.9-4.8C178.8,114.8,178.4,114.3,177.9,113.9z"/>
					</defs>
					<clipPath id="SVGID_16_">
						<use xlink:href="#SVGID_15_"  style="overflow:visible;"/>
					</clipPath>
					<g class="st19">
						<path class="st8" d="M184.4,177.5l-10.5-10c3.6-18.9,6-32.9,7.2-38.4c0.1-0.6,0.9-4.4,0.1-8.8c-0.4-2.2-1.1-3.7-1.9-4.8
							c-0.4-0.6-0.8-1.1-1.3-1.5l10.5,10c0.4,0.4,0.9,0.9,1.3,1.5c0.8,1.2,1.5,2.6,1.9,4.8c0.8,4.4,0,8.2-0.1,8.8
							C190.4,144.6,187.9,158.6,184.4,177.5"/>
					</g>
				</g>
				<g class="st0">
					<defs>
						<path id="SVGID_17_" class="st0" d="M123.8,178.6l-10.5-10c13.5-0.5,20.2-0.7,20.5-0.7l10.5,10
							C144,177.9,137.3,178.2,123.8,178.6z"/>
					</defs>
					<clipPath id="SVGID_18_">
						<use xlink:href="#SVGID_17_"  style="overflow:visible;"/>
					</clipPath>
					<g class="st20">
						<path class="st2" d="M123.8,178.6l-10.5-10c13.5-0.5,20.2-0.7,20.5-0.7l10.5,10C144,177.9,137.3,178.2,123.8,178.6"/>
					</g>
				</g>
				<g class="st0">
					<defs>
						<path id="SVGID_19_" class="st0" d="M160.5,124.8l10.5,10c-0.9-0.9-2.2-0.9-2.9-0.8c-1.3,0-3.8,0.1-7.2,0.2
							c-2.4,0.1-5.2,0.2-8.4,0.3l-10.5-10c3.2-0.2,6-0.3,8.4-0.3c3.4-0.1,5.9-0.2,7.2-0.2C158.3,124,159.6,124,160.5,124.8z"/>
					</defs>
					<clipPath id="SVGID_20_">
						<use xlink:href="#SVGID_19_"  style="overflow:visible;"/>
					</clipPath>
					<g class="st21">
						<path class="st2" d="M152.5,134.6l-10.5-10c3.2-0.2,6-0.3,8.4-0.3c3.4-0.1,5.9-0.2,7.2-0.2c0.2,0,0.6,0,0.9,0l10.5,10
							c-0.4,0-0.7,0-0.9,0c-1.3,0-3.8,0.1-7.2,0.2C158.6,134.3,155.7,134.4,152.5,134.6"/>
						<path class="st13" d="M169.1,134.1l-10.5-10c0.6,0.1,1.2,0.2,1.8,0.6l10.5,10C170.3,134.3,169.7,134.1,169.1,134.1"/>
						<path class="st2" d="M170.9,134.7l-10.5-10c0.1,0.1,0.1,0.1,0.2,0.2l10.5,10C171,134.8,170.9,134.7,170.9,134.7"/>
					</g>
				</g>
				<g class="st0">
					<defs>
						<path id="SVGID_21_" class="st0" d="M144.3,177.9l-10.5-10c0.1-0.8,2.8-15,8.2-43.4l10.5,10
							C147.2,162.9,144.4,177.2,144.3,177.9z"/>
					</defs>
					<clipPath id="SVGID_22_">
						<use xlink:href="#SVGID_21_"  style="overflow:visible;"/>
					</clipPath>
					<g class="st22">
						<path class="st8" d="M144.3,177.9l-10.5-10c0.1-0.8,2.8-15,8.2-43.4l10.5,10C147.2,162.9,144.4,177.2,144.3,177.9"/>
					</g>
				</g>
				<g class="st0">
					<defs>
						<path id="SVGID_23_" class="st0" d="M98.4,179.5l-10.5-10c1.9-0.1,4.3-0.4,6.9-1.2l10.5,10
							C102.6,179.1,100.3,179.4,98.4,179.5z"/>
					</defs>
					<clipPath id="SVGID_24_">
						<use xlink:href="#SVGID_23_"  style="overflow:visible;"/>
					</clipPath>
					<g class="st23">
						<path class="st2" d="M98.4,179.5l-10.5-10c0.4,0,0.9,0,1.3-0.1l10.5,10C99.2,179.5,98.8,179.5,98.4,179.5"/>
						<path class="st3" d="M99.7,179.4l-10.5-10c1.2-0.1,2.5-0.3,3.9-0.7l10.5,10C102.2,179.1,100.9,179.3,99.7,179.4"/>
						<path class="st4" d="M103.6,178.8l-10.5-10c0.5-0.1,1.1-0.3,1.7-0.5l10.5,10C104.7,178.5,104.1,178.6,103.6,178.8"/>
					</g>
				</g>
				<g class="st0">
					<defs>
						<path id="SVGID_25_" class="st0" d="M270.7,104.1l10.5,10c-3.1-3-7.3-6.4-12.7-10.1c-10.8-7.2-20.2-10.3-30.2-13.6
							c-9.3-3.1-16.9-4.6-32.2-7.7c-3.8-0.8-8.9-1.7-15.6-2.4c-4-0.4-7.4-0.6-9.8-0.6l-10.5-10c2.4,0.1,5.7,0.2,9.8,0.6
							c6.7,0.7,11.8,1.6,15.6,2.4c15.2,3.1,22.9,4.6,32.2,7.7c10,3.3,19.4,6.4,30.2,13.6C263.4,97.7,267.6,101.2,270.7,104.1z"/>
					</defs>
					<clipPath id="SVGID_26_">
						<use xlink:href="#SVGID_25_"  style="overflow:visible;"/>
					</clipPath>
					<g class="st24">
						<path class="st2" d="M180.8,79.8l-10.5-10c2.4,0.1,5.7,0.2,9.8,0.6c0.4,0,0.8,0.1,1.1,0.1l10.5,10c-0.4,0-0.7-0.1-1.1-0.1
							C186.5,80,183.1,79.8,180.8,79.8"/>
						<path class="st13" d="M191.7,80.5l-10.5-10c6.2,0.7,10.9,1.6,14.5,2.3c15.2,3.1,22.9,4.6,32.2,7.7c10,3.3,19.4,6.4,30.2,13.6
							c2.2,1.5,4.1,2.9,5.9,4.2l10.5,10c-1.8-1.4-3.7-2.8-5.9-4.2c-10.8-7.2-20.2-10.3-30.2-13.6c-9.3-3.1-16.9-4.6-32.2-7.7
							C202.6,82.1,197.8,81.2,191.7,80.5"/>
						<path class="st2" d="M274.4,108.3l-10.5-10c2.7,2.1,4.9,4,6.8,5.8l10.5,10C279.4,112.4,277.1,110.4,274.4,108.3"/>
					</g>
				</g>
				<g>
					<polygon class="st10" points="155.6,119.8 145.1,109.8 149.2,89.1 159.7,99.1 					"/>
				</g>
				<g>
					<polygon class="st9" points="75.9,180.3 65.4,170.3 87.8,169.5 98.4,179.5 					"/>
				</g>
				<g>
					<polygon class="st10" points="71.8,201 61.3,191 65.4,170.3 75.9,180.3 					"/>
				</g>
				<g class="st0">
					<defs>
						<path id="SVGID_27_" class="st0" d="M113.3,118.2l10.5,10c2,2,3.7,4.3,4.2,7.2c0.7,3.7,0,10.3-0.1,11.8
							c-0.1,0.8-0.4,4.2-1,6.9c-2.2,9.3-10.2,20.6-21.7,24.3l-10.5-10c11.6-3.7,19.6-14.9,21.7-24.3c0.6-2.7,1-6.1,1-6.9
							c0.1-1.4,0.8-8.1,0.1-11.8C117,122.5,115.4,120.2,113.3,118.2z"/>
					</defs>
					<clipPath id="SVGID_28_">
						<use xlink:href="#SVGID_27_"  style="overflow:visible;"/>
					</clipPath>
					<g class="st25">
						<path class="st4" d="M105.2,178.3l-10.5-10c0.6-0.2,1.2-0.4,1.7-0.6l10.5,10C106.4,177.9,105.8,178.1,105.2,178.3"/>
						<path class="st5" d="M107,177.7l-10.5-10c1.1-0.4,2.2-1,3.3-1.6l10.5,10C109.2,176.7,108.1,177.2,107,177.7"/>
						<path class="st6" d="M110.3,176.1l-10.5-10c1.2-0.7,2.4-1.4,3.5-2.3l10.5,10C112.7,174.7,111.5,175.4,110.3,176.1"/>
						<path class="st7" d="M113.8,173.8l-10.5-10c1.5-1.1,2.8-2.3,4.1-3.6l10.5,10C116.6,171.5,115.3,172.7,113.8,173.8"/>
						<path class="st8" d="M117.9,170.2l-10.5-10c4.6-4.8,7.8-10.8,9-16.1c0.6-2.7,1-6.1,1-6.9c0.1-1.4,0.8-8.1,0.1-11.8
							c-0.5-2.8-2.2-5.2-4.2-7.2l10.5,10c2,2,3.7,4.3,4.2,7.2c0.7,3.7,0,10.3-0.1,11.8c-0.1,0.8-0.4,4.2-1,6.9
							C125.7,159.4,122.5,165.4,117.9,170.2"/>
					</g>
				</g>
				<g>
					<polygon class="st9" points="53.2,201.7 42.7,191.6 61.3,191 71.8,201 					"/>
				</g>
				<g class="st0">
					<defs>
						<path id="SVGID_29_" class="st0" d="M96.5,129.5l10.5,10c-1-0.9-2.4-1.5-4.4-2.2l-10.5-10C94.1,128,95.5,128.5,96.5,129.5z"/>
					</defs>
					<clipPath id="SVGID_30_">
						<use xlink:href="#SVGID_29_"  style="overflow:visible;"/>
					</clipPath>
					<g class="st26">
						<path class="st13" d="M102.7,137.3l-10.5-10c1.7,0.6,3,1.1,4,1.9l10.5,10C105.7,138.4,104.4,137.9,102.7,137.3"/>
						<path class="st2" d="M106.6,139.2l-10.5-10c0.1,0.1,0.3,0.2,0.4,0.3l10.5,10C106.9,139.4,106.8,139.3,106.6,139.2"/>
					</g>
				</g>
				<g class="st0">
					<defs>
						<path id="SVGID_31_" class="st0" d="M99.7,136.4l-10.5-10c1.5,0.3,2.9,0.8,2.9,0.9l10.5,10
							C102.6,137.3,101.2,136.7,99.7,136.4z"/>
					</defs>
					<clipPath id="SVGID_32_">
						<use xlink:href="#SVGID_31_"  style="overflow:visible;"/>
					</clipPath>
					<g class="st27">
						<path class="st13" d="M99.7,136.4l-10.5-10c1.5,0.3,2.9,0.8,2.9,0.9l10.5,10C102.6,137.3,101.2,136.7,99.7,136.4"/>
					</g>
				</g>
				<g class="st0">
					<defs>
						<path id="SVGID_33_" class="st0" d="M84.1,137l-10.5-10c0.4-0.1,4.8-0.8,9.2-0.9c2.3-0.1,4.6,0,6.4,0.4l10.5,10
							c-1.8-0.4-4.1-0.5-6.4-0.4C88.9,136.2,84.5,136.9,84.1,137z"/>
					</defs>
					<clipPath id="SVGID_34_">
						<use xlink:href="#SVGID_33_"  style="overflow:visible;"/>
					</clipPath>
					<g class="st28">
						<path class="st3" d="M84.1,137l-10.5-10c0.3,0,2.5-0.4,5.4-0.7l10.5,10C86.6,136.5,84.4,136.9,84.1,137"/>
						<path class="st2" d="M89.5,136.3l-10.5-10c1.2-0.1,2.5-0.2,3.8-0.3c1.6-0.1,3.3,0,4.7,0.1l10.5,10c-1.5-0.2-3.1-0.2-4.7-0.1
							C92,136.1,90.7,136.2,89.5,136.3"/>
						<path class="st13" d="M98,136.1l-10.5-10c0.6,0.1,1.2,0.2,1.7,0.3l10.5,10C99.2,136.3,98.6,136.2,98,136.1"/>
					</g>
				</g>
				<g class="st0">
					<defs>
						<path id="SVGID_35_" class="st0" d="M78.9,166.5l-10.5-10c1.7-9.8,3.4-19.7,5.2-29.5l10.5,10
							C82.4,146.8,80.7,156.7,78.9,166.5z"/>
					</defs>
					<clipPath id="SVGID_36_">
						<use xlink:href="#SVGID_35_"  style="overflow:visible;"/>
					</clipPath>
					<g class="st29">
						<path class="st8" d="M78.9,166.5l-10.5-10c1.7-9.8,3.4-19.7,5.2-29.5l10.5,10C82.4,146.8,80.7,156.7,78.9,166.5"/>
					</g>
				</g>
				<g class="st0">
					<defs>
						<path id="SVGID_37_" class="st0" d="M29.9,194.6l-10.5-10c-1.8-1.7-3-3-3.6-3.7c-5.6-6.2-8.1-11.2-8.7-12.4
							c-2-4.1-3.2-7.9-3.8-10.6l10.5,10c0.7,2.7,1.8,6.5,3.8,10.6c0.6,1.2,3.1,6.2,8.7,12.4C27,191.6,28.2,192.9,29.9,194.6z"/>
					</defs>
					<clipPath id="SVGID_38_">
						<use xlink:href="#SVGID_37_"  style="overflow:visible;"/>
					</clipPath>
					<g class="st30">
						<path class="st8" d="M29.9,194.6l-10.5-10c-1.8-1.7-3-3-3.6-3.7c-5.6-6.2-8.1-11.2-8.7-12.4c-2-4.1-3.2-7.9-3.8-10.6l10.5,10
							c0.7,2.7,1.8,6.5,3.8,10.6c0.6,1.2,3.1,6.2,8.7,12.4C27,191.6,28.2,192.9,29.9,194.6"/>
					</g>
				</g>
				<g>
					<path class="st15" d="M297.5,142.2c0.7,3.4,1.3,9-0.1,15.7c-1.1,4.9-2.8,8.5-4,10.9c-1.3,2.5-4.3,8-10.9,15.1
						c-7.4,7.9-14.4,12.4-20.7,16.4c-3,1.9-11.9,7.4-24.5,12.6c-10.9,4.5-19.5,6.6-28.4,8.8c-14.2,3.5-28,5.8-28.8,6
						c-9.3,1-18.4,1.5-26.2,1.8c-15.6,0.5-25.7,0-26.2,0c-7.7-0.4-13-1.1-15.6-1.4c-2.4-0.3-11.9-1.7-24.4-5
						c-10.2-2.8-17.9-5.7-21.4-7.1c-9-3.6-16-6.3-24.3-11.9c-8.9-5.9-13.9-11.4-15.5-13.2c-5.6-6.2-8.1-11.2-8.7-12.4
						c-2-4.1-3.2-7.9-3.8-10.6c-1.3-6.8-0.5-12.3,0.1-15.7c1.2-5.5,3.2-9.5,5-12.9c2.9-5.5,6-9.7,8.4-12.5c0.3-0.3,0.9-0.9,1.5-1.5
						c3.4-3.5,12.2-12.2,24.6-19.5c5.2-3.1,9.7-4.9,18.6-8.5c2.3-0.9,10.4-4.2,21.6-7.6c6.4-1.9,12.8-3.9,21.6-5.7
						c7.1-1.4,13.2-2.2,17.6-2.6c16-0.6,31.9-1.1,47.9-1.7c2.4,0.1,5.7,0.2,9.8,0.6c6.7,0.7,11.8,1.6,15.6,2.4
						c15.2,3.1,22.9,4.6,32.2,7.7c10,3.3,19.4,6.4,30.2,13.6c8.9,6,14.3,11.4,17.5,15.1c0.2,0.3,4.8,5.7,8.7,13.4
						c1,2,1.6,3.6,1.9,4.8C297.1,139.3,297.4,141,297.5,142.2z M105.2,178.3c11.6-3.7,19.6-14.9,21.7-24.3c0.6-2.7,1-6.1,1-6.9
						c0.1-1.4,0.8-8.1,0.1-11.8c-1.7-8.8-13.8-13.2-16.5-14.1l-42,1.5c-5.5,26.3-10.9,52.6-16.4,78.9l18.6-0.6l4.1-20.7l22.5-0.8
						C100.3,179.4,102.6,179.1,105.2,178.3 M258.4,142.6c0.1-1.4,0.8-8.1,0.1-11.8c-1.7-8.8-13.8-13.2-16.5-14.1l-42,1.5
						c-5.4,26.3-10.9,52.6-16.4,78.9l18.6-0.6l4.1-20.7l22.5-0.8c1.9-0.1,4.3-0.4,6.9-1.2c11.6-3.7,19.6-14.9,21.7-24.3
						C258,146.8,258.3,143.4,258.4,142.6 M164.8,178.2c6.5-0.2,13-0.5,19.5-0.7c3.6-18.9,6-32.9,7.2-38.4c0.1-0.6,0.9-4.4,0.1-8.8
						c-0.4-2.2-1.1-3.7-1.9-4.8c-0.9-1.3-1.9-2-2.9-2.8c-1-0.8-2.6-2-4.9-2.8c-2.1-0.7-4.4-0.7-8.8-0.7c-0.7,0-1.4,0-2,0
						c-0.8,0-1.4,0.1-1.9,0.1l-9.8,0.3l-3.9,0.1l4.1-20.7c-6.5,0.2-13,0.5-19.5,0.7c-0.7,2.3-1.3,4.6-2,6.9
						c-0.7,4.3-1.4,8.5-2.1,12.8c-4.1,19.7-8.2,39.4-12.3,59.1c13.5-0.5,20.2-0.7,20.5-0.7c0.1-0.8,2.8-15,8.2-43.4
						c3.2-0.2,6-0.3,8.4-0.3c3.4-0.1,5.9-0.2,7.2-0.2c0.7,0,2,0,2.9,0.9c0.3,0.3,0.8,0.9,1,1.9c0,0.4,0,0.7,0,1
						C169.6,151.3,167.2,164.7,164.8,178.2"/>
				</g>
				<g>
					<path class="st15" d="M102.7,137.3c2.3,0.9,3.9,1.5,4.9,2.8c1,1.3,1,2.8,0.9,5.8c0,1.4-0.1,3.8-1,6.9c-1,3.2-2.6,5.4-3,6
						c-1,1.3-2,2.8-4,4c-1.4,0.9-2.9,1.3-5.9,2.2c-1.4,0.4-2.9,0.8-4.9,1.1c-1.4,0.2-3.2,0.5-5.3,0.5c-1.6,0.1-3.5,0-5.5-0.2
						c1.7-9.8,3.4-19.7,5.2-29.5c0.4-0.1,4.8-0.8,9.2-0.9c2.3-0.1,4.6,0,6.4,0.4C101.2,136.7,102.6,137.3,102.7,137.3z"/>
				</g>
				<g class="st0">
					<defs>
						<path id="SVGID_39_" class="st0" d="M132.9,81.4l-10.5-10c16-0.6,31.9-1.1,47.9-1.7l10.5,10C164.8,80.3,148.9,80.9,132.9,81.4
							z"/>
					</defs>
					<clipPath id="SVGID_40_">
						<use xlink:href="#SVGID_39_"  style="overflow:visible;"/>
					</clipPath>
					<g class="st31">
						<path class="st2" d="M132.9,81.4l-10.5-10c16-0.6,31.9-1.1,47.9-1.7l10.5,10C164.8,80.3,148.9,80.9,132.9,81.4"/>
					</g>
				</g>
				<g class="st0">
					<defs>
						<path id="SVGID_41_" class="st0" d="M13.8,167.8l-10.5-10C2,151,2.8,145.4,3.5,142.1c1.2-5.5,3.2-9.5,5-12.9
							c2.9-5.5,6-9.7,8.4-12.5l10.5,10c-2.4,2.8-5.6,7-8.4,12.5c-1.8,3.4-3.9,7.4-5,12.9C13.3,155.5,12.6,161,13.8,167.8z"/>
					</defs>
					<clipPath id="SVGID_42_">
						<use xlink:href="#SVGID_41_"  style="overflow:visible;"/>
					</clipPath>
					<g class="st32">
						<path class="st8" d="M13.8,167.8l-10.5-10C2,151,2.8,145.4,3.5,142.1c1.2-5.5,3.2-9.5,5-12.9c2.9-5.5,6-9.7,8.4-12.5l10.5,10
							c-2.4,2.8-5.6,7-8.4,12.5c-1.8,3.4-3.9,7.4-5,12.9C13.3,155.5,12.6,161,13.8,167.8"/>
					</g>
				</g>
				<g class="st0">
					<defs>
						<path id="SVGID_43_" class="st0" d="M27.4,126.7l-10.5-10c0.3-0.3,0.9-0.9,1.5-1.5c3.4-3.5,12.2-12.2,24.6-19.5
							c5.2-3.1,9.7-4.9,18.6-8.5c2.3-0.9,10.4-4.2,21.6-7.6c6.4-1.9,12.8-3.9,21.6-5.7c7.1-1.4,13.2-2.2,17.6-2.6l10.5,10
							c-4.4,0.4-10.5,1.2-17.6,2.6c-8.7,1.7-15.2,3.7-21.6,5.7c-11.1,3.4-19.3,6.7-21.6,7.6c-8.9,3.6-13.4,5.4-18.6,8.5
							c-12.4,7.2-21.2,16-24.6,19.5C28.3,125.8,27.7,126.4,27.4,126.7z"/>
					</defs>
					<clipPath id="SVGID_44_">
						<use xlink:href="#SVGID_43_"  style="overflow:visible;"/>
					</clipPath>
					<g class="st33">
						<path class="st7" d="M27.4,126.7l-10.5-10c0.3-0.3,0.9-0.9,1.5-1.5c2.4-2.4,7.4-7.5,14.5-12.7l10.5,10
							c-7.1,5.3-12.1,10.3-14.5,12.7C28.3,125.8,27.7,126.4,27.4,126.7"/>
						<path class="st6" d="M43.4,112.4l-10.5-10c3-2.3,6.4-4.5,10.1-6.7c0.5-0.3,1-0.6,1.5-0.9l10.5,10c-0.5,0.3-1,0.6-1.5,0.9
							C49.8,107.9,46.4,110.2,43.4,112.4"/>
						<path class="st5" d="M55,104.9l-10.5-10c4.6-2.6,9.1-4.3,17.1-7.6c0.4-0.2,1-0.4,1.7-0.7l10.5,10c-0.7,0.3-1.3,0.5-1.7,0.7
							C64.1,100.5,59.7,102.3,55,104.9"/>
						<path class="st4" d="M73.9,96.6l-10.5-10c3.5-1.4,10.7-4.1,19.9-6.9c4.3-1.3,8.6-2.6,13.7-3.9l10.5,10
							c-5.1,1.3-9.4,2.6-13.7,3.9C84.5,92.5,77.4,95.2,73.9,96.6"/>
						<path class="st3" d="M107.4,85.7l-10.5-10c2.4-0.6,5-1.2,7.8-1.7c7.1-1.4,13.2-2.2,17.6-2.6l10.5,10
							c-4.4,0.4-10.5,1.2-17.6,2.6C112.4,84.6,109.9,85.1,107.4,85.7"/>
					</g>
				</g>
			</g>
		</g>
	</g>
	<g>
		<g>
			<g class="st0">
				<g class="st0">
					<defs>
						<path id="SVGID_45_" class="st0" d="M226.6,124.8l10.5,10c0.2,0.2,0.3,0.4,0.5,0.6c1,1.3,1,2.8,0.9,5.8c0,1.4-0.1,3.8-1,6.9
							l-10.5-10c1-3.1,1-5.5,1-6.9c0-3,0-4.6-0.9-5.8C226.9,125.2,226.8,125,226.6,124.8z"/>
					</defs>
					<clipPath id="SVGID_46_">
						<use xlink:href="#SVGID_45_"  style="overflow:visible;"/>
					</clipPath>
					<g class="st34">
						<path class="st35" d="M237.5,148.1l-10.5-10c1-3.1,1-5.5,1-6.9c0-3,0-4.6-0.9-5.8c-0.2-0.2-0.3-0.4-0.5-0.6l10.5,10
							c0.2,0.2,0.3,0.4,0.5,0.6c1,1.3,1,2.8,0.9,5.8C238.5,142.6,238.5,145.1,237.5,148.1"/>
					</g>
				</g>
				<g class="st0">
					<defs>
						<path id="SVGID_47_" class="st0" d="M209,161.8l-10.5-10c2,0.2,3.8,0.2,5.5,0.2c2.1-0.1,3.9-0.3,5.3-0.5
							c2-0.3,3.5-0.8,4.9-1.1c3-0.8,4.5-1.3,5.9-2.2c1.9-1.2,3-2.7,3.9-4c0.4-0.6,2-2.8,3-6l10.5,10c-1,3.2-2.6,5.4-3,6
							c-1,1.3-2,2.8-3.9,4c-1.4,0.9-2.9,1.3-5.9,2.2c-1.4,0.4-2.9,0.8-4.9,1.1c-1.4,0.2-3.2,0.5-5.3,0.5
							C212.8,162.1,211,162,209,161.8z"/>
					</defs>
					<clipPath id="SVGID_48_">
						<use xlink:href="#SVGID_47_"  style="overflow:visible;"/>
					</clipPath>
					<g class="st36">
						<path class="st37" d="M209,161.8l-10.5-10c2,0.2,3.8,0.2,5.5,0.2c0.8,0,1.6-0.1,2.4-0.2l10.5,10c-0.7,0.1-1.5,0.1-2.4,0.2
							C212.8,162.1,211,162,209,161.8"/>
						<path class="st38" d="M216.8,161.9l-10.5-10c1.1-0.1,2.1-0.2,2.9-0.4c1-0.2,2-0.4,2.8-0.6l10.5,10c-0.8,0.2-1.8,0.4-2.8,0.6
							C218.9,161.6,217.9,161.7,216.8,161.9"/>
						<path class="st39" d="M222.6,160.9l-10.5-10c0.8-0.2,1.5-0.4,2.1-0.6c1.8-0.5,3.1-0.9,4.1-1.3l10.5,10c-1,0.4-2.3,0.8-4.1,1.3
							C224,160.5,223.3,160.7,222.6,160.9"/>
						<path class="st40" d="M228.8,159.1l-10.5-10c0.4-0.2,0.9-0.4,1.2-0.6l10.5,10C229.6,158.7,229.2,158.9,228.8,159.1"/>
						<path class="st41" d="M230,158.5l-10.5-10c0.2-0.1,0.4-0.2,0.6-0.3c0.2-0.1,0.4-0.3,0.6-0.4l10.5,10c-0.2,0.1-0.4,0.3-0.6,0.4
							C230.4,158.3,230.2,158.4,230,158.5"/>
						<path class="st42" d="M231.2,157.7l-10.5-10c0.5-0.4,1-0.8,1.4-1.2l10.5,10C232.2,156.9,231.7,157.3,231.2,157.7"/>
						<path class="st35" d="M232.6,156.5l-10.5-10c0.8-0.8,1.3-1.6,1.9-2.4c0.4-0.6,2-2.8,3-6l10.5,10c-1,3.2-2.6,5.4-3,6
							C233.9,154.9,233.3,155.7,232.6,156.5"/>
					</g>
				</g>
				<g class="st0">
					<defs>
						<path id="SVGID_49_" class="st0" d="M243.4,113.5l10.5,10c-4.3-4.1-10.4-6.3-12.3-6.9l-10.5-10
							C233,107.2,239.1,109.4,243.4,113.5z"/>
					</defs>
					<clipPath id="SVGID_50_">
						<use xlink:href="#SVGID_49_"  style="overflow:visible;"/>
					</clipPath>
					<g class="st43">
						<path class="st44" d="M241.7,116.7l-10.5-10c1.6,0.5,6.4,2.3,10.5,5.4l10.5,10C248.1,118.9,243.3,117.2,241.7,116.7"/>
						<path class="st37" d="M252.2,122.1l-10.5-10c0.6,0.5,1.2,1,1.8,1.5l10.5,10C253.4,123,252.8,122.5,252.2,122.1"/>
					</g>
				</g>
				<g>
					<path class="st45" d="M258.2,130.8c0.7,3.7,0,10.3-0.1,11.8c-0.1,0.8-0.4,4.2-1,6.9c-2.2,9.3-10.2,20.6-21.7,24.3
						c-2.6,0.8-4.9,1.1-6.8,1.2c-7.5,0.3-15,0.5-22.5,0.8l-4.1,20.7l-18.6,0.6c5.5-26.3,10.9-52.6,16.4-78.9l42-1.5
						C244.4,117.6,256.5,121.9,258.2,130.8z M237.5,148.1c1-3.1,1-5.5,1-6.9c0-3,0-4.6-0.9-5.8c-1-1.3-2.6-1.9-4.9-2.8
						c-0.1,0-1.5-0.5-2.9-0.9c-1.8-0.4-4.1-0.5-6.4-0.4c-4.4,0.2-8.8,0.9-9.2,0.9c-1.7,9.8-3.4,19.7-5.2,29.5c2,0.2,3.8,0.2,5.5,0.2
						c2.1-0.1,3.9-0.3,5.3-0.5c2-0.3,3.5-0.8,4.9-1.1c3-0.8,4.5-1.3,5.9-2.2c1.9-1.2,3-2.7,3.9-4
						C234.9,153.5,236.4,151.3,237.5,148.1"/>
				</g>
				<g>
					<polygon class="st46" points="199.6,118.1 189.1,108.1 231.1,106.6 241.7,116.7 					"/>
				</g>
				<g class="st0">
					<defs>
						<path id="SVGID_51_" class="st0" d="M183.3,197l-10.5-10c5.5-26.3,10.9-52.6,16.4-78.9l10.5,10
							C194.2,144.4,188.7,170.7,183.3,197z"/>
					</defs>
					<clipPath id="SVGID_52_">
						<use xlink:href="#SVGID_51_"  style="overflow:visible;"/>
					</clipPath>
					<g class="st47">
						<path class="st35" d="M183.3,197l-10.5-10c5.5-26.3,10.9-52.6,16.4-78.9l10.5,10C194.2,144.4,188.7,170.7,183.3,197"/>
					</g>
				</g>
				<g class="st0">
					<defs>
						<path id="SVGID_53_" class="st0" d="M164.5,178.1L154,168c2.4-13.5,4.8-26.9,7.2-40.4l10.5,10
							C169.3,151.2,166.9,164.6,164.5,178.1z"/>
					</defs>
					<clipPath id="SVGID_54_">
						<use xlink:href="#SVGID_53_"  style="overflow:visible;"/>
					</clipPath>
					<g class="st48">
						<path class="st35" d="M164.5,178.1L154,168c2.4-13.5,4.8-26.9,7.2-40.4l10.5,10C169.3,151.2,166.9,164.6,164.5,178.1"/>
					</g>
				</g>
				<g class="st0">
					<defs>
						<path id="SVGID_55_" class="st0" d="M160.2,124.7l10.5,10c0,0,0,0,0,0c0.3,0.3,0.8,0.9,1,1.9c0.1,0.4,0,0.7,0,1l-10.5-10
							c0-0.2,0.1-0.6,0-1C161.1,125.7,160.5,125,160.2,124.7C160.2,124.7,160.2,124.7,160.2,124.7z"/>
					</defs>
					<clipPath id="SVGID_56_">
						<use xlink:href="#SVGID_55_"  style="overflow:visible;"/>
					</clipPath>
					<g class="st49">
						<path class="st35" d="M171.7,137.7l-10.5-10c0-0.2,0.1-0.6,0-1c-0.1-1-0.7-1.7-1-1.9c0,0,0,0,0,0l10.5,10c0,0,0,0,0,0
							c0.3,0.3,0.8,0.9,1,1.9C171.8,137.1,171.7,137.5,171.7,137.7"/>
					</g>
				</g>
				<g class="st0">
					<defs>
						<path id="SVGID_57_" class="st0" d="M177.6,113.8l10.5,10c-0.5-0.5-1.1-0.9-1.6-1.3c-1-0.7-2.6-2-4.9-2.8
							c-2.1-0.7-4.4-0.7-8.8-0.7c-0.7,0-1.4,0-2,0c-0.8,0-1.4,0.1-1.9,0.1l-10.5-10c0.5,0,1.2-0.1,1.9-0.1c0.6,0,1.3,0,2,0
							c4.4-0.1,6.6-0.1,8.8,0.7c2.3,0.8,3.9,2,4.9,2.8C176.5,112.9,177.1,113.3,177.6,113.8z"/>
					</defs>
					<clipPath id="SVGID_58_">
						<use xlink:href="#SVGID_57_"  style="overflow:visible;"/>
					</clipPath>
					<g class="st50">
						<path class="st37" d="M168.9,119.2l-10.5-10c0.5,0,1.2-0.1,1.9-0.1c0.6,0,1.3,0,2,0c2.7,0,4.6-0.1,6.2,0.1l10.5,10
							c-1.6-0.2-3.5-0.1-6.2-0.1c-0.7,0-1.4,0-2,0C170.1,119.1,169.5,119.2,168.9,119.2"/>
						<path class="st44" d="M179,119.2l-10.5-10c1,0.1,1.8,0.3,2.6,0.6c2.3,0.8,3.9,2,4.9,2.8c0.1,0.1,0.2,0.1,0.2,0.2l10.5,10
							c-0.1-0.1-0.2-0.1-0.2-0.2c-1-0.7-2.6-2-4.9-2.8C180.8,119.4,180,119.3,179,119.2"/>
						<path class="st37" d="M186.7,122.7l-10.5-10c0.5,0.4,0.9,0.7,1.4,1.2l10.5,10C187.7,123.4,187.2,123,186.7,122.7"/>
					</g>
				</g>
				<g>
					<polygon class="st46" points="159.2,119.5 148.6,109.5 158.4,109.2 168.9,119.2 					"/>
				</g>
				<g>
					<polygon class="st46" points="155.3,119.7 144.7,109.6 148.6,109.5 159.2,119.5 					"/>
				</g>
				<g class="st0">
					<defs>
						<path id="SVGID_59_" class="st0" d="M123.4,178.5l-10.5-10c4.1-19.7,8.2-39.4,12.3-59.1l10.5,10
							C131.6,139.1,127.5,158.8,123.4,178.5z"/>
					</defs>
					<clipPath id="SVGID_60_">
						<use xlink:href="#SVGID_59_"  style="overflow:visible;"/>
					</clipPath>
					<g class="st51">
						<path class="st35" d="M123.4,178.5l-10.5-10c4.1-19.7,8.2-39.4,12.3-59.1l10.5,10C131.6,139.1,127.5,158.8,123.4,178.5"/>
					</g>
				</g>
				<g class="st0">
					<defs>
						<path id="SVGID_61_" class="st0" d="M96.2,129.4l10.5,10c0.2,0.2,0.3,0.4,0.5,0.6c1,1.3,1,2.8,0.9,5.8c0,1.4-0.1,3.8-1,6.9
							l-10.5-10c1-3.1,1-5.5,1-6.9c0-3,0-4.6-0.9-5.8C96.5,129.7,96.3,129.5,96.2,129.4z"/>
					</defs>
					<clipPath id="SVGID_62_">
						<use xlink:href="#SVGID_61_"  style="overflow:visible;"/>
					</clipPath>
					<g class="st52">
						<path class="st35" d="M107.1,152.7l-10.5-10c1-3.1,1-5.5,1-6.9c0-3,0-4.6-0.9-5.8c-0.2-0.2-0.3-0.4-0.5-0.6l10.5,10
							c0.2,0.2,0.3,0.4,0.5,0.6c1,1.3,1,2.8,0.9,5.8C108.1,147.2,108.1,149.6,107.1,152.7"/>
					</g>
				</g>
				<g class="st0">
					<defs>
						<path id="SVGID_63_" class="st0" d="M135.7,119.4l-10.5-10c0.7-4.3,1.4-8.5,2.1-12.8l10.5,10
							C137.1,110.8,136.4,115.1,135.7,119.4z"/>
					</defs>
					<clipPath id="SVGID_64_">
						<use xlink:href="#SVGID_63_"  style="overflow:visible;"/>
					</clipPath>
					<g class="st53">
						<path class="st35" d="M135.7,119.4l-10.5-10c0.7-4.3,1.4-8.5,2.1-12.8l10.5,10C137.1,110.8,136.4,115.1,135.7,119.4"/>
					</g>
				</g>
				<g class="st0">
					<defs>
						<path id="SVGID_65_" class="st0" d="M78.6,166.4l-10.5-10c2,0.2,3.8,0.2,5.5,0.2c2.1-0.1,3.9-0.3,5.3-0.5
							c2-0.3,3.5-0.8,4.9-1.1c3-0.8,4.5-1.3,5.9-2.2c1.9-1.2,3-2.7,4-4c0.4-0.6,2-2.8,3-6l10.5,10c-1,3.2-2.6,5.4-3,6
							c-1,1.3-2,2.8-4,4c-1.4,0.9-2.9,1.3-5.9,2.2c-1.4,0.4-2.9,0.8-4.9,1.1c-1.4,0.2-3.2,0.5-5.3,0.5
							C82.4,166.6,80.6,166.6,78.6,166.4z"/>
					</defs>
					<clipPath id="SVGID_66_">
						<use xlink:href="#SVGID_65_"  style="overflow:visible;"/>
					</clipPath>
					<g class="st54">
						<path class="st37" d="M78.6,166.4l-10.5-10c2,0.2,3.8,0.2,5.5,0.2c0.8,0,1.6-0.1,2.4-0.2l10.5,10c-0.7,0.1-1.5,0.1-2.4,0.2
							C82.4,166.6,80.6,166.6,78.6,166.4"/>
						<path class="st38" d="M86.4,166.4l-10.5-10c1.1-0.1,2.1-0.2,2.9-0.4c1-0.2,2-0.4,2.8-0.6l10.5,10c-0.8,0.2-1.8,0.4-2.8,0.6
							C88.5,166.2,87.5,166.3,86.4,166.4"/>
						<path class="st39" d="M92.2,165.4l-10.5-10c0.8-0.2,1.4-0.4,2.1-0.6c1.8-0.5,3.1-0.9,4.1-1.3l10.5,10c-1,0.4-2.3,0.8-4.1,1.3
							C93.6,165,92.9,165.2,92.2,165.4"/>
						<path class="st40" d="M98.3,163.6l-10.5-10c0.4-0.2,0.9-0.4,1.2-0.6l10.5,10C99.2,163.2,98.8,163.4,98.3,163.6"/>
						<path class="st41" d="M99.6,163l-10.5-10c0.2-0.1,0.4-0.2,0.6-0.3c0.2-0.1,0.4-0.3,0.6-0.4l10.5,10c-0.2,0.2-0.4,0.3-0.6,0.4
							C99.9,162.8,99.8,162.9,99.6,163"/>
						<path class="st42" d="M100.8,162.3l-10.5-10c0.5-0.4,1-0.8,1.4-1.3l10.5,10C101.8,161.4,101.3,161.9,100.8,162.3"/>
						<path class="st35" d="M102.2,161l-10.5-10c0.8-0.8,1.3-1.6,1.9-2.3c0.4-0.6,2-2.8,3-6l10.5,10c-1,3.2-2.6,5.4-3,6
							C103.5,159.4,102.9,160.2,102.2,161"/>
					</g>
				</g>
				<g class="st0">
					<defs>
						<path id="SVGID_67_" class="st0" d="M139.8,99.7l-10.5-10c6.5-0.2,13-0.5,19.5-0.7l10.5,10C152.8,99.2,146.3,99.4,139.8,99.7z
							"/>
					</defs>
					<clipPath id="SVGID_68_">
						<use xlink:href="#SVGID_67_"  style="overflow:visible;"/>
					</clipPath>
					<g class="st55">
						<path class="st37" d="M139.8,99.7l-10.5-10c6.5-0.2,13-0.5,19.5-0.7l10.5,10C152.8,99.2,146.3,99.4,139.8,99.7"/>
					</g>
				</g>
				<g class="st0">
					<defs>
						<path id="SVGID_69_" class="st0" d="M137.8,106.6l-10.5-10c0.7-2.3,1.3-4.6,2-6.9l10.5,10C139.1,102,138.5,104.3,137.8,106.6z
							"/>
					</defs>
					<clipPath id="SVGID_70_">
						<use xlink:href="#SVGID_69_"  style="overflow:visible;"/>
					</clipPath>
					<g class="st56">
						<path class="st35" d="M137.8,106.6l-10.5-10c0.7-2.3,1.3-4.6,2-6.9l10.5,10C139.1,102,138.5,104.3,137.8,106.6"/>
					</g>
				</g>
				<g>
					<path class="st45" d="M159.4,99l-4.1,20.7l3.9-0.1l9.8-0.3c0.5,0,1.2-0.1,1.9-0.1c0.6,0,1.3,0,2,0c4.4-0.1,6.6-0.1,8.8,0.7
						c2.3,0.8,3.9,2,4.9,2.8c1,0.8,2,1.6,2.9,2.8c0.8,1.2,1.5,2.6,1.9,4.8c0.8,4.4,0,8.2-0.1,8.8c-1.2,5.5-3.6,19.5-7.2,38.4
						c-6.5,0.2-13,0.5-19.5,0.7c2.4-13.5,4.8-26.9,7.2-40.4c0-0.2,0.1-0.6,0-1c-0.1-1-0.7-1.7-1-1.9c-0.9-0.9-2.3-0.9-2.9-0.9
						c-1.3,0-3.8,0.1-7.2,0.2c-2.4,0.1-5.2,0.2-8.4,0.3c-5.4,28.3-8.1,42.6-8.2,43.4c-0.4,0-7,0.2-20.5,0.7
						c4.1-19.7,8.2-39.4,12.3-59.1c0.7-4.3,1.4-8.5,2.1-12.8c0.7-2.3,1.3-4.6,2-6.9C146.3,99.4,152.8,99.2,159.4,99z"/>
				</g>
				<g class="st0">
					<defs>
						<path id="SVGID_71_" class="st0" d="M113,118.1l10.5,10c-4.3-4.1-10.4-6.3-12.3-6.9l-10.5-10C102.6,111.8,108.7,114,113,118.1
							z"/>
					</defs>
					<clipPath id="SVGID_72_">
						<use xlink:href="#SVGID_71_"  style="overflow:visible;"/>
					</clipPath>
					<g class="st57">
						<path class="st44" d="M111.3,121.2l-10.5-10c1.6,0.5,6.4,2.3,10.5,5.4l10.5,10C117.7,123.5,112.9,121.8,111.3,121.2"/>
						<path class="st37" d="M121.7,126.6l-10.5-10c0.6,0.5,1.2,1,1.8,1.5l10.5,10C123,127.6,122.4,127.1,121.7,126.6"/>
					</g>
				</g>
				<g class="st0">
					<defs>
						<path id="SVGID_73_" class="st0" d="M52.9,201.6l-10.5-10c5.5-26.3,10.9-52.6,16.4-78.9l10.5,10
							C63.8,149,58.3,175.3,52.9,201.6z"/>
					</defs>
					<clipPath id="SVGID_74_">
						<use xlink:href="#SVGID_73_"  style="overflow:visible;"/>
					</clipPath>
					<g class="st58">
						<path class="st35" d="M52.9,201.6l-10.5-10c5.5-26.3,10.9-52.6,16.4-78.9l10.5,10C63.8,149,58.3,175.3,52.9,201.6"/>
					</g>
				</g>
				<g>
					<path class="st45" d="M127.7,135.3c0.7,3.7,0,10.3-0.1,11.8c-0.1,0.8-0.4,4.2-1,6.9c-2.2,9.3-10.2,20.6-21.7,24.3
						c-2.6,0.8-4.9,1.1-6.9,1.2c-7.5,0.3-15,0.5-22.5,0.8l-4.1,20.7l-18.6,0.6c5.5-26.3,10.9-52.6,16.4-78.9l42-1.5
						C114,122.1,126.1,126.5,127.7,135.3z M107.1,152.7c1-3.1,1-5.5,1-6.9c0-3,0-4.6-0.9-5.8c-1-1.3-2.6-1.9-4.9-2.8
						c-0.1,0-1.5-0.5-2.9-0.9c-1.8-0.4-4.1-0.5-6.4-0.4c-4.4,0.2-8.8,0.9-9.2,0.9c-1.7,9.8-3.4,19.7-5.2,29.5c2,0.2,3.8,0.2,5.5,0.2
						c2.1-0.1,3.9-0.3,5.3-0.5c2-0.3,3.5-0.8,4.9-1.1c3-0.8,4.5-1.3,5.9-2.2c1.9-1.2,3-2.7,4-4C104.5,158.1,106,155.9,107.1,152.7"
						/>
				</g>
				<g>
					<polygon class="st46" points="69.2,122.7 58.7,112.6 100.7,111.2 111.3,121.2 					"/>
				</g>
			</g>
		</g>
	</g>
</g>
</svg>
