<?xml version="1.0" encoding="utf-8"?>
<!-- Generator: Adobe Illustrator 23.0.6, SVG Export Plug-In . SVG Version: 6.00 Build 0)  -->
<svg version="1.1" id="sass_x5F_icon" xmlns="http://www.w3.org/2000/svg" xmlns:xlink="http://www.w3.org/1999/xlink" x="0px"
	 y="0px" viewBox="0 0 300 300" style="enable-background:new 0 0 300 300;" xml:space="preserve">
<style type="text/css">
	.st0{enable-background:new    ;}
	.st1{clip-path:url(#SVGID_2_);enable-background:new    ;}
	.st2{fill:#A35200;}
	.st3{fill:#A85400;}
	.st4{fill:#9E4F00;}
	.st5{fill:#994D00;}
	.st6{fill:#944A00;}
	.st7{fill:#8F4800;}
	.st8{fill:#8A4500;}
	.st9{fill:#854300;}
	.st10{clip-path:url(#SVGID_4_);enable-background:new    ;}
	.st11{clip-path:url(#SVGID_6_);enable-background:new    ;}
	.st12{clip-path:url(#SVGID_8_);enable-background:new    ;}
	.st13{clip-path:url(#SVGID_10_);enable-background:new    ;}
	.st14{clip-path:url(#SVGID_12_);enable-background:new    ;}
	.st15{clip-path:url(#SVGID_14_);enable-background:new    ;}
	.st16{clip-path:url(#SVGID_16_);enable-background:new    ;}
	.st17{clip-path:url(#SVGID_18_);enable-background:new    ;}
	.st18{clip-path:url(#SVGID_20_);enable-background:new    ;}
	.st19{clip-path:url(#SVGID_22_);enable-background:new    ;}
	.st20{clip-path:url(#SVGID_24_);enable-background:new    ;}
	.st21{clip-path:url(#SVGID_26_);enable-background:new    ;}
	.st22{clip-path:url(#SVGID_28_);enable-background:new    ;}
	.st23{clip-path:url(#SVGID_30_);enable-background:new    ;}
	.st24{clip-path:url(#SVGID_32_);enable-background:new    ;}
	.st25{clip-path:url(#SVGID_34_);enable-background:new    ;}
	.st26{clip-path:url(#SVGID_36_);enable-background:new    ;}
	.st27{clip-path:url(#SVGID_38_);enable-background:new    ;}
	.st28{clip-path:url(#SVGID_40_);enable-background:new    ;}
	.st29{clip-path:url(#SVGID_42_);enable-background:new    ;}
	.st30{clip-path:url(#SVGID_44_);enable-background:new    ;}
	.st31{fill:#864400;}
	.st32{clip-path:url(#SVGID_46_);enable-background:new    ;}
	.st33{clip-path:url(#SVGID_48_);enable-background:new    ;}
	.st34{clip-path:url(#SVGID_50_);enable-background:new    ;}
	.st35{clip-path:url(#SVGID_52_);enable-background:new    ;}
	.st36{clip-path:url(#SVGID_54_);enable-background:new    ;}
	.st37{clip-path:url(#SVGID_56_);enable-background:new    ;}
	.st38{clip-path:url(#SVGID_58_);enable-background:new    ;}
	.st39{clip-path:url(#SVGID_60_);enable-background:new    ;}
	.st40{clip-path:url(#SVGID_62_);enable-background:new    ;}
	.st41{clip-path:url(#SVGID_64_);enable-background:new    ;}
	.st42{clip-path:url(#SVGID_66_);enable-background:new    ;}
	.st43{fill:#DC6E00;}
	.st44{clip-path:url(#SVGID_68_);enable-background:new    ;}
	.st45{clip-path:url(#SVGID_70_);enable-background:new    ;}
	.st46{fill:#858585;}
	.st47{fill:#8A8A8A;}
	.st48{fill:#8F8F8F;}
	.st49{clip-path:url(#SVGID_72_);enable-background:new    ;}
	.st50{fill:#A8A8A8;}
	.st51{fill:#A3A3A3;}
	.st52{fill:#9E9E9E;}
	.st53{fill:#999999;}
	.st54{fill:#949494;}
	.st55{clip-path:url(#SVGID_74_);enable-background:new    ;}
	.st56{clip-path:url(#SVGID_76_);enable-background:new    ;}
	.st57{clip-path:url(#SVGID_78_);enable-background:new    ;}
	.st58{clip-path:url(#SVGID_80_);enable-background:new    ;}
	.st59{clip-path:url(#SVGID_82_);enable-background:new    ;}
	.st60{clip-path:url(#SVGID_84_);enable-background:new    ;}
	.st61{clip-path:url(#SVGID_86_);enable-background:new    ;}
	.st62{clip-path:url(#SVGID_88_);enable-background:new    ;}
	.st63{clip-path:url(#SVGID_90_);enable-background:new    ;}
	.st64{clip-path:url(#SVGID_92_);enable-background:new    ;}
	.st65{clip-path:url(#SVGID_94_);enable-background:new    ;}
	.st66{clip-path:url(#SVGID_96_);enable-background:new    ;}
	.st67{clip-path:url(#SVGID_98_);enable-background:new    ;}
	.st68{clip-path:url(#SVGID_100_);enable-background:new    ;}
	.st69{clip-path:url(#SVGID_102_);enable-background:new    ;}
	.st70{clip-path:url(#SVGID_104_);enable-background:new    ;}
	.st71{clip-path:url(#SVGID_106_);enable-background:new    ;}
	.st72{clip-path:url(#SVGID_108_);enable-background:new    ;}
	.st73{fill:#DCDCDC;}
	.st74{clip-path:url(#SVGID_110_);enable-background:new    ;}
	.st75{clip-path:url(#SVGID_112_);enable-background:new    ;}
	.st76{fill:#878787;}
	.st77{clip-path:url(#SVGID_114_);enable-background:new    ;}
	.st78{clip-path:url(#SVGID_116_);enable-background:new    ;}
	.st79{clip-path:url(#SVGID_118_);enable-background:new    ;}
	.st80{clip-path:url(#SVGID_120_);enable-background:new    ;}
	.st81{clip-path:url(#SVGID_122_);enable-background:new    ;}
	.st82{clip-path:url(#SVGID_124_);enable-background:new    ;}
	.st83{clip-path:url(#SVGID_126_);enable-background:new    ;}
	.st84{clip-path:url(#SVGID_128_);enable-background:new    ;}
	.st85{clip-path:url(#SVGID_130_);enable-background:new    ;}
	.st86{fill:#A9A9A9;}
	.st87{clip-path:url(#SVGID_132_);enable-background:new    ;}
</style>
<g>
	<g>
		<g>
			<g class="st0">
				<g class="st0">
					<defs>
						<path id="SVGID_1_" class="st0" d="M239.7,186.1l-9.8-9.3c0,0,0,0,0,0c0.2,0.1,0.4,0.2,0.7,0.2c1.8-0.1,5.7-3,8.4-5.9l9.8,9.3
							c-2.7,3-6.6,5.9-8.4,5.9C240.1,186.4,239.9,186.3,239.7,186.1C239.7,186.2,239.7,186.1,239.7,186.1z"/>
					</defs>
					<clipPath id="SVGID_2_">
						<use xlink:href="#SVGID_1_"  style="overflow:visible;"/>
					</clipPath>
					<g class="st1">
						<path class="st2" d="M239.7,186.1l-9.8-9.3c0,0,0,0,0,0c0,0,0,0,0,0L239.7,186.1C239.8,186.2,239.7,186.2,239.7,186.1
							C239.7,186.2,239.7,186.1,239.7,186.1"/>
						<path class="st3" d="M239.8,186.2l-9.8-9.3c0.1,0.1,0.3,0.1,0.5,0.2l9.8,9.3C240,186.3,239.9,186.3,239.8,186.2"/>
						<path class="st2" d="M240.2,186.3l-9.8-9.3c0.1,0,0.1,0,0.2,0c0,0,0.1,0,0.1,0l9.8,9.3c0,0-0.1,0-0.1,0
							C240.4,186.4,240.3,186.4,240.2,186.3"/>
						<path class="st4" d="M240.5,186.3l-9.8-9.3c0.1,0,0.3,0,0.4-0.1l9.8,9.3C240.8,186.3,240.7,186.3,240.5,186.3"/>
						<path class="st5" d="M241,186.3l-9.8-9.3c0.2,0,0.4-0.1,0.6-0.2l9.8,9.3C241.4,186.2,241.1,186.2,241,186.3"/>
						<path class="st6" d="M241.6,186.1l-9.8-9.3c0.3-0.1,0.7-0.3,1.1-0.5l9.8,9.3C242.2,185.8,241.9,185.9,241.6,186.1"/>
						<path class="st7" d="M242.6,185.6l-9.8-9.3c0.7-0.4,1.4-0.8,2.1-1.4l9.8,9.3C244,184.7,243.3,185.2,242.6,185.6"/>
						<path class="st8" d="M244.7,184.2l-9.8-9.3c1.2-0.9,2.4-2,3.5-3.1l9.8,9.3C247.1,182.2,245.9,183.3,244.7,184.2"/>
						<path class="st9" d="M248.2,181.1l-9.8-9.3c0.2-0.2,0.4-0.4,0.6-0.7l9.8,9.3C248.7,180.6,248.4,180.9,248.2,181.1"/>
					</g>
				</g>
				<g class="st0">
					<defs>
						<path id="SVGID_3_" class="st0" d="M235.3,148.8l9.8,9.3c1,1,1.7,1.8,2.2,2.4c0.8,0.9,7.5,9.2,4.4,16.2
							c-0.6,1.3-1.3,2.1-2.8,3.7l-9.8-9.3c1.4-1.6,2.2-2.4,2.8-3.7c3.1-6.9-3.6-15.3-4.4-16.2C237,150.6,236.3,149.8,235.3,148.8z"
							/>
					</defs>
					<clipPath id="SVGID_4_">
						<use xlink:href="#SVGID_3_"  style="overflow:visible;"/>
					</clipPath>
					<g class="st10">
						<path class="st9" d="M248.9,180.4l-9.8-9.3c1.4-1.6,2.2-2.4,2.8-3.7c3.1-6.9-3.6-15.3-4.4-16.2c-0.5-0.6-1.2-1.4-2.2-2.4
							l9.8,9.3c1,1,1.7,1.8,2.2,2.4c0.8,0.9,7.5,9.2,4.4,16.2C251,178,250.3,178.8,248.9,180.4"/>
					</g>
				</g>
				<g class="st0">
					<defs>
						<path id="SVGID_5_" class="st0" d="M191,185.3l-9.8-9.3c0.9,0.8,2.4,1.2,4.3,1.1c4.8-0.2,11.7-3.1,14.7-8.3
							c3.8-6.7-1-13.5,2.9-16.4c0.6-0.4,1.1-0.6,1.8-0.6c1.5-0.1,4,0.4,9.9,0.2c2.2-0.1,3.4-0.2,4.3-0.2c0.9-0.1,1.5-0.2,2.1-0.2
							c0.5,0,1.1,0,1.8,0.1c4.9,0.8,8.2,3.4,9.9,5.1l9.8,9.3c-1.7-1.6-5-4.3-9.9-5.1c-0.8-0.1-1.3-0.2-1.8-0.1
							c-0.6,0-1.1,0.1-2.1,0.2c-0.9,0.1-2.1,0.2-4.3,0.2c-5.9,0.2-8.4-0.3-9.9-0.2c-0.8,0-1.3,0.2-1.8,0.6
							c-3.9,2.9,0.9,9.8-2.9,16.4c-3,5.1-9.9,8.1-14.7,8.3C193.4,186.5,191.8,186.1,191,185.3z"/>
					</defs>
					<clipPath id="SVGID_6_">
						<use xlink:href="#SVGID_5_"  style="overflow:visible;"/>
					</clipPath>
					<g class="st11">
						<path class="st2" d="M191,185.3l-9.8-9.3c0.1,0.1,0.1,0.1,0.2,0.2l9.8,9.3C191.1,185.4,191,185.3,191,185.3"/>
						<path class="st3" d="M191.2,185.5l-9.8-9.3c0.6,0.5,1.5,0.8,2.6,0.9l9.8,9.3C192.7,186.2,191.8,185.9,191.2,185.5"/>
						<path class="st2" d="M193.7,186.3L184,177c0.5,0.1,1,0.1,1.5,0c0.3,0,0.5,0,0.8-0.1l9.8,9.3c-0.3,0-0.5,0-0.8,0.1
							C194.7,186.4,194.2,186.4,193.7,186.3"/>
						<path class="st4" d="M196.1,186.3l-9.8-9.3c0.8-0.1,1.7-0.2,2.6-0.4l9.8,9.3C197.7,186.1,196.9,186.3,196.1,186.3"/>
						<path class="st5" d="M198.6,185.9l-9.8-9.3c0.9-0.2,1.8-0.5,2.7-0.9l9.8,9.3C200.4,185.4,199.5,185.7,198.6,185.9"/>
						<path class="st6" d="M201.3,185l-9.8-9.3c0.8-0.3,1.7-0.7,2.5-1.2l9.8,9.3C203,184.3,202.1,184.7,201.3,185"/>
						<path class="st7" d="M203.8,183.9l-9.8-9.3c0.8-0.4,1.5-0.9,2.2-1.4l9.8,9.3C205.3,183,204.5,183.4,203.8,183.9"/>
						<path class="st8" d="M206,182.4l-9.8-9.3c0.7-0.5,1.4-1.1,2-1.7l9.8,9.3C207.4,181.3,206.7,181.9,206,182.4"/>
						<path class="st9" d="M208,180.7l-9.8-9.3c0.7-0.8,1.4-1.6,1.9-2.6c3.6-6.4-0.6-12.9,2.4-16l9.8,9.3c-3,3.1,1.2,9.7-2.4,16
							C209.4,179.1,208.7,179.9,208,180.7"/>
						<path class="st8" d="M212.3,162.1l-9.8-9.3c0.1-0.1,0.3-0.3,0.5-0.4c0,0,0,0,0,0l9.8,9.3c0,0,0,0,0,0
							C212.6,161.8,212.5,162,212.3,162.1"/>
						<path class="st7" d="M212.8,161.7l-9.8-9.3c0.1-0.1,0.3-0.2,0.4-0.2l9.8,9.3C213.1,161.5,212.9,161.6,212.8,161.7"/>
						<path class="st6" d="M213.2,161.4l-9.8-9.3c0.1-0.1,0.2-0.1,0.3-0.1l9.8,9.3C213.4,161.3,213.3,161.4,213.2,161.4"/>
						<path class="st5" d="M213.5,161.3l-9.8-9.3c0.1,0,0.2-0.1,0.3-0.1l9.8,9.3C213.7,161.2,213.6,161.3,213.5,161.3"/>
						<path class="st4" d="M213.8,161.2l-9.8-9.3c0.2,0,0.3-0.1,0.5-0.1l9.8,9.3C214.2,161.1,214,161.2,213.8,161.2"/>
						<path class="st2" d="M214.3,161.1l-9.8-9.3c0.1,0,0.2,0,0.3,0c1.5-0.1,4,0.4,9.9,0.2c2.2-0.1,3.4-0.2,4.3-0.2c0,0,0.1,0,0.1,0
							l9.8,9.3c0,0-0.1,0-0.1,0c-0.9,0.1-2.1,0.2-4.3,0.2c-5.9,0.2-8.4-0.3-9.9-0.2C214.5,161.1,214.4,161.1,214.3,161.1"/>
						<path class="st4" d="M228.9,161l-9.8-9.3c0.4,0,0.8-0.1,1.1-0.1l9.8,9.3C229.7,161,229.4,161,228.9,161"/>
						<path class="st2" d="M230,160.9l-9.8-9.3c0.3,0,0.6-0.1,0.9-0.1c0.4,0,0.7,0,1.1,0l9.8,9.3c-0.4,0-0.8-0.1-1.1,0
							C230.6,160.9,230.4,160.9,230,160.9"/>
						<path class="st3" d="M232,160.9l-9.8-9.3c0.2,0,0.4,0.1,0.7,0.1c3.6,0.6,6.4,2.2,8.3,3.7l9.8,9.3c-1.9-1.5-4.6-3.1-8.3-3.7
							C232.5,161,232.2,160.9,232,160.9"/>
						<path class="st2" d="M241,164.7l-9.8-9.3c0.7,0.5,1.2,1,1.6,1.4l9.8,9.3C242.2,165.6,241.7,165.2,241,164.7"/>
					</g>
				</g>
				<g class="st0">
					<defs>
						<path id="SVGID_7_" class="st0" d="M194.2,158.3l9.8,9.3c-0.1-0.1-0.2-0.1-0.3-0.2l-9.8-9.3
							C194,158.2,194.1,158.2,194.2,158.3z"/>
					</defs>
					<clipPath id="SVGID_8_">
						<use xlink:href="#SVGID_7_"  style="overflow:visible;"/>
					</clipPath>
					<g class="st12">
						<path class="st3" d="M203.7,167.5l-9.8-9.3c0.1,0,0.2,0,0.2,0.1l9.8,9.3C203.8,167.5,203.8,167.5,203.7,167.5"/>
						<path class="st2" d="M203.9,167.6l-9.8-9.3c0,0,0,0,0.1,0.1L203.9,167.6C204,167.6,203.9,167.6,203.9,167.6"/>
					</g>
				</g>
				<g class="st0">
					<defs>
						<path id="SVGID_9_" class="st0" d="M197.2,178.5l-9.8-9.3c-0.5-0.5,0.1-2.8,1-4.5c0.9-1.8,1.4-1.5,3.7-4.7
							c0.8-1.1,1.3-1.9,1.7-1.9c0,0,0.1,0,0.1,0l9.8,9.3c0,0-0.1,0-0.1,0c-0.5,0-1,0.8-1.7,1.9c-2.3,3.2-2.7,2.8-3.7,4.7
							C197.3,175.8,196.7,178.1,197.2,178.5z"/>
					</defs>
					<clipPath id="SVGID_10_">
						<use xlink:href="#SVGID_9_"  style="overflow:visible;"/>
					</clipPath>
					<g class="st13">
						<path class="st9" d="M197.2,178.5l-9.8-9.3c-0.5-0.5,0.1-2.8,1-4.5c0.9-1.8,1.4-1.5,3.7-4.7c0.5-0.7,0.8-1.2,1.2-1.5l9.8,9.3
							c-0.3,0.3-0.7,0.9-1.2,1.5c-2.3,3.2-2.7,2.8-3.7,4.7C197.3,175.8,196.7,178.1,197.2,178.5"/>
						<path class="st8" d="M203,167.8l-9.8-9.3c0.1-0.1,0.1-0.1,0.2-0.2l9.8,9.3C203.1,167.7,203.1,167.7,203,167.8"/>
						<path class="st7" d="M203.2,167.6l-9.8-9.3c0,0,0.1-0.1,0.1-0.1l9.8,9.3C203.3,167.6,203.3,167.6,203.2,167.6"/>
						<path class="st6" d="M203.3,167.5l-9.8-9.3c0,0,0.1,0,0.1,0L203.3,167.5C203.4,167.5,203.4,167.5,203.3,167.5"/>
						<path class="st5" d="M203.4,167.5l-9.8-9.3c0,0,0,0,0.1,0L203.4,167.5C203.5,167.5,203.4,167.5,203.4,167.5"/>
						<path class="st4" d="M203.5,167.5l-9.8-9.3c0,0,0,0,0.1,0L203.5,167.5C203.5,167.5,203.5,167.5,203.5,167.5"/>
						<path class="st2" d="M203.6,167.5l-9.8-9.3c0,0,0,0,0,0c0,0,0,0,0.1,0L203.6,167.5C203.6,167.5,203.6,167.5,203.6,167.5
							C203.6,167.5,203.6,167.5,203.6,167.5"/>
						<path class="st3" d="M203.7,167.5l-9.8-9.3c0,0,0,0,0,0L203.7,167.5C203.7,167.5,203.7,167.5,203.7,167.5"/>
					</g>
				</g>
				<g class="st0">
					<defs>
						<path id="SVGID_11_" class="st0" d="M163.2,192.1l-9.8-9.3c1.4,1.3,3.7,1.6,5.8,1.6c2.1-0.1,4-0.5,4.6-0.7
							c5.3-1.3,12.8-5.5,14.6-12.3c1.5-5.6-2.5-7.2-1.7-14.5c0.9-7.9,6.5-14.8,8.9-14.9l9.8,9.3c-2.4,0.1-8,7-8.9,14.9
							c-0.8,7.3,3.2,8.8,1.7,14.5c-1.8,6.8-9.3,11-14.6,12.3c-0.6,0.1-2.5,0.6-4.6,0.7C166.9,193.8,164.6,193.5,163.2,192.1z"/>
					</defs>
					<clipPath id="SVGID_12_">
						<use xlink:href="#SVGID_11_"  style="overflow:visible;"/>
					</clipPath>
					<g class="st14">
						<path class="st2" d="M163.2,192.1l-9.8-9.3c0.1,0.1,0.2,0.2,0.3,0.3l9.8,9.3C163.4,192.3,163.3,192.2,163.2,192.1"/>
						<path class="st3" d="M163.5,192.4l-9.8-9.3c0.9,0.7,2.2,1.1,3.5,1.2l9.8,9.3C165.7,193.5,164.4,193.1,163.5,192.4"/>
						<path class="st2" d="M167,193.6l-9.8-9.3c0.7,0.1,1.3,0.1,2,0.1c0.4,0,0.8,0,1.1-0.1l9.8,9.3c-0.4,0-0.7,0.1-1.1,0.1
							C168.3,193.7,167.6,193.7,167,193.6"/>
						<path class="st4" d="M170.1,193.6l-9.8-9.3c1.7-0.2,3-0.5,3.5-0.6c0.1,0,0.1,0,0.2,0l9.8,9.3c-0.1,0-0.1,0-0.2,0
							C173.1,193.1,171.7,193.5,170.1,193.6"/>
						<path class="st5" d="M173.7,193l-9.8-9.3c0.9-0.2,1.8-0.5,2.8-0.9l9.8,9.3C175.5,192.5,174.6,192.8,173.7,193"/>
						<path class="st6" d="M176.5,192.1l-9.8-9.3c1-0.4,2-0.9,3-1.4l9.8,9.3C178.5,191.2,177.5,191.7,176.5,192.1"/>
						<path class="st7" d="M179.5,190.7l-9.8-9.3c0.9-0.5,1.8-1.1,2.7-1.7l9.8,9.3C181.3,189.6,180.4,190.2,179.5,190.7"/>
						<path class="st8" d="M182.2,188.9l-9.8-9.3c0.9-0.6,1.7-1.3,2.4-2.1l9.8,9.3C183.8,187.6,183,188.3,182.2,188.9"/>
						<path class="st9" d="M184.6,186.8l-9.8-9.3c1.7-1.7,3-3.8,3.6-6.1c1.5-5.6-2.5-7.2-1.7-14.5c0.6-5.4,3.5-10.4,6-13l9.8,9.3
							c-2.5,2.6-5.4,7.6-6,13c-0.8,7.3,3.2,8.8,1.7,14.5C187.5,183.1,186.2,185.1,184.6,186.8"/>
						<path class="st8" d="M192.4,153.3l-9.8-9.3c0.4-0.4,0.9-0.8,1.2-1.1l9.8,9.3C193.3,152.4,192.9,152.8,192.4,153.3"/>
						<path class="st7" d="M193.7,152.2l-9.8-9.3c0.2-0.2,0.4-0.3,0.6-0.4l9.8,9.3C194.1,151.8,193.9,152,193.7,152.2"/>
						<path class="st6" d="M194.3,151.7l-9.8-9.3c0.1-0.1,0.3-0.1,0.4-0.2l9.8,9.3C194.6,151.6,194.5,151.7,194.3,151.7"/>
						<path class="st5" d="M194.7,151.5l-9.8-9.3c0.1,0,0.2-0.1,0.3-0.1l9.8,9.3C194.9,151.5,194.8,151.5,194.7,151.5"/>
						<path class="st4" d="M195,151.4l-9.8-9.3c0.1,0,0.2,0,0.2,0l9.8,9.3C195.2,151.4,195.1,151.4,195,151.4"/>
						<path class="st2" d="M195.3,151.4l-9.8-9.3c0,0,0.1,0,0.1,0L195.3,151.4C195.3,151.4,195.3,151.4,195.3,151.4"/>
					</g>
				</g>
				<g class="st0">
					<defs>
						<path id="SVGID_13_" class="st0" d="M169.4,166.3l9.8,9.3c0,0,0,0-0.1,0L169.4,166.3C169.4,166.3,169.4,166.3,169.4,166.3z"/>
					</defs>
					<clipPath id="SVGID_14_">
						<use xlink:href="#SVGID_13_"  style="overflow:visible;"/>
					</clipPath>
					<g class="st15">
						<path class="st3" d="M179.1,175.6l-9.8-9.3c0,0,0,0,0,0L179.1,175.6C179.2,175.6,179.2,175.6,179.1,175.6"/>
						<path class="st2" d="M179.2,175.6l-9.8-9.3c0,0,0,0,0,0L179.2,175.6C179.2,175.6,179.2,175.6,179.2,175.6"/>
					</g>
				</g>
				<g class="st0">
					<defs>
						<path id="SVGID_15_" class="st0" d="M170.9,185.9l-9.8-9.3c0,0,0,0,0,0c-0.2-0.2,0.1-0.7,0.9-1.8c2.1-2.9,3.3-4,5.5-6.5
							c1.1-1.3,1.5-1.9,1.8-1.9c0,0,0,0,0.1,0l9.8,9.3c0,0,0,0-0.1,0c-0.3,0-0.7,0.6-1.8,1.9c-2.2,2.6-3.4,3.6-5.5,6.5
							C171,185.1,170.7,185.6,170.9,185.9C170.9,185.9,170.9,185.9,170.9,185.9z"/>
					</defs>
					<clipPath id="SVGID_16_">
						<use xlink:href="#SVGID_15_"  style="overflow:visible;"/>
					</clipPath>
					<g class="st16">
						<path class="st9" d="M170.9,185.9l-9.8-9.3c0,0,0,0,0,0c-0.2-0.2,0.1-0.7,0.9-1.8c2.1-2.9,3.3-4,5.5-6.5
							c0.7-0.8,1.1-1.3,1.4-1.6l9.8,9.3c-0.3,0.3-0.7,0.8-1.4,1.6c-2.2,2.6-3.4,3.6-5.5,6.5C171,185.1,170.7,185.6,170.9,185.9
							C170.9,185.9,170.9,185.9,170.9,185.9"/>
						<path class="st8" d="M178.7,175.9l-9.8-9.3c0.1-0.1,0.1-0.1,0.2-0.2l9.8,9.3C178.8,175.7,178.8,175.8,178.7,175.9"/>
						<path class="st7" d="M178.9,175.7l-9.8-9.3c0,0,0.1,0,0.1,0L178.9,175.7C178.9,175.6,178.9,175.6,178.9,175.7"/>
						<path class="st6" d="M179,175.6l-9.8-9.3c0,0,0,0,0,0L179,175.6C179,175.6,179,175.6,179,175.6"/>
						<path class="st5" d="M179,175.6l-9.8-9.3c0,0,0,0,0,0L179,175.6C179,175.6,179,175.6,179,175.6"/>
						<path class="st4" d="M179,175.6l-9.8-9.3c0,0,0,0,0,0L179,175.6C179.1,175.6,179.1,175.6,179,175.6"/>
						<path class="st2" d="M179.1,175.6l-9.8-9.3c0,0,0,0,0,0c0,0,0,0,0,0L179.1,175.6C179.1,175.6,179.1,175.6,179.1,175.6
							C179.1,175.6,179.1,175.6,179.1,175.6"/>
						<path class="st3" d="M179.1,175.6l-9.8-9.3c0,0,0,0,0,0L179.1,175.6C179.1,175.6,179.1,175.6,179.1,175.6"/>
					</g>
				</g>
				<g class="st0">
					<defs>
						<path id="SVGID_17_" class="st0" d="M186.1,142.3l9.8,9.3c-0.1-0.1-0.3-0.2-0.5-0.3l-9.8-9.3
							C185.8,142.1,186,142.2,186.1,142.3z"/>
					</defs>
					<clipPath id="SVGID_18_">
						<use xlink:href="#SVGID_17_"  style="overflow:visible;"/>
					</clipPath>
					<g class="st17">
						<path class="st3" d="M195.4,151.4l-9.8-9.3c0.2,0,0.3,0.1,0.4,0.2l9.8,9.3C195.7,151.5,195.5,151.4,195.4,151.4"/>
						<path class="st2" d="M195.8,151.6l-9.8-9.3c0,0,0.1,0,0.1,0.1L195.8,151.6C195.9,151.6,195.8,151.6,195.8,151.6"/>
					</g>
				</g>
				<g class="st0">
					<defs>
						<path id="SVGID_19_" class="st0" d="M208.2,156.3l-9.8-9.3c-0.8-0.8-1.1-1.7-1.7-3.5c-3.3-10.2,5.1-17.5,2-21.8
							c-0.2-0.2-0.3-0.4-0.5-0.6l9.8,9.3c0.2,0.2,0.4,0.4,0.5,0.6c3.1,4.3-5.3,11.7-2,21.8C207.1,154.6,207.4,155.6,208.2,156.3z"/>
					</defs>
					<clipPath id="SVGID_20_">
						<use xlink:href="#SVGID_19_"  style="overflow:visible;"/>
					</clipPath>
					<g class="st18">
						<path class="st9" d="M208.2,156.3l-9.8-9.3c-0.8-0.8-1.1-1.7-1.7-3.5c-3.3-10.2,5.1-17.5,2-21.8c-0.2-0.2-0.3-0.4-0.5-0.6
							l9.8,9.3c0.2,0.2,0.4,0.4,0.5,0.6c3.1,4.3-5.3,11.7-2,21.8C207.1,154.6,207.4,155.6,208.2,156.3"/>
					</g>
				</g>
				<g class="st0">
					<defs>
						<path id="SVGID_21_" class="st0" d="M143.6,195l-9.8-9.3c1.1,1,2.7,1.4,4.3,1.4c1,0,2.1-0.3,2.9-0.7c1.7-0.9,3.3-4,6.4-10.2
							c0.5-1,1.1-2.3,2.2-3.8c0.8-1.2,1.2-1.6,2.1-2.8c0.4-0.6,1.1-1.6,2.1-3.5c3.9-7.3,6.4-15.7,6.4-16.4l9.8,9.3
							c0,0.7-2.6,9.1-6.4,16.4c-1,1.9-1.7,3-2.1,3.5c-0.9,1.3-1.3,1.6-2.1,2.8c-1.1,1.6-1.7,2.8-2.2,3.8c-3.2,6.2-4.8,9.3-6.4,10.2
							c-0.9,0.4-1.9,0.7-2.9,0.7C146.4,196.4,144.7,196,143.6,195z"/>
					</defs>
					<clipPath id="SVGID_22_">
						<use xlink:href="#SVGID_21_"  style="overflow:visible;"/>
					</clipPath>
					<g class="st19">
						<path class="st2" d="M143.6,195l-9.8-9.3c0.1,0.1,0.2,0.1,0.3,0.2l9.8,9.3C143.8,195.1,143.7,195,143.6,195"/>
						<path class="st3" d="M143.9,195.2l-9.8-9.3c0.8,0.6,1.9,1,3,1.1l9.8,9.3C145.8,196.2,144.7,195.8,143.9,195.2"/>
						<path class="st2" d="M146.9,196.3l-9.8-9.3c0.4,0,0.7,0.1,1.1,0c0.1,0,0.3,0,0.4,0l9.8,9.3c-0.1,0-0.3,0-0.4,0
							C147.6,196.4,147.2,196.3,146.9,196.3"/>
						<path class="st4" d="M148.4,196.3l-9.8-9.3c0.4,0,0.7-0.1,1.1-0.2l9.8,9.3C149.1,196.2,148.8,196.3,148.4,196.3"/>
						<path class="st5" d="M149.5,196.1l-9.8-9.3c0.3-0.1,0.6-0.2,0.8-0.3l9.8,9.3C150.1,196,149.8,196.1,149.5,196.1"/>
						<path class="st6" d="M150.3,195.9l-9.8-9.3c0.2-0.1,0.4-0.2,0.5-0.2c0,0,0,0,0.1,0l9.8,9.3c0,0,0,0-0.1,0
							C150.7,195.7,150.5,195.8,150.3,195.9"/>
						<path class="st7" d="M150.9,195.6l-9.8-9.3c0.1-0.1,0.2-0.1,0.3-0.2l9.8,9.3C151.2,195.4,151.1,195.5,150.9,195.6"/>
						<path class="st8" d="M151.3,195.4l-9.8-9.3c0.2-0.1,0.4-0.3,0.5-0.5l9.8,9.3C151.7,195.1,151.5,195.2,151.3,195.4"/>
						<path class="st9" d="M151.8,194.9l-9.8-9.3c1.4-1.4,2.9-4.4,5.5-9.4c0.5-1,1.1-2.3,2.2-3.8c0.8-1.2,1.2-1.6,2.1-2.8
							c0.4-0.6,1.1-1.6,2.1-3.5c3.9-7.3,6.4-15.7,6.4-16.4l9.8,9.3c0,0.7-2.6,9.1-6.4,16.4c-1,1.9-1.7,3-2.1,3.5
							c-0.9,1.3-1.3,1.6-2.1,2.8c-1.1,1.6-1.7,2.8-2.2,3.8C154.7,190.4,153.2,193.4,151.8,194.9"/>
					</g>
				</g>
				<g class="st0">
					<defs>
						<path id="SVGID_23_" class="st0" d="M163.4,150l9.8,9.3c-0.4-0.4-0.8-0.7-1.1-0.7c-0.2,0-0.8-0.2-1.2-0.2
							c-0.3,0-0.5,0.1-0.6,0.4l-9.8-9.3c0.1-0.3,0.4-0.4,0.6-0.4c0.5,0,1,0.1,1.2,0.2C162.6,149.4,163,149.6,163.4,150z"/>
					</defs>
					<clipPath id="SVGID_24_">
						<use xlink:href="#SVGID_23_"  style="overflow:visible;"/>
					</clipPath>
					<g class="st20">
						<path class="st9" d="M170.2,158.8l-9.8-9.3c0-0.1,0.1-0.1,0.1-0.2l9.8,9.3C170.3,158.7,170.2,158.7,170.2,158.8"/>
						<path class="st8" d="M170.3,158.6l-9.8-9.3c0,0,0,0,0.1-0.1L170.3,158.6C170.4,158.6,170.3,158.6,170.3,158.6"/>
						<path class="st7" d="M170.4,158.6l-9.8-9.3c0,0,0,0,0.1,0L170.4,158.6C170.4,158.5,170.4,158.5,170.4,158.6"/>
						<path class="st6" d="M170.4,158.5l-9.8-9.3c0,0,0,0,0.1,0L170.4,158.5C170.5,158.5,170.5,158.5,170.4,158.5"/>
						<path class="st5" d="M170.5,158.5l-9.8-9.3c0,0,0.1,0,0.1,0L170.5,158.5C170.6,158.5,170.5,158.5,170.5,158.5"/>
						<path class="st4" d="M170.6,158.5l-9.8-9.3c0,0,0.1,0,0.1,0l9.8,9.3C170.7,158.4,170.6,158.5,170.6,158.5"/>
						<path class="st2" d="M170.7,158.4l-9.8-9.3c0,0,0.1,0,0.1,0c0.1,0,0.3,0,0.4,0l9.8,9.3C171.1,158.4,171,158.4,170.7,158.4
							C170.8,158.4,170.8,158.4,170.7,158.4"/>
						<path class="st3" d="M171.3,158.5l-9.8-9.3c0.3,0,0.6,0.1,0.8,0.1c0.2,0,0.4,0.2,0.7,0.4l9.8,9.3c-0.3-0.2-0.5-0.3-0.7-0.4
							C171.9,158.6,171.6,158.5,171.3,158.5"/>
						<path class="st2" d="M172.8,159l-9.8-9.3c0.1,0.1,0.3,0.2,0.4,0.3l9.8,9.3C173,159.2,172.9,159.1,172.8,159"/>
					</g>
				</g>
				<g class="st0">
					<defs>
						<path id="SVGID_25_" class="st0" d="M132.2,174.9l9.8,9.3c0,0-0.1,0-0.1,0L132.2,174.9C132.2,174.8,132.2,174.9,132.2,174.9z"
							/>
					</defs>
					<clipPath id="SVGID_26_">
						<use xlink:href="#SVGID_25_"  style="overflow:visible;"/>
					</clipPath>
					<g class="st21">
						<path class="st3" d="M141.9,184.1l-9.8-9.3c0,0,0,0,0,0L141.9,184.1C141.9,184.1,141.9,184.1,141.9,184.1"/>
						<path class="st2" d="M141.9,184.1l-9.8-9.3c0,0,0,0,0.1,0L141.9,184.1C142,184.2,141.9,184.1,141.9,184.1"/>
						<polyline class="st4" points="142,184.2 132.2,174.9 132.2,174.9 142,184.2 142,184.2 						"/>
					</g>
				</g>
				<g class="st0">
					<defs>
						<path id="SVGID_27_" class="st0" d="M172.2,128.7l9.8,9.3c0.1,0.1,0.2,0.2,0.3,0.3c4,4.6-5.5,16.8-1.1,20.9l-9.8-9.3
							c-4.4-4.1,5.1-16.3,1.1-20.9C172.4,128.9,172.3,128.8,172.2,128.7z"/>
					</defs>
					<clipPath id="SVGID_28_">
						<use xlink:href="#SVGID_27_"  style="overflow:visible;"/>
					</clipPath>
					<g class="st22">
						<path class="st9" d="M181.1,159.2l-9.8-9.3c-4.4-4.1,5.1-16.3,1.1-20.9c-0.1-0.1-0.2-0.2-0.3-0.3l9.8,9.3
							c0.1,0.1,0.2,0.2,0.3,0.3C186.2,142.9,176.7,155.1,181.1,159.2"/>
					</g>
				</g>
				<g class="st0">
					<defs>
						<path id="SVGID_29_" class="st0" d="M124.4,196.9l-9.8-9.3c0.6,0.6,1.2,1,2,1.4c0.4,0.2,2.2,1.2,4.3,1.1c0.7,0,1.3-0.1,2-0.4
							c0.6-0.2,2.3-1.1,5.5-7.5c2.2-4.4,3.1-7.4,3.7-7.4l9.8,9.3c-0.6,0-1.5,3-3.7,7.4c-3.2,6.4-4.9,7.2-5.5,7.5
							c-0.7,0.3-1.3,0.4-2,0.4c-2.1,0.1-4-0.9-4.3-1.1C125.7,197.9,125,197.4,124.4,196.9z"/>
					</defs>
					<clipPath id="SVGID_30_">
						<use xlink:href="#SVGID_29_"  style="overflow:visible;"/>
					</clipPath>
					<g class="st23">
						<path class="st2" d="M124.4,196.9l-9.8-9.3c0.2,0.2,0.5,0.4,0.7,0.6l9.8,9.3C124.9,197.3,124.7,197.1,124.4,196.9"/>
						<path class="st3" d="M125.2,197.5l-9.8-9.3c0.4,0.3,0.8,0.6,1.2,0.8c0.3,0.2,1.7,0.9,3.3,1.1l9.8,9.3c-1.7-0.2-3-0.9-3.3-1.1
							C126,198.1,125.6,197.8,125.2,197.5"/>
						<path class="st2" d="M129.7,199.4l-9.8-9.3c0.3,0,0.6,0,1,0c0.1,0,0.2,0,0.4,0l9.8,9.3c-0.1,0-0.2,0-0.4,0
							C130.4,199.4,130.1,199.4,129.7,199.4"/>
						<path class="st4" d="M131.1,199.4l-9.8-9.3c0.3,0,0.6-0.1,0.9-0.1l9.8,9.3C131.7,199.3,131.4,199.3,131.1,199.4"/>
						<path class="st5" d="M132,199.2l-9.8-9.3c0.2-0.1,0.5-0.1,0.7-0.2l9.8,9.3C132.4,199.1,132.2,199.2,132,199.2"/>
						<path class="st6" d="M132.7,199l-9.8-9.3c0,0,0,0,0.1,0c0.1,0,0.2-0.1,0.3-0.2l9.8,9.3C132.9,198.9,132.8,198.9,132.7,199
							C132.7,199,132.7,199,132.7,199"/>
						<path class="st7" d="M133,198.8l-9.8-9.3c0.1-0.1,0.3-0.1,0.4-0.3l9.8,9.3C133.3,198.7,133.2,198.8,133,198.8"/>
						<path class="st8" d="M133.4,198.6l-9.8-9.3c0.2-0.2,0.4-0.4,0.7-0.6l9.8,9.3C133.9,198.2,133.7,198.4,133.4,198.6"/>
						<path class="st9" d="M134.2,197.9l-9.8-9.3c0.9-1,2.2-2.8,4.1-6.4c1.9-3.9,2.9-6.6,3.4-7.3l9.8,9.3c-0.6,0.6-1.5,3.4-3.4,7.3
							C136.4,195.1,135.1,197,134.2,197.9"/>
						<path class="st8" d="M141.7,184.3l-9.8-9.3c0,0,0,0,0.1-0.1L141.7,184.3C141.7,184.2,141.7,184.2,141.7,184.3"/>
						<path class="st7" d="M141.7,184.2l-9.8-9.3c0,0,0,0,0,0L141.7,184.2C141.8,184.2,141.8,184.2,141.7,184.2"/>
						<path class="st6" d="M141.8,184.2l-9.8-9.3c0,0,0,0,0,0L141.8,184.2C141.8,184.2,141.8,184.2,141.8,184.2"/>
						<path class="st5" d="M141.8,184.2l-9.8-9.3c0,0,0,0,0,0L141.8,184.2C141.8,184.1,141.8,184.1,141.8,184.2"/>
						<path class="st4" d="M141.9,184.1l-9.8-9.3c0,0,0,0,0,0L141.9,184.1C141.9,184.1,141.9,184.1,141.9,184.1"/>
						<polyline class="st2" points="141.9,184.1 132.1,174.8 132.1,174.8 141.9,184.1 141.9,184.1 						"/>
					</g>
				</g>
				<g class="st0">
					<defs>
						<path id="SVGID_31_" class="st0" d="M152.6,180.8l-9.8-9.3c-0.3-0.3-0.5-1-0.6-1.6c-0.7-3.1,1.4-5.7,2.8-8.3
							c3.1-5.6,4-12.7,2.2-14.4l9.8,9.3c1.8,1.7,0.9,8.8-2.2,14.4c-1.4,2.6-3.5,5.2-2.8,8.3C152.1,179.9,152.2,180.5,152.6,180.8z"
							/>
					</defs>
					<clipPath id="SVGID_32_">
						<use xlink:href="#SVGID_31_"  style="overflow:visible;"/>
					</clipPath>
					<g class="st24">
						<path class="st9" d="M152.6,180.8l-9.8-9.3c-0.3-0.3-0.5-1-0.6-1.6c-0.7-3.1,1.4-5.7,2.8-8.3c3.1-5.6,4-12.7,2.2-14.4l9.8,9.3
							c1.8,1.7,0.9,8.8-2.2,14.4c-1.4,2.6-3.5,5.2-2.8,8.3C152.1,179.9,152.2,180.5,152.6,180.8"/>
					</g>
				</g>
				<g class="st0">
					<defs>
						<path id="SVGID_33_" class="st0" d="M134.5,145l9.8,9.3c-0.1-0.1-0.2-0.1-0.3-0.2l-9.8-9.3C134.3,144.9,134.4,144.9,134.5,145
							z"/>
					</defs>
					<clipPath id="SVGID_34_">
						<use xlink:href="#SVGID_33_"  style="overflow:visible;"/>
					</clipPath>
					<g class="st25">
						<path class="st3" d="M144,154.1l-9.8-9.3c0.1,0,0.1,0.1,0.2,0.1l9.8,9.3C144.1,154.2,144.1,154.2,144,154.1"/>
						<path class="st2" d="M144.2,154.2l-9.8-9.3c0,0,0.1,0,0.1,0.1L144.2,154.2C144.2,154.3,144.2,154.3,144.2,154.2"/>
					</g>
				</g>
				<g class="st0">
					<defs>
						<path id="SVGID_35_" class="st0" d="M151.2,156.5l-9.8-9.3c-0.7-0.7-0.4-1.8-0.8-4.4c-0.4-2.3-0.7-4.3-1.8-5.4l9.8,9.3
							c1.1,1,1.4,3.1,1.8,5.4C150.8,154.7,150.4,155.8,151.2,156.5z"/>
					</defs>
					<clipPath id="SVGID_36_">
						<use xlink:href="#SVGID_35_"  style="overflow:visible;"/>
					</clipPath>
					<g class="st26">
						<path class="st9" d="M151.2,156.5l-9.8-9.3c-0.7-0.7-0.4-1.8-0.8-4.4c-0.4-2.3-0.7-4.3-1.8-5.4l9.8,9.3c1.1,1,1.4,3.1,1.8,5.4
							C150.8,154.7,150.4,155.8,151.2,156.5"/>
					</g>
				</g>
				<g class="st0">
					<defs>
						<path id="SVGID_37_" class="st0" d="M130.8,184.3L121,175c-1.3-1.3-0.1-7.4,1.3-11.7c0.1-0.4,0.7-1.8,1.9-4.6
							c2.9-7.1,4.4-10.7,7.4-13c1.1-0.9,1.8-1.1,2.2-1.1c0.2,0,0.4,0,0.5,0.1l9.8,9.3c-0.1,0-0.3-0.1-0.5-0.1
							c-0.4,0-1.1,0.2-2.2,1.1c-2.9,2.3-4.5,5.8-7.4,13c-1.2,2.8-1.7,4.2-1.9,4.6C130.6,177,129.5,183.1,130.8,184.3z"/>
					</defs>
					<clipPath id="SVGID_38_">
						<use xlink:href="#SVGID_37_"  style="overflow:visible;"/>
					</clipPath>
					<g class="st27">
						<path class="st9" d="M130.8,184.3L121,175c-1.3-1.3-0.1-7.4,1.3-11.7c0.1-0.4,0.7-1.8,1.9-4.6c2.5-6.1,4-9.6,6.2-11.9l9.8,9.3
							c-2.2,2.3-3.7,5.8-6.2,11.9c-1.2,2.8-1.7,4.2-1.9,4.6C130.6,177,129.5,183.1,130.8,184.3"/>
						<path class="st8" d="M140.1,156.2l-9.8-9.3c0.4-0.4,0.8-0.7,1.2-1.1c0,0,0.1-0.1,0.1-0.1l9.8,9.3c0,0-0.1,0.1-0.1,0.1
							C140.9,155.5,140.5,155.8,140.1,156.2"/>
						<path class="st7" d="M141.4,155l-9.8-9.3c0.3-0.2,0.6-0.4,0.9-0.6l9.8,9.3C142,154.6,141.8,154.8,141.4,155"/>
						<path class="st6" d="M142.3,154.4l-9.8-9.3c0.2-0.1,0.4-0.2,0.5-0.2l9.8,9.3C142.7,154.3,142.5,154.3,142.3,154.4"/>
						<path class="st5" d="M142.8,154.2l-9.8-9.3c0.1-0.1,0.2-0.1,0.3-0.1l9.8,9.3C143.1,154.1,142.9,154.2,142.8,154.2"/>
						<path class="st4" d="M143.2,154.1l-9.8-9.3c0.1,0,0.2,0,0.3,0l9.8,9.3C143.4,154,143.3,154.1,143.2,154.1"/>
						<path class="st2" d="M143.4,154l-9.8-9.3c0,0,0.1,0,0.1,0c0.1,0,0.1,0,0.2,0l9.8,9.3C143.7,154,143.6,154,143.4,154
							C143.5,154,143.5,154,143.4,154"/>
						<path class="st3" d="M143.7,154l-9.8-9.3c0.1,0,0.2,0.1,0.3,0.1l9.8,9.3C143.9,154.1,143.8,154.1,143.7,154"/>
					</g>
				</g>
				<g class="st0">
					<defs>
						<path id="SVGID_39_" class="st0" d="M111.6,159.3l9.8,9.3c-0.1-0.1-0.1-0.1-0.2-0.1l-9.8-9.3
							C111.4,159.2,111.5,159.3,111.6,159.3z"/>
					</defs>
					<clipPath id="SVGID_40_">
						<use xlink:href="#SVGID_39_"  style="overflow:visible;"/>
					</clipPath>
					<g class="st28">
						<path class="st3" d="M121.1,168.5l-9.8-9.3c0.1,0,0.1,0,0.2,0.1l9.8,9.3C121.2,168.6,121.2,168.5,121.1,168.5"/>
						<path class="st2" d="M121.3,168.6l-9.8-9.3c0,0,0,0,0.1,0L121.3,168.6C121.3,168.6,121.3,168.6,121.3,168.6"/>
					</g>
				</g>
				<g class="st0">
					<defs>
						<path id="SVGID_41_" class="st0" d="M75.2,216.6l-9.8-9.3c0.6,0.6,1.3,1.1,2.1,1.5c1.6,0.9,3.4,1.2,5.1,1.1
							c2.4-0.1,5-0.8,7.5-1.6c3.3-0.9,11.7-3.5,18.2-11.5c9.8-12.1,7-26.5,6.6-28.4l9.8,9.3c0.4,1.8,3.2,16.2-6.6,28.4
							c-6.5,8-14.9,10.6-18.2,11.5c-2.6,0.7-5.1,1.5-7.5,1.6c-1.8,0.1-3.5-0.2-5.1-1.1C76.5,217.7,75.8,217.2,75.2,216.6z"/>
					</defs>
					<clipPath id="SVGID_42_">
						<use xlink:href="#SVGID_41_"  style="overflow:visible;"/>
					</clipPath>
					<g class="st29">
						<path class="st2" d="M75.2,216.6l-9.8-9.3c0.3,0.2,0.5,0.5,0.8,0.7l9.8,9.3C75.8,217.1,75.5,216.9,75.2,216.6"/>
						<path class="st3" d="M76,217.3l-9.8-9.3c0.4,0.3,0.8,0.6,1.3,0.8c1.1,0.6,2.3,0.9,3.4,1.1l9.8,9.3c-1.2-0.1-2.3-0.5-3.4-1.1
							C76.8,217.9,76.4,217.6,76,217.3"/>
						<path class="st2" d="M80.7,219.2l-9.8-9.3c0.6,0.1,1.1,0.1,1.7,0.1c0.3,0,0.6,0,0.9-0.1l9.8,9.3c-0.3,0-0.6,0-0.9,0.1
							C81.9,219.3,81.3,219.3,80.7,219.2"/>
						<path class="st4" d="M83.3,219.2l-9.8-9.3c1.2-0.1,2.4-0.4,3.6-0.7l9.8,9.3C85.7,218.8,84.5,219.1,83.3,219.2"/>
						<path class="st5" d="M86.9,218.5l-9.8-9.3c1-0.3,2-0.5,3.1-0.8c1-0.3,2.5-0.7,4.2-1.4l9.8,9.3c-1.7,0.7-3.2,1.1-4.2,1.4
							C88.9,218,87.9,218.3,86.9,218.5"/>
						<path class="st6" d="M94.2,216.3l-9.8-9.3c1.3-0.5,2.8-1.2,4.3-2l9.8,9.3C97,215.1,95.5,215.8,94.2,216.3"/>
						<path class="st7" d="M98.5,214.3l-9.8-9.3c1.3-0.7,2.6-1.5,3.9-2.5l9.8,9.3C101.1,212.7,99.8,213.6,98.5,214.3"/>
						<path class="st8" d="M102.4,211.8l-9.8-9.3c1.3-1,2.7-2.1,4-3.5l9.8,9.3C105.1,209.6,103.7,210.8,102.4,211.8"/>
						<path class="st9" d="M106.4,208.3l-9.8-9.3c0.6-0.7,1.2-1.3,1.8-2.1c9.8-12.1,7-26.5,6.6-28.4l9.8,9.3
							c0.4,1.8,3.2,16.2-6.6,28.4C107.6,206.9,107,207.6,106.4,208.3"/>
					</g>
				</g>
				<g class="st0">
					<defs>
						<path id="SVGID_43_" class="st0" d="M115.8,172.4L106,163c0.5-0.2,1.2-0.7,2.7-1.9c1.8-1.4,2.3-1.9,2.6-1.9l9.8,9.3
							c-0.3,0-0.8,0.5-2.6,1.9C117,171.6,116.2,172.2,115.8,172.4z"/>
					</defs>
					<clipPath id="SVGID_44_">
						<use xlink:href="#SVGID_43_"  style="overflow:visible;"/>
					</clipPath>
					<g class="st30">
						<path class="st5" d="M115.8,172.4L106,163c0,0,0,0,0,0L115.8,172.4C115.8,172.3,115.8,172.3,115.8,172.4"/>
						<path class="st6" d="M115.8,172.3L106,163c0.1,0,0.2-0.1,0.3-0.1l9.8,9.3C116,172.3,115.9,172.3,115.8,172.3"/>
						<path class="st7" d="M116,172.2l-9.8-9.3c0.3-0.2,0.7-0.4,1.2-0.8l9.8,9.3C116.7,171.8,116.3,172.1,116,172.2"/>
						<path class="st8" d="M117.2,171.4l-9.8-9.3c0.3-0.3,0.8-0.6,1.2-1c1.1-0.9,1.7-1.4,2.1-1.7l9.8,9.3c-0.4,0.3-1,0.8-2.1,1.7
							C118,170.8,117.6,171.1,117.2,171.4"/>
						<path class="st7" d="M120.6,168.8l-9.8-9.3c0.1-0.1,0.2-0.1,0.3-0.2l9.8,9.3C120.8,168.6,120.7,168.7,120.6,168.8"/>
						<path class="st6" d="M120.9,168.6l-9.8-9.3c0,0,0.1,0,0.1,0l9.8,9.3C120.9,168.6,120.9,168.6,120.9,168.6"/>
						<path class="st5" d="M121,168.5l-9.8-9.3c0,0,0,0,0.1,0L121,168.5C121,168.5,121,168.5,121,168.5"/>
						<path class="st4" d="M121,168.5l-9.8-9.3c0,0,0,0,0.1,0L121,168.5C121.1,168.5,121.1,168.5,121,168.5"/>
						<path class="st2" d="M121.1,168.5l-9.8-9.3c0,0,0,0,0,0L121.1,168.5C121.1,168.5,121.1,168.5,121.1,168.5"/>
					</g>
				</g>
				<g>
					<polygon class="st31" points="126.8,158.4 117,149.1 119.6,145.6 129.3,154.9 					"/>
				</g>
				<g>
					<polygon class="st8" points="129.3,154.9 119.6,145.6 119.6,145.5 129.4,154.8 					"/>
				</g>
				<g class="st0">
					<defs>
						<path id="SVGID_45_" class="st0" d="M97.3,168.1l9.8,9.3c-0.1-0.1-0.2-0.2-0.4-0.2l-9.8-9.3C97,167.9,97.2,168,97.3,168.1z"/>
					</defs>
					<clipPath id="SVGID_46_">
						<use xlink:href="#SVGID_45_"  style="overflow:visible;"/>
					</clipPath>
					<g class="st32">
						<path class="st3" d="M106.7,177.2l-9.8-9.3c0.1,0,0.2,0.1,0.3,0.1l9.8,9.3C106.9,177.3,106.8,177.2,106.7,177.2"/>
						<path class="st2" d="M107,177.4l-9.8-9.3c0,0,0.1,0.1,0.1,0.1l9.8,9.3C107,177.4,107,177.4,107,177.4"/>
					</g>
				</g>
				<g class="st0">
					<defs>
						<path id="SVGID_47_" class="st0" d="M114.8,177.8l-9.8-9.3c-0.7-1.7-1.7-3.8-3.2-6.2l9.8,9.3
							C113.1,174,114.1,176.1,114.8,177.8z"/>
					</defs>
					<clipPath id="SVGID_48_">
						<use xlink:href="#SVGID_47_"  style="overflow:visible;"/>
					</clipPath>
					<g class="st33">
						<path class="st9" d="M114.8,177.8l-9.8-9.3c-0.7-1.7-1.7-3.8-3.2-6.2l9.8,9.3C113.1,174,114.1,176.1,114.8,177.8"/>
					</g>
				</g>
				<g class="st0">
					<defs>
						<path id="SVGID_49_" class="st0" d="M111.7,171.7l-9.8-9.3c1,0.5,2.1,0.9,3.1,0.8c0.3,0,0.7-0.1,1-0.2l9.8,9.3
							c-0.3,0.1-0.6,0.2-1,0.2C113.8,172.6,112.6,172.2,111.7,171.7z"/>
					</defs>
					<clipPath id="SVGID_50_">
						<use xlink:href="#SVGID_49_"  style="overflow:visible;"/>
					</clipPath>
					<g class="st34">
						<path class="st3" d="M111.7,171.7l-9.8-9.3c0.8,0.4,1.7,0.7,2.5,0.8l9.8,9.3C113.3,172.4,112.4,172.1,111.7,171.7"/>
						<path class="st2" d="M114.2,172.5l-9.8-9.3c0.2,0,0.4,0,0.6,0c0.1,0,0.2,0,0.2,0l9.8,9.3c-0.1,0-0.1,0-0.2,0
							C114.6,172.5,114.4,172.5,114.2,172.5"/>
						<path class="st4" d="M115,172.5l-9.8-9.3c0.2,0,0.3,0,0.5-0.1l9.8,9.3C115.3,172.5,115.2,172.5,115,172.5"/>
						<path class="st5" d="M115.5,172.4l-9.8-9.3c0.1,0,0.2,0,0.3-0.1l9.8,9.3C115.7,172.4,115.6,172.4,115.5,172.4"/>
					</g>
				</g>
				<g class="st0">
					<defs>
						<path id="SVGID_51_" class="st0" d="M86.1,205.7l-9.8-9.3c-0.8-0.8-1.2-1.8-1.4-2.3c-0.8-2.1-0.3-4.1,0.1-5.4
							c0.8-3.3,2.7-5.4,3.7-6.5c0.8-0.9,1.3-1.3,4.6-3.8c9.2-7,8.6-6.3,10-7.6c2-1.9,2.7-2.9,3.4-2.9c0.1,0,0.2,0,0.2,0l9.8,9.3
							c-0.1,0-0.2,0-0.2,0c-0.7,0-1.4,1-3.4,2.9c-1.4,1.3-0.8,0.6-10,7.6c-3.2,2.5-3.8,2.9-4.6,3.8c-1,1.1-2.8,3.2-3.7,6.5
							c-0.4,1.4-0.8,3.3-0.1,5.4C84.9,203.9,85.2,204.9,86.1,205.7z"/>
					</defs>
					<clipPath id="SVGID_52_">
						<use xlink:href="#SVGID_51_"  style="overflow:visible;"/>
					</clipPath>
					<g class="st35">
						<path class="st9" d="M86.1,205.7l-9.8-9.3c-0.8-0.8-1.2-1.8-1.4-2.3c-0.8-2.1-0.3-4.1,0.1-5.4c0.8-3.3,2.7-5.4,3.7-6.5
							c0.1-0.1,0.2-0.3,0.4-0.4l9.8,9.3c-0.1,0.1-0.2,0.2-0.4,0.4c-1,1.1-2.8,3.2-3.7,6.5c-0.4,1.4-0.8,3.3-0.1,5.4
							C84.9,203.9,85.2,204.9,86.1,205.7"/>
						<path class="st8" d="M88.8,191.1l-9.8-9.3c0.7-0.7,1.5-1.3,4.2-3.4c2.1-1.6,3.7-2.8,4.9-3.7l9.8,9.3c-1.2,0.9-2.8,2.1-4.9,3.7
							C90.2,189.8,89.4,190.4,88.8,191.1"/>
						<path class="st7" d="M97.9,183.9l-9.8-9.3c2.3-1.7,3.3-2.4,3.9-2.9l9.8,9.3C101.2,181.5,100.2,182.2,97.9,183.9"/>
						<path class="st8" d="M101.8,181.1l-9.8-9.3c0.5-0.4,0.7-0.6,1.2-1c1.4-1.3,2.2-2.2,2.7-2.6l9.8,9.3c-0.6,0.4-1.3,1.3-2.7,2.6
							C102.5,180.5,102.3,180.7,101.8,181.1"/>
						<path class="st7" d="M105.7,177.5l-9.8-9.3c0.1-0.1,0.2-0.1,0.3-0.2l9.8,9.3C105.9,177.4,105.8,177.4,105.7,177.5"/>
						<path class="st6" d="M106,177.3l-9.8-9.3c0.1,0,0.1-0.1,0.2-0.1l9.8,9.3C106.1,177.3,106,177.3,106,177.3"/>
						<path class="st5" d="M106.1,177.2l-9.8-9.3c0,0,0.1,0,0.1,0l9.8,9.3C106.2,177.2,106.2,177.2,106.1,177.2"/>
						<path class="st4" d="M106.3,177.2l-9.8-9.3c0,0,0.1,0,0.1,0l9.8,9.3C106.3,177.2,106.3,177.2,106.3,177.2"/>
						<path class="st2" d="M106.4,177.2l-9.8-9.3c0,0,0,0,0,0c0,0,0.1,0,0.1,0l9.8,9.3C106.5,177.2,106.5,177.2,106.4,177.2
							C106.4,177.2,106.4,177.2,106.4,177.2"/>
						<path class="st3" d="M106.5,177.2l-9.8-9.3c0,0,0.1,0,0.1,0l9.8,9.3C106.6,177.2,106.6,177.2,106.5,177.2"/>
					</g>
				</g>
				<g class="st0">
					<defs>
						<path id="SVGID_53_" class="st0" d="M96.2,155.2l9.8,9.3c0.5,0.5,1.1,1.1,1.7,1.8c0.7,0.8,1.3,1.5,1.9,2.3l-9.8-9.3
							c-0.6-0.8-1.2-1.5-1.9-2.3C97.3,156.3,96.7,155.7,96.2,155.2z"/>
					</defs>
					<clipPath id="SVGID_54_">
						<use xlink:href="#SVGID_53_"  style="overflow:visible;"/>
					</clipPath>
					<g class="st36">
						<path class="st9" d="M109.5,168.6l-9.8-9.3c-0.6-0.8-1.2-1.5-1.9-2.3c-0.6-0.7-1.2-1.3-1.7-1.8l9.8,9.3
							c0.5,0.5,1.1,1.1,1.7,1.8C108.3,167.1,109,167.8,109.5,168.6"/>
					</g>
				</g>
				<g class="st0">
					<defs>
						<path id="SVGID_55_" class="st0" d="M109.9,134.7l-9.8-9.3c2.2,2.1,5.6,3.9,8,4.9c1.4,0.6,5.9,2.4,13.7,2.1
							c2.6-0.1,5.6-0.4,8.9-1.1c6.8-1.4,20.6-4.2,31.9-16.5c4.2-4.7,14-15.4,12-28.5c-0.1-0.7-1.5-9-7.5-14.7l9.8,9.3
							c6,5.7,7.4,14,7.5,14.7c2,13.1-7.8,23.9-12,28.5c-11.2,12.3-25.1,15.2-31.9,16.5c-3.3,0.7-6.3,1-8.9,1.1
							c-7.8,0.3-12.4-1.5-13.7-2.1C115.5,138.6,112,136.7,109.9,134.7z"/>
					</defs>
					<clipPath id="SVGID_56_">
						<use xlink:href="#SVGID_55_"  style="overflow:visible;"/>
					</clipPath>
					<g class="st37">
						<path class="st2" d="M109.9,134.7l-9.8-9.3c0.4,0.4,0.8,0.7,1.2,1.1l9.8,9.3C110.7,135.4,110.2,135.1,109.9,134.7"/>
						<path class="st3" d="M111.1,135.8l-9.8-9.3c2.1,1.6,4.8,3,6.8,3.9c1,0.4,3.6,1.5,7.9,1.9l9.8,9.3c-4.3-0.5-6.9-1.5-7.9-1.9
							C115.9,138.8,113.2,137.4,111.1,135.8"/>
						<path class="st2" d="M125.8,141.5l-9.8-9.3c1.7,0.2,3.6,0.3,5.8,0.2c0.9,0,1.9-0.1,2.9-0.2l9.8,9.3c-1,0.1-2,0.2-2.9,0.2
							C129.4,141.8,127.5,141.7,125.8,141.5"/>
						<path class="st4" d="M134.5,141.5l-9.8-9.3c1.9-0.2,3.9-0.5,6-0.9c1.4-0.3,3-0.6,4.9-1.1l9.8,9.3c-1.9,0.5-3.5,0.8-4.9,1.1
							C138.4,141.1,136.4,141.4,134.5,141.5"/>
						<path class="st5" d="M145.4,139.6l-9.8-9.3c2.4-0.6,5.2-1.4,8.1-2.6l9.8,9.3C150.6,138.2,147.8,139,145.4,139.6"/>
						<path class="st6" d="M153.5,137l-9.8-9.3c2-0.8,4.1-1.8,6.3-3l9.8,9.3C157.6,135.2,155.5,136.2,153.5,137"/>
						<path class="st7" d="M159.8,134l-9.8-9.3c1.9-1,3.8-2.3,5.7-3.7l9.8,9.3C163.6,131.8,161.7,133,159.8,134"/>
						<path class="st8" d="M165.5,130.4l-9.8-9.3c2-1.5,4-3.2,5.9-5.2l9.8,9.3C169.5,127.1,167.5,128.9,165.5,130.4"/>
						<path class="st9" d="M171.4,125.1l-9.8-9.3c0.3-0.3,0.7-0.7,1-1c4.2-4.7,14-15.4,12-28.5c-0.1-0.7-1.5-9-7.5-14.7l9.8,9.3
							c6,5.7,7.4,14,7.5,14.7c2,13.1-7.8,23.9-12,28.5C172.1,124.5,171.7,124.8,171.4,125.1"/>
					</g>
				</g>
				<g class="st0">
					<defs>
						<path id="SVGID_57_" class="st0" d="M114.9,131.4l-9.8-9.3c-0.2-0.2-0.5-0.5-0.6-0.8c-0.2-0.4-0.6-1.3-1.3-1.9l9.8,9.3
							c0.7,0.6,1.1,1.6,1.3,1.9C114.5,130.9,114.7,131.2,114.9,131.4z"/>
					</defs>
					<clipPath id="SVGID_58_">
						<use xlink:href="#SVGID_57_"  style="overflow:visible;"/>
					</clipPath>
					<g class="st38">
						<path class="st9" d="M114.9,131.4l-9.8-9.3c-0.2-0.2-0.5-0.5-0.6-0.8c-0.2-0.4-0.6-1.3-1.3-1.9l9.8,9.3
							c0.7,0.6,1.1,1.6,1.3,1.9C114.5,130.9,114.7,131.2,114.9,131.4"/>
					</g>
				</g>
				<g class="st0">
					<defs>
						<path id="SVGID_59_" class="st0" d="M74,153.9l-9.8-9.3c2.7,2.6,6.3,5.2,11,8.6c6.7,4.9,12.8,8.2,17.1,10.3l9.8,9.3
							c-4.3-2.1-10.4-5.4-17.1-10.3C80.3,159.1,76.7,156.5,74,153.9z"/>
					</defs>
					<clipPath id="SVGID_60_">
						<use xlink:href="#SVGID_59_"  style="overflow:visible;"/>
					</clipPath>
					<g class="st39">
						<path class="st2" d="M74,153.9l-9.8-9.3c1.3,1.3,2.8,2.5,4.6,3.9l9.8,9.3C76.8,156.4,75.3,155.2,74,153.9"/>
						<path class="st3" d="M78.6,157.8l-9.8-9.3c1.9,1.4,4,3,6.5,4.8c6.7,4.9,12.8,8.2,17.1,10.3l9.8,9.3
							c-4.3-2.1-10.4-5.4-17.1-10.3C82.6,160.8,80.5,159.2,78.6,157.8"/>
					</g>
				</g>
				<g class="st0">
					<defs>
						<path id="SVGID_61_" class="st0" d="M160.1,81.5l9.8,9.3c-0.7-0.7-1.6-1.3-2.6-1.9c-1.7-0.9-3.1-1-5-1c-1,0-2.1,0.1-3.4,0.2
							c-1.3,0.1-2.9,0.2-4.7,0.3c-0.5,0-0.9,0-1.4,0c-5.8,0.1-9.2-0.4-10.9-0.5c-0.3,0-0.7,0-1.1,0c-7,0.2-20.3,6.1-47.2,27.1
							l-9.8-9.3c26.9-21,40.2-26.9,47.2-27.1c0.4,0,0.7,0,1.1,0c1.6,0.1,5.1,0.6,10.9,0.5c0.5,0,1,0,1.4,0c1.9-0.1,3.4-0.2,4.7-0.3
							c1.3-0.1,2.4-0.2,3.4-0.2c1.9-0.1,3.3,0.1,5,1C158.5,80.1,159.4,80.8,160.1,81.5z"/>
					</defs>
					<clipPath id="SVGID_62_">
						<use xlink:href="#SVGID_61_"  style="overflow:visible;"/>
					</clipPath>
					<g class="st40">
						<path class="st8" d="M93.6,115.1l-9.8-9.3c2.5-1.9,4.8-3.7,7.1-5.4l9.8,9.3C98.5,111.3,96.1,113.1,93.6,115.1"/>
						<path class="st7" d="M100.8,109.6l-9.8-9.3c9.6-7.2,17.3-12.2,23.3-15.5l9.8,9.3C118,97.4,110.4,102.4,100.8,109.6"/>
						<path class="st6" d="M124.1,94.1l-9.8-9.3c3.2-1.8,6-3.1,8.4-4.1l9.8,9.3C130.1,91,127.3,92.3,124.1,94.1"/>
						<path class="st5" d="M132.5,90l-9.8-9.3c1.7-0.7,3.1-1.1,4.5-1.5l9.8,9.3C135.7,88.9,134.2,89.4,132.5,90"/>
						<path class="st4" d="M137,88.5l-9.8-9.3c1.1-0.3,2.1-0.4,3-0.5L140,88C139.1,88.1,138.1,88.3,137,88.5"/>
						<path class="st2" d="M140,88l-9.8-9.3c0.3,0,0.6,0,0.9-0.1c0.4,0,0.7,0,1.1,0c1.6,0.1,5.1,0.6,10.9,0.5c0.5,0,1,0,1.4,0
							c1.9-0.1,3.4-0.2,4.7-0.3c1.3-0.1,2.4-0.2,3.4-0.2c0.7,0,1.3,0,1.9,0l9.8,9.3c-0.6-0.1-1.2-0.1-1.9,0c-1,0-2.1,0.1-3.4,0.2
							c-1.3,0.1-2.9,0.2-4.7,0.3c-0.5,0-0.9,0-1.4,0c-5.8,0.1-9.2-0.4-10.9-0.5c-0.3,0-0.7,0-1.1,0C140.6,88,140.3,88,140,88"/>
						<path class="st3" d="M164.2,88l-9.8-9.3c1,0.1,2,0.4,3.1,0.9c0.6,0.3,1.2,0.7,1.7,1.1L169,90c-0.5-0.4-1.1-0.8-1.7-1.1
							C166.2,88.4,165.2,88.1,164.2,88"/>
						<path class="st2" d="M169,90l-9.8-9.3c0.3,0.3,0.6,0.5,0.9,0.8l9.8,9.3C169.6,90.5,169.3,90.2,169,90"/>
					</g>
				</g>
				<g class="st0">
					<defs>
						<path id="SVGID_63_" class="st0" d="M88.1,150l-9.8-9.3c-5.2-4.9-6-7.3-6.5-9.1c-1-3.9-0.3-7.6,0.1-9.1
							c1.1-4.4,3.4-7.4,5.5-10.2c2.3-3,4.6-5.1,6.4-6.6l9.8,9.3c-1.8,1.4-4.1,3.6-6.4,6.6c-2.2,2.8-4.5,5.8-5.5,10.2
							c-0.4,1.5-1,5.1-0.1,9.1C82.1,142.7,83,145,88.1,150z"/>
					</defs>
					<clipPath id="SVGID_64_">
						<use xlink:href="#SVGID_63_"  style="overflow:visible;"/>
					</clipPath>
					<g class="st41">
						<path class="st9" d="M88.1,150l-9.8-9.3c-5.2-4.9-6-7.3-6.5-9.1c-1-3.9-0.3-7.6,0.1-9.1c1.1-4.4,3.4-7.4,5.5-10.2
							c1-1.3,2-2.4,2.9-3.4l9.8,9.3c-0.9,1-1.9,2.1-2.9,3.4c-2.2,2.8-4.5,5.8-5.5,10.2c-0.4,1.5-1,5.1-0.1,9.1
							C82.1,142.7,83,145,88.1,150"/>
						<path class="st8" d="M90.2,118.3l-9.8-9.3c1.3-1.3,2.5-2.4,3.5-3.2l9.8,9.3C92.6,115.9,91.4,116.9,90.2,118.3"/>
					</g>
				</g>
				<g class="st0">
					<defs>
						<path id="SVGID_65_" class="st0" d="M67.3,246.6l-9.8-9.3c-22.8-21.8-36.8-52.8-36.5-87.6C21.6,81,77.7,23.4,146.3,21l9.8,9.3
							C87.5,32.7,31.4,90.3,30.7,159C30.4,193.8,44.4,224.8,67.3,246.6z"/>
					</defs>
					<clipPath id="SVGID_66_">
						<use xlink:href="#SVGID_65_"  style="overflow:visible;"/>
					</clipPath>
					<g class="st42">
						<path class="st9" d="M67.3,246.6l-9.8-9.3c-22.8-21.8-36.8-52.8-36.5-87.6c0.3-34.1,14.3-65.5,36.7-88.7l9.8,9.3
							C45.1,93.5,31,124.9,30.7,159C30.4,193.8,44.4,224.8,67.3,246.6"/>
						<path class="st8" d="M67.5,70.2l-9.8-9.3c5-5.2,10.4-9.9,16.1-14.2l9.8,9.3C77.8,60.3,72.4,65.1,67.5,70.2"/>
						<path class="st7" d="M83.6,56l-9.8-9.3c4.8-3.6,9.8-6.9,15.1-9.8l9.8,9.3C93.4,49.2,88.4,52.5,83.6,56"/>
						<path class="st6" d="M98.7,46.3L88.9,37c4.9-2.7,9.9-5.1,15.2-7.2l9.8,9.3C108.6,41.2,103.6,43.6,98.7,46.3"/>
						<path class="st5" d="M113.8,39.1l-9.8-9.3c5.3-2.1,10.7-3.8,16.2-5.2l9.8,9.3C124.5,35.3,119.1,37.1,113.8,39.1"/>
						<path class="st4" d="M130,33.9l-9.8-9.3c6.1-1.5,12.3-2.6,18.6-3.2l9.8,9.3C142.3,31.4,136.1,32.4,130,33.9"/>
						<path class="st2" d="M148.7,30.8l-9.8-9.3c2.4-0.2,4.9-0.4,7.3-0.5l9.8,9.3C153.6,30.4,151.1,30.6,148.7,30.8"/>
					</g>
				</g>
				<g>
					<path class="st43" d="M156,30.3c68.6-2.4,123.6,51.3,123,120C278.4,219,222.3,276.6,153.7,279c-68.6,2.4-123.6-51.3-123-120
						C31.4,90.3,87.5,32.7,156,30.3z M248.9,180.4c1.4-1.6,2.2-2.4,2.8-3.7c3.1-6.9-3.6-15.3-4.4-16.2c-1.3-1.5-4.4-5.3-9.9-6.9
						c-2-0.6-3.9-0.8-5.9-0.7c-3.8,0.1-7.5,1.3-10.8,2.4c-3.3,1.1-6.2,2.3-8.6,2.3c-1.5,0.1-2.7-0.3-3.8-1.2
						c-0.9-0.8-1.2-1.7-1.8-3.6c-3.3-10.2,5.1-17.5,2-21.8c-1.2-1.7-3.9-2.5-6.6-2.4c-2.8,0.1-5.6,1.1-7,2.9c-1.3,1.7-0.9,3.4-1,6.4
						c-0.3,10.8-6.8,22-10.9,22.2c-1.1,0-1.7-0.6-1.9-0.8c-4.4-4.1,5.1-16.3,1.1-20.9c-1.1-1.3-3-1.8-5-1.7
						c-2.1,0.1-4.4,0.8-5.8,2.1c-2.5,2.2-2.7,5.7-2.8,7.4c-1.2,16.2-12.7,34.9-15.6,35c-0.7-0.1-0.9-1-1-1.8
						c-0.7-3.1,1.4-5.7,2.8-8.3c3.2-5.8,4-13.2,1.9-14.6c-0.3-0.2-0.6-0.2-0.9-0.2c-0.5,0-1.1,0.2-1.7,0.4c-0.6,0.2-1.1,0.4-1.7,0.4
						c-0.4,0-0.8-0.1-1.2-0.4c-0.9-0.7-0.4-1.8-0.9-4.5c-0.4-2.3-0.7-4.3-1.8-5.4c-0.7-0.7-1.8-0.9-3-0.9c-3.3,0.1-7.8,2.3-10.6,4.1
						c-2.3,1.5-4.1,3.2-5.6,4.9c-1.1,1.3-2,2.5-2.6,3.6c-6.8,7.9-16.3,7.6-17.2,10.2c-0.6-0.8-1.2-1.5-1.9-2.3
						c-3.1-3.6-4.7-4-11.7-9.6c-12.3-9.8-13.8-13.4-14.3-15.8c-1-3.9-0.3-7.6,0.1-9.1c1.1-4.4,3.4-7.4,5.5-10.2
						c2.3-3,4.6-5.1,6.4-6.6c26.9-21,40.2-26.9,47.2-27.1c0.4,0,0.7,0,1.1,0c1.6,0.1,5.1,0.6,10.9,0.5c0.5,0,1,0,1.4,0
						c1.9-0.1,3.4-0.2,4.7-0.3c1.3-0.1,2.4-0.2,3.4-0.2c1.9-0.1,3.3,0.1,5,1c4.7,2.4,6.1,7.4,6.3,7.9c0.2,0.7,0.9,3.4-0.1,7.3
						c-1.9,8-8.8,14.1-13.8,17.7c-11.2,8.2-24.2,11.7-33.4,12c-6.2,0.2-10.7-1-12-3.2c-0.3-0.6-1.2-2.5-2.7-2.6
						c-1.7,0-3.4,1.5-3.7,2.8c-0.7,3.3,6.1,7.1,9.9,8.7c1.4,0.6,5.9,2.4,13.7,2.1c2.6-0.1,5.6-0.4,8.9-1.1
						c6.8-1.4,20.6-4.2,31.9-16.5c4.2-4.7,14-15.4,12-28.5c-0.1-0.9-2.3-14-13.4-18.6c-3.3-1.4-6.5-1.6-8.7-1.5l-24.8,0.9
						c-13.2,4.3-23.6,9.5-30.9,13.8c-8.4,4.9-16.7,10.7-24.6,18.1c-11,10.2-13.1,15.7-13.8,17.7c-1.1,3.4-3.1,11-0.2,19.1
						c2.5,6.9,7.4,10.6,17,17.6c6.7,4.9,12.8,8.2,17.1,10.3c-0.6,0.4-1.5,1.1-2.7,1.9c-3.3,2.2-5.9,3.6-6.4,3.9
						c-20,10.9-21.9,22.8-22,23.4c-0.9,5.8,1,13.3,6.2,16.1c1.6,0.9,3.4,1.2,5.1,1.1c2.4-0.1,5-0.8,7.5-1.6
						c3.3-0.9,11.7-3.5,18.2-11.5c9.8-12.1,7-26.5,6.6-28.4c-0.7-1.7-1.7-3.8-3.2-6.2c1,0.5,2.1,0.9,3.1,0.8c0.3,0,0.7-0.1,1-0.2
						c0.5-0.2,1.2-0.7,2.7-1.9c1.8-1.4,2.3-1.9,2.6-1.9c0.9,0.3,0.6,2.6,0.1,7.3c-0.8,6.2-0.9,6.1-1,7.3c-0.4,4.9,1,12.5,6.2,15.2
						c0.4,0.2,2.2,1.2,4.3,1.1c0.7,0,1.3-0.1,2-0.4c0.6-0.2,2.3-1.1,5.5-7.5c2.2-4.4,3.1-7.4,3.7-7.4c0.9,0.1-1.7,7.7,1.7,10.8
						c1.1,1,2.7,1.4,4.3,1.4c1,0,2.1-0.3,2.9-0.7c1.7-0.9,3.3-4,6.4-10.2c0.5-1,1.1-2.3,2.2-3.8c0.8-1.2,1.2-1.6,2.1-2.8
						c0.4-0.6,1.1-1.6,2.1-3.5c3.9-7.3,6.4-15.7,6.4-16.4c0.1-0.3,0.4-0.4,0.6-0.4c0.5,0,1,0.1,1.2,0.2c1.5,0.3,5.6,5.8,4.4,11.6
						c-1.9,9-15,11.6-14.7,18.7c0,0.4,0.1,1.6,0.9,2.7c1.3,1.8,3.9,2.2,6.3,2.1c2.1-0.1,4-0.5,4.6-0.7c5.3-1.3,12.8-5.5,14.6-12.3
						c1.5-5.6-2.5-7.2-1.7-14.5c0.9-7.9,6.5-14.8,8.9-14.9c1,0.2,0.9,1,2.1,4.5c1.9,5.6,2.8,5.6,2.7,7.2c-0.3,3.7-5.1,3.5-8.2,9.4
						c-2.2,4.1-2,8.1-1.9,9.1c0.1,1.9,0.2,2.9,0.9,3.6c0.8,0.9,2.4,1.3,4.4,1.2c4.8-0.2,11.7-3.1,14.7-8.3c3.8-6.7-1-13.5,2.9-16.4
						c0.6-0.4,1.1-0.6,1.8-0.6c1.5-0.1,4,0.4,9.9,0.2c2.2-0.1,3.4-0.2,4.3-0.2c0.9-0.1,1.5-0.2,2.1-0.2c0.5,0,1.1,0,1.8,0.1
						c5.9,1,9.6,4.7,10.8,6c1.9,2,3.5,3.7,3.6,6.2c0.1,2.2-1,4.8-2.8,6.4c-1.9,1.8-3.7,1.8-4.6,3.8c-0.3,0.8-0.6,2.2,0,2.7
						c0.2,0.1,0.4,0.2,0.7,0.2C242.3,186.3,246.2,183.4,248.9,180.4"/>
				</g>
				<g>
					<path class="st43" d="M203.7,167.5c0.6,0.1,0.8,1.5,0.9,1.8c0.4,2.7-1.5,5.1-1.9,5.5c-0.4,0.5-1.5,1.3-3.7,2.8
						c-1,0.7-1.4,1-1.7,1c-0.1,0-0.1,0-0.1,0c-0.6-0.3,0-2.7,0.9-4.6c0.9-1.8,1.4-1.5,3.7-4.7C202.6,168.3,203.1,167.5,203.7,167.5
						C203.6,167.5,203.7,167.5,203.7,167.5z"/>
				</g>
				<g>
					<path class="st43" d="M179.1,175.6c0.5,0.2-0.1,2.6-0.9,4.6c-0.5,1.2-1.5,3.3-3.7,4.7c-1,0.7-2.4,1.2-3.1,1.2
						c-0.3,0-0.5,0-0.5-0.2c-0.2-0.2,0.1-0.7,0.9-1.8c2.1-2.9,3.3-4,5.5-6.5C178.4,176.2,178.8,175.6,179.1,175.6
						C179.1,175.6,179.1,175.6,179.1,175.6z"/>
				</g>
				<g>
					<path class="st43" d="M144,154.1c0.5,0.2,0.9,0.9,0.9,2.7c0,3.9-1.9,7.4-2.8,9.2c-3.6,7.3-3.8,13.9-6.5,16.6
						c-1.7,1.6-3.5,1.9-3.6,1.9c-0.3,0-0.5,0.1-0.6,0.1c-0.1,0-0.2,0-0.3,0c-1.7-0.7-0.5-7.3,1-11.8c0.1-0.4,0.7-1.8,1.9-4.6
						c2.9-7.1,4.4-10.7,7.4-13c1.1-0.9,1.8-1.1,2.2-1.1C143.8,154,143.9,154.1,144,154.1z"/>
				</g>
				<g>
					<path class="st43" d="M129.3,154.9l0.1-0.1c-0.7,1.2-1.6,2.4-2.6,3.6L129.3,154.9z"/>
				</g>
				<g>
					<path class="st43" d="M106.7,177.2c1.6,0.5,1.5,5.5,0.8,9c-0.8,4-2.5,6.8-4.6,10.1c-2.7,4.2-4.2,6.6-7.3,8.4
						c-0.6,0.3-3.4,1.9-6.1,2c-1.1,0-2.1-0.2-3-0.8c-1.1-0.8-1.6-2.1-1.8-2.7c-0.8-2.1-0.3-4.1,0.1-5.4c0.8-3.3,2.7-5.4,3.7-6.5
						c0.8-0.9,1.3-1.3,4.6-3.8c9.2-7,8.6-6.3,10-7.6c2-1.9,2.7-2.9,3.4-2.9C106.5,177.2,106.6,177.2,106.7,177.2z"/>
				</g>
				<g class="st0">
					<defs>
						<path id="SVGID_67_" class="st0" d="M232.8,53.4l9.8,9.3c-22.2-21.1-52.7-33.6-86.5-32.4l-9.8-9.3
							C180.1,19.8,210.6,32.3,232.8,53.4z"/>
					</defs>
					<clipPath id="SVGID_68_">
						<use xlink:href="#SVGID_67_"  style="overflow:visible;"/>
					</clipPath>
					<g class="st44">
						<path class="st2" d="M156,30.3l-9.8-9.3c6-0.2,12,0,17.8,0.6l9.8,9.3C168,30.3,162.1,30.1,156,30.3"/>
						<path class="st3" d="M173.8,31l-9.8-9.3c22.3,2.4,42.6,10.9,59.3,23.7l9.8,9.3C216.4,41.8,196.1,33.4,173.8,31"/>
						<path class="st2" d="M233.1,54.7l-9.8-9.3c3.3,2.5,6.4,5.2,9.4,8.1l9.8,9.3C239.5,59.9,236.4,57.2,233.1,54.7"/>
					</g>
				</g>
			</g>
		</g>
	</g>
	<g>
		<g>
			<g class="st0">
				<g class="st0">
					<defs>
						<path id="SVGID_69_" class="st0" d="M239.8,186.1l-9.8-9.3c-0.6-0.5-0.3-1.9,0.1-2.7c0.8-2,2.7-2,4.6-3.8
							c1.8-1.7,2.8-4.2,2.8-6.4c-0.1-2.6-1.6-4.2-3.6-6.2c-0.2-0.2-0.5-0.6-0.9-0.9l9.8,9.3c0.4,0.4,0.7,0.7,0.9,0.9
							c1.9,2,3.5,3.7,3.6,6.2c0.1,2.2-1,4.8-2.8,6.4c-1.9,1.8-3.7,1.8-4.6,3.8C239.6,184.2,239.3,185.6,239.8,186.1z"/>
					</defs>
					<clipPath id="SVGID_70_">
						<use xlink:href="#SVGID_69_"  style="overflow:visible;"/>
					</clipPath>
					<g class="st45">
						<path class="st46" d="M239.8,186.1l-9.8-9.3c-0.6-0.5-0.3-1.9,0.1-2.7c0.2-0.4,0.4-0.8,0.7-1.1l9.8,9.3
							c-0.3,0.3-0.5,0.6-0.7,1.1C239.6,184.2,239.3,185.6,239.8,186.1"/>
						<path class="st47" d="M240.6,182.4l-9.8-9.3c0.2-0.2,0.3-0.3,0.5-0.4l9.8,9.3C240.9,182.1,240.8,182.2,240.6,182.4"/>
						<path class="st48" d="M241.1,181.9l-9.8-9.3c0.7-0.5,1.6-0.9,2.6-1.6l9.8,9.3C242.7,181,241.8,181.4,241.1,181.9"/>
						<path class="st47" d="M243.7,180.3l-9.8-9.3c0.3-0.2,0.5-0.4,0.8-0.6c0.1-0.1,0.2-0.2,0.2-0.2l9.8,9.3
							c-0.1,0.1-0.2,0.2-0.2,0.2C244.2,179.9,243.9,180.1,243.7,180.3"/>
						<path class="st46" d="M244.7,179.4l-9.8-9.3c1.6-1.7,2.6-4.1,2.5-6.2c-0.1-2.6-1.6-4.2-3.6-6.2c-0.2-0.2-0.5-0.6-0.9-0.9
							l9.8,9.3c0.4,0.4,0.7,0.7,0.9,0.9c1.9,2,3.5,3.7,3.6,6.2C247.3,175.3,246.3,177.7,244.7,179.4"/>
					</g>
				</g>
				<g class="st0">
					<defs>
						<path id="SVGID_71_" class="st0" d="M197.4,178.6l-9.8-9.3c0,0,0.1,0,0.1,0c0.2,0,0.7-0.3,1.7-1c2.2-1.6,3.2-2.4,3.6-2.8
							l9.8,9.3c-0.4,0.5-1.5,1.3-3.6,2.8c-1,0.7-1.4,1-1.7,1C197.5,178.6,197.4,178.6,197.4,178.6z"/>
					</defs>
					<clipPath id="SVGID_72_">
						<use xlink:href="#SVGID_71_"  style="overflow:visible;"/>
					</clipPath>
					<g class="st49">
						<path class="st50" d="M197.4,178.6l-9.8-9.3c0,0,0.1,0,0.1,0l9.8,9.3C197.4,178.6,197.4,178.6,197.4,178.6"/>
						<path class="st51" d="M197.5,178.6l-9.8-9.3c0,0,0,0,0,0c0,0,0,0,0,0L197.5,178.6C197.5,178.6,197.5,178.6,197.5,178.6
							C197.5,178.6,197.5,178.6,197.5,178.6"/>
						<path class="st52" d="M197.5,178.6l-9.8-9.3c0,0,0,0,0.1,0L197.5,178.6C197.6,178.6,197.6,178.6,197.5,178.6"/>
						<path class="st53" d="M197.6,178.6l-9.8-9.3c0,0,0.1,0,0.1,0l9.8,9.3C197.7,178.6,197.6,178.6,197.6,178.6"/>
						<path class="st54" d="M197.7,178.6l-9.8-9.3c0.1,0,0.1-0.1,0.2-0.1l9.8,9.3C197.8,178.5,197.8,178.5,197.7,178.6"/>
						<path class="st48" d="M197.9,178.5l-9.8-9.3c0.3-0.1,0.7-0.4,1.3-0.9c0.8-0.6,1.5-1.1,2.1-1.5l9.8,9.3
							c-0.5,0.4-1.2,0.9-2.1,1.5C198.6,178,198.2,178.3,197.9,178.5"/>
						<path class="st47" d="M201.2,176.1l-9.8-9.3c0.7-0.5,1.2-0.9,1.5-1.2l9.8,9.3C202.4,175.2,202,175.6,201.2,176.1"/>
						<path class="st46" d="M202.7,174.9l-9.8-9.3c0-0.1,0.1-0.1,0.1-0.1l9.8,9.3C202.8,174.8,202.8,174.8,202.7,174.9"/>
					</g>
				</g>
				<g class="st0">
					<defs>
						<path id="SVGID_73_" class="st0" d="M197.3,178.5l-9.8-9.3c0,0,0,0,0.1,0L197.3,178.5C197.3,178.6,197.3,178.5,197.3,178.5z"
							/>
					</defs>
					<clipPath id="SVGID_74_">
						<use xlink:href="#SVGID_73_"  style="overflow:visible;"/>
					</clipPath>
					<g class="st55">
						<path class="st51" d="M197.3,178.5l-9.8-9.3c0,0,0,0,0,0L197.3,178.5C197.3,178.5,197.3,178.5,197.3,178.5"/>
						<path class="st50" d="M197.3,178.6l-9.8-9.3c0,0,0,0,0,0L197.3,178.6C197.4,178.6,197.3,178.6,197.3,178.6"/>
					</g>
				</g>
				<g class="st0">
					<defs>
						<path id="SVGID_75_" class="st0" d="M194.3,158.3l9.8,9.3c0.4,0.4,0.6,1.4,0.6,1.6c0.4,2.7-1.5,5.1-1.9,5.5l-9.8-9.3
							c0.3-0.4,2.3-2.8,1.9-5.5C194.9,159.7,194.8,158.7,194.3,158.3z"/>
					</defs>
					<clipPath id="SVGID_76_">
						<use xlink:href="#SVGID_75_"  style="overflow:visible;"/>
					</clipPath>
					<g class="st56">
						<path class="st46" d="M202.8,174.8l-9.8-9.3c0.3-0.4,2.3-2.8,1.9-5.5c0-0.2-0.2-1.2-0.6-1.6l9.8,9.3c0.4,0.4,0.6,1.4,0.6,1.6
							C205.1,172,203.2,174.4,202.8,174.8"/>
					</g>
				</g>
				<g class="st0">
					<defs>
						<path id="SVGID_77_" class="st0" d="M208.4,156.4l-9.8-9.3c0,0,0,0,0.1,0.1c1,0.9,2.3,1.3,3.8,1.2c2.4-0.1,5.3-1.2,8.6-2.3
							c3.3-1.1,6.9-2.3,10.8-2.4c1.9-0.1,3.9,0.1,5.9,0.7c3.5,1,6,2.9,7.7,4.5l9.8,9.3c-1.7-1.6-4.2-3.5-7.7-4.5
							c-2-0.6-3.9-0.8-5.9-0.7c-3.8,0.1-7.5,1.3-10.8,2.4c-3.3,1.1-6.2,2.3-8.6,2.3C210.7,157.7,209.5,157.4,208.4,156.4
							C208.4,156.4,208.4,156.4,208.4,156.4z"/>
					</defs>
					<clipPath id="SVGID_78_">
						<use xlink:href="#SVGID_77_"  style="overflow:visible;"/>
					</clipPath>
					<g class="st57">
						<path class="st51" d="M208.4,156.4l-9.8-9.3c0,0,0,0,0.1,0.1c0.1,0.1,0.2,0.2,0.3,0.2l9.8,9.3
							C208.6,156.6,208.5,156.5,208.4,156.4C208.4,156.4,208.4,156.4,208.4,156.4"/>
						<path class="st50" d="M208.7,156.7l-9.8-9.3c0.7,0.6,1.5,0.8,2.5,0.9l9.8,9.3C210.3,157.5,209.5,157.2,208.7,156.7"/>
						<path class="st51" d="M211.2,157.6l-9.8-9.3c0.3,0,0.7,0,1,0c0.2,0,0.4,0,0.6,0l9.8,9.3c-0.2,0-0.4,0-0.6,0
							C211.9,157.6,211.5,157.6,211.2,157.6"/>
						<path class="st52" d="M212.8,157.6l-9.8-9.3c0.7-0.1,1.4-0.2,2.2-0.4l9.8,9.3C214.2,157.4,213.5,157.5,212.8,157.6"/>
						<path class="st53" d="M214.9,157.2l-9.8-9.3c1.8-0.4,3.8-1.2,5.9-1.9c1.6-0.6,3.4-1.1,5.1-1.6l9.8,9.3c-1.8,0.4-3.5,1-5.1,1.6
							C218.7,156,216.7,156.8,214.9,157.2"/>
						<path class="st52" d="M226,153.7l-9.8-9.3c1.4-0.3,2.8-0.6,4.3-0.8l9.8,9.3C228.8,153.1,227.4,153.4,226,153.7"/>
						<path class="st51" d="M230.3,153l-9.8-9.3c0.4,0,0.9-0.1,1.3-0.1c0.9,0,1.9,0,2.8,0.1l9.8,9.3c-0.9-0.1-1.9-0.1-2.8-0.1
							C231.1,152.9,230.7,152.9,230.3,153"/>
						<path class="st50" d="M234.4,153l-9.8-9.3c1,0.1,2,0.3,3.1,0.6c2.5,0.7,4.5,1.9,6.1,3.1l9.8,9.3c-1.6-1.2-3.6-2.4-6.1-3.1
							C236.4,153.3,235.4,153.1,234.4,153"/>
						<path class="st51" d="M243.5,156.7l-9.8-9.3c0.6,0.5,1.1,0.9,1.6,1.4l9.8,9.3C244.7,157.6,244.1,157.2,243.5,156.7"/>
					</g>
				</g>
				<g class="st0">
					<defs>
						<path id="SVGID_79_" class="st0" d="M171.1,185.9l-9.8-9.3c0.1,0.1,0.3,0.1,0.5,0.1c0.7,0,2.1-0.5,3.1-1.2
							c2.2-1.4,3.1-3.5,3.7-4.7l9.8,9.3c-0.5,1.2-1.5,3.3-3.7,4.7c-1,0.7-2.3,1.2-3.1,1.2C171.3,186,171.2,186,171.1,185.9z"/>
					</defs>
					<clipPath id="SVGID_80_">
						<use xlink:href="#SVGID_79_"  style="overflow:visible;"/>
					</clipPath>
					<g class="st58">
						<path class="st51" d="M171.1,185.9l-9.8-9.3c0,0,0,0,0,0L171.1,185.9C171.1,185.9,171.1,185.9,171.1,185.9"/>
						<path class="st50" d="M171.1,185.9l-9.8-9.3c0.1,0.1,0.2,0.1,0.3,0.1l9.8,9.3C171.3,186,171.2,186,171.1,185.9"/>
						<path class="st51" d="M171.4,186l-9.8-9.3c0.1,0,0.1,0,0.2,0c0,0,0.1,0,0.1,0l9.8,9.3c0,0-0.1,0-0.1,0
							C171.5,186,171.4,186,171.4,186"/>
						<path class="st52" d="M171.7,186l-9.8-9.3c0.2,0,0.3,0,0.5-0.1l9.8,9.3C172,186,171.8,186,171.7,186"/>
						<path class="st53" d="M172.2,185.9l-9.8-9.3c0.3-0.1,0.6-0.2,0.9-0.3l9.8,9.3C172.7,185.8,172.5,185.8,172.2,185.9"/>
						<path class="st54" d="M173.1,185.6l-9.8-9.3c0.4-0.1,0.7-0.3,1.1-0.5l9.8,9.3C173.8,185.3,173.4,185.5,173.1,185.6"/>
						<path class="st48" d="M174.2,185.1l-9.8-9.3c0.2-0.1,0.3-0.2,0.5-0.3c0.2-0.1,0.3-0.2,0.5-0.3l9.8,9.3
							c-0.2,0.1-0.3,0.2-0.5,0.3C174.5,184.9,174.3,185,174.2,185.1"/>
						<path class="st47" d="M175.1,184.5l-9.8-9.3c0.4-0.3,0.7-0.6,1-0.9l9.8,9.3C175.8,183.9,175.5,184.2,175.1,184.5"/>
						<path class="st46" d="M176.1,183.6l-9.8-9.3c1.2-1.2,1.8-2.6,2.2-3.4l9.8,9.3C177.9,181,177.3,182.4,176.1,183.6"/>
					</g>
				</g>
				<g class="st0">
					<defs>
						<path id="SVGID_81_" class="st0" d="M169.6,166.3l9.8,9.3c0.4,0.4-0.2,2.7-1,4.5l-9.8-9.3C169.4,169,169.9,166.7,169.6,166.3z
							"/>
					</defs>
					<clipPath id="SVGID_82_">
						<use xlink:href="#SVGID_81_"  style="overflow:visible;"/>
					</clipPath>
					<g class="st59">
						<path class="st46" d="M178.3,180.1l-9.8-9.3c0.8-1.9,1.4-4.2,1-4.5l9.8,9.3C179.7,176,179.2,178.3,178.3,180.1"/>
					</g>
				</g>
				<g class="st0">
					<defs>
						<path id="SVGID_83_" class="st0" d="M191.1,185.3l-9.8-9.3c0,0-0.1-0.1-0.1-0.1c-0.7-0.7-0.7-1.7-0.9-3.6
							c-0.1-1.1-0.3-5,1.9-9.1c3.2-5.9,7.9-5.7,8.2-9.4c0.1-1.6-0.7-1.5-2.7-7.2c-1-2.9-1.1-4-1.5-4.3l9.8,9.3
							c0.4,0.4,0.5,1.4,1.5,4.3c1.9,5.6,2.8,5.6,2.7,7.2c-0.3,3.7-5.1,3.5-8.2,9.4c-2.2,4.1-2,8.1-1.9,9.1c0.1,1.9,0.2,2.9,0.9,3.6
							C191,185.2,191,185.2,191.1,185.3z"/>
					</defs>
					<clipPath id="SVGID_84_">
						<use xlink:href="#SVGID_83_"  style="overflow:visible;"/>
					</clipPath>
					<g class="st60">
						<path class="st46" d="M191.1,185.3l-9.8-9.3c0,0-0.1-0.1-0.1-0.1c-0.7-0.7-0.7-1.7-0.9-3.6c-0.1-1.1-0.3-5,1.9-9.1
							c0.7-1.3,1.5-2.3,2.2-3.1l9.8,9.3c-0.8,0.8-1.5,1.8-2.2,3.1c-2.2,4.1-2,8.1-1.9,9.1c0.1,1.9,0.2,2.9,0.9,3.6
							C191,185.2,191,185.2,191.1,185.3"/>
						<path class="st47" d="M194.2,169.3l-9.8-9.3c0.7-0.7,1.3-1.2,2-1.7l9.8,9.3C195.6,168.1,194.9,168.6,194.2,169.3"/>
						<path class="st48" d="M196.2,167.6l-9.8-9.3c0.7-0.5,1.3-0.9,1.9-1.4l9.8,9.3C197.5,166.7,196.9,167.1,196.2,167.6"/>
						<path class="st47" d="M198.1,166.2l-9.8-9.3c0.4-0.3,0.7-0.6,1-0.9l9.8,9.3C198.8,165.7,198.5,165.9,198.1,166.2"/>
						<path class="st46" d="M199.1,165.3l-9.8-9.3c0.6-0.6,1-1.3,1.1-2.3c0.1-1.6-0.7-1.5-2.7-7.2c-1-2.9-1.1-4-1.5-4.3l9.8,9.3
							c0.4,0.4,0.5,1.4,1.5,4.3c1.9,5.6,2.8,5.6,2.7,7.2C200.1,164,199.7,164.7,199.1,165.3"/>
					</g>
				</g>
				<g class="st0">
					<defs>
						<path id="SVGID_85_" class="st0" d="M181.2,159.2l-9.8-9.3c0.3,0.2,0.9,0.8,1.8,0.8l9.8,9.3
							C182.1,160,181.5,159.4,181.2,159.2z"/>
					</defs>
					<clipPath id="SVGID_86_">
						<use xlink:href="#SVGID_85_"  style="overflow:visible;"/>
					</clipPath>
					<g class="st61">
						<path class="st51" d="M181.2,159.2l-9.8-9.3c0.1,0.1,0.2,0.2,0.3,0.3l9.8,9.3C181.4,159.3,181.3,159.2,181.2,159.2"/>
						<path class="st50" d="M181.5,159.4l-9.8-9.3c0.3,0.2,0.8,0.5,1.3,0.6l9.8,9.3C182.3,159.9,181.8,159.7,181.5,159.4"/>
						<path class="st51" d="M182.9,160l-9.8-9.3c0.1,0,0.1,0,0.2,0l9.8,9.3C183,160,182.9,160,182.9,160"/>
					</g>
				</g>
				<g class="st0">
					<defs>
						<path id="SVGID_87_" class="st0" d="M163.3,192.1l-9.8-9.3c-0.2-0.2-0.3-0.3-0.5-0.5c-0.8-1.1-0.9-2.3-0.9-2.7
							c-0.3-7.1,12.8-9.6,14.7-18.7c1-4.7-1.5-9.2-3.3-10.9l9.8,9.3c1.8,1.7,4.3,6.2,3.3,10.9c-1.9,9-15,11.6-14.7,18.7
							c0,0.4,0.1,1.6,0.9,2.7C163,191.8,163.1,191.9,163.3,192.1z"/>
					</defs>
					<clipPath id="SVGID_88_">
						<use xlink:href="#SVGID_87_"  style="overflow:visible;"/>
					</clipPath>
					<g class="st62">
						<path class="st46" d="M163.3,192.1l-9.8-9.3c-0.2-0.2-0.3-0.3-0.5-0.5c-0.8-1.1-0.9-2.3-0.9-2.7c-0.1-2,0.9-3.6,2.3-5.1
							l9.8,9.3c-1.5,1.5-2.4,3.1-2.3,5.1c0,0.4,0.1,1.6,0.9,2.7C163,191.8,163.1,191.9,163.3,192.1"/>
						<path class="st47" d="M164.3,183.8l-9.8-9.3c2.4-2.5,6.1-4.6,8.9-7.5l9.8,9.3C170.4,179.2,166.6,181.3,164.3,183.8"/>
						<path class="st46" d="M173.1,176.3l-9.8-9.3c1.6-1.7,3-3.7,3.5-6.1c1-4.7-1.5-9.2-3.3-10.9l9.8,9.3c1.8,1.7,4.3,6.2,3.3,10.9
							C176.1,172.6,174.8,174.6,173.1,176.3"/>
					</g>
				</g>
				<g class="st0">
					<defs>
						<path id="SVGID_89_" class="st0" d="M152.7,180.9l-9.8-9.3c0.1,0.1,0.2,0.1,0.3,0.2l9.8,9.3C152.8,181,152.8,181,152.7,180.9z
							"/>
					</defs>
					<clipPath id="SVGID_90_">
						<use xlink:href="#SVGID_89_"  style="overflow:visible;"/>
					</clipPath>
					<g class="st63">
						<path class="st51" d="M152.7,180.9l-9.8-9.3c0,0,0,0,0.1,0L152.7,180.9C152.7,180.9,152.7,180.9,152.7,180.9"/>
						<path class="st50" d="M152.7,180.9l-9.8-9.3c0.1,0.1,0.1,0.1,0.2,0.1l9.8,9.3C152.9,181,152.8,181,152.7,180.9"/>
					</g>
				</g>
				<g class="st0">
					<defs>
						<path id="SVGID_91_" class="st0" d="M198.4,121.1l9.8,9.3c-1.4-1.3-3.7-1.9-6.1-1.8c-2.8,0.1-5.6,1.1-7,2.9
							c-1.3,1.7-0.9,3.4-1,6.4c-0.3,10.8-6.8,22-11.1,22.2l-9.8-9.3c4.3-0.1,10.8-11.4,11.1-22.2c0.1-3-0.4-4.7,1-6.4
							c1.4-1.8,4.2-2.8,7-2.9C194.7,119.2,197,119.8,198.4,121.1z"/>
					</defs>
					<clipPath id="SVGID_92_">
						<use xlink:href="#SVGID_91_"  style="overflow:visible;"/>
					</clipPath>
					<g class="st64">
						<path class="st51" d="M183,160l-9.8-9.3c0,0,0.1,0,0.1,0l9.8,9.3C183.1,160,183.1,160,183,160"/>
						<path class="st52" d="M183.2,160l-9.8-9.3c0.1,0,0.3,0,0.4-0.1l9.8,9.3C183.5,160,183.3,160,183.2,160"/>
						<path class="st53" d="M183.6,159.9l-9.8-9.3c0.2,0,0.3-0.1,0.5-0.2l9.8,9.3C183.9,159.8,183.8,159.9,183.6,159.9"/>
						<path class="st54" d="M184.1,159.8l-9.8-9.3c0.2-0.1,0.4-0.2,0.6-0.3l9.8,9.3C184.5,159.6,184.3,159.7,184.1,159.8"/>
						<path class="st48" d="M184.7,159.5l-9.8-9.3c0.2-0.1,0.5-0.3,0.8-0.5l9.8,9.3C185.2,159.2,184.9,159.4,184.7,159.5"/>
						<path class="st47" d="M185.4,159l-9.8-9.3c0.4-0.3,0.8-0.7,1.2-1.1l9.8,9.3C186.2,158.3,185.8,158.7,185.4,159"/>
						<path class="st46" d="M186.6,157.9l-9.8-9.3c3.6-3.8,7.3-12,7.5-20.1c0.1-3-0.4-4.7,1-6.4c0.1-0.1,0.2-0.2,0.3-0.4l9.8,9.3
							c-0.1,0.1-0.2,0.2-0.3,0.4c-1.3,1.7-0.9,3.4-1,6.4C193.9,145.9,190.3,154.2,186.6,157.9"/>
						<path class="st47" d="M195.4,131.1l-9.8-9.3c0.2-0.2,0.5-0.4,0.7-0.6l9.8,9.3C195.9,130.7,195.6,130.9,195.4,131.1"/>
						<path class="st48" d="M196.1,130.5l-9.8-9.3c0.3-0.2,0.6-0.4,0.9-0.5l9.8,9.3C196.7,130.1,196.4,130.3,196.1,130.5"/>
						<path class="st54" d="M197,129.9l-9.8-9.3c0.3-0.2,0.7-0.4,1.1-0.5l9.8,9.3C197.7,129.6,197.3,129.7,197,129.9"/>
						<path class="st53" d="M198.1,129.4l-9.8-9.3c0.4-0.2,0.9-0.3,1.4-0.4l9.8,9.3C199,129.1,198.5,129.2,198.1,129.4"/>
						<path class="st52" d="M199.5,129l-9.8-9.3c0.6-0.1,1.2-0.3,1.9-0.3l9.8,9.3C200.7,128.7,200.1,128.8,199.5,129"/>
						<path class="st51" d="M201.3,128.7l-9.8-9.3c0.3,0,0.5,0,0.8,0c0.6,0,1.2,0,1.7,0.1l9.8,9.3c-0.6-0.1-1.2-0.1-1.7-0.1
							C201.8,128.6,201.6,128.6,201.3,128.7"/>
						<path class="st50" d="M203.8,128.7l-9.8-9.3c1.5,0.2,2.9,0.6,4,1.4l9.8,9.3C206.8,129.3,205.4,128.8,203.8,128.7"/>
						<path class="st51" d="M207.8,130.1l-9.8-9.3c0.1,0.1,0.3,0.2,0.4,0.3l9.8,9.3C208,130.3,207.9,130.2,207.8,130.1"/>
					</g>
				</g>
				<g class="st0">
					<defs>
						<path id="SVGID_93_" class="st0" d="M132.4,174.9l9.8,9.3c0.6,0.6-1.7,7.8,1.6,10.8l-9.8-9.3
							C130.7,182.7,133,175.5,132.4,174.9z"/>
					</defs>
					<clipPath id="SVGID_94_">
						<use xlink:href="#SVGID_93_"  style="overflow:visible;"/>
					</clipPath>
					<g class="st65">
						<path class="st46" d="M143.8,195l-9.8-9.3c-3.3-3-1-10.2-1.6-10.8l9.8,9.3C142.8,184.8,140.5,192,143.8,195"/>
					</g>
				</g>
				<g class="st0">
					<defs>
						<path id="SVGID_95_" class="st0" d="M172.3,128.7l9.8,9.3c-1.1-1.1-2.9-1.5-4.8-1.4c-2.1,0.1-4.4,0.8-5.8,2.1
							c-2.5,2.2-2.7,5.7-2.8,7.4c-1.2,16.2-12.7,34.9-15.7,35l-9.8-9.3c3-0.1,14.5-18.9,15.7-35c0.1-1.6,0.3-5.2,2.8-7.4
							c1.5-1.3,3.7-2,5.8-2.1C169.4,127.2,171.2,127.6,172.3,128.7z"/>
					</defs>
					<clipPath id="SVGID_96_">
						<use xlink:href="#SVGID_95_"  style="overflow:visible;"/>
					</clipPath>
					<g class="st66">
						<path class="st51" d="M153,181l-9.8-9.3c0,0,0,0,0.1,0L153,181C153,181,153,181,153,181"/>
						<path class="st52" d="M153,181l-9.8-9.3c0.1,0,0.1,0,0.2,0l9.8,9.3C153.1,181,153.1,181,153,181"/>
						<path class="st53" d="M153.2,181l-9.8-9.3c0.1,0,0.1,0,0.2-0.1l9.8,9.3C153.3,181,153.2,181,153.2,181"/>
						<path class="st54" d="M153.3,180.9l-9.8-9.3c0.1,0,0.2-0.1,0.3-0.1l9.8,9.3C153.5,180.9,153.4,180.9,153.3,180.9"/>
						<path class="st48" d="M153.6,180.8l-9.8-9.3c0.1-0.1,0.3-0.2,0.4-0.3l9.8,9.3C153.9,180.6,153.7,180.7,153.6,180.8"/>
						<path class="st47" d="M154,180.5l-9.8-9.3c0.3-0.2,0.6-0.5,0.9-0.9l9.8,9.3C154.6,180,154.3,180.3,154,180.5"/>
						<path class="st46" d="M154.9,179.7l-9.8-9.3c4.4-4.6,12.7-20.1,13.7-33.7c0.1-1.5,0.3-4.8,2.4-7l9.8,9.3
							c-2.1,2.2-2.3,5.4-2.4,7C167.6,159.6,159.3,175.1,154.9,179.7"/>
						<path class="st47" d="M171.1,139l-9.8-9.3c0.1-0.1,0.3-0.3,0.4-0.4c0.1-0.1,0.3-0.2,0.4-0.3l9.8,9.3c-0.1,0.1-0.3,0.2-0.4,0.3
							C171.3,138.8,171.2,138.9,171.1,139"/>
						<path class="st48" d="M171.9,138.3l-9.8-9.3c0.3-0.2,0.6-0.4,0.9-0.6l9.8,9.3C172.4,137.9,172.1,138.1,171.9,138.3"/>
						<path class="st54" d="M172.7,137.8l-9.8-9.3c0.3-0.2,0.7-0.4,1.1-0.5l9.8,9.3C173.4,137.4,173.1,137.6,172.7,137.8"/>
						<path class="st53" d="M173.8,137.3L164,128c0.4-0.2,0.9-0.3,1.3-0.4l9.8,9.3C174.7,137,174.2,137.1,173.8,137.3"/>
						<path class="st52" d="M175.1,136.9l-9.8-9.3c0.5-0.1,1.1-0.2,1.6-0.3l9.8,9.3C176.2,136.6,175.6,136.7,175.1,136.9"/>
						<path class="st51" d="M176.7,136.6l-9.8-9.3c0.2,0,0.4,0,0.6,0c0.5,0,0.9,0,1.3,0l9.8,9.3c-0.4,0-0.9-0.1-1.3,0
							C177.1,136.5,176.9,136.6,176.7,136.6"/>
						<path class="st50" d="M178.6,136.6l-9.8-9.3c1.2,0.1,2.3,0.5,3.1,1.1l9.8,9.3C180.9,137.1,179.8,136.7,178.6,136.6"/>
						<path class="st51" d="M181.7,137.7l-9.8-9.3c0.1,0.1,0.2,0.2,0.3,0.3l9.8,9.3C182,137.9,181.9,137.8,181.7,137.7"/>
					</g>
				</g>
				<g class="st0">
					<defs>
						<path id="SVGID_97_" class="st0" d="M151.3,156.5l-9.8-9.3c0,0,0,0,0.1,0.1c0.3,0.3,0.7,0.4,1.2,0.4c0.5,0,1.1-0.2,1.7-0.4
							c0.6-0.2,1.1-0.4,1.7-0.4c0.3,0,0.7,0,0.9,0.2c0.1,0.1,0.2,0.1,0.2,0.2l9.8,9.3c-0.1-0.1-0.1-0.1-0.2-0.2
							c-0.3-0.2-0.6-0.2-0.9-0.2c-0.5,0-1.1,0.2-1.7,0.4c-0.6,0.2-1.1,0.4-1.7,0.4C152.1,157,151.7,156.9,151.3,156.5
							C151.3,156.6,151.3,156.5,151.3,156.5z"/>
					</defs>
					<clipPath id="SVGID_98_">
						<use xlink:href="#SVGID_97_"  style="overflow:visible;"/>
					</clipPath>
					<g class="st67">
						<path class="st51" d="M151.3,156.5l-9.8-9.3c0,0,0,0,0.1,0.1c0,0,0,0,0,0l9.8,9.3C151.4,156.6,151.4,156.6,151.3,156.5
							C151.3,156.6,151.3,156.5,151.3,156.5"/>
						<path class="st50" d="M151.4,156.6l-9.8-9.3c0.2,0.2,0.5,0.3,0.8,0.3l9.8,9.3C151.9,156.9,151.7,156.8,151.4,156.6"/>
						<path class="st51" d="M152.2,156.9l-9.8-9.3c0.1,0,0.2,0,0.3,0c0.1,0,0.1,0,0.2,0l9.8,9.3c-0.1,0-0.1,0-0.2,0
							C152.4,157,152.3,157,152.2,156.9"/>
						<path class="st52" d="M152.7,156.9l-9.8-9.3c0.2,0,0.4-0.1,0.6-0.1l9.8,9.3C153.1,156.9,152.9,156.9,152.7,156.9"/>
						<path class="st53" d="M153.3,156.8l-9.8-9.3c0.3-0.1,0.6-0.2,0.9-0.3c0.3-0.1,0.6-0.2,0.9-0.3l9.8,9.3
							c-0.3,0.1-0.6,0.2-0.9,0.3C153.9,156.7,153.6,156.8,153.3,156.8"/>
						<path class="st52" d="M155.1,156.3l-9.8-9.3c0.2,0,0.4-0.1,0.6-0.1l9.8,9.3C155.5,156.2,155.3,156.2,155.1,156.3"/>
						<path class="st51" d="M155.7,156.2l-9.8-9.3c0.1,0,0.1,0,0.2,0c0.1,0,0.2,0,0.3,0l9.8,9.3c-0.1,0-0.2,0-0.3,0
							C155.8,156.2,155.8,156.2,155.7,156.2"/>
						<path class="st50" d="M156.2,156.2l-9.8-9.3c0.2,0,0.4,0.1,0.6,0.2c0,0,0.1,0,0.1,0.1l9.8,9.3c0,0-0.1,0-0.1-0.1
							C156.6,156.3,156.4,156.2,156.2,156.2"/>
						<path class="st51" d="M156.9,156.5l-9.8-9.3c0,0,0.1,0.1,0.1,0.1l9.8,9.3C157,156.5,156.9,156.5,156.9,156.5"/>
					</g>
				</g>
				<g class="st0">
					<defs>
						<path id="SVGID_99_" class="st0" d="M130.9,184.3l-9.8-9.3c0.1,0.1,0.2,0.1,0.3,0.2c0.1,0,0.2,0,0.3,0c0.2,0,0.3,0,0.6-0.1
							c0.1,0,1.9-0.3,3.6-1.9c2.7-2.6,2.9-9.3,6.5-16.6l9.8,9.3c-3.6,7.3-3.8,13.9-6.5,16.6c-1.7,1.6-3.5,1.9-3.6,1.9
							c-0.3,0-0.5,0.1-0.6,0.1c-0.1,0-0.2,0-0.3,0C131.1,184.5,131,184.4,130.9,184.3z"/>
					</defs>
					<clipPath id="SVGID_100_">
						<use xlink:href="#SVGID_99_"  style="overflow:visible;"/>
					</clipPath>
					<g class="st68">
						<path class="st51" d="M130.9,184.3l-9.8-9.3c0,0,0.1,0.1,0.1,0.1l9.8,9.3C131,184.4,131,184.4,130.9,184.3"/>
						<path class="st50" d="M131,184.4l-9.8-9.3c0,0,0.1,0.1,0.2,0.1c0,0,0.1,0,0.2,0l9.8,9.3c-0.1,0-0.1,0-0.2,0
							C131.1,184.5,131.1,184.5,131,184.4"/>
						<path class="st51" d="M131.3,184.6l-9.8-9.3c0,0,0.1,0,0.1,0c0,0,0.1,0,0.1,0l9.8,9.3c0,0-0.1,0-0.1,0
							C131.4,184.6,131.4,184.6,131.3,184.6"/>
						<path class="st52" d="M131.6,184.5l-9.8-9.3c0.1,0,0.3,0,0.5-0.1c0,0,0.1,0,0.3-0.1l9.8,9.3c-0.2,0-0.3,0.1-0.3,0.1
							C131.9,184.5,131.7,184.5,131.6,184.5"/>
						<path class="st53" d="M132.4,184.4l-9.8-9.3c0.2,0,0.5-0.1,0.8-0.3l9.8,9.3C132.9,184.3,132.6,184.4,132.4,184.4"/>
						<path class="st54" d="M133.2,184.1l-9.8-9.3c0.3-0.1,0.6-0.2,0.9-0.4l9.8,9.3C133.8,183.9,133.5,184,133.2,184.1"/>
						<path class="st48" d="M134.1,183.7l-9.8-9.3c0.3-0.2,0.6-0.3,0.9-0.6l9.8,9.3C134.7,183.4,134.4,183.6,134.1,183.7"/>
						<path class="st47" d="M135,183.2l-9.8-9.3c0.2-0.2,0.5-0.4,0.7-0.6c0,0,0.1-0.1,0.1-0.1l9.8,9.3c0,0-0.1,0.1-0.1,0.1
							C135.5,182.8,135.2,183,135,183.2"/>
						<path class="st46" d="M135.9,182.4l-9.8-9.3c2.6-2.7,2.8-9.3,6.4-16.4l9.8,9.3C138.7,173.1,138.5,179.7,135.9,182.4"/>
					</g>
				</g>
				<g class="st0">
					<defs>
						<path id="SVGID_101_" class="st0" d="M134.7,145l9.8,9.3c0.4,0.3,0.6,1.1,0.6,2.5c0,3.9-1.9,7.4-2.8,9.2l-9.8-9.3
							c0.9-1.8,2.8-5.3,2.8-9.2C135.3,146.1,135,145.3,134.7,145z"/>
					</defs>
					<clipPath id="SVGID_102_">
						<use xlink:href="#SVGID_101_"  style="overflow:visible;"/>
					</clipPath>
					<g class="st69">
						<path class="st46" d="M142.2,166l-9.8-9.3c0.9-1.8,2.8-5.3,2.8-9.2c0-1.5-0.3-2.2-0.6-2.5l9.8,9.3c0.4,0.3,0.6,1.1,0.6,2.5
							C145,160.7,143.1,164.2,142.2,166"/>
					</g>
				</g>
				<g class="st0">
					<defs>
						<path id="SVGID_103_" class="st0" d="M124.6,196.9l-9.8-9.3c-3.6-3.4-4.5-9.6-4.3-13.8c0.1-1.2,0.2-1.1,1-7.3
							c0.5-4.3,0.8-6.6,0.2-7.2l9.8,9.3c0.6,0.5,0.3,2.9-0.2,7.2c-0.8,6.2-0.9,6.1-1,7.3C120,187.3,121,193.5,124.6,196.9z"/>
					</defs>
					<clipPath id="SVGID_104_">
						<use xlink:href="#SVGID_103_"  style="overflow:visible;"/>
					</clipPath>
					<g class="st70">
						<path class="st46" d="M124.6,196.9l-9.8-9.3c-3.6-3.4-4.5-9.6-4.3-13.8c0.1-1.2,0.2-1.1,1-7.3c0.5-4.3,0.8-6.6,0.2-7.2
							l9.8,9.3c0.6,0.5,0.3,2.9-0.2,7.2c-0.8,6.2-0.9,6.1-1,7.3C120,187.3,121,193.5,124.6,196.9"/>
					</g>
				</g>
				<g class="st0">
					<defs>
						<path id="SVGID_105_" class="st0" d="M117.1,149.1C117.1,149.1,117.1,149.1,117.1,149.1c3.3,3.1,6.5,6.2,9.8,9.3
							C123.6,155.3,120.4,152.2,117.1,149.1z"/>
					</defs>
					<clipPath id="SVGID_106_">
						<use xlink:href="#SVGID_105_"  style="overflow:visible;"/>
					</clipPath>
					<g class="st71">
						<path class="st46" d="M126.1,159.3l-9.8-9.3c0.3-0.3,0.6-0.6,0.8-0.9c1-1.2,1.9-2.4,2.6-3.6l9.8,9.3c-0.7,1.2-1.6,2.4-2.6,3.6
							C126.6,158.7,126.3,159,126.1,159.3"/>
					</g>
				</g>
				<g class="st0">
					<defs>
						<path id="SVGID_107_" class="st0" d="M117.1,149.1c1-1.2,1.9-2.4,2.6-3.6l9.8,9.3c-0.7,1.2-1.6,2.4-2.6,3.6
							C123.6,155.3,120.4,152.2,117.1,149.1z"/>
					</defs>
					<clipPath id="SVGID_108_">
						<use xlink:href="#SVGID_107_"  style="overflow:visible;"/>
					</clipPath>
					<g class="st72">
						<path class="st46" d="M126.1,159.3l-9.8-9.3c0.3-0.3,0.6-0.6,0.8-0.9c1-1.2,1.9-2.4,2.6-3.6l9.8,9.3c-0.7,1.2-1.6,2.4-2.6,3.6
							C126.6,158.7,126.3,159,126.1,159.3"/>
					</g>
				</g>
				<g>
					<path class="st73" d="M126.9,158.4c0.7-1.1,1.5-2.2,2.5-3.5L126.9,158.4z"/>
				</g>
				<g class="st0">
					<defs>
						<path id="SVGID_109_" class="st0" d="M126.9,158.4l-9.8-9.3c0.7-1.1,1.5-2.2,2.5-3.5l9.8,9.3
							C128.4,156.1,127.6,157.3,126.9,158.4z"/>
					</defs>
					<clipPath id="SVGID_110_">
						<use xlink:href="#SVGID_109_"  style="overflow:visible;"/>
					</clipPath>
					<g class="st74">
						<path class="st46" d="M126.9,158.4l-9.8-9.3c0.7-1.1,1.5-2.2,2.5-3.5l9.8,9.3C128.4,156.1,127.6,157.3,126.9,158.4"/>
					</g>
				</g>
				<g>
					<polygon class="st73" points="129.6,154.6 129.5,154.8 129.4,154.9 					"/>
				</g>
				<g class="st0">
					<defs>
						<path id="SVGID_111_" class="st0" d="M129.5,154.8l-9.8-9.3c1.5-1.7,3.3-3.4,5.6-4.9c2.8-1.8,7.3-4,10.6-4.1
							c1.2,0,2.3,0.2,3,0.9l9.8,9.3c-0.7-0.7-1.8-0.9-3-0.9c-3.3,0.1-7.8,2.3-10.6,4.1C132.8,151.4,131,153.1,129.5,154.8z"/>
					</defs>
					<clipPath id="SVGID_112_">
						<use xlink:href="#SVGID_111_"  style="overflow:visible;"/>
					</clipPath>
					<g class="st75">
						<path class="st46" d="M129.5,154.8l-9.8-9.3c0.3-0.4,0.7-0.7,1-1.1l9.8,9.3C130.2,154.1,129.8,154.4,129.5,154.8"/>
						<path class="st47" d="M130.5,153.7l-9.8-9.3c0.9-1,2-1.9,3.2-2.8l9.8,9.3C132.5,151.8,131.5,152.7,130.5,153.7"/>
						<path class="st48" d="M133.7,150.9l-9.8-9.3c0.4-0.3,0.9-0.6,1.4-1c0.6-0.4,1.2-0.7,1.8-1.1l9.8,9.3c-0.7,0.4-1.3,0.7-1.8,1.1
							C134.6,150.2,134.2,150.5,133.7,150.9"/>
						<path class="st54" d="M137,148.8l-9.8-9.3c1.1-0.6,2.4-1.2,3.7-1.8l9.8,9.3C139.4,147.5,138.1,148.2,137,148.8"/>
						<path class="st53" d="M140.7,147l-9.8-9.3c0.9-0.4,1.8-0.7,2.7-0.9l9.8,9.3C142.5,146.4,141.6,146.7,140.7,147"/>
						<path class="st52" d="M143.4,146.2l-9.8-9.3c0.6-0.2,1.3-0.3,1.8-0.3l9.8,9.3C144.6,145.9,144,146,143.4,146.2"/>
						<path class="st51" d="M145.2,145.8l-9.8-9.3c0.2,0,0.3,0,0.5,0c0.3,0,0.6,0,0.9,0l9.8,9.3c-0.3,0-0.6,0-0.9,0
							C145.5,145.8,145.4,145.8,145.2,145.8"/>
						<path class="st50" d="M146.6,145.8l-9.8-9.3c0.7,0.1,1.4,0.3,1.9,0.7l9.8,9.3C148,146.1,147.4,145.9,146.6,145.8"/>
						<path class="st51" d="M148.5,146.5l-9.8-9.3c0.1,0.1,0.1,0.1,0.2,0.2l9.8,9.3C148.7,146.6,148.6,146.6,148.5,146.5"/>
					</g>
				</g>
				<g>
					<polygon class="st76" points="129.4,154.9 119.7,145.6 119.9,145.3 129.6,154.6 					"/>
				</g>
				<g class="st0">
					<defs>
						<path id="SVGID_113_" class="st0" d="M86.2,205.7l-9.8-9.3c0.1,0.1,0.2,0.2,0.4,0.3c0.9,0.6,1.9,0.8,3,0.8
							c2.7-0.1,5.5-1.7,6.1-2c3.1-1.8,4.7-4.2,7.3-8.4c2.1-3.3,3.8-6.1,4.6-10.1c0.6-3.2,0.8-7.7-0.4-8.8l9.8,9.3
							c1.2,1.1,1.1,5.6,0.4,8.8c-0.8,4-2.5,6.8-4.6,10.1c-2.7,4.2-4.2,6.6-7.3,8.4c-0.6,0.3-3.4,1.9-6.1,2c-1.1,0-2.1-0.2-3-0.8
							C86.5,205.9,86.3,205.8,86.2,205.7z"/>
					</defs>
					<clipPath id="SVGID_114_">
						<use xlink:href="#SVGID_113_"  style="overflow:visible;"/>
					</clipPath>
					<g class="st77">
						<path class="st51" d="M86.2,205.7l-9.8-9.3c0.1,0.1,0.2,0.2,0.3,0.3l9.8,9.3C86.4,205.9,86.3,205.8,86.2,205.7"/>
						<path class="st50" d="M86.5,206l-9.8-9.3c0,0,0,0,0.1,0.1c0.6,0.4,1.3,0.7,2.1,0.8l9.8,9.3C87.9,206.7,87.2,206.5,86.5,206
							C86.6,206,86.5,206,86.5,206"/>
						<path class="st51" d="M88.7,206.8l-9.8-9.3c0.3,0,0.6,0,0.9,0c0.2,0,0.3,0,0.5,0l9.8,9.3c-0.2,0-0.3,0-0.5,0
							C89.3,206.8,89,206.8,88.7,206.8"/>
						<path class="st52" d="M90,206.8l-9.8-9.3c0.5,0,1-0.1,1.5-0.3l9.8,9.3C91,206.7,90.5,206.7,90,206.8"/>
						<path class="st53" d="M91.5,206.5l-9.8-9.3c0.6-0.2,1.3-0.4,1.8-0.6l9.8,9.3C92.7,206.2,92.1,206.4,91.5,206.5"/>
						<path class="st54" d="M93.3,205.9l-9.8-9.3c1-0.4,1.8-0.8,2.2-1l9.8,9.3C95.1,205.1,94.3,205.6,93.3,205.9"/>
						<path class="st48" d="M95.5,204.9l-9.8-9.3c0.1,0,0.1-0.1,0.2-0.1c0.5-0.3,0.9-0.6,1.3-0.9l9.8,9.3c-0.4,0.3-0.9,0.6-1.3,0.9
							C95.6,204.8,95.5,204.9,95.5,204.9"/>
						<path class="st47" d="M97,203.9l-9.8-9.3c0.6-0.4,1.1-0.9,1.6-1.4l9.8,9.3C98.1,203,97.6,203.5,97,203.9"/>
						<path class="st46" d="M98.6,202.5l-9.8-9.3c1.5-1.5,2.7-3.5,4.4-6.1c2.1-3.3,3.8-6.1,4.6-10.1c0.6-3.2,0.8-7.7-0.4-8.8
							l9.8,9.3c1.2,1.1,1.1,5.6,0.4,8.8c-0.8,4-2.5,6.8-4.6,10.1C101.3,199,100.1,201,98.6,202.5"/>
					</g>
				</g>
				<g class="st0">
					<defs>
						<path id="SVGID_115_" class="st0" d="M102,162.4c-0.6-1-1.3-2.1-2.1-3.1c3.3,3.1,6.5,6.2,9.8,9.3c0.8,1.1,1.5,2.1,2.1,3.1
							C108.9,168.9,104.6,165.5,102,162.4z"/>
					</defs>
					<clipPath id="SVGID_116_">
						<use xlink:href="#SVGID_115_"  style="overflow:visible;"/>
					</clipPath>
					<g class="st78">
						<path class="st46" d="M111.8,171.7l-9.8-9.3c-0.6-1-1.3-2.1-2.1-3.1l9.8,9.3C110.5,169.6,111.2,170.7,111.8,171.7"/>
					</g>
				</g>
				<g class="st0">
					<defs>
						<path id="SVGID_117_" class="st0" d="M99.9,159.3c1-2.6,10.4-2.3,17.2-10.2c3.3,3.1,6.5,6.2,9.8,9.3
							c-6.8,7.9-16.3,7.6-17.2,10.2C106.7,165.8,102.8,162.1,99.9,159.3z"/>
					</defs>
					<clipPath id="SVGID_118_">
						<use xlink:href="#SVGID_117_"  style="overflow:visible;"/>
					</clipPath>
					<g class="st79">
						<path class="st46" d="M109.7,168.6l-9.8-9.3c0.1-0.2,0.2-0.4,0.3-0.5l9.8,9.3C109.8,168.2,109.7,168.4,109.7,168.6"/>
						<path class="st47" d="M110,168.1l-9.8-9.3c0.1-0.1,0.2-0.2,0.3-0.3l9.8,9.3C110.2,167.9,110.1,168,110,168.1"/>
						<path class="st48" d="M110.3,167.8l-9.8-9.3c0.1-0.1,0.3-0.2,0.5-0.3l9.8,9.3C110.6,167.6,110.5,167.7,110.3,167.8"/>
						<path class="st54" d="M110.8,167.4l-9.8-9.3c0.3-0.2,0.7-0.4,1.2-0.5l9.8,9.3C111.6,167.1,111.2,167.3,110.8,167.4"/>
						<path class="st53" d="M112,166.9l-9.8-9.3c1.3-0.5,3-1,4.8-1.7l9.8,9.3C115,165.9,113.3,166.4,112,166.9"/>
						<path class="st54" d="M116.9,165.2l-9.8-9.3c1.2-0.5,2.4-1,3.7-1.7l9.8,9.3C119.3,164.1,118.1,164.7,116.9,165.2"/>
						<path class="st48" d="M120.6,163.4l-9.8-9.3c0.9-0.5,1.9-1.1,2.8-1.8l9.8,9.3C122.4,162.3,121.5,162.9,120.6,163.4"/>
						<path class="st47" d="M123.4,161.6l-9.8-9.3c0.9-0.7,1.8-1.5,2.7-2.4l9.8,9.3C125.2,160.2,124.3,161,123.4,161.6"/>
						<path class="st46" d="M126.1,159.3l-9.8-9.3c0.3-0.3,0.6-0.6,0.8-0.9c1-1.2,1.9-2.4,2.6-3.6l9.8,9.3c-0.7,1.2-1.6,2.4-2.6,3.6
							C126.6,158.7,126.3,159,126.1,159.3"/>
					</g>
				</g>
				<g>
					<path class="st73" d="M247.4,160.5c0.8,0.9,7.5,9.2,4.4,16.2c-0.6,1.3-1.3,2.1-2.8,3.7c-2.7,3-6.6,5.9-8.4,5.9
						c-0.3,0-0.5,0-0.7-0.2c-0.6-0.5-0.3-1.9,0-2.7c0.8-2,2.7-2,4.6-3.8c1.8-1.7,2.8-4.2,2.8-6.4c-0.1-2.6-1.6-4.2-3.6-6.2
						c-1.2-1.3-4.9-5-10.8-6c-0.8-0.1-1.3-0.2-1.8-0.1c-0.6,0-1.1,0.1-2.1,0.2c-0.9,0.1-2.1,0.2-3.8,0.2c-0.1,0-0.3,0-0.4,0
						c-5.9,0.2-8.4-0.3-9.9-0.2c-0.8,0-1.3,0.2-1.8,0.6c-3.9,2.9,1,9.8-2.9,16.4c-3,5.1-9.9,8.1-14.7,8.3c-2,0.1-3.6-0.3-4.4-1.2
						c-0.7-0.7-0.7-1.7-0.9-3.6c-0.1-1.1-0.3-5,1.9-9.1c3.2-5.9,7.9-5.7,8.2-9.4c0.1-1.6-0.7-1.5-2.7-7.2c-1.2-3.5-1.1-4.3-1.8-4.5
						c-2.7,0-8.3,7-9.2,14.8c-0.8,7.3,3.2,8.8,1.7,14.5c-1.8,6.8-9.3,11-14.6,12.3c-0.6,0.1-2.5,0.6-4.6,0.7
						c-2.3,0.1-4.9-0.3-6.3-2.1c-0.8-1.1-0.9-2.3-0.9-2.7c-0.3-7.1,12.8-9.6,14.7-18.7c1.2-5.8-2.9-11.3-4.4-11.6
						c-0.2,0-0.8-0.2-1.2-0.2c-0.3,0-0.5,0.1-0.6,0.2c-0.1,0.9-2.6,9.3-6.5,16.6c-1,1.9-1.7,3-2.1,3.5c-0.9,1.3-1.3,1.6-2.1,2.8
						c-1.1,1.6-1.7,2.8-2.2,3.8c-3.2,6.2-4.8,9.3-6.4,10.2c-0.9,0.4-1.9,0.7-2.9,0.7c-1.6,0.1-3.2-0.4-4.3-1.4
						c-3.4-3.1-0.8-10.7-1.7-10.8c-0.6,0-1.5,3-3.7,7.4c-3.2,6.4-4.9,7.2-5.5,7.5c-0.7,0.3-1.3,0.4-2,0.4c-2.1,0.1-4-0.9-4.3-1.1
						c-5.1-2.7-6.5-10.3-6.2-15.2c0.1-1.2,0.2-1.1,1-7.3c0.6-4.6,0.8-7,0.1-7.3c-0.4,0-0.9,0.5-2.7,1.9c-1.5,1.2-2.3,1.7-2.7,1.9
						c-0.3,0.1-0.6,0.2-1,0.2c-1,0-2.2-0.3-3.1-0.8c-0.6-1-1.3-2.1-2.1-3.1c1-2.6,10.4-2.3,17.2-10.2c1-1.2,1.9-2.4,2.6-3.6
						c1.5-1.7,3.3-3.4,5.6-4.9c2.8-1.8,7.3-4,10.6-4.1c1.2,0,2.3,0.2,3,0.9c1.1,1,1.4,3.1,1.8,5.4c0.4,2.7,0,3.8,0.9,4.5
						c0.3,0.3,0.7,0.4,1.2,0.4c0.5,0,1.1-0.2,1.7-0.4c0.6-0.2,1.1-0.4,1.7-0.4c0.3,0,0.7,0,0.9,0.2c2.1,1.3,1.3,8.7-1.9,14.6
						c-1.4,2.6-3.5,5.2-2.8,8.3c0.2,0.8,0.4,1.7,0.9,1.8c3-0.1,14.5-18.9,15.7-35c0.1-1.6,0.3-5.2,2.8-7.4c1.5-1.3,3.7-2,5.8-2.1
						c2-0.1,4,0.5,5,1.7c4,4.6-5.5,16.8-1.1,20.9c0.3,0.2,0.9,0.8,1.8,0.8c4.3-0.1,10.8-11.4,11.1-22.2c0.1-3-0.4-4.7,1-6.4
						c1.4-1.8,4.2-2.8,7-2.9c2.7-0.1,5.4,0.7,6.6,2.4c3.1,4.3-5.3,11.7-2,21.8c0.6,1.8,0.9,2.8,1.8,3.6c1,0.9,2.3,1.3,3.8,1.2
						c2.4-0.1,5.3-1.2,8.6-2.3c3.3-1.1,6.9-2.3,10.8-2.4c1.9-0.1,3.9,0.1,5.9,0.7C242.9,155.2,246.1,159,247.4,160.5z M142.2,166
						c0.9-1.8,2.8-5.3,2.8-9.2c0-1.8-0.4-2.5-0.9-2.7c-0.1,0-0.3-0.1-0.5-0.1c-0.4,0-1.1,0.2-2.2,1.1c-2.9,2.3-4.5,5.8-7.4,13
						c-1.1,2.8-1.7,4.2-1.9,4.6c-1.5,4.5-2.7,11.1-1,11.8c0.1,0,0.2,0,0.3,0c0.2,0,0.3,0,0.6-0.1c0.1,0,1.9-0.3,3.6-1.9
						C138.5,179.9,138.6,173.2,142.2,166 M202.8,174.8c0.3-0.4,2.3-2.8,1.9-5.5c0-0.3-0.2-1.7-0.9-1.8c0,0-0.1,0-0.1,0
						c-0.5,0-1,0.8-1.7,1.9c-2.3,3.2-2.7,2.8-3.7,4.7c-0.9,1.8-1.5,4.2-0.9,4.6c0,0,0.1,0,0.1,0c0.2,0,0.7-0.3,1.7-1
						C201.3,176,202.4,175.3,202.8,174.8 M178.3,180.1c0.9-1.9,1.4-4.4,0.9-4.6c0,0,0,0-0.1,0c-0.3,0-0.7,0.6-1.8,1.9
						c-2.2,2.6-3.4,3.6-5.5,6.5c-0.8,1.1-1.1,1.6-0.9,1.8c0.1,0.1,0.3,0.2,0.5,0.2c0.7,0,2.1-0.5,3.1-1.2
						C176.8,183.4,177.8,181.3,178.3,180.1"/>
				</g>
				<g class="st0">
					<defs>
						<path id="SVGID_119_" class="st0" d="M75.4,216.6l-9.8-9.3c-3.6-3.4-4.9-9.6-4.1-14.6c0.1-0.6,2-12.5,22-23.4
							c0.5-0.3,3.1-1.6,6.4-3.9c1.2-0.8,2.2-1.5,2.7-1.9l9.8,9.3c-0.6,0.4-1.5,1.1-2.7,1.9c-3.3,2.2-5.9,3.6-6.4,3.9
							c-20,10.9-21.9,22.8-22,23.4C70.4,207,71.7,213.2,75.4,216.6z"/>
					</defs>
					<clipPath id="SVGID_120_">
						<use xlink:href="#SVGID_119_"  style="overflow:visible;"/>
					</clipPath>
					<g class="st80">
						<path class="st46" d="M75.4,216.6l-9.8-9.3c-3.6-3.4-4.9-9.6-4.1-14.6c0.1-0.4,0.9-5.9,7.6-12.8l9.8,9.3
							c-6.7,6.9-7.5,12.4-7.6,12.8C70.4,207,71.7,213.2,75.4,216.6"/>
						<path class="st47" d="M78.8,189.2l-9.8-9.3c1.7-1.7,3.7-3.5,6.1-5.4l9.8,9.3C82.5,185.7,80.5,187.5,78.8,189.2"/>
						<path class="st48" d="M85,183.8l-9.8-9.3c2.3-1.7,4.9-3.4,7.9-5.1l9.8,9.3C89.8,180.4,87.2,182.1,85,183.8"/>
						<path class="st54" d="M92.9,178.7l-9.8-9.3c0.1-0.1,0.2-0.1,0.3-0.2c0.1-0.1,0.3-0.2,0.6-0.3l9.8,9.3
							c-0.3,0.1-0.5,0.3-0.6,0.3C93.1,178.6,93,178.7,92.9,178.7"/>
						<path class="st48" d="M93.7,178.3L84,169c1-0.6,3.2-1.8,5.8-3.5c1.2-0.8,2.2-1.5,2.7-1.9l9.8,9.3c-0.6,0.4-1.5,1.1-2.7,1.9
							C96.9,176.5,94.8,177.7,93.7,178.3"/>
					</g>
				</g>
				<g class="st0">
					<defs>
						<path id="SVGID_121_" class="st0" d="M115.1,131.4l-9.8-9.3c1.8,1.7,5.9,2.6,11.4,2.4c9.2-0.3,22.2-3.8,33.4-12
							c4.9-3.6,11.9-9.8,13.8-17.7c0.9-3.9,0.3-6.5,0.1-7.3c-0.1-0.4-1-3.6-3.7-6.1l9.8,9.3c2.6,2.5,3.5,5.7,3.7,6.1
							c0.2,0.7,0.9,3.4-0.1,7.3c-1.9,7.9-8.8,14.1-13.8,17.7c-11.2,8.2-24.2,11.7-33.4,12C121,134,116.9,133.1,115.1,131.4z"/>
					</defs>
					<clipPath id="SVGID_122_">
						<use xlink:href="#SVGID_121_"  style="overflow:visible;"/>
					</clipPath>
					<g class="st81">
						<path class="st51" d="M115.1,131.4l-9.8-9.3c0.1,0.1,0.2,0.2,0.4,0.3l9.8,9.3C115.3,131.6,115.2,131.5,115.1,131.4"/>
						<path class="st50" d="M115.4,131.7l-9.8-9.3c1.3,1,3.4,1.7,6.2,2l9.8,9.3C118.9,133.4,116.7,132.7,115.4,131.7"/>
						<path class="st51" d="M121.7,133.7l-9.8-9.3c1.4,0.2,3,0.2,4.8,0.1c0.9,0,1.8-0.1,2.7-0.2l9.8,9.3c-0.9,0.1-1.8,0.1-2.7,0.2
							C124.7,133.9,123.1,133.8,121.7,133.7"/>
						<path class="st52" d="M129.1,133.7l-9.8-9.3c2.6-0.2,5.4-0.7,8.3-1.4l9.8,9.3C134.5,132.9,131.7,133.4,129.1,133.7"/>
						<path class="st53" d="M137.4,132.2l-9.8-9.3c2.7-0.7,5.4-1.5,8.2-2.6l9.8,9.3C142.9,130.7,140.1,131.6,137.4,132.2"/>
						<path class="st54" d="M145.7,129.6l-9.8-9.3c2.5-1,5.1-2.2,7.7-3.6l9.8,9.3C150.8,127.4,148.2,128.6,145.7,129.6"/>
						<path class="st48" d="M153.3,126l-9.8-9.3c2.2-1.2,4.4-2.6,6.5-4.2c0.2-0.1,0.4-0.3,0.6-0.4l9.8,9.3c-0.2,0.1-0.4,0.3-0.6,0.4
							C157.7,123.4,155.5,124.7,153.3,126"/>
						<path class="st47" d="M160.4,121.4l-9.8-9.3c1.9-1.4,4-3.2,6-5.3l9.8,9.3C164.4,118.2,162.3,120,160.4,121.4"/>
						<path class="st46" d="M166.4,116.1l-9.8-9.3c3.2-3.3,6-7.4,7.2-12c0.9-3.9,0.3-6.5,0.1-7.3c-0.1-0.4-1-3.6-3.7-6.1l9.8,9.3
							c2.6,2.5,3.5,5.7,3.7,6.1c0.2,0.7,0.9,3.4-0.1,7.3C172.5,108.8,169.6,112.9,166.4,116.1"/>
					</g>
				</g>
				<g class="st0">
					<defs>
						<path id="SVGID_123_" class="st0" d="M167.3,71.5l9.8,9.3c-1.6-1.5-3.6-2.9-5.9-3.9c-3.3-1.4-6.5-1.6-9-1.5l-9.8-9.3
							c2.6-0.1,5.7,0.1,9,1.5C163.7,68.6,165.7,70,167.3,71.5z"/>
					</defs>
					<clipPath id="SVGID_124_">
						<use xlink:href="#SVGID_123_"  style="overflow:visible;"/>
					</clipPath>
					<g class="st82">
						<path class="st51" d="M162.1,75.5l-9.8-9.3c1.1,0,2.3,0,3.5,0.1l9.8,9.3C164.4,75.4,163.2,75.4,162.1,75.5"/>
						<path class="st50" d="M165.6,75.6l-9.8-9.3c1.7,0.2,3.6,0.6,5.5,1.4c1.6,0.7,3.1,1.5,4.4,2.5l9.8,9.3c-1.3-1-2.7-1.8-4.4-2.5
							C169.2,76.2,167.3,75.8,165.6,75.6"/>
						<path class="st51" d="M175.5,79.5l-9.8-9.3c0.6,0.4,1.1,0.9,1.6,1.3l9.8,9.3C176.6,80.4,176,79.9,175.5,79.5"/>
					</g>
				</g>
				<g class="st0">
					<defs>
						<path id="SVGID_125_" class="st0" d="M103.5,119.5l9.8,9.3c-0.4-0.4-1-0.8-1.7-0.8l-9.8-9.3
							C102.5,118.8,103,119.1,103.5,119.5z"/>
					</defs>
					<clipPath id="SVGID_126_">
						<use xlink:href="#SVGID_125_"  style="overflow:visible;"/>
					</clipPath>
					<g class="st83">
						<path class="st51" d="M111.5,128l-9.8-9.3c0,0,0,0,0.1,0L111.5,128C111.5,128,111.5,128,111.5,128"/>
						<path class="st50" d="M111.5,128l-9.8-9.3c0.5,0.1,1,0.3,1.4,0.6l9.8,9.3C112.6,128.3,112.1,128.1,111.5,128"/>
						<path class="st51" d="M112.9,128.6l-9.8-9.3c0.1,0.1,0.2,0.2,0.3,0.2l9.8,9.3C113.1,128.8,113,128.7,112.9,128.6"/>
					</g>
				</g>
				<g class="st0">
					<defs>
						<path id="SVGID_127_" class="st0" d="M110,134.7l-9.8-9.3c-1.3-1.3-2.1-2.6-1.9-3.8c0.3-1.4,2-2.8,3.4-2.9l9.8,9.3
							c-1.4,0-3.1,1.5-3.4,2.9C107.9,132.1,108.7,133.4,110,134.7z"/>
					</defs>
					<clipPath id="SVGID_128_">
						<use xlink:href="#SVGID_127_"  style="overflow:visible;"/>
					</clipPath>
					<g class="st84">
						<path class="st46" d="M110,134.7l-9.8-9.3c-1.3-1.3-2.1-2.6-1.9-3.8c0.1-0.6,0.5-1.1,0.9-1.6l9.8,9.3
							c-0.5,0.5-0.8,1.1-0.9,1.6C107.9,132.1,108.7,133.4,110,134.7"/>
						<path class="st47" d="M109,129.3l-9.8-9.3c0.2-0.2,0.4-0.3,0.6-0.5l9.8,9.3C109.4,128.9,109.2,129.1,109,129.3"/>
						<path class="st48" d="M109.6,128.8l-9.8-9.3c0.2-0.1,0.3-0.2,0.5-0.3l9.8,9.3C109.9,128.5,109.8,128.6,109.6,128.8"/>
						<path class="st54" d="M110.1,128.4l-9.8-9.3c0.1-0.1,0.3-0.2,0.4-0.2l9.8,9.3C110.4,128.3,110.3,128.4,110.1,128.4"/>
						<path class="st53" d="M110.6,128.2l-9.8-9.3c0.1-0.1,0.3-0.1,0.4-0.1l9.8,9.3C110.8,128.1,110.7,128.2,110.6,128.2"/>
						<path class="st52" d="M111,128.1l-9.8-9.3c0.1,0,0.3-0.1,0.4-0.1l9.8,9.3C111.2,128,111.1,128.1,111,128.1"/>
						<path class="st51" d="M111.4,128l-9.8-9.3c0,0,0.1,0,0.1,0l9.8,9.3C111.4,128,111.4,128,111.4,128"/>
					</g>
				</g>
				<g class="st0">
					<defs>
						<path id="SVGID_129_" class="st0" d="M88.2,150l-9.8-9.3c1.9,1.9,4.5,4.1,7.9,6.7c5.7,4.5,7.7,5.7,10,7.8l9.8,9.3
							c-2.2-2.1-4.3-3.3-10-7.8C92.7,154,90.2,151.8,88.2,150z"/>
					</defs>
					<clipPath id="SVGID_130_">
						<use xlink:href="#SVGID_129_"  style="overflow:visible;"/>
					</clipPath>
					<g class="st85">
						<path class="st51" d="M88.2,150l-9.8-9.3c1.9,1.9,4.5,4.1,7.9,6.7c0.8,0.6,1.4,1.1,2.1,1.6l9.8,9.3c-0.6-0.5-1.3-1-2.1-1.6
							C92.7,154,90.2,151.8,88.2,150"/>
						<path class="st50" d="M98.2,158.3l-9.8-9.3c2.6,2,4.3,3.2,5.7,4.3l9.8,9.3C102.5,161.6,100.8,160.4,98.2,158.3"/>
						<path class="st51" d="M103.9,162.6l-9.8-9.3c0.8,0.6,1.5,1.2,2.2,1.9l9.8,9.3C105.4,163.8,104.7,163.2,103.9,162.6"/>
					</g>
				</g>
				<g>
					<polygon class="st86" points="137.6,76.3 127.9,67 152.3,66.2 162.1,75.5 					"/>
				</g>
				<g class="st0">
					<defs>
						<path id="SVGID_131_" class="st0" d="M74.1,153.9l-9.8-9.3c-2.8-2.7-4.7-5.4-6-8.9c-2.9-8-1-15.7,0.2-19.1
							c0.7-2,2.8-7.5,13.8-17.7c8-7.4,16.2-13.2,24.6-18.1c7.3-4.2,17.7-9.5,30.9-13.8l9.8,9.3c-13.2,4.3-23.6,9.5-30.9,13.8
							C98.3,95,90,100.8,82.1,108.2c-11,10.2-13.1,15.7-13.8,17.7c-1.1,3.4-3.1,11-0.2,19.1C69.4,148.5,71.3,151.2,74.1,153.9z"/>
					</defs>
					<clipPath id="SVGID_132_">
						<use xlink:href="#SVGID_131_"  style="overflow:visible;"/>
					</clipPath>
					<g class="st87">
						<path class="st46" d="M74.1,153.9l-9.8-9.3c-2.8-2.7-4.7-5.4-6-8.9c-2.9-8-1-15.7,0.2-19.1c0.6-1.7,2.2-6,9.5-13.6l9.8,9.3
							c-7.3,7.6-8.9,11.8-9.5,13.6c-1.1,3.4-3.1,11-0.2,19.1C69.4,148.5,71.3,151.2,74.1,153.9"/>
						<path class="st47" d="M77.8,112.4l-9.8-9.3c1.2-1.3,2.6-2.7,4.2-4.1c3.5-3.3,7.1-6.3,10.8-9l9.8,9.3c-3.6,2.7-7.2,5.7-10.8,9
							C80.5,109.7,79.1,111.1,77.8,112.4"/>
						<path class="st48" d="M92.8,99.2l-9.8-9.3c4.6-3.4,9.2-6.4,13.8-9.1c0.9-0.5,1.8-1,2.8-1.6l9.8,9.3c-1,0.5-1.9,1.1-2.8,1.6
							C102,92.8,97.4,95.8,92.8,99.2"/>
						<path class="st54" d="M109.5,88.5l-9.8-9.3c5-2.8,11.3-5.9,18.7-8.8l9.8,9.3C120.8,82.6,114.5,85.7,109.5,88.5"/>
						<path class="st53" d="M128.2,79.7l-9.8-9.3c3-1.2,6.1-2.3,9.5-3.4l9.8,9.3C134.3,77.4,131.1,78.5,128.2,79.7"/>
					</g>
				</g>
				<g>
					<path class="st73" d="M184.5,95.6c2,13.1-7.8,23.9-12,28.5c-11.2,12.3-25.1,15.2-31.9,16.5c-3.3,0.7-6.3,1-8.9,1.1
						c-7.8,0.3-12.3-1.5-13.7-2.1c-3.8-1.6-10.5-5.5-9.9-8.7c0.3-1.4,2-2.8,3.4-2.9c1.8,0.2,2.6,2.1,3,2.6c1.3,2.2,5.8,3.4,12,3.2
						c9.2-0.3,22.2-3.8,33.4-12c4.9-3.6,11.9-9.8,13.8-17.7c0.9-3.9,0.3-6.5,0.1-7.3c-0.1-0.5-1.6-5.5-6.3-7.9c-1.7-0.9-3.1-1-5-1
						c-1,0-2.1,0.1-3.4,0.2c-1.3,0.1-2.9,0.2-4.7,0.3c-0.5,0-0.9,0-1.4,0c-5.8,0.1-9.2-0.4-10.9-0.5c-0.3,0-0.7,0-1.1,0
						c-6.9,0.2-20.3,6.1-47.2,27.1c-1.7,1.4-4.1,3.6-6.4,6.6c-2.2,2.8-4.5,5.8-5.5,10.2c-0.4,1.5-1,5.1-0.1,9.1
						c0.6,2.4,2.1,6,14.3,15.8c7,5.6,8.5,6,11.7,9.6c0.7,0.8,1.3,1.5,1.9,2.3c0.8,1.1,1.5,2.1,2.1,3.1c1.4,2.3,2.4,4.4,3.1,6.1
						c0.4,1.8,3.2,16.2-6.6,28.4c-6.5,8-14.9,10.6-18.2,11.5c-2.6,0.7-5.1,1.5-7.5,1.6c-1.8,0.1-3.5-0.2-5.1-1.1
						c-5.2-2.8-7.1-10.3-6.2-16.1c0.1-0.6,2-12.5,22-23.4c0.5-0.3,3.1-1.6,6.4-3.9c1.2-0.8,2.2-1.5,2.7-1.9
						c-4.3-2.1-10.4-5.4-17.1-10.3c-9.7-7-14.5-10.6-17-17.6c-2.9-8-1-15.7,0.2-19.1c0.7-2,2.8-7.5,13.8-17.7
						c8-7.4,16.2-13.2,24.6-18.1c7.3-4.2,17.7-9.5,30.9-13.8l24.5-0.9c2.6-0.1,5.7,0.1,9,1.5C182.2,81.6,184.4,94.6,184.5,95.6z
						 M106.6,177.2c-0.7,0-1.4,1-3.4,2.9c-1.4,1.3-0.8,0.6-10,7.6c-3.2,2.5-3.8,2.9-4.6,3.8c-1,1.1-2.8,3.2-3.7,6.5
						c-0.4,1.4-0.8,3.3-0.1,5.4c0.2,0.6,0.7,1.9,1.8,2.7c0.9,0.6,1.9,0.8,3,0.8c2.7-0.1,5.5-1.7,6.1-2c3.1-1.8,4.7-4.2,7.3-8.4
						c2.1-3.3,3.8-6.1,4.6-10.1c0.7-3.6,0.8-8.6-0.8-9C106.7,177.2,106.6,177.2,106.6,177.2"/>
				</g>
			</g>
		</g>
	</g>
</g>
</svg>
