<?xml version="1.0" encoding="utf-8"?>
<!-- Generator: Adobe Illustrator 23.0.6, SVG Export Plug-In . SVG Version: 6.00 Build 0)  -->
<svg version="1.1" id="Layer_1" xmlns="http://www.w3.org/2000/svg" xmlns:xlink="http://www.w3.org/1999/xlink" x="0px" y="0px"
	 viewBox="0 0 300 300" style="enable-background:new 0 0 300 300;" xml:space="preserve">
<style type="text/css">
	.st0{enable-background:new    ;}
	.st1{clip-path:url(#SVGID_2_);enable-background:new    ;}
	.st2{fill:#854300;}
	.st3{clip-path:url(#SVGID_4_);enable-background:new    ;}
	.st4{fill:#A35200;}
	.st5{fill:#A85400;}
	.st6{fill:#9E4F00;}
	.st7{fill:#994D00;}
	.st8{fill:#944A00;}
	.st9{fill:#8F4800;}
	.st10{fill:#8A4500;}
	.st11{clip-path:url(#SVGID_6_);enable-background:new    ;}
	.st12{clip-path:url(#SVGID_8_);enable-background:new    ;}
	.st13{fill:#AB5600;}
	.st14{clip-path:url(#SVGID_10_);enable-background:new    ;}
	.st15{fill:#A95500;}
	.st16{clip-path:url(#SVGID_12_);enable-background:new    ;}
	.st17{clip-path:url(#SVGID_14_);enable-background:new    ;}
	.st18{clip-path:url(#SVGID_16_);enable-background:new    ;}
	.st19{clip-path:url(#SVGID_18_);enable-background:new    ;}
	.st20{clip-path:url(#SVGID_20_);enable-background:new    ;}
	.st21{clip-path:url(#SVGID_22_);enable-background:new    ;}
	.st22{clip-path:url(#SVGID_24_);enable-background:new    ;}
	.st23{clip-path:url(#SVGID_26_);enable-background:new    ;}
	.st24{clip-path:url(#SVGID_28_);enable-background:new    ;}
	.st25{clip-path:url(#SVGID_30_);enable-background:new    ;}
	.st26{clip-path:url(#SVGID_32_);enable-background:new    ;}
	.st27{clip-path:url(#SVGID_34_);enable-background:new    ;}
	.st28{clip-path:url(#SVGID_36_);enable-background:new    ;}
	.st29{clip-path:url(#SVGID_38_);enable-background:new    ;}
	.st30{clip-path:url(#SVGID_40_);enable-background:new    ;}
	.st31{clip-path:url(#SVGID_42_);enable-background:new    ;}
	.st32{clip-path:url(#SVGID_44_);enable-background:new    ;}
	.st33{clip-path:url(#SVGID_46_);enable-background:new    ;}
	.st34{clip-path:url(#SVGID_48_);enable-background:new    ;}
	.st35{clip-path:url(#SVGID_50_);enable-background:new    ;}
	.st36{fill:#804000;}
	.st37{clip-path:url(#SVGID_52_);enable-background:new    ;}
	.st38{clip-path:url(#SVGID_54_);enable-background:new    ;}
	.st39{fill:#A25100;}
	.st40{fill:#8B4600;}
	.st41{fill:#824100;}
	.st42{fill:#DC6E00;}
	.st43{fill:#AC5600;}
	.st44{fill:#A45200;}
	.st45{clip-path:url(#SVGID_56_);enable-background:new    ;}
	.st46{fill:#8A8A8A;}
	.st47{fill:#858585;}
	.st48{clip-path:url(#SVGID_58_);enable-background:new    ;}
	.st49{clip-path:url(#SVGID_60_);enable-background:new    ;}
	.st50{clip-path:url(#SVGID_62_);enable-background:new    ;}
	.st51{clip-path:url(#SVGID_64_);enable-background:new    ;}
	.st52{fill:#A3A3A3;}
	.st53{fill:#A8A8A8;}
	.st54{fill:#9E9E9E;}
	.st55{fill:#999999;}
	.st56{fill:#949494;}
	.st57{fill:#8F8F8F;}
	.st58{clip-path:url(#SVGID_66_);enable-background:new    ;}
	.st59{clip-path:url(#SVGID_68_);enable-background:new    ;}
	.st60{clip-path:url(#SVGID_70_);enable-background:new    ;}
	.st61{clip-path:url(#SVGID_72_);enable-background:new    ;}
	.st62{clip-path:url(#SVGID_74_);enable-background:new    ;}
	.st63{clip-path:url(#SVGID_76_);enable-background:new    ;}
	.st64{clip-path:url(#SVGID_78_);enable-background:new    ;}
	.st65{clip-path:url(#SVGID_80_);enable-background:new    ;}
	.st66{clip-path:url(#SVGID_82_);enable-background:new    ;}
	.st67{fill:#DCDCDC;}
	.st68{clip-path:url(#SVGID_84_);enable-background:new    ;}
	.st69{clip-path:url(#SVGID_86_);enable-background:new    ;}
	.st70{clip-path:url(#SVGID_88_);enable-background:new    ;}
	.st71{clip-path:url(#SVGID_90_);enable-background:new    ;}
	.st72{clip-path:url(#SVGID_92_);enable-background:new    ;}
	.st73{clip-path:url(#SVGID_94_);enable-background:new    ;}
	.st74{clip-path:url(#SVGID_96_);enable-background:new    ;}
	.st75{clip-path:url(#SVGID_98_);enable-background:new    ;}
	.st76{clip-path:url(#SVGID_100_);enable-background:new    ;}
	.st77{clip-path:url(#SVGID_102_);enable-background:new    ;}
	.st78{clip-path:url(#SVGID_104_);enable-background:new    ;}
	.st79{clip-path:url(#SVGID_106_);enable-background:new    ;}
	.st80{clip-path:url(#SVGID_108_);enable-background:new    ;}
	.st81{clip-path:url(#SVGID_110_);enable-background:new    ;}
	.st82{clip-path:url(#SVGID_112_);enable-background:new    ;}
	.st83{clip-path:url(#SVGID_114_);enable-background:new    ;}
	.st84{clip-path:url(#SVGID_116_);enable-background:new    ;}
	.st85{clip-path:url(#SVGID_118_);enable-background:new    ;}
	.st86{clip-path:url(#SVGID_120_);enable-background:new    ;}
</style>
<g>
	<g>
		<g>
			<g class="st0">
				<g class="st0">
					<defs>
						<path id="SVGID_1_" class="st0" d="M248.6,178.5l9.9,9.4c0.3,0.3,0.6,0.6,1,1.1c1.1,1.4,1.6,2.8,1.8,3.7c1.5,5,0,9.1-0.1,9.4
							l-9.9-9.4c0.1-0.2,1.6-4.4,0.1-9.4c-0.2-0.8-0.7-2.3-1.8-3.7C249.2,179.2,248.9,178.8,248.6,178.5z"/>
					</defs>
					<clipPath id="SVGID_2_">
						<use xlink:href="#SVGID_1_"  style="overflow:visible;"/>
					</clipPath>
					<g class="st1">
						<path class="st2" d="M261.2,202.1l-9.9-9.4c0.1-0.2,1.6-4.4,0.1-9.4c-0.2-0.8-0.7-2.3-1.8-3.7c-0.3-0.4-0.7-0.8-1-1.1l9.9,9.4
							c0.3,0.3,0.6,0.6,1,1.1c1.1,1.4,1.6,2.8,1.8,3.7C262.7,197.7,261.2,201.8,261.2,202.1"/>
					</g>
				</g>
				<g class="st0">
					<defs>
						<path id="SVGID_3_" class="st0" d="M226.3,208.1l-9.9-9.4c0.7,0.6,2.5,2.3,5.4,3.5c2.7,1.1,5.3,1.5,8,1.4
							c2.4-0.1,4.9-0.5,7.6-1c3.5-0.6,5.3-0.9,7.4-2.1c1-0.6,4.8-2.9,6.5-7.7l9.9,9.4c-1.7,4.8-5.5,7.1-6.5,7.7
							c-2,1.2-3.8,1.5-7.4,2.1c-2.7,0.5-5.2,0.9-7.6,1c-2.7,0.1-5.3-0.2-8-1.4C228.8,210.3,226.9,208.7,226.3,208.1z"/>
					</defs>
					<clipPath id="SVGID_4_">
						<use xlink:href="#SVGID_3_"  style="overflow:visible;"/>
					</clipPath>
					<g class="st3">
						<path class="st4" d="M226.3,208.1l-9.9-9.4c0.2,0.2,0.6,0.6,1.2,1l9.9,9.4C226.9,208.7,226.5,208.3,226.3,208.1"/>
						<path class="st5" d="M227.5,209.1l-9.9-9.4c1,0.7,2.4,1.7,4.2,2.4c1.7,0.7,3.3,1.1,4.9,1.3l9.9,9.4c-1.6-0.2-3.3-0.6-4.9-1.3
							C229.8,210.8,228.4,209.8,227.5,209.1"/>
						<path class="st4" d="M236.6,212.8l-9.9-9.4c1,0.1,2,0.1,3.1,0.1c0.6,0,1.2-0.1,1.8-0.1l9.9,9.4c-0.6,0.1-1.2,0.1-1.8,0.1
							C238.6,212.9,237.6,212.9,236.6,212.8"/>
						<path class="st6" d="M241.4,212.8l-9.9-9.4c1.9-0.2,3.8-0.5,5.8-0.8c1.6-0.3,2.8-0.5,3.9-0.8l9.9,9.4
							c-1.1,0.3-2.3,0.5-3.9,0.8C245.2,212.3,243.3,212.6,241.4,212.8"/>
						<path class="st7" d="M251.2,211.2l-9.9-9.4c0.7-0.2,1.2-0.3,1.8-0.6l9.9,9.4C252.4,210.8,251.8,211,251.2,211.2"/>
						<path class="st8" d="M253,210.6l-9.9-9.4c0.5-0.2,0.9-0.4,1.3-0.6l9.9,9.4C253.9,210.2,253.4,210.4,253,210.6"/>
						<path class="st9" d="M254.3,210l-9.9-9.4c0.1-0.1,0.2-0.1,0.3-0.2c0.3-0.2,0.8-0.5,1.4-0.9l9.9,9.4c-0.6,0.5-1.1,0.8-1.4,0.9
							C254.5,209.8,254.4,209.9,254.3,210"/>
						<path class="st10" d="M256.1,208.8l-9.9-9.4c0.6-0.4,1.2-1,1.9-1.7l9.9,9.4C257.3,207.9,256.6,208.4,256.1,208.8"/>
						<path class="st2" d="M258,207.2l-9.9-9.4c1.2-1.2,2.4-2.9,3.2-5.1l9.9,9.4C260.4,204.3,259.1,205.9,258,207.2"/>
					</g>
				</g>
				<g class="st0">
					<defs>
						<path id="SVGID_5_" class="st0" d="M235.3,202.9l-9.9-9.4c-0.1-0.1-0.2-0.2-0.9-0.9c-0.3-0.3-0.5-0.5-0.7-0.6l9.9,9.4
							c0.2,0.2,0.4,0.4,0.7,0.6C235.2,202.7,235.3,202.8,235.3,202.9z"/>
					</defs>
					<clipPath id="SVGID_6_">
						<use xlink:href="#SVGID_5_"  style="overflow:visible;"/>
					</clipPath>
					<g class="st11">
						<path class="st2" d="M235.3,202.9l-9.9-9.4c-0.1-0.1-0.2-0.2-0.9-0.9c-0.3-0.3-0.5-0.5-0.7-0.6l9.9,9.4
							c0.2,0.2,0.4,0.4,0.7,0.6C235.2,202.7,235.3,202.8,235.3,202.9"/>
					</g>
				</g>
				<g class="st0">
					<defs>
						<path id="SVGID_7_" class="st0" d="M260.5,177.7l-9.9-9.4c-0.9-5.9-1.7-7.3-1.8-7.4l9.9,9.4
							C258.7,170.4,259.5,171.9,260.5,177.7z"/>
					</defs>
					<clipPath id="SVGID_8_">
						<use xlink:href="#SVGID_7_"  style="overflow:visible;"/>
					</clipPath>
					<g class="st12">
						<path class="st2" d="M260.5,177.7l-9.9-9.4c-0.9-5.9-1.7-7.3-1.8-7.4l9.9,9.4C258.7,170.4,259.5,171.9,260.5,177.7"/>
					</g>
				</g>
				<g>
					<polygon class="st13" points="276.3,150.5 266.4,141 268.3,141.9 278.2,151.3 					"/>
				</g>
				<g class="st0">
					<defs>
						<path id="SVGID_9_" class="st0" d="M249.4,178.1l-9.9-9.4c2.1-0.1,10.6-0.4,11-0.4l9.9,9.4C260,177.8,251.5,178.1,249.4,178.1
							z"/>
					</defs>
					<clipPath id="SVGID_10_">
						<use xlink:href="#SVGID_9_"  style="overflow:visible;"/>
					</clipPath>
					<g class="st14">
						<path class="st4" d="M249.4,178.1l-9.9-9.4c2.1-0.1,10.6-0.4,11-0.4l9.9,9.4C260,177.8,251.5,178.1,249.4,178.1"/>
					</g>
				</g>
				<g>
					<polygon class="st15" points="275.4,150.5 265.5,141.1 266.4,141 276.3,150.5 					"/>
				</g>
				<g class="st0">
					<defs>
						<path id="SVGID_11_" class="st0" d="M247.1,158.8l9.9,9.4c0.6,0.6,1.2,1.2,1.7,2.1l-9.9-9.4
							C248.3,160,247.7,159.4,247.1,158.8z"/>
					</defs>
					<clipPath id="SVGID_12_">
						<use xlink:href="#SVGID_11_"  style="overflow:visible;"/>
					</clipPath>
					<g class="st16">
						<path class="st2" d="M258.7,170.3l-9.9-9.4c-0.5-0.8-1.1-1.5-1.7-2.1l9.9,9.4C257.6,168.8,258.2,169.5,258.7,170.3"/>
					</g>
				</g>
				<g class="st0">
					<defs>
						<path id="SVGID_13_" class="st0" d="M233,200.6l-9.9-9.4c-0.2-0.1-0.2-0.2-0.3-0.4c-0.6-0.9-0.3-1.2-0.9-2.8
							c-0.3-0.8-0.7-1.4-0.9-1.8l9.9,9.4c0.3,0.4,0.6,1,0.9,1.8c0.6,1.5,0.3,1.9,0.9,2.8C232.8,200.4,232.8,200.5,233,200.6z"/>
					</defs>
					<clipPath id="SVGID_14_">
						<use xlink:href="#SVGID_13_"  style="overflow:visible;"/>
					</clipPath>
					<g class="st17">
						<path class="st2" d="M233,200.6l-9.9-9.4c-0.2-0.1-0.2-0.2-0.3-0.4c-0.6-0.9-0.3-1.2-0.9-2.8c-0.3-0.8-0.7-1.4-0.9-1.8
							l9.9,9.4c0.3,0.4,0.6,1,0.9,1.8c0.6,1.5,0.3,1.9,0.9,2.8C232.8,200.4,232.8,200.5,233,200.6"/>
					</g>
				</g>
				<g class="st0">
					<defs>
						<path id="SVGID_15_" class="st0" d="M225.3,185.5l-9.9-9.4c0.3,0.3,0.6,0.6,1.1,0.9c2,1.5,3,2.3,3.7,2.7
							c1.9,1,3.5,1.4,4.6,1.7c1.5,0.4,1.3,0.1,4.6,0.8c2.3,0.4,3.4,0.7,3.7,0.8c1.2,0.3,1.1,0.4,2.8,0.8c0.6,0.2,1.5,0.4,2.7,0.8
							c1.2,0.4,1.5,0.6,1.8,0.8l9.9,9.4c-0.3-0.3-0.6-0.4-1.8-0.8c-1.2-0.4-2.2-0.7-2.7-0.8c-1.7-0.5-1.6-0.5-2.8-0.8
							c-0.3-0.1-1.4-0.4-3.7-0.8c-3.3-0.6-3.1-0.4-4.6-0.8c-1.1-0.3-2.7-0.7-4.6-1.7c-0.7-0.4-1.7-1.1-3.7-2.7
							C225.9,186.1,225.6,185.8,225.3,185.5z"/>
					</defs>
					<clipPath id="SVGID_16_">
						<use xlink:href="#SVGID_15_"  style="overflow:visible;"/>
					</clipPath>
					<g class="st18">
						<path class="st4" d="M225.3,185.5l-9.9-9.4c0.3,0.3,0.6,0.6,1.1,0.9c0.4,0.3,0.8,0.6,1.1,0.8l9.9,9.4
							c-0.3-0.3-0.7-0.5-1.1-0.8C225.9,186.1,225.6,185.8,225.3,185.5"/>
						<path class="st5" d="M227.5,187.3l-9.9-9.4c1.3,1,2,1.5,2.6,1.8c1.9,1,3.5,1.4,4.6,1.7c1.5,0.4,1.3,0.1,4.6,0.8
							c2.3,0.4,3.4,0.7,3.7,0.8c1.2,0.3,1.1,0.4,2.8,0.8c0.6,0.2,1.5,0.4,2.7,0.8c1,0.3,1.4,0.5,1.7,0.7l9.9,9.4
							c-0.3-0.2-0.6-0.4-1.7-0.7c-1.2-0.4-2.2-0.7-2.7-0.8c-1.7-0.5-1.6-0.5-2.8-0.8c-0.3-0.1-1.4-0.4-3.7-0.8
							c-3.3-0.6-3.1-0.4-4.6-0.8c-1.1-0.3-2.7-0.7-4.6-1.7C229.5,188.8,228.7,188.3,227.5,187.3"/>
						<path class="st4" d="M250,194.8l-9.9-9.4c0.1,0,0.1,0.1,0.2,0.1l9.9,9.4C250.1,194.9,250.1,194.8,250,194.8"/>
					</g>
				</g>
				<g class="st0">
					<defs>
						<path id="SVGID_17_" class="st0" d="M234.2,179.2l-9.9-9.4c-0.1-0.1-0.3-0.3-0.4-0.5c-0.7-1.1-0.7-2.6,0-3.7
							c0.3-0.5,0.7-0.8,0.9-1c1-0.8,2.2-1,2.8-1c2.1-0.3,3.7-0.5,4.9-0.5c1,0,1.8,0,2.4,0.2c0.8,0.2,2.4,0.7,3.5,1.8l9.9,9.4
							c-1.1-1.1-2.7-1.6-3.5-1.8c-0.7-0.2-1.4-0.3-2.4-0.2c-1.2,0-2.8,0.2-4.9,0.5c-0.6,0.1-1.7,0.2-2.8,1c-0.3,0.2-0.6,0.5-0.9,1
							c-0.7,1.1-0.7,2.7,0,3.7C233.9,178.9,234.1,179,234.2,179.2z"/>
					</defs>
					<clipPath id="SVGID_18_">
						<use xlink:href="#SVGID_17_"  style="overflow:visible;"/>
					</clipPath>
					<g class="st19">
						<path class="st2" d="M234.2,179.2l-9.9-9.4c-0.1-0.1-0.3-0.3-0.4-0.5c-0.7-1.1-0.7-2.6,0-3.7c0.1-0.2,0.3-0.4,0.4-0.5l9.9,9.4
							c-0.1,0.1-0.3,0.3-0.4,0.5c-0.7,1.1-0.7,2.7,0,3.7C233.9,178.9,234.1,179,234.2,179.2"/>
						<path class="st10" d="M234.2,174.4l-9.9-9.4c0.2-0.2,0.4-0.3,0.5-0.5c0,0,0,0,0,0l9.9,9.4c0,0,0,0,0,0
							C234.6,174.1,234.4,174.2,234.2,174.4"/>
						<path class="st9" d="M234.8,173.9l-9.9-9.4c0.2-0.1,0.4-0.2,0.5-0.3l9.9,9.4C235.2,173.7,235,173.8,234.8,173.9"/>
						<path class="st8" d="M235.3,173.6l-9.9-9.4c0.2-0.1,0.4-0.2,0.6-0.3l9.9,9.4C235.7,173.4,235.5,173.5,235.3,173.6"/>
						<path class="st7" d="M235.9,173.3l-9.9-9.4c0.2-0.1,0.5-0.2,0.7-0.2l9.9,9.4C236.4,173.1,236.2,173.2,235.9,173.3"/>
						<path class="st6" d="M236.6,173.1l-9.9-9.4c0.4-0.1,0.7-0.1,0.9-0.2c1.4-0.2,2.5-0.3,3.4-0.4l9.9,9.4c-1,0.1-2.1,0.2-3.4,0.4
							C237.3,172.9,237,173,236.6,173.1"/>
						<path class="st4" d="M241,172.5l-9.9-9.4c0.5-0.1,1-0.1,1.5-0.1c0.5,0,1,0,1.4,0l9.9,9.4c-0.4,0-0.9-0.1-1.4,0
							C242,172.4,241.5,172.5,241,172.5"/>
						<path class="st5" d="M243.8,172.5l-9.9-9.4c0.4,0,0.7,0.1,1,0.2c0.7,0.2,2,0.6,3.1,1.4l9.9,9.4c-1.1-0.8-2.4-1.2-3.1-1.4
							C244.6,172.6,244.2,172.5,243.8,172.5"/>
						<path class="st4" d="M248,174.1l-9.9-9.4c0.1,0.1,0.3,0.2,0.4,0.4l9.9,9.4C248.2,174.3,248.1,174.2,248,174.1"/>
					</g>
				</g>
				<g class="st0">
					<defs>
						<path id="SVGID_19_" class="st0" d="M202.6,180l9.9,9.4c0.3,0.3,0.6,0.6,0.9,1c1.1,1.4,1.6,2.8,1.8,3.6c1.5,4.9,0,9-0.1,9.2
							l-9.9-9.4c0.1-0.2,1.6-4.3,0.1-9.2c-0.2-0.8-0.7-2.2-1.8-3.6C203.2,180.6,202.9,180.3,202.6,180z"/>
					</defs>
					<clipPath id="SVGID_20_">
						<use xlink:href="#SVGID_19_"  style="overflow:visible;"/>
					</clipPath>
					<g class="st20">
						<path class="st2" d="M215.2,203.3l-9.9-9.4c0.1-0.2,1.6-4.3,0.1-9.2c-0.2-0.8-0.7-2.2-1.8-3.6c-0.3-0.4-0.6-0.7-0.9-1l9.9,9.4
							c0.3,0.3,0.6,0.6,0.9,1c1.1,1.4,1.6,2.8,1.8,3.6C216.8,199,215.3,203,215.2,203.3"/>
					</g>
				</g>
				<g class="st0">
					<defs>
						<path id="SVGID_21_" class="st0" d="M180.2,209.1l-9.9-9.4c0.6,0.5,2.5,2.2,5.5,3.5c2.7,1.1,5.3,1.4,8,1.3
							c2.4-0.1,4.9-0.5,7.6-1c3.5-0.6,5.3-0.9,7.4-2.1c1-0.6,4.8-2.9,6.5-7.6l9.9,9.4c-1.7,4.7-5.5,7-6.5,7.6
							c-2,1.2-3.8,1.5-7.4,2.1c-2.7,0.5-5.2,0.9-7.6,1c-2.7,0.1-5.3-0.2-8-1.3C182.6,211.3,180.8,209.6,180.2,209.1z"/>
					</defs>
					<clipPath id="SVGID_22_">
						<use xlink:href="#SVGID_21_"  style="overflow:visible;"/>
					</clipPath>
					<g class="st21">
						<path class="st4" d="M180.2,209.1l-9.9-9.4c0.2,0.2,0.6,0.6,1.2,1l9.9,9.4C180.8,209.7,180.4,209.3,180.2,209.1"/>
						<path class="st5" d="M181.4,210.1l-9.9-9.4c1,0.7,2.4,1.7,4.3,2.5c1.7,0.7,3.3,1.1,4.9,1.2l9.9,9.4c-1.6-0.2-3.2-0.6-4.9-1.2
							C183.8,211.8,182.3,210.8,181.4,210.1"/>
						<path class="st4" d="M190.6,213.8l-9.9-9.4c1,0.1,2.1,0.1,3.1,0.1c0.6,0,1.2-0.1,1.8-0.1l9.9,9.4c-0.6,0.1-1.2,0.1-1.8,0.1
							C192.6,213.9,191.6,213.9,190.6,213.8"/>
						<path class="st6" d="M195.5,213.8l-9.9-9.4c1.8-0.2,3.8-0.5,5.8-0.8c1.6-0.3,2.9-0.5,4-0.8l9.9,9.4c-1.1,0.3-2.4,0.5-4,0.8
							C199.3,213.3,197.4,213.6,195.5,213.8"/>
						<path class="st7" d="M205.3,212.2l-9.9-9.4c0.6-0.2,1.2-0.3,1.8-0.6l9.9,9.4C206.5,211.9,205.9,212,205.3,212.2"/>
						<path class="st8" d="M207.1,211.6l-9.9-9.4c0.5-0.2,0.9-0.4,1.3-0.6l9.9,9.4C208,211.2,207.5,211.5,207.1,211.6"/>
						<path class="st9" d="M208.4,211l-9.9-9.4c0.1,0,0.2-0.1,0.3-0.1c0.3-0.2,0.8-0.5,1.5-1l9.9,9.4c-0.7,0.5-1.2,0.8-1.5,1
							C208.6,210.9,208.5,211,208.4,211"/>
						<path class="st10" d="M210.2,209.9l-9.9-9.4c0.6-0.4,1.2-1,1.9-1.7l9.9,9.4C211.4,208.9,210.7,209.4,210.2,209.9"/>
						<path class="st2" d="M212.1,208.2l-9.9-9.4c1.2-1.2,2.3-2.8,3.1-4.9l9.9,9.4C214.4,205.4,213.2,207,212.1,208.2"/>
					</g>
				</g>
				<g class="st0">
					<defs>
						<path id="SVGID_23_" class="st0" d="M189.4,204.1l-9.9-9.4c-0.1-0.1-0.2-0.2-0.8-0.8c-0.1-0.1-0.3-0.3-0.4-0.4l9.9,9.4
							c0.1,0.1,0.2,0.2,0.4,0.4C189.2,203.9,189.3,204,189.4,204.1z"/>
					</defs>
					<clipPath id="SVGID_24_">
						<use xlink:href="#SVGID_23_"  style="overflow:visible;"/>
					</clipPath>
					<g class="st22">
						<path class="st2" d="M189.4,204.1l-9.9-9.4c-0.1-0.1-0.2-0.2-0.8-0.8c-0.1-0.1-0.3-0.3-0.4-0.4l9.9,9.4
							c0.1,0.1,0.2,0.2,0.4,0.4C189.2,203.9,189.3,204,189.4,204.1"/>
					</g>
				</g>
				<g class="st0">
					<defs>
						<path id="SVGID_25_" class="st0" d="M187,201.8l-9.9-9.4c-0.1-0.1-0.2-0.2-0.3-0.3l9.9,9.4C186.8,201.6,186.9,201.7,187,201.8
							z"/>
					</defs>
					<clipPath id="SVGID_26_">
						<use xlink:href="#SVGID_25_"  style="overflow:visible;"/>
					</clipPath>
					<g class="st23">
						<path class="st2" d="M187,201.8l-9.9-9.4c-0.1-0.1-0.2-0.2-0.3-0.3l9.9,9.4C186.8,201.6,186.9,201.7,187,201.8"/>
					</g>
				</g>
				<g class="st0">
					<defs>
						<path id="SVGID_27_" class="st0" d="M214.5,179.3l-9.9-9.4c-1-5.8-1.7-7.2-1.8-7.3l9.9,9.4
							C212.7,172.1,213.5,173.6,214.5,179.3z"/>
					</defs>
					<clipPath id="SVGID_28_">
						<use xlink:href="#SVGID_27_"  style="overflow:visible;"/>
					</clipPath>
					<g class="st24">
						<path class="st2" d="M214.5,179.3l-9.9-9.4c-1-5.8-1.7-7.2-1.8-7.3l9.9,9.4C212.7,172.1,213.5,173.6,214.5,179.3"/>
					</g>
				</g>
				<g class="st0">
					<defs>
						<path id="SVGID_29_" class="st0" d="M203.4,179.7l-9.9-9.4c2.1-0.1,10.6-0.4,11-0.4l9.9,9.4
							C214,179.4,205.5,179.7,203.4,179.7z"/>
					</defs>
					<clipPath id="SVGID_30_">
						<use xlink:href="#SVGID_29_"  style="overflow:visible;"/>
					</clipPath>
					<g class="st25">
						<path class="st4" d="M203.4,179.7l-9.9-9.4c2.1-0.1,10.6-0.4,11-0.4l9.9,9.4C214,179.4,205.5,179.7,203.4,179.7"/>
					</g>
				</g>
				<g class="st0">
					<defs>
						<path id="SVGID_31_" class="st0" d="M201.2,160.7l9.9,9.4c0.6,0.5,1.1,1.2,1.6,1.9l-9.9-9.4
							C202.3,161.8,201.7,161.2,201.2,160.7z"/>
					</defs>
					<clipPath id="SVGID_32_">
						<use xlink:href="#SVGID_31_"  style="overflow:visible;"/>
					</clipPath>
					<g class="st26">
						<path class="st2" d="M212.7,172l-9.9-9.4c-0.5-0.8-1.1-1.4-1.6-1.9l9.9,9.4C211.6,170.6,212.2,171.3,212.7,172"/>
					</g>
				</g>
				<g class="st0">
					<defs>
						<path id="SVGID_33_" class="st0" d="M186.7,201.5l-9.9-9.4c-0.6-0.8-0.3-1.2-0.9-2.7c-0.3-0.8-0.7-1.4-0.9-1.8l9.9,9.4
							c0.3,0.4,0.6,1,0.9,1.8C186.4,200.3,186.1,200.6,186.7,201.5z"/>
					</defs>
					<clipPath id="SVGID_34_">
						<use xlink:href="#SVGID_33_"  style="overflow:visible;"/>
					</clipPath>
					<g class="st27">
						<path class="st2" d="M186.7,201.5l-9.9-9.4c-0.6-0.8-0.3-1.2-0.9-2.7c-0.3-0.8-0.7-1.4-0.9-1.8l9.9,9.4c0.3,0.4,0.6,1,0.9,1.8
							C186.4,200.3,186.1,200.6,186.7,201.5"/>
					</g>
				</g>
				<g class="st0">
					<defs>
						<path id="SVGID_35_" class="st0" d="M169.2,201.2l-9.9-9.4c0-0.1,0-1.8,0-1.8l9.9,9.4C169.2,199.4,169.2,201.1,169.2,201.2z"
							/>
					</defs>
					<clipPath id="SVGID_36_">
						<use xlink:href="#SVGID_35_"  style="overflow:visible;"/>
					</clipPath>
					<g class="st28">
						<path class="st2" d="M169.2,201.2l-9.9-9.4c0-0.1,0-1.8,0-1.8l9.9,9.4C169.2,199.4,169.2,201.1,169.2,201.2"/>
					</g>
				</g>
				<g class="st0">
					<defs>
						<path id="SVGID_37_" class="st0" d="M179.3,187l-9.9-9.4c0.3,0.3,0.6,0.6,1.1,0.9c2,1.5,3,2.3,3.7,2.6c1.9,1,3.5,1.4,4.6,1.7
							c1.5,0.4,1.3,0.1,4.6,0.8c2.3,0.4,3.3,0.7,3.7,0.8c1.2,0.3,1.1,0.4,2.8,0.8c0.6,0.2,1.5,0.4,2.7,0.8c1.2,0.4,1.5,0.6,1.8,0.8
							l9.9,9.4c-0.3-0.3-0.6-0.4-1.8-0.8c-1.2-0.4-2.2-0.7-2.7-0.8c-1.7-0.5-1.6-0.5-2.8-0.8c-0.3-0.1-1.4-0.4-3.7-0.8
							c-3.3-0.6-3.1-0.4-4.6-0.8c-1.1-0.3-2.7-0.7-4.6-1.7c-0.7-0.4-1.7-1.1-3.7-2.6C179.9,187.6,179.6,187.3,179.3,187z"/>
					</defs>
					<clipPath id="SVGID_38_">
						<use xlink:href="#SVGID_37_"  style="overflow:visible;"/>
					</clipPath>
					<g class="st29">
						<path class="st4" d="M179.3,187l-9.9-9.4c0.2,0.2,0.5,0.4,0.8,0.6l9.9,9.4C179.8,187.4,179.5,187.2,179.3,187"/>
						<path class="st5" d="M180.1,187.7l-9.9-9.4c0.1,0.1,0.2,0.2,0.3,0.2c2,1.5,3,2.3,3.7,2.6c1.9,1,3.5,1.4,4.6,1.7
							c1.5,0.4,1.3,0.1,4.6,0.8c2.3,0.4,3.3,0.7,3.7,0.8c1.2,0.3,1.1,0.4,2.8,0.8c0.6,0.2,1.5,0.4,2.7,0.8c1,0.3,1.4,0.5,1.7,0.7
							l9.9,9.4c-0.3-0.2-0.7-0.4-1.7-0.7c-1.2-0.4-2.2-0.7-2.7-0.8c-1.7-0.5-1.6-0.5-2.8-0.8c-0.3-0.1-1.4-0.4-3.7-0.8
							c-3.3-0.6-3.1-0.4-4.6-0.8c-1.1-0.3-2.7-0.7-4.6-1.7c-0.7-0.4-1.7-1.1-3.7-2.6C180.3,187.8,180.2,187.7,180.1,187.7"/>
						<path class="st4" d="M204,196.1l-9.9-9.4c0.1,0,0.1,0.1,0.1,0.1l9.9,9.4C204.1,196.2,204.1,196.2,204,196.1"/>
					</g>
				</g>
				<g class="st0">
					<defs>
						<path id="SVGID_39_" class="st0" d="M188.2,180.8l-9.9-9.4c-0.1-0.1-0.3-0.3-0.4-0.5c-0.7-1.1-0.7-2.6,0-3.7
							c0.3-0.5,0.7-0.8,0.9-1c1-0.8,2.2-0.9,2.8-1c2.1-0.3,3.7-0.5,4.9-0.5c1,0,1.8,0,2.5,0.2c0.8,0.2,2.4,0.7,3.5,1.8l9.9,9.4
							c-1.1-1.1-2.7-1.6-3.5-1.8c-0.7-0.2-1.5-0.3-2.5-0.2c-1.2,0-2.8,0.2-4.9,0.5c-0.6,0.1-1.7,0.2-2.8,1c-0.3,0.2-0.6,0.5-0.9,1
							c-0.7,1.1-0.7,2.6,0,3.7C187.9,180.5,188.1,180.6,188.2,180.8z"/>
					</defs>
					<clipPath id="SVGID_40_">
						<use xlink:href="#SVGID_39_"  style="overflow:visible;"/>
					</clipPath>
					<g class="st30">
						<path class="st2" d="M188.2,180.8l-9.9-9.4c-0.1-0.1-0.3-0.3-0.4-0.5c-0.7-1.1-0.7-2.6,0-3.7c0.1-0.2,0.3-0.4,0.4-0.5l9.9,9.4
							c-0.1,0.1-0.3,0.3-0.4,0.5c-0.7,1.1-0.7,2.6,0,3.7C187.9,180.5,188.1,180.6,188.2,180.8"/>
						<path class="st10" d="M188.2,176.1l-9.9-9.4c0.2-0.2,0.4-0.3,0.5-0.5c0,0,0,0,0,0l9.9,9.4c0,0,0,0,0,0
							C188.6,175.8,188.4,175.9,188.2,176.1"/>
						<path class="st9" d="M188.8,175.6l-9.9-9.4c0.2-0.1,0.4-0.2,0.5-0.3l9.9,9.4C189.2,175.4,189,175.5,188.8,175.6"/>
						<path class="st8" d="M189.3,175.3l-9.9-9.4c0.2-0.1,0.4-0.2,0.6-0.3l9.9,9.4C189.7,175.1,189.5,175.2,189.3,175.3"/>
						<path class="st7" d="M189.9,175l-9.9-9.4c0.2-0.1,0.5-0.2,0.7-0.2l9.9,9.4C190.4,174.8,190.1,174.9,189.9,175"/>
						<path class="st6" d="M190.6,174.8l-9.9-9.4c0.4-0.1,0.7-0.1,1-0.2c1.3-0.2,2.5-0.3,3.4-0.4l9.9,9.4c-0.9,0.1-2.1,0.2-3.4,0.4
							C191.3,174.7,191,174.7,190.6,174.8"/>
						<path class="st4" d="M194.9,174.2l-9.9-9.4c0.6-0.1,1-0.1,1.5-0.1c0.5,0,1,0,1.4,0l9.9,9.4c-0.4,0-0.9-0.1-1.4,0
							C196,174.1,195.5,174.2,194.9,174.2"/>
						<path class="st5" d="M197.9,174.2l-9.9-9.4c0.4,0,0.7,0.1,1,0.2c0.7,0.2,2,0.6,3.1,1.4l9.9,9.4c-1.1-0.8-2.4-1.2-3.1-1.4
							C198.6,174.3,198.2,174.2,197.9,174.2"/>
						<path class="st4" d="M202,175.8l-9.9-9.4c0.1,0.1,0.3,0.2,0.4,0.3l9.9,9.4C202.3,176,202.1,175.9,202,175.8"/>
					</g>
				</g>
				<g class="st0">
					<defs>
						<path id="SVGID_41_" class="st0" d="M166.7,181l-9.9-9.4c0.6-0.2,2.7-1,2.8-1l9.9,9.4C169.3,180,167.3,180.8,166.7,181z"/>
					</defs>
					<clipPath id="SVGID_42_">
						<use xlink:href="#SVGID_41_"  style="overflow:visible;"/>
					</clipPath>
					<g class="st31">
						<path class="st7" d="M166.7,181l-9.9-9.4c0.6-0.2,2.7-1,2.8-1l9.9,9.4C169.3,180,167.3,180.8,166.7,181"/>
					</g>
				</g>
				<g class="st0">
					<defs>
						<path id="SVGID_43_" class="st0" d="M159.3,183.1l-9.9-9.4c0.2,0.2,0.4,0.2,0.7,0.2c1,0,2.7-0.9,6.6-2.3l9.9,9.4
							c-3.9,1.5-5.7,2.3-6.6,2.3C159.7,183.3,159.5,183.3,159.3,183.1z"/>
					</defs>
					<clipPath id="SVGID_44_">
						<use xlink:href="#SVGID_43_"  style="overflow:visible;"/>
					</clipPath>
					<g class="st32">
						<path class="st4" d="M159.3,183.1l-9.9-9.4c0,0,0,0,0,0L159.3,183.1C159.3,183.1,159.3,183.1,159.3,183.1"/>
						<path class="st5" d="M159.3,183.1l-9.9-9.4c0.1,0.1,0.3,0.2,0.5,0.2l9.9,9.4C159.6,183.3,159.5,183.2,159.3,183.1"/>
						<path class="st4" d="M159.8,183.3l-9.9-9.4c0.1,0,0.1,0,0.2,0c0,0,0.1,0,0.1,0l9.9,9.4c0,0-0.1,0-0.1,0
							C160,183.3,159.9,183.3,159.8,183.3"/>
						<path class="st6" d="M160.1,183.3l-9.9-9.4c0.1,0,0.3,0,0.5-0.1l9.9,9.4C160.5,183.3,160.3,183.3,160.1,183.3"/>
						<path class="st7" d="M160.6,183.2l-9.9-9.4c1.1-0.3,2.8-1,6-2.2l9.9,9.4C163.4,182.2,161.7,183,160.6,183.2"/>
					</g>
				</g>
				<g class="st0">
					<defs>
						<path id="SVGID_45_" class="st0" d="M159.3,183.1l-9.9-9.4c0,0,0,0,0,0L159.3,183.1C159.3,183.1,159.3,183.1,159.3,183.1z"/>
					</defs>
					<clipPath id="SVGID_46_">
						<use xlink:href="#SVGID_45_"  style="overflow:visible;"/>
					</clipPath>
					<g class="st33">
						<path class="st4" d="M159.3,183.1l-9.9-9.4c0,0,0,0,0,0L159.3,183.1C159.3,183.1,159.3,183.1,159.3,183.1"/>
					</g>
				</g>
				<g class="st0">
					<defs>
						<path id="SVGID_47_" class="st0" d="M132.3,209.9l-9.9-9.4c0.3,0.3,0.6,0.6,1,0.9c0.7,0.6,4,3.2,9.2,4.3
							c1.8,0.4,3.5,0.5,5.1,0.4c2.2-0.1,4.2-0.5,5.9-0.8c2.3-0.5,4.2-0.8,6.5-2.1c3.4-1.8,5.3-4.2,6.5-5.7c0.5-0.6,2.8-3.6,2.8-5.6
							l9.9,9.4c0,2-2.3,5-2.8,5.6c-1.2,1.5-3.1,3.9-6.5,5.7c-2.3,1.2-4.2,1.6-6.5,2.1c-1.7,0.3-3.7,0.7-5.9,0.8
							c-1.6,0.1-3.3,0-5.1-0.4c-5.2-1.1-8.5-3.7-9.2-4.3C133,210.4,132.6,210.1,132.3,209.9z"/>
					</defs>
					<clipPath id="SVGID_48_">
						<use xlink:href="#SVGID_47_"  style="overflow:visible;"/>
					</clipPath>
					<g class="st34">
						<path class="st4" d="M132.3,209.9l-9.9-9.4c0.3,0.3,0.6,0.6,1,0.9c0.1,0.1,0.2,0.2,0.4,0.3l9.9,9.4c-0.2-0.1-0.3-0.3-0.4-0.3
							C133,210.4,132.6,210.1,132.3,209.9"/>
						<path class="st5" d="M133.7,211.1l-9.9-9.4c1.2,0.9,4.2,3,8.7,3.9c0.7,0.1,1.4,0.3,2.1,0.3l9.9,9.4c-0.7-0.1-1.4-0.2-2.1-0.3
							C138,214.1,134.9,212,133.7,211.1"/>
						<path class="st4" d="M144.5,215.3l-9.9-9.4c1.1,0.1,2.1,0.1,3.1,0.1c0.5,0,1,0,1.4-0.1l9.9,9.4c-0.5,0-0.9,0.1-1.4,0.1
							C146.6,215.5,145.6,215.4,144.5,215.3"/>
						<path class="st6" d="M149,215.3l-9.9-9.4c1.6-0.2,3.1-0.5,4.5-0.7c0.8-0.2,1.6-0.3,2.3-0.5l9.9,9.4c-0.8,0.2-1.5,0.3-2.3,0.5
							C152.1,214.9,150.6,215.2,149,215.3"/>
						<path class="st7" d="M155.8,214.1l-9.9-9.4c0.8-0.2,1.5-0.4,2.3-0.7l9.9,9.4C157.4,213.7,156.6,213.9,155.8,214.1"/>
						<path class="st8" d="M158.2,213.4l-9.9-9.4c0.6-0.2,1.2-0.5,1.8-0.8c0.1,0,0.1-0.1,0.2-0.1l9.9,9.4c-0.1,0-0.1,0.1-0.2,0.1
							C159.3,212.9,158.7,213.2,158.2,213.4"/>
						<path class="st9" d="M160.1,212.5l-9.9-9.4c0.8-0.4,1.4-0.9,2.1-1.3l9.9,9.4C161.6,211.6,160.9,212,160.1,212.5"/>
						<path class="st10" d="M162.2,211.1l-9.9-9.4c0.9-0.7,1.6-1.3,2.3-2l9.9,9.4C163.8,209.8,163.1,210.5,162.2,211.1"/>
						<path class="st2" d="M164.4,209.1l-9.9-9.4c0.8-0.9,1.5-1.7,2-2.3c0.5-0.6,2.8-3.6,2.8-5.6l9.9,9.4c0,2-2.3,5-2.8,5.6
							C165.9,207.5,165.3,208.3,164.4,209.1"/>
					</g>
				</g>
				<g>
					<polygon class="st15" points="107.3,235.6 97.4,226.1 205,222.4 214.9,231.8 					"/>
				</g>
				<g>
					<polygon class="st13" points="105.5,234.7 95.6,225.3 97.4,226.1 107.3,235.6 					"/>
				</g>
				<g class="st0">
					<defs>
						<path id="SVGID_49_" class="st0" d="M155,162.4l9.9,9.4c1,0.9,2,2.1,2.7,3.6c0.8,1.6,1.8,4.5,1.8,4.5l-9.9-9.4
							c0,0-1-2.9-1.8-4.5C157,164.5,156,163.3,155,162.4z"/>
					</defs>
					<clipPath id="SVGID_50_">
						<use xlink:href="#SVGID_49_"  style="overflow:visible;"/>
					</clipPath>
					<g class="st35">
						<path class="st2" d="M169.4,180l-9.9-9.4c0,0-1-2.9-1.8-4.5c-0.7-1.5-1.7-2.7-2.7-3.6l9.9,9.4c1,0.9,2,2.1,2.7,3.6
							C168.4,177,169.4,180,169.4,180"/>
					</g>
				</g>
				<g>
					<polygon class="st36" points="110.1,229 100.2,219.6 99.3,218.7 109.2,228.1 					"/>
				</g>
				<g>
					<polygon class="st36" points="109.2,228.1 99.3,218.7 98.4,217.8 108.3,227.2 					"/>
				</g>
				<g class="st0">
					<defs>
						<path id="SVGID_51_" class="st0" d="M140.6,204.4l-9.9-9.4c-0.9-0.9-1.4-1.7-1.7-2.1c-1.2-1.9-1.4-3.6-1.8-6.4l9.9,9.4
							c0.4,2.8,0.6,4.5,1.8,6.4C139.1,202.6,139.7,203.5,140.6,204.4z"/>
					</defs>
					<clipPath id="SVGID_52_">
						<use xlink:href="#SVGID_51_"  style="overflow:visible;"/>
					</clipPath>
					<g class="st37">
						<path class="st2" d="M140.6,204.4l-9.9-9.4c-0.9-0.9-1.4-1.7-1.7-2.1c-1.2-1.9-1.4-3.6-1.8-6.4l9.9,9.4
							c0.4,2.8,0.6,4.5,1.8,6.4C139.1,202.6,139.7,203.5,140.6,204.4"/>
					</g>
				</g>
				<g class="st0">
					<defs>
						<path id="SVGID_53_" class="st0" d="M146.7,168.9l9.9,9.4c-1.1-1.1-3-2-4.6-2.4c-1-0.2-2-0.3-2.9-0.3
							c-2.7,0.1-4.7,1.1-5.4,1.5c-2.2,1.1-3.4,2.6-3.7,2.9c-1.8,2.2-2.3,4.4-2.8,6.5c-0.8,3.7-0.4,6.5-0.1,9.2l-9.9-9.4
							c-0.4-2.7-0.7-5.5,0.1-9.2c0.5-2.2,1-4.4,2.8-6.5c0.3-0.3,1.5-1.8,3.7-2.9c0.7-0.4,2.8-1.4,5.4-1.5c0.9,0,1.9,0,2.9,0.3
							C143.7,167,145.6,167.9,146.7,168.9z"/>
					</defs>
					<clipPath id="SVGID_54_">
						<use xlink:href="#SVGID_53_"  style="overflow:visible;"/>
					</clipPath>
					<g class="st38">
						<path class="st2" d="M137.1,195.9l-9.9-9.4c-0.4-2.7-0.7-5.5,0.1-9.2c0.5-2.2,1-4.4,2.8-6.5c0.1-0.1,0.2-0.2,0.4-0.4l9.9,9.4
							c-0.2,0.2-0.3,0.4-0.4,0.4c-1.8,2.2-2.3,4.4-2.8,6.5C136.4,190.3,136.8,193.2,137.1,195.9"/>
						<path class="st10" d="M140.4,179.7l-9.9-9.4c0.3-0.3,0.8-0.8,1.5-1.3l9.9,9.4C141.2,178.8,140.7,179.3,140.4,179.7"/>
						<path class="st9" d="M141.9,178.3l-9.9-9.4c0.4-0.3,0.9-0.7,1.5-1l9.9,9.4C142.9,177.7,142.4,178,141.9,178.3"/>
						<path class="st8" d="M143.4,177.4l-9.9-9.4c0.1-0.1,0.2-0.1,0.3-0.2c0.3-0.1,0.7-0.4,1.4-0.6l9.9,9.4
							c-0.6,0.2-1.1,0.5-1.4,0.6C143.6,177.3,143.5,177.3,143.4,177.4"/>
						<path class="st7" d="M145.1,176.6l-9.9-9.4c0.5-0.2,1-0.4,1.7-0.5l9.9,9.4C146.1,176.2,145.5,176.4,145.1,176.6"/>
						<path class="st6" d="M146.7,176.1l-9.9-9.4c0.5-0.1,1.1-0.2,1.7-0.3l9.9,9.4C147.8,175.8,147.3,175.9,146.7,176.1"/>
						<path class="st4" d="M148.5,175.8l-9.9-9.4c0.2,0,0.4,0,0.7,0c0.5,0,1,0,1.5,0.1l9.9,9.4c-0.5-0.1-1-0.1-1.5-0.1
							C148.9,175.7,148.7,175.7,148.5,175.8"/>
						<path class="st5" d="M150.6,175.8l-9.9-9.4c0.4,0,0.9,0.1,1.4,0.2c1.4,0.3,2.9,1,4.1,1.9l9.9,9.4c-1.1-0.9-2.7-1.6-4.1-1.9
							C151.5,175.9,151.1,175.8,150.6,175.8"/>
						<path class="st4" d="M156.1,177.9l-9.9-9.4c0.2,0.2,0.4,0.3,0.5,0.5l9.9,9.4C156.4,178.2,156.3,178.1,156.1,177.9"/>
					</g>
				</g>
				<g>
					<polygon class="st36" points="32.5,275 22.6,265.6 20.8,263.8 30.7,273.2 					"/>
				</g>
				<g>
					<polygon class="st36" points="30.7,273.2 20.8,263.8 19.9,261.1 29.8,270.5 					"/>
				</g>
				<g>
					<polygon class="st36" points="29.8,270.5 19.9,261.1 20,250.9 29.9,260.4 					"/>
				</g>
				<g>
					<polygon class="st39" points="199.8,72.1 189.9,62.7 204.5,76 214.4,85.4 					"/>
				</g>
				<g>
					<polygon class="st36" points="108.3,227.2 98.4,217.8 99,149.6 108.9,159.1 					"/>
				</g>
				<g>
					<polygon class="st15" points="110.8,156.3 100.9,146.8 265.5,141.1 275.4,150.5 					"/>
				</g>
				<g>
					<polygon class="st40" points="109.9,157.2 100,147.8 100.9,146.8 110.8,156.3 					"/>
				</g>
				<g>
					<polygon class="st41" points="108.9,159.1 99,149.6 100,147.8 109.9,157.2 					"/>
				</g>
				<g>
					<path class="st42" d="M278.2,151.3l0.9,0.9l-0.6,68.2l-0.9,1.9l-1.8,1L110.1,229l-0.9-0.9l-0.9-0.9l0.6-68.2l0.9-1.9l0.9-0.9
						l164.6-5.7l0.9,0L278.2,151.3z M137.1,195.9c-0.4-2.7-0.7-5.5,0.1-9.2c0.5-2.2,1-4.4,2.8-6.5c0.3-0.3,1.5-1.8,3.7-2.9
						c0.7-0.4,2.8-1.4,5.4-1.5c0.9,0,1.9,0,2.9,0.3c2.2,0.5,4.7,1.9,5.5,3.5c0.1,0.1,0.4,0.9,0.9,1.8c0.8,1.7,0.8,1.7,0.9,1.8
						c0.2,0.2,0.4,0.2,0.7,0.2c1,0,2.7-0.9,6.6-2.3c0.6-0.2,2.7-1,2.8-1c0,0-1-2.9-1.8-4.5c-1.8-3.6-5-5.5-6.4-6.2
						c-2-1-3.6-1.2-6.4-1.6c-1.7-0.2-3.9-0.5-6.4-0.4c-1.7,0.1-3.6,0.3-5.6,0.8c-1.9,0.5-5.1,1.4-8.3,4c-5.3,4.2-7,9.7-7.5,11.3
						c-0.8,2.6-0.9,5-1,5.6c-0.1,2,0,2.8-0.1,7.4c0,1.3,0,1.4,0,1.8c0.1,1.7,0.6,3.3,1.8,5.5c1.3,2.4,2.6,4.8,5.5,7.2
						c0.7,0.6,4,3.2,9.2,4.3c1.8,0.4,3.5,0.5,5.1,0.4c2.2-0.1,4.2-0.5,5.9-0.8c2.3-0.5,4.2-0.8,6.5-2.1c3.4-1.8,5.3-4.2,6.5-5.7
						c0.5-0.6,2.8-3.6,2.8-5.6c0-0.1,0-1.8,0-1.8c-0.2,0-3.4-0.8-10.1-2.4c-0.9,3.6-0.9,3.7-0.9,3.7c-1.3,3.8-6.1,5.6-6.5,5.7
						c-0.3,0.1-1.7,0.6-3.7,0.7c-1.6,0.1-3.6-0.2-5.5-1.3c-2.2-1.2-3.2-2.9-3.6-3.6C137.7,200.4,137.5,198.7,137.1,195.9
						 M261.2,202.1c0.1-0.2,1.6-4.4,0.1-9.4c-0.2-0.8-0.7-2.3-1.8-3.7c-0.7-0.9-1.4-1.4-1.8-1.8c-1-0.9-2-1.4-2.7-1.8
						c-3-1.6-6-2.5-6.4-2.6c-2.4-0.7-4.5-1.1-7.3-1.6c-1.2-0.2-2.4-0.7-3.7-0.8c-0.8-0.1-1.8-0.2-2.7-0.8c-0.3-0.2-0.6-0.4-0.9-0.9
						c-0.7-1.1-0.7-2.6,0-3.7c0.3-0.5,0.7-0.8,0.9-1c1-0.8,2.2-1,2.8-1c2.1-0.3,3.7-0.5,4.9-0.5c1,0,1.8,0,2.4,0.2
						c1.1,0.3,4,1.2,4.6,3.6c0.2,0.7,0.1,1.4,0,1.9c2.1-0.1,10.6-0.4,11-0.4c-0.9-5.9-1.7-7.3-1.8-7.4c-1.2-1.8-2.6-2.9-3.6-3.6
						c-0.6-0.4-2.5-1.7-5.5-2.6c-2.3-0.7-4.5-0.9-6.6-0.8c-2.9,0.1-5.6,0.7-8.1,1.3c-3.2,0.7-4.6,1.4-5.5,2.1
						c-0.6,0.4-2.9,1.9-4.6,4.8c-2.1,3.4-2.8,7.6-1.9,9.4c0.1,0.2,0.4,0.8,0.9,1.8c0.6,1.2,0.7,1.4,0.9,1.8c0.5,0.7,1,1.1,1.8,1.8
						c2,1.5,3,2.3,3.7,2.7c1.9,1,3.5,1.4,4.6,1.7c1.5,0.4,1.3,0.1,4.6,0.8c2.3,0.4,3.4,0.7,3.7,0.8c1.2,0.3,1.1,0.4,2.8,0.8
						c0.6,0.2,1.5,0.4,2.7,0.8c1.2,0.4,1.5,0.6,1.8,0.9c0.2,0.2,0.9,0.9,0.9,1.8c0,0,0,0,0,0.9c0,0.9,0,0.9,0,0.9
						c-0.1,0.8-0.6,1.5-0.9,1.9c-0.1,0.1-0.1,0.1-0.9,1c-0.7,0.7-0.8,0.9-0.9,1c-0.7,0.7-1.7,0.9-2.8,1c-0.8,0.1-1.5,0.2-2.6,0.2
						c-1,0-2.2,0-3.9,0c-1.7,0-2.8-0.1-3.7-0.8c-0.1-0.1-0.1-0.1-0.9-0.9c-1.5-1.5-1.6-1.5-1.8-1.8c-0.6-0.9-0.3-1.2-0.9-2.8
						c-0.3-0.8-0.7-1.4-0.9-1.8c-2.9,0.7-5.9,1.1-9.2,1.3c-0.3,0-0.6,0-0.9,0c0.3,2,1.3,7.1,5.4,11c0.6,0.5,2.5,2.3,5.5,3.6
						c2.7,1.1,5.3,1.5,8,1.4c2.4-0.1,4.9-0.5,7.6-1c3.5-0.6,5.3-0.9,7.4-2.1C255.7,209.2,259.4,206.9,261.2,202.1 M215.2,203.3
						c0.1-0.2,1.6-4.3,0.1-9.2c-0.2-0.8-0.7-2.2-1.8-3.6c-0.7-0.8-1.4-1.4-1.8-1.8c-1-0.8-2-1.3-2.7-1.7c-3-1.5-6-2.4-6.4-2.5
						c-2.4-0.7-4.5-1.1-7.3-1.6c-1.2-0.2-2.4-0.6-3.7-0.8c-0.8-0.1-1.8-0.2-2.8-0.8c-0.3-0.2-0.6-0.4-0.9-0.9
						c-0.7-1.1-0.7-2.6,0-3.7c0.3-0.5,0.7-0.8,0.9-1c1-0.8,2.2-0.9,2.8-1c2.1-0.3,3.7-0.5,4.9-0.5c1,0,1.8,0,2.5,0.2
						c1.1,0.3,4,1.2,4.6,3.5c0.2,0.7,0.1,1.4,0,1.8c2.1-0.1,10.6-0.4,11-0.4c-1-5.8-1.7-7.2-1.8-7.3c-1.2-1.8-2.6-2.8-3.6-3.6
						c-0.6-0.4-2.5-1.7-5.5-2.6c-2.3-0.7-4.5-0.9-6.6-0.8c-2.9,0.1-5.6,0.7-8.1,1.3c-3.2,0.7-4.5,1.4-5.5,2
						c-0.6,0.4-2.9,1.9-4.6,4.8c-2.1,3.4-2.8,7.5-1.9,9.3c0.1,0.2,0.4,0.8,0.9,1.8c0.6,1.2,0.6,1.4,0.9,1.8c0.5,0.7,1,1.1,1.8,1.8
						c2,1.5,3,2.3,3.7,2.6c1.9,1,3.5,1.4,4.6,1.7c1.5,0.4,1.3,0.1,4.6,0.8c2.3,0.4,3.3,0.7,3.7,0.8c1.2,0.3,1.1,0.4,2.8,0.8
						c0.6,0.2,1.5,0.4,2.7,0.8c1.2,0.4,1.5,0.6,1.8,0.9c0.2,0.2,0.9,0.9,0.9,1.8c0,0,0,0,0,0.9c0,0.9,0,0.9,0,0.9
						c-0.1,0.8-0.6,1.4-0.9,1.9c-0.1,0.1-0.1,0.1-0.9,0.9c-0.7,0.7-0.8,0.8-0.9,1c-0.7,0.7-1.7,0.9-2.8,1c-0.8,0.1-1.5,0.2-2.6,0.2
						c-1,0-2.2,0-3.9,0c-1.7,0-2.8-0.1-3.7-0.8c-0.1-0.1-0.1-0.1-0.9-0.9c-1.5-1.5-1.6-1.4-1.8-1.8c-0.6-0.8-0.3-1.2-0.9-2.7
						c-0.3-0.8-0.7-1.4-0.9-1.8c-2.9,0.7-5.9,1.1-9.2,1.2c-0.3,0-0.6,0-0.9,0c0.3,2,1.3,6.9,5.4,10.9c0.6,0.5,2.5,2.2,5.5,3.5
						c2.7,1.1,5.3,1.4,8,1.3c2.4-0.1,4.9-0.5,7.6-1c3.5-0.6,5.3-0.9,7.4-2.1C209.7,210.3,213.4,208,215.2,203.3"/>
				</g>
				<g>
					<polygon class="st39" points="188,61.5 178.1,52.1 189.9,62.7 199.8,72.1 					"/>
				</g>
				<g>
					<polygon class="st15" points="137.9,109.3 128,99.8 206.2,97.1 216.1,106.5 					"/>
				</g>
				<g>
					<polygon class="st39" points="174.3,49.1 164.4,39.6 178.1,52.1 188,61.5 					"/>
				</g>
				<g>
					<polygon class="st39" points="160.6,36.7 150.7,27.2 164.4,39.6 174.3,49.1 					"/>
				</g>
				<g>
					<polygon class="st43" points="157.9,35.8 148,26.4 150.7,27.2 160.6,36.7 					"/>
				</g>
				<g>
					<polygon class="st42" points="157.9,35.8 160.6,36.7 174.3,49.1 188,61.5 199.8,72.1 214.4,85.4 216.2,88.1 216.2,93.7 
						151.8,95.9 152.4,36 					"/>
				</g>
				<g>
					<polygon class="st15" points="152.4,36 142.5,26.6 148,26.4 157.9,35.8 					"/>
				</g>
				<g>
					<polygon class="st36" points="151.8,95.9 141.9,86.5 142.5,26.6 152.4,36 					"/>
				</g>
				<g>
					<polygon class="st15" points="41.1,39.9 31.2,30.5 128.7,27.1 138.6,36.5 					"/>
				</g>
				<g>
					<polygon class="st36" points="29.9,260.4 20,250.9 21.9,37.2 31.8,46.7 					"/>
				</g>
				<g>
					<polygon class="st44" points="36.5,41 26.6,31.6 31.2,30.5 41.1,39.9 					"/>
				</g>
				<g>
					<polygon class="st40" points="32.8,44.8 22.9,35.4 26.6,31.6 36.5,41 					"/>
				</g>
				<g>
					<polygon class="st41" points="31.8,46.7 21.9,37.2 22.9,35.4 32.8,44.8 					"/>
				</g>
				<g>
					<polygon class="st42" points="138.6,36.5 137.9,109.3 216.1,106.5 215.7,146.2 214.8,146.2 108.1,149.9 106.3,150.9 
						104.4,151.9 102.6,154.7 101.9,229.3 101.8,231.2 103.7,232.9 105.5,234.7 107.3,235.6 214.9,231.8 214.6,264 213.7,265.9 
						212.7,267.8 211.8,268.7 209,270.7 206.3,271.7 36.1,277.6 32.5,275 30.7,273.2 29.8,270.5 29.9,260.4 31.8,46.7 32.8,44.8 
						36.5,41 41.1,39.9 					"/>
				</g>
			</g>
		</g>
	</g>
	<g>
		<g>
			<g class="st0">
				<g class="st0">
					<defs>
						<path id="SVGID_55_" class="st0" d="M257.7,211.8l-9.9-9.4c0.1-0.1,0.2-0.2,0.9-1c0.8-0.9,0.8-0.8,0.9-1l9.9,9.4
							c-0.1,0.1-0.1,0.1-0.9,1C257.9,211.6,257.8,211.7,257.7,211.8z"/>
					</defs>
					<clipPath id="SVGID_56_">
						<use xlink:href="#SVGID_55_"  style="overflow:visible;"/>
					</clipPath>
					<g class="st45">
						<path class="st46" d="M257.7,211.8l-9.9-9.4c0,0,0,0,0,0L257.7,211.8C257.8,211.8,257.7,211.8,257.7,211.8"/>
						<path class="st47" d="M257.8,211.8l-9.9-9.4c0.1-0.1,0.2-0.2,0.8-0.9l9.9,9.4C258,211.5,257.9,211.6,257.8,211.8"/>
						<path class="st46" d="M258.6,210.9l-9.9-9.4c0,0,0,0,0.1-0.1c0.5-0.5,0.7-0.7,0.8-0.8l9.9,9.4
							C259.3,210.1,259.2,210.3,258.6,210.9C258.6,210.8,258.6,210.9,258.6,210.9"/>
						<path class="st47" d="M259.5,210l-9.9-9.4c0.1-0.1,0.1-0.1,0.1-0.2l9.9,9.4C259.6,209.9,259.5,209.9,259.5,210"/>
					</g>
				</g>
				<g class="st0">
					<defs>
						<path id="SVGID_57_" class="st0" d="M259.6,209.8l-9.9-9.4c0.3-0.4,0.9-1.1,0.9-1.9l9.9,9.4
							C260.5,208.8,259.9,209.4,259.6,209.8z"/>
					</defs>
					<clipPath id="SVGID_58_">
						<use xlink:href="#SVGID_57_"  style="overflow:visible;"/>
					</clipPath>
					<g class="st48">
						<path class="st47" d="M259.6,209.8l-9.9-9.4c0.3-0.4,0.9-1.1,0.9-1.9l9.9,9.4C260.5,208.8,259.9,209.4,259.6,209.8"/>
					</g>
				</g>
				<g class="st0">
					<defs>
						<path id="SVGID_59_" class="st0" d="M260.5,207.9l-9.9-9.4c0,0,0,0,0-0.9c0-0.9,0-0.9,0-0.9l9.9,9.4c0,0,0,0,0,0.9
							C260.5,207.9,260.5,207.9,260.5,207.9z"/>
					</defs>
					<clipPath id="SVGID_60_">
						<use xlink:href="#SVGID_59_"  style="overflow:visible;"/>
					</clipPath>
					<g class="st49">
						<path class="st47" d="M260.5,207.9l-9.9-9.4c0,0,0,0,0-0.9c0-0.9,0-0.9,0-0.9l9.9,9.4c0,0,0,0,0,0.9
							C260.5,207.9,260.5,207.9,260.5,207.9"/>
					</g>
				</g>
				<g class="st0">
					<defs>
						<path id="SVGID_61_" class="st0" d="M249.7,194.7l9.9,9.4c0,0,0,0,0,0c0.2,0.2,0.9,0.9,0.9,1.8l-9.9-9.4
							C250.6,195.7,250,195,249.7,194.7C249.7,194.8,249.7,194.7,249.7,194.7z"/>
					</defs>
					<clipPath id="SVGID_62_">
						<use xlink:href="#SVGID_61_"  style="overflow:visible;"/>
					</clipPath>
					<g class="st50">
						<path class="st47" d="M260.5,206.1l-9.9-9.4c0-0.9-0.7-1.6-0.9-1.8c0,0,0,0,0,0l9.9,9.4c0,0,0,0,0,0
							C259.9,204.4,260.5,205.1,260.5,206.1"/>
					</g>
				</g>
				<g class="st0">
					<defs>
						<path id="SVGID_63_" class="st0" d="M244.9,212.2l-9.9-9.4c0.9,0.7,1.9,0.8,3.7,0.8c1.7,0,2.9,0,3.9,0c1.1,0,1.8-0.1,2.6-0.2
							c1.1-0.2,2.1-0.3,2.8-1l9.9,9.4c-0.7,0.7-1.7,0.9-2.8,1c-0.8,0.1-1.5,0.2-2.6,0.2c-1,0-2.2,0-3.9,0
							C246.8,213,245.8,213,244.9,212.2z"/>
					</defs>
					<clipPath id="SVGID_64_">
						<use xlink:href="#SVGID_63_"  style="overflow:visible;"/>
					</clipPath>
					<g class="st51">
						<path class="st52" d="M244.9,212.2l-9.9-9.4c0,0,0.1,0,0.1,0.1L244.9,212.2C244.9,212.3,244.9,212.2,244.9,212.2"/>
						<path class="st53" d="M245,212.3l-9.9-9.4c0.5,0.4,1.1,0.6,1.9,0.7l9.9,9.4C246.1,212.9,245.5,212.7,245,212.3"/>
						<path class="st52" d="M246.8,213l-9.9-9.4c0.5,0.1,1,0.1,1.7,0.1c1.7,0,2.9,0,3.9,0c0.6,0,1.1-0.1,1.6-0.1l9.9,9.4
							c-0.5,0-1,0.1-1.6,0.1c-1,0-2.2,0-3.9,0C247.9,213,247.3,213,246.8,213"/>
						<path class="st54" d="M254,212.9l-9.9-9.4c0.4,0,0.7-0.1,1-0.1c0.4-0.1,0.8-0.1,1.1-0.2l9.9,9.4c-0.4,0.1-0.7,0.2-1.1,0.2
							C254.6,212.9,254.3,212.9,254,212.9"/>
						<path class="st55" d="M256.1,212.6l-9.9-9.4c0.2-0.1,0.4-0.1,0.6-0.2l9.9,9.4C256.5,212.5,256.3,212.5,256.1,212.6"/>
						<path class="st56" d="M256.7,212.4l-9.9-9.4c0.1-0.1,0.3-0.1,0.4-0.2l9.9,9.4C257,212.3,256.9,212.4,256.7,212.4"/>
						<path class="st57" d="M257.1,212.2l-9.9-9.4c0.1-0.1,0.2-0.1,0.3-0.2l9.9,9.4C257.4,212.1,257.3,212.2,257.1,212.2"/>
						<path class="st46" d="M257.5,212l-9.9-9.4c0.1-0.1,0.2-0.1,0.3-0.2l9.9,9.4C257.7,211.9,257.6,211.9,257.5,212"/>
					</g>
				</g>
				<g class="st0">
					<defs>
						<path id="SVGID_65_" class="st0" d="M244.8,212.1l-9.9-9.4c0,0,0.1,0.1,0.1,0.1L244.8,212.1
							C244.8,212.2,244.8,212.2,244.8,212.1z"/>
					</defs>
					<clipPath id="SVGID_66_">
						<use xlink:href="#SVGID_65_"  style="overflow:visible;"/>
					</clipPath>
					<g class="st58">
						<path class="st52" d="M244.8,212.1l-9.9-9.4c0,0,0.1,0.1,0.1,0.1L244.8,212.1C244.8,212.2,244.8,212.2,244.8,212.1"/>
					</g>
				</g>
				<g class="st0">
					<defs>
						<path id="SVGID_67_" class="st0" d="M242.5,209.9l-9.9-9.4c0.1,0.1,0.4,0.3,0.7,0.7l9.9,9.4
							C242.8,210.2,242.6,210,242.5,209.9z"/>
					</defs>
					<clipPath id="SVGID_68_">
						<use xlink:href="#SVGID_67_"  style="overflow:visible;"/>
					</clipPath>
					<g class="st59">
						<path class="st52" d="M242.5,209.9l-9.9-9.4c0.1,0.1,0.4,0.3,0.7,0.7l9.9,9.4C242.8,210.2,242.6,210,242.5,209.9"/>
					</g>
				</g>
				<g class="st0">
					<defs>
						<path id="SVGID_69_" class="st0" d="M247.9,174.3l9.9,9.4c0.5,0.5,0.9,1.1,1.1,1.8c0.2,0.7,0.1,1.4,0,1.9L249,178
							c0.1-0.5,0.2-1.1,0-1.9C248.8,175.3,248.4,174.7,247.9,174.3z"/>
					</defs>
					<clipPath id="SVGID_70_">
						<use xlink:href="#SVGID_69_"  style="overflow:visible;"/>
					</clipPath>
					<g class="st60">
						<path class="st47" d="M258.9,187.4L249,178c0.1-0.5,0.2-1.1,0-1.9c-0.2-0.7-0.6-1.3-1.1-1.8l9.9,9.4c0.5,0.5,0.9,1.1,1.1,1.8
							C259.1,186.3,259,186.9,258.9,187.4"/>
					</g>
				</g>
				<g class="st0">
					<defs>
						<path id="SVGID_71_" class="st0" d="M231.1,206.1l-9.9-9.4c3.3-0.1,6.3-0.6,9.2-1.3l9.9,9.4
							C237.5,205.5,234.4,206,231.1,206.1z"/>
					</defs>
					<clipPath id="SVGID_72_">
						<use xlink:href="#SVGID_71_"  style="overflow:visible;"/>
					</clipPath>
					<g class="st61">
						<path class="st52" d="M231.1,206.1l-9.9-9.4c0.8,0,1.7-0.1,2.5-0.2l9.9,9.4C232.8,206.1,232,206.1,231.1,206.1"/>
						<path class="st54" d="M233.6,206l-9.9-9.4c2.3-0.2,4.6-0.6,6.7-1.1l9.9,9.4C238.2,205.4,236,205.8,233.6,206"/>
					</g>
				</g>
				<g class="st0">
					<defs>
						<path id="SVGID_73_" class="st0" d="M235.7,217.3l-9.9-9.4c0,0,0,0,0,0c-4.1-4-5.1-9-5.4-11.1l9.9,9.4
							C230.5,208.2,231.5,213.2,235.7,217.3C235.6,217.2,235.7,217.3,235.7,217.3z"/>
					</defs>
					<clipPath id="SVGID_74_">
						<use xlink:href="#SVGID_73_"  style="overflow:visible;"/>
					</clipPath>
					<g class="st62">
						<path class="st47" d="M235.7,217.3l-9.9-9.4c0,0,0,0,0,0c-4.1-4-5.1-9-5.4-11.1l9.9,9.4C230.5,208.2,231.5,213.2,235.7,217.3
							C235.6,217.2,235.7,217.3,235.7,217.3"/>
					</g>
				</g>
				<g class="st0">
					<defs>
						<path id="SVGID_75_" class="st0" d="M230.2,206.2l-9.9-9.4c0.2,0,0.3,0,0.5,0c0.2,0,0.3,0,0.5,0l9.9,9.4c-0.2,0-0.3,0-0.5,0
							C230.5,206.2,230.4,206.2,230.2,206.2z"/>
					</defs>
					<clipPath id="SVGID_76_">
						<use xlink:href="#SVGID_75_"  style="overflow:visible;"/>
					</clipPath>
					<g class="st63">
						<path class="st52" d="M230.2,206.2l-9.9-9.4c0.2,0,0.3,0,0.5,0c0.2,0,0.3,0,0.5,0l9.9,9.4c-0.2,0-0.3,0-0.5,0
							C230.5,206.2,230.4,206.2,230.2,206.2"/>
					</g>
				</g>
				<g class="st0">
					<defs>
						<path id="SVGID_77_" class="st0" d="M243.7,188.5l-9.9-9.4c0.2,0.2,0.3,0.3,0.5,0.4c1,0.7,1.9,0.7,2.8,0.8
							c1.2,0.2,2.4,0.6,3.7,0.8c2.9,0.5,4.9,0.9,7.3,1.6c0.4,0.1,3.4,1,6.4,2.6c0.8,0.4,1.7,0.9,2.7,1.8c0.2,0.2,0.5,0.4,0.8,0.7
							l9.9,9.4c-0.3-0.3-0.6-0.5-0.8-0.7c-1-0.8-2-1.4-2.7-1.8c-3-1.6-6-2.5-6.4-2.6c-2.4-0.7-4.5-1.1-7.3-1.6
							c-1.2-0.2-2.4-0.7-3.7-0.8c-0.8-0.1-1.8-0.2-2.8-0.8C244,188.7,243.9,188.6,243.7,188.5z"/>
					</defs>
					<clipPath id="SVGID_78_">
						<use xlink:href="#SVGID_77_"  style="overflow:visible;"/>
					</clipPath>
					<g class="st64">
						<path class="st52" d="M243.7,188.5l-9.9-9.4c0.1,0.1,0.2,0.2,0.3,0.2l9.9,9.4C243.9,188.6,243.8,188.5,243.7,188.5"/>
						<path class="st53" d="M244,188.7l-9.9-9.4c0.1,0.1,0.1,0.1,0.2,0.2c1,0.7,1.9,0.7,2.8,0.8c1.2,0.2,2.4,0.6,3.7,0.8
							c2.9,0.5,4.9,0.9,7.3,1.6c0.4,0.1,3.4,1,6.4,2.6c0.7,0.4,1.5,0.8,2.4,1.5l9.9,9.4c-0.9-0.7-1.7-1.2-2.4-1.5
							c-3-1.6-6-2.5-6.4-2.6c-2.4-0.7-4.5-1.1-7.3-1.6c-1.2-0.2-2.4-0.7-3.7-0.8c-0.8-0.1-1.8-0.2-2.8-0.8
							C244.1,188.8,244,188.7,244,188.7"/>
						<path class="st52" d="M266.7,196.2l-9.9-9.4c0.1,0.1,0.2,0.2,0.3,0.3c0.2,0.2,0.5,0.4,0.8,0.7l9.9,9.4
							c-0.3-0.3-0.6-0.5-0.8-0.7C267,196.4,266.9,196.3,266.7,196.2"/>
					</g>
				</g>
				<g class="st0">
					<defs>
						<path id="SVGID_79_" class="st0" d="M256.6,168.1l9.9,9.4c-0.7-0.7-1.4-1.2-2-1.6c-0.6-0.4-2.5-1.7-5.5-2.6
							c-2.3-0.7-4.5-0.9-6.6-0.8l-9.9-9.4c2.1-0.1,4.3,0.1,6.6,0.8c3,0.9,4.9,2.2,5.5,2.6C255.2,166.9,255.9,167.4,256.6,168.1z"/>
					</defs>
					<clipPath id="SVGID_80_">
						<use xlink:href="#SVGID_79_"  style="overflow:visible;"/>
					</clipPath>
					<g class="st65">
						<path class="st52" d="M252.5,172.5l-9.9-9.4c1,0,2,0,3,0.1l9.9,9.4C254.5,172.5,253.4,172.5,252.5,172.5"/>
						<path class="st53" d="M255.5,172.6l-9.9-9.4c1.1,0.1,2.3,0.3,3.5,0.7c3,0.9,4.9,2.2,5.5,2.6c0.3,0.2,0.5,0.4,0.8,0.6l9.9,9.4
							c-0.3-0.2-0.6-0.4-0.8-0.6c-0.6-0.4-2.5-1.7-5.5-2.6C257.8,173,256.6,172.8,255.5,172.6"/>
						<path class="st52" d="M265.3,176.6l-9.9-9.4c0.4,0.3,0.7,0.6,1.1,1l9.9,9.4C266.1,177.2,265.7,176.8,265.3,176.6"/>
					</g>
				</g>
				<g class="st0">
					<defs>
						<path id="SVGID_81_" class="st0" d="M234.8,194.8l-9.9-9.4c-0.3-0.3-0.5-0.6-0.8-1c-0.3-0.4-0.3-0.6-0.9-1.8
							c-0.5-1.1-0.8-1.7-0.9-1.8c-0.9-1.8-0.2-6,1.9-9.4c1.8-2.9,4-4.5,4.6-4.8c1-0.6,2.4-1.3,5.5-2.1c2.6-0.6,5.3-1.2,8.2-1.3
							l9.9,9.4c-2.9,0.1-5.6,0.7-8.2,1.3c-3.2,0.7-4.6,1.4-5.5,2.1c-0.6,0.4-2.9,1.9-4.6,4.8c-2.1,3.4-2.8,7.6-1.9,9.4
							c0.1,0.2,0.4,0.8,0.9,1.8c0.6,1.2,0.6,1.4,0.9,1.8C234.2,194.2,234.5,194.5,234.8,194.8z"/>
					</defs>
					<clipPath id="SVGID_82_">
						<use xlink:href="#SVGID_81_"  style="overflow:visible;"/>
					</clipPath>
					<g class="st66">
						<path class="st47" d="M234.8,194.8l-9.9-9.4c-0.3-0.3-0.5-0.6-0.8-1c-0.3-0.4-0.3-0.6-0.9-1.8c-0.5-1.1-0.8-1.7-0.9-1.8
							c-0.9-1.8-0.2-6,1.9-9.4c0.7-1.1,1.4-2,2.1-2.8l9.9,9.4c-0.7,0.7-1.4,1.6-2.1,2.8c-2.1,3.4-2.8,7.6-1.9,9.4
							c0.1,0.2,0.4,0.8,0.9,1.8c0.6,1.2,0.6,1.4,0.9,1.8C234.2,194.2,234.5,194.5,234.8,194.8"/>
						<path class="st46" d="M236.2,178l-9.9-9.4c0.7-0.7,1.3-1.2,1.8-1.6l9.9,9.4C237.5,176.8,236.9,177.3,236.2,178"/>
						<path class="st57" d="M238,176.4l-9.9-9.4c0.3-0.2,0.6-0.4,0.7-0.5c0.2-0.1,0.4-0.3,0.6-0.4l9.9,9.4c-0.2,0.1-0.4,0.3-0.6,0.4
							C238.6,176,238.4,176.2,238,176.4"/>
						<path class="st56" d="M239.4,175.5l-9.9-9.4c0.4-0.2,0.8-0.4,1.4-0.6l9.9,9.4C240.2,175.1,239.8,175.3,239.4,175.5"/>
						<path class="st55" d="M240.8,174.9l-9.9-9.4c0.7-0.3,1.7-0.6,2.9-0.9l9.9,9.4C242.5,174.3,241.5,174.6,240.8,174.9"/>
						<path class="st54" d="M243.7,174l-9.9-9.4c0.2,0,0.4-0.1,0.6-0.1c2.1-0.5,4.3-1,6.7-1.2l9.9,9.4c-2.3,0.2-4.5,0.7-6.7,1.2
							C244.1,173.9,243.9,173.9,243.7,174"/>
						<path class="st52" d="M251,172.6l-9.9-9.4c0.5,0,1-0.1,1.5-0.1l9.9,9.4C252,172.6,251.5,172.6,251,172.6"/>
					</g>
				</g>
				<g>
					<path class="st67" d="M252.5,172.5c2.1-0.1,4.3,0.1,6.6,0.8c3,0.9,4.9,2.2,5.5,2.6c1,0.7,2.5,1.8,3.6,3.6
						c0,0.1,0.8,1.6,1.8,7.4c0,0-9,0.3-11,0.4c0.1-0.5,0.2-1.1,0-1.9c-0.6-2.4-3.4-3.2-4.6-3.6c-0.7-0.2-1.5-0.3-2.5-0.2
						c-1.2,0-2.8,0.2-4.9,0.5c-0.6,0.1-1.7,0.2-2.8,1c-0.3,0.2-0.6,0.5-0.9,1c-0.7,1.1-0.7,2.7,0,3.8c0.3,0.5,0.7,0.7,0.9,0.9
						c1,0.7,1.9,0.7,2.8,0.8c1.2,0.2,2.4,0.6,3.7,0.8c2.9,0.5,4.9,0.9,7.3,1.6c0.4,0.1,3.4,1,6.4,2.6c0.8,0.4,1.7,0.9,2.7,1.8
						c0.5,0.4,1.2,1,1.8,1.8c1.1,1.4,1.6,2.8,1.8,3.7c1.5,5,0,9.1-0.1,9.4c-1.7,4.8-5.5,7.1-6.5,7.7c-2,1.2-3.8,1.5-7.4,2.1
						c-2.7,0.5-5.2,0.9-7.6,1c-2.7,0.1-5.3-0.2-8-1.4c-3-1.3-4.9-3-5.5-3.6c-4.1-4-5.1-9-5.4-11.1c0.2,0,0.3,0,0.5,0
						c0.2,0,0.3,0,0.5,0c3.3-0.1,6.3-0.6,9.2-1.3c0.3,0.4,0.6,1,0.9,1.8c0.6,1.5,0.3,1.9,0.9,2.8c0.2,0.4,0.3,0.3,1.8,1.8
						c0.8,0.8,0.8,0.8,0.9,0.9c0.9,0.7,1.9,0.8,3.7,0.8c1.7,0,2.9,0,3.9,0c1.1,0,1.8-0.1,2.6-0.2c1.1-0.2,2.1-0.3,2.8-1
						c0.1-0.1,0.2-0.2,0.9-1c0.8-0.9,0.8-0.8,0.9-1c0.3-0.4,0.9-1.1,0.9-1.9c0,0,0,0,0-0.9c0-0.9,0-0.9,0-0.9c0-0.9-0.7-1.6-0.9-1.8
						c-0.3-0.3-0.6-0.5-1.8-0.9c-1.2-0.4-2.2-0.7-2.8-0.8c-1.7-0.5-1.6-0.5-2.7-0.8c-0.3-0.1-1.4-0.4-3.7-0.8
						c-3.3-0.6-3.1-0.4-4.6-0.8c-1.1-0.3-2.7-0.7-4.6-1.7c-0.7-0.4-1.7-1.1-3.7-2.7c-0.8-0.7-1.4-1.1-1.8-1.8
						c-0.3-0.4-0.3-0.6-0.9-1.8c-0.5-1.1-0.8-1.7-0.9-1.8c-0.9-1.8-0.2-6,1.9-9.4c1.8-2.9,4-4.5,4.6-4.8c1-0.6,2.4-1.3,5.5-2.1
						C246.9,173.3,249.6,172.6,252.5,172.5z"/>
				</g>
			</g>
			<g class="st0">
				<g class="st0">
					<defs>
						<path id="SVGID_83_" class="st0" d="M211.8,213l-9.9-9.4c0.1-0.1,0.2-0.2,0.9-0.9c0.8-0.9,0.8-0.8,0.9-1l9.9,9.4
							c-0.1,0.1-0.1,0.1-0.9,1C212,212.8,211.9,212.9,211.8,213z"/>
					</defs>
					<clipPath id="SVGID_84_">
						<use xlink:href="#SVGID_83_"  style="overflow:visible;"/>
					</clipPath>
					<g class="st68">
						<path class="st46" d="M211.8,213l-9.9-9.4c0,0,0,0,0,0L211.8,213C211.8,213,211.8,213,211.8,213"/>
						<path class="st47" d="M211.8,212.9l-9.9-9.4c0,0,0.1-0.1,0.2-0.2l9.9,9.4C211.9,212.8,211.8,212.9,211.8,212.9"/>
						<path class="st46" d="M212,212.7l-9.9-9.4c0.1-0.1,0.3-0.3,0.7-0.7c0.6-0.6,0.7-0.8,0.8-0.9l9.9,9.4c-0.1,0.1-0.3,0.3-0.8,0.9
							C212.3,212.4,212.1,212.6,212,212.7"/>
						<path class="st47" d="M213.5,211.2l-9.9-9.4c0,0,0.1-0.1,0.1-0.1l9.9,9.4C213.6,211.1,213.6,211.1,213.5,211.2"/>
					</g>
				</g>
				<g class="st0">
					<defs>
						<path id="SVGID_85_" class="st0" d="M213.6,211.1l-9.9-9.4c0.3-0.4,0.9-1.1,0.9-1.9l9.9,9.4C214.5,210,214,210.6,213.6,211.1z
							"/>
					</defs>
					<clipPath id="SVGID_86_">
						<use xlink:href="#SVGID_85_"  style="overflow:visible;"/>
					</clipPath>
					<g class="st69">
						<path class="st47" d="M213.6,211.1l-9.9-9.4c0.3-0.4,0.9-1.1,0.9-1.9l9.9,9.4C214.5,210,214,210.6,213.6,211.1"/>
					</g>
				</g>
				<g class="st0">
					<defs>
						<path id="SVGID_87_" class="st0" d="M214.6,209.2l-9.9-9.4c0,0,0,0,0-0.9c0-0.9,0-0.9,0-0.9l9.9,9.4c0,0,0,0,0,0.9
							C214.6,209.2,214.6,209.2,214.6,209.2z"/>
					</defs>
					<clipPath id="SVGID_88_">
						<use xlink:href="#SVGID_87_"  style="overflow:visible;"/>
					</clipPath>
					<g class="st70">
						<path class="st47" d="M214.6,209.2l-9.9-9.4c0,0,0,0,0-0.9c0-0.9,0-0.9,0-0.9l9.9,9.4c0,0,0,0,0,0.9
							C214.6,209.2,214.6,209.2,214.6,209.2"/>
					</g>
				</g>
				<g class="st0">
					<defs>
						<path id="SVGID_89_" class="st0" d="M214.6,207.3l-9.9-9.4c0-0.9-0.7-1.6-0.9-1.8l9.9,9.4
							C213.9,205.8,214.5,206.4,214.6,207.3z"/>
					</defs>
					<clipPath id="SVGID_90_">
						<use xlink:href="#SVGID_89_"  style="overflow:visible;"/>
					</clipPath>
					<g class="st71">
						<path class="st47" d="M214.6,207.3l-9.9-9.4c0-0.9-0.7-1.6-0.9-1.8l9.9,9.4C213.9,205.8,214.5,206.4,214.6,207.3"/>
					</g>
				</g>
				<g class="st0">
					<defs>
						<path id="SVGID_91_" class="st0" d="M198.9,213.4L189,204c0.9,0.7,1.9,0.8,3.7,0.8c1.7,0,2.9,0,3.8,0c1.1,0,1.8-0.1,2.6-0.2
							c1.1-0.1,2.1-0.3,2.8-1l9.9,9.4c-0.7,0.7-1.7,0.9-2.8,1c-0.8,0.1-1.5,0.2-2.6,0.2c-0.9,0-2.1,0-3.8,0
							C200.8,214.2,199.8,214.1,198.9,213.4z"/>
					</defs>
					<clipPath id="SVGID_92_">
						<use xlink:href="#SVGID_91_"  style="overflow:visible;"/>
					</clipPath>
					<g class="st72">
						<path class="st52" d="M198.9,213.4L189,204c0,0,0.1,0,0.1,0.1L198.9,213.4C198.9,213.5,198.9,213.4,198.9,213.4"/>
						<path class="st53" d="M199,213.5l-9.9-9.4c0.5,0.4,1.1,0.6,1.9,0.7l9.9,9.4C200.1,214.1,199.5,213.9,199,213.5"/>
						<path class="st52" d="M200.8,214.1l-9.9-9.4c0.5,0.1,1.1,0.1,1.7,0.1c1.7,0,2.9,0,3.8,0c0.6,0,1.2-0.1,1.6-0.1l9.9,9.4
							c-0.5,0-1,0.1-1.6,0.1c-0.9,0-2.1,0-3.8,0C201.9,214.2,201.3,214.2,200.8,214.1"/>
						<path class="st54" d="M208,214.1l-9.9-9.4c0.3,0,0.7-0.1,1-0.1c0.4-0.1,0.8-0.1,1.2-0.2l9.9,9.4c-0.4,0.1-0.8,0.2-1.2,0.2
							C208.7,214,208.4,214.1,208,214.1"/>
						<path class="st55" d="M210.2,213.8l-9.9-9.4c0.2-0.1,0.4-0.1,0.6-0.2l9.9,9.4C210.6,213.7,210.4,213.7,210.2,213.8"/>
						<path class="st56" d="M210.8,213.6l-9.9-9.4c0.1-0.1,0.3-0.1,0.4-0.2l9.9,9.4C211,213.5,210.9,213.5,210.8,213.6"/>
						<path class="st57" d="M211.2,213.4l-9.9-9.4c0.1-0.1,0.2-0.1,0.3-0.2l9.9,9.4C211.4,213.3,211.3,213.3,211.2,213.4"/>
						<path class="st46" d="M211.5,213.2l-9.9-9.4c0.1-0.1,0.2-0.1,0.3-0.2l9.9,9.4C211.7,213,211.6,213.1,211.5,213.2"/>
					</g>
				</g>
				<g class="st0">
					<defs>
						<path id="SVGID_93_" class="st0" d="M198.8,213.4l-9.9-9.4c0,0,0,0,0.1,0.1L198.8,213.4C198.9,213.4,198.8,213.4,198.8,213.4z
							"/>
					</defs>
					<clipPath id="SVGID_94_">
						<use xlink:href="#SVGID_93_"  style="overflow:visible;"/>
					</clipPath>
					<g class="st73">
						<path class="st52" d="M198.8,213.4l-9.9-9.4c0,0,0,0,0.1,0.1L198.8,213.4C198.9,213.4,198.8,213.4,198.8,213.4"/>
						<polyline class="st53" points="198.9,213.4 189,204 189,204 198.9,213.4 198.9,213.4 						"/>
					</g>
				</g>
				<g class="st0">
					<defs>
						<path id="SVGID_95_" class="st0" d="M196.5,211.1l-9.9-9.4c0.2,0.2,0.5,0.5,1.2,1.1l9.9,9.4
							C196.9,211.5,196.6,211.3,196.5,211.1z"/>
					</defs>
					<clipPath id="SVGID_96_">
						<use xlink:href="#SVGID_95_"  style="overflow:visible;"/>
					</clipPath>
					<g class="st74">
						<path class="st52" d="M196.5,211.1l-9.9-9.4c0.2,0.2,0.5,0.5,1.2,1.1l9.9,9.4C196.9,211.5,196.6,211.3,196.5,211.1"/>
					</g>
				</g>
				<g class="st0">
					<defs>
						<path id="SVGID_97_" class="st0" d="M212.9,189l-9.9-9.4c2.1-0.1,10.6-0.4,11-0.4l9.9,9.4C223.5,188.6,215,188.9,212.9,189z"
							/>
					</defs>
					<clipPath id="SVGID_98_">
						<use xlink:href="#SVGID_97_"  style="overflow:visible;"/>
					</clipPath>
					<g class="st75">
						<path class="st52" d="M212.9,189l-9.9-9.4c2.1-0.1,10.6-0.4,11-0.4l9.9,9.4C223.5,188.6,215,188.9,212.9,189"/>
					</g>
				</g>
				<g class="st0">
					<defs>
						<path id="SVGID_99_" class="st0" d="M202,176l9.9,9.4c0.5,0.5,0.9,1,1,1.7c0.2,0.7,0.1,1.4,0,1.9l-9.9-9.4
							c0.1-0.5,0.2-1.1,0-1.9C202.8,177,202.5,176.4,202,176z"/>
					</defs>
					<clipPath id="SVGID_100_">
						<use xlink:href="#SVGID_99_"  style="overflow:visible;"/>
					</clipPath>
					<g class="st76">
						<path class="st47" d="M212.9,189l-9.9-9.4c0.1-0.5,0.2-1.1,0-1.9c-0.2-0.7-0.6-1.3-1-1.7l9.9,9.4c0.5,0.5,0.9,1,1,1.7
							C213.1,187.9,213,188.5,212.9,189"/>
					</g>
				</g>
				<g class="st0">
					<defs>
						<path id="SVGID_101_" class="st0" d="M189.7,218.3l-9.9-9.4c-4.1-3.9-5.1-8.8-5.4-10.9l9.9,9.4
							C184.5,209.5,185.5,214.4,189.7,218.3z"/>
					</defs>
					<clipPath id="SVGID_102_">
						<use xlink:href="#SVGID_101_"  style="overflow:visible;"/>
					</clipPath>
					<g class="st77">
						<path class="st47" d="M189.7,218.3l-9.9-9.4c-4.1-3.9-5.1-8.8-5.4-10.9l9.9,9.4C184.5,209.5,185.5,214.4,189.7,218.3"/>
					</g>
				</g>
				<g class="st0">
					<defs>
						<path id="SVGID_103_" class="st0" d="M184.2,207.5l-9.9-9.4c0.3,0,0.6,0,0.9,0c3.3-0.1,6.3-0.6,9.2-1.2l9.9,9.4
							c-2.9,0.6-6,1.1-9.2,1.2C184.8,207.5,184.5,207.5,184.2,207.5z"/>
					</defs>
					<clipPath id="SVGID_104_">
						<use xlink:href="#SVGID_103_"  style="overflow:visible;"/>
					</clipPath>
					<g class="st78">
						<path class="st52" d="M184.2,207.5l-9.9-9.4c0.3,0,0.6,0,0.9,0c0.8,0,1.7-0.1,2.5-0.2l9.9,9.4c-0.8,0.1-1.6,0.1-2.5,0.2
							C184.8,207.5,184.5,207.5,184.2,207.5"/>
						<path class="st54" d="M187.6,207.3l-9.9-9.4c2.3-0.2,4.6-0.6,6.7-1.1l9.9,9.4C192.2,206.7,190,207.1,187.6,207.3"/>
					</g>
				</g>
				<g class="st0">
					<defs>
						<path id="SVGID_105_" class="st0" d="M197.7,190l-9.9-9.4c0.2,0.2,0.4,0.3,0.5,0.4c1,0.7,1.9,0.7,2.7,0.8
							c1.2,0.1,2.4,0.6,3.7,0.8c2.9,0.5,5,0.9,7.3,1.6c0.4,0.1,3.4,1,6.4,2.5c0.8,0.4,1.7,0.9,2.7,1.7c0.3,0.2,0.6,0.5,0.9,0.8
							l9.9,9.4c-0.3-0.3-0.7-0.6-0.9-0.8c-1-0.8-2-1.4-2.7-1.7c-3-1.5-6-2.4-6.4-2.5c-2.4-0.7-4.5-1.1-7.3-1.6
							c-1.2-0.2-2.4-0.6-3.7-0.8c-0.8-0.1-1.8-0.2-2.7-0.8C198,190.3,197.9,190.2,197.7,190z"/>
					</defs>
					<clipPath id="SVGID_106_">
						<use xlink:href="#SVGID_105_"  style="overflow:visible;"/>
					</clipPath>
					<g class="st79">
						<path class="st52" d="M197.7,190l-9.9-9.4c0.1,0.1,0.2,0.2,0.3,0.2l9.9,9.4C197.9,190.2,197.8,190.1,197.7,190"/>
						<path class="st53" d="M198,190.3l-9.9-9.4c0.1,0.1,0.2,0.1,0.2,0.2c1,0.7,1.9,0.7,2.7,0.8c1.2,0.1,2.4,0.6,3.7,0.8
							c2.9,0.5,5,0.9,7.3,1.6c0.4,0.1,3.4,1,6.4,2.5c0.7,0.4,1.6,0.8,2.5,1.5l9.9,9.4c-0.9-0.7-1.8-1.2-2.5-1.5
							c-3-1.5-6-2.4-6.4-2.5c-2.4-0.7-4.5-1.1-7.3-1.6c-1.2-0.2-2.4-0.6-3.7-0.8c-0.8-0.1-1.8-0.2-2.7-0.8
							C198.1,190.4,198,190.3,198,190.3"/>
						<path class="st52" d="M220.8,197.7l-9.9-9.4c0.1,0.1,0.2,0.1,0.3,0.2c0.3,0.2,0.6,0.5,0.9,0.8l9.9,9.4
							c-0.3-0.3-0.7-0.6-0.9-0.8C221,197.8,220.9,197.8,220.8,197.7"/>
					</g>
				</g>
				<g class="st0">
					<defs>
						<path id="SVGID_107_" class="st0" d="M210.7,169.9l9.9,9.4c-0.7-0.7-1.5-1.2-2-1.6c-0.6-0.4-2.5-1.7-5.5-2.6
							c-2.3-0.7-4.5-0.9-6.6-0.8l-9.9-9.4c2.1-0.1,4.3,0.1,6.6,0.8c3,0.9,4.9,2.2,5.5,2.6C209.2,168.7,209.9,169.2,210.7,169.9z"/>
					</defs>
					<clipPath id="SVGID_108_">
						<use xlink:href="#SVGID_107_"  style="overflow:visible;"/>
					</clipPath>
					<g class="st80">
						<path class="st52" d="M206.5,174.4l-9.9-9.4c1,0,2,0,3.1,0.1l9.9,9.4C208.5,174.4,207.5,174.4,206.5,174.4"/>
						<path class="st53" d="M209.5,174.5l-9.9-9.4c1.1,0.1,2.3,0.3,3.5,0.7c3,0.9,4.9,2.2,5.5,2.6c0.3,0.2,0.6,0.4,1,0.7l9.9,9.4
							c-0.4-0.3-0.7-0.5-1-0.7c-0.6-0.4-2.5-1.7-5.5-2.6C211.8,174.8,210.7,174.6,209.5,174.5"/>
						<path class="st52" d="M219.5,178.5l-9.9-9.4c0.3,0.3,0.7,0.6,1.1,0.9l9.9,9.4C220.2,179,219.8,178.7,219.5,178.5"/>
					</g>
				</g>
				<g class="st0">
					<defs>
						<path id="SVGID_109_" class="st0" d="M188.8,196.3l-9.9-9.4c-0.3-0.3-0.5-0.5-0.7-0.9c-0.3-0.4-0.3-0.6-0.9-1.8
							c-0.5-1.1-0.8-1.6-0.9-1.8c-0.9-1.8-0.2-5.9,1.9-9.3c1.8-2.9,4-4.4,4.6-4.8c1-0.6,2.3-1.3,5.5-2c2.6-0.6,5.3-1.2,8.1-1.3
							l9.9,9.4c-2.9,0.1-5.6,0.7-8.1,1.3c-3.2,0.7-4.6,1.4-5.5,2c-0.6,0.4-2.9,1.9-4.6,4.8c-2.1,3.4-2.8,7.5-1.9,9.3
							c0.1,0.2,0.4,0.8,0.9,1.8c0.6,1.2,0.7,1.4,0.9,1.8C188.3,195.7,188.5,196,188.8,196.3z"/>
					</defs>
					<clipPath id="SVGID_110_">
						<use xlink:href="#SVGID_109_"  style="overflow:visible;"/>
					</clipPath>
					<g class="st81">
						<path class="st47" d="M188.8,196.3l-9.9-9.4c-0.3-0.3-0.5-0.5-0.7-0.9c-0.3-0.4-0.3-0.6-0.9-1.8c-0.5-1.1-0.8-1.6-0.9-1.8
							c-0.9-1.8-0.2-5.9,1.9-9.3c0.6-1,1.4-1.9,2-2.6l9.9,9.4c-0.7,0.7-1.4,1.6-2,2.6c-2.1,3.4-2.8,7.5-1.9,9.3
							c0.1,0.2,0.4,0.8,0.9,1.8c0.6,1.2,0.7,1.4,0.9,1.8C188.3,195.7,188.5,196,188.8,196.3"/>
						<path class="st46" d="M190.2,179.9l-9.9-9.4c0.7-0.7,1.3-1.2,1.8-1.6l9.9,9.4C191.5,178.7,190.8,179.2,190.2,179.9"/>
						<path class="st57" d="M192,178.3l-9.9-9.4c0.4-0.3,0.7-0.5,0.8-0.6c0.2-0.1,0.4-0.2,0.6-0.4l9.9,9.4c-0.2,0.1-0.4,0.2-0.6,0.4
							C192.6,177.8,192.3,178,192,178.3"/>
						<path class="st56" d="M193.4,177.4l-9.9-9.4c0.4-0.2,0.8-0.4,1.4-0.6l9.9,9.4C194.2,177,193.7,177.2,193.4,177.4"/>
						<path class="st55" d="M194.7,176.7l-9.9-9.4c0.7-0.3,1.6-0.6,2.8-0.9l9.9,9.4C196.3,176.2,195.4,176.5,194.7,176.7"/>
						<path class="st54" d="M197.5,175.9l-9.9-9.4c0.3-0.1,0.5-0.1,0.8-0.2c2.1-0.5,4.3-1,6.6-1.2l9.9,9.4c-2.3,0.2-4.5,0.7-6.6,1.2
							C198,175.8,197.8,175.8,197.5,175.9"/>
						<path class="st52" d="M205,174.5l-9.9-9.4c0.5,0,1-0.1,1.5-0.1l9.9,9.4C206,174.4,205.5,174.4,205,174.5"/>
					</g>
				</g>
				<g>
					<path class="st67" d="M206.5,174.4c2.1-0.1,4.3,0.1,6.6,0.8c3,0.9,4.9,2.2,5.5,2.6c1,0.7,2.5,1.7,3.6,3.6
						c0,0.1,0.8,1.6,1.8,7.3c0,0-9,0.3-11,0.4c0.1-0.5,0.2-1.1,0-1.9c-0.6-2.3-3.5-3.2-4.6-3.5c-0.7-0.2-1.5-0.3-2.4-0.2
						c-1.2,0-2.8,0.2-4.9,0.5c-0.6,0.1-1.7,0.2-2.8,1c-0.3,0.2-0.6,0.5-0.9,0.9c-0.7,1.1-0.7,2.6,0,3.7c0.3,0.4,0.7,0.7,0.9,0.9
						c1,0.7,1.9,0.7,2.7,0.8c1.2,0.1,2.4,0.6,3.7,0.8c2.9,0.5,5,0.9,7.3,1.6c0.4,0.1,3.4,1,6.4,2.5c0.8,0.4,1.7,0.9,2.7,1.7
						c0.5,0.4,1.2,0.9,1.8,1.8c1.1,1.4,1.6,2.8,1.8,3.6c1.5,4.9,0,9-0.1,9.2c-1.7,4.7-5.5,7-6.5,7.6c-2,1.2-3.8,1.5-7.4,2.1
						c-2.7,0.5-5.2,0.9-7.7,1c-2.7,0.1-5.3-0.2-8-1.3c-3-1.2-4.9-3-5.5-3.5c-4.1-3.9-5.1-8.8-5.4-10.9c0.3,0,0.6,0,0.9,0
						c3.3-0.1,6.3-0.6,9.2-1.2c0.2,0.4,0.6,1,0.9,1.8c0.6,1.5,0.3,1.9,0.9,2.7c0.2,0.3,0.3,0.3,1.8,1.8c0.8,0.8,0.8,0.8,0.9,0.9
						c0.9,0.7,1.9,0.8,3.7,0.8c1.7,0,2.9,0,3.8,0c1.1,0,1.8-0.1,2.6-0.2c1.1-0.1,2.1-0.3,2.8-1c0.1-0.1,0.2-0.2,0.9-0.9
						c0.8-0.9,0.8-0.8,0.9-1c0.3-0.4,0.9-1.1,0.9-1.9c0,0,0,0,0-0.9c0-0.9,0-0.9,0-0.9c0-0.9-0.7-1.6-0.9-1.8
						c-0.3-0.3-0.6-0.4-1.8-0.9c-1.2-0.4-2.2-0.7-2.8-0.8c-1.7-0.5-1.6-0.5-2.8-0.8c-0.3-0.1-1.4-0.4-3.7-0.8
						c-3.3-0.6-3.1-0.4-4.6-0.8c-1.1-0.3-2.7-0.7-4.6-1.7c-0.7-0.4-1.7-1.1-3.7-2.6c-0.8-0.6-1.4-1.1-1.8-1.8
						c-0.3-0.4-0.3-0.6-0.9-1.8c-0.5-1.1-0.8-1.6-0.9-1.8c-0.9-1.8-0.2-5.9,1.9-9.3c1.8-2.9,4-4.4,4.6-4.8c1-0.6,2.3-1.3,5.5-2
						C200.9,175.1,203.6,174.5,206.5,174.4z"/>
				</g>
			</g>
			<g class="st0">
				<g class="st0">
					<defs>
						<path id="SVGID_111_" class="st0" d="M168.6,206.2l-9.9-9.4c6.7,1.6,9.9,2.4,10.1,2.4l9.9,9.4
							C178.5,208.6,175.3,207.8,168.6,206.2z"/>
					</defs>
					<clipPath id="SVGID_112_">
						<use xlink:href="#SVGID_111_"  style="overflow:visible;"/>
					</clipPath>
					<g class="st82">
						<path class="st53" d="M168.6,206.2l-9.9-9.4c6.7,1.6,9.9,2.4,10.1,2.4l9.9,9.4C178.5,208.6,175.3,207.8,168.6,206.2"/>
					</g>
				</g>
				<g class="st0">
					<defs>
						<path id="SVGID_113_" class="st0" d="M150,213.6l-9.9-9.4c0.5,0.5,1.2,1,1.9,1.4c1.9,1.1,3.9,1.3,5.5,1.3
							c1.9-0.1,3.4-0.6,3.7-0.7c0.4-0.2,5.2-2,6.5-5.7c0,0,0-0.1,1-3.7l9.9,9.4c-0.9,3.6-1,3.7-1,3.7c-1.3,3.8-6.1,5.6-6.5,5.7
							c-0.3,0.1-1.7,0.6-3.7,0.7c-1.6,0.1-3.6-0.2-5.5-1.3C151.2,214.6,150.6,214.1,150,213.6z"/>
					</defs>
					<clipPath id="SVGID_114_">
						<use xlink:href="#SVGID_113_"  style="overflow:visible;"/>
					</clipPath>
					<g class="st83">
						<path class="st52" d="M150,213.6l-9.9-9.4c0.2,0.2,0.5,0.5,0.8,0.7l9.9,9.4C150.5,214.1,150.3,213.8,150,213.6"/>
						<path class="st53" d="M150.8,214.3l-9.9-9.4c0.3,0.3,0.7,0.5,1.2,0.8c1.3,0.7,2.6,1.1,3.9,1.2l9.9,9.4
							c-1.2-0.1-2.6-0.5-3.9-1.2C151.6,214.8,151.2,214.6,150.8,214.3"/>
						<path class="st52" d="M155.9,216.3l-9.9-9.4c0.6,0.1,1.1,0.1,1.6,0.1c0.3,0,0.5,0,0.7,0l9.9,9.4c-0.2,0-0.5,0-0.7,0
							C157,216.4,156.4,216.3,155.9,216.3"/>
						<path class="st54" d="M158.3,216.3l-9.9-9.4c0.7-0.1,1.4-0.2,1.9-0.3l9.9,9.4C159.6,216.1,159,216.2,158.3,216.3"/>
						<path class="st55" d="M160.1,216l-9.9-9.4c0.5-0.1,0.9-0.3,1-0.3c0,0,0.1,0,0.1,0l9.9,9.4c-0.1,0-0.1,0-0.1,0
							C161.1,215.7,160.7,215.8,160.1,216"/>
						<path class="st56" d="M161.3,215.6l-9.9-9.4c0.3-0.1,0.9-0.4,1.7-0.8l9.9,9.4C162.2,215.2,161.6,215.5,161.3,215.6"/>
						<path class="st57" d="M163,214.8l-9.9-9.4c0.5-0.3,1.1-0.6,1.6-1l9.9,9.4C164.1,214.2,163.5,214.5,163,214.8"/>
						<path class="st46" d="M164.6,213.8l-9.9-9.4c0.5-0.3,0.9-0.7,1.3-1.2l9.9,9.4C165.5,213,165.1,213.4,164.6,213.8"/>
						<path class="st47" d="M166,212.6l-9.9-9.4c0.7-0.8,1.3-1.6,1.7-2.7c0,0,0-0.1,1-3.7l9.9,9.4c-0.9,3.6-1,3.7-1,3.7
							C167.3,211,166.7,211.8,166,212.6"/>
					</g>
				</g>
				<g class="st0">
					<defs>
						<path id="SVGID_115_" class="st0" d="M168.7,192.4l-9.9-9.4c-0.1-0.1-0.1-0.2-0.9-1.8c-0.5-1-0.8-1.7-0.9-1.8
							c-0.2-0.4-0.5-0.8-0.9-1.1l9.9,9.4c0.4,0.3,0.7,0.7,0.9,1.1c0.1,0.1,0.4,0.9,0.9,1.8C168.6,192.2,168.6,192.3,168.7,192.4z"/>
					</defs>
					<clipPath id="SVGID_116_">
						<use xlink:href="#SVGID_115_"  style="overflow:visible;"/>
					</clipPath>
					<g class="st84">
						<path class="st47" d="M168.7,192.4l-9.9-9.4c-0.1-0.1-0.1-0.2-0.9-1.8c-0.5-1-0.8-1.7-0.9-1.8c-0.2-0.4-0.5-0.8-0.9-1.1
							l9.9,9.4c0.4,0.3,0.7,0.7,0.9,1.1c0.1,0.1,0.4,0.9,0.9,1.8C168.6,192.2,168.6,192.3,168.7,192.4"/>
					</g>
				</g>
				<g class="st0">
					<defs>
						<path id="SVGID_117_" class="st0" d="M164.5,171.7l9.9,9.4c-1.4-1.4-2.9-2.2-3.7-2.6c-2-1-3.7-1.2-6.4-1.6
							c-1.7-0.2-3.9-0.5-6.3-0.4l-9.9-9.4c2.5-0.1,4.6,0.2,6.3,0.4c2.8,0.4,4.4,0.6,6.4,1.6C161.6,169.5,163.1,170.3,164.5,171.7z"
							/>
					</defs>
					<clipPath id="SVGID_118_">
						<use xlink:href="#SVGID_117_"  style="overflow:visible;"/>
					</clipPath>
					<g class="st85">
						<path class="st52" d="M158,176.4l-9.9-9.4c1.6-0.1,3,0,4.3,0.2l9.9,9.4C161,176.5,159.5,176.4,158,176.4"/>
						<path class="st53" d="M162.2,176.6l-9.9-9.4c0.7,0.1,1.4,0.2,2.1,0.3c2.8,0.4,4.4,0.6,6.4,1.6c0.6,0.3,1.5,0.8,2.5,1.6
							l9.9,9.4c-1-0.8-1.9-1.3-2.5-1.6c-2-1-3.7-1.2-6.4-1.6C163.7,176.8,163,176.7,162.2,176.6"/>
						<path class="st52" d="M173.2,180.1l-9.9-9.4c0.4,0.3,0.8,0.6,1.2,1l9.9,9.4C174,180.7,173.6,180.4,173.2,180.1"/>
					</g>
				</g>
				<g class="st0">
					<defs>
						<path id="SVGID_119_" class="st0" d="M141.8,219.1l-9.9-9.4c-2.2-2.1-3.4-4.2-4.5-6.3c-1.2-2.1-1.7-3.7-1.8-5.5
							c0-0.4,0-0.5,0-1.8c0.1-4.6-0.1-5.4,0.1-7.4c0-0.6,0.2-3,1-5.6c0.5-1.6,2.2-7.1,7.5-11.3c3.2-2.6,6.4-3.5,8.3-4
							c2-0.6,3.9-0.8,5.6-0.9l9.9,9.4c-1.7,0.1-3.6,0.3-5.6,0.9c-1.9,0.5-5.1,1.4-8.3,4c-5.3,4.2-7,9.7-7.5,11.3
							c-0.7,2.6-0.9,5-1,5.6c-0.1,2,0,2.8-0.1,7.4c0,1.3,0,1.4,0,1.8c0.1,1.7,0.6,3.3,1.8,5.5C138.4,214.9,139.6,217.1,141.8,219.1z
							"/>
					</defs>
					<clipPath id="SVGID_120_">
						<use xlink:href="#SVGID_119_"  style="overflow:visible;"/>
					</clipPath>
					<g class="st86">
						<path class="st47" d="M141.8,219.1l-9.9-9.4c-2.2-2.1-3.4-4.2-4.5-6.3c-1.2-2.1-1.7-3.7-1.8-5.5c0-0.4,0-0.5,0-1.8
							c0.1-4.6-0.1-5.4,0.1-7.4c0-0.6,0.2-3,1-5.6c0.4-1.3,1.7-5.6,5.4-9.4l9.9,9.4c-3.7,3.8-5,8.1-5.4,9.4c-0.7,2.6-0.9,5-1,5.6
							c-0.1,2,0,2.8-0.1,7.4c0,1.3,0,1.4,0,1.8c0.1,1.7,0.6,3.3,1.8,5.5C138.4,214.9,139.6,217.1,141.8,219.1"/>
						<path class="st46" d="M141.9,183.2l-9.9-9.4c0.6-0.6,1.3-1.3,2.1-1.9c0.1-0.1,0.3-0.2,0.4-0.3l9.9,9.4
							c-0.1,0.1-0.3,0.2-0.4,0.3C143.3,181.9,142.6,182.5,141.9,183.2"/>
						<path class="st57" d="M144.5,180.9l-9.9-9.4c0.8-0.6,1.6-1.1,2.3-1.5l9.9,9.4C146,179.9,145.2,180.4,144.5,180.9"/>
						<path class="st56" d="M146.8,179.5l-9.9-9.4c0.9-0.5,1.7-0.8,2.4-1.1l9.9,9.4C148.4,178.6,147.6,179,146.8,179.5"/>
						<path class="st55" d="M149.2,178.3l-9.9-9.4c1.2-0.5,2.3-0.8,3.1-1c0.2-0.1,0.4-0.1,0.6-0.1l9.9,9.4c-0.2,0-0.4,0.1-0.6,0.1
							C151.5,177.5,150.4,177.8,149.2,178.3"/>
						<path class="st54" d="M152.9,177.2l-9.9-9.4c1.3-0.3,2.5-0.5,3.6-0.6l9.9,9.4C155.4,176.7,154.2,176.8,152.9,177.2"/>
						<path class="st52" d="M156.5,176.5l-9.9-9.4c0.5,0,1-0.1,1.5-0.1l9.9,9.4C157.5,176.5,157,176.5,156.5,176.5"/>
					</g>
				</g>
				<g>
					<path class="st67" d="M158,176.4c2.5-0.1,4.6,0.2,6.3,0.4c2.8,0.4,4.4,0.6,6.4,1.6c1.4,0.7,4.6,2.6,6.4,6.2
						c0.8,1.6,1.8,4.5,1.8,4.5c-0.1,0-2.2,0.8-2.8,1c-3.9,1.5-5.7,2.3-6.6,2.3c-0.3,0-0.5-0.1-0.7-0.2c-0.1-0.1-0.1-0.1-0.9-1.8
						c-0.5-1-0.8-1.7-0.9-1.8c-0.8-1.6-3.3-3-5.5-3.5c-1-0.2-2-0.3-2.9-0.3c-2.7,0.1-4.7,1.1-5.4,1.5c-2.2,1.1-3.4,2.6-3.7,2.9
						c-1.8,2.2-2.4,4.4-2.8,6.5c-0.8,3.7-0.4,6.5-0.1,9.2c0.4,2.8,0.6,4.5,1.8,6.4c0.4,0.6,1.5,2.3,3.6,3.6c1.9,1.1,3.9,1.3,5.5,1.3
						c1.9-0.1,3.4-0.6,3.7-0.7c0.4-0.2,5.2-2,6.5-5.7c0,0,0-0.1,1-3.7c6.7,1.6,9.9,2.4,10.1,2.4c0,0.1,0,1.7,0,1.8
						c0,2-2.3,5-2.8,5.6c-1.2,1.5-3.1,3.9-6.5,5.7c-2.3,1.2-4.2,1.6-6.4,2.1c-1.7,0.3-3.7,0.7-5.9,0.8c-1.6,0.1-3.3,0-5.1-0.4
						c-5.2-1.1-8.5-3.7-9.2-4.3c-2.8-2.3-4.2-4.8-5.4-7.2c-1.2-2.1-1.7-3.7-1.8-5.5c0-0.4,0-0.5,0-1.8c0.1-4.6-0.1-5.4,0.1-7.4
						c0-0.6,0.2-3,1-5.6c0.5-1.6,2.2-7.1,7.5-11.3c3.2-2.6,6.4-3.5,8.3-4C154.4,176.7,156.3,176.5,158,176.4z"/>
				</g>
			</g>
		</g>
	</g>
</g>
</svg>
