<?xml version="1.0" encoding="utf-8"?>
<!-- Generator: Adobe Illustrator 23.0.6, SVG Export Plug-In . SVG Version: 6.00 Build 0)  -->
<svg version="1.1" id="gulp_x5F_icon" xmlns="http://www.w3.org/2000/svg" xmlns:xlink="http://www.w3.org/1999/xlink" x="0px"
	 y="0px" viewBox="0 0 300 300" style="enable-background:new 0 0 300 300;" xml:space="preserve">
<style type="text/css">
	.st0{enable-background:new    ;}
	.st1{clip-path:url(#SVGID_2_);enable-background:new    ;}
	.st2{fill:#854300;}
	.st3{clip-path:url(#SVGID_4_);enable-background:new    ;}
	.st4{clip-path:url(#SVGID_6_);enable-background:new    ;}
	.st5{fill:#A35200;}
	.st6{fill:#A85400;}
	.st7{fill:#9E4F00;}
	.st8{fill:#994D00;}
	.st9{fill:#944A00;}
	.st10{fill:#8F4800;}
	.st11{fill:#8A4500;}
	.st12{clip-path:url(#SVGID_8_);enable-background:new    ;}
	.st13{clip-path:url(#SVGID_10_);enable-background:new    ;}
	.st14{clip-path:url(#SVGID_12_);enable-background:new    ;}
	.st15{clip-path:url(#SVGID_14_);enable-background:new    ;}
	.st16{clip-path:url(#SVGID_16_);enable-background:new    ;}
	.st17{clip-path:url(#SVGID_18_);enable-background:new    ;}
	.st18{clip-path:url(#SVGID_20_);enable-background:new    ;}
	.st19{clip-path:url(#SVGID_22_);enable-background:new    ;}
	.st20{clip-path:url(#SVGID_24_);enable-background:new    ;}
	.st21{clip-path:url(#SVGID_26_);enable-background:new    ;}
	.st22{clip-path:url(#SVGID_28_);enable-background:new    ;}
	.st23{clip-path:url(#SVGID_30_);enable-background:new    ;}
	.st24{fill:#A75400;}
	.st25{fill:#804000;}
	.st26{fill:#AC5600;}
	.st27{clip-path:url(#SVGID_32_);enable-background:new    ;}
	.st28{clip-path:url(#SVGID_34_);enable-background:new    ;}
	.st29{clip-path:url(#SVGID_36_);enable-background:new    ;}
	.st30{clip-path:url(#SVGID_38_);enable-background:new    ;}
	.st31{clip-path:url(#SVGID_40_);enable-background:new    ;}
	.st32{clip-path:url(#SVGID_42_);enable-background:new    ;}
	.st33{clip-path:url(#SVGID_44_);enable-background:new    ;}
	.st34{clip-path:url(#SVGID_46_);enable-background:new    ;}
	.st35{clip-path:url(#SVGID_48_);enable-background:new    ;}
	.st36{fill:#A95500;}
	.st37{fill:#934A00;}
	.st38{clip-path:url(#SVGID_50_);enable-background:new    ;}
	.st39{clip-path:url(#SVGID_52_);enable-background:new    ;}
	.st40{fill:#A05100;}
	.st41{fill:#814100;}
	.st42{fill:#914900;}
	.st43{fill:#DC6E00;}
	.st44{fill:#884400;}
	.st45{clip-path:url(#SVGID_54_);enable-background:new    ;}
	.st46{fill:#A3A3A3;}
	.st47{fill:#A8A8A8;}
	.st48{clip-path:url(#SVGID_56_);enable-background:new    ;}
	.st49{fill:#9E9E9E;}
	.st50{fill:#999999;}
	.st51{fill:#949494;}
	.st52{fill:#8F8F8F;}
	.st53{fill:#8A8A8A;}
	.st54{fill:#858585;}
	.st55{clip-path:url(#SVGID_58_);enable-background:new    ;}
	.st56{clip-path:url(#SVGID_60_);enable-background:new    ;}
	.st57{clip-path:url(#SVGID_62_);enable-background:new    ;}
	.st58{clip-path:url(#SVGID_64_);enable-background:new    ;}
	.st59{clip-path:url(#SVGID_66_);enable-background:new    ;}
	.st60{clip-path:url(#SVGID_68_);enable-background:new    ;}
	.st61{clip-path:url(#SVGID_70_);enable-background:new    ;}
	.st62{clip-path:url(#SVGID_72_);enable-background:new    ;}
	.st63{clip-path:url(#SVGID_74_);enable-background:new    ;}
	.st64{clip-path:url(#SVGID_76_);enable-background:new    ;}
	.st65{clip-path:url(#SVGID_78_);enable-background:new    ;}
	.st66{clip-path:url(#SVGID_80_);enable-background:new    ;}
	.st67{clip-path:url(#SVGID_82_);enable-background:new    ;}
	.st68{clip-path:url(#SVGID_84_);enable-background:new    ;}
	.st69{fill:#DCDCDC;}
	.st70{clip-path:url(#SVGID_86_);enable-background:new    ;}
	.st71{clip-path:url(#SVGID_88_);enable-background:new    ;}
	.st72{clip-path:url(#SVGID_90_);enable-background:new    ;}
	.st73{clip-path:url(#SVGID_92_);enable-background:new    ;}
	.st74{clip-path:url(#SVGID_94_);enable-background:new    ;}
	.st75{clip-path:url(#SVGID_96_);enable-background:new    ;}
</style>
<g>
	<g>
		<g>
			<g class="st0">
				<g class="st0">
					<defs>
						<path id="SVGID_1_" class="st0" d="M256.9,151.9l9.9,9.4c1.4,1.3,2.2,5.6-0.5,10.7l-9.9-9.4
							C259,157.5,258.2,153.2,256.9,151.9z"/>
					</defs>
					<clipPath id="SVGID_2_">
						<use xlink:href="#SVGID_1_"  style="overflow:visible;"/>
					</clipPath>
					<g class="st1">
						<path class="st2" d="M266.3,172l-9.9-9.4c2.7-5.1,1.9-9.4,0.5-10.7l9.9,9.4C268.1,162.7,268.9,167,266.3,172"/>
					</g>
				</g>
				<g class="st0">
					<defs>
						<path id="SVGID_3_" class="st0" d="M266,160.8l-9.9-9.4c-0.1-0.1-0.2-0.2-0.3-0.3l9.9,9.4C265.8,160.6,265.9,160.7,266,160.8z
							"/>
					</defs>
					<clipPath id="SVGID_4_">
						<use xlink:href="#SVGID_3_"  style="overflow:visible;"/>
					</clipPath>
					<g class="st3">
						<path class="st2" d="M266,160.8l-9.9-9.4c-0.1-0.1-0.2-0.2-0.3-0.3l9.9,9.4C265.8,160.6,265.9,160.7,266,160.8"/>
					</g>
				</g>
				<g class="st0">
					<defs>
						<path id="SVGID_5_" class="st0" d="M226.5,186.9l-9.9-9.4c0.9,0.9,1.9,1.4,2.4,1.7c1.4,0.7,3.1,1.2,5.4,1.1
							c2-0.1,4.5-0.5,7.7-1.6c7.7-2.4,18.8-6,24.2-16.2l9.9,9.4c-5.4,10.2-16.6,13.8-24.2,16.2c-3.2,1-5.7,1.5-7.7,1.6
							c-2.3,0.1-4-0.4-5.4-1.1C228.3,188.4,227.4,187.8,226.5,186.9z"/>
					</defs>
					<clipPath id="SVGID_6_">
						<use xlink:href="#SVGID_5_"  style="overflow:visible;"/>
					</clipPath>
					<g class="st4">
						<path class="st5" d="M226.5,186.9l-9.9-9.4c0.3,0.3,0.6,0.5,0.8,0.7l9.9,9.4C227,187.5,226.7,187.2,226.5,186.9"/>
						<path class="st6" d="M227.3,187.7l-9.9-9.4c0.6,0.5,1.2,0.8,1.6,1c1,0.5,2.1,0.9,3.5,1l9.9,9.4c-1.4-0.1-2.5-0.5-3.5-1
							C228.5,188.5,227.9,188.2,227.3,187.7"/>
						<path class="st5" d="M232.4,189.7l-9.9-9.4c0.6,0.1,1.2,0.1,1.9,0.1c0.3,0,0.7,0,1-0.1l9.9,9.4c-0.4,0-0.7,0.1-1,0.1
							C233.6,189.8,233,189.8,232.4,189.7"/>
						<path class="st7" d="M235.3,189.7l-9.9-9.4c1.1-0.1,2.4-0.3,3.9-0.7l9.9,9.4C237.7,189.4,236.5,189.6,235.3,189.7"/>
						<path class="st8" d="M239.2,189l-9.9-9.4c0.9-0.2,1.8-0.5,2.8-0.8c2.2-0.7,4.6-1.5,7.2-2.5l9.9,9.4c-2.5,1-5,1.8-7.2,2.5
							C241,188.5,240.1,188.8,239.2,189"/>
						<path class="st9" d="M249.2,185.8l-9.9-9.4c1.9-0.7,3.8-1.6,5.7-2.6l9.9,9.4C253,184.2,251.1,185,249.2,185.8"/>
						<path class="st10" d="M254.9,183.1l-9.9-9.4c1.4-0.7,2.7-1.6,3.9-2.5l9.9,9.4C257.5,181.5,256.2,182.4,254.9,183.1"/>
						<path class="st11" d="M258.8,180.6l-9.9-9.4c1.2-0.9,2.3-1.9,3.4-3l9.9,9.4C261.1,178.7,260,179.7,258.8,180.6"/>
						<path class="st2" d="M262.2,177.6l-9.9-9.4c1.5-1.6,2.9-3.4,4.1-5.6l9.9,9.4C265.1,174.2,263.7,176,262.2,177.6"/>
					</g>
				</g>
				<g class="st0">
					<defs>
						<path id="SVGID_7_" class="st0" d="M235.8,177.8l-9.9-9.4c-0.1-0.1-0.2-0.2-0.2-0.3c-0.3-0.6-0.1-1.7,2.2-4.5
							c4.9-5.9,8.1-6.3,13.2-11.4c4.2-4.2,6.1-7.9,6.6-9c0.7-1.5,1.8-3.7,2.3-6.7c0.6-3.5,0.7-10.7-3-14.2l9.9,9.4
							c3.7,3.5,3.5,10.8,3,14.2c-0.5,2.9-1.5,5.2-2.3,6.7c-0.5,1.1-2.4,4.8-6.6,9c-5.1,5.1-8.4,5.5-13.2,11.4
							c-2.3,2.8-2.5,3.9-2.2,4.5C235.6,177.6,235.7,177.7,235.8,177.8z"/>
					</defs>
					<clipPath id="SVGID_8_">
						<use xlink:href="#SVGID_7_"  style="overflow:visible;"/>
					</clipPath>
					<g class="st12">
						<path class="st2" d="M235.8,177.8l-9.9-9.4c-0.1-0.1-0.2-0.2-0.2-0.3c-0.3-0.6-0.1-1.7,2.2-4.5c0.6-0.7,1.2-1.4,1.8-2l9.9,9.4
							c-0.6,0.6-1.2,1.2-1.8,2c-2.3,2.8-2.5,3.9-2.2,4.5C235.6,177.6,235.7,177.7,235.8,177.8"/>
						<path class="st11" d="M239.6,171l-9.9-9.4c1.4-1.4,2.6-2.5,3.9-3.4l9.9,9.4C242.2,168.6,240.9,169.6,239.6,171"/>
						<path class="st10" d="M243.4,167.6l-9.9-9.4c1.1-0.8,2.3-1.6,3.5-2.5l9.9,9.4C245.7,166,244.6,166.8,243.4,167.6"/>
						<path class="st11" d="M246.9,165.1l-9.9-9.4c1.3-0.9,2.6-2,4.1-3.5c0.2-0.2,0.5-0.5,0.7-0.7l9.9,9.4c-0.2,0.2-0.4,0.4-0.7,0.7
							C249.5,163.1,248.2,164.2,246.9,165.1"/>
						<path class="st2" d="M251.7,160.9l-9.9-9.4c3.8-3.9,5.5-7.3,6-8.3c0.7-1.5,1.8-3.7,2.3-6.7c0.6-3.5,0.7-10.7-3-14.2l9.9,9.4
							c3.7,3.5,3.5,10.8,3,14.2c-0.5,2.9-1.5,5.2-2.3,6.7C257.2,153.6,255.5,157,251.7,160.9"/>
					</g>
				</g>
				<g class="st0">
					<defs>
						<path id="SVGID_9_" class="st0" d="M186.7,225l-9.9-9.4c0.1,0.1,0.2,0.1,0.2,0.2c2.1,1.8,4.7,2,5.4,2c0,0,0.3,0,0.7,0
							c0.1,0,0.3,0,0.5,0c5.5-0.5,31-66.1,31.3-66.9l9.9,9.4c-0.2,0.8-25.7,66.3-31.3,66.9c-0.2,0-0.3,0-0.5,0c-0.4,0-0.7,0-0.7,0
							c-0.7,0-3.3-0.2-5.4-2C186.9,225.2,186.8,225.1,186.7,225z"/>
					</defs>
					<clipPath id="SVGID_10_">
						<use xlink:href="#SVGID_9_"  style="overflow:visible;"/>
					</clipPath>
					<g class="st13">
						<path class="st5" d="M186.7,225l-9.9-9.4c0.1,0.1,0.2,0.1,0.2,0.2c0.1,0.1,0.2,0.2,0.3,0.3l9.9,9.4c-0.1-0.1-0.2-0.2-0.3-0.3
							C186.9,225.2,186.8,225.1,186.7,225"/>
						<path class="st6" d="M187.3,225.5l-9.9-9.4c1.6,1.2,3.4,1.6,4.4,1.7l9.9,9.4C190.7,227.1,188.9,226.7,187.3,225.5"/>
						<path class="st5" d="M191.7,227.2l-9.9-9.4c0.3,0,0.5,0,0.7,0c0,0,0.3,0,0.7,0c0.1,0,0.3,0,0.5,0l9.9,9.4c-0.2,0-0.3,0-0.5,0
							c-0.4,0-0.7,0-0.7,0C192.2,227.2,192,227.2,191.7,227.2"/>
						<path class="st7" d="M193.5,227.2l-9.9-9.4c0,0,0,0,0,0c0.1,0,0.1,0,0.2,0l9.9,9.4C193.6,227.2,193.6,227.2,193.5,227.2
							C193.5,227.2,193.5,227.2,193.5,227.2"/>
						<path class="st8" d="M193.7,227.2l-9.9-9.4c0.1,0,0.1,0,0.2-0.1l9.9,9.4C193.8,227.1,193.7,227.1,193.7,227.2"/>
						<path class="st9" d="M193.9,227.1l-9.9-9.4c0.1,0,0.1-0.1,0.2-0.1l9.9,9.4C194,227,194,227,193.9,227.1"/>
						<path class="st10" d="M194.1,226.9l-9.9-9.4c0.1-0.1,0.1-0.1,0.2-0.2l9.9,9.4C194.3,226.8,194.2,226.9,194.1,226.9"/>
						<path class="st11" d="M194.3,226.8l-9.9-9.4c0.2-0.2,0.4-0.4,0.6-0.6l9.9,9.4C194.7,226.4,194.5,226.6,194.3,226.8"/>
						<path class="st2" d="M194.9,226.2l-9.9-9.4c7.5-8.4,29.6-65.1,29.8-65.8l9.9,9.4C224.5,161.1,202.5,217.8,194.9,226.2"/>
					</g>
				</g>
				<g class="st0">
					<defs>
						<path id="SVGID_11_" class="st0" d="M240.1,134.2l9.9,9.4c-0.8-0.8-2-1.4-3.2-1.6c-0.3,0-0.5-0.1-0.8,0
							c-1.5,0.1-3.1,0.9-5.8,2.5c-3.2,1.8-4.9,2.7-6.6,4.6c-2.2,2.4-2,3.5-4.4,6.7c-1.6,2.1-3.3,3.6-4.4,4.5l-9.9-9.4
							c1.1-0.9,2.8-2.4,4.4-4.5c2.5-3.2,2.2-4.3,4.4-6.7c1.7-1.9,3.4-2.8,6.6-4.6c2.7-1.5,4.3-2.4,5.8-2.5c0.3,0,0.5,0,0.8,0
							C238.1,132.8,239.3,133.4,240.1,134.2z"/>
					</defs>
					<clipPath id="SVGID_12_">
						<use xlink:href="#SVGID_11_"  style="overflow:visible;"/>
					</clipPath>
					<g class="st14">
						<path class="st11" d="M224.8,160.3l-9.9-9.4c0.7-0.5,1.5-1.3,2.4-2.2l9.9,9.4C226.3,159,225.4,159.8,224.8,160.3"/>
						<path class="st2" d="M227.2,158.1l-9.9-9.4c0.6-0.7,1.3-1.4,2-2.3c2.5-3.2,2.2-4.3,4.4-6.7c0.1-0.1,0.1-0.2,0.2-0.2l9.9,9.4
							c-0.1,0.1-0.1,0.2-0.2,0.2c-2.2,2.4-2,3.5-4.4,6.7C228.5,156.7,227.8,157.4,227.2,158.1"/>
						<path class="st11" d="M233.8,148.8l-9.9-9.4c0.6-0.6,1.1-1.1,1.8-1.6l9.9,9.4C235,147.7,234.4,148.2,233.8,148.8"/>
						<path class="st10" d="M235.6,147.2l-9.9-9.4c1.2-0.9,2.6-1.7,4.6-2.8c0.4-0.2,0.8-0.5,1.2-0.7l9.9,9.4
							c-0.4,0.2-0.8,0.4-1.2,0.7C238.2,145.6,236.8,146.4,235.6,147.2"/>
						<path class="st9" d="M241.4,143.8l-9.9-9.4c1.1-0.6,2-1.1,2.7-1.4l9.9,9.4C243.4,142.7,242.5,143.2,241.4,143.8"/>
						<path class="st8" d="M244.2,142.4l-9.9-9.4c0.3-0.1,0.6-0.2,0.9-0.3l9.9,9.4C244.8,142.2,244.5,142.3,244.2,142.4"/>
						<path class="st7" d="M245.1,142.1l-9.9-9.4c0.2-0.1,0.5-0.1,0.7-0.1l9.9,9.4C245.6,142,245.3,142,245.1,142.1"/>
						<path class="st5" d="M245.8,142l-9.9-9.4c0.1,0,0.2,0,0.2,0c0.2,0,0.4,0,0.6,0l9.9,9.4c-0.2,0-0.4,0-0.6,0
							C246,142,245.9,142,245.8,142"/>
						<path class="st6" d="M246.6,142l-9.9-9.4c0.1,0,0.1,0,0.2,0c1,0.2,1.9,0.6,2.7,1.2l9.9,9.4c-0.7-0.6-1.7-1-2.7-1.2
							C246.8,142,246.7,142,246.6,142"/>
						<path class="st5" d="M249.5,143.2l-9.9-9.4c0.2,0.1,0.3,0.3,0.5,0.4l9.9,9.4C249.8,143.5,249.7,143.4,249.5,143.2"/>
					</g>
				</g>
				<g class="st0">
					<defs>
						<path id="SVGID_13_" class="st0" d="M229.6,140.4l-9.9-9.4c-1.2-1.1,1.3-4.7-0.2-6.6c-0.1-0.1-0.1-0.1-0.2-0.2l9.9,9.4
							c0.1,0.1,0.1,0.1,0.2,0.2C230.9,135.7,228.4,139.3,229.6,140.4z"/>
					</defs>
					<clipPath id="SVGID_14_">
						<use xlink:href="#SVGID_13_"  style="overflow:visible;"/>
					</clipPath>
					<g class="st15">
						<path class="st2" d="M229.6,140.4l-9.9-9.4c-1.2-1.1,1.3-4.7-0.2-6.6c-0.1-0.1-0.1-0.1-0.2-0.2l9.9,9.4
							c0.1,0.1,0.1,0.1,0.2,0.2C230.9,135.7,228.4,139.3,229.6,140.4"/>
					</g>
				</g>
				<g class="st0">
					<defs>
						<path id="SVGID_15_" class="st0" d="M175.3,189.8l-9.9-9.4c0.3,0.3,0.6,0.5,1,0.7c0.9,0.5,2.1,0.8,3.3,0.7
							c1.1,0,2.3-0.4,3.3-1c2.5-1.5,2.1-3.7,4.4-4.5c0.4-0.1,0.7-0.2,1-0.2c0.4,0,0.7,0,1,0.1c0.3,0.1,0.7,0.1,1.2,0.1
							c0.3,0,0.7-0.1,1.2-0.2c2.2-0.5,3.8-1.9,4.4-2.3c2.3-2,2.3-3.7,4.4-4.5c0.3-0.1,0.8-0.3,1.3-0.3c0.3,0,0.6,0,0.9,0.2
							c0,0,0.1,0.1,0.1,0.1l9.9,9.4c0,0-0.1-0.1-0.1-0.1c-0.3-0.2-0.6-0.2-0.9-0.2c-0.5,0-1,0.2-1.3,0.3c-2.1,0.8-2.1,2.5-4.4,4.5
							c-0.6,0.5-2.2,1.8-4.4,2.3c-0.5,0.1-0.8,0.1-1.2,0.2c-0.5,0-0.9,0-1.2-0.1c-0.4-0.1-0.7-0.1-1-0.1c-0.3,0-0.6,0.1-1,0.2
							c-2.3,0.8-1.9,3-4.4,4.5c-1,0.6-2.2,0.9-3.3,1c-1.2,0-2.3-0.2-3.3-0.7C175.9,190.3,175.6,190.1,175.3,189.8z"/>
					</defs>
					<clipPath id="SVGID_16_">
						<use xlink:href="#SVGID_15_"  style="overflow:visible;"/>
					</clipPath>
					<g class="st16">
						<path class="st5" d="M175.3,189.8l-9.9-9.4c0.1,0.1,0.3,0.2,0.4,0.3l9.9,9.4C175.6,190,175.5,189.9,175.3,189.8"/>
						<path class="st6" d="M175.7,190.1l-9.9-9.4c0.2,0.1,0.4,0.3,0.6,0.4c0.7,0.4,1.4,0.6,2.3,0.7l9.9,9.4
							c-0.8-0.1-1.6-0.3-2.3-0.7C176.1,190.4,175.9,190.3,175.7,190.1"/>
						<path class="st5" d="M178.6,191.2l-9.9-9.4c0.3,0,0.7,0,1,0c0.1,0,0.3,0,0.4,0l9.9,9.4c-0.1,0-0.3,0-0.4,0
							C179.3,191.3,178.9,191.2,178.6,191.2"/>
						<path class="st7" d="M180,191.2l-9.9-9.4c0.4,0,0.7-0.1,1.1-0.2l9.9,9.4C180.7,191.1,180.4,191.2,180,191.2"/>
						<path class="st8" d="M181.1,191l-9.9-9.4c0.3-0.1,0.6-0.2,0.9-0.3l9.9,9.4C181.7,190.9,181.4,191,181.1,191"/>
						<path class="st9" d="M181.9,190.8l-9.9-9.4c0.3-0.1,0.5-0.2,0.8-0.4l9.9,9.4C182.5,190.5,182.2,190.7,181.9,190.8"/>
						<path class="st10" d="M182.7,190.4l-9.9-9.4c0.1,0,0.1-0.1,0.2-0.1c0.2-0.1,0.3-0.2,0.5-0.3l9.9,9.4c-0.2,0.1-0.3,0.2-0.5,0.3
							C182.8,190.3,182.8,190.4,182.7,190.4"/>
						<path class="st11" d="M183.4,190l-9.9-9.4c0.2-0.2,0.5-0.4,0.6-0.6l9.9,9.4C183.9,189.6,183.6,189.8,183.4,190"/>
						<path class="st2" d="M184,189.4l-9.9-9.4c0.9-1,1.2-2,2-2.8l9.9,9.4C185.3,187.4,185,188.4,184,189.4"/>
						<path class="st11" d="M186,186.6l-9.9-9.4c0.1-0.1,0.3-0.2,0.4-0.4l9.9,9.4C186.3,186.3,186.2,186.5,186,186.6"/>
						<path class="st10" d="M186.4,186.2l-9.9-9.4c0.1-0.1,0.2-0.2,0.4-0.2l9.9,9.4C186.7,186.1,186.5,186.1,186.4,186.2"/>
						<path class="st9" d="M186.8,186l-9.9-9.4c0.1-0.1,0.3-0.1,0.4-0.2l9.9,9.4C187.1,185.8,186.9,185.9,186.8,186"/>
						<path class="st8" d="M187.2,185.8l-9.9-9.4c0,0,0.1,0,0.1,0c0.1,0,0.3-0.1,0.4-0.1l9.9,9.4
							C187.6,185.7,187.5,185.7,187.2,185.8C187.3,185.8,187.3,185.8,187.2,185.8"/>
						<path class="st7" d="M187.7,185.6l-9.9-9.4c0.1,0,0.3-0.1,0.4-0.1l9.9,9.4C188,185.6,187.8,185.6,187.7,185.6"/>
						<path class="st5" d="M188.1,185.6l-9.9-9.4c0.1,0,0.1,0,0.2,0c0.2,0,0.3,0,0.4,0l9.9,9.4c-0.1,0-0.3,0-0.4,0
							C188.2,185.6,188.2,185.6,188.1,185.6"/>
						<path class="st6" d="M188.7,185.6l-9.9-9.4c0.2,0,0.4,0.1,0.6,0.1c0.1,0,0.3,0,0.5,0.1l9.9,9.4c-0.2,0-0.3,0-0.5-0.1
							C189.1,185.6,188.9,185.6,188.7,185.6"/>
						<path class="st5" d="M189.8,185.7l-9.9-9.4c0.2,0,0.5,0,0.7,0c0.1,0,0.2,0,0.3,0l9.9,9.4c-0.1,0-0.2,0-0.3,0
							C190.3,185.8,190,185.8,189.8,185.7"/>
						<path class="st7" d="M190.8,185.7l-9.9-9.4c0.3,0,0.5-0.1,0.8-0.1c0.1,0,0.1,0,0.2,0l9.9,9.4c-0.1,0-0.1,0-0.2,0
							C191.4,185.7,191.1,185.7,190.8,185.7"/>
						<path class="st8" d="M191.9,185.6l-9.9-9.4c0.4-0.1,0.8-0.2,1.1-0.4l9.9,9.4C192.6,185.3,192.3,185.5,191.9,185.6"/>
						<path class="st9" d="M193,185.2l-9.9-9.4c0.4-0.2,0.8-0.3,1.1-0.5l9.9,9.4C193.8,184.9,193.4,185,193,185.2"/>
						<path class="st10" d="M194.1,184.7l-9.9-9.4c0.5-0.3,0.9-0.5,1.2-0.8l9.9,9.4C195,184.1,194.6,184.4,194.1,184.7"/>
						<path class="st11" d="M195.3,183.9l-9.9-9.4c0.3-0.3,0.6-0.5,0.8-0.6c0.2-0.2,0.5-0.4,0.7-0.6l9.9,9.4
							c-0.2,0.2-0.4,0.4-0.7,0.6C195.9,183.4,195.7,183.6,195.3,183.9"/>
						<path class="st2" d="M196.7,182.6l-9.9-9.4c1.1-1.2,1.6-2.2,2.3-3l9.9,9.4C198.3,180.4,197.9,181.5,196.7,182.6"/>
						<path class="st11" d="M199.1,179.7l-9.9-9.4c0.1-0.1,0.3-0.3,0.5-0.4l9.9,9.4C199.4,179.4,199.2,179.5,199.1,179.7"/>
						<path class="st10" d="M199.6,179.2l-9.9-9.4c0.1-0.1,0.3-0.2,0.4-0.3l9.9,9.4C199.8,179,199.7,179.1,199.6,179.2"/>
						<path class="st9" d="M200,179l-9.9-9.4c0.2-0.1,0.3-0.2,0.5-0.2l9.9,9.4C200.3,178.8,200.1,178.9,200,179"/>
						<path class="st8" d="M200.5,178.7l-9.9-9.4c0,0,0,0,0,0c0.1-0.1,0.4-0.2,0.7-0.2l9.9,9.4C200.9,178.6,200.7,178.7,200.5,178.7
							C200.5,178.7,200.5,178.7,200.5,178.7"/>
						<path class="st7" d="M201.2,178.5l-9.9-9.4c0.2,0,0.3-0.1,0.5-0.1l9.9,9.4C201.5,178.4,201.4,178.5,201.2,178.5"/>
						<path class="st5" d="M201.7,178.4l-9.9-9.4c0,0,0.1,0,0.1,0c0.1,0,0.2,0,0.3,0l9.9,9.4c-0.1,0-0.2,0-0.3,0
							C201.8,178.4,201.7,178.4,201.7,178.4"/>
						<path class="st6" d="M202.1,178.4l-9.9-9.4c0.2,0,0.4,0.1,0.6,0.2c0,0,0,0,0,0l9.9,9.4c0,0,0,0,0,0
							C202.5,178.5,202.3,178.4,202.1,178.4"/>
						<path class="st5" d="M202.7,178.6l-9.9-9.4c0,0,0.1,0,0.1,0.1L202.7,178.6C202.8,178.7,202.7,178.7,202.7,178.6"/>
					</g>
				</g>
				<g class="st0">
					<defs>
						<path id="SVGID_17_" class="st0" d="M183,174.9l-9.9-9.4c0.4-1.9,1.1-5.1,2.3-8.8l9.9,9.4C184.2,169.9,183.5,173,183,174.9z"
							/>
					</defs>
					<clipPath id="SVGID_18_">
						<use xlink:href="#SVGID_17_"  style="overflow:visible;"/>
					</clipPath>
					<g class="st17">
						<path class="st2" d="M183,174.9l-9.9-9.4c0.4-1.9,1.1-5.1,2.3-8.8l9.9,9.4C184.2,169.9,183.5,173,183,174.9"/>
					</g>
				</g>
				<g class="st0">
					<defs>
						<path id="SVGID_19_" class="st0" d="M167.6,184.2l-9.9-9.4c1.5-0.1,2.9-0.1,4.4-0.2l9.9,9.4
							C170.6,184.1,169.1,184.2,167.6,184.2z"/>
					</defs>
					<clipPath id="SVGID_20_">
						<use xlink:href="#SVGID_19_"  style="overflow:visible;"/>
					</clipPath>
					<g class="st18">
						<path class="st5" d="M167.6,184.2l-9.9-9.4c1.5-0.1,2.9-0.1,4.4-0.2l9.9,9.4C170.6,184.1,169.1,184.2,167.6,184.2"/>
					</g>
				</g>
				<g class="st0">
					<defs>
						<path id="SVGID_21_" class="st0" d="M147.9,187.1l-9.9-9.4c1.9-0.1,2.8,1.2,4.4,2c1.3,0.7,2.9,1,4.6,1c1.5-0.1,3-0.5,4.2-1.3
							c2.1-1.5,2.1-3.8,4.4-4.5c0.4-0.1,0.7-0.2,1.1-0.2c0.4,0,0.8,0,1.1,0.1l9.9,9.4c-0.3-0.1-0.7-0.1-1.1-0.1
							c-0.3,0-0.7,0.1-1.1,0.2c-2.3,0.7-2.3,3-4.4,4.5c-1.1,0.8-2.6,1.2-4.2,1.3c-1.6,0.1-3.3-0.3-4.6-1
							C150.7,188.3,149.8,187.1,147.9,187.1z"/>
					</defs>
					<clipPath id="SVGID_22_">
						<use xlink:href="#SVGID_21_"  style="overflow:visible;"/>
					</clipPath>
					<g class="st19">
						<path class="st5" d="M147.9,187.1l-9.9-9.4c0.2,0,0.4,0,0.5,0l9.9,9.4C148.3,187.1,148.1,187.1,147.9,187.1"/>
						<path class="st6" d="M148.5,187.1l-9.9-9.4c1.5,0.2,2.4,1.3,3.8,2c0.9,0.5,2,0.8,3.1,0.9l9.9,9.4c-1.1-0.1-2.2-0.4-3.1-0.9
							C150.9,188.4,150,187.3,148.5,187.1"/>
						<path class="st5" d="M155.4,190.1l-9.9-9.4c0.5,0.1,1,0.1,1.4,0.1c0.2,0,0.4,0,0.6,0l9.9,9.4c-0.2,0-0.4,0-0.6,0
							C156.4,190.2,155.9,190.1,155.4,190.1"/>
						<path class="st7" d="M157.4,190.1l-9.9-9.4c0.4,0,0.9-0.1,1.3-0.2l9.9,9.4C158.3,190,157.9,190.1,157.4,190.1"/>
						<path class="st8" d="M158.7,189.9l-9.9-9.4c0.3-0.1,0.7-0.2,1-0.3l9.9,9.4C159.4,189.7,159.1,189.8,158.7,189.9"/>
						<path class="st9" d="M159.7,189.6l-9.9-9.4c0.3-0.1,0.5-0.2,0.8-0.4l9.9,9.4C160.2,189.3,160,189.5,159.7,189.6"/>
						<path class="st10" d="M160.5,189.2l-9.9-9.4c0.2-0.1,0.4-0.2,0.6-0.4c0,0,0.1,0,0.1-0.1l9.9,9.4c0,0-0.1,0-0.1,0.1
							C160.8,189,160.7,189.1,160.5,189.2"/>
						<path class="st11" d="M161.1,188.8l-9.9-9.4c0.2-0.2,0.5-0.4,0.7-0.6l9.9,9.4C161.6,188.4,161.4,188.6,161.1,188.8"/>
						<path class="st2" d="M161.8,188.2l-9.9-9.4c0.9-1,1.4-2.1,2.2-3l9.9,9.4C163.1,186.1,162.7,187.2,161.8,188.2"/>
						<path class="st11" d="M163.9,185.3l-9.9-9.4c0.1-0.1,0.3-0.3,0.4-0.4l9.9,9.4C164.2,185,164.1,185.1,163.9,185.3"/>
						<path class="st10" d="M164.4,184.9l-9.9-9.4c0.1-0.1,0.2-0.2,0.4-0.2l9.9,9.4C164.6,184.7,164.5,184.8,164.4,184.9"/>
						<path class="st9" d="M164.8,184.6l-9.9-9.4c0.1-0.1,0.3-0.1,0.4-0.2l9.9,9.4C165,184.5,164.9,184.5,164.8,184.6"/>
						<path class="st8" d="M165.2,184.4l-9.9-9.4c0.1,0,0.2-0.1,0.3-0.1c0.1,0,0.1,0,0.2-0.1l9.9,9.4c-0.1,0-0.1,0-0.2,0.1
							C165.3,184.4,165.3,184.4,165.2,184.4"/>
						<path class="st7" d="M165.7,184.3l-9.9-9.4c0.2-0.1,0.4-0.1,0.6-0.1l9.9,9.4C166.1,184.2,165.9,184.2,165.7,184.3"/>
						<path class="st5" d="M166.3,184.2l-9.9-9.4c0.1,0,0.2,0,0.2,0c0.2,0,0.4,0,0.6,0l9.9,9.4c-0.2,0-0.4,0-0.6,0
							C166.4,184.1,166.3,184.2,166.3,184.2"/>
						<path class="st6" d="M167.1,184.2l-9.9-9.4c0.2,0,0.3,0,0.5,0.1l9.9,9.4C167.5,184.2,167.3,184.2,167.1,184.2"/>
					</g>
				</g>
				<g class="st0">
					<defs>
						<path id="SVGID_23_" class="st0" d="M145.7,187.2l-9.9-9.4c0.2,0.1,0.3,0.2,0.6,0.2c0.4,0,1-0.2,1.6-0.3l9.9,9.4
							c-0.6,0-1.2,0.2-1.6,0.3C146.1,187.4,145.9,187.4,145.7,187.2z"/>
					</defs>
					<clipPath id="SVGID_24_">
						<use xlink:href="#SVGID_23_"  style="overflow:visible;"/>
					</clipPath>
					<g class="st20">
						<path class="st5" d="M145.7,187.2l-9.9-9.4c0,0,0,0,0,0L145.7,187.2C145.7,187.2,145.7,187.2,145.7,187.2"/>
						<path class="st6" d="M145.8,187.2l-9.9-9.4c0.1,0.1,0.2,0.1,0.4,0.1l9.9,9.4C146,187.4,145.9,187.3,145.8,187.2"/>
						<path class="st5" d="M146.1,187.4l-9.9-9.4c0.1,0,0.1,0,0.2,0c0,0,0.1,0,0.1,0l9.9,9.4c0,0-0.1,0-0.1,0
							C146.2,187.4,146.2,187.4,146.1,187.4"/>
						<path class="st7" d="M146.4,187.4l-9.9-9.4c0.4,0,0.9-0.2,1.4-0.2l9.9,9.4C147.3,187.2,146.8,187.3,146.4,187.4"/>
						<path class="st5" d="M147.8,187.1l-9.9-9.4c0,0,0.1,0,0.1,0L147.8,187.1C147.9,187.1,147.8,187.1,147.8,187.1"/>
					</g>
				</g>
				<g class="st0">
					<defs>
						<path id="SVGID_25_" class="st0" d="M116.3,189.6l-9.9-9.4c0.3,0.3,0.6,0.6,1,0.8c1.9,1.4,3.8,1.9,4.4,2
							c1,0.2,1.9,0.3,2.9,0.3c3.9-0.1,7-2.1,8.1-2.8c3.7-2.4,6-5.8,6.6-6.8c1-1.6,2.1-3.7,4.4-4.5c0.3-0.1,0.8-0.3,1.3-0.3
							c0.3,0,0.6,0,0.9,0.2c0,0,0.1,0,0.1,0.1l9.9,9.4c0,0,0,0-0.1-0.1c-0.2-0.2-0.6-0.2-0.9-0.2c-0.5,0-1,0.2-1.3,0.3
							c-2.3,0.8-3.4,3-4.4,4.5c-0.7,1-2.9,4.4-6.6,6.8c-1.1,0.7-4.2,2.7-8.1,2.8c-0.9,0-1.9,0-2.9-0.3c-0.6-0.1-2.5-0.6-4.4-2
							C116.9,190.1,116.6,189.9,116.3,189.6z"/>
					</defs>
					<clipPath id="SVGID_26_">
						<use xlink:href="#SVGID_25_"  style="overflow:visible;"/>
					</clipPath>
					<g class="st21">
						<path class="st5" d="M116.3,189.6l-9.9-9.4c0.3,0.3,0.6,0.5,0.9,0.8l9.9,9.4C116.8,190.1,116.5,189.8,116.3,189.6"/>
						<path class="st6" d="M117.2,190.3l-9.9-9.4c0,0,0,0,0.1,0.1c1.9,1.4,3.8,1.9,4.4,2c0.4,0.1,0.8,0.2,1.2,0.2l9.9,9.4
							c-0.4,0-0.8-0.1-1.2-0.2C121,192.3,119.1,191.8,117.2,190.3C117.2,190.4,117.2,190.4,117.2,190.3"/>
						<path class="st5" d="M122.8,192.6l-9.9-9.4c0.6,0.1,1.1,0.1,1.6,0.1c0.2,0,0.5,0,0.7,0l9.9,9.4c-0.2,0-0.5,0-0.7,0
							C123.9,192.7,123.4,192.7,122.8,192.6"/>
						<path class="st7" d="M125.2,192.6l-9.9-9.4c0.7-0.1,1.3-0.2,2-0.3l9.9,9.4C126.5,192.5,125.8,192.6,125.2,192.6"/>
						<path class="st8" d="M127.1,192.3l-9.9-9.4c0.7-0.2,1.4-0.4,2-0.6l9.9,9.4C128.5,191.9,127.8,192.1,127.1,192.3"/>
						<path class="st9" d="M129.1,191.7l-9.9-9.4c0.8-0.3,1.5-0.7,2.1-1l9.9,9.4C130.6,191,129.9,191.4,129.1,191.7"/>
						<path class="st10" d="M131.2,190.7l-9.9-9.4c0.6-0.3,1-0.6,1.3-0.8c0.4-0.2,0.8-0.5,1.1-0.8l9.9,9.4c-0.4,0.3-0.7,0.5-1.1,0.8
							C132.3,190,131.8,190.3,131.2,190.7"/>
						<path class="st11" d="M133.7,189.1l-9.9-9.4c1-0.7,1.8-1.5,2.5-2.2l9.9,9.4C135.5,187.6,134.6,188.4,133.7,189.1"/>
						<path class="st2" d="M136.2,186.9l-9.9-9.4c1.6-1.6,2.6-3.2,3-3.8c0.6-1,1.3-2.1,2.2-3.1l9.9,9.4c-0.9,0.9-1.6,2.1-2.2,3.1
							C138.8,183.7,137.8,185.2,136.2,186.9"/>
						<path class="st11" d="M141.4,180l-9.9-9.4c0.2-0.3,0.5-0.5,0.8-0.7l9.9,9.4C141.9,179.5,141.6,179.7,141.4,180"/>
						<path class="st10" d="M142.2,179.3l-9.9-9.4c0.2-0.2,0.4-0.3,0.6-0.4l9.9,9.4C142.6,179,142.4,179.1,142.2,179.3"/>
						<path class="st9" d="M142.8,178.9l-9.9-9.4c0.2-0.1,0.4-0.2,0.6-0.3l9.9,9.4C143.2,178.7,143,178.8,142.8,178.9"/>
						<path class="st8" d="M143.4,178.6l-9.9-9.4c0.1,0,0.1,0,0.2-0.1c0.2-0.1,0.4-0.1,0.7-0.2l9.9,9.4c-0.3,0.1-0.5,0.2-0.7,0.2
							C143.5,178.5,143.5,178.6,143.4,178.6"/>
						<path class="st7" d="M144.3,178.3l-9.9-9.4c0.2,0,0.3-0.1,0.5-0.1l9.9,9.4C144.6,178.2,144.5,178.3,144.3,178.3"/>
						<path class="st5" d="M144.8,178.2l-9.9-9.4c0,0,0.1,0,0.1,0c0.1,0,0.2,0,0.3,0l9.9,9.4c-0.1,0-0.2,0-0.3,0
							C144.9,178.2,144.8,178.2,144.8,178.2"/>
						<path class="st6" d="M145.2,178.2l-9.9-9.4c0.2,0,0.4,0.1,0.6,0.2l9.9,9.4C145.6,178.3,145.4,178.2,145.2,178.2"/>
						<path class="st5" d="M145.8,178.4l-9.9-9.4c0,0,0,0,0,0c0,0,0.1,0,0.1,0.1L145.8,178.4C145.8,178.5,145.8,178.4,145.8,178.4
							C145.8,178.4,145.8,178.4,145.8,178.4"/>
					</g>
				</g>
				<g class="st0">
					<defs>
						<path id="SVGID_27_" class="st0" d="M157.3,176.6l-9.9-9.4c-0.2-0.2-0.4-0.5-0.6-0.7c-0.9-1.5-0.3-3.4,0-4.4
							c1.6-5.1,2.7-10.4,4.5-15.5c4.2-11.7,2.9-10.2,4.5-13.3c1.6-3,3-4.9,2.3-6.7c-0.2-0.4-0.4-0.7-0.7-1l9.9,9.4
							c0.3,0.3,0.5,0.6,0.7,1c0.8,1.7-0.7,3.7-2.3,6.7c-1.6,3.1-0.3,1.6-4.5,13.3c-1.8,5.1-2.9,10.4-4.5,15.5c-0.3,1-0.9,2.9,0,4.4
							C156.9,176.1,157.1,176.4,157.3,176.6z"/>
					</defs>
					<clipPath id="SVGID_28_">
						<use xlink:href="#SVGID_27_"  style="overflow:visible;"/>
					</clipPath>
					<g class="st22">
						<path class="st2" d="M157.3,176.6l-9.9-9.4c-0.2-0.2-0.4-0.5-0.6-0.7c-0.9-1.5-0.3-3.4,0-4.4c1.6-5.1,2.7-10.4,4.5-15.5
							c4.2-11.7,2.9-10.2,4.5-13.3c1.6-3,3-4.9,2.3-6.7c-0.2-0.4-0.4-0.7-0.7-1l9.9,9.4c0.3,0.3,0.5,0.6,0.7,1
							c0.8,1.7-0.7,3.7-2.3,6.7c-1.6,3.1-0.3,1.6-4.5,13.3c-1.8,5.1-2.9,10.4-4.5,15.5c-0.3,1-0.9,2.9,0,4.4
							C156.9,176.1,157.1,176.4,157.3,176.6"/>
					</g>
				</g>
				<g class="st0">
					<defs>
						<path id="SVGID_29_" class="st0" d="M201.1,77.4l9.9,9.4c3.1,2.9,1.4,13.2,1.2,14.7c-0.9,5.4-2.9,8.2-6.7,17.8
							c-2.7,6.7-4.9,11.6-6.7,15.6c-7.7,17-11.3,23-13.4,31.2l-9.9-9.4c2.1-8.2,5.8-14.1,13.4-31.2c1.8-4,4-8.9,6.7-15.6
							c3.9-9.6,5.8-12.4,6.7-17.8C202.5,90.7,204.2,80.4,201.1,77.4z"/>
					</defs>
					<clipPath id="SVGID_30_">
						<use xlink:href="#SVGID_29_"  style="overflow:visible;"/>
					</clipPath>
					<g class="st23">
						<path class="st2" d="M185.3,166.1l-9.9-9.4c2.1-8.2,5.8-14.1,13.4-31.2c1.8-4,4-8.9,6.7-15.6c3.9-9.6,5.8-12.4,6.7-17.8
							c0.2-1.5,1.9-11.8-1.2-14.7l9.9,9.4c3.1,2.9,1.4,13.2,1.2,14.7c-0.9,5.4-2.9,8.2-6.7,17.8c-2.7,6.7-4.9,11.6-6.7,15.6
							C191.1,152,187.4,157.9,185.3,166.1"/>
					</g>
				</g>
				<g>
					<polygon class="st24" points="265.5,29.3 255.6,19.9 262,24.3 271.9,33.7 					"/>
				</g>
				<g>
					<polygon class="st25" points="36.2,274 26.3,264.5 23.5,260.9 33.5,270.4 					"/>
				</g>
				<g>
					<polygon class="st25" points="33.5,270.4 23.5,260.9 21.7,257.3 31.6,266.8 					"/>
				</g>
				<g>
					<polygon class="st26" points="258.2,26.8 248.3,17.4 255.6,19.9 265.5,29.3 					"/>
				</g>
				<g>
					<polygon class="st25" points="31.6,266.8 21.7,257.3 20.8,255.5 30.7,264.9 					"/>
				</g>
				<g>
					<polygon class="st25" points="30.7,264.9 20.8,255.5 19.9,252.8 29.9,262.2 					"/>
				</g>
				<g class="st0">
					<defs>
						<path id="SVGID_31_" class="st0" d="M124.9,178.3l-9.9-9.4c-0.5-0.4-0.8-0.9-1-1.3c-1.3-2.6,0.8-6.1,2.3-8.8
							c2.6-4.9,4.7-10.7,9-22.2c1-2.9,1.8-5.2,2.3-6.7l9.9,9.4c-0.4,1.4-1.2,3.8-2.3,6.7c-4.2,11.6-6.3,17.3-9,22.2
							c-1.5,2.7-3.5,6.2-2.3,8.8C124.1,177.4,124.4,177.9,124.9,178.3z"/>
					</defs>
					<clipPath id="SVGID_32_">
						<use xlink:href="#SVGID_31_"  style="overflow:visible;"/>
					</clipPath>
					<g class="st27">
						<path class="st2" d="M124.9,178.3l-9.9-9.4c-0.5-0.4-0.8-0.9-1-1.3c-1.3-2.6,0.8-6.1,2.3-8.8c2.6-4.9,4.7-10.7,9-22.2
							c1-2.9,1.8-5.2,2.3-6.7l9.9,9.4c-0.4,1.4-1.2,3.8-2.3,6.7c-4.2,11.6-6.3,17.3-9,22.2c-1.5,2.7-3.5,6.2-2.3,8.8
							C124.1,177.4,124.4,177.9,124.9,178.3"/>
					</g>
				</g>
				<g class="st0">
					<defs>
						<path id="SVGID_33_" class="st0" d="M79.9,209.3l-9.9-9.4c0.7,0.6,1.8,0.9,3,0.9c1.2,0,2.5-0.4,3.6-1.1
							c4.4-3.1,0.6-9.9,4.6-22.1l9.9,9.4c-4,12.2-0.2,19-4.6,22.1c-1,0.7-2.3,1.1-3.6,1.1C81.6,210.2,80.5,209.9,79.9,209.3z"/>
					</defs>
					<clipPath id="SVGID_34_">
						<use xlink:href="#SVGID_33_"  style="overflow:visible;"/>
					</clipPath>
					<g class="st28">
						<path class="st5" d="M79.9,209.3l-9.9-9.4c0.1,0.1,0.1,0.1,0.2,0.2l9.9,9.4C80,209.4,79.9,209.3,79.9,209.3"/>
						<path class="st6" d="M80.1,209.4l-9.9-9.4c0.5,0.4,1.2,0.6,1.9,0.7l9.9,9.4C81.2,210,80.5,209.8,80.1,209.4"/>
						<path class="st5" d="M82,210.1l-9.9-9.4c0.3,0,0.6,0,0.9,0c0.1,0,0.3,0,0.4,0l9.9,9.4c-0.1,0-0.3,0-0.4,0
							C82.6,210.2,82.3,210.2,82,210.1"/>
						<path class="st7" d="M83.3,210.1l-9.9-9.4c0.3,0,0.7-0.1,1-0.2l9.9,9.4C83.9,210,83.6,210.1,83.3,210.1"/>
						<path class="st8" d="M84.3,209.9l-9.9-9.4c0.3-0.1,0.6-0.2,0.9-0.3l9.9,9.4C84.9,209.8,84.6,209.9,84.3,209.9"/>
						<path class="st9" d="M85.2,209.7l-9.9-9.4c0.3-0.1,0.5-0.2,0.8-0.4l9.9,9.4C85.7,209.4,85.4,209.6,85.2,209.7"/>
						<path class="st10" d="M85.9,209.3l-9.9-9.4c0.2-0.1,0.3-0.2,0.5-0.3c0.1,0,0.1-0.1,0.2-0.1l9.9,9.4c-0.1,0-0.1,0.1-0.2,0.1
							C86.3,209.1,86.1,209.2,85.9,209.3"/>
						<path class="st11" d="M86.6,208.9l-9.9-9.4c0.2-0.2,0.4-0.3,0.6-0.5l9.9,9.4C87,208.5,86.8,208.7,86.6,208.9"/>
						<path class="st2" d="M87.2,208.4l-9.9-9.4c3.2-3.3,0.1-10,3.8-21.4l9.9,9.4C87.3,198.4,90.4,205,87.2,208.4"/>
					</g>
				</g>
				<g>
					<polygon class="st25" points="137.4,139.3 127.5,129.8 127.5,125.4 137.4,134.9 					"/>
				</g>
				<g class="st0">
					<defs>
						<path id="SVGID_35_" class="st0" d="M97.5,120.4l9.9,9.4c2.3,2.2,1.8,6.4,1.5,8.2c-0.3,2.4-1,3.9-2.3,6.7
							c-0.9,2.1-3.1,7-4.5,11.1c-2.5,7.2-1.6,9.1-4.5,15.5c-0.9,1.9-0.9,1.7-2.2,4.5c-0.1,0.3-2.8,5.9-4.5,11.1l-9.9-9.4
							c1.7-5.2,4.3-10.8,4.5-11.1c1.3-2.8,1.4-2.6,2.2-4.5c2.9-6.4,2.1-8.3,4.5-15.5c1.4-4.1,3.6-9.1,4.5-11.1
							c1.2-2.8,2-4.3,2.3-6.7C99.3,126.8,99.8,122.6,97.5,120.4z"/>
					</defs>
					<clipPath id="SVGID_36_">
						<use xlink:href="#SVGID_35_"  style="overflow:visible;"/>
					</clipPath>
					<g class="st29">
						<path class="st2" d="M91,186.9l-9.9-9.4c1.7-5.2,4.3-10.8,4.5-11.1c1.3-2.8,1.4-2.6,2.2-4.5c2.9-6.4,2.1-8.3,4.5-15.5
							c1.4-4.1,3.6-9.1,4.5-11.1c1.2-2.8,2-4.3,2.3-6.7c0.2-1.8,0.7-6.1-1.5-8.2l9.9,9.4c2.3,2.2,1.8,6.4,1.5,8.2
							c-0.3,2.4-1,3.9-2.3,6.7c-0.9,2.1-3.1,7-4.5,11.1c-2.5,7.2-1.6,9.1-4.5,15.5c-0.9,1.9-0.9,1.7-2.2,4.5
							C95.3,176.1,92.7,181.7,91,186.9"/>
					</g>
				</g>
				<g class="st0">
					<defs>
						<path id="SVGID_37_" class="st0" d="M82.3,176.3l-9.9-9.4c0,0,0.8,0,1.9,0c0.6,0,1.2-0.1,1.9-0.1c0.3,0,0.4,0,0.5,0l9.9,9.4
							c-0.1,0-0.2,0-0.5,0c-0.7,0.1-1.3,0.1-1.9,0.1C83.1,176.3,82.4,176.3,82.3,176.3z"/>
					</defs>
					<clipPath id="SVGID_38_">
						<use xlink:href="#SVGID_37_"  style="overflow:visible;"/>
					</clipPath>
					<g class="st30">
						<path class="st5" d="M82.3,176.3l-9.9-9.4c0,0,0.8,0,1.9,0c0.6,0,1.2-0.1,1.9-0.1c0.3,0,0.4,0,0.5,0l9.9,9.4
							c-0.1,0-0.2,0-0.5,0c-0.7,0.1-1.3,0.1-1.9,0.1C83.1,176.3,82.4,176.3,82.3,176.3"/>
					</g>
				</g>
				<g class="st0">
					<defs>
						<path id="SVGID_39_" class="st0" d="M46.1,192l-9.9-9.4c0.3,0.3,0.7,0.6,1.1,0.9c1.8,1.3,3.4,1.8,4.4,2
							c1.7,0.5,3.5,0.6,5.1,0.5c3.1-0.1,5.6-0.8,5.9-0.9c1.2-0.4,9.6-2.8,13.2-9.2c0.7-1.2,2.3-4.5,4.4-6.7c0,0,0,0,2.2-2.3l9.9,9.4
							c-2.2,2.2-2.2,2.3-2.2,2.3c-2.2,2.3-3.8,5.5-4.4,6.7c-3.6,6.4-12,8.9-13.2,9.2c-0.2,0.1-2.7,0.8-5.9,0.9
							c-1.6,0.1-3.4-0.1-5.1-0.5c-0.9-0.2-2.6-0.7-4.4-2C46.8,192.5,46.4,192.2,46.1,192z"/>
					</defs>
					<clipPath id="SVGID_40_">
						<use xlink:href="#SVGID_39_"  style="overflow:visible;"/>
					</clipPath>
					<g class="st31">
						<path class="st5" d="M46.1,192l-9.9-9.4c0.3,0.3,0.6,0.5,0.9,0.8l9.9,9.4C46.7,192.5,46.4,192.2,46.1,192"/>
						<path class="st6" d="M47,192.7l-9.9-9.4c0.1,0,0.1,0.1,0.2,0.1c1.8,1.3,3.4,1.8,4.4,2c0.8,0.2,1.5,0.3,2.3,0.4l9.9,9.4
							c-0.8-0.1-1.5-0.2-2.3-0.4c-0.9-0.2-2.6-0.7-4.4-2C47.1,192.8,47.1,192.8,47,192.7"/>
						<path class="st5" d="M53.8,195.3l-9.9-9.4c1,0.1,1.9,0.1,2.8,0.1c0.5,0,1,0,1.4-0.1l9.9,9.4c-0.5,0-0.9,0.1-1.4,0.1
							C55.7,195.4,54.8,195.4,53.8,195.3"/>
						<path class="st7" d="M58,195.3l-9.9-9.4c1.7-0.2,3.1-0.5,3.8-0.6l9.9,9.4C61.1,194.8,59.7,195.1,58,195.3"/>
						<path class="st8" d="M61.9,194.7l-9.9-9.4c0.3-0.1,0.5-0.1,0.6-0.2c0.4-0.1,1.3-0.4,2.5-0.9l9.9,9.4c-1.2,0.5-2.2,0.8-2.5,0.9
							C62.4,194.5,62.2,194.6,61.9,194.7"/>
						<path class="st9" d="M65,193.6l-9.9-9.4c1-0.4,2.2-0.9,3.4-1.6l9.9,9.4C67.2,192.7,66,193.2,65,193.6"/>
						<path class="st10" d="M68.4,192l-9.9-9.4c0.9-0.5,1.8-1.1,2.7-1.8l9.9,9.4C70.2,190.9,69.3,191.5,68.4,192"/>
						<path class="st11" d="M71.1,190.3l-9.9-9.4c0.8-0.6,1.6-1.3,2.3-2l9.9,9.4C72.7,189,71.9,189.7,71.1,190.3"/>
						<path class="st2" d="M73.4,188.3l-9.9-9.4c0.9-0.9,1.6-1.9,2.3-3c0.7-1.2,2.3-4.5,4.4-6.7l9.9,9.4c-2.2,2.3-3.8,5.5-4.4,6.7
							C75.1,186.4,74.3,187.4,73.4,188.3"/>
						<path class="st11" d="M80.1,178.5l-9.9-9.4c0,0,0,0,0,0c0,0,0,0,2.2-2.3l9.9,9.4C80.2,178.5,80.1,178.5,80.1,178.5
							C80.1,178.5,80.1,178.5,80.1,178.5"/>
					</g>
				</g>
				<g class="st0">
					<defs>
						<path id="SVGID_41_" class="st0" d="M110.7,106.7l-9.9-9.4c0.2,0.2,0.5,0.4,0.8,0.6c0.6,0.4,1.5,0.7,2.8,0.6
							c1,0,2.2-0.3,3.8-0.9l9.9,9.4c-1.5,0.6-2.8,0.8-3.8,0.9c-1.3,0-2.2-0.3-2.8-0.6C111.2,107.1,110.9,106.9,110.7,106.7z"/>
					</defs>
					<clipPath id="SVGID_42_">
						<use xlink:href="#SVGID_41_"  style="overflow:visible;"/>
					</clipPath>
					<g class="st32">
						<path class="st5" d="M110.7,106.7l-9.9-9.4c0.1,0.1,0.2,0.2,0.4,0.3l9.9,9.4C110.9,106.9,110.8,106.8,110.7,106.7"/>
						<path class="st6" d="M111,107l-9.9-9.4c0.1,0.1,0.3,0.2,0.4,0.3c0.5,0.3,1.1,0.5,1.9,0.6l9.9,9.4c-0.8-0.1-1.4-0.3-1.9-0.6
							C111.3,107.2,111.2,107.1,111,107"/>
						<path class="st5" d="M113.3,107.9l-9.9-9.4c0.3,0,0.6,0,0.9,0c0.2,0,0.3,0,0.5,0l9.9,9.4c-0.2,0-0.3,0-0.5,0
							C113.9,107.9,113.6,107.9,113.3,107.9"/>
						<path class="st7" d="M114.7,107.9l-9.9-9.4c0.5,0,1-0.1,1.5-0.3l9.9,9.4C115.7,107.8,115.2,107.8,114.7,107.9"/>
						<path class="st8" d="M116.2,107.6l-9.9-9.4c0.5-0.1,1.1-0.3,1.8-0.6l9.9,9.4C117.4,107.3,116.8,107.5,116.2,107.6"/>
					</g>
				</g>
				<g class="st0">
					<defs>
						<path id="SVGID_43_" class="st0" d="M105.2,79.5l9.9,9.4c3.2,3.1,5.4,7.1,5.2,11.4c-0.1,2.9-1.3,5.2-2.3,6.7l-9.9-9.4
							c0.9-1.5,2.1-3.8,2.3-6.7C110.6,86.6,108.4,82.6,105.2,79.5z"/>
					</defs>
					<clipPath id="SVGID_44_">
						<use xlink:href="#SVGID_43_"  style="overflow:visible;"/>
					</clipPath>
					<g class="st33">
						<path class="st2" d="M118,107.1l-9.9-9.4c0.9-1.5,2.1-3.8,2.3-6.7c0.2-4.4-2-8.3-5.2-11.4l9.9,9.4c3.2,3.1,5.4,7.1,5.2,11.4
							C120.1,103.3,118.9,105.6,118,107.1"/>
					</g>
				</g>
				<g class="st0">
					<defs>
						<path id="SVGID_45_" class="st0" d="M96.1,85.7l9.9,9.4c-0.3-0.3-0.6-0.5-1-0.8l-9.9-9.4C95.5,85.1,95.8,85.4,96.1,85.7z"/>
					</defs>
					<clipPath id="SVGID_46_">
						<use xlink:href="#SVGID_45_"  style="overflow:visible;"/>
					</clipPath>
					<g class="st34">
						<path class="st6" d="M105,94.3l-9.9-9.4c0.2,0.1,0.4,0.2,0.6,0.4l9.9,9.4C105.4,94.6,105.2,94.5,105,94.3"/>
						<path class="st5" d="M105.5,94.7l-9.9-9.4c0.2,0.1,0.3,0.3,0.5,0.4l9.9,9.4C105.8,95,105.7,94.8,105.5,94.7"/>
					</g>
				</g>
				<g class="st0">
					<defs>
						<path id="SVGID_47_" class="st0" d="M100.6,92.3l-9.9-9.4c0.2,0.1,3.2,1.4,4.4,2l9.9,9.4C103.8,93.7,100.8,92.4,100.6,92.3z"
							/>
					</defs>
					<clipPath id="SVGID_48_">
						<use xlink:href="#SVGID_47_"  style="overflow:visible;"/>
					</clipPath>
					<g class="st35">
						<path class="st6" d="M100.6,92.3l-9.9-9.4c0.2,0.1,3.2,1.4,4.4,2l9.9,9.4C103.8,93.7,100.8,92.4,100.6,92.3"/>
					</g>
				</g>
				<g>
					<polygon class="st36" points="94.1,92.5 84.1,83.1 90.7,82.9 100.6,92.3 					"/>
				</g>
				<g>
					<polygon class="st37" points="87.4,97.2 77.5,87.7 84.1,83.1 94.1,92.5 					"/>
				</g>
				<g class="st0">
					<defs>
						<path id="SVGID_49_" class="st0" d="M80.8,101.8l-9.9-9.4c2.2-1.5,4.4-3.1,6.6-4.6l9.9,9.4C85.2,98.7,83,100.2,80.8,101.8z"/>
					</defs>
					<clipPath id="SVGID_50_">
						<use xlink:href="#SVGID_49_"  style="overflow:visible;"/>
					</clipPath>
					<g class="st38">
						<path class="st10" d="M80.8,101.8l-9.9-9.4c2.2-1.5,4.4-3.1,6.6-4.6l9.9,9.4C85.2,98.7,83,100.2,80.8,101.8"/>
					</g>
				</g>
				<g class="st0">
					<defs>
						<path id="SVGID_51_" class="st0" d="M53.4,181.3l-9.9-9.4c-2.2-2.1-2-6.1-1.6-10.5c1.1-12.2,1.6-18.3,4.6-26.5
							c6.9-18.8,18.1-34.4,24.5-42.5l9.9,9.4c-6.4,8.1-17.5,23.7-24.5,42.5c-3,8.2-3.6,14.3-4.6,26.5
							C51.4,175.2,51.2,179.2,53.4,181.3z"/>
					</defs>
					<clipPath id="SVGID_52_">
						<use xlink:href="#SVGID_51_"  style="overflow:visible;"/>
					</clipPath>
					<g class="st39">
						<path class="st2" d="M53.4,181.3l-9.9-9.4c-2.2-2.1-2-6.1-1.6-10.5c1.1-12.2,1.6-18.3,4.6-26.5c6.9-18.8,18.1-34.4,24.5-42.5
							l9.9,9.4c-6.4,8.1-17.5,23.7-24.5,42.5c-3,8.2-3.6,14.3-4.6,26.5C51.4,175.2,51.2,179.2,53.4,181.3"/>
					</g>
				</g>
				<g>
					<polygon class="st25" points="29.9,262.2 19.9,252.8 21.8,50.1 31.7,59.6 					"/>
				</g>
				<g>
					<polygon class="st36" points="51.3,34 41.4,24.6 248.3,17.4 258.2,26.8 					"/>
				</g>
				<g>
					<polygon class="st25" points="31.7,59.6 21.8,50.1 22.8,43.7 32.7,53.1 					"/>
				</g>
				<g>
					<polygon class="st40" points="44.8,36.1 34.9,26.7 41.4,24.6 51.3,34 					"/>
				</g>
				<g>
					<polygon class="st41" points="32.7,53.1 22.8,43.7 26.6,35.2 36.5,44.7 					"/>
				</g>
				<g>
					<polygon class="st42" points="41.1,39 31.2,29.6 34.9,26.7 44.8,36.1 					"/>
				</g>
				<g>
					<path class="st43" d="M277.4,40.9l2.7,7.3l-1.9,203.6l-1.9,7.4l-3.7,5.7l-3.7,3.8l-3.7,2.9l-8.3,4l-202.3,7.1l-8.3-1.6
						l-4.6-2.6l-5.5-4.4l-2.7-3.6l-1.8-3.6l-0.9-1.8l-0.9-2.7l1.9-202.6l1-6.5l3.8-8.4l4.7-5.7l3.7-2.9l6.5-2.1l206.9-7.2l7.3,2.5
						l6.4,4.4l3.6,4.5L277.4,40.9z M266.3,172c2.9-5.5,1.7-10.2,0.1-11c-0.5-0.3-0.6-0.7-0.9-0.7c-0.2,0-0.6,0.2-1.3,0.8
						c-2.1,1.7-3,2.9-4.4,4.5c-2.5,2.8-5.1,5.6-8.8,6.9c-2.7,0.9-4.5,0.6-6.6,2.4c-1.1,1-1.1,1.5-2.2,2.3c-1.1,0.8-2.6,1.2-3.8,1.2
						c-1.3,0-2.4-0.3-2.8-1c-0.3-0.6-0.1-1.7,2.2-4.5c4.9-5.9,8.1-6.3,13.2-11.4c4.2-4.2,6.1-7.9,6.6-9c0.7-1.5,1.8-3.7,2.3-6.7
						c0.6-3.8,0.7-12.3-4.2-15.2c-1.4-0.8-2.9-1.1-4.5-1c-4.1,0.1-8.5,2.5-10.9,3.7c-5.6,3-9.1,7-10.6,7.1c-1.6-0.9,1.2-4.8-0.3-6.7
						c-0.6-0.8-1.8-1.1-3.3-1c-2.5,0.1-5.7,1.4-7.7,3.6c-1.8,2.2-2,4.6-2.3,6.7c-0.1,0.5-1.4,10.4-8.9,20
						c-4.4,5.7-11.7,11.3-17.6,11.6c0,0-0.1,0-6.6,0.2c0.4-1.9,1.1-5.1,2.3-8.8c2.1-8.2,5.8-14.1,13.4-31.2c1.8-4,4-8.9,6.7-15.6
						c3.9-9.6,5.8-12.4,6.7-17.8c0.3-1.6,2.2-13.5-2-15.3c-0.4-0.2-0.8-0.2-1.3-0.2c-2,0.1-4.2,1.8-5.3,2.6
						c-3.6,2.7-4.2,6.4-6.7,13.4c-1.3,3.8-3.1,7.4-4.5,11.1c-5.6,14.8-7.7,14.4-11.2,24.5c-3,8.7-5.9,22-9,31
						c-0.3,1-1.5,4.2-4.4,6.7c-0.9,0.8-2.3,2-4.4,2.3c-0.4,0.1-0.8,0.1-1.3,0.1c-2,0.1-4.3-0.5-5.3-2.1c-0.9-1.5-0.3-3.4,0-4.4
						c1.6-5.1,2.7-10.4,4.5-15.5c4.2-11.7,2.9-10.2,4.5-13.3c1.6-3,3-4.9,2.3-6.7c-0.7-1.5-2.7-2.4-4.7-2.3c-0.6,0-1.3,0.1-1.8,0.4
						c-2.8,1.1-3.8,4.8-4.4,6.7c-1.9,6.3-5,11.6-11.1,22.3c-0.4,0.7-7.5,13-15.5,15.9c-0.5,0.2-1.4,0.5-2.4,0.5
						c-0.6,0-1.3-0.1-2-0.4c-1.2-0.5-1.9-1.5-2.2-2.1c-1.3-2.6,0.8-6.1,2.3-8.8c2.6-4.9,4.7-10.7,9-22.2c1-2.9,1.8-5.2,2.3-6.7
						l0-4.4c-1-0.3-2.2-0.7-3.5-0.6c-1,0-2,0.3-3,0.8c-3,1.9-4,5.4-4.4,6.7c-0.1,0.2-1.5,3.1-4.5,8.9c-2.7,5.4-3.2,5.9-4.5,8.9
						c-1.1,2.7-1.7,4.8-2.3,6.7c-2.5,8.8-3.8,13.1-2.4,17.6c0.4,1.2,1.4,4.2,4.3,6.4c1.9,1.4,3.8,1.9,4.4,2c1,0.2,1.9,0.3,2.9,0.3
						c3.9-0.1,7-2.1,8.1-2.8c3.7-2.4,6-5.8,6.6-6.8c1-1.6,2.1-3.7,4.4-4.5c0.3-0.1,0.8-0.3,1.3-0.3c0.3,0,0.6,0,0.9,0.2
						c1.2,0.9,0.3,4.8-0.1,6.6c-0.2,0.9-0.5,1.8,0,2.2c0.2,0.1,0.3,0.2,0.6,0.2c0.4,0,1-0.2,1.6-0.3c1.9-0.1,2.8,1.2,4.4,2
						c1.3,0.7,2.9,1,4.6,1c1.5-0.1,3-0.5,4.2-1.3c2.1-1.5,2.1-3.8,4.4-4.5c0.4-0.1,0.7-0.2,1.1-0.2c0.4,0,0.8,0,1.1,0.1
						c1.5-0.1,2.9-0.1,4.4-0.2c0.3,1.1,0.9,2.7,2.2,4.3c0.7,0.9,1.2,1.6,2.2,2.1c0.9,0.5,2.1,0.8,3.3,0.7c1.1,0,2.3-0.4,3.3-1
						c2.5-1.5,2.1-3.7,4.4-4.5c0.4-0.1,0.7-0.2,1-0.2c0.4,0,0.7,0,1,0.1c0.3,0.1,0.7,0.1,1.2,0.1c0.3,0,0.7-0.1,1.2-0.2
						c2.2-0.5,3.8-1.9,4.4-2.3c2.3-2,2.3-3.7,4.4-4.5c0.3-0.1,0.8-0.3,1.3-0.3c0.3,0,0.6,0,0.9,0.2c1.1,0.8,0.3,3.4,0,4.4
						c-0.8,2.5-2,4.2-2.2,4.5c-1.5,2.1-4.9,6.7-6.7,11.2c-1.6,4.3-0.3,4.7-2.3,8.9c-0.1,0.2-1.7,3.6-4.4,6.7c-0.9,1.1-1.9,2-1.9,2
						c-1.5,1.5-1.2,6.3,1.8,9c2.1,1.8,4.7,2,5.4,2c0,0,0.3,0,0.7,0c0.1,0,0.3,0,0.5,0c5.5-0.5,31-66.1,31.3-66.9
						c1.1-0.9,2.8-2.4,4.4-4.5c2.5-3.2,2.2-4.3,4.4-6.7c1.7-1.9,3.4-2.8,6.6-4.6c2.7-1.5,4.3-2.4,5.8-2.5c0.3,0,0.5,0,0.8,0
						c2.6,0.4,4.8,2.9,4.3,4.2c-0.5,1.4-3.5,0.5-6.6,2.4c-2.6,1.6-3.2,4.1-4.4,6.7c-4.8,10.6-15.4,18-15.5,18.1
						c-0.3,0.7-2.7,6.1-0.1,11c1.3,2.5,3.4,3.7,4.3,4.2c1.4,0.7,3.1,1.2,5.4,1.1c2-0.1,4.5-0.5,7.7-1.6
						C249.7,185.8,260.8,182.3,266.3,172 M105,94.3c4.7,2.8,2.4,10.5,6.5,12.9c0.6,0.4,1.5,0.7,2.8,0.6c1,0,2.2-0.3,3.8-0.9
						c0.9-1.5,2.1-3.8,2.3-6.7c0.4-8.2-7.7-15.1-15.2-17c-1.7-0.4-3.5-0.6-5.4-0.6c-3.6,0.1-7.5,1.2-12.1,3.4
						c-20,9.5-39,33.8-44.4,62.9c-1.5,8.3-3.1,23.2,1.8,41.6c0.5,0.6,1.2,1.4,2.2,2.1c1.8,1.3,3.4,1.8,4.4,2
						c1.7,0.5,3.5,0.6,5.1,0.5c3.1-0.1,5.6-0.8,5.9-0.9c1.2-0.4,9.6-2.8,13.2-9.2c0.7-1.2,2.3-4.5,4.4-6.7c0,0,0,0,2.2-2.3
						c0,0,0.8,0,1.9,0c0.6,0,1.2-0.1,1.9-0.1c0.3,0,0.4,0,0.5,0c0.4,0.2-5.9,8.6-6.6,17.8c-0.1,1.7,0.1,1.2,0,4.4
						c-0.3,7.2-1.5,9.6-0.1,11c0.7,0.6,1.8,1,3,0.9c1.2,0,2.5-0.4,3.6-1.1c4.4-3.1,0.6-9.9,4.6-22.1c1.7-5.2,4.3-10.8,4.5-11.1
						c1.3-2.8,1.4-2.6,2.2-4.5c2.9-6.4,2.1-8.3,4.5-15.5c1.4-4.1,3.6-9.1,4.5-11.1c1.2-2.8,2-4.3,2.3-6.7c0.2-2,0.8-6.7-2.1-8.7
						c-0.9-0.6-2.1-1-3.4-0.9c-1.1,0-2.2,0.4-3.2,1.1c-1.8,1.4-2.1,3.7-2.2,4.5c-0.6,4.3-2.7,9.5-6.8,20c-0.2,0.6-5,12.8-22.1,24.9
						c-0.6,0.5-2.2,1.5-4.4,2.3c-0.7,0.2-3.6,1.4-6.5,1.5c-1.6,0.1-3.2-0.2-4.4-1.1c-2.6-1.9-2.5-6.2-2.1-10.9
						c1.1-12.2,1.6-18.3,4.6-26.5c6.9-18.8,18.1-34.4,24.5-42.5c2.2-1.5,4.4-3.1,6.6-4.6l6.6-4.6l6.6-0.2
						C100.8,92.4,103.8,93.7,105,94.3"/>
				</g>
				<g>
					<polygon class="st44" points="36.5,44.7 26.6,35.2 31.2,29.6 41.1,39 					"/>
				</g>
			</g>
		</g>
	</g>
	<g id="title_1_">
		<g>
			<g class="st0">
				<g class="st0">
					<defs>
						<path id="SVGID_53_" class="st0" d="M273.3,167.8l-9.9-9.4c0.1,0.1,0.2,0.2,0.4,0.3c0.1,0.1,0.3,0.2,0.4,0.3l9.9,9.4
							c-0.1-0.1-0.3-0.2-0.4-0.3C273.5,168,273.3,167.9,273.3,167.8z"/>
					</defs>
					<clipPath id="SVGID_54_">
						<use xlink:href="#SVGID_53_"  style="overflow:visible;"/>
					</clipPath>
					<g class="st45">
						<path class="st46" d="M273.3,167.8l-9.9-9.4c0,0,0.1,0.1,0.1,0.1l9.9,9.4C273.3,167.8,273.3,167.8,273.3,167.8"/>
						<path class="st47" d="M273.4,167.9l-9.9-9.4c0.1,0.1,0.1,0.1,0.2,0.1c0.1,0,0.2,0.1,0.2,0.2l9.9,9.4c-0.1-0.1-0.2-0.1-0.2-0.2
							C273.5,168,273.4,167.9,273.4,167.9"/>
						<path class="st46" d="M273.9,168.2l-9.9-9.4c0.1,0,0.1,0.1,0.2,0.1l9.9,9.4C274,168.3,273.9,168.2,273.9,168.2"/>
					</g>
				</g>
				<g class="st0">
					<defs>
						<path id="SVGID_55_" class="st0" d="M243.1,184.8l-9.9-9.4c0.5,0.5,1.4,0.7,2.5,0.7c1.2,0,2.7-0.4,3.8-1.2
							c1.1-0.7,1.1-1.3,2.2-2.3c2.1-1.9,3.9-1.5,6.6-2.4c3.7-1.3,6.3-4.1,8.8-6.9c1.5-1.6,2.3-2.8,4.4-4.5c0.7-0.6,1-0.7,1.3-0.8
							c0.1,0,0.2,0,0.3,0.1l9.9,9.4c-0.1-0.1-0.2-0.1-0.3-0.1c-0.2,0-0.6,0.2-1.3,0.8c-2.1,1.7-3,2.9-4.4,4.5
							c-2.5,2.8-5.1,5.6-8.8,6.9c-2.7,0.9-4.5,0.6-6.6,2.4c-1.1,1-1.1,1.5-2.2,2.3c-1.1,0.8-2.6,1.2-3.8,1.2
							C244.5,185.5,243.5,185.2,243.1,184.8z"/>
					</defs>
					<clipPath id="SVGID_56_">
						<use xlink:href="#SVGID_55_"  style="overflow:visible;"/>
					</clipPath>
					<g class="st48">
						<path class="st46" d="M243.1,184.8l-9.9-9.4c0,0,0.1,0.1,0.1,0.1l9.9,9.4C243.1,184.8,243.1,184.8,243.1,184.8"/>
						<path class="st47" d="M243.2,184.9l-9.9-9.4c0.4,0.3,0.9,0.5,1.5,0.5l9.9,9.4C244.1,185.3,243.5,185.1,243.2,184.9"/>
						<path class="st46" d="M244.7,185.4l-9.9-9.4c0.3,0,0.6,0,0.9,0c0.1,0,0.3,0,0.4,0l9.9,9.4c-0.1,0-0.3,0-0.4,0
							C245.3,185.4,245,185.4,244.7,185.4"/>
						<path class="st49" d="M246,185.4l-9.9-9.4c0.4,0,0.8-0.1,1.1-0.2l9.9,9.4C246.7,185.3,246.4,185.4,246,185.4"/>
						<path class="st50" d="M247.1,185.2l-9.9-9.4c0.3-0.1,0.7-0.2,1-0.3l9.9,9.4C247.8,185,247.5,185.1,247.1,185.2"/>
						<path class="st51" d="M248.1,184.9l-9.9-9.4c0.3-0.1,0.6-0.2,0.8-0.4l9.9,9.4C248.7,184.6,248.4,184.8,248.1,184.9"/>
						<path class="st52" d="M248.9,184.5l-9.9-9.4c0.2-0.1,0.3-0.2,0.5-0.3c0.1-0.1,0.2-0.1,0.2-0.2l9.9,9.4
							c-0.1,0.1-0.1,0.1-0.2,0.2C249.2,184.3,249.1,184.4,248.9,184.5"/>
						<path class="st53" d="M249.6,184.1l-9.9-9.4c0.2-0.2,0.4-0.3,0.5-0.4l9.9,9.4C250,183.8,249.8,183.9,249.6,184.1"/>
						<path class="st54" d="M250.1,183.6l-9.9-9.4c0.4-0.4,0.6-0.8,1.1-1.3l9.9,9.4C250.7,182.8,250.5,183.2,250.1,183.6"/>
						<path class="st53" d="M251.2,182.3l-9.9-9.4c0.1-0.1,0.2-0.2,0.4-0.4c0.2-0.1,0.3-0.3,0.5-0.4l9.9,9.4
							c-0.2,0.1-0.3,0.3-0.5,0.4C251.4,182.1,251.3,182.2,251.2,182.3"/>
						<path class="st52" d="M252.1,181.6l-9.9-9.4c0.2-0.2,0.5-0.3,0.7-0.5l9.9,9.4C252.6,181.2,252.3,181.4,252.1,181.6"/>
						<path class="st51" d="M252.8,181.1l-9.9-9.4c0.2-0.1,0.5-0.2,0.7-0.3l9.9,9.4C253.3,180.8,253.1,180.9,252.8,181.1"/>
						<path class="st50" d="M253.5,180.7l-9.9-9.4c0.4-0.1,0.7-0.2,1.1-0.3l9.9,9.4C254.2,180.5,253.9,180.6,253.5,180.7"/>
						<path class="st49" d="M254.6,180.4l-9.9-9.4c0.7-0.2,1.5-0.3,2.3-0.5l9.9,9.4C256.1,180.1,255.3,180.2,254.6,180.4"/>
						<path class="st50" d="M256.9,179.9l-9.9-9.4c0.4-0.1,0.8-0.2,1.2-0.4c0.2-0.1,0.3-0.1,0.5-0.2l9.9,9.4
							c-0.2,0.1-0.3,0.1-0.5,0.2C257.7,179.7,257.3,179.8,256.9,179.9"/>
						<path class="st51" d="M258.7,179.3l-9.9-9.4c0.6-0.2,1.1-0.5,1.6-0.7l9.9,9.4C259.8,178.9,259.2,179.1,258.7,179.3"/>
						<path class="st52" d="M260.3,178.6l-9.9-9.4c0.6-0.3,1.2-0.7,1.8-1.2l9.9,9.4C261.5,177.9,260.9,178.3,260.3,178.6"/>
						<path class="st53" d="M262.1,177.4l-9.9-9.4c1.1-0.8,2.1-1.8,3.1-2.8l9.9,9.4C264.2,175.7,263.2,176.6,262.1,177.4"/>
						<path class="st54" d="M265.1,174.7l-9.9-9.4c0.6-0.7,1.3-1.3,1.9-2c0.9-1,1.6-1.8,2.4-2.7l9.9,9.4c-0.9,0.9-1.5,1.8-2.4,2.7
							C266.4,173.3,265.8,174,265.1,174.7"/>
						<path class="st53" d="M269.4,169.9l-9.9-9.4c0.5-0.6,1.2-1.2,2-1.8c0.1-0.1,0.2-0.2,0.3-0.2l9.9,9.4c-0.1,0.1-0.2,0.2-0.3,0.2
							C270.6,168.8,270,169.3,269.4,169.9"/>
						<path class="st52" d="M271.7,167.9l-9.9-9.4c0.2-0.2,0.4-0.3,0.6-0.4l9.9,9.4C272.1,167.6,272,167.7,271.7,167.9"/>
						<path class="st51" d="M272.3,167.5l-9.9-9.4c0.1,0,0.1-0.1,0.2-0.1l9.9,9.4C272.4,167.4,272.4,167.4,272.3,167.5"/>
						<path class="st50" d="M272.5,167.4l-9.9-9.4c0,0,0.1,0,0.1,0l9.9,9.4C272.6,167.4,272.5,167.4,272.5,167.4"/>
						<path class="st49" d="M272.6,167.4l-9.9-9.4c0,0,0.1,0,0.1,0L272.6,167.4C272.6,167.4,272.6,167.4,272.6,167.4"/>
						<path class="st46" d="M272.7,167.4l-9.9-9.4c0,0,0,0,0,0c0,0,0,0,0.1,0L272.7,167.4C272.7,167.3,272.7,167.3,272.7,167.4
							C272.7,167.3,272.7,167.3,272.7,167.4"/>
						<path class="st47" d="M272.7,167.4l-9.9-9.4c0.1,0,0.1,0,0.2,0.1l9.9,9.4C272.9,167.4,272.8,167.4,272.7,167.4"/>
						<path class="st46" d="M272.9,167.4L263,158c0,0,0,0,0.1,0L272.9,167.4C273,167.5,272.9,167.4,272.9,167.4"/>
					</g>
				</g>
				<g class="st0">
					<defs>
						<path id="SVGID_57_" class="st0" d="M233.7,193.9l-9.9-9.4c-0.7-0.6-1.4-1.5-1.9-2.5c-2.6-4.9-0.2-10.2,0.1-11l9.9,9.4
							c-0.3,0.7-2.7,6.1-0.1,11C232.4,192.5,233.1,193.3,233.7,193.9z"/>
					</defs>
					<clipPath id="SVGID_58_">
						<use xlink:href="#SVGID_57_"  style="overflow:visible;"/>
					</clipPath>
					<g class="st55">
						<path class="st54" d="M233.7,193.9l-9.9-9.4c-0.7-0.6-1.4-1.5-1.9-2.5c-2.6-4.9-0.2-10.2,0.1-11l9.9,9.4
							c-0.3,0.7-2.7,6.1-0.1,11C232.4,192.5,233.1,193.3,233.7,193.9"/>
					</g>
				</g>
				<g class="st0">
					<defs>
						<path id="SVGID_59_" class="st0" d="M247.4,141.2l9.9,9.4c0.9,0.9,1.4,1.9,1.2,2.6c-0.5,1.4-3.5,0.5-6.6,2.4
							c-2.6,1.6-3.2,4.1-4.4,6.7c-4.8,10.6-15.4,18-15.5,18.1L222,171c0.1-0.1,10.6-7.4,15.5-18.1c1.2-2.6,1.9-5.1,4.4-6.7
							c3-2,6.1-1,6.6-2.4C248.8,143.1,248.3,142,247.4,141.2z"/>
					</defs>
					<clipPath id="SVGID_60_">
						<use xlink:href="#SVGID_59_"  style="overflow:visible;"/>
					</clipPath>
					<g class="st56">
						<polyline class="st54" points="231.9,180.5 222,171 222,171 231.9,180.4 231.9,180.5 						"/>
						<path class="st53" d="M231.9,180.4L222,171c0.1-0.1,3.4-2.4,7.2-6.3l9.9,9.4C235.4,178,232.1,180.3,231.9,180.4"/>
						<path class="st54" d="M239.1,174.1l-9.9-9.4c3-3.1,6.2-7.1,8.3-11.8c0.9-2.1,1.6-4.1,3.1-5.6l9.9,9.4
							c-1.5,1.6-2.1,3.5-3.1,5.6C245.3,167,242,171.1,239.1,174.1"/>
						<path class="st53" d="M250.5,156.8l-9.9-9.4c0.3-0.3,0.6-0.5,0.9-0.8l9.9,9.4C251,156.2,250.7,156.5,250.5,156.8"/>
						<path class="st52" d="M251.4,156l-9.9-9.4c0.1-0.1,0.3-0.2,0.5-0.3c0.2-0.1,0.3-0.2,0.5-0.3l9.9,9.4c-0.2,0.1-0.3,0.2-0.5,0.3
							C251.7,155.7,251.5,155.8,251.4,156"/>
						<path class="st51" d="M252.3,155.4l-9.9-9.4c0.3-0.2,0.7-0.3,1-0.5l9.9,9.4C253,155,252.6,155.2,252.3,155.4"/>
						<path class="st50" d="M253.3,154.9l-9.9-9.4c0.4-0.2,0.8-0.3,1.2-0.4l9.9,9.4C254.1,154.6,253.7,154.7,253.3,154.9"/>
						<path class="st49" d="M254.5,154.5l-9.9-9.4c1.1-0.3,2.1-0.3,2.8-0.5l9.9,9.4C256.6,154.2,255.6,154.2,254.5,154.5"/>
						<path class="st50" d="M257.3,154l-9.9-9.4c0.2,0,0.3-0.1,0.4-0.1l9.9,9.4C257.6,153.9,257.4,154,257.3,154"/>
						<path class="st51" d="M257.7,153.9l-9.9-9.4c0.1,0,0.2-0.1,0.2-0.1l9.9,9.4C257.9,153.8,257.8,153.8,257.7,153.9"/>
						<path class="st52" d="M257.9,153.8l-9.9-9.4c0.1,0,0.1-0.1,0.2-0.1l9.9,9.4C258,153.7,258,153.7,257.9,153.8"/>
						<path class="st53" d="M258.1,153.7l-9.9-9.4c0,0,0.1-0.1,0.1-0.1l9.9,9.4C258.2,153.6,258.1,153.6,258.1,153.7"/>
						<path class="st54" d="M258.2,153.5l-9.9-9.4c0.1-0.1,0.2-0.2,0.2-0.3c0.2-0.7-0.3-1.7-1.2-2.6l9.9,9.4
							c0.9,0.9,1.4,1.9,1.2,2.6C258.4,153.3,258.3,153.5,258.2,153.5"/>
					</g>
				</g>
				<g class="st0">
					<defs>
						<path id="SVGID_61_" class="st0" d="M194,232l-9.9-9.4c-2.8-2.7-3-7.3-1.9-8.5c0.3-0.3,1.3-1.2,2.2-2.3
							c2.8-3.2,4.4-6.6,4.4-6.7c1.9-4.1,0.6-4.6,2.3-8.8c1.7-4.5,5.1-9.1,6.7-11.2c0.2-0.3,1.5-2,2.2-4.5c0.3-1,1.1-3.4,0.1-4.3
							l9.9,9.4c0.9,0.9,0.2,3.3-0.1,4.3c-0.8,2.5-2,4.2-2.2,4.5c-1.5,2.1-4.9,6.7-6.7,11.2c-1.6,4.3-0.3,4.7-2.3,8.8
							c-0.1,0.2-1.7,3.6-4.4,6.7c-0.9,1.1-1.9,2-2.2,2.3C190.9,224.7,191.2,229.3,194,232z"/>
					</defs>
					<clipPath id="SVGID_62_">
						<use xlink:href="#SVGID_61_"  style="overflow:visible;"/>
					</clipPath>
					<g class="st57">
						<path class="st54" d="M194,232l-9.9-9.4c-2.8-2.7-3-7.2-1.9-8.4l9.9,9.4C190.9,224.7,191.2,229.3,194,232"/>
						<path class="st53" d="M192.1,223.5l-9.9-9.4c0,0,0,0,0,0c0.2-0.2,0.7-0.7,1.3-1.3l9.9,9.4
							C192.8,222.8,192.3,223.3,192.1,223.5C192.1,223.5,192.1,223.5,192.1,223.5"/>
						<path class="st54" d="M193.4,222.2l-9.9-9.4c0.3-0.3,0.6-0.6,0.9-1c2.8-3.2,4.4-6.6,4.4-6.7c1.9-4.1,0.6-4.6,2.3-8.8
							c1.7-4.5,5.1-9.1,6.7-11.2c0.2-0.3,1.5-2,2.2-4.5c0.3-1,1.1-3.4,0.1-4.3l9.9,9.4c0.9,0.9,0.2,3.3-0.1,4.3
							c-0.8,2.5-2,4.2-2.2,4.5c-1.5,2.1-4.9,6.7-6.7,11.2c-1.6,4.3-0.3,4.7-2.3,8.8c-0.1,0.2-1.7,3.6-4.4,6.7
							C194,221.6,193.7,221.9,193.4,222.2"/>
					</g>
				</g>
				<g class="st0">
					<defs>
						<path id="SVGID_63_" class="st0" d="M254.3,129.2l9.9,9.4c-0.4-0.4-0.8-0.7-1.3-1c-1.4-0.8-2.9-1.1-4.5-1
							c-4.1,0.1-8.5,2.5-10.9,3.7c-5.6,3-9,7-11,7l-9.9-9.4c2,0.1,5.4-4,11-7c2.3-1.3,6.8-3.6,10.9-3.7c1.6-0.1,3.1,0.2,4.5,1
							C253.5,128.5,253.9,128.9,254.3,129.2z"/>
					</defs>
					<clipPath id="SVGID_64_">
						<use xlink:href="#SVGID_63_"  style="overflow:visible;"/>
					</clipPath>
					<g class="st58">
						<path class="st46" d="M236.6,147.4l-9.9-9.4c0.1,0,0.1,0,0.2,0l9.9,9.4C236.7,147.4,236.7,147.4,236.6,147.4"/>
						<path class="st49" d="M236.8,147.4l-9.9-9.4c0.1,0,0.2,0,0.3-0.1l9.9,9.4C237,147.4,236.9,147.4,236.8,147.4"/>
						<path class="st50" d="M237.1,147.3l-9.9-9.4c0.1,0,0.2-0.1,0.4-0.1l9.9,9.4C237.3,147.3,237.2,147.3,237.1,147.3"/>
						<path class="st51" d="M237.5,147.2l-9.9-9.4c0.2-0.1,0.4-0.2,0.6-0.3l9.9,9.4C237.9,147,237.7,147.1,237.5,147.2"/>
						<path class="st52" d="M238.1,146.9l-9.9-9.4c0.6-0.3,1.3-0.8,2-1.4l9.9,9.4C239.3,146.1,238.7,146.6,238.1,146.9"/>
						<path class="st53" d="M240.1,145.6l-9.9-9.4c0.6-0.5,1.3-1,2.1-1.6l9.9,9.4C241.4,144.6,240.7,145.1,240.1,145.6"/>
						<path class="st52" d="M242.1,144l-9.9-9.4c1.4-1.1,3.1-2.2,5-3.3l9.9,9.4C245.2,141.7,243.6,142.9,242.1,144"/>
						<path class="st51" d="M247.1,140.7l-9.9-9.4c0.1-0.1,0.3-0.2,0.5-0.2c1.2-0.6,2.9-1.6,4.9-2.3l9.9,9.4
							c-1.9,0.8-3.7,1.7-4.9,2.3C247.4,140.5,247.3,140.6,247.1,140.7"/>
						<path class="st50" d="M252.5,138.1l-9.9-9.4c1-0.4,2-0.7,3-1l9.9,9.4C254.4,137.4,253.4,137.7,252.5,138.1"/>
						<path class="st49" d="M255.4,137.1l-9.9-9.4c0.8-0.2,1.5-0.3,2.3-0.4l9.9,9.4C257,136.8,256.2,137,255.4,137.1"/>
						<path class="st46" d="M257.7,136.7l-9.9-9.4c0.2,0,0.5,0,0.7,0c0.5,0,1,0,1.4,0l9.9,9.4c-0.5-0.1-1-0.1-1.4,0
							C258.2,136.7,258,136.7,257.7,136.7"/>
						<path class="st47" d="M259.9,136.7l-9.9-9.4c1.1,0.1,2.1,0.4,3,1c0.3,0.1,0.5,0.3,0.7,0.5l9.9,9.4c-0.2-0.2-0.5-0.3-0.7-0.5
							C262,137.2,261,136.9,259.9,136.7"/>
						<path class="st46" d="M263.7,138.2l-9.9-9.4c0.2,0.1,0.4,0.3,0.6,0.5l9.9,9.4C264.1,138.5,263.9,138.3,263.7,138.2"/>
					</g>
				</g>
				<g class="st0">
					<defs>
						<path id="SVGID_65_" class="st0" d="M236.5,147.3l-9.9-9.4c0,0,0,0,0.1,0.1L236.5,147.3C236.6,147.4,236.5,147.4,236.5,147.3z
							"/>
					</defs>
					<clipPath id="SVGID_66_">
						<use xlink:href="#SVGID_65_"  style="overflow:visible;"/>
					</clipPath>
					<g class="st59">
						<path class="st46" d="M236.5,147.3l-9.9-9.4c0,0,0,0,0.1,0L236.5,147.3C236.6,147.4,236.5,147.4,236.5,147.3"/>
						<path class="st47" d="M236.6,147.4l-9.9-9.4c0,0,0,0,0,0L236.6,147.4C236.6,147.4,236.6,147.4,236.6,147.4"/>
					</g>
				</g>
				<g class="st0">
					<defs>
						<path id="SVGID_67_" class="st0" d="M190.3,181.9l-9.9-9.4c6.5-0.2,6.6-0.2,6.6-0.2l9.9,9.4
							C196.9,181.7,196.8,181.7,190.3,181.9z"/>
					</defs>
					<clipPath id="SVGID_68_">
						<use xlink:href="#SVGID_67_"  style="overflow:visible;"/>
					</clipPath>
					<g class="st60">
						<path class="st46" d="M190.3,181.9l-9.9-9.4c6.5-0.2,6.6-0.2,6.6-0.2l9.9,9.4C196.9,181.7,196.8,181.7,190.3,181.9"/>
					</g>
				</g>
				<g class="st0">
					<defs>
						<path id="SVGID_69_" class="st0" d="M226.6,131.2l9.9,9.4c-0.7-0.6-1.8-0.9-3.1-0.9c-2.5,0.1-5.7,1.4-7.7,3.6
							c-1.8,2.2-2,4.6-2.3,6.6c-0.1,0.5-1.4,10.4-8.9,20c-4.4,5.7-11.7,11.3-17.6,11.6l-9.9-9.4c5.9-0.3,13.2-5.9,17.6-11.6
							c7.6-9.7,8.9-19.5,8.9-20c0.3-2,0.4-4.5,2.3-6.6c1.9-2.3,5.1-3.5,7.7-3.6C224.8,130.3,225.9,130.6,226.6,131.2z"/>
					</defs>
					<clipPath id="SVGID_70_">
						<use xlink:href="#SVGID_69_"  style="overflow:visible;"/>
					</clipPath>
					<g class="st61">
						<path class="st46" d="M196.9,181.7l-9.9-9.4c0.1,0,0.3,0,0.4,0l9.9,9.4C197.1,181.7,197,181.7,196.9,181.7"/>
						<path class="st49" d="M197.3,181.6l-9.9-9.4c0.6-0.1,1.2-0.2,1.8-0.3l9.9,9.4C198.5,181.5,197.9,181.6,197.3,181.6"/>
						<path class="st50" d="M199.1,181.3l-9.9-9.4c0.7-0.2,1.4-0.4,2.1-0.7l9.9,9.4C200.5,180.9,199.8,181.2,199.1,181.3"/>
						<path class="st51" d="M201.2,180.7l-9.9-9.4c0.9-0.3,1.7-0.8,2.6-1.2l9.9,9.4C202.9,179.9,202,180.3,201.2,180.7"/>
						<path class="st52" d="M203.8,179.4l-9.9-9.4c1.2-0.7,2.4-1.4,3.5-2.3l9.9,9.4C206.2,178,205,178.8,203.8,179.4"/>
						<path class="st53" d="M207.3,177.1l-9.9-9.4c1.7-1.2,3.2-2.6,4.7-4.1l9.9,9.4C210.5,174.5,209,175.9,207.3,177.1"/>
						<path class="st54" d="M212,173l-9.9-9.4c0.9-0.9,1.8-1.9,2.5-2.9c7.6-9.7,8.9-19.5,8.9-20c0.3-2,0.4-4.5,2.3-6.6
							c0.1-0.1,0.2-0.3,0.4-0.4l9.9,9.4c-0.1,0.1-0.2,0.3-0.4,0.4c-1.8,2.2-2,4.6-2.3,6.6c-0.1,0.5-1.4,10.4-8.9,20
							C213.7,171.1,212.9,172.1,212,173"/>
						<path class="st53" d="M226,143l-9.9-9.4c0.4-0.4,0.7-0.7,1.1-1l9.9,9.4C226.8,142.3,226.4,142.6,226,143"/>
						<path class="st52" d="M227.2,142l-9.9-9.4c0.4-0.3,0.8-0.6,1.2-0.8l9.9,9.4C228,141.4,227.6,141.7,227.2,142"/>
						<path class="st51" d="M228.4,141.2l-9.9-9.4c0.5-0.2,0.9-0.5,1.4-0.7l9.9,9.4C229.3,140.7,228.9,141,228.4,141.2"/>
						<path class="st50" d="M229.8,140.6l-9.9-9.4c0.5-0.2,1-0.4,1.5-0.5l9.9,9.4C230.8,140.2,230.3,140.4,229.8,140.6"/>
						<path class="st49" d="M231.3,140.1l-9.9-9.4c0.5-0.1,1-0.2,1.5-0.3l9.9,9.4C232.3,139.9,231.8,139.9,231.3,140.1"/>
						<path class="st46" d="M232.8,139.8l-9.9-9.4c0.2,0,0.3,0,0.5,0c0.4,0,0.7,0,1,0l9.9,9.4c-0.3,0-0.7,0-1,0
							C233.2,139.8,233,139.8,232.8,139.8"/>
						<path class="st47" d="M234.4,139.8l-9.9-9.4c0.8,0.1,1.5,0.3,1.9,0.7l9.9,9.4C235.8,140.1,235.2,139.9,234.4,139.8"/>
						<path class="st46" d="M236.3,140.5l-9.9-9.4c0.1,0,0.1,0.1,0.2,0.2l9.9,9.4C236.4,140.6,236.4,140.5,236.3,140.5"/>
					</g>
				</g>
				<g class="st0">
					<defs>
						<path id="SVGID_71_" class="st0" d="M182.6,196.7l-9.9-9.4c-0.4-0.4-0.8-0.9-1.2-1.4c-1.2-1.6-1.8-3.2-2.1-4.3l9.9,9.4
							c0.3,1.1,0.9,2.7,2.1,4.3C181.8,195.9,182.2,196.3,182.6,196.7z"/>
					</defs>
					<clipPath id="SVGID_72_">
						<use xlink:href="#SVGID_71_"  style="overflow:visible;"/>
					</clipPath>
					<g class="st62">
						<path class="st54" d="M182.6,196.7l-9.9-9.4c-0.4-0.4-0.8-0.9-1.2-1.4c-1.2-1.6-1.8-3.2-2.1-4.3l9.9,9.4
							c0.3,1.1,0.9,2.7,2.1,4.3C181.8,195.9,182.2,196.3,182.6,196.7"/>
					</g>
				</g>
				<g class="st0">
					<defs>
						<path id="SVGID_73_" class="st0" d="M143.2,176l9.9,9.4c1.1,1,0.3,4.7-0.1,6.5c-0.2,0.9-0.5,1.8,0,2.2l-9.9-9.4
							c-0.4-0.4-0.2-1.3,0-2.2C143.5,180.8,144.3,177.1,143.2,176z"/>
					</defs>
					<clipPath id="SVGID_74_">
						<use xlink:href="#SVGID_73_"  style="overflow:visible;"/>
					</clipPath>
					<g class="st63">
						<path class="st54" d="M153,194.2l-9.9-9.4c-0.4-0.4-0.2-1.3,0-2.2c0.4-1.8,1.2-5.5,0.1-6.5l9.9,9.4c1.1,1,0.3,4.7-0.1,6.5
							C152.8,192.9,152.5,193.8,153,194.2"/>
					</g>
				</g>
				<g class="st0">
					<defs>
						<path id="SVGID_75_" class="st0" d="M208.4,84.4l9.9,9.4c-0.3-0.2-0.5-0.4-0.9-0.6c-0.4-0.2-0.8-0.2-1.3-0.2l-9.9-9.4
							c0.4,0,0.9,0,1.3,0.2C207.8,84,208.1,84.1,208.4,84.4z"/>
					</defs>
					<clipPath id="SVGID_76_">
						<use xlink:href="#SVGID_75_"  style="overflow:visible;"/>
					</clipPath>
					<g class="st64">
						<path class="st46" d="M216.1,93l-9.9-9.4c0.2,0,0.3,0,0.5,0l9.9,9.4C216.5,93,216.3,93,216.1,93"/>
						<path class="st47" d="M216.6,93.1l-9.9-9.4c0.3,0,0.5,0.1,0.8,0.2c0.2,0.1,0.4,0.2,0.6,0.4l9.9,9.4c-0.2-0.1-0.4-0.3-0.6-0.4
							C217.1,93.2,216.9,93.1,216.6,93.1"/>
						<path class="st46" d="M218,93.6l-9.9-9.4c0.1,0.1,0.2,0.1,0.2,0.2l9.9,9.4C218.2,93.8,218.1,93.7,218,93.6"/>
					</g>
				</g>
				<g class="st0">
					<defs>
						<path id="SVGID_77_" class="st0" d="M132.1,185.3l-9.9-9.4c0.3,0.3,0.7,0.6,1.2,0.8c0.7,0.3,1.4,0.4,2,0.4
							c1,0,1.9-0.3,2.4-0.5c8-2.9,15.1-15.2,15.5-15.9c6.1-10.7,9.2-16,11.1-22.3c0.6-2,1.6-5.6,4.4-6.7c0.6-0.2,1.2-0.4,1.8-0.4
							c1.5-0.1,3.1,0.5,4,1.4l9.9,9.4c-0.9-0.9-2.5-1.4-4-1.4c-0.6,0-1.3,0.1-1.8,0.4c-2.8,1.1-3.8,4.8-4.4,6.7
							c-1.9,6.3-5,11.6-11.1,22.3c-0.4,0.7-7.5,13-15.5,15.9c-0.5,0.2-1.4,0.5-2.4,0.5c-0.6,0-1.3-0.1-2-0.4
							C132.9,185.9,132.5,185.6,132.1,185.3z"/>
					</defs>
					<clipPath id="SVGID_78_">
						<use xlink:href="#SVGID_77_"  style="overflow:visible;"/>
					</clipPath>
					<g class="st65">
						<path class="st46" d="M132.1,185.3l-9.9-9.4c0.1,0.1,0.2,0.2,0.4,0.3l9.9,9.4C132.4,185.5,132.3,185.4,132.1,185.3"/>
						<path class="st47" d="M132.5,185.6l-9.9-9.4c0.3,0.2,0.5,0.4,0.9,0.5c0.4,0.2,0.9,0.3,1.3,0.3l9.9,9.4c-0.4,0-0.9-0.1-1.3-0.3
							C133,185.9,132.7,185.8,132.5,185.6"/>
						<path class="st46" d="M134.6,186.4l-9.9-9.4c0.2,0,0.5,0,0.7,0c0.1,0,0.2,0,0.3,0l9.9,9.4c-0.1,0-0.2,0-0.3,0
							C135.1,186.5,134.9,186.5,134.6,186.4"/>
						<path class="st49" d="M135.7,186.4l-9.9-9.4c0.4,0,0.7-0.1,1-0.2l9.9,9.4C136.4,186.3,136.1,186.4,135.7,186.4"/>
						<path class="st50" d="M136.7,186.3l-9.9-9.4c0.4-0.1,0.8-0.2,1-0.3c0.1,0,0.3-0.1,0.4-0.1l9.9,9.4c-0.1,0.1-0.3,0.1-0.4,0.1
							C137.5,186,137.1,186.1,136.7,186.3"/>
						<path class="st51" d="M138.1,185.8l-9.9-9.4c0.5-0.2,1.1-0.5,1.6-0.8l9.9,9.4C139.2,185.3,138.7,185.6,138.1,185.8"/>
						<path class="st52" d="M139.7,185l-9.9-9.4c0.7-0.4,1.5-0.9,2.2-1.4l9.9,9.4C141.2,184.1,140.5,184.6,139.7,185"/>
						<path class="st53" d="M141.9,183.6l-9.9-9.4c1.2-0.9,2.4-2,3.6-3.2l9.9,9.4C144.4,181.6,143.2,182.6,141.9,183.6"/>
						<path class="st54" d="M145.5,180.4l-9.9-9.4c4.4-4.5,7.5-9.9,7.7-10.4c6.1-10.7,9.2-16,11.1-22.3c0.5-1.5,1.2-3.9,2.7-5.5
							l9.9,9.4c-1.5,1.6-2.2,4-2.7,5.5c-1.9,6.3-5,11.6-11.1,22.3C153,170.5,149.8,175.9,145.5,180.4"/>
						<path class="st53" d="M167,142.2l-9.9-9.4c0.2-0.2,0.4-0.4,0.7-0.6l9.9,9.4C167.5,141.8,167.2,142,167,142.2"/>
						<path class="st52" d="M167.7,141.6l-9.9-9.4c0.2-0.1,0.4-0.3,0.6-0.4l9.9,9.4C168.1,141.4,167.9,141.5,167.7,141.6"/>
						<path class="st51" d="M168.3,141.2l-9.9-9.4c0.2-0.1,0.3-0.2,0.5-0.2c0,0,0,0,0,0l9.9,9.4c0,0,0,0,0,0
							C168.6,141.1,168.4,141.2,168.3,141.2"/>
						<path class="st50" d="M168.8,141l-9.9-9.4c0.2-0.1,0.4-0.1,0.6-0.2l9.9,9.4C169.2,140.8,169,140.9,168.8,141"/>
						<path class="st49" d="M169.5,140.8l-9.9-9.4c0.3-0.1,0.5-0.1,0.8-0.1l9.9,9.4C170,140.7,169.7,140.7,169.5,140.8"/>
						<path class="st46" d="M170.3,140.6l-9.9-9.4c0.1,0,0.2,0,0.4,0c0.3,0,0.6,0,0.9,0l9.9,9.4c-0.3,0-0.6,0-0.9,0
							C170.5,140.6,170.4,140.6,170.3,140.6"/>
						<path class="st47" d="M171.5,140.7l-9.9-9.4c1.1,0.1,2.1,0.5,2.8,1.1l9.9,9.4C173.6,141.1,172.6,140.8,171.5,140.7"/>
						<path class="st46" d="M174.3,141.7l-9.9-9.4c0.1,0.1,0.2,0.2,0.3,0.3l9.9,9.4C174.5,141.9,174.4,141.8,174.3,141.7"/>
					</g>
				</g>
				<g class="st0">
					<defs>
						<path id="SVGID_79_" class="st0" d="M164.6,183.5l-9.9-9.4c1.1,1.1,3,1.4,4.7,1.4c0.4,0,0.9-0.1,1.3-0.1
							c2.1-0.4,3.5-1.5,4.4-2.3c2.9-2.5,4.1-5.7,4.4-6.7c3.1-9,6-22.3,9-31c3.5-10.1,5.6-9.7,11.2-24.5c1.4-3.7,3.1-7.4,4.5-11.1
							c2.5-7,3.1-10.6,6.7-13.4c1.1-0.8,3.3-2.6,5.3-2.6l9.9,9.4c-2,0.1-4.2,1.8-5.3,2.6c-3.6,2.7-4.2,6.4-6.7,13.4
							c-1.3,3.8-3.1,7.4-4.5,11.1c-5.6,14.8-7.7,14.4-11.2,24.5c-3,8.7-5.9,22-9,31c-0.4,1-1.5,4.2-4.4,6.7c-0.9,0.8-2.3,2-4.4,2.3
							c-0.4,0.1-0.8,0.1-1.3,0.1C167.6,185,165.7,184.6,164.6,183.5z"/>
					</defs>
					<clipPath id="SVGID_80_">
						<use xlink:href="#SVGID_79_"  style="overflow:visible;"/>
					</clipPath>
					<g class="st66">
						<path class="st46" d="M164.6,183.5l-9.9-9.4c0.1,0.1,0.2,0.2,0.3,0.3l9.9,9.4C164.8,183.7,164.7,183.6,164.6,183.5"/>
						<path class="st47" d="M164.9,183.8l-9.9-9.4c0.8,0.6,1.9,1,3,1.1l9.9,9.4C166.8,184.7,165.7,184.4,164.9,183.8"/>
						<path class="st46" d="M167.9,184.9l-9.9-9.4c0.5,0,0.9,0.1,1.4,0c0.2,0,0.4,0,0.6,0l9.9,9.4c-0.2,0-0.4,0-0.6,0
							C168.8,184.9,168.4,184.9,167.9,184.9"/>
						<path class="st49" d="M169.9,184.9l-9.9-9.4c0.2,0,0.5-0.1,0.7-0.1c0.2,0,0.3-0.1,0.5-0.1l9.9,9.4c-0.2,0-0.3,0.1-0.5,0.1
							C170.3,184.8,170.1,184.9,169.9,184.9"/>
						<path class="st50" d="M171.1,184.7l-9.9-9.4c0.3-0.1,0.6-0.2,0.9-0.3l9.9,9.4C171.7,184.5,171.4,184.6,171.1,184.7"/>
						<path class="st51" d="M172,184.4l-9.9-9.4c0.3-0.1,0.6-0.3,0.9-0.4l9.9,9.4C172.6,184.1,172.3,184.3,172,184.4"/>
						<path class="st52" d="M172.9,184l-9.9-9.4c0.4-0.2,0.8-0.5,1.1-0.7l9.9,9.4C173.7,183.5,173.3,183.7,172.9,184"/>
						<path class="st53" d="M174,183.2l-9.9-9.4c0.4-0.3,0.7-0.6,1-0.8c0.3-0.3,0.6-0.6,0.9-0.9l9.9,9.4c-0.3,0.3-0.6,0.6-0.9,0.9
							C174.7,182.7,174.4,183,174,183.2"/>
						<path class="st54" d="M175.9,181.6l-9.9-9.4c2.3-2.4,3.2-5,3.5-5.9c3.1-9,6-22.3,9-31c3.5-10.1,5.6-9.7,11.2-24.5
							c1.4-3.7,3.1-7.4,4.5-11.1c2.2-6.1,2.9-9.7,5.5-12.3l9.9,9.4c-2.5,2.6-3.3,6.2-5.5,12.3c-1.3,3.8-3.1,7.4-4.5,11.1
							c-5.6,14.8-7.7,14.4-11.2,24.5c-3,8.7-5.9,22-9,31C179.1,176.6,178.2,179.2,175.9,181.6"/>
						<path class="st53" d="M209.6,96.8l-9.9-9.4c0.4-0.4,0.8-0.7,1.2-1.1c0.2-0.1,0.3-0.3,0.5-0.4l9.9,9.4
							c-0.2,0.1-0.4,0.3-0.5,0.4C210.4,96,209.9,96.4,209.6,96.8"/>
						<path class="st52" d="M211.3,95.3l-9.9-9.4c0.5-0.4,1.2-0.9,2-1.3l9.9,9.4C212.6,94.4,211.9,94.9,211.3,95.3"/>
						<path class="st51" d="M213.3,94l-9.9-9.4c0.4-0.2,0.7-0.4,1.1-0.5l9.9,9.4C214,93.6,213.7,93.8,213.3,94"/>
						<path class="st50" d="M214.4,93.4l-9.9-9.4c0.3-0.1,0.5-0.2,0.8-0.3l9.9,9.4C215,93.2,214.7,93.3,214.4,93.4"/>
						<path class="st49" d="M215.2,93.2l-9.9-9.4c0.2-0.1,0.5-0.1,0.7-0.1l9.9,9.4C215.7,93.1,215.5,93.1,215.2,93.2"/>
						<path class="st46" d="M215.9,93.1l-9.9-9.4c0.1,0,0.2,0,0.2,0l9.9,9.4C216.1,93,216,93.1,215.9,93.1"/>
					</g>
				</g>
				<g class="st0">
					<defs>
						<path id="SVGID_81_" class="st0" d="M137.8,142.3l-9.9-9.4c1.3-0.8,2.4-1,3.3-1c1.3,0,2.6,0.3,3.5,0.6l9.9,9.4
							c-1-0.3-2.2-0.7-3.5-0.6C140.2,141.3,139.1,141.5,137.8,142.3z"/>
					</defs>
					<clipPath id="SVGID_82_">
						<use xlink:href="#SVGID_81_"  style="overflow:visible;"/>
					</clipPath>
					<g class="st67">
						<path class="st52" d="M137.8,142.3l-9.9-9.4c0.1,0,0.1-0.1,0.2-0.1l9.9,9.4C137.9,142.2,137.9,142.2,137.8,142.3"/>
						<path class="st51" d="M138,142.2l-9.9-9.4c0.4-0.2,0.7-0.4,1-0.5l9.9,9.4C138.7,141.8,138.3,142,138,142.2"/>
						<path class="st50" d="M139,141.7l-9.9-9.4c0.3-0.1,0.6-0.2,0.8-0.3l9.9,9.4C139.6,141.5,139.3,141.6,139,141.7"/>
						<path class="st49" d="M139.9,141.4L130,132c0.3-0.1,0.6-0.1,0.9-0.2l9.9,9.4C140.5,141.3,140.2,141.3,139.9,141.4"/>
						<path class="st46" d="M140.8,141.3l-9.9-9.4c0.1,0,0.3,0,0.4,0c0.4,0,0.8,0,1.1,0l9.9,9.4c-0.4,0-0.7-0.1-1.1,0
							C141,141.2,140.9,141.2,140.8,141.3"/>
						<path class="st47" d="M142.3,141.3l-9.9-9.4c0.9,0.1,1.7,0.3,2.4,0.6l9.9,9.4C144,141.6,143.2,141.4,142.3,141.3"/>
					</g>
				</g>
				<g class="st0">
					<defs>
						<path id="SVGID_83_" class="st0" d="M123.5,196.5l-9.9-9.4c-2.2-2.1-3-4.5-3.3-5.6c-1.4-4.5-0.2-8.9,2.3-17.6
							c0.6-1.9,1.2-4,2.3-6.6c1.2-3,1.8-3.6,4.5-8.9c2.9-5.8,4.4-8.7,4.5-8.9c0.4-1.4,1.4-4.8,4.1-6.5l9.9,9.4
							c-2.7,1.7-3.7,5.2-4.1,6.5c-0.1,0.2-1.5,3.1-4.5,8.9c-2.7,5.4-3.2,5.9-4.5,8.9c-1.1,2.7-1.7,4.7-2.3,6.6
							c-2.5,8.8-3.8,13.1-2.3,17.6C120.5,192,121.3,194.4,123.5,196.5z"/>
					</defs>
					<clipPath id="SVGID_84_">
						<use xlink:href="#SVGID_83_"  style="overflow:visible;"/>
					</clipPath>
					<g class="st68">
						<path class="st54" d="M123.5,196.5l-9.9-9.4c-2.2-2.1-3-4.5-3.3-5.6c-1.4-4.5-0.2-8.9,2.3-17.6c0.6-1.9,1.2-4,2.3-6.6
							c1.2-3,1.8-3.6,4.5-8.9c2.9-5.8,4.4-8.7,4.5-8.9c0.4-1.1,1.1-3.7,2.8-5.5l9.9,9.4c-1.8,1.8-2.5,4.3-2.8,5.5
							c-0.1,0.2-1.5,3.1-4.5,8.9c-2.7,5.4-3.2,5.9-4.5,8.9c-1.1,2.7-1.7,4.7-2.3,6.6c-2.5,8.8-3.8,13.1-2.3,17.6
							C120.5,192,121.3,194.4,123.5,196.5"/>
						<path class="st53" d="M136.5,143.3l-9.9-9.4c0.3-0.3,0.6-0.5,0.9-0.8l9.9,9.4C137.1,142.8,136.8,143,136.5,143.3"/>
						<path class="st52" d="M137.4,142.5l-9.9-9.4c0.1-0.1,0.3-0.2,0.4-0.3l9.9,9.4C137.7,142.3,137.6,142.4,137.4,142.5"/>
					</g>
				</g>
				<g>
					<path class="st69" d="M216.1,93c0.4,0,0.9,0,1.3,0.2c4.2,1.7,2.3,13.7,2,15.3c-0.9,5.4-2.9,8.2-6.7,17.8
						c-2.7,6.7-4.9,11.6-6.7,15.6c-7.7,17-11.3,23-13.4,31.2c-1.1,3.8-1.9,6.9-2.3,8.9c6.5-0.2,6.6-0.2,6.6-0.2
						c5.9-0.3,13.2-5.9,17.6-11.6c7.6-9.7,8.9-19.5,8.9-20c0.3-2,0.4-4.5,2.3-6.6c1.9-2.3,5.1-3.5,7.7-3.6c1.5-0.1,2.7,0.3,3.3,1
						c1.6,1.9-1.2,5.8-0.1,6.6c2,0.1,5.4-4,11-7c2.3-1.3,6.8-3.6,10.9-3.7c1.6-0.1,3.1,0.2,4.5,1c5,2.9,4.8,11.4,4.2,15.2
						c-0.5,2.9-1.5,5.2-2.3,6.7c-0.5,1.1-2.4,4.8-6.6,9c-5.1,5.1-8.4,5.5-13.2,11.4c-2.3,2.8-2.5,3.8-2.2,4.5c0.3,0.7,1.4,1,2.8,1
						c1.2,0,2.7-0.4,3.8-1.2c1.1-0.7,1.1-1.3,2.2-2.3c2.1-1.9,3.9-1.5,6.6-2.4c3.7-1.3,6.3-4.1,8.8-6.9c1.5-1.6,2.3-2.8,4.4-4.5
						c0.7-0.6,1-0.7,1.3-0.8c0.3,0,0.4,0.4,0.9,0.7c1.6,0.8,2.8,5.4-0.1,11c-5.4,10.2-16.6,13.8-24.2,16.2c-3.2,1-5.7,1.5-7.7,1.6
						c-2.3,0.1-4-0.4-5.4-1.1c-0.9-0.5-3-1.7-4.3-4.2c-2.6-4.9-0.2-10.2,0.1-11c0.1-0.1,10.6-7.4,15.5-18.1c1.2-2.6,1.9-5.1,4.4-6.7
						c3-2,6.1-1,6.6-2.4c0.5-1.3-1.8-3.8-4.3-4.2c-0.3,0-0.5-0.1-0.8,0c-1.5,0.1-3.1,0.9-5.8,2.5c-3.2,1.8-4.9,2.7-6.6,4.6
						c-2.2,2.4-2,3.5-4.4,6.7c-1.6,2.1-3.3,3.6-4.4,4.5c-0.2,0.8-25.7,66.3-31.3,66.9c-0.2,0-0.3,0-0.5,0c-0.4,0-0.7,0-0.7,0
						c-0.7,0-3.3-0.2-5.4-2c-3-2.6-3.3-7.5-2.1-8.7c0.3-0.3,1.3-1.2,2.2-2.3c2.8-3.2,4.4-6.6,4.4-6.7c1.9-4.1,0.6-4.6,2.3-8.8
						c1.7-4.5,5.1-9.1,6.7-11.2c0.2-0.3,1.5-2,2.2-4.5c0.3-1,1.1-3.6,0-4.4c-0.3-0.2-0.6-0.2-0.9-0.2c-0.5,0-1.1,0.2-1.3,0.3
						c-2.1,0.8-2.1,2.5-4.4,4.5c-0.6,0.5-2.2,1.8-4.4,2.3c-0.5,0.1-0.8,0.1-1.2,0.2c-0.5,0-0.9,0-1.2-0.1c-0.4-0.1-0.7-0.1-1-0.1
						c-0.3,0-0.6,0.1-1,0.2c-2.3,0.9-1.9,3-4.4,4.5c-1,0.6-2.2,0.9-3.3,1c-1.2,0-2.3-0.2-3.3-0.7c-0.9-0.5-1.5-1.2-2.2-2.1
						c-1.2-1.6-1.8-3.2-2.1-4.3c-1.5,0.1-2.9,0.1-4.4,0.2c-0.3-0.1-0.7-0.1-1.1-0.1c-0.3,0-0.7,0.1-1.1,0.2c-2.3,0.7-2.3,3-4.4,4.5
						c-1.1,0.8-2.6,1.2-4.2,1.3c-1.6,0.1-3.3-0.3-4.6-1c-1.6-0.8-2.5-2.1-4.2-2c-0.8,0.1-1.3,0.2-1.7,0.3c-0.2,0-0.4,0-0.6-0.2
						c-0.4-0.4-0.2-1.3,0-2.2c0.4-1.8,1.3-5.6,0.1-6.6c-0.2-0.2-0.6-0.2-0.9-0.2c-0.5,0-1,0.2-1.3,0.3c-2.3,0.8-3.4,2.9-4.4,4.5
						c-0.7,1-2.9,4.4-6.6,6.8c-1.1,0.7-4.2,2.7-8.1,2.8c-0.9,0-1.9,0-2.9-0.3c-0.6-0.1-2.5-0.6-4.4-2c-2.9-2.2-3.9-5.2-4.3-6.4
						c-1.4-4.5-0.2-8.9,2.3-17.6c0.6-1.9,1.2-4,2.3-6.6c1.2-3,1.8-3.6,4.5-8.9c2.9-5.8,4.4-8.7,4.5-8.9c0.4-1.4,1.4-4.8,4.1-6.5
						c1.3-0.8,2.4-1,3.3-1c1.3,0,2.6,0.3,3.5,0.6l0,4.4c-0.4,1.4-1.2,3.8-2.3,6.6c-4.2,11.6-6.3,17.3-9,22.2
						c-1.5,2.7-3.5,6.2-2.3,8.9c0.3,0.6,1,1.6,2.2,2.1c0.7,0.3,1.4,0.4,2,0.4c1,0,1.9-0.3,2.4-0.5c8-2.9,15.1-15.2,15.5-15.9
						c6.1-10.7,9.2-16,11.1-22.3c0.6-2,1.6-5.6,4.4-6.7c0.6-0.2,1.2-0.4,1.8-0.4c2-0.1,4.1,0.8,4.7,2.3c0.8,1.7-0.7,3.7-2.3,6.6
						c-1.6,3.1-0.3,1.6-4.5,13.3c-1.8,5.1-2.9,10.4-4.5,15.5c-0.3,1-0.9,2.9,0,4.4c1,1.6,3.2,2.2,5.3,2.1c0.4,0,0.9-0.1,1.3-0.1
						c2.1-0.4,3.5-1.5,4.4-2.3c2.9-2.5,4.1-5.7,4.4-6.7c3.1-9,6-22.3,9-31c3.5-10.1,5.6-9.7,11.2-24.5c1.4-3.7,3.1-7.4,4.5-11.1
						c2.5-7,3.1-10.6,6.7-13.4C211.9,94.8,214.1,93.1,216.1,93z"/>
				</g>
				<g class="st0">
					<defs>
						<path id="SVGID_85_" class="st0" d="M87.1,216.2l-9.9-9.4c0,0,0,0,0,0c-1.4-1.4-0.2-3.8,0.1-11c0.1-3.1-0.1-2.7,0-4.4
							c0.8-9.2,7.1-17.6,6.7-17.8l9.9,9.4c0.3,0.2-6,8.6-6.7,17.8c-0.1,1.7,0.1,1.2,0,4.4C86.9,212.4,85.7,214.8,87.1,216.2
							C87.1,216.2,87.1,216.2,87.1,216.2z"/>
					</defs>
					<clipPath id="SVGID_86_">
						<use xlink:href="#SVGID_85_"  style="overflow:visible;"/>
					</clipPath>
					<g class="st70">
						<path class="st54" d="M87.1,216.2l-9.9-9.4c0,0,0,0,0,0c-1.4-1.4-0.2-3.8,0.1-11c0.1-3.1-0.1-2.7,0-4.4
							c0.8-9.2,7.1-17.6,6.7-17.8l9.9,9.4c0.3,0.2-6,8.6-6.7,17.8c-0.1,1.7,0.1,1.2,0,4.4C86.9,212.4,85.7,214.8,87.1,216.2
							C87.1,216.2,87.1,216.2,87.1,216.2"/>
					</g>
				</g>
				<g class="st0">
					<defs>
						<path id="SVGID_87_" class="st0" d="M53.4,198.9l-9.9-9.4c-0.5-0.4-0.8-0.9-1.1-1.2l9.9,9.4C52.5,198,52.9,198.5,53.4,198.9z"
							/>
					</defs>
					<clipPath id="SVGID_88_">
						<use xlink:href="#SVGID_87_"  style="overflow:visible;"/>
					</clipPath>
					<g class="st71">
						<path class="st54" d="M53.4,198.9l-9.9-9.4c-0.5-0.4-0.8-0.9-1.1-1.2l9.9,9.4C52.5,198,52.9,198.5,53.4,198.9"/>
					</g>
				</g>
				<g class="st0">
					<defs>
						<path id="SVGID_89_" class="st0" d="M60.6,188.2l-9.9-9.4c0.1,0.1,0.3,0.3,0.4,0.4c1.2,0.9,2.8,1.1,4.4,1.1
							c2.9-0.1,5.9-1.2,6.5-1.5c2.2-0.8,3.8-1.9,4.4-2.3c17.1-12.1,21.9-24.2,22.1-24.9c4.1-10.5,6.1-15.7,6.7-20
							c0.1-0.7,0.5-3.1,2.2-4.5c1-0.8,2.1-1.1,3.2-1.1c1.3,0,2.5,0.3,3.4,0.9c0.2,0.1,0.4,0.3,0.6,0.5l9.9,9.4
							c-0.2-0.2-0.4-0.3-0.6-0.5c-0.9-0.6-2.1-1-3.4-0.9c-1.1,0-2.2,0.4-3.2,1.1c-1.8,1.4-2.1,3.7-2.2,4.5c-0.6,4.3-2.7,9.5-6.7,20
							c-0.2,0.6-5,12.8-22.1,24.9c-0.6,0.4-2.2,1.5-4.4,2.3c-0.7,0.2-3.6,1.4-6.5,1.5c-1.6,0.1-3.2-0.2-4.4-1.1
							C60.9,188.5,60.8,188.4,60.6,188.2z"/>
					</defs>
					<clipPath id="SVGID_90_">
						<use xlink:href="#SVGID_89_"  style="overflow:visible;"/>
					</clipPath>
					<g class="st72">
						<path class="st46" d="M60.6,188.2l-9.9-9.4c0.1,0.1,0.2,0.2,0.4,0.3l9.9,9.4C60.9,188.5,60.8,188.3,60.6,188.2"/>
						<path class="st47" d="M61,188.5l-9.9-9.4c0,0,0.1,0,0.1,0.1c0.8,0.6,1.9,0.9,2.9,1l9.9,9.4C62.9,189.5,61.9,189.2,61,188.5
							C61.1,188.6,61,188.6,61,188.5"/>
						<path class="st46" d="M64,189.6l-9.9-9.4c0.5,0.1,1,0.1,1.5,0c0.3,0,0.5,0,0.8-0.1l9.9,9.4c-0.3,0-0.5,0-0.8,0.1
							C65,189.7,64.5,189.7,64,189.6"/>
						<path class="st49" d="M66.3,189.6l-9.9-9.4c1-0.1,1.9-0.3,2.8-0.5l9.9,9.4C68.3,189.4,67.3,189.5,66.3,189.6"/>
						<path class="st50" d="M69.1,189.2l-9.9-9.4c1.4-0.4,2.6-0.8,2.9-0.9c0.1,0,0.2-0.1,0.2-0.1l9.9,9.4c-0.1,0-0.2,0.1-0.2,0.1
							C71.7,188.4,70.5,188.8,69.1,189.2"/>
						<path class="st51" d="M72.3,188.1l-9.9-9.4c0.9-0.4,1.7-0.7,2.3-1.1l9.9,9.4C73.9,187.4,73.2,187.8,72.3,188.1"/>
						<path class="st52" d="M74.6,187l-9.9-9.4c0.9-0.5,1.5-0.9,1.9-1.2c0.7-0.5,1.4-1,2.1-1.5l9.9,9.4c-0.7,0.5-1.4,1-2.1,1.5
							C76.1,186.1,75.4,186.6,74.6,187"/>
						<path class="st53" d="M78.5,184.4l-9.9-9.4c3.8-2.9,7-5.7,9.5-8.4l9.9,9.4C85.5,178.7,82.3,181.5,78.5,184.4"/>
						<path class="st54" d="M88.1,176l-9.9-9.4c7.8-8.1,10.3-14.5,10.5-15c4.1-10.5,6.1-15.7,6.7-20c0.1-0.7,0.4-2.6,1.7-4l9.9,9.4
							c-1.3,1.4-1.6,3.4-1.7,4c-0.6,4.3-2.7,9.5-6.7,20C98.4,161.5,95.9,167.9,88.1,176"/>
						<path class="st53" d="M107,137l-9.9-9.4c0.2-0.2,0.3-0.3,0.5-0.4c0,0,0.1,0,0.1-0.1l9.9,9.4c0,0-0.1,0-0.1,0.1
							C107.4,136.7,107.2,136.8,107,137"/>
						<path class="st52" d="M107.6,136.5l-9.9-9.4c0.2-0.1,0.4-0.3,0.6-0.4l9.9,9.4C108,136.2,107.8,136.4,107.6,136.5"/>
						<path class="st51" d="M108.2,136.1l-9.9-9.4c0.2-0.1,0.4-0.2,0.6-0.3l9.9,9.4C108.6,135.9,108.4,136,108.2,136.1"/>
						<path class="st50" d="M108.9,135.8l-9.9-9.4c0.2-0.1,0.5-0.2,0.7-0.2l9.9,9.4C109.3,135.6,109.1,135.7,108.9,135.8"/>
						<path class="st49" d="M109.6,135.6l-9.9-9.4c0.3-0.1,0.6-0.1,0.8-0.1l9.9,9.4C110.1,135.5,109.8,135.5,109.6,135.6"/>
						<path class="st46" d="M110.4,135.4l-9.9-9.4c0.1,0,0.2,0,0.4,0c0.3,0,0.6,0,0.9,0l9.9,9.4c-0.3,0-0.6,0-0.9,0
							C110.6,135.4,110.5,135.4,110.4,135.4"/>
						<path class="st47" d="M111.6,135.5l-9.9-9.4c0.9,0.1,1.8,0.4,2.5,0.9c0.1,0,0.1,0.1,0.2,0.1l9.9,9.4c-0.1-0.1-0.1-0.1-0.2-0.1
							C113.4,135.9,112.6,135.6,111.6,135.5"/>
						<path class="st46" d="M114.3,136.5l-9.9-9.4c0.1,0.1,0.2,0.2,0.4,0.3l9.9,9.4C114.6,136.7,114.4,136.6,114.3,136.5"/>
					</g>
				</g>
				<g class="st0">
					<defs>
						<path id="SVGID_91_" class="st0" d="M117.9,113.7l-9.9-9.4c-2.8-2.6-1.5-8.6-4.7-11.6l9.9,9.4
							C116.4,105.1,115.2,111,117.9,113.7z"/>
					</defs>
					<clipPath id="SVGID_92_">
						<use xlink:href="#SVGID_91_"  style="overflow:visible;"/>
					</clipPath>
					<g class="st73">
						<path class="st54" d="M117.9,113.7l-9.9-9.4c-2.8-2.6-1.5-8.6-4.7-11.6l9.9,9.4C116.4,105.1,115.2,111,117.9,113.7"/>
					</g>
				</g>
				<g class="st0">
					<defs>
						<path id="SVGID_93_" class="st0" d="M112.4,86.5l9.9,9.4c-2.8-2.7-6.5-4.7-10-5.6c-1.7-0.4-3.5-0.6-5.4-0.6l-9.9-9.4
							c1.9-0.1,3.7,0.1,5.4,0.6C105.9,81.8,109.6,83.8,112.4,86.5z"/>
					</defs>
					<clipPath id="SVGID_94_">
						<use xlink:href="#SVGID_93_"  style="overflow:visible;"/>
					</clipPath>
					<g class="st74">
						<path class="st46" d="M107,89.8l-9.9-9.4c0.9,0,1.9,0,2.8,0.1l9.9,9.4C108.8,89.8,107.9,89.7,107,89.8"/>
						<path class="st47" d="M109.7,89.9l-9.9-9.4c0.9,0.1,1.8,0.3,2.6,0.5c2.8,0.7,5.7,2.1,8.2,4.1l9.9,9.4
							c-2.5-1.9-5.4-3.3-8.2-4.1C111.5,90.1,110.6,90,109.7,89.9"/>
						<path class="st46" d="M120.5,94.4l-9.9-9.4c0.6,0.5,1.2,1,1.8,1.5l9.9,9.4C121.8,95.4,121.2,94.9,120.5,94.4"/>
					</g>
				</g>
				<g>
					<path class="st69" d="M107,89.8c1.9-0.1,3.7,0.1,5.4,0.6c7.5,1.9,15.6,8.8,15.2,17c-0.1,2.9-1.3,5.2-2.3,6.6
						c-1.5,0.6-2.8,0.8-3.8,0.9c-1.3,0-2.2-0.3-2.8-0.6c-4.1-2.4-1.7-10.1-6.5-12.9c-1.1-0.7-4.2-2-4.4-2l-6.6,0.2l-6.6,4.6
						c-2.2,1.5-4.4,3.1-6.6,4.6c-6.4,8.1-17.5,23.7-24.5,42.5c-3,8.2-3.6,14.3-4.6,26.5c-0.4,4.7-0.6,9,2.1,10.9
						c1.2,0.9,2.8,1.1,4.4,1.1c2.9-0.1,5.9-1.2,6.5-1.5c2.2-0.8,3.8-1.9,4.4-2.3c17.1-12.1,21.9-24.2,22.1-24.9
						c4.1-10.5,6.1-15.7,6.7-20c0.1-0.7,0.5-3.1,2.2-4.5c1-0.8,2.1-1.1,3.2-1.1c1.3,0,2.5,0.3,3.4,0.9c2.9,2,2.3,6.7,2.1,8.7
						c-0.3,2.4-1,3.9-2.3,6.6c-0.9,2.1-3.1,7-4.5,11.1c-2.5,7.2-1.6,9.1-4.5,15.5c-0.9,1.9-0.9,1.7-2.2,4.5
						c-0.1,0.3-2.8,5.9-4.5,11.1c-4,12.2-0.2,19-4.6,22.1c-1,0.7-2.3,1.1-3.6,1.1c-1.2,0-2.4-0.3-3-0.9c-1.4-1.4-0.2-3.8,0.1-11
						c0.1-3.1-0.1-2.7,0-4.4c0.8-9.2,7.1-17.6,6.7-17.8c-0.2,0-0.3,0-0.6,0c-0.7,0-1.3,0.1-1.9,0.1c-1.1,0-1.8,0-1.9,0
						c-2.2,2.2-2.2,2.3-2.2,2.3c-2.2,2.3-3.8,5.5-4.4,6.7c-3.6,6.4-12,8.9-13.2,9.2c-0.2,0.1-2.7,0.8-5.8,0.9
						c-1.6,0.1-3.4-0.1-5.1-0.5c-0.9-0.3-2.6-0.7-4.4-2c-1-0.7-1.7-1.5-2.2-2.1c-4.9-18.4-3.3-33.3-1.8-41.6
						c5.4-29.1,24.4-53.5,44.4-62.9C99.4,91,103.4,89.9,107,89.8z"/>
				</g>
				<g class="st0">
					<defs>
						<path id="SVGID_95_" class="st0" d="M52.2,197.7l-9.9-9.4c-4.9-18.4-3.3-33.3-1.8-41.6c5.4-29.1,24.4-53.5,44.4-62.9
							c4.6-2.2,8.6-3.2,12.2-3.4l9.9,9.4c-3.6,0.1-7.5,1.2-12.2,3.4c-20,9.5-39,33.8-44.4,62.9C48.9,164.4,47.3,179.3,52.2,197.7z"
							/>
					</defs>
					<clipPath id="SVGID_96_">
						<use xlink:href="#SVGID_95_"  style="overflow:visible;"/>
					</clipPath>
					<g class="st75">
						<path class="st54" d="M52.2,197.7l-9.9-9.4c-4.9-18.4-3.3-33.3-1.8-41.6c3.5-19.2,13-36.2,24.7-48.4l9.9,9.4
							c-11.7,12.1-21.1,29.2-24.7,48.4C48.9,164.4,47.3,179.3,52.2,197.7"/>
						<path class="st53" d="M75.1,107.7l-9.9-9.4c3-3.1,6.1-5.8,9.3-8.2l9.9,9.4C81.2,101.9,78.1,104.6,75.1,107.7"/>
						<path class="st52" d="M84.4,99.5L74.5,90c2.4-1.8,4.8-3.4,7.3-4.8l9.9,9.4C89.3,96.1,86.8,97.7,84.4,99.5"/>
						<path class="st51" d="M91.7,94.7l-9.9-9.4c1-0.6,2.1-1.1,3.1-1.6c1-0.5,1.9-0.9,2.8-1.2l9.9,9.4c-0.9,0.4-1.9,0.8-2.8,1.2
							C93.8,93.6,92.7,94.2,91.7,94.7"/>
						<path class="st50" d="M97.7,91.9l-9.9-9.4c1.5-0.6,3-1.1,4.3-1.4l9.9,9.4C100.6,90.8,99.2,91.3,97.7,91.9"/>
						<path class="st49" d="M102,90.5l-9.9-9.4c1.3-0.3,2.5-0.5,3.7-0.6l9.9,9.4C104.5,90,103.3,90.2,102,90.5"/>
						<path class="st46" d="M105.7,89.9l-9.9-9.4c0.4,0,0.8-0.1,1.3-0.1l9.9,9.4C106.5,89.8,106.1,89.8,105.7,89.9"/>
					</g>
				</g>
			</g>
		</g>
	</g>
</g>
</svg>
