<?xml version="1.0" encoding="utf-8"?>
<!-- Generator: Adobe Illustrator 23.0.6, SVG Export Plug-In . SVG Version: 6.00 Build 0)  -->
<svg version="1.1" id="htnk_x5F_bg" xmlns="http://www.w3.org/2000/svg" xmlns:xlink="http://www.w3.org/1999/xlink" x="0px"
	 y="0px" viewBox="0 0 300 300" style="enable-background:new 0 0 300 300;" xml:space="preserve">
<style type="text/css">
	.st0{enable-background:new    ;}
	.st1{fill:#804000;}
	.st2{fill:#B65B00;}
	.st3{fill:#B25900;}
	.st4{fill:#D76C00;}
	.st5{fill:#894500;}
	.st6{fill:#A85400;}
	.st7{fill:#844200;}
	.st8{fill:#9C4E00;}
	.st9{fill:#A9A9A9;}
	.st10{fill:#808080;}
	.st11{fill:#DCDCDC;}
	.st12{clip-path:url(#SVGID_2_);enable-background:new    ;}
	.st13{fill:#A3A3A3;}
</style>
<g>
	<g class="st0">
		<g>
			<polygon class="st1" points="260.4,208.7 249.6,195.5 249.7,188.3 260.6,201.5 			"/>
		</g>
		<g>
			<polygon class="st2" points="227.4,210.5 216.6,197.2 249.6,195.5 260.4,208.7 			"/>
		</g>
		<g>
			<polygon class="st2" points="208.2,211.5 197.3,198.2 206.5,197.7 217.3,211 			"/>
		</g>
		<g>
			<polygon class="st3" points="274.3,147.5 263.4,134.3 266.2,135.9 277,149.2 			"/>
		</g>
		<g>
			<polygon class="st2" points="189.8,212.4 179,199.2 188.1,198.7 199,211.9 			"/>
		</g>
		<g>
			<polygon class="st1" points="236.7,202.7 225.9,189.5 226.5,149.7 237.4,163 			"/>
		</g>
		<g>
			<polygon class="st2" points="171.5,213.4 160.6,200.2 168.9,199.7 179.7,213 			"/>
		</g>
		<g>
			<polygon class="st1" points="217.3,211 206.5,197.7 207.2,150.8 218.1,164 			"/>
		</g>
		<g>
			<polygon class="st1" points="199,211.9 188.1,198.7 197.9,162.1 208.7,175.3 			"/>
		</g>
		<g>
			<polygon class="st2" points="142.1,214.9 131.3,201.7 140.4,201.2 151.3,214.4 			"/>
		</g>
		<g>
			<polygon class="st1" points="179.7,213 168.9,199.7 169.5,162.7 180.3,175.9 			"/>
		</g>
		<g>
			<polygon class="st1" points="194.6,197.7 183.8,184.5 175.1,152.4 186,165.7 			"/>
		</g>
		<g>
			<polygon class="st2" points="118.2,216.2 107.4,202.9 109.2,202.8 120.1,216.1 			"/>
		</g>
		<g>
			<polygon class="st2" points="114.6,216.4 103.7,203.1 107.4,202.9 118.2,216.2 			"/>
		</g>
		<g>
			<polygon class="st2" points="110.9,216.6 100.1,203.3 103.7,203.1 114.6,216.4 			"/>
		</g>
		<g>
			<polygon class="st1" points="166.6,173.9 155.8,160.7 155.9,153.4 166.7,166.7 			"/>
		</g>
		<g>
			<polygon class="st1" points="151.3,214.4 140.4,201.2 141.1,161.4 151.9,174.7 			"/>
		</g>
		<g>
			<polygon class="st2" points="151.9,174.7 141.1,161.4 155.8,160.7 166.6,173.9 			"/>
		</g>
		<g>
			<polygon class="st2" points="61,239.9 50.2,226.7 202.5,218.7 213.3,232 			"/>
		</g>
		<g>
			<polygon class="st2" points="59.2,239.1 48.4,225.9 50.2,226.7 61,239.9 			"/>
		</g>
		<g>
			<polygon class="st2" points="57.4,238.3 46.5,225.1 48.4,225.9 59.2,239.1 			"/>
		</g>
		<g>
			<polygon class="st2" points="81.5,218.1 70.7,204.9 79.9,204.4 90.7,217.6 			"/>
		</g>
		<g>
			<polygon class="st2" points="129,176.8 118.1,163.6 131.9,162.8 142.7,176.1 			"/>
		</g>
		<g>
			<polygon class="st1" points="63.9,233.5 53,220.2 51.2,217.6 62.1,230.9 			"/>
		</g>
		<g>
			<polygon class="st1" points="90.7,217.6 79.9,204.4 80.2,183.6 91.1,196.8 			"/>
		</g>
		<g>
			<polygon class="st1" points="120.1,216.1 109.2,202.8 110,155.9 120.8,169.1 			"/>
		</g>
		<g>
			<polygon class="st2" points="91.1,196.8 80.2,183.6 100.4,182.5 111.2,195.8 			"/>
		</g>
		<g>
			<polygon class="st1" points="91.2,189.6 80.3,176.4 80.6,157.4 91.5,170.6 			"/>
		</g>
		<g>
			<polygon class="st2" points="82.5,157.6 71.7,144.3 263.4,134.3 274.3,147.5 			"/>
		</g>
		<g>
			<polygon class="st2" points="140.2,106.7 129.3,93.4 204.6,89.5 215.4,102.7 			"/>
		</g>
		<g>
			<polygon class="st1" points="62.1,230.9 51.2,217.6 52.4,148 63.2,161.3 			"/>
		</g>
		<g>
			<path class="st4" d="M274.3,147.5l2.7,1.7l-1.1,70.5l-2.8,2.9l-209.2,11l-1.8-2.6l1.1-69.6l1.9-2.8l17.4-0.9L274.3,147.5z
				 M217.3,211l0.8-47l-14.7,0.8l-8.8,33l-8.6-32.1l-13.8,0.7l-0.8,47l8.3-0.4l0.6-37l9.5,36.5l9.2-0.5l9.8-36.6l-0.6,36.1
				L217.3,211 M120.1,216.1l0.8-47l-9.2,0.5l-0.3,19l-20.2,1.1l0.3-19c-0.1,0-1.8,0.1-5.5,0.3l-3.7,0.2l-0.8,47l9.2-0.5l0.3-20.8
				l20.2-1.1l-0.3,20.8l3.7-0.2l3.7-0.2L120.1,216.1 M166.6,173.9l0.1-7.2l-37.6,2l-0.1,8.1l13.8-0.7l-0.6,38.9l9.2-0.5l0.6-39.8
				L166.6,173.9 M260.4,208.7l0.1-7.2l-23.9,1.3l0.6-39.8l-9.2,0.5l-0.8,47L260.4,208.7"/>
		</g>
		<g>
			<polygon class="st2" points="65.1,158.5 54.3,145.2 71.7,144.3 82.5,157.6 			"/>
		</g>
		<g>
			<polygon class="st5" points="63.2,161.3 52.4,148 54.3,145.2 65.1,158.5 			"/>
		</g>
		<g>
			<polygon class="st6" points="161.6,31.5 150.7,18.3 204.9,70.5 215.7,83.8 			"/>
		</g>
		<g>
			<polygon class="st2" points="154.3,31.9 143.4,18.7 150.7,18.3 161.6,31.5 			"/>
		</g>
		<g>
			<polygon class="st1" points="153.3,92.4 142.4,79.2 143.4,18.7 154.3,31.9 			"/>
		</g>
		<g>
			<polygon class="st4" points="161.6,31.5 215.7,83.8 215.6,89.2 153.3,92.4 154.3,31.9 			"/>
		</g>
		<g>
			<polygon class="st1" points="33.8,276.6 23,263.3 26.8,32 37.6,45.2 			"/>
		</g>
		<g>
			<polygon class="st2" points="45.1,37.6 34.2,24.4 130.6,19.3 141.4,32.6 			"/>
		</g>
		<g>
			<polygon class="st2" points="43.2,37.7 32.4,24.5 34.2,24.4 45.1,37.6 			"/>
		</g>
		<g>
			<polygon class="st7" points="37.6,45.2 26.8,32 29.6,26.4 40.5,39.7 			"/>
		</g>
		<g>
			<polygon class="st4" points="141.4,32.6 140.2,106.7 215.4,102.7 214.7,144.3 61.5,152.3 60.6,152.4 57.8,155.2 56.9,156.2 
				56.9,157.1 55.6,234.8 57.4,238.3 59.2,239.1 61,239.9 213.3,232 212.8,265.4 207.2,272.9 198.9,273.3 39.3,281.7 33.8,276.6 
				37.6,45.2 40.5,39.7 43.2,37.7 45.1,37.6 			"/>
		</g>
		<g>
			<polygon class="st8" points="40.5,39.7 29.6,26.4 32.4,24.5 43.2,37.7 			"/>
		</g>
	</g>
	<g id="html_x5F_title">
		<g>
			<g class="st0">
				<g>
					<polygon class="st9" points="246.2,212.3 236.3,202.8 260.2,202 270.2,211.5 					"/>
				</g>
				<g>
					<polygon class="st10" points="236.9,220 227,210.5 227.4,162.6 237.3,172 					"/>
				</g>
				<g>
					<polygon class="st9" points="237.3,172 227.4,162.6 236.6,162.2 246.6,171.7 					"/>
				</g>
				<g>
					<polygon class="st11" points="246.6,171.7 246.2,212.3 270.2,211.5 270.1,218.9 236.9,220 237.3,172 					"/>
				</g>
			</g>
			<g class="st0">
				<g>
					<polygon class="st10" points="217.5,220.7 207.6,211.2 208,174.3 217.9,183.8 					"/>
				</g>
				<g>
					<polygon class="st10" points="203.9,206.4 193.9,196.9 202.5,163.4 212.5,172.9 					"/>
				</g>
				<g>
					<polygon class="st9" points="212.5,172.9 202.5,163.4 217.3,162.9 227.2,172.4 					"/>
				</g>
				<g>
					<polygon class="st10" points="199.1,221.3 189.2,211.9 179.4,174.4 189.3,183.8 					"/>
				</g>
				<g>
					<polygon class="st9" points="181.1,174 171.2,164.5 185,164 194.9,173.5 					"/>
				</g>
				<g>
					<polygon class="st10" points="180.7,222 170.8,212.5 171.2,164.5 181.1,174 					"/>
				</g>
				<g>
					<polygon class="st11" points="227.2,172.4 226.8,220.4 217.5,220.7 217.9,183.8 208.3,221 199.1,221.3 189.3,183.8 189,221.7 
						180.7,222 181.1,174 194.9,173.5 203.9,206.4 212.5,172.9 					"/>
				</g>
			</g>
			<g class="st0">
				<g>
					<polygon class="st10" points="151.2,223 141.3,213.5 141.6,173.9 151.6,183.3 					"/>
				</g>
				<g>
					<polygon class="st10" points="137.7,183.8 127.8,174.3 127.9,166 137.8,175.5 					"/>
				</g>
				<g>
					<polygon class="st9" points="137.8,175.5 127.9,166 165.7,164.7 175.6,174.2 					"/>
				</g>
				<g>
					<polygon class="st11" points="175.6,174.2 175.5,181.6 160.8,182.1 160.4,222.7 151.2,223 151.6,183.3 137.7,183.8 
						137.8,175.5 					"/>
				</g>
			</g>
			<g class="st0">
				<g>
					<polygon class="st10" points="119.8,224.1 109.9,214.6 110.1,193.4 120,202.9 					"/>
				</g>
				<g>
					<polygon class="st10" points="120.1,195.5 110.2,186 110.4,166.6 120.3,176.1 					"/>
				</g>
				<g>
					<polygon class="st9" points="120.3,176.1 110.4,166.6 119.6,166.3 129.5,175.8 					"/>
				</g>
				<g>
					<polygon class="st9" points="99.8,196.2 89.9,186.7 110.2,186 120.1,195.5 					"/>
				</g>
				<g class="st0">
					<defs>
						<path id="SVGID_1_" class="st0" d="M94.5,177l-9.9-9.5c3.7-0.1,5.4-0.2,5.5-0.2l9.9,9.5C99.9,176.8,98.2,176.9,94.5,177z"/>
					</defs>
					<clipPath id="SVGID_2_">
						<use xlink:href="#SVGID_1_"  style="overflow:visible;"/>
					</clipPath>
					<g class="st12">
						<path class="st13" d="M94.5,177l-9.9-9.5c3.7-0.1,5.4-0.2,5.5-0.2l9.9,9.5C99.9,176.8,98.2,176.9,94.5,177"/>
					</g>
				</g>
				<g>
					<polygon class="st9" points="90.8,177.1 80.9,167.7 84.6,167.5 94.5,177 					"/>
				</g>
				<g>
					<polygon class="st10" points="90.4,225.1 80.4,215.7 80.9,167.7 90.8,177.1 					"/>
				</g>
				<g>
					<path class="st11" d="M129.5,175.8l-0.4,48l-1.8,0.1l-3.7,0.1l-3.7,0.1l0.2-21.2l-20.3,0.7l-0.2,21.2l-9.2,0.3l0.4-48l3.7-0.1
						c3.7-0.1,5.4-0.2,5.5-0.2l-0.2,19.4l20.3-0.7l0.2-19.4L129.5,175.8z"/>
				</g>
			</g>
		</g>
	</g>
</g>
</svg>
