<?xml version="1.0" encoding="utf-8"?>
<!-- Generator: Adobe Illustrator 23.0.6, SVG Export Plug-In . SVG Version: 6.00 Build 0)  -->
<svg version="1.1" id="js_x5F_icon" xmlns="http://www.w3.org/2000/svg" xmlns:xlink="http://www.w3.org/1999/xlink" x="0px"
	 y="0px" viewBox="0 0 300 300" style="enable-background:new 0 0 300 300;" xml:space="preserve">
<style type="text/css">
	.st0{enable-background:new    ;}
	.st1{fill:#8B4600;}
	.st2{fill:#804000;}
	.st3{fill:#A95500;}
	.st4{fill:#A35200;}
	.st5{fill:#A45300;}
	.st6{clip-path:url(#SVGID_2_);enable-background:new    ;}
	.st7{fill:#8A4500;}
	.st8{fill:#AB5600;}
	.st9{fill:#8C4600;}
	.st10{fill:#A75400;}
	.st11{clip-path:url(#SVGID_4_);enable-background:new    ;}
	.st12{fill:#854300;}
	.st13{fill:#A45200;}
	.st14{clip-path:url(#SVGID_6_);enable-background:new    ;}
	.st15{fill:#9E4F00;}
	.st16{fill:#994D00;}
	.st17{fill:#944A00;}
	.st18{fill:#8F4800;}
	.st19{clip-path:url(#SVGID_8_);enable-background:new    ;}
	.st20{clip-path:url(#SVGID_10_);enable-background:new    ;}
	.st21{clip-path:url(#SVGID_12_);enable-background:new    ;}
	.st22{fill:#A85400;}
	.st23{clip-path:url(#SVGID_14_);enable-background:new    ;}
	.st24{clip-path:url(#SVGID_16_);enable-background:new    ;}
	.st25{clip-path:url(#SVGID_18_);enable-background:new    ;}
	.st26{clip-path:url(#SVGID_20_);enable-background:new    ;}
	.st27{clip-path:url(#SVGID_22_);enable-background:new    ;}
	.st28{clip-path:url(#SVGID_24_);enable-background:new    ;}
	.st29{fill:#DC6E00;}
	.st30{clip-path:url(#SVGID_26_);enable-background:new    ;}
	.st31{clip-path:url(#SVGID_28_);enable-background:new    ;}
	.st32{fill:#A3A3A3;}
	.st33{fill:#9E9E9E;}
	.st34{fill:#999999;}
	.st35{fill:#949494;}
	.st36{fill:#8F8F8F;}
	.st37{fill:#8A8A8A;}
	.st38{fill:#858585;}
	.st39{fill:#808080;}
	.st40{clip-path:url(#SVGID_30_);enable-background:new    ;}
	.st41{fill:#A8A8A8;}
	.st42{clip-path:url(#SVGID_32_);enable-background:new    ;}
	.st43{clip-path:url(#SVGID_34_);enable-background:new    ;}
	.st44{clip-path:url(#SVGID_36_);enable-background:new    ;}
	.st45{fill:#DCDCDC;}
	.st46{clip-path:url(#SVGID_38_);enable-background:new    ;}
	.st47{fill:#A9A9A9;}
	.st48{clip-path:url(#SVGID_40_);enable-background:new    ;}
	.st49{clip-path:url(#SVGID_42_);enable-background:new    ;}
	.st50{clip-path:url(#SVGID_44_);enable-background:new    ;}
	.st51{clip-path:url(#SVGID_46_);enable-background:new    ;}
	.st52{clip-path:url(#SVGID_48_);enable-background:new    ;}
	.st53{fill:#8C8C8C;}
	.st54{fill:#9B9B9B;}
	.st55{fill:#ABABAB;}
	.st56{fill:#919191;}
	.st57{clip-path:url(#SVGID_50_);enable-background:new    ;}
	.st58{clip-path:url(#SVGID_52_);enable-background:new    ;}
	.st59{clip-path:url(#SVGID_54_);enable-background:new    ;}
	.st60{clip-path:url(#SVGID_56_);enable-background:new    ;}
	.st61{clip-path:url(#SVGID_58_);enable-background:new    ;}
</style>
<g>
	<g>
		<g>
			<g class="st0">
				<g>
					<polygon class="st1" points="183.9,238.3 173.4,228.3 181.3,220.2 191.8,230.2 					"/>
				</g>
				<g>
					<polygon class="st2" points="191.8,230.2 181.3,220.2 181.4,209.4 191.9,219.4 					"/>
				</g>
				<g>
					<polygon class="st3" points="169.2,238.8 158.7,228.8 173.4,228.3 183.9,238.3 					"/>
				</g>
				<g>
					<polygon class="st2" points="191.9,219.4 181.4,209.4 175.6,203.7 186.1,213.8 					"/>
				</g>
				<g>
					<polygon class="st3" points="175.3,220 164.8,210 171.6,213.7 182.1,223.7 					"/>
				</g>
				<g>
					<polygon class="st2" points="171.3,229.9 160.8,219.9 157.9,216.1 168.4,226.1 					"/>
				</g>
				<g>
					<polygon class="st2" points="191.1,203.8 180.5,193.8 180.6,189.9 191.1,199.9 					"/>
				</g>
				<g>
					<polygon class="st2" points="168.4,226.1 157.9,216.1 156.9,214.2 167.4,224.2 					"/>
				</g>
				<g>
					<polygon class="st4" points="182.3,206.1 171.7,196 180.5,193.8 191.1,203.8 					"/>
				</g>
				<g>
					<polygon class="st5" points="158.6,230.4 148,220.3 158.7,228.8 169.2,238.8 					"/>
				</g>
				<g class="st0">
					<defs>
						<path id="SVGID_1_" class="st0" d="M145.8,239.6l-10.5-10c2.6-2.4,5.3-4.7,7.9-7.1l10.5,10C151,234.9,148.4,237.3,145.8,239.6
							z"/>
					</defs>
					<clipPath id="SVGID_2_">
						<use xlink:href="#SVGID_1_"  style="overflow:visible;"/>
					</clipPath>
					<g class="st6">
						<path class="st7" d="M145.8,239.6l-10.5-10c2.6-2.4,5.3-4.7,7.9-7.1l10.5,10C151,234.9,148.4,237.3,145.8,239.6"/>
					</g>
				</g>
				<g>
					<polygon class="st8" points="167.5,216.4 157,206.3 164.8,210 175.3,220 					"/>
				</g>
				<g>
					<polygon class="st3" points="135,240 124.5,230 135.3,229.6 145.8,239.6 					"/>
				</g>
				<g>
					<polygon class="st3" points="171.6,201.5 161,191.5 167.9,191.3 178.4,201.3 					"/>
				</g>
				<g>
					<polygon class="st9" points="169.6,203.6 159,193.5 161,191.5 171.6,201.5 					"/>
				</g>
				<g>
					<polygon class="st2" points="169.5,206.5 159,196.5 159,193.5 169.6,203.6 					"/>
				</g>
				<g>
					<polygon class="st10" points="160.7,211.7 150.2,201.7 157,206.3 167.5,216.4 					"/>
				</g>
				<g class="st0">
					<defs>
						<path id="SVGID_3_" class="st0" d="M137.4,230.1l-10.5-10c-0.7-0.7-1.1-1.5-1.3-1.8l10.5,10
							C136.3,228.6,136.7,229.4,137.4,230.1z"/>
					</defs>
					<clipPath id="SVGID_4_">
						<use xlink:href="#SVGID_3_"  style="overflow:visible;"/>
					</clipPath>
					<g class="st11">
						<path class="st12" d="M137.4,230.1l-10.5-10c-0.7-0.7-1.1-1.5-1.3-1.8l10.5,10C136.3,228.6,136.7,229.4,137.4,230.1"/>
					</g>
				</g>
				<g>
					<polygon class="st13" points="129.2,235.3 118.7,225.3 124.5,230 135,240 					"/>
				</g>
				<g>
					<polygon class="st2" points="153.7,232.5 143.1,222.5 143.5,183.3 154,193.4 					"/>
				</g>
				<g class="st0">
					<defs>
						<path id="SVGID_5_" class="st0" d="M170.8,162.7l-10.5-10c5.3-0.2,9.4-1.8,12.3-4.7c2.9-3,4.4-7,4.5-12.3l10.5,10
							c0,5.2-1.5,9.3-4.5,12.3C180.3,160.9,176.1,162.5,170.8,162.7z"/>
					</defs>
					<clipPath id="SVGID_6_">
						<use xlink:href="#SVGID_5_"  style="overflow:visible;"/>
					</clipPath>
					<g class="st14">
						<path class="st4" d="M170.8,162.7l-10.5-10c0.6,0,1.1-0.1,1.6-0.1l10.5,10C171.9,162.6,171.4,162.7,170.8,162.7"/>
						<path class="st15" d="M172.5,162.6l-10.5-10c1.2-0.1,2.3-0.3,3.3-0.6l10.5,10C174.7,162.3,173.6,162.5,172.5,162.6"/>
						<path class="st16" d="M175.8,162l-10.5-10c0.8-0.2,1.6-0.4,2.3-0.7l10.5,10C177.4,161.6,176.6,161.8,175.8,162"/>
						<path class="st17" d="M178.1,161.3l-10.5-10c0.6-0.3,1.3-0.5,1.9-0.9l10.5,10C179.3,160.8,178.7,161.1,178.1,161.3"/>
						<path class="st18" d="M179.9,160.4l-10.5-10c0.6-0.3,1.1-0.7,1.7-1.1l10.5,10C181.1,159.7,180.5,160.1,179.9,160.4"/>
						<path class="st7" d="M181.6,159.4l-10.5-10c0.6-0.4,1.1-0.9,1.6-1.4c0,0,0.1-0.1,0.1-0.1l10.5,10c0,0-0.1,0.1-0.1,0.1
							C182.7,158.5,182.2,158.9,181.6,159.4"/>
						<path class="st12" d="M183.3,157.8l-10.5-10c2.8-2.9,4.3-7,4.3-12.1l10.5,10C187.6,150.9,186.2,154.9,183.3,157.8"/>
					</g>
				</g>
				<g>
					<polygon class="st2" points="187.7,145.7 177.1,135.7 177.3,118 187.8,128.1 					"/>
				</g>
				<g>
					<polygon class="st1" points="154.6,160.6 144.1,150.6 153.3,140.7 163.9,150.8 					"/>
				</g>
				<g class="st0">
					<defs>
						<path id="SVGID_7_" class="st0" d="M187.8,128.1l-10.5-10c0-2.1,0.7-3.7,2-4.9c1.3-1.2,3.1-1.8,5.4-1.9l10.5,10
							c-2.3,0.1-4.1,0.7-5.4,1.9C188.5,124.3,187.8,126,187.8,128.1z"/>
					</defs>
					<clipPath id="SVGID_8_">
						<use xlink:href="#SVGID_7_"  style="overflow:visible;"/>
					</clipPath>
					<g class="st19">
						<path class="st12" d="M187.8,128.1l-10.5-10c0-2,0.6-3.5,1.7-4.7l10.5,10C188.4,124.6,187.8,126.1,187.8,128.1"/>
						<path class="st7" d="M189.5,123.4l-10.5-10c0.1-0.1,0.2-0.2,0.2-0.2c0.2-0.2,0.3-0.3,0.5-0.4l10.5,10
							c-0.2,0.1-0.4,0.3-0.5,0.4C189.7,123.2,189.6,123.3,189.5,123.4"/>
						<path class="st18" d="M190.3,122.7l-10.5-10c0.2-0.2,0.5-0.3,0.7-0.5l10.5,10C190.8,122.4,190.5,122.5,190.3,122.7"/>
						<path class="st17" d="M191,122.3l-10.5-10c0.3-0.1,0.5-0.3,0.8-0.4l10.5,10C191.6,122,191.3,122.1,191,122.3"/>
						<path class="st16" d="M191.8,121.9l-10.5-10c0.3-0.1,0.7-0.2,1-0.3l10.5,10C192.5,121.6,192.2,121.7,191.8,121.9"/>
						<path class="st15" d="M192.9,121.5l-10.5-10c0.5-0.1,1-0.2,1.5-0.3l10.5,10C193.9,121.3,193.4,121.4,192.9,121.5"/>
						<path class="st4" d="M194.4,121.3l-10.5-10c0.2,0,0.5,0,0.8,0l10.5,10C194.9,121.2,194.7,121.3,194.4,121.3"/>
					</g>
				</g>
				<g>
					<polygon class="st2" points="195.2,121.2 184.7,111.2 184.7,102.9 195.3,112.9 					"/>
				</g>
				<g>
					<polygon class="st2" points="147.5,163.5 137,153.5 137,145.1 147.6,155.2 					"/>
				</g>
				<g>
					<polygon class="st2" points="163.9,150.8 153.3,140.7 153.5,126.8 164,136.8 					"/>
				</g>
				<g class="st0">
					<defs>
						<path id="SVGID_9_" class="st0" d="M189.7,111.2l-10.5-10c-1.1-1.1-1.7-2.6-1.7-4.6l10.5,10
							C188,108.6,188.6,110.1,189.7,111.2z"/>
					</defs>
					<clipPath id="SVGID_10_">
						<use xlink:href="#SVGID_9_"  style="overflow:visible;"/>
					</clipPath>
					<g class="st20">
						<path class="st12" d="M189.7,111.2l-10.5-10c-1.1-1.1-1.7-2.6-1.7-4.6l10.5,10C188,108.6,188.6,110.1,189.7,111.2"/>
					</g>
				</g>
				<g class="st0">
					<defs>
						<path id="SVGID_11_" class="st0" d="M135.2,159.7l-10.5-10c2.9,2.8,7,4,12.3,3.9l10.5,10C142.2,163.7,138.1,162.4,135.2,159.7
							z"/>
					</defs>
					<clipPath id="SVGID_12_">
						<use xlink:href="#SVGID_11_"  style="overflow:visible;"/>
					</clipPath>
					<g class="st21">
						<path class="st4" d="M135.2,159.7l-10.5-10c0.3,0.3,0.7,0.6,1,0.9l10.5,10C135.9,160.2,135.5,160,135.2,159.7"/>
						<path class="st22" d="M136.2,160.5l-10.5-10c2.1,1.6,4.6,2.5,7.7,2.9l10.5,10C140.8,163.1,138.3,162.1,136.2,160.5"/>
						<path class="st4" d="M143.9,163.4l-10.5-10c1.1,0.1,2.3,0.2,3.5,0.1l10.5,10C146.2,163.6,145,163.5,143.9,163.4"/>
					</g>
				</g>
				<g class="st0">
					<defs>
						<path id="SVGID_13_" class="st0" d="M141.6,153.3l-10.5-10c-1.3-1.2-1.9-2.9-1.9-5.1l10.5,10
							C139.7,150.5,140.3,152.1,141.6,153.3z"/>
					</defs>
					<clipPath id="SVGID_14_">
						<use xlink:href="#SVGID_13_"  style="overflow:visible;"/>
					</clipPath>
					<g class="st23">
						<path class="st12" d="M141.6,153.3l-10.5-10c-1.3-1.2-1.9-2.9-1.9-5.1l10.5,10C139.7,150.5,140.3,152.1,141.6,153.3"/>
					</g>
				</g>
				<g>
					<polygon class="st3" points="204.9,78 194.4,68 245.2,66.2 255.8,76.3 					"/>
				</g>
				<g>
					<polygon class="st2" points="188,106.6 177.5,96.5 177.7,78.9 188.2,89 					"/>
				</g>
				<g>
					<polygon class="st2" points="139.7,148.3 129.2,138.3 129.4,120.2 139.9,130.2 					"/>
				</g>
				<g>
					<polygon class="st2" points="164.2,110.1 153.7,100.1 153.8,90.9 164.3,100.9 					"/>
				</g>
				<g>
					<polygon class="st3" points="155,110.5 144.5,100.4 153.7,100.1 164.2,110.1 					"/>
				</g>
				<g class="st0">
					<defs>
						<path id="SVGID_15_" class="st0" d="M188.2,89l-10.5-10c0-5.2-1.4-9.2-4.2-12l10.5,10C186.8,79.7,188.2,83.7,188.2,89z"/>
					</defs>
					<clipPath id="SVGID_16_">
						<use xlink:href="#SVGID_15_"  style="overflow:visible;"/>
					</clipPath>
					<g class="st24">
						<path class="st12" d="M188.2,89l-10.5-10c0-5.2-1.4-9.2-4.2-12l10.5,10C186.8,79.7,188.2,83.7,188.2,89"/>
					</g>
				</g>
				<g class="st0">
					<defs>
						<path id="SVGID_17_" class="st0" d="M139.9,130.2l-10.5-10c0-4.8-1.3-8.5-3.9-11l10.5,10C138.6,121.8,139.9,125.4,139.9,130.2
							z"/>
					</defs>
					<clipPath id="SVGID_18_">
						<use xlink:href="#SVGID_17_"  style="overflow:visible;"/>
					</clipPath>
					<g class="st25">
						<path class="st12" d="M139.9,130.2l-10.5-10c0-4.8-1.3-8.5-3.9-11l10.5,10C138.6,121.8,139.9,125.4,139.9,130.2"/>
					</g>
				</g>
				<g class="st0">
					<defs>
						<path id="SVGID_19_" class="st0" d="M167.1,73.2l10.5,10c-0.1-0.1-0.1-0.1-0.2-0.2c-1.4-1.2-3.3-1.7-5.8-1.6l-10.5-10
							c2.5-0.1,4.5,0.5,5.8,1.6C167,73.1,167,73.2,167.1,73.2z"/>
					</defs>
					<clipPath id="SVGID_20_">
						<use xlink:href="#SVGID_19_"  style="overflow:visible;"/>
					</clipPath>
					<g class="st26">
						<path class="st4" d="M171.6,81.5l-10.5-10c0.6,0,1.2,0,1.8,0.1l10.5,10C172.8,81.5,172.2,81.4,171.6,81.5"/>
						<path class="st22" d="M173.4,81.5l-10.5-10c1.5,0.2,2.8,0.6,3.7,1.4l10.5,10C176.2,82.1,174.9,81.7,173.4,81.5"/>
						<path class="st4" d="M177.2,82.9l-10.5-10c0.1,0.1,0.2,0.1,0.3,0.2c0.1,0.1,0.1,0.1,0.2,0.2l10.5,10c-0.1-0.1-0.1-0.1-0.2-0.2
							C177.3,83,177.3,83,177.2,82.9"/>
					</g>
				</g>
				<g class="st0">
					<defs>
						<path id="SVGID_21_" class="st0" d="M136,119.2l-10.5-10c2.7-2.7,4.1-6.3,4.1-10.9l10.5,10C140,112.9,138.7,116.5,136,119.2z"
							/>
					</defs>
					<clipPath id="SVGID_22_">
						<use xlink:href="#SVGID_21_"  style="overflow:visible;"/>
					</clipPath>
					<g class="st27">
						<path class="st7" d="M136,119.2l-10.5-10c0.1-0.1,0.1-0.1,0.2-0.2l10.5,10C136.1,119.1,136,119.1,136,119.2"/>
						<path class="st12" d="M136.2,119l-10.5-10c2.6-2.7,3.9-6.2,3.9-10.7l10.5,10C140,112.8,138.7,116.3,136.2,119"/>
					</g>
				</g>
				<g class="st0">
					<defs>
						<path id="SVGID_23_" class="st0" d="M118.9,115.4l10.5,10c-0.1-0.1-0.1-0.1-0.2-0.2c-1.3-1.1-3.1-1.6-5.4-1.5l-10.5-10
							c2.3-0.1,4.1,0.4,5.4,1.5C118.8,115.3,118.9,115.3,118.9,115.4z"/>
					</defs>
					<clipPath id="SVGID_24_">
						<use xlink:href="#SVGID_23_"  style="overflow:visible;"/>
					</clipPath>
					<g class="st28">
						<path class="st4" d="M123.9,123.7l-10.5-10c0.6,0,1.1,0,1.7,0.1l10.5,10C125,123.7,124.5,123.7,123.9,123.7"/>
						<path class="st22" d="M125.5,123.8l-10.5-10c1.4,0.1,2.5,0.6,3.5,1.3l10.5,10C128.1,124.3,126.9,123.9,125.5,123.8"/>
						<path class="st4" d="M129,125l-10.5-10c0.1,0.1,0.2,0.1,0.3,0.2c0.1,0.1,0.1,0.1,0.2,0.2l10.5,10c-0.1-0.1-0.1-0.1-0.2-0.2
							C129.2,125.2,129.1,125.1,129,125"/>
					</g>
				</g>
				<g>
					<polygon class="st2" points="216.8,67.8 206.2,57.8 206.6,13.7 217.2,23.8 					"/>
				</g>
				<g>
					<polygon class="st29" points="217.2,23.8 255.9,66.5 216.8,67.8 					"/>
				</g>
				<g>
					<polygon class="st2" points="140.1,108.3 129.6,98.2 129.7,79.6 140.3,89.7 					"/>
				</g>
				<g class="st0">
					<defs>
						<path id="SVGID_25_" class="st0" d="M140.3,89.7l-10.5-10c0-2.3,0.7-4,2.1-5.3c1.4-1.3,3.3-2,5.9-2.1l10.5,10
							c-2.5,0.1-4.5,0.8-5.9,2.1C141,85.6,140.3,87.4,140.3,89.7z"/>
					</defs>
					<clipPath id="SVGID_26_">
						<use xlink:href="#SVGID_25_"  style="overflow:visible;"/>
					</clipPath>
					<g class="st30">
						<path class="st12" d="M140.3,89.7l-10.5-10c0-2.1,0.6-3.8,1.8-5.1l10.5,10C140.9,85.8,140.3,87.5,140.3,89.7"/>
						<path class="st7" d="M142.1,84.6l-10.5-10c0.1-0.1,0.2-0.2,0.3-0.3c0.2-0.2,0.3-0.3,0.5-0.4l10.5,10c-0.2,0.1-0.4,0.3-0.5,0.4
							C142.3,84.4,142.2,84.5,142.1,84.6"/>
						<path class="st18" d="M142.9,83.9l-10.5-10c0.2-0.2,0.5-0.4,0.8-0.5l10.5,10C143.4,83.5,143.1,83.7,142.9,83.9"/>
						<path class="st17" d="M143.7,83.4l-10.5-10c0.3-0.2,0.6-0.3,0.9-0.4l10.5,10C144.3,83.1,144,83.2,143.7,83.4"/>
						<path class="st16" d="M144.6,83l-10.5-10c0.4-0.1,0.7-0.3,1.1-0.4l10.5,10C145.3,82.7,144.9,82.8,144.6,83"/>
						<path class="st15" d="M145.7,82.6l-10.5-10c0.5-0.1,1.1-0.2,1.7-0.3l10.5,10C146.8,82.4,146.2,82.5,145.7,82.6"/>
						<path class="st4" d="M147.4,82.3l-10.5-10c0.3,0,0.6,0,0.8-0.1l10.5,10C147.9,82.3,147.7,82.3,147.4,82.3"/>
					</g>
				</g>
				<g>
					<polygon class="st2" points="148.2,82.3 137.7,72.2 137.8,63.9 148.3,73.9 					"/>
				</g>
				<g>
					<polygon class="st3" points="74.4,28.8 63.9,18.7 194.9,14.2 205.4,24.2 					"/>
				</g>
				<g>
					<polygon class="st2" points="67.3,274.7 56.8,264.6 59,23.8 69.5,33.8 					"/>
				</g>
				<g>
					<path class="st29" d="M205.4,24.2L204.9,78l50.8-1.8L254,266.2l-4.9,5.1l-176.9,6.2l-4.9-2.8l2.2-240.8l4.9-5.1L205.4,24.2z
						 M123.9,123.7c2.3-0.1,4.1,0.4,5.4,1.5c1.3,1.1,1.9,2.7,1.9,4.8l-0.2,17.6c0,5.2,1.4,9.2,4.3,12c2.9,2.8,7,4,12.3,3.9l0.1-8.4
						c-2.5,0.1-4.5-0.5-5.8-1.7c-1.4-1.2-2-2.9-2-5.2l0.2-18.1c0-4.8-1.3-8.5-3.9-11c2.7-2.7,4.1-6.3,4.1-10.9l0.2-18.6
						c0-2.3,0.7-4,2.1-5.3c1.4-1.3,3.3-2,5.9-2.1l0.1-8.3c-5.3,0.2-9.4,1.8-12.3,4.7c-2.9,3-4.4,7.1-4.5,12.3l-0.2,17.6
						c0,2.1-0.7,3.7-2,4.9c-1.3,1.2-3.1,1.8-5.4,1.9L123.9,123.7 M195.2,121.2l0.1-8.3c-2.3,0.1-4.1-0.4-5.4-1.5
						c-1.3-1.1-1.9-2.7-1.9-4.8l0.2-17.6c0-5.2-1.4-9.2-4.2-12c-2.9-2.8-7-4.1-12.3-3.9l-0.1,8.3c2.5-0.1,4.5,0.5,5.8,1.6
						s2,2.9,2,5.2l-0.2,18.6c0,4.6,1.3,8.1,3.9,10.6c-2.7,2.8-4.1,6.5-4.1,11.3l-0.2,18.1c0,2.3-0.7,4-2.1,5.3
						c-1.4,1.3-3.3,2-5.9,2.1l-0.1,8.4c5.3-0.2,9.4-1.8,12.3-4.7c2.9-3,4.4-7,4.5-12.3l0.2-17.6c0-2.1,0.7-3.7,2-4.9
						C191.1,121.9,192.9,121.3,195.2,121.2 M191.8,230.2l0.1-10.8l-5.8-5.7l-16.5-7.2l0-2.9l2-2l6.8-0.2l3.9,4.8l8.8-2.3l0-3.9
						l-8.7-7.5l-13.7,0.5l-7.9,6.2l-0.1,12.7l6.8,4.7l7.8,3.6l6.8,3.7l0,3.9l-2,2l-8.8,0.3l-2.9-3.8l-1-1.9l-2,0.1l-6.9,3.2l0,2.9
						l10.7,8.4l14.7-0.5L191.8,230.2 M153.7,232.5l0.4-39.2l-10.8,0.4L143,228c0,0.2,0.1,0.6,0,1c0,0.3-0.2,1.4-1,2
						c-0.4,0.3-0.8,0.4-1.2,0.4c-0.7,0-1.4-0.2-1.7-0.3c-1.8-0.6-2.7-2.3-2.9-2.8l-2,0.1c-3.2,2.7-4.8,4-4.9,4.1l0,2.9l5.8,4.7
						l10.8-0.4C148.4,237.3,151,234.9,153.7,232.5 M154.8,137.1l-0.2,23.5l9.3-9.9l0.1-13.9L154.8,137.1 M155.1,101.3l-0.1,9.2
						l9.2-0.3l0.1-9.2L155.1,101.3"/>
				</g>
				<g>
					<polygon class="st1" points="69.5,33.8 59,23.8 63.9,18.7 74.4,28.8 					"/>
				</g>
			</g>
		</g>
	</g>
	<g>
		<g>
			<g class="st0">
				<g class="st0">
					<defs>
						<path id="SVGID_27_" class="st0" d="M176.5,157.6l-10.5-10c2.5-0.1,4.5-0.8,5.9-2.1c1.4-1.3,2.1-3.1,2.1-5.3l10.5,10
							c0,2.3-0.7,4-2.1,5.3C181,156.8,179,157.5,176.5,157.6z"/>
					</defs>
					<clipPath id="SVGID_28_">
						<use xlink:href="#SVGID_27_"  style="overflow:visible;"/>
					</clipPath>
					<g class="st31">
						<path class="st32" d="M176.5,157.6l-10.5-10c0.3,0,0.6,0,0.8-0.1l10.5,10C177.1,157.6,176.8,157.6,176.5,157.6"/>
						<path class="st33" d="M177.4,157.6l-10.5-10c0.6-0.1,1.2-0.1,1.7-0.3l10.5,10C178.5,157.4,178,157.5,177.4,157.6"/>
						<path class="st34" d="M179,157.3l-10.5-10c0.4-0.1,0.8-0.2,1.1-0.4l10.5,10C179.8,157.1,179.4,157.2,179,157.3"/>
						<path class="st35" d="M180.2,156.9l-10.5-10c0.3-0.1,0.6-0.3,0.9-0.4l10.5,10C180.8,156.7,180.5,156.8,180.2,156.9"/>
						<path class="st36" d="M181.1,156.5l-10.5-10c0.3-0.2,0.5-0.3,0.8-0.5l10.5,10C181.6,156.2,181.3,156.4,181.1,156.5"/>
						<path class="st37" d="M181.8,156l-10.5-10c0.2-0.1,0.4-0.3,0.6-0.5c0.1-0.1,0.2-0.1,0.2-0.2l10.5,10c-0.1,0.1-0.2,0.2-0.2,0.2
							C182.2,155.7,182,155.9,181.8,156"/>
						<path class="st38" d="M182.6,155.3l-10.5-10c1.2-1.3,1.9-3,1.9-5.1l10.5,10C184.5,152.3,183.9,154,182.6,155.3"/>
					</g>
				</g>
				<g>
					<polygon class="st39" points="176.5,166 165.9,155.9 166,147.6 176.5,157.6 					"/>
				</g>
				<g>
					<polygon class="st39" points="184.5,150.2 174,140.2 174.1,122.1 184.7,132.1 					"/>
				</g>
				<g class="st0">
					<defs>
						<path id="SVGID_29_" class="st0" d="M195.3,114.5l-10.5-10c0.1,0.1,0.1,0.1,0.2,0.2c1.3,1.1,3.1,1.6,5.4,1.5l10.5,10
							c-2.3,0.1-4.1-0.4-5.4-1.5C195.4,114.6,195.4,114.5,195.3,114.5z"/>
					</defs>
					<clipPath id="SVGID_30_">
						<use xlink:href="#SVGID_29_"  style="overflow:visible;"/>
					</clipPath>
					<g class="st40">
						<path class="st32" d="M195.3,114.5l-10.5-10c0.1,0.1,0.1,0.1,0.2,0.2c0.1,0.1,0.2,0.1,0.2,0.2l10.5,10
							c-0.1-0.1-0.2-0.1-0.2-0.2C195.4,114.6,195.4,114.5,195.3,114.5"/>
						<path class="st41" d="M195.7,114.8l-10.5-10c0.9,0.7,2.1,1.1,3.5,1.3l10.5,10C197.8,116,196.7,115.5,195.7,114.8"/>
						<path class="st32" d="M199.2,116.1l-10.5-10c0.5,0.1,1.1,0.1,1.7,0.1l10.5,10C200.3,116.2,199.7,116.2,199.2,116.1"/>
					</g>
				</g>
				<g class="st0">
					<defs>
						<path id="SVGID_31_" class="st0" d="M184.7,132.1l-10.5-10c0-4.8,1.4-8.5,4.1-11.3l10.5,10
							C186.1,123.6,184.7,127.3,184.7,132.1z"/>
					</defs>
					<clipPath id="SVGID_32_">
						<use xlink:href="#SVGID_31_"  style="overflow:visible;"/>
					</clipPath>
					<g class="st42">
						<path class="st38" d="M184.7,132.1l-10.5-10c0-4.8,1.4-8.5,4.1-11.3l10.5,10C186.1,123.6,184.7,127.4,184.7,132.1"/>
						<path class="st37" d="M188.7,120.9l-10.5-10c0,0,0,0,0,0L188.7,120.9C188.7,120.8,188.7,120.8,188.7,120.9"/>
					</g>
				</g>
				<g class="st0">
					<defs>
						<path id="SVGID_33_" class="st0" d="M188.8,120.8l-10.5-10c-2.6-2.5-3.9-6-3.9-10.6l10.5,10
							C184.8,114.8,186.1,118.3,188.8,120.8z"/>
					</defs>
					<clipPath id="SVGID_34_">
						<use xlink:href="#SVGID_33_"  style="overflow:visible;"/>
					</clipPath>
					<g class="st43">
						<path class="st38" d="M188.8,120.8l-10.5-10c-2.6-2.5-3.9-6-3.9-10.6l10.5,10C184.8,114.8,186.1,118.3,188.8,120.8"/>
					</g>
				</g>
				<g>
					<polygon class="st39" points="184.9,110.2 174.3,100.2 174.5,81.5 185,91.6 					"/>
				</g>
				<g class="st0">
					<defs>
						<path id="SVGID_35_" class="st0" d="M172.7,76.5l10.5,10c1.2,1.2,1.8,2.9,1.8,5l-10.5-10C174.5,79.4,173.9,77.7,172.7,76.5z"
							/>
					</defs>
					<clipPath id="SVGID_36_">
						<use xlink:href="#SVGID_35_"  style="overflow:visible;"/>
					</clipPath>
					<g class="st44">
						<path class="st38" d="M185,91.6l-10.5-10c0-2.2-0.6-3.8-1.8-5l10.5,10C184.5,87.7,185.1,89.4,185,91.6"/>
					</g>
				</g>
				<g>
					<path class="st45" d="M177.3,76.4c5.3-0.2,9.4,1.1,12.3,3.9c2.9,2.8,4.3,6.8,4.3,12l-0.2,17.6c0,2.1,0.6,3.7,1.9,4.8
						c1.3,1.1,3.1,1.6,5.4,1.5l-0.1,8.3c-2.3,0.1-4.1,0.7-5.4,1.9c-1.3,1.2-1.9,2.8-2,4.9l-0.2,17.6c0,5.2-1.5,9.3-4.5,12.3
						c-2.9,3-7.1,4.5-12.3,4.7l0.1-8.4c2.5-0.1,4.5-0.8,5.9-2.1c1.4-1.3,2.1-3.1,2.1-5.3l0.2-18.1c0-4.8,1.4-8.5,4.1-11.3
						c-2.6-2.5-3.9-6-3.9-10.6l0.2-18.6c0-2.3-0.6-4-2-5.2c-1.4-1.2-3.3-1.7-5.8-1.6L177.3,76.4z"/>
				</g>
				<g class="st0">
					<defs>
						<path id="SVGID_37_" class="st0" d="M177.3,76.4l-10.5-10c5.3-0.2,9.4,1.1,12.3,3.9l10.5,10C186.7,77.5,182.6,76.2,177.3,76.4
							z"/>
					</defs>
					<clipPath id="SVGID_38_">
						<use xlink:href="#SVGID_37_"  style="overflow:visible;"/>
					</clipPath>
					<g class="st46">
						<path class="st32" d="M177.3,76.4l-10.5-10c1.2,0,2.4,0,3.5,0.1l10.5,10C179.7,76.4,178.5,76.3,177.3,76.4"/>
						<path class="st41" d="M180.8,76.5l-10.5-10c3.1,0.3,5.7,1.3,7.7,2.9l10.5,10C186.5,77.8,183.9,76.8,180.8,76.5"/>
						<path class="st32" d="M188.5,79.4l-10.5-10c0.4,0.3,0.7,0.6,1,0.9l10.5,10C189.2,80,188.9,79.7,188.5,79.4"/>
					</g>
				</g>
				<g>
					<polygon class="st39" points="177.2,84.7 166.7,74.7 166.8,66.4 177.3,76.4 					"/>
				</g>
			</g>
			<g class="st0">
				<g>
					<polygon class="st47" points="160.7,104.5 150.2,94.5 159.4,94.2 169.9,104.2 					"/>
				</g>
				<g>
					<polygon class="st39" points="160.7,113.7 150.1,103.7 150.2,94.5 160.7,104.5 					"/>
				</g>
				<g>
					<polygon class="st45" points="160.7,104.5 169.9,104.2 169.8,113.4 160.7,113.7 					"/>
				</g>
			</g>
			<g class="st0">
				<g>
					<polygon class="st39" points="160.2,163.9 149.7,153.9 149.9,130.4 160.4,140.4 					"/>
				</g>
				<g>
					<polygon class="st47" points="160.4,140.4 149.9,130.4 159.1,130.1 169.6,140.1 					"/>
				</g>
				<g>
					<polygon class="st45" points="160.2,163.9 160.4,140.4 169.6,140.1 169.5,154 					"/>
				</g>
			</g>
			<g class="st0">
				<g class="st0">
					<defs>
						<path id="SVGID_39_" class="st0" d="M147.2,156.6l-10.5-10c0.1,0.1,0.1,0.1,0.2,0.2c1.4,1.2,3.3,1.8,5.8,1.7l10.5,10
							c-2.5,0.1-4.5-0.5-5.8-1.7C147.3,156.7,147.2,156.7,147.2,156.6z"/>
					</defs>
					<clipPath id="SVGID_40_">
						<use xlink:href="#SVGID_39_"  style="overflow:visible;"/>
					</clipPath>
					<g class="st48">
						<path class="st32" d="M147.2,156.6l-10.5-10c0.1,0.1,0.1,0.1,0.2,0.2c0.1,0.1,0.2,0.2,0.3,0.2l10.5,10
							c-0.1-0.1-0.2-0.2-0.3-0.2C147.3,156.7,147.2,156.7,147.2,156.6"/>
						<path class="st41" d="M147.6,157l-10.5-10c1,0.8,2.2,1.2,3.7,1.4l10.5,10C149.8,158.2,148.6,157.8,147.6,157"/>
						<path class="st32" d="M151.3,158.4l-10.5-10c0.6,0.1,1.2,0.1,1.8,0.1l10.5,10C152.5,158.5,151.9,158.4,151.3,158.4"/>
					</g>
				</g>
				<g class="st0">
					<defs>
						<path id="SVGID_41_" class="st0" d="M140.8,162.9l-10.5-10c-2.9-2.8-4.3-6.7-4.3-12l10.5,10
							C136.5,156.2,137.9,160.2,140.8,162.9z"/>
					</defs>
					<clipPath id="SVGID_42_">
						<use xlink:href="#SVGID_41_"  style="overflow:visible;"/>
					</clipPath>
					<g class="st49">
						<path class="st38" d="M140.8,162.9l-10.5-10c-2.9-2.8-4.3-6.7-4.3-12l10.5,10C136.5,156.2,137.9,160.2,140.8,162.9"/>
					</g>
				</g>
				<g>
					<polygon class="st39" points="136.6,151 126,140.9 126.2,123.3 136.7,133.3 					"/>
				</g>
				<g class="st0">
					<defs>
						<path id="SVGID_43_" class="st0" d="M124.5,118.7l10.5,10c1.1,1.1,1.7,2.6,1.7,4.6l-10.5-10
							C126.2,121.3,125.7,119.8,124.5,118.7z"/>
					</defs>
					<clipPath id="SVGID_44_">
						<use xlink:href="#SVGID_43_"  style="overflow:visible;"/>
					</clipPath>
					<g class="st50">
						<path class="st38" d="M136.7,133.3l-10.5-10c0-2-0.5-3.5-1.7-4.6l10.5,10C136.2,129.8,136.7,131.3,136.7,133.3"/>
					</g>
				</g>
				<g>
					<polygon class="st39" points="129.5,127 119,117 119,108.6 129.6,118.7 					"/>
				</g>
				<g class="st0">
					<defs>
						<path id="SVGID_45_" class="st0" d="M129.6,118.7l-10.5-10c2.3-0.1,4.1-0.7,5.4-1.9c1.3-1.2,1.9-2.8,2-4.9l10.5,10
							c0,2.1-0.7,3.7-2,4.9C133.7,117.9,131.9,118.6,129.6,118.7z"/>
					</defs>
					<clipPath id="SVGID_46_">
						<use xlink:href="#SVGID_45_"  style="overflow:visible;"/>
					</clipPath>
					<g class="st51">
						<path class="st32" d="M129.6,118.7l-10.5-10c0.3,0,0.5,0,0.8,0l10.5,10C130.1,118.6,129.8,118.6,129.6,118.7"/>
						<path class="st33" d="M130.3,118.6l-10.5-10c0.5-0.1,1.1-0.1,1.5-0.3l10.5,10C131.4,118.5,130.9,118.6,130.3,118.6"/>
						<path class="st34" d="M131.9,118.3l-10.5-10c0.4-0.1,0.7-0.2,1-0.3l10.5,10C132.6,118.1,132.2,118.3,131.9,118.3"/>
						<path class="st35" d="M132.9,118l-10.5-10c0.3-0.1,0.6-0.2,0.8-0.4l10.5,10C133.5,117.8,133.2,117.9,132.9,118"/>
						<path class="st36" d="M133.7,117.6l-10.5-10c0.3-0.1,0.5-0.3,0.7-0.5l10.5,10C134.2,117.3,134,117.5,133.7,117.6"/>
						<path class="st37" d="M134.5,117.2l-10.5-10c0.2-0.1,0.3-0.3,0.5-0.4c0.1-0.1,0.2-0.2,0.2-0.2l10.5,10
							c-0.1,0.1-0.2,0.2-0.2,0.2C134.8,116.9,134.7,117,134.5,117.2"/>
						<path class="st38" d="M135.2,116.5l-10.5-10c1.1-1.2,1.7-2.7,1.7-4.7l10.5,10C136.9,113.8,136.3,115.3,135.2,116.5"/>
					</g>
				</g>
				<g>
					<polygon class="st39" points="136.9,111.8 126.4,101.8 126.6,84.2 137.1,94.2 					"/>
				</g>
				<g>
					<path class="st45" d="M153.9,77.2l-0.1,8.3c-2.5,0.1-4.5,0.8-5.9,2.1c-1.4,1.3-2.1,3.1-2.1,5.3l-0.2,18.6
						c0,4.6-1.4,8.2-4.1,10.9c2.6,2.6,3.9,6.2,3.9,11l-0.2,18.1c0,2.3,0.6,4,2,5.2c1.4,1.2,3.3,1.8,5.8,1.7l-0.1,8.4
						c-5.3,0.2-9.4-1.1-12.3-3.9c-2.9-2.8-4.3-6.7-4.3-12l0.2-17.6c0-2.1-0.6-3.7-1.9-4.8c-1.3-1.1-3.1-1.6-5.4-1.5l0.1-8.3
						c2.3-0.1,4.1-0.7,5.4-1.9c1.3-1.2,1.9-2.8,2-4.9l0.2-17.6c0-5.2,1.5-9.3,4.5-12.3C144.5,79,148.6,77.4,153.9,77.2z"/>
				</g>
				<g class="st0">
					<defs>
						<path id="SVGID_47_" class="st0" d="M137.1,94.2l-10.5-10c0-5.2,1.5-9.3,4.5-12.3c2.9-3,7.1-4.5,12.3-4.7l10.5,10
							c-5.3,0.2-9.4,1.8-12.3,4.7C138.6,84.9,137.1,89,137.1,94.2z"/>
					</defs>
					<clipPath id="SVGID_48_">
						<use xlink:href="#SVGID_47_"  style="overflow:visible;"/>
					</clipPath>
					<g class="st52">
						<path class="st38" d="M137.1,94.2l-10.5-10c0-5.2,1.5-9.2,4.4-12.2l10.5,10C138.6,85,137.1,89.1,137.1,94.2"/>
						<path class="st37" d="M141.4,82.1l-10.5-10c0,0,0.1-0.1,0.1-0.1c0.5-0.5,1-1,1.6-1.4l10.5,10c-0.6,0.4-1.1,0.9-1.6,1.4
							C141.5,82,141.5,82,141.4,82.1"/>
						<path class="st36" d="M143.2,80.5l-10.5-10c0.5-0.4,1.1-0.8,1.7-1.1l10.5,10C144.3,79.8,143.7,80.1,143.2,80.5"/>
						<path class="st35" d="M144.8,79.5l-10.5-10c0.6-0.3,1.2-0.6,1.9-0.9l10.5,10C146,78.8,145.4,79.1,144.8,79.5"/>
						<path class="st34" d="M146.7,78.6l-10.5-10c0.7-0.3,1.5-0.5,2.3-0.7l10.5,10C148.2,78.1,147.4,78.3,146.7,78.6"/>
						<path class="st33" d="M149,77.9l-10.5-10c1-0.3,2.1-0.4,3.3-0.6l10.5,10C151.1,77.4,150,77.6,149,77.9"/>
						<path class="st32" d="M152.3,77.3l-10.5-10c0.5,0,1.1-0.1,1.6-0.1l10.5,10C153.4,77.2,152.8,77.3,152.3,77.3"/>
					</g>
				</g>
			</g>
		</g>
	</g>
	<g>
		<g>
			<g class="st0">
				<g>
					<polygon class="st53" points="187.7,237 177.2,227 179.1,225 189.7,235 					"/>
				</g>
				<g>
					<polygon class="st39" points="189.7,235 179.1,225 179.2,221.1 189.7,231.1 					"/>
				</g>
				<g>
					<polygon class="st47" points="178.9,237.3 168.4,227.3 177.2,227 187.7,237 					"/>
				</g>
				<g>
					<polygon class="st47" points="173.1,231.7 162.6,221.6 164.5,221.6 175,231.6 					"/>
				</g>
				<g>
					<polygon class="st54" points="166.2,234.8 155.7,224.8 162.6,221.6 173.1,231.7 					"/>
				</g>
				<g>
					<polygon class="st39" points="166.2,237.8 155.7,227.7 155.7,224.8 166.2,234.8 					"/>
				</g>
				<g>
					<polygon class="st39" points="189.9,213.5 179.3,203.4 175.5,198.7 186,208.7 					"/>
				</g>
				<g>
					<polygon class="st55" points="177.1,213.9 166.6,203.9 183.2,211.1 193.7,221.2 					"/>
				</g>
				<g>
					<polygon class="st32" points="190,199.8 179.5,189.7 188.2,197.2 198.7,207.3 					"/>
				</g>
				<g>
					<polygon class="st47" points="176.3,200.2 165.8,190.2 179.5,189.7 190,199.8 					"/>
				</g>
				<g>
					<polygon class="st56" points="168.4,206.4 157.9,196.4 165.8,190.2 176.3,200.2 					"/>
				</g>
				<g>
					<polygon class="st45" points="190,199.8 198.7,207.3 198.7,211.2 189.9,213.5 186,208.7 179.1,208.9 177.2,211 177.1,213.9 
						193.7,221.2 198.5,225.9 199.5,226.8 199.4,237.6 191.5,245.7 176.8,246.2 166.2,237.8 166.2,234.8 173.1,231.7 175,231.6 
						176,233.5 178.9,237.3 187.7,237 189.7,235 189.7,231.1 182.9,227.4 175.1,223.8 168.3,219.1 168.4,206.4 176.3,200.2 					"/>
				</g>
				<g>
					<polygon class="st39" points="168.3,219.1 157.8,209.1 157.9,196.4 168.4,206.4 					"/>
				</g>
			</g>
			<g class="st0">
				<g class="st0">
					<defs>
						<path id="SVGID_49_" class="st0" d="M145,237.5l-10.5-10c0.4,0.4,1,0.8,1.6,1c0.3,0.1,1,0.3,1.7,0.3c0.4,0,0.9-0.1,1.2-0.4
							c0.8-0.6,0.9-1.7,1-2c0.1-0.4,0-0.8,0-1l10.5,10c0,0.2,0.1,0.6,0,1c0,0.3-0.2,1.4-1,2c-0.4,0.3-0.8,0.4-1.2,0.4
							c-0.7,0-1.4-0.2-1.7-0.3C145.9,238.2,145.4,237.9,145,237.5z"/>
					</defs>
					<clipPath id="SVGID_50_">
						<use xlink:href="#SVGID_49_"  style="overflow:visible;"/>
					</clipPath>
					<g class="st57">
						<path class="st32" d="M145,237.5l-10.5-10c0.1,0.1,0.2,0.2,0.4,0.3l10.5,10C145.2,237.7,145.1,237.6,145,237.5"/>
						<path class="st41" d="M145.4,237.8l-10.5-10c0.4,0.3,0.8,0.5,1.3,0.7c0.2,0.1,0.7,0.2,1.2,0.3l10.5,10c-0.5-0.1-1-0.2-1.2-0.3
							C146.1,238.3,145.7,238.1,145.4,237.8"/>
						<path class="st32" d="M147.9,238.8l-10.5-10c0.1,0,0.3,0,0.5,0c0.1,0,0.1,0,0.2,0l10.5,10c-0.1,0-0.1,0-0.2,0
							C148.2,238.8,148,238.8,147.9,238.8"/>
						<path class="st33" d="M148.5,238.8l-10.5-10c0.1,0,0.2,0,0.3-0.1l10.5,10C148.7,238.7,148.6,238.8,148.5,238.8"/>
						<path class="st34" d="M148.8,238.7l-10.5-10c0.1,0,0.2,0,0.3-0.1l10.5,10C149,238.7,148.9,238.7,148.8,238.7"/>
						<path class="st35" d="M149.1,238.6l-10.5-10c0.1,0,0.1-0.1,0.2-0.1l10.5,10C149.2,238.6,149.2,238.6,149.1,238.6"/>
						<path class="st36" d="M149.3,238.5l-10.5-10c0.1,0,0.1-0.1,0.2-0.1l10.5,10C149.4,238.4,149.4,238.5,149.3,238.5"/>
						<path class="st37" d="M149.5,238.4l-10.5-10c0,0,0,0,0,0c0.1-0.1,0.1-0.1,0.2-0.2l10.5,10
							C149.7,238.2,149.6,238.3,149.5,238.4C149.5,238.4,149.5,238.4,149.5,238.4"/>
						<path class="st38" d="M149.8,238.2l-10.5-10c0.6-0.6,0.7-1.5,0.8-1.8c0.1-0.4,0-0.8,0-1l10.5,10c0,0.2,0.1,0.6,0,1
							C150.5,236.6,150.4,237.5,149.8,238.2"/>
					</g>
				</g>
				<g class="st0">
					<defs>
						<path id="SVGID_51_" class="st0" d="M141.8,235.7l-10.5-10c0.7,0,1.3,0,2-0.1l10.5,10C143.1,235.7,142.4,235.7,141.8,235.7z"
							/>
					</defs>
					<clipPath id="SVGID_52_">
						<use xlink:href="#SVGID_51_"  style="overflow:visible;"/>
					</clipPath>
					<g class="st58">
						<path class="st32" d="M141.8,235.7l-10.5-10c0.7,0,1.3,0,2-0.1l10.5,10C143.1,235.7,142.4,235.7,141.8,235.7"/>
					</g>
				</g>
				<g class="st0">
					<defs>
						<path id="SVGID_53_" class="st0" d="M136.8,239.8l-10.5-10c0.1-0.1,1.7-1.4,4.9-4.1l10.5,10
							C138.6,238.4,136.9,239.7,136.8,239.8z"/>
					</defs>
					<clipPath id="SVGID_54_">
						<use xlink:href="#SVGID_53_"  style="overflow:visible;"/>
					</clipPath>
					<g class="st59">
						<path class="st37" d="M136.8,239.8l-10.5-10c0.1-0.1,1.7-1.4,4.9-4.1l10.5,10C138.6,238.4,136.9,239.7,136.8,239.8"/>
					</g>
				</g>
				<g>
					<polygon class="st39" points="136.8,242.7 126.3,232.7 126.3,229.7 136.8,239.8 					"/>
				</g>
				<g class="st0">
					<defs>
						<path id="SVGID_55_" class="st0" d="M150.6,235.4l-10.5-10c0.1-11.4,0.2-22.8,0.3-34.3l10.5,10
							C150.8,212.5,150.7,224,150.6,235.4z"/>
					</defs>
					<clipPath id="SVGID_56_">
						<use xlink:href="#SVGID_55_"  style="overflow:visible;"/>
					</clipPath>
					<g class="st60">
						<path class="st38" d="M150.6,235.4l-10.5-10c0.1-11.4,0.2-22.8,0.3-34.3l10.5,10C150.8,212.5,150.7,224,150.6,235.4"/>
					</g>
				</g>
				<g class="st0">
					<defs>
						<path id="SVGID_57_" class="st0" d="M150.9,201.1l-10.5-10c3.6-0.1,7.2-0.3,10.8-0.4l10.5,10C158,200.9,154.5,201,150.9,201.1
							z"/>
					</defs>
					<clipPath id="SVGID_58_">
						<use xlink:href="#SVGID_57_"  style="overflow:visible;"/>
					</clipPath>
					<g class="st61">
						<path class="st32" d="M150.9,201.1l-10.5-10c3.6-0.1,7.2-0.3,10.8-0.4l10.5,10C158,200.9,154.5,201,150.9,201.1"/>
					</g>
				</g>
				<g>
					<path class="st45" d="M161.6,200.7c-0.1,13.1-0.2,26.1-0.4,39.2c-2.6,2.4-5.3,4.7-7.9,7.1c-6.5,0.2-10.5,0.4-10.8,0.4l-5.8-4.7
						l0-2.9c0.1-0.1,1.7-1.4,4.9-4.1c0.7,0,1.3,0,2-0.1c0.2,0.5,1.1,2.2,2.9,2.8c0.3,0.1,1,0.3,1.7,0.3c0.4,0,0.9-0.1,1.2-0.4
						c0.8-0.6,0.9-1.7,1-2c0.1-0.4,0-0.8,0-1c0.1-11.4,0.2-22.8,0.3-34.3C154.5,201,158,200.9,161.6,200.7z"/>
				</g>
			</g>
		</g>
	</g>
</g>
</svg>
